<?xml version='1.0' encoding='utf-8'?>
<svg xmlns="http://www.w3.org/2000/svg" xmlns:ns1="http://www.inkscape.org/namespaces/inkscape" xmlns:xlink="http://www.w3.org/1999/xlink" version="1.1" width="1920" height="1080" viewBox="0 0 1920 1080">
<defs>
<clipPath id="clip_1">
<path transform="matrix(1,0,0,-1,0,1080)" d="M0 0H1919.22V1080H0Z" />
</clipPath>
<clipPath id="clip_2">
<path transform="matrix(1,0,0,-1,0,1080)" d="M-508.13 571.13H506.56V1599.33H-508.13Z" />
</clipPath>
<clipPath id="clip_3">
<path transform="matrix(1,0,0,-1,0,1080)" d="M1444.03-530.57H2458.72V497.63H1444.03Z" />
</clipPath>
<clipPath id="clip_4">
<path transform="matrix(1,0,0,-1,0,1080)" d="M0 1080H1920V0H0Z" />
</clipPath>
<clipPath id="clip_5">
<path transform="matrix(1,0,0,-1,0,1080)" d="M0 1080H1920V0H0Z" />
</clipPath>
<clipPath id="clip_6">
<path transform="matrix(1,0,0,-1,0,1080)" d="M0 1080H1920V0H0Z" />
</clipPath>
<clipPath id="clip_7">
<path transform="matrix(1,0,0,-1,0,1080)" d="M0 1080H1920V0H0Z" />
</clipPath>
<clipPath id="clip_8">
<path transform="matrix(1,0,0,-1,0,1080)" d="M471.69 252H476.43V263.23H471.69Z" />
</clipPath>
<clipPath id="clip_9">
<path transform="matrix(1,0,0,-1,0,1080)" d="M459.67 256.64H468.99V265.97H459.67Z" />
</clipPath>
<clipPath id="clip_10">
<path transform="matrix(1,0,0,-1,0,1080)" d="M454.45 268.42H465.68V273.16H454.45Z" />
</clipPath>
<clipPath id="clip_11">
<path transform="matrix(1,0,0,-1,0,1080)" d="M459.09 275.86H468.42V285.18H459.09Z" />
</clipPath>
<clipPath id="clip_12">
<path transform="matrix(1,0,0,-1,0,1080)" d="M478.31 276.43H487.63V285.76H478.31Z" />
</clipPath>
<clipPath id="clip_13">
<path transform="matrix(1,0,0,-1,0,1080)" d="M481.62 269.24H492.85V273.98H481.62Z" />
</clipPath>
<clipPath id="clip_14">
<path transform="matrix(1,0,0,-1,0,1080)" d="M478.88 257.21H488.21V266.54H478.88Z" />
</clipPath>
<clipPath id="clip_15">
<path transform="matrix(1,0,0,-1,0,1080)" d="M471.69 252H476.43V263.23H471.69Z" />
</clipPath>
<clipPath id="clip_16">
<path transform="matrix(1,0,0,-1,0,1080)" d="M459.67 256.64H468.99V265.97H459.67Z" />
</clipPath>
<clipPath id="clip_17">
<path transform="matrix(1,0,0,-1,0,1080)" d="M454.45 268.42H465.68V273.16H454.45Z" />
</clipPath>
<clipPath id="clip_18">
<path transform="matrix(1,0,0,-1,0,1080)" d="M459.09 275.86H468.42V285.18H459.09Z" />
</clipPath>
<clipPath id="clip_19">
<path transform="matrix(1,0,0,-1,0,1080)" d="M478.31 276.43H487.63V285.76H478.31Z" />
</clipPath>
<clipPath id="clip_20">
<path transform="matrix(1,0,0,-1,0,1080)" d="M481.62 269.24H492.85V273.98H481.62Z" />
</clipPath>
<clipPath id="clip_21">
<path transform="matrix(1,0,0,-1,0,1080)" d="M478.88 257.21H488.21V266.54H478.88Z" />
</clipPath>
<clipPath id="clip_22">
<path transform="matrix(1,0,0,-1,0,1080)" d="M0 1080H1920V0H0Z" />
</clipPath>
<clipPath id="clip_23">
<path transform="matrix(1,0,0,-1,0,1080)" d="M405.6 570.59C405.6 564.91 410.2 560.3 415.89 560.3 462.74 560.3 500.86 522.19 500.86 475.33 500.86 428.48 462.74 390.37 415.89 390.37 410.2 390.37 405.6 385.76 405.6 380.07 405.6 374.39 410.2 369.78 415.89 369.78 444.08 369.78 470.59 380.76 490.52 400.7 510.46 420.63 521.44 447.14 521.44 475.33 521.44 503.53 510.46 530.03 490.52 549.97 470.59 569.91 444.08 580.88 415.89 580.88 410.2 580.88 405.6 576.28 405.6 570.59" />
</clipPath>
<clipPath id="clip_24">
<path transform="matrix(1,0,0,-1,0,1080)" d="M0 1080H1920V0H0Z" />
</clipPath>
<clipPath id="clip_25">
<path transform="matrix(1,0,0,-1,0,1080)" d="M0 1080H1920V0H0Z" />
</clipPath>
</defs>
<g>
<g ns1:groupmode="layer" ns1:label="Layer 1">
</g>
<g ns1:groupmode="layer" ns1:label="Layer 2">
</g>
<g ns1:groupmode="layer" ns1:label="Page18">
</g>
<g ns1:groupmode="layer" ns1:label="Page17">
</g>
<g ns1:groupmode="layer" ns1:label="Page 16">
</g>
<g ns1:groupmode="layer" ns1:label="Page 15">
</g>
<g ns1:groupmode="layer" ns1:label="Page 14">
</g>
<g ns1:groupmode="layer" ns1:label="Page 13">
</g>
<g ns1:groupmode="layer" ns1:label="Page 12">
</g>
<g ns1:groupmode="layer" ns1:label="Page 11">
</g>
<g ns1:groupmode="layer" ns1:label="Page 10">
<path transform="matrix(1,0,0,-1,0,1080)" d="M3.62 0H1919.22V1074.76H3.62Z" fill="#ffffff" />
<g clip-path="url(#clip_1)">
<path transform="matrix(1,0,0,-1,1927.36,1085.24)" d="M0 0H-1094.21C-1143.35 0-1183.19 39.84-1183.19 88.98V1002.1C-1183.19 1051.24-1143.35 1091.08-1094.21 1091.08H-34.89C-15.62 1091.08 0 1075.46 0 1056.19Z" fill="#ff5533" />
<g opacity=".5">
<g clip-path="url(#clip_2)">
<path transform="matrix(1,0,0,-1,462.3,65.36)" d="M0 0C59.02 28.17 59.02 113.02 0 141.18-86.24 182.35-164.09 238.56-230.31 306.44-297.31 373.55-352.79 452.44-393.42 539.84-421.22 599.64-504.95 599.64-532.75 539.84-573.38 452.44-628.86 373.55-695.86 306.44-762.08 238.56-839.93 182.35-926.17 141.18-985.18 113.02-985.18 28.17-926.17 0-839.91-41.17-762.06-97.39-695.83-165.29-628.85-232.39-573.37-311.27-532.75-398.66-504.95-458.46-421.22-458.46-393.42-398.66-352.8-311.27-297.32-232.38-230.33-165.29-164.11-97.39-86.25-41.17 0 0" fill="#f2f2f2" />
</g>
</g>
<g opacity=".0899963">
<g clip-path="url(#clip_3)">
<path transform="matrix(1,0,0,-1,2414.46,1167.06)" d="M0 0C59.02 28.17 59.02 113.02 0 141.18-86.24 182.35-164.09 238.56-230.3 306.44-297.31 373.55-352.79 452.44-393.42 539.84-421.22 599.64-504.95 599.64-532.75 539.84-573.38 452.44-628.86 373.55-695.86 306.44-762.08 238.56-839.93 182.35-926.17 141.18-985.18 113.02-985.18 28.17-926.17 0-839.91-41.17-762.06-97.39-695.83-165.29-628.85-232.39-573.37-311.27-532.75-398.66-504.95-458.46-421.22-458.46-393.42-398.66-352.8-311.27-297.32-232.38-230.33-165.29-164.11-97.39-86.25-41.17 0 0" fill="#f2f2f2" />
</g>
</g>
</g>
<g clip-path="url(#clip_4)">
<path transform="matrix(1,0,0,-1,1545.38,230.24)" d="M0 0-133.35-230.97C-146.32-253.43-130.11-281.51-104.17-281.51H162.53C188.47-281.51 204.68-253.43 191.71-230.97L58.36 0C45.39 22.46 12.97 22.46 0 0" fill="#f2f2f2" />
</g>
<g clip-path="url(#clip_5)">
<path transform="matrix(1,0,0,-1,1653.11,110.28)" d="M0 0V-8.33C0-8.69 .31-8.98 .693-8.98H8.02C8.4-8.98 8.71-8.69 8.71-8.33V2.58C8.71 3.08 8.29 3.22 7.94 3.06 5.5 2 2.59 1.18 .644 .697 .26 .601 0 .32 0 0" fill="#f2f2f2" />
<path transform="matrix(1,0,0,-1,1673.5,108.26)" d="M0 0C-.828-.775-2.05-1.72-3.5-1.72-4.89-1.72-5.96-.4-6.6 .4-6.81 .66-7.37 .498-7.37 .046V-10.34C-7.37-10.71-7.06-11-6.67-11H.655C1.04-11 1.35-10.71 1.35-10.34V.163C1.35 .669 .844 .812 .577 .576 .391 .412 .156 .146 0 0" fill="#f2f2f2" />
<path transform="matrix(1,0,0,-1,1686.96,87.35)" d="M0 0C-1.73-3.26-4.65-6.98-7.4-9.16-7.66-9.37-7.81-9.73-7.81-10.03V-31.25C-7.81-31.65-7.5-31.91-7.12-31.91H.214C.597-31.91 .907-31.66 .907-31.25V-.178C.902 .301 .232 .438 0 0" fill="#f2f2f2" />
<path transform="matrix(1,0,0,-1,1677.26,86.19)" d="M0 0C-1.83 .073-3.25 1.61-3.17 3.44-3.1 5.27-1.56 6.69 .265 6.62 2.09 6.54 3.51 5 3.44 3.18 3.37 1.35 1.83-.073 0 0M6.35 11.04C.214 10.99-6.8 7.28-11.02 2.96-14.49 2.96-20.89 1.97-23.19-.92-23.67-1.52-23.48-2.32-22.78-2.63-22.12-2.92-18.26-3.8-18.11-3.98-18.47-4.71-18.46-5.05-17.99-5.7-17.94-5.78-17.88-5.85-17.82-5.93-17.62-5.91-17.41-5.89-17.2-5.89H-17.11C-14.76-5.92-12.7-7.28-11.72-9.44-11.19-10.61-11.05-11.87-11.27-13.06-11.03-13.34-10.8-13.62-10.58-13.91-10.11-14.42-9.57-14.3-8.99-14.1-8.57-15.55-8.58-17.56-8.07-18.94-7.8-19.68-7.01-19.85-6.36-19.46-5.98-19.23-5.03-18.07-4.73-17.66-2.64-14.85-1.74-11.21-1.38-7.77 3.37-4.06 7.8 2.59 8.47 8.7 8.7 10.8 8.47 11.06 6.35 11.04" fill="#f2f2f2" />
<path transform="matrix(1,0,0,-1,1660.13,93.54)" d="M0 0C-3.46 .045-4.62-3.22-5.72-5.88-6.17-6.96-7.09-9.07-7.26-10.13-7.34-10.62-7.15-11.06-6.74-11.31-6.22-11.62-5.83-11.39-5.29-11.26-3.22-10.76 2.1-9.13 3.42-7.58 5.91-4.66 3.87-.05 0 0" fill="#f2f2f2" />
<path transform="matrix(1,0,0,-1,1712.58,83.5)" d="M0 0H-3.61V-4.4H0C1.34-4.4 2.34-3.54 2.34-2.2 2.34-.884 1.34 0 0 0M-7-13.02V2.92H.454C3.92 2.92 5.81 .573 5.81-2.22 5.81-5 3.9-7.31 .454-7.31H-3.61V-13.02Z" fill="#f2f2f2" />
<path transform="matrix(1,0,0,-1,1722.4,89.66)" d="M0 0H5.69C5.62 1.1 4.85 2.56 2.84 2.56 .956 2.56 .143 1.15 0 0M2.84 4.97C6.29 4.97 8.63 2.39 8.63-1.39V-2.06H.047C.239-3.51 1.41-4.73 3.37-4.73 4.45-4.73 5.71-4.3 6.45-3.58L7.79-5.54C6.62-6.62 4.83-7.14 3.04-7.14-.478-7.14-3.13-4.78-3.13-1.07-3.13 2.27-.669 4.97 2.84 4.97" fill="#f2f2f2" />
<path transform="matrix(1,0,0,-1,1733.23,96.52)" d="M0 0V11.54H3.04V9.96C3.85 10.99 5.28 11.8 6.71 11.8V8.84C6.5 8.89 6.21 8.91 5.88 8.91 4.88 8.91 3.54 8.36 3.04 7.62V0Z" fill="#f2f2f2" />
<path transform="matrix(1,0,0,-1,1745.56,87.63)" d="M0 0V-8.89H-3.06V0H-4.97V2.65H-3.06V3.27C-3.06 5.78-1.43 7.29 .836 7.29 1.7 7.29 2.48 7.1 3.04 6.81L2.41 4.66C2.15 4.83 1.79 4.9 1.43 4.9 .573 4.9 0 4.33 0 3.23V2.65H2.34V0Z" fill="#f2f2f2" />
<path transform="matrix(1,0,0,-1,1757.97,90.74)" d="M0 0C0 1.79-1.07 3.35-2.96 3.35-4.85 3.35-5.9 1.79-5.9 0-5.9-1.82-4.85-3.37-2.96-3.37-1.07-3.37 0-1.82 0 0M-9.06 0C-9.06 3.27-6.76 6.05-2.96 6.05 .86 6.05 3.15 3.27 3.15 0 3.15-3.3 .86-6.07-2.96-6.07-6.76-6.07-9.06-3.3-9.06 0" fill="#f2f2f2" />
<path transform="matrix(1,0,0,-1,1763.37,96.52)" d="M0 0V11.54H3.04V9.96C3.85 10.99 5.28 11.8 6.71 11.8V8.84C6.5 8.89 6.21 8.91 5.88 8.91 4.88 8.91 3.54 8.36 3.04 7.62V0Z" fill="#f2f2f2" />
<path transform="matrix(1,0,0,-1,1786.29,96.52)" d="M0 0V7.29C0 8.36-.478 9.13-1.72 9.13-2.8 9.13-3.68 8.41-4.11 7.79V0H-7.17V7.29C-7.17 8.36-7.65 9.13-8.89 9.13-9.94 9.13-10.82 8.41-11.28 7.77V0H-14.31V11.54H-11.28V10.04C-10.8 10.73-9.27 11.83-7.5 11.83-5.81 11.83-4.73 11.04-4.3 9.73-3.63 10.78-2.1 11.83-.335 11.83 1.79 11.83 3.06 10.71 3.06 8.34V0Z" fill="#f2f2f2" />
<path transform="matrix(1,0,0,-1,1799.27,92.32)" d="M0 0C-.501 .669-1.46 1-2.44 1-3.63 1-4.61 .358-4.61-.741-4.61-1.82-3.63-2.44-2.44-2.44-1.46-2.44-.501-2.1 0-1.43ZM0-4.21V-3.01C-.788-3.94-2.15-4.49-3.66-4.49-5.5-4.49-7.67-3.25-7.67-.669-7.67 2.03-5.5 3.01-3.66 3.01-2.13 3.01-.764 2.53 0 1.6V3.2C0 4.37-1 5.14-2.53 5.14-3.78 5.14-4.92 4.68-5.9 3.78L-7.05 5.81C-5.64 7.05-3.82 7.62-2.01 7.62 .622 7.62 3.04 6.57 3.04 3.25V-4.21Z" fill="#f2f2f2" />
<path transform="matrix(1,0,0,-1,1813.1,96.52)" d="M0 0V6.98C0 8.58-.836 9.13-2.13 9.13-3.32 9.13-4.25 8.46-4.76 7.77V0H-7.79V11.54H-4.76V10.04C-4.01 10.92-2.6 11.83-.717 11.83 1.82 11.83 3.04 10.39 3.04 8.15V0Z" fill="#f2f2f2" />
<path transform="matrix(1,0,0,-1,1824.53,84.69)" d="M0 0C2.37 0 3.8-1.03 4.56-2.1L2.58-3.94C2.03-3.15 1.19-2.7 .143-2.7-1.7-2.7-2.99-4.04-2.99-6.05-2.99-8.05-1.7-9.41 .143-9.41 1.19-9.41 2.03-8.94 2.58-8.17L4.56-10.01C3.8-11.09 2.37-12.12 0-12.12-3.56-12.12-6.12-9.61-6.12-6.05-6.12-2.51-3.56 0 0 0" fill="#f2f2f2" />
<path transform="matrix(1,0,0,-1,1833.47,89.66)" d="M0 0H5.69C5.62 1.1 4.85 2.56 2.84 2.56 .956 2.56 .144 1.15 0 0M2.84 4.97C6.29 4.97 8.63 2.39 8.63-1.39V-2.06H.047C.239-3.51 1.41-4.73 3.37-4.73 4.45-4.73 5.71-4.3 6.45-3.58L7.79-5.54C6.62-6.62 4.83-7.14 3.04-7.14-.478-7.14-3.13-4.78-3.13-1.07-3.13 2.27-.669 4.97 2.84 4.97" fill="#f2f2f2" />
<path transform="matrix(1,0,0,-1,1712.53,106.11)" d="M0 0H-3.56V-4.4H0C1.36-4.4 2.39-3.54 2.39-2.2 2.39-.86 1.36 0 0 0M2.06-13.02-1.07-7.31H-3.56V-13.02H-6.95V2.92H.502C3.82 2.92 5.86 .741 5.86-2.22 5.86-5.04 4.09-6.55 2.37-6.95L5.95-13.02Z" fill="#f2f2f2" />
<path transform="matrix(1,0,0,-1,1722.55,112.27)" d="M0 0H5.69C5.62 1.1 4.85 2.56 2.84 2.56 .956 2.56 .144 1.15 0 0M2.84 4.97C6.29 4.97 8.63 2.39 8.63-1.39V-2.06H.047C.239-3.51 1.41-4.73 3.37-4.73 4.45-4.73 5.71-4.3 6.45-3.58L7.79-5.54C6.62-6.62 4.83-7.14 3.04-7.14-.478-7.14-3.13-4.78-3.13-1.07-3.13 2.27-.669 4.97 2.84 4.97" fill="#f2f2f2" />
<path transform="matrix(1,0,0,-1,1736.36,119.13)" d="M0 0-4.64 11.54H-1.39L1.62 3.51 4.64 11.54H7.91L3.27 0Z" fill="#f2f2f2" />
<path transform="matrix(1,0,0,-1,0,1080)" d="M1745.63 972.41H1748.67V960.87H1745.63ZM1745.32 975.92C1745.32 976.93 1746.16 977.74 1747.14 977.74 1748.14 977.74 1748.96 976.93 1748.96 975.92 1748.96 974.92 1748.14 974.11 1747.14 974.11 1746.16 974.11 1745.32 974.92 1745.32 975.92" fill="#f2f2f2" />
<path transform="matrix(1,0,0,-1,1754.07,112.27)" d="M0 0H5.69C5.62 1.1 4.85 2.56 2.84 2.56 .956 2.56 .144 1.15 0 0M2.84 4.97C6.29 4.97 8.63 2.39 8.63-1.39V-2.06H.047C.239-3.51 1.41-4.73 3.37-4.73 4.45-4.73 5.71-4.3 6.45-3.58L7.79-5.54C6.62-6.62 4.83-7.14 3.04-7.14-.478-7.14-3.13-4.78-3.13-1.07-3.13 2.27-.669 4.97 2.84 4.97" fill="#f2f2f2" />
<path transform="matrix(1,0,0,-1,1775.03,119.13)" d="M0 0-2.44 7.86-4.88 0H-8.12L-11.64 11.54H-8.48L-6.33 3.78-3.8 11.54H-1.1L1.43 3.78 3.58 11.54H6.74L3.23 0Z" fill="#f2f2f2" />
<path transform="matrix(1,0,0,-1,1789.01,119.13)" d="M0 0V2.68C6.52 7.48 8.44 9.13 8.44 11.09 8.44 12.47 7.17 13.17 5.83 13.17 4.04 13.17 2.65 12.45 1.58 11.33L-.358 13.57C1.2 15.37 3.56 16.18 5.78 16.18 9.18 16.18 11.88 14.27 11.88 11.09 11.88 8.36 9.63 6 5.35 2.99H12V0Z" fill="#f2f2f2" />
<path transform="matrix(1,0,0,-1,1809.64,105.96)" d="M0 0C-2.29 0-3.15-2.27-3.15-5.21-3.15-8.15-2.29-10.44 0-10.44 2.27-10.44 3.13-8.15 3.13-5.21 3.13-2.27 2.27 0 0 0M0 3.01C4.54 3.01 6.6-1.1 6.6-5.21 6.6-9.32 4.54-13.45 0-13.45-4.56-13.45-6.6-9.32-6.6-5.21-6.6-1.1-4.56 3.01 0 3.01" fill="#f2f2f2" />
<path transform="matrix(1,0,0,-1,1818.17,119.13)" d="M0 0V2.68C6.52 7.48 8.44 9.13 8.44 11.09 8.44 12.47 7.17 13.17 5.83 13.17 4.04 13.17 2.65 12.45 1.58 11.33L-.359 13.57C1.2 15.37 3.56 16.18 5.78 16.18 9.18 16.18 11.88 14.27 11.88 11.09 11.88 8.36 9.63 6 5.35 2.99H12V0Z" fill="#f2f2f2" />
<path transform="matrix(1,0,0,-1,1834.42,114.73)" d="M0 0C1.1-1.12 2.58-1.72 4.25-1.72 6.14-1.72 7.22-.645 7.22 .669 7.22 2.13 6.17 3.11 4.35 3.11 3.04 3.11 1.96 2.7 1 1.79L-1.36 2.44V11.54H9.58V8.63H1.96V4.64C2.8 5.38 4.09 5.95 5.54 5.95 8.24 5.95 10.66 4.04 10.66 .812 10.66-2.56 8.12-4.68 4.28-4.68 1.5-4.68-.502-3.78-1.86-2.29Z" fill="#f2f2f2" />
<path transform="matrix(1,0,0,-1,98.34,96.89)" d="M0 0C.288 7.21 6.36 12.82 13.56 12.53 15.48 12.46 17.28 11.97 18.89 11.17 23.33 8.94 26.3 4.26 26.08-1.03 25.8-8.24 19.72-13.85 12.52-13.57 7.91-13.38 3.95-10.82 1.77-7.12 .554-5.03-.104-2.59 0 0M28.7-13.49C30.3-11.56 31.52-9.33 32.3-6.95 32.89-5.17 33.22-3.3 33.3-1.42 33.67 7.85 27.76 15.91 19.37 18.66 17.62 19.23 15.78 19.57 13.85 19.65 13.43 19.67-2.25 19.66-9.08 19.65-9.99 19.65-10.42 18.6-9.9 17.95-9.85 17.89-4.87 14.13-4.81 14.06-4.31 13.41-4.75 12.39-5.65 12.38L-22.29 12.38C-22.79 12.38-23.15 12.06-23.28 11.67-23.41 11.28-23.32 10.81-22.93 10.51L-9.7 .398C-8.9-.211-9.34-1.49-10.35-1.47-11.11-1.47-16.36-1.45-16.46-1.48-17.2-1.66-17.51-2.67-16.95-3.27-7.3-13.79 .69-18.76 8.14-20.3 12.11-21.29 16.37-21.05 20.2-19.6 23.36-18.44 26.02-16.53 28.09-14.2 28.3-13.97 28.5-13.73 28.7-13.49" fill="#ff5533" />
<path transform="matrix(1,0,0,-1,111.73,95.37)" d="M0 0C.049 1.34 1.18 2.39 2.52 2.34 3.86 2.3 4.91 1.17 4.86-.176 4.81-1.52 3.69-2.57 2.34-2.52 .999-2.47-.049-1.34 0 0M7.25-2.06C7.42 2.09 4.2 5.58 .053 5.74-4.09 5.91-7.58 2.68-7.75-1.46-7.91-5.61-4.69-9.1-.547-9.26 3.6-9.43 7.09-6.2 7.25-2.06" fill="#ff5533" />
<path transform="matrix(1,0,0,-1,144.34,84)" d="M0 0C-1.95 .369-3.03 .685-3.03 1.61-3.03 2.37-2.45 2.98-.948 2.98 .605 2.98 2.53 2.37 4 1.16L6.48 4.4C4.61 6 2.16 6.84-.658 6.84-5.16 6.84-7.66 4.29-7.66 1.34-7.66-2.82-3.61-3.55-.711-4.13 1.16-4.53 2.29-4.92 2.29-5.92 2.29-6.77 1.34-7.42-.21-7.42-2.61-7.42-4.55-6.37-5.82-5.11L-8.21-8.5C-6.45-10.19-3.98-11.29-.421-11.29 4.29-11.29 6.9-8.95 6.9-5.42 6.9-1.45 2.9-.605 0 0" fill="#ff5533" />
<path transform="matrix(1,0,0,-1,160.91,95.36)" d="M0 0C5.66 0 8.17 4.02 8.17 8.39V17.88H3.49V7.9C3.49 5.82 2.4 4 0 4-2.43 4-3.52 5.82-3.52 7.9V17.88H-8.2V8.36C-8.2 4.04-5.66 0 0 0" fill="#ff5533" />
<path transform="matrix(1,0,0,-1,180.62,117.41)" d="M0 0C5.66 0 8.17 4.02 8.17 8.39V17.88H3.49V7.9C3.49 5.82 2.4 4 0 4-2.43 4-3.52 5.82-3.52 7.9V17.88H-8.2V8.36C-8.2 4.04-5.66 0 0 0" fill="#ff5533" />
<path transform="matrix(1,0,0,-1,177.1,84.49)" d="M0 0 7.67-10.7H11.69V7.01H7.02V-3.19L-.284 7.01H-4.68V-10.7H0Z" fill="#ff5533" />
<path transform="matrix(1,0,0,-1,144.34,106.21)" d="M0 0C-1.95 .368-3.03 .685-3.03 1.61-3.03 2.37-2.45 2.98-.948 2.98 .605 2.98 2.53 2.37 4 1.16L6.48 4.4C4.61 6 2.16 6.84-.658 6.84-5.16 6.84-7.66 4.29-7.66 1.34-7.66-2.82-3.61-3.55-.711-4.13 1.16-4.53 2.29-4.92 2.29-5.92 2.29-6.77 1.34-7.42-.21-7.42-2.61-7.42-4.55-6.37-5.82-5.11L-8.21-8.5C-6.45-10.19-3.98-11.29-.421-11.29 4.29-11.29 6.9-8.95 6.9-5.42 6.9-1.45 2.9-.605 0 0" fill="#ff5533" />
<path transform="matrix(1,0,0,-1,152.71,103.54)" d="M0 0H6.01V-13.7H10.69V0H16.37V4.01H0Z" fill="#ff5533" />
<path transform="matrix(1,0,0,-1,199.33,113.23)" d="M0 0H-2.85V9.69H.026C3.25 9.69 4.88 7.58 4.88 4.86 4.88 2.24 3.09 0 0 0M-.095 13.7H-7.53V-4.01H-.069C5.48-4.01 9.49-.637 9.49 4.86 9.49 10.35 5.48 13.7-.095 13.7" fill="#ff5533" />
<path transform="matrix(1,0,0,-1,0,1080)" d="M211.51 962.76H216.19V980.46H211.51Z" fill="#ff5533" />
<path transform="matrix(1,0,0,-1,194.27,95.27)" d="M0 0C1.4 0 2.53 1.13 2.53 2.53 2.53 3.93 1.4 5.06 0 5.06-1.4 5.06-2.53 3.93-2.53 2.53-2.53 1.13-1.4 0 0 0" fill="#ff5533" />
<path transform="matrix(1,0,0,-1,227.84,113.26)" d="M0 0C-2.68 0-4.86 2.17-4.86 4.86-4.86 7.54-2.68 9.71 0 9.71 2.68 9.71 4.85 7.54 4.85 4.86 4.85 2.17 2.68 0 0 0M0 13.96C-5.03 13.96-9.11 9.88-9.11 4.86-9.11-.174-5.03-4.25 0-4.25 5.03-4.25 9.11-.174 9.11 4.86 9.11 9.88 5.03 13.96 0 13.96" fill="#ff5533" />
<path transform="matrix(1,0,0,-1,1177.98,253.69)" d="M0 0 133.35-230.97C146.32-253.43 178.74-253.43 191.71-230.97L325.06 0C338.03 22.46 321.82 50.54 295.88 50.54L29.18 50.54C3.24 50.54-12.97 22.46 0 0" fill="#f2f2f2" />
<path transform="matrix(1,0,0,-1,1270.32,461.21)" d="M0 0-133.35 230.97C-146.32 253.43-178.74 253.43-191.71 230.97L-325.06 0C-338.03-22.46-321.82-50.54-295.88-50.54H-29.18C-3.24-50.54 12.97-22.46 0 0" fill="#f2f2f2" />
</g>
<g clip-path="url(#clip_6)">
<path transform="matrix(1,0,0,-1,623.69,698.99)" d="M0 0C-52.38 0-94.84 42.46-94.84 94.84-94.84 147.22-52.38 189.69 0 189.69 52.38 189.69 94.84 147.22 94.84 94.84 94.84 42.46 52.38 0 0 0" fill="#ff5533" />
<path transform="matrix(1,0,0,-1,318.93,814.06)" d="M0 0C0 52.38 42.46 94.84 94.84 94.84 147.22 94.84 189.69 52.38 189.69 0 189.69-52.38 147.22-94.84 94.84-94.84 42.46-94.84 0-52.38 0 0" fill="#ff5533" />
<path transform="matrix(1,0,0,-1,203.86,509.3)" d="M0 0C52.38 0 94.84-42.46 94.84-94.84 94.84-147.22 52.38-189.69 0-189.69-52.38-189.69-94.84-147.22-94.84-94.84-94.84-42.46-52.38 0 0 0" fill="#ff5533" />
<path transform="matrix(1,0,0,-1,508.62,394.23)" d="M0 0C0-52.38-42.46-94.84-94.84-94.84-147.22-94.84-189.69-52.38-189.69 0-189.69 52.38-147.22 94.84-94.84 94.84-42.46 94.84 0 52.38 0 0" fill="#ff5533" />
</g>
<g clip-path="url(#clip_7)">
<path transform="matrix(1,0,0,-1,662.79,613.31)" stroke-width="6" stroke-linecap="round" stroke-linejoin="bevel" fill="none" stroke="#ffffff" d="M0 0 8.15-11.19C10.28-14.11 14.48-13.95 16.4-10.88L29 12.98" />
<path transform="matrix(1,0,0,-1,257.94,588.04)" d="M0 0C1.71-6.23-2.78-11.61-7.25-15.28-8.63-16.41-10.71-17.33-9.83-19.55-9.47-20.47-6.92-22.17-6.03-22.96-2.09-26.45 1.58-31.63 0-37.2 1.02-37.2 2.11-38.12 2.26-39.13 2.49-40.7 2.27-42.48 .523-42.95-8.71-43.18-17.97-42.98-27.22-43.05-29.42-42.87-29.81-41.09-29.58-39.19-29.46-38.14-28.36-37.21-27.31-37.2-28.89-31.73-25.33-26.59-21.46-23.12-20.34-22.11-19.1-21.23-17.95-20.26-15.86-17.56-19.15-16.08-20.88-14.6-23.56-12.29-26.23-9.2-27.21-5.72-27.49-4.74-28.14-2.6-26.56-2.41-25.14-2.24-25.2-3.85-24.97-4.77-24.14-8.02-21.46-10.97-18.95-13.07-17.19-14.55-15.13-15.5-14.89-18.11-14.58-21.59-17.33-22.7-19.51-24.61-22.96-27.64-26.58-32.33-24.77-37.19L-2.53-37.16C-2.33-36.65-2.16-36.07-2.09-35.53-1.49-30.88-5.37-26.59-8.68-23.87-10.43-22.44-12.21-21.59-12.42-19.02-12.71-15.45-9.5-14.18-7.28-12.13-4.07-9.16-.732-4.56-2.58 .003L-27.35-.002C-29.45 .229-29.82 2.05-29.58 3.86-29.47 4.71-28.66 5.57-27.84 5.76-18.57 5.97-9.26 5.8 .024 5.84 2.16 5.57 2.45 3.9 2.28 2.05 2.18 .979 1.06 .008 0 0" fill="#ffffff" />
<path transform="matrix(1,0,0,-1,252.15,591.61)" d="M0 0C-.154-1.14-.81-2.26-1.47-3.18-3.2-5.6-5.59-7.23-7.84-9.1-10.98-6.63-14.61-4.14-15.8-.097Z" fill="#ffffff" />
<g opacity=".550003">
<g clip-path="url(#clip_8)">
<path transform="matrix(1,0,0,-1,474.06,816.77)" d="M0 0V0C-1.31 0-2.37-1.06-2.37-2.37V-8.86C-2.37-10.17-1.31-11.23 0-11.23 1.31-11.23 2.37-10.17 2.37-8.86V-2.37C2.37-1.06 1.31 0 0 0" fill="#ffffff" />
</g>
</g>
<g opacity=".399994">
<g clip-path="url(#clip_9)">
<path transform="matrix(1,0,0,-1,468.3,814.73)" d="M0 0C-.926 .926-2.43 .926-3.35 0L-7.94-4.59C-8.87-5.51-8.87-7.01-7.94-7.94-7.01-8.87-5.51-8.87-4.59-7.94L0-3.35C.926-2.43 .926-.926 0 0Z" fill="#ffffff" />
</g>
</g>
<g opacity=".300003">
<g clip-path="url(#clip_10)">
<path transform="matrix(1,0,0,-1,465.68,809.21)" d="M0 0V0C0 1.31-1.06 2.37-2.37 2.37H-8.86C-10.17 2.37-11.23 1.31-11.23 0-11.23-1.31-10.17-2.37-8.86-2.37H-2.37C-1.06-2.37 0-1.31 0 0" fill="#ffffff" />
</g>
</g>
<g opacity=".199997">
<g clip-path="url(#clip_11)">
<path transform="matrix(1,0,0,-1,464.37,803.45)" d="M0 0C.926-.926 2.43-.926 3.35 0 4.28 .926 4.28 2.43 3.35 3.35L-1.23 7.94C-2.16 8.87-3.66 8.87-4.59 7.94-5.51 7.01-5.51 5.51-4.59 4.59Z" fill="#ffffff" />
</g>
</g>
<path transform="matrix(1,0,0,-1,473.24,800.83)" d="M0 0C1.31 0 2.37 1.06 2.37 2.37V8.86C2.37 10.17 1.31 11.23 0 11.23-1.31 11.23-2.37 10.17-2.37 8.86V2.37C-2.37 1.06-1.31 0 0 0" fill="#ffffff" />
<g opacity=".899994">
<g clip-path="url(#clip_12)">
<path transform="matrix(1,0,0,-1,479,802.88)" d="M0 0C.926-.926 2.43-.926 3.35 0L7.94 4.59C8.87 5.51 8.87 7.01 7.94 7.94 7.01 8.87 5.51 8.87 4.59 7.94L0 3.35C-.926 2.43-.926 .926 0 0Z" fill="#ffffff" />
</g>
</g>
<g opacity=".800003">
<g clip-path="url(#clip_13)">
<path transform="matrix(1,0,0,-1,490.48,806.02)" d="M0 0H-6.49C-7.8 0-8.86-1.06-8.86-2.37-8.86-3.68-7.8-4.74-6.49-4.74H0C1.31-4.74 2.37-3.68 2.37-2.37 2.37-1.06 1.31 0 0 0" fill="#ffffff" />
</g>
</g>
<g opacity=".699997">
<g clip-path="url(#clip_14)">
<path transform="matrix(1,0,0,-1,482.93,814.15)" d="M0 0C-.926 .926-2.43 .926-3.35 0-4.28-.926-4.28-2.43-3.35-3.35L1.23-7.94C2.16-8.87 3.66-8.87 4.59-7.94 5.51-7.01 5.51-5.51 4.59-4.59Z" fill="#ffffff" />
</g>
</g>
<g opacity=".550003">
<g clip-path="url(#clip_15)">
<path transform="matrix(1,0,0,-1,474.06,816.77)" d="M0 0V0C-1.31 0-2.37-1.06-2.37-2.37V-8.86C-2.37-10.17-1.31-11.23 0-11.23 1.31-11.23 2.37-10.17 2.37-8.86V-2.37C2.37-1.06 1.31 0 0 0" fill="#ffffff" />
</g>
</g>
<g opacity=".399994">
<g clip-path="url(#clip_16)">
<path transform="matrix(1,0,0,-1,468.3,814.73)" d="M0 0C-.926 .926-2.43 .926-3.35 0L-7.94-4.59C-8.87-5.51-8.87-7.01-7.94-7.94-7.01-8.87-5.51-8.87-4.59-7.94L0-3.35C.926-2.43 .926-.926 0 0Z" fill="#ffffff" />
</g>
</g>
<g opacity=".300003">
<g clip-path="url(#clip_17)">
<path transform="matrix(1,0,0,-1,465.68,809.21)" d="M0 0V0C0 1.31-1.06 2.37-2.37 2.37H-8.86C-10.17 2.37-11.23 1.31-11.23 0-11.23-1.31-10.17-2.37-8.86-2.37H-2.37C-1.06-2.37 0-1.31 0 0" fill="#ffffff" />
</g>
</g>
<g opacity=".199997">
<g clip-path="url(#clip_18)">
<path transform="matrix(1,0,0,-1,464.37,803.45)" d="M0 0C.926-.926 2.43-.926 3.35 0 4.28 .926 4.28 2.43 3.35 3.35L-1.23 7.94C-2.16 8.87-3.66 8.87-4.59 7.94-5.51 7.01-5.51 5.51-4.59 4.59Z" fill="#ffffff" />
</g>
</g>
<path transform="matrix(1,0,0,-1,473.24,800.83)" d="M0 0C1.31 0 2.37 1.06 2.37 2.37V8.86C2.37 10.17 1.31 11.23 0 11.23-1.31 11.23-2.37 10.17-2.37 8.86V2.37C-2.37 1.06-1.31 0 0 0" fill="#ffffff" />
<g opacity=".899994">
<g clip-path="url(#clip_19)">
<path transform="matrix(1,0,0,-1,479,802.88)" d="M0 0C.926-.926 2.43-.926 3.35 0L7.94 4.59C8.87 5.51 8.87 7.01 7.94 7.94 7.01 8.87 5.51 8.87 4.59 7.94L0 3.35C-.926 2.43-.926 .926 0 0Z" fill="#ffffff" />
</g>
</g>
<g opacity=".800003">
<g clip-path="url(#clip_20)">
<path transform="matrix(1,0,0,-1,490.48,806.02)" d="M0 0H-6.49C-7.8 0-8.86-1.06-8.86-2.37-8.86-3.68-7.8-4.74-6.49-4.74H0C1.31-4.74 2.37-3.68 2.37-2.37 2.37-1.06 1.31 0 0 0" fill="#ffffff" />
</g>
</g>
<g opacity=".699997">
<g clip-path="url(#clip_21)">
<path transform="matrix(1,0,0,-1,482.93,814.15)" d="M0 0C-.926 .926-2.43 .926-3.35 0-4.28-.926-4.28-2.43-3.35-3.35L1.23-7.94C2.16-8.87 3.66-8.87 4.59-7.94 5.51-7.01 5.51-5.51 4.59-4.59Z" fill="#ffffff" />
</g>
</g>
<path transform="matrix(1,0,0,-1,454.85,398.88)" stroke-width="6" stroke-linecap="round" stroke-linejoin="bevel" fill="none" stroke="#ffffff" d="M0 0 8.15-11.19C10.28-14.11 14.48-13.95 16.4-10.88L29 12.98" />
</g>
<g clip-path="url(#clip_22)">
<path transform="matrix(1,0,0,-1,415.89,684.59)" d="M0 0C-44.14 0-79.93 35.78-79.93 79.93-79.93 124.07-44.14 159.85 0 159.85 44.14 159.85 79.93 124.07 79.93 79.93 79.93 35.78 44.14 0 0 0M0 189.69C-60.62 189.69-109.76 140.54-109.76 79.93-109.76 19.31-60.62-29.83 0-29.83 60.62-29.83 109.76 19.31 109.76 79.93 109.76 140.54 60.62 189.69 0 189.69" fill="#cccccc" />
</g>
<g clip-path="url(#clip_23)">
<image x="405" y="499" width="117" height="212" xlink:href="assets/image-01-207cec48f00a.png" />
</g>
<g clip-path="url(#clip_24)">
<path transform="matrix(1,0,0,-1,425.12,699.69)" d="M0 0C0-5.01-4.06-9.07-9.07-9.07-14.08-9.07-18.14-5.01-18.14 0-18.14 5.01-14.08 9.07-9.07 9.07-4.06 9.07 0 5.01 0 0" fill="#ffffff" />
<path transform="matrix(1,0,0,-1,420.18,509.3)" d="M0 0C0-2.28-1.85-4.14-4.14-4.14-6.42-4.14-8.27-2.28-8.27 0-8.27 2.28-6.42 4.14-4.14 4.14-1.85 4.14 0 2.28 0 0" fill="#f2f2f2" />
<path transform="matrix(1,0,0,-1,513.71,603.26)" d="M0 0C0-2.38-1.93-4.3-4.3-4.3-6.68-4.3-8.61-2.38-8.61 0-8.61 2.38-6.68 4.3-4.3 4.3-1.93 4.3 0 2.38 0 0" fill="#f2f2f2" />
<path transform="matrix(1,0,0,-1,324.69,603.26)" d="M0 0C0-2.38-1.93-4.3-4.3-4.3-6.68-4.3-8.61-2.38-8.61 0-8.61 2.38-6.68 4.3-4.3 4.3-1.93 4.3 0 2.38 0 0" fill="#f2f2f2" />
</g>
<g clip-path="url(#clip_25)">
<path transform="matrix(1,0,0,-1,415.89,694.73)" stroke-width="1.5" stroke-linecap="round" stroke-linejoin="round" fill="none" stroke="#ff5533" d="M0 0-4.96-4.96 0-9.92" />
<path transform="matrix(1,0,0,-1,420.85,699.69)" stroke-width="1.5" stroke-linecap="round" stroke-linejoin="round" fill="none" stroke="#ff5533" d="M0 0H-9.92" />
<g ns1:groupmode="layer" ns1:label="Page 9">
</g>
<g ns1:groupmode="layer" ns1:label="Page7">
</g>
<g ns1:groupmode="layer" ns1:label="Page 8">
</g>
<g ns1:groupmode="layer" ns1:label="7">
</g>
<g ns1:groupmode="layer" ns1:label="Layer 31">
</g>
<g ns1:groupmode="layer" ns1:label="8">
</g>
<g ns1:groupmode="layer" ns1:label="Page 5">
</g>
<g ns1:groupmode="layer" ns1:label="Page 3">
</g>
<g ns1:groupmode="layer" ns1:label="Page 2">
</g>
<g ns1:groupmode="layer" ns1:label="Page 1">
</g>
</g>
</g>
<g ns1:groupmode="layer" ns1:label="bleed">
</g>
<g ns1:groupmode="layer" ns1:label="Layer 8">
</g>
</g>
</svg>