<?xml version='1.0' encoding='utf-8'?>
<svg xmlns="http://www.w3.org/2000/svg" xmlns:ns2="http://www.inkscape.org/namespaces/inkscape" xmlns:xlink="http://www.w3.org/1999/xlink" version="1.1" width="441.539" height="544.426" viewBox="0 0 441.539 544.426">
<defs>
<clipPath id="clip_1">
<path transform="matrix(1,0,0,-1,0,2623.16)" d="M0 2623.16H2938.83V0H0Z" />
</clipPath>
<clipPath id="clip_2">
<path transform="matrix(1,0,0,-1,0,2623.16)" d="M0 2623.16H2938.83V0H0Z" />
</clipPath>
<clipPath id="clip_3">
<path transform="matrix(1,0,0,-1,0,2623.16)" d="M0 2623.16H2938.83V0H0Z" />
</clipPath>
<clipPath id="clip_4">
<path transform="matrix(1,0,0,-1,0,2623.16)" d="M493.67 2172.82C468.68 2172.82 448.43 2153.19 448.43 2128.97V1741.33C448.43 1717.12 468.68 1697.49 493.67 1697.49H677.7C702.31 1697.49 722.25 1716.82 722.25 1740.66V1740.66C722.25 1771.74 748.25 1796.94 780.32 1796.94H780.32C804.92 1796.94 824.87 1816.27 824.87 1840.12V2128.97C824.87 2153.19 804.62 2172.82 779.63 2172.82Z" />
</clipPath>
<clipPath id="clip_5">
<path transform="matrix(1,0,0,-1,0,2623.16)" d="M0 2623.16H2938.83V0H0Z" />
</clipPath>
<clipPath id="clip_6">
<path transform="matrix(1,0,0,-1,0,2623.16)" d="M889.27 2172.82C864.28 2172.82 844.02 2153.19 844.02 2128.97V1741.33C844.02 1717.12 864.28 1697.49 889.27 1697.49H1073.3C1097.91 1697.49 1117.85 1716.82 1117.85 1740.66V1740.66C1117.85 1771.74 1143.85 1796.94 1175.92 1796.94 1200.53 1796.94 1220.47 1816.27 1220.47 1840.12V2128.97C1220.47 2153.19 1200.22 2172.82 1175.23 2172.82Z" />
</clipPath>
<clipPath id="clip_7">
<path transform="matrix(1,0,0,-1,0,2623.16)" d="M0 2623.16H2938.83V0H0Z" />
</clipPath>
<clipPath id="clip_8">
<path transform="matrix(1,0,0,-1,0,2623.16)" d="M1284.87 2172.82C1259.88 2172.82 1239.63 2153.19 1239.63 2128.97V1741.33C1239.63 1717.12 1259.88 1697.49 1284.87 1697.49H1468.9C1493.51 1697.49 1513.45 1716.82 1513.45 1740.66V1740.66C1513.45 1771.74 1539.45 1796.94 1571.52 1796.94 1596.13 1796.94 1616.07 1816.27 1616.07 1840.12V2128.97C1616.07 2153.19 1595.82 2172.82 1570.83 2172.82Z" />
</clipPath>
<clipPath id="clip_9">
<path transform="matrix(1,0,0,-1,0,2623.16)" d="M0 2623.16H2938.83V0H0Z" />
</clipPath>
<clipPath id="clip_10">
<path transform="matrix(1,0,0,-1,0,2623.16)" d="M1680.47 2172.82C1655.48 2172.82 1635.23 2153.19 1635.23 2128.97V1741.33C1635.23 1717.12 1655.48 1697.49 1680.47 1697.49H1864.5C1889.11 1697.49 1909.05 1716.82 1909.05 1740.66V1740.66C1909.05 1771.74 1935.05 1796.94 1967.12 1796.94 1991.73 1796.94 2011.67 1816.27 2011.67 1840.12V2128.97C2011.67 2153.19 1991.42 2172.82 1966.43 2172.82Z" />
</clipPath>
<clipPath id="clip_11">
<path transform="matrix(1,0,0,-1,0,2623.16)" d="M0 2623.16H2938.83V0H0Z" />
</clipPath>
<clipPath id="clip_12">
<path transform="matrix(1,0,0,-1,0,2623.16)" d="M2076.07 2172.82C2051.08 2172.82 2030.83 2153.19 2030.83 2128.97V1741.33C2030.83 1717.12 2051.08 1697.49 2076.07 1697.49H2260.1C2284.71 1697.49 2304.66 1716.82 2304.66 1740.66V1740.66C2304.66 1771.74 2330.65 1796.94 2362.72 1796.94 2387.33 1796.94 2407.27 1816.27 2407.27 1840.12V2128.97C2407.27 2153.19 2387.02 2172.82 2362.03 2172.82Z" />
</clipPath>
<clipPath id="clip_13">
<path transform="matrix(1,0,0,-1,0,2623.16)" d="M0 2623.16H2938.83V0H0Z" />
</clipPath>
<clipPath id="clip_14">
<path transform="matrix(1,0,0,-1,0,2623.16)" d="M0 2623.16H2938.83V0H0Z" />
</clipPath>
<clipPath id="clip_15">
<path transform="matrix(1,0,0,-1,0,2623.16)" d="M531.23 800.29C503.44 800.29 480.91 777.76 480.91 749.98V579.54C480.91 551.75 503.44 529.22 531.23 529.22H2204.67C2232.45 529.22 2254.98 551.75 2254.98 579.54V636.61C2254.98 663.98 2232.8 686.16 2205.43 686.16 2169.77 686.16 2140.85 715.08 2140.85 750.74 2140.85 778.11 2118.67 800.29 2091.3 800.29Z" />
</clipPath>
<clipPath id="clip_16">
<path transform="matrix(1,0,0,-1,0,2623.16)" d="M0 2623.16H2938.83V0H0Z" />
</clipPath>
<clipPath id="clip_17">
<path transform="matrix(1,0,0,-1,0,2623.16)" d="M1495.49 748.85H1399.7C1393.02 748.85 1387.6 743.43 1387.6 736.75V708.94C1387.6 702.26 1393.02 696.85 1399.7 696.85H1446.33L1344.47 594.99 1310.79 628.67C1310.77 628.69 1310.76 628.71 1310.73 628.73L1291.07 648.39C1288.71 650.76 1285.61 651.94 1282.52 651.94 1279.42 651.94 1276.32 650.76 1273.96 648.39L1254.3 628.73C1254.28 628.71 1254.26 628.69 1254.24 628.67L1189.17 564.69C1184.44 559.97 1184.44 552.31 1189.17 547.58L1208.83 527.92C1213.55 523.2 1221.21 523.2 1225.94 527.92L1282.52 583.4 1335.92 530C1340.64 525.28 1348.3 525.28 1353.03 530L1354.59 531.57 1483.39 660.37V613.15C1483.39 606.47 1488.81 601.05 1495.49 601.05H1523.3C1529.98 601.05 1535.4 606.47 1535.4 613.15V708.94 736.75C1535.4 743.43 1529.98 748.85 1523.3 748.85Z" />
</clipPath>
<g id="mask_18_contents">
<rect x="0" y="0" width="100%" height="100%" fill="white" />
<g>
<clipPath id="clip_19">
<path transform="matrix(1,0,0,-1,0,2623.16)" d="M-32768-32768H32767V32767H-32768Z" />
</clipPath>
<g clip-path="url(#clip_19)">
<image x="1184" y="1874" width="352" height="226" xlink:href="assets/image-01-fce0320ece37.png" />
</g>
</g>
</g>
<mask id="mask_18" mask-type="luminance">
<use xlink:href="#mask_18_contents" />
</mask>
<clipPath id="clip_20">
<path transform="matrix(1,0,0,-1,0,2623.16)" d="M531.23 501C503.44 501 480.91 478.47 480.91 450.69V280.25C480.91 252.46 503.44 229.93 531.23 229.93H2204.67C2232.45 229.93 2254.98 252.46 2254.98 280.25V337.32C2254.98 364.69 2232.8 386.87 2205.43 386.87 2169.77 386.87 2140.85 415.79 2140.85 451.45 2140.85 478.82 2118.67 501 2091.3 501Z" />
</clipPath>
<clipPath id="clip_21">
<path transform="matrix(1,0,0,-1,0,2623.16)" d="M0 2623.16H2938.83V0H0Z" />
</clipPath>
<clipPath id="clip_22">
<path transform="matrix(1,0,0,-1,0,2623.16)" d="M1495.49 434.11H1399.7C1393.02 434.11 1387.6 428.69 1387.6 422.01V394.21C1387.6 387.52 1393.02 382.11 1399.7 382.11H1446.33L1344.47 280.25 1310.79 313.93C1310.77 313.95 1310.76 313.97 1310.73 313.99L1291.07 333.65C1288.71 336.02 1285.61 337.2 1282.52 337.2 1279.42 337.2 1276.32 336.02 1273.96 333.65L1254.3 313.99C1254.28 313.97 1254.26 313.95 1254.24 313.93L1189.17 249.95C1184.44 245.23 1184.44 237.57 1189.17 232.84L1208.83 213.18C1213.55 208.46 1221.21 208.46 1225.94 213.18L1282.52 268.67 1335.92 215.26C1340.64 210.54 1348.3 210.54 1353.03 215.26L1354.59 216.83 1483.39 345.63V298.41C1483.39 291.73 1488.81 286.31 1495.49 286.31H1523.3C1529.98 286.31 1535.4 291.73 1535.4 298.41V394.21 422.01C1535.4 428.69 1529.98 434.11 1523.3 434.11Z" />
</clipPath>
<g id="mask_23_contents">
<rect x="0" y="0" width="100%" height="100%" fill="white" />
<g>
<clipPath id="clip_24">
<path transform="matrix(1,0,0,-1,0,2623.16)" d="M-32768-32768H32767V32767H-32768Z" />
</clipPath>
<g clip-path="url(#clip_24)">
<image x="1184" y="2189" width="352" height="226" xlink:href="assets/image-02-e57b119e21cd.png" />
</g>
</g>
</g>
<mask id="mask_23" mask-type="luminance">
<use xlink:href="#mask_23_contents" />
</mask>
</defs>
<g transform="translate(-1425.36 -1085.32)"><g>
<g ns2:groupmode="layer" ns2:label="Layer 1">
<g clip-path="url(#clip_1)">
<path transform="matrix(1,0,0,-1,886.21,1142.37)" stroke-width="3" stroke-linecap="round" stroke-linejoin="round" fill="none" stroke="#3c3c4f" d="M0 0V-311.84C0-340.55-23.28-363.83-51.99-363.83-89.41-363.83-119.75-394.17-119.75-431.59-119.75-460.31-143.03-483.58-171.74-483.58H-386.5C-415.66-483.58-439.29-459.94-439.29-430.79V0C-439.29 29.16-415.66 52.79-386.5 52.79H-52.79C-23.64 52.79 0 29.16 0 0Z" />
<path transform="matrix(1,0,0,-1,781.58,1573.96)" stroke-width="3" stroke-linecap="round" stroke-linejoin="round" fill="none" stroke="#3c3c4f" d="M0 0C0 28.71 23.27 51.99 51.99 51.99 80.7 51.99 103.97 28.71 103.97 0 103.97-28.71 80.7-51.99 51.99-51.99 23.27-51.99 0-28.71 0 0Z" />
<path transform="matrix(1,0,0,-1,811.59,1552.08)" stroke-width="3" stroke-linecap="round" stroke-linejoin="round" fill="none" stroke="#3c3c4f" d="M0 0H43.78V-43.78" />
<path transform="matrix(1,0,0,-1,811.59,1595.86)" stroke-width="3" stroke-linecap="round" stroke-linejoin="round" fill="none" stroke="#3c3c4f" d="M0 0 43.78 43.78" />
<path transform="matrix(1,0,0,-1,2246.91,1573.96)" stroke-width="3" stroke-linecap="round" stroke-linejoin="round" fill="none" stroke="#3c3c4f" d="M0 0C0 28.71 23.27 51.99 51.99 51.99 80.7 51.99 103.97 28.71 103.97 0 103.97-28.71 80.7-51.99 51.99-51.99 23.27-51.99 0-28.71 0 0Z" />
<path transform="matrix(1,0,0,-1,2276.92,1552.08)" stroke-width="3" stroke-linecap="round" stroke-linejoin="round" fill="none" stroke="#3c3c4f" d="M0 0H43.78V-43.78" />
<path transform="matrix(1,0,0,-1,2276.92,1595.86)" stroke-width="3" stroke-linecap="round" stroke-linejoin="round" fill="none" stroke="#3c3c4f" d="M0 0 43.78 43.78" />
<path transform="matrix(1,0,0,-1,1862.44,1142.37)" stroke-width="3" stroke-linecap="round" stroke-linejoin="round" fill="none" stroke="#3c3c4f" d="M0 0V-311.84C0-340.55-23.28-363.83-51.99-363.83-89.41-363.83-119.75-394.17-119.75-431.59-119.75-460.31-143.03-483.58-171.74-483.58H-386.5C-415.66-483.58-439.29-459.94-439.29-430.79V0C-439.29 29.16-415.66 52.79-386.5 52.79H-52.79C-23.64 52.79 0 29.16 0 0Z" />
<path transform="matrix(1,0,0,-1,1758.47,1573.96)" stroke-width="3" stroke-linecap="round" stroke-linejoin="round" fill="none" stroke="#3c3c4f" d="M0 0C0 28.71 23.27 51.99 51.99 51.99 80.7 51.99 103.97 28.71 103.97 0 103.97-28.71 80.7-51.99 51.99-51.99 23.27-51.99 0-28.71 0 0Z" />
<path transform="matrix(1,0,0,-1,1788.48,1552.08)" stroke-width="3" stroke-linecap="round" stroke-linejoin="round" fill="none" stroke="#3c3c4f" d="M0 0H43.78V-43.78" />
<path transform="matrix(1,0,0,-1,1788.48,1595.86)" stroke-width="3" stroke-linecap="round" stroke-linejoin="round" fill="none" stroke="#3c3c4f" d="M0 0 43.78 43.78" />
<path transform="matrix(1,0,0,-1,1270.02,1573.96)" stroke-width="3" stroke-linecap="round" stroke-linejoin="round" fill="none" stroke="#3c3c4f" d="M0 0C0 28.71 23.27 51.99 51.99 51.99 80.7 51.99 103.97 28.71 103.97 0 103.97-28.71 80.7-51.99 51.99-51.99 23.27-51.99 0-28.71 0 0Z" />
<path transform="matrix(1,0,0,-1,1300.03,1552.08)" stroke-width="3" stroke-linecap="round" stroke-linejoin="round" fill="none" stroke="#3c3c4f" d="M0 0H43.78V-43.78" />
<path transform="matrix(1,0,0,-1,1300.03,1595.86)" stroke-width="3" stroke-linecap="round" stroke-linejoin="round" fill="none" stroke="#3c3c4f" d="M0 0 43.78 43.78" />
</g>
<g clip-path="url(#clip_2)">
<path transform="matrix(1,0,0,-1,886.21,1142.37)" stroke-width="3" stroke-linecap="round" stroke-linejoin="round" fill="none" stroke="#3c3c4f" d="M0 0V-311.84C0-340.55-23.28-363.83-51.99-363.83-89.41-363.83-119.75-394.17-119.75-431.59-119.75-460.31-143.03-483.58-171.74-483.58H-386.5C-415.66-483.58-439.29-459.94-439.29-430.79V0C-439.29 29.16-415.66 52.79-386.5 52.79H-52.79C-23.64 52.79 0 29.16 0 0Z" />
<path transform="matrix(1,0,0,-1,781.58,1573.96)" stroke-width="3" stroke-linecap="round" stroke-linejoin="round" fill="none" stroke="#3c3c4f" d="M0 0C0 28.71 23.27 51.99 51.99 51.99 80.7 51.99 103.97 28.71 103.97 0 103.97-28.71 80.7-51.99 51.99-51.99 23.27-51.99 0-28.71 0 0Z" />
<path transform="matrix(1,0,0,-1,811.59,1552.08)" stroke-width="3" stroke-linecap="round" stroke-linejoin="round" fill="none" stroke="#3c3c4f" d="M0 0H43.78V-43.78" />
<path transform="matrix(1,0,0,-1,811.59,1595.86)" stroke-width="3" stroke-linecap="round" stroke-linejoin="round" fill="none" stroke="#3c3c4f" d="M0 0 43.78 43.78" />
<path transform="matrix(1,0,0,-1,2350.88,1142.37)" stroke-width="3" stroke-linecap="round" stroke-linejoin="round" fill="none" stroke="#3c3c4f" d="M0 0V-311.84C0-340.55-23.28-363.83-51.99-363.83-89.41-363.83-119.75-394.17-119.75-431.59-119.75-460.31-143.03-483.58-171.74-483.58H-386.5C-415.66-483.58-439.29-459.94-439.29-430.79V0C-439.29 29.16-415.66 52.79-386.5 52.79H-52.79C-23.64 52.79 0 29.16 0 0Z" />
<path transform="matrix(1,0,0,-1,2246.91,1573.96)" stroke-width="3" stroke-linecap="round" stroke-linejoin="round" fill="none" stroke="#3c3c4f" d="M0 0C0 28.71 23.27 51.99 51.99 51.99 80.7 51.99 103.97 28.71 103.97 0 103.97-28.71 80.7-51.99 51.99-51.99 23.27-51.99 0-28.71 0 0Z" />
<path transform="matrix(1,0,0,-1,2276.92,1552.08)" stroke-width="3" stroke-linecap="round" stroke-linejoin="round" fill="none" stroke="#3c3c4f" d="M0 0H43.78V-43.78" />
<path transform="matrix(1,0,0,-1,2276.92,1595.86)" stroke-width="3" stroke-linecap="round" stroke-linejoin="round" fill="none" stroke="#3c3c4f" d="M0 0 43.78 43.78" />
<path transform="matrix(1,0,0,-1,1862.44,1142.37)" stroke-width="3" stroke-linecap="round" stroke-linejoin="round" fill="none" stroke="#3c3c4f" d="M0 0V-311.84C0-340.55-23.28-363.83-51.99-363.83-89.41-363.83-119.75-394.17-119.75-431.59-119.75-460.31-143.03-483.58-171.74-483.58H-386.5C-415.66-483.58-439.29-459.94-439.29-430.79V0C-439.29 29.16-415.66 52.79-386.5 52.79H-52.79C-23.64 52.79 0 29.16 0 0Z" />
<path transform="matrix(1,0,0,-1,1758.47,1573.96)" stroke-width="3" stroke-linecap="round" stroke-linejoin="round" fill="none" stroke="#3c3c4f" d="M0 0C0 28.71 23.27 51.99 51.99 51.99 80.7 51.99 103.97 28.71 103.97 0 103.97-28.71 80.7-51.99 51.99-51.99 23.27-51.99 0-28.71 0 0Z" />
<path transform="matrix(1,0,0,-1,1788.48,1552.08)" stroke-width="3" stroke-linecap="round" stroke-linejoin="round" fill="none" stroke="#3c3c4f" d="M0 0H43.78V-43.78" />
<path transform="matrix(1,0,0,-1,1788.48,1595.86)" stroke-width="3" stroke-linecap="round" stroke-linejoin="round" fill="none" stroke="#3c3c4f" d="M0 0 43.78 43.78" />
<path transform="matrix(1,0,0,-1,1373.99,1142.37)" stroke-width="3" stroke-linecap="round" stroke-linejoin="round" fill="none" stroke="#3c3c4f" d="M0 0V-311.84C0-340.55-23.28-363.83-51.99-363.83-89.41-363.83-119.75-394.17-119.75-431.59-119.75-460.31-143.03-483.58-171.74-483.58H-386.5C-415.66-483.58-439.29-459.94-439.29-430.79V0C-439.29 29.16-415.66 52.79-386.5 52.79H-52.79C-23.64 52.79 0 29.16 0 0Z" />
<path transform="matrix(1,0,0,-1,1270.02,1573.96)" stroke-width="3" stroke-linecap="round" stroke-linejoin="round" fill="none" stroke="#3c3c4f" d="M0 0C0 28.71 23.27 51.99 51.99 51.99 80.7 51.99 103.97 28.71 103.97 0 103.97-28.71 80.7-51.99 51.99-51.99 23.27-51.99 0-28.71 0 0Z" />
<path transform="matrix(1,0,0,-1,1300.03,1552.08)" stroke-width="3" stroke-linecap="round" stroke-linejoin="round" fill="none" stroke="#3c3c4f" d="M0 0H43.78V-43.78" />
<path transform="matrix(1,0,0,-1,1300.03,1595.86)" stroke-width="3" stroke-linecap="round" stroke-linejoin="round" fill="none" stroke="#3c3c4f" d="M0 0 43.78 43.78" />
</g>
<g clip-path="url(#clip_3)">
<path transform="matrix(1,0,0,-1,630.17,1213.79)" d="M0 0-1.3-7.17 5.81-2.97C10.24-.349 12.32-3.88 21.19-3.12 37.17-1.75 50.26 10.01 52.44 26.12 55.07 45.66 41.56 62.88 22.2 64.91 15.17 65.64 6.72 63.89 .874 59.95-.859 58.78-2.43 58.96-3.9 60.34-5.1 61.47-5.3 64-3.42 65.23 11.22 74.77 30.28 74.04 44.2 62.98 57.34 52.54 63.16 34.46 57.35 17.53 52.16 2.43 37.8-9.16 20.8-9.85 16.95-10.01 12.84-9.36 9.31-9.11L-4.96-16.99C-6.08-17.61-7.32-17.01-8.08-16.32-8.81-15.66-9.41-14.49-9.2-13.24L-7.07-.737-12.78 4.93C-14 6.15-14.48 8.07-13.44 9.55-12.66 10.66-10.58 11.66-9.2 10.78-7.42 9.63-5.48 6.61-2.25 4.16-.928 3.16 .4 2.2 0 0" fill="#3333ff" />
<path transform="matrix(1,0,0,-1,637.25,1201.54)" d="M0 0C-1.54-.409-2.84 1.25-3.32 2.12-3.97 3.33-3.64 5.46-2.16 6.13 1.6 7.82 5.29 9.36 8.57 12.13 6.87 13.97 5.21 16 4.03 18.39 3.24 20 4.49 21.7 5.73 22.43 9.46 24.64 11.23 18.26 13.53 16.85 15.46 19.21 16.75 21.64 18.05 24.54L-1.67 24.78C-3.62 24.81-5.11 26.92-5 28.28-4.81 30.48-3.22 31.69-1.03 31.65 2.87 31.57 6.63 31.54 10.48 31.68 10.02 34.08 10.06 35.55 11.77 36.83 12.86 37.65 15.05 37.89 16.3 36.27 17.27 35.02 17.16 33.25 17.3 31.62L29.44 31.57C30.87 31.57 31.72 30.28 32.12 29.23 32.57 28.06 32.3 26.48 31.05 25.59 29.39 24.4 27.25 24.69 25.16 24.61 23.82 19.91 21.45 15.84 18.4 12.22 21.5 9.67 24.69 8.21 28 6.64 29.7 5.84 30.76 4.53 30.49 2.83 30.26 1.36 28.77-.483 26.97 .005 22.07 1.34 17.82 4.12 13.62 7.34 9.44 4.36 5.21 1.38 0 0" fill="#3333ff" />
<path transform="matrix(1,0,0,-1,539.59,1220.86)" d="M0 0C-.259 5.81-3.45 8.17 1.2 11.35 3.25 12.76 4.77 14.45 6.25 16.32 7.51 17.91 10.21 17.61 11.3 16.32 12.73 14.61 12.33 12.87 10.88 11.28 9.34 9.58 8.06 7.78 5.85 6.63L7.92-5.72C8.2-7.42 7.76-8.6 6.62-9.45 3.04-12.15-6-2.76-10.55-2.27-14.08-1.84-18.24-3.11-22.18-2.85-31.43-2.22-39.93 1.1-46.98 7.35-56.41 15.7-61.55 28.15-60.73 40.67-59.79 55.01-51.43 67.26-39.88 73.71-26.51 81.19-10.85 80.42 1.6 72.7 3.22 71.7 3.38 69.72 2.77 68.44 2.27 67.42 .244 65.84-1.22 66.7-8.09 70.71-15.41 72.79-23.47 71.96-40.1 70.25-52.97 56.79-53.93 40.06-55.01 21.25-41.11 5.46-22.43 3.95-14.08 3.27-10.96 6.4-7.61 4.44Z" fill="#3333ff" />
<path transform="matrix(1,0,0,-1,505.81,1175.29)" d="M0 0C-.669-.386-.738-1.15-.354-1.63 .032-2.12 .64-2.26 1.2-1.87 1.87-1.41 1.54-1.01 1.31-.43 1.08 .133 .663 .382 0 0M8.6-5.74 8.48-21.19C8.47-22.69 6.57-24.25 5.11-24.25 3.61-24.25 1.76-22.69 1.74-21.2L1.6-8.53C-2.37-9.22-5.75-6.99-6.87-3.4-7.94 .075-6.58 3.98-3.58 5.64-.128 7.57 3.75 6.97 6.55 4.04 9.26 6.36 12.7 7.55 16.27 6.93 21.98 5.94 26.58 1.64 27.11-4.4 27.6-9.97 27.23-15.5 27.21-21.19 27.21-22.68 25.18-24.26 23.84-24.25 22.3-24.24 20.48-22.71 20.45-21.19L20.24-4.69C20.2-1.45 16.87 .338 14.04 .192 11.11 .04 8.63-2.28 8.6-5.74" fill="#3333ff" />
<path transform="matrix(1,0,0,-1,592.43,1204.95)" d="M0 0C15.51 4.24 25.4 19.11 23.45 35.05 21.4 51.86 6.72 64.04-9.92 63.34-26.33 62.66-39.69 49.4-40.65 33.02-41.62 16.46-29.88 1.7-13.21-.779-11.66-1.01-10.2-1.11-9.43-2.66L-6.02-9.49C-3.48-5.34-3.78-1.03 0 0M-2.35-18.33C-2.91-19.67-3.83-20.51-4.86-20.74-5.93-20.97-7.69-20.58-8.34-19.36L-14.68-7.43C-35.05-4.24-49.63 14.93-47.24 35.5-44.8 56.51-25.79 72.05-4.92 70.02 14.15 68.16 29.1 52.91 30.35 33.72 31.53 15.44 20.18-1.04 2.79-6.22Z" fill="#3333ff" />
<path transform="matrix(1,0,0,-1,587.17,1174.44)" d="M0 0-2.94 7.15-5.75 .14ZM2.9-6.9-8.66-6.86C-10.3-9.96-11.41-18.2-16.07-16.05-17.28-15.49-18.61-13.7-17.93-12.01L-5.96 17.72C-5.47 18.93-4.28 19.63-3.29 19.74-2.46 19.84-.618 19.45-.149 18.3L11.97-11.32C12.77-13.26 11.98-15.11 10.45-15.93 8.65-16.9 6.55-16.05 5.75-14.04Z" fill="#3333ff" />
<path transform="matrix(1,0,0,-1,650.93,1313.29)" d="M0 0C.274 1.24 .29 2.34 1.2 3.01 2.06 3.65 3.1 4.09 4.52 3.85 7.63 3.32 11.61 5 11.73 8.66 11.95 15.04 11.94 21.37 11.72 27.68 11.61 31.1 8.32 32.8 5.37 32.13 4.8 32.01 4.11 32.46 4.04 31.94 3.87 30.69 5.32 22.42 4.73 20.55 4.13 18.64 2.2 17.89 .425 18.3-1.16 18.67-2.11 20.25-2.07 22.17-2.02 24.23-2.79 33.35-3.26 34.54-10.84 53.78-28.69 67.58-49.7 68.92-61.06 69.64-72.31 69.44-83.71 68.92-103.65 68-123.2 53.33-129.85 34.73-131.59 29.87-130.4 20.48-132.6 18.8-133.63 18.01-135.26 17.92-136.69 18.7-139.24 20.1-137.72 23.66-137.81 27.84-137.84 29.31-136.98 30.63-137.48 32.15-138.59 32.18-139.68 32.28-140.91 32.15-143.29 31.89-145.05 29.79-145.13 27.25-145.32 21.2-145.28 15.21-145.16 9.13-145.08 5.43-141.68 3.35-138.29 3.83-136.99 4.01-135.84 3.87-134.83 3.21-134.06 2.7-133.62 1.69-133.37 .435-130.77-12.61-120.51-22.34-107.27-24.5L-25.78-24.47C-12.76-22.34-2.79-12.58 0 0M-26.8-31.43-106.38-31.45C-122.57-29.62-135.52-18.47-139.68-2.84-145.47-2.95-151.44 1.1-151.52 7.05L-151.82 29.06C-150.26 35.97-144.36 40.11-137.37 39.08-136.8 38.99-136.13 39.16-135.55 39.22-134.94 39.28-135.12 40.25-134.79 40.87-131.07 48.03-126.67 54.5-120.69 59.9-109.82 69.71-96.31 75.45-81.57 76-71.55 76.38-61.83 76.38-51.83 76.01-28.19 75.13-7.54 60.88 2.12 39.43 2.77 38.83 4.35 39.15 5.42 39.2 11.11 39.49 17.67 35.76 18.11 29.42 18.62 21.96 18.57 14.48 18.14 6.94 17.81 1.07 11.88-2.95 6.44-2.81 1.96-18.38-10.38-29.51-26.8-31.43" fill="#3333ff" />
<path transform="matrix(1,0,0,-1,624.11,1315.13)" d="M0 0C3.04 .913 5.47 3.18 5.49 6.14L5.59 20.89C3.42 34.78-6.19 44.53-20.08 46.69L-59.92 46.59C-73.51 44.54-83.78 34.01-85.25 20.36L-85.32 6.18C-84.56 3.3-82.61 .072-79.17 .069ZM-.387-6.79-79.47-6.74C-86.68-6.74-91.7 .27-92.16 6.51-92.48 11.05-92.36 14.8-92.15 19.09-91.28 37.21-77.17 51.75-59.06 53.57L-20.26 53.55C-2.52 51.54 11.07 37.72 12.38 19.92 12.73 15.24 12.76 11.01 12.36 6.12 11.84-.066 6.71-6.79-.387-6.79" fill="#3333ff" />
<path transform="matrix(1,0,0,-1,606.19,1284.8)" d="M0 0C3.64 .919 6.89-1.41 7.73-4.52 8.64-7.94 6.4-11.54 3.19-12.34-.282-13.2-3.42-11.34-4.53-8.06-5.64-4.76-3.79-.956 0 0" fill="#3333ff" />
<path transform="matrix(1,0,0,-1,562.47,1297.15)" d="M0 0C-3.94-.861-7.21 1.49-7.93 5.01-8.61 8.31-6.33 11.71-2.92 12.43 .558 13.16 4.22 10.71 4.6 6.92 4.93 3.78 3.25 .711 0 0" fill="#3333ff" />
<path transform="matrix(1,0,0,-1,1169.46,1307.4)" d="M0 0C0 15.71-12.74 28.45-28.45 28.45-44.16 28.45-56.9 15.71-56.9 0-56.9-15.71-44.16-28.45-28.45-28.45-12.74-28.45 0-15.71 0 0M-2-23C-9.32-31.48-20.36-35.86-31.32-34.95-51.42-33.27-65.65-15.31-63.26 4.64-60.93 20.8-47.93 33.56-31.61 34.86-24.64 35.42-18.12 34.23-11.84 30.91-3.44 50.9-2.02 73-8.16 93.83-8.74 95.79-7.39 97.52-5.8 97.97-4.22 98.41-2.35 97.34-1.78 95.56-.044 90.14 1.24 84.68 1.61 78.97L2.07 71.78C2.26 68.83 2.55 66.19 2.04 63.24 1.74 61.49 2.02 59.7 1.81 57.89 .578 47.31-1.84 37.08-6.24 27.23L-.985 21.79C10.71 9.68 9.26-9.94-2-23" fill="#3333ff" />
<path transform="matrix(1,0,0,-1,1134.18,1311.39)" d="M0 0-7.95-7.62C-9.28-8.89-10.54-9.86-12.18-9.04-13.66-8.29-14.84-6.07-13.51-4.6-11.66-2.58-9.83-.617-7.72 1.07-3.03 4.83-1.55 9.45 2.84 5.72L6.88 2.3 15.59 11.21C13.34 10.93 11.88 11.55 11.16 12.95 10.6 14.02 11.14 16.61 12.92 16.96 16.34 17.62 20.01 17 23.66 17.2 25.24 17.28 26.36 15.74 26.24 14.25 25.96 10.72 26.63 7.19 25.98 3.92 25.63 2.15 23.37 1.61 22.32 2.01 20.47 2.72 20.05 4.12 20.24 6.56L12.88-.377C11.39-1.78 10.02-3.19 8.48-4.49 7.22-5.55 5.49-4.58 4.48-3.73Z" fill="#3333ff" />
<path transform="matrix(1,0,0,-1,1132.63,1184.72)" d="M0 0C-1.5-1.5-3.65-1.09-4.74 .233-5.92 1.67-5.88 3.53-4.39 5L16.64 25.74C17.71 26.66 20.01 25.62 20.56 24.84 21.25 23.85 22.06 22.11 20.82 20.86Z" fill="#3333ff" />
<path transform="matrix(1,0,0,-1,1168.96,1172.16)" d="M0 0C0 15.72-12.74 28.46-28.46 28.46-44.17 28.46-56.91 15.72-56.91 0-56.91-15.72-44.17-28.46-28.46-28.46-12.74-28.46 0-15.72 0 0M-63.54 .173C-63.81 4.46-61.77 12.84-58.85 17.38-78.32 26.23-100.2 27.91-120.89 22.57-122.66 22.11-124.1 23.55-124.61 24.72-125.12 25.88-124.54 28.31-122.85 28.8-116.5 30.64-109.88 31.69-103.13 31.93-99.07 32.7-95.38 32.27-91.28 32.03-78.72 31.28-66.65 28.36-55.1 22.9-46.64 32.07-36.42 35.98-23.94 34.8-8.12 32.62 4.35 20.2 6.34 4.43 8.79-15.03-5.24-32.83-24.89-34.89-43.8-36.88-62.07-23.13-63.27-4.14Z" fill="#3333ff" />
<path transform="matrix(1,0,0,-1,1149.07,1177.71)" d="M0 0C2.62 .753 5.19-.716 6.01-3.18 6.84-5.65 5.38-8.22 2.68-9.23 .43-10.07-2.24-8.57-3.23-6.06-4.13-3.79-2.6-.745 0 0" fill="#3333ff" />
<path transform="matrix(1,0,0,-1,1062.41,1277.76)" d="M0 0-5.67-2.31 8.39-27.21 8.58 1.26C8.6 3.31 10.51 4.54 12.05 4.41 13.89 4.25 15.27 3 15.28 .973L15.34-27.6 30-2.37C27.86-1.51 25.89-1.02 24.1-.02 23.03 .85 22.33 1.64 22.41 2.85 22.5 4.18 23.22 5.04 24.4 5.86L33 11.78 28.05 21 27.76 73.35C27.74 77.93 22.9 82.24 18.7 82.26L-13.96 82.44C-14.14 79.19-14.1 66.92-10.13 66.39L-6.75 65.93 14.38 65.77C16.03 65.76 16.69 63.54 16.6 62.27 16.51 60.98 15.19 59.54 13.56 59.53L-3.82 59.49-3.8 42.58C-3.79 40.87-2.8 39.7-1.46 38.94L5.53 34.93C8.04 33.5 10.23 33.29 12.93 34.27 14.68 34.9 16.37 33.08 16.55 31.71 16.82 29.55 15.66 28.22 13.63 27.58 10.74 26.67 7.69 26.43 4.79 27.91 1.13 29.79-2.41 31.79-5.95 34.09-8.6 35.8-10.36 39.11-10.41 42.3L-10.7 59.73C-19.36 61.03-19.9 70.25-20.62 77.05-20.94 79.99-20.72 82.8-20.8 85.84-20.84 87.65-19.36 89.28-17.39 89.26L18.93 88.91C27.7 88.83 34.55 80.72 34.59 72.08L34.84 24.24 45.51 20.62C50.83 18.81 57.82 13.94 59.09 8.13 59.4 6.71 58.17 5.21 57.22 4.95 51.61 3.42 54.87 8.84 45.79 13.28 43.51 14.4 41.1 15.01 38.54 16.01 38.51 14.3 42.84 10.64 39.63 8.39L32.97 3.7C34.83 2.98 39.36 .805 38.06-1.45L14.87-41.88C13.88-43.6 10.68-44.63 9.5-42.53L-12.83-3.04C-13.64-1.6-13.95-.384-13.13 1.11-12.5 2.27-11 2.58-9.05 3.33L-16.62 8.08C-17.58 8.68-18.09 9.68-18.25 10.55-18.53 12.14-16.46 14.24-15.26 15.86-22.24 14.12-27.38 11.24-28.41 3.49-28.64 1.78-30.66 .794-31.98 .973-33.73 1.21-35.04 2.86-34.83 4.8-33.93 12.85-28.14 18.77-20.53 21.11L-2.7 26.59C-.896 27.14 .643 25.31 .869 24.05 1.76 19.03-3.84 21.36-6.32 17-7.42 15.09-9.02 13.46-10.1 11.8-6.42 9.44-2.61 7.7 .856 5.2 2.58 3.96 1.88 .764 0 0" fill="#3333ff" />
<path transform="matrix(1,0,0,-1,1077.6,1261.61)" d="M0 0C.259-2.31 .424-5.33-2.07-6.09-3.23-6.45-4.68-6.48-5.52-5.48-7.05-3.64-7.28-.547-6 1.39-5.12 2.72-3.67 3.29-2.38 2.99-1.07 2.68-.177 1.58 0 0" fill="#3333ff" />
<path transform="matrix(1,0,0,-1,1131.53,1166.78)" d="M0 0C-1.85-.577-3.69 .6-4.63 1.76-5.69 3.07-6.32 4.96-5.48 6.54-4.39 8.58-2.37 9.9-.26 9.56 1.93 9.21 3.69 7.41 3.84 5.12 3.98 3.03 2.46 .767 0 0" fill="#3333ff" />
<path transform="matrix(1,0,0,-1,1034.22,1171.06)" d="M0 0C0 15.71-12.74 28.45-28.45 28.45-44.16 28.45-56.9 15.71-56.9 0-56.9-15.71-44.16-28.45-28.45-28.45-12.74-28.45 0-15.71 0 0M-55.3-76.73C-55.14-83.38-53.18-89.29-52.07-95.43-51.84-96.75-53.71-97.98-54.59-98.36-55.66-98.82-57.74-98.08-58.22-96.72-60.45-90.36-61.2-83.91-62.09-77.2-62.07-71.56-62.44-66.12-61.98-60.46-60.98-48.09-57.68-36.36-52.46-25.45-66.69-12.11-67.06 9.93-54.14 23.86-41.14 37.87-19.35 38.88-5.09 26.17 9.09 13.53 10.72-8.45-2.03-22.95-13.39-36.16-32.51-38.7-47.13-29.68-52.36-40.7-54.85-52.09-55.62-63.88-56.15-72.18-55.45-70.67-55.3-76.73" fill="#3333ff" />
<path transform="matrix(1,0,0,-1,1017.34,1177.09)" d="M0 0C.5-4.89-2.73-9.2-7.23-10.47-8.18-10.73-8.47-11.42-8.39-12.28-8.19-14.73-10.23-15.53-11.79-15.65-14.88-15.9-14.02-12.47-15.1-11.39-17.04-9.48-20.86-9.28-22.09-6.09-22.7-4.53-22.36-2.65-20.85-1.84-19.13-.915-17.72-1.28-16.24-2.95-13.99-5.48-8.31-5.49-6.86-2.12-5.67 .666-9.36 2.22-11.52 2.31-15.72 2.49-19.51 3.98-21.64 7.4-23.89 11.01-23.73 15.36-20.83 18.32-15.65 23.6-14.47 20.43-14.75 23.72-14.89 25.35-13.98 27-12.7 27.41-11.24 27.89-9.29 27.52-8.64 26.05-8.13 24.89-8.45 23.66-8.43 22.28-5.78 21.25-2.94 20.16-1.4 17.61-.525 16.15-1.36 14.56-2.42 13.69-3.35 12.91-5.46 12.68-6.48 13.72-8.05 15.31-9.47 15.74-11.85 15.76-14.1 15.79-17.11 14.21-16.34 11.45-15.88 9.79-13.42 8.91-11.82 8.92-6.26 8.93-.525 5.13 0 0" fill="#3333ff" />
<path transform="matrix(1,0,0,-1,1033.45,1307.9)" d="M0 0C0 15.71-12.74 28.45-28.45 28.45-44.16 28.45-56.9 15.71-56.9 0-56.9-15.71-44.16-28.45-28.45-28.45-12.74-28.45 0-15.71 0 0M63.27-21.86C65.06-21.37 66.95-22.31 67.38-23.63 67.97-25.46 67.51-27.39 65.56-28.01 59.26-30.01 52.86-30.85 46.24-31.59 28.6-32.4 14.23-30.52-2.29-23.2-13.88-36.51-33.75-39.06-48.42-28.81-58.97-21.45-64.7-9.18-63.34 3.76-62.09 15.74-54.38 26.6-43.02 31.86-37.76 34.29-32.52 35.26-26.58 34.96-8.71 34.05 5.61 19.75 6.51 1.86 6.86-5.17 5.39-11.69 1.63-17.8 21.55-26.02 42.51-27.55 63.27-21.86" fill="#3333ff" />
<path transform="matrix(1,0,0,-1,1004.94,1317.06)" d="M0 0C1.58 2.67 3.33 5.33 5.5 7.81 8.36 11.09 8.71 15.42 5.91 18.66 3.28 21.7-1.48 22.19-4.8 19.64-7.91 17.25-8.93 12.5-6.33 9.13-4.04 6.17-1.79 3.42 0 0M.341-11.91C-3.62-12.41-2.46-7.86-7.06-.953-8.38 1.03-9.76 2.76-11.24 4.65-16.09 10.83-15.06 19.76-9.09 24.65-3.15 29.51 5.48 28.94 10.75 23.11 15.94 17.38 15.49 8.94 10.22 3.13 7.11-.309 4.68-4.36 3.45-8.72 2.96-10.44 2.02-11.69 .341-11.91" fill="#3333ff" />
<path transform="matrix(1,0,0,-1,1629.07,1196.77)" d="M0 0-.053 36.23C-2.1 46.62-9.83 54.1-20.25 55.7L-145.13 55.7C-156.38 54.02-164.6 45.43-165.73 34.1L-165.82-.007ZM-145.95-123.41C-144.26-123.05-143.16-123.78-141.74-123.78L-76.88-123.91C-75.21-123.91-74.86-126.4-74.94-127.42-75.02-128.43-76.03-130.24-77.58-130.24L-145.15-130.22C-159.26-128.61-170.12-118.03-172.22-104.05L-172.32-66.45-172.28-63.74-172.21 36.31C-172.21 37.92-170.68 41.72-169.94 44.06-168.97 47.11-166.99 49.82-164.84 52.15-159.69 58.09-153.01 61.45-145.03 62.53L-20.78 62.53C-6.16 60.94 4.99 49.96 6.81 35.37L6.79-38.85C6.79-40.53 4.37-41.6 3.27-41.45 1.76-41.25 .09-39.89 .083-37.91L-.026-6.42-165.8-6.42-165.82-61.7-84.55-61.69C-82.82-62.18-81.68-63.46-81.57-65.01-81.49-66.2-82.72-68.51-84.55-68.51L-165.83-68.55-165.75-102.23C-164.47-113.05-156.76-121.5-145.95-123.41" fill="#3333ff" />
<path transform="matrix(1,0,0,-1,1648.99,1291.3)" d="M0 0C0 24.88-20.17 45.04-45.04 45.04-69.92 45.04-90.09 24.88-90.09 0-90.09-24.88-69.92-45.04-45.04-45.04-20.17-45.04 0-24.88 0 0M6.68 .011C6.68-28.55-16.47-51.7-45.03-51.7-73.59-51.7-96.75-28.55-96.75 .011-96.75 28.57-73.59 51.73-45.03 51.73-16.47 51.73 6.68 28.57 6.68 .011" fill="#3333ff" />
<path transform="matrix(1,0,0,-1,1546.69,1227.18)" d="M0 0-61.76 .054C-63.68 .056-64.97 1.58-65.36 2.92-65.77 4.27-64.74 6.8-62.76 6.8L.41 6.8C2.21 6.8 3.22 4.76 3.2 3.67 3.16 1.78 2.35 .724 0 0" fill="#3333ff" />
<path transform="matrix(1,0,0,-1,1602.49,1222.49)" d="M0 0-17.11 .025-17.24-11.48C-17.26-13.15-19.36-14.64-20.64-14.46-22.32-14.23-23.9-12.89-23.9-11.03L-23.95 3.02C-23.96 4.54-22.66 6.78-20.92 6.78L4.26 6.83C5.53 6.83 6.71 5 6.76 3.8 6.94-.514 6.94-4.61 6.77-8.91 6.7-10.5 4.84-11.74 3.61-11.82 1.95-11.92 .536-10.6 .018-8.93Z" fill="#3333ff" />
<path transform="matrix(1,0,0,-1,1537.84,1288.49)" d="M0 0-54.36 .125C-56.07 .129-56.86 2.89-56.53 4.01-56.06 5.61-54.64 6.5-52.7 6.5L-1.35 6.46C.429 6.46 1.65 5.43 2.03 3.98 2.41 2.51 1.68 1.1 0 0" fill="#3333ff" />
<path transform="matrix(1,0,0,-1,1511.21,1303.29)" d="M0 0-26.75-.057C-28.5-.061-29.77 1.93-29.95 3.11-30.16 4.47-29.06 6.62-27.31 6.62L.385 6.64C2.06 6.64 2.87 4.69 2.99 3.43 3.1 2.3 1.87 .004 0 0" fill="#3333ff" />
<path transform="matrix(1,0,0,-1,1510.88,1241.66)" d="M0 0-26.43 .014C-28.17 .015-29.45 1.97-29.62 3.17-29.83 4.55-28.74 6.67-26.99 6.68L.366 6.76C2.12 6.76 3.09 4.97 3.3 3.47 3.48 2.19 1.95-.001 0 0" fill="#3333ff" />
<path transform="matrix(1,0,0,-1,0,2623.16)" d="M1602.5 1462.81H1585.36V1445.67H1602.5ZM1605.72 1438.79 1581.14 1438.83C1579.71 1439.38 1578.59 1440.71 1578.58 1442.36L1578.49 1466.14C1579.07 1467.4 1579.56 1469.18 1581.13 1469.18L1605.93 1469.26C1607.94 1469.27 1609.37 1467.8 1609.37 1465.81L1609.37 1442.25C1609.37 1440.22 1607.96 1438.78 1605.72 1438.79" fill="#3333ff" />
<path transform="matrix(1,0,0,-1,1546.69,1165.48)" d="M0 0-62.19 .063C-64.01 .065-65.25 2.12-65.42 3.26-65.63 4.57-64.57 6.8-62.76 6.8H.413C2.2 6.8 3.25 4.77 3.21 3.66 3.13 1.82 2.38 .712 0 0" fill="#3333ff" />
<path transform="matrix(1,0,0,-1,1511.6,1179.83)" d="M0 0-26.93-.222C-28.74-.237-30.5 1.93-30.33 3.55-30.1 5.72-28.02 6.66-26.08 6.65L-.469 6.55C1.2 6.55 2.21 4.9 2.57 3.73 2.89 2.65 1.75 .014 0 0" fill="#3333ff" />
<path transform="matrix(1,0,0,-1,1627.86,1294.47)" d="M0 0-24.48 .028C-25.89 .029-27.09 1.16-27.08 2.63L-26.98 38.51C-26.97 40.02-24.5 40.88-23.42 40.71-22.04 40.5-20.61 39.12-20.61 37.29L-20.66 6.45-.948 6.43C.585 6.43 1.68 5.12 1.98 3.98 2.39 2.47 1.56 1.06 0 0" fill="#3333ff" />
<path transform="matrix(1,0,0,-1,1987.07,1284.65)" d="M0 0C.325 2.82 .344 5.87-.01 8.47-.659 13.23-4.7 16.33-9.12 16.12-13.19 15.92-17.3 12.59-17.32 8.13L-17.34 .626C-17.36-4.2-13.46-7.74-9.14-7.98-4.57-8.24-.611-5.31 0 0M56.36 16.04C56.16 20.3 56.81 24.58 56.19 28.68 55.34 34.26 50.19 38.03 44.99 37.92 39.73 37.81 35 33.84 34.32 28.1 33.9 24.5 33.85 20.44 34.38 16.92 35.24 11.24 39.94 7.72 44.94 7.46 50.36 7.19 54.27 10.46 56.36 16.04M26.85-3.06C22.41-4.37 20.62-9.69 20.89-13.56 20.93-14.18 20.02-27.3 19.9-29.07L19.41-36.55 18.83-45.02C18.49-49.91 19.3-56.87 15.18-57.28 13.49-57.45 11.03-56.89 10.88-54.53 10.42-46.81 13.08-25.19 12.07-21.85 10.47-16.54 3.1-15.81-1.87-14.83-6.51-15.8-10.22-16.29-14.83-14.85-17.18-14.11-20.17-16.18-22.45-16.47-27.31-17.09-29.93-20.71-30.29-25.34L-30.74-31.23-31.26-37.62-31.77-44.01-32.29-49.86C-32.44-51.53-32.77-53.28-32.96-54.97-33.15-56.65-34.97-57.26-36.21-57.3-37.36-57.34-39.47-56.9-39.88-55.49-40.81-52.24-39.99-48.89-39.72-45.64L-39.21-39.76-38.71-33.37-38.16-27.02C-37.55-20.1-35.71-12.96-29-10.49L-22.41-8.06C-25.32-3.97-25.2 .364-25.38 4.9-25.75 14.49-19.67 23.04-9.69 23.86-1.7 24.51 5.78 18.69 7.35 10.6 7.87 7.94 8.38-5.73 4.97-8.29 8.16-9.15 10.79-9.93 13.37-11.62 13.39-3.22 18.89 3.39 26.9 5.22 28.33 5.55 29.6 5.73 30.98 6.64 25.93 11.69 25.83 20.66 26.39 27.47 27.16 36.88 33.76 44.4 43.39 45.62 49.31 46.36 55.27 43.66 59.06 39.71 63.51 35.07 64.54 29.26 64.45 22.97 64.37 17.01 64.16 11.32 59.66 6.31 63.87 5.28 67.22 4.38 70.46 2.12L81.89 18.66C82.94 20.17 84.01 21.47 85.65 22.27 78.44 27.73 76.44 37.05 80.85 44.77 82.27 47.26 84.91 48.87 87.01 50.69L87.24 55.33C87.46 59.92 91.58 63.83 95.8 65.72 98.52 75.33 107.43 78.22 116.34 77.03 122.23 76.24 127.39 76.11 132.14 71.62 141.35 62.95 141.57 49.35 133.33 39.3 133.94 30.48 127.72 22.67 118.83 21.55 111.91 20.67 106.14 25.13 103.12 31.02 101.39 34.41 101.45 37.88 100.4 41.26 99.96 42.68 96.52 43.48 97.81 46.06 100.59 51.65 105.09 47.34 109.76 49.74 113.49 51.66 115.62 55.38 116.65 59.29 117.05 60.8 118.69 61.2 119.78 61.27 121.21 61.36 122.79 60.85 123.42 59.36 124.44 56.93 123.28 54.74 122.35 52.54 119.91 46.79 115.19 42.81 108.99 41.47 108.22 37.06 109.98 32.99 113.66 30.26 116.04 28.49 119.44 29.21 121.97 30.74 124.49 32.26 125.58 35.12 125.66 38.56 125.94 50.7 128.81 48.61 130.18 50.1 133.17 53.38 131.56 59.48 129.26 63.07 126.86 66.83 122.43 69.56 117.53 69 115.66 68.79 114.62 68.64 112.72 69.37 110.09 70.38 106.75 68.88 105.2 66.79 107.78 66.4 108.12 64.17 107.73 62.17 106.81 57.41 100.07 61.99 95.97 56.34 91.25 49.8 99.88 47.68 90.83 43.68 85.92 41.52 84.64 34.81 88.03 30.86 93.24 24.78 96.34 27.76 101.38 27.12 103 26.91 104.02 24.62 103.92 23.34 103.44 17.03 93.58 20.81 89.18 14.46L69.42-13.98C68.71-15.01 68.87-17.67 69.44-18.68L84.25-44.71C85.51-46.92 87.81-47.95 89.97-46.61 92.06-45.3 92.14-42.98 90.95-40.75L80.72-21.72C78.39-17.38 78.74-12.79 81.91-8.93L92.58 4.09C94.01 5.82 96 5.42 97.37 4.7 98.76 3.95 100.35 1.45 99.15-.415 96.37-4.72 92.72-8.71 89.38-12.66 87.59-14.79 87.17-16.18 88.51-18.74L98.93-38.52C102.56-45.42 97.32-54.13 90-55.14 84.03-55.96 79.63-53.31 76.85-48.4L61.95-22.05C58.2-15.41 62.5-9.26 65.95-4.25 63.48-2.36 54.08-.037 51.29 .276 32.29-1.52 48.08 3.19 26.85-3.06" fill="#3333ff" />
<path transform="matrix(1,0,0,-1,2108.21,1315.63)" d="M0 0C.01-2.8-1.83-4.41-4.03-4.56-6.32-4.71-7.79-2.99-8.51-.504L-8.36 27.61C-8.35 30.16-6.4 31.56-4.54 31.73-2.39 31.93-.11 30.45-.1 27.87Z" fill="#3333ff" />
<path transform="matrix(1,0,0,-1,2108.28,1274.67)" d="M0 0C-.105-2.12-.664-3.75-2.01-4.58-3.43-5.46-5.79-5.44-7.01-4.35-8.31-3.19-8.74-1.28-8.48 .595-8.13 3.04-6.46 5.03-4.08 4.89-1.65 4.74 .145 2.92 0 0" fill="#3333ff" />
<path transform="matrix(1,0,0,-1,2139.68,1185.41)" d="M0 0C.885 .515 1.96 1.23 1.75 2.01 1.56 2.73 1.37 4.43 .58 3.92-.904 2.37-2.61 1-4.58 1.43-6.35 1.82-7.4 3.4-8.03 5.23L-12.31 17.76C-16.25 16.81-19.57 15.9-23.97 16.21L-17.28-3.97C-11.04-4.25-5.18-3.01 0 0M22.86 19.88 16.48 38.77C14.71 39.57 13.07 38.85 11.31 38.68 4.29 38.01-2.22 36.15-8.27 31.75L-1.69 12.39C5.67 17.07 13.8 18.93 22.86 19.88M28.08-77.19 54.34-44.37C55.84-42.49 56.29-40.65 55.35-38.81 54.62-37.37 50.8-35.59 49.29-37.37L26.28-64.51C22.78-68.64 19.22-71.47 13.73-72.84L-12.4-79.38C-14.81-79.98-17.11-79.11-17.62-76.97-18.15-74.77-17.65-72.21-14.97-71.53L14.15-64.08C16.9-63.38 18.41-60.94 20.12-58.9L41.02-34.02 37.56-23.98 25.56 11.53C19.31 11.45 13.98 10.2 8.22 8.5 9.52 3.08 12.91 1.11 9.23-2.84 1.99-10.61-9.07-12.52-19.31-12.58-22.31-12.59-23.74-10.85-24.64-8.17L-33.53 18.39C-33.91 19.53-33.86 21.34-33.19 22.24-32.62 23.02-31.39 24.17-29.91 24.16-24.85 24.13-19.9 24.22-14.99 25.69-16.42 31.64-19.45 33.17-14.38 37.36-6.42 43.94 3.56 46.58 13.93 47.3 15.28 48.81 16.32 50.8 18.6 50.36 20.89 49.92 21.81 48.9 22.63 46.46L41.13-8.71 47.92-28.96C52.97-27.35 58.17-29.23 61.23-33.09 64.65-37.4 65.38-43.32 61.98-47.76L56.51-54.93 66.05-82.65C66.87-85.02 66.81-87.16 64.62-88.46 63.04-89.4 59.76-89.46 58.95-87.11L50.43-62.45 34.29-82.7C31.98-85.6 28.57-87.28 25.01-88.27L-10.39-97.06C-9.82-98.32-9.52-99.7-8.86-100.86-5.65-106.54-6.29-113.02-10.65-117.94-12.18-119.66-12.73-121.68-12.49-124.14L-9.76-152.76C-9.54-155.05-11.39-156.75-13.3-157.03-14.79-157.25-17.62-156-17.84-153.88L-20.59-127.26C-22.38-110.03-11.85-114.17-15.98-104.86L-20.09-95.62C-21.12-93.29-19.63-90.69-17.11-90.08L23.69-80.08C25.34-79.67 26.91-78.65 28.08-77.19" fill="#3333ff" />
</g>
<g clip-path="url(#clip_5)">
<path transform="matrix(1,0,0,-1,736,882.5)" stroke-width="3" stroke-linecap="butt" stroke-miterlimit="10" stroke-linejoin="miter" fill="none" stroke="#000000" d="M0 0C0 23.84 19.33 43.17 43.17 43.17 67.02 43.17 86.35 23.84 86.35 0 86.35-23.84 67.02-43.17 43.17-43.17 19.33-43.17 0-23.84 0 0Z" />
<path transform="matrix(1,0,0,-1,760.92,864.32)" stroke-width="3" stroke-linecap="butt" stroke-miterlimit="10" stroke-linejoin="miter" fill="none" stroke="#000000" d="M0 0H36.36V-36.36" />
<path transform="matrix(1,0,0,-1,760.92,900.69)" stroke-width="3" stroke-linecap="butt" stroke-miterlimit="10" stroke-linejoin="miter" fill="none" stroke="#000000" d="M0 0 36.36 36.36" />
</g>
<g clip-path="url(#clip_7)">
<path transform="matrix(1,0,0,-1,1131.6,882.5)" stroke-width="3" stroke-linecap="butt" stroke-miterlimit="10" stroke-linejoin="miter" fill="none" stroke="#000000" d="M0 0C0 23.84 19.33 43.17 43.17 43.17 67.02 43.17 86.35 23.84 86.35 0 86.35-23.84 67.02-43.17 43.17-43.17 19.33-43.17 0-23.84 0 0Z" />
<path transform="matrix(1,0,0,-1,1156.52,864.32)" stroke-width="3" stroke-linecap="butt" stroke-miterlimit="10" stroke-linejoin="miter" fill="none" stroke="#000000" d="M0 0H36.36V-36.36" />
<path transform="matrix(1,0,0,-1,1156.52,900.69)" stroke-width="3" stroke-linecap="butt" stroke-miterlimit="10" stroke-linejoin="miter" fill="none" stroke="#000000" d="M0 0 36.36 36.36" />
</g>
<g clip-path="url(#clip_9)">
<path transform="matrix(1,0,0,-1,1527.2,882.5)" stroke-width="3" stroke-linecap="butt" stroke-miterlimit="10" stroke-linejoin="miter" fill="none" stroke="#000000" d="M0 0C0 23.84 19.33 43.17 43.17 43.17 67.02 43.17 86.35 23.84 86.35 0 86.35-23.84 67.02-43.17 43.17-43.17 19.33-43.17 0-23.84 0 0Z" />
<path transform="matrix(1,0,0,-1,1552.12,864.32)" stroke-width="3" stroke-linecap="butt" stroke-miterlimit="10" stroke-linejoin="miter" fill="none" stroke="#000000" d="M0 0H36.36V-36.36" />
<path transform="matrix(1,0,0,-1,1552.12,900.69)" stroke-width="3" stroke-linecap="butt" stroke-miterlimit="10" stroke-linejoin="miter" fill="none" stroke="#000000" d="M0 0 36.36 36.36" />
</g>
<g clip-path="url(#clip_11)">
<path transform="matrix(1,0,0,-1,1922.8,882.5)" stroke-width="3" stroke-linecap="butt" stroke-miterlimit="10" stroke-linejoin="miter" fill="none" stroke="#000000" d="M0 0C0 23.84 19.33 43.17 43.17 43.17 67.02 43.17 86.35 23.84 86.35 0 86.35-23.84 67.02-43.17 43.17-43.17 19.33-43.17 0-23.84 0 0Z" />
<path transform="matrix(1,0,0,-1,1947.72,864.32)" stroke-width="3" stroke-linecap="butt" stroke-miterlimit="10" stroke-linejoin="miter" fill="none" stroke="#000000" d="M0 0H36.36V-36.36" />
<path transform="matrix(1,0,0,-1,1947.72,900.69)" stroke-width="3" stroke-linecap="butt" stroke-miterlimit="10" stroke-linejoin="miter" fill="none" stroke="#000000" d="M0 0 36.36 36.36" />
</g>
<g clip-path="url(#clip_13)">
<path transform="matrix(1,0,0,-1,2318.4,882.5)" stroke-width="3" stroke-linecap="butt" stroke-miterlimit="10" stroke-linejoin="miter" fill="none" stroke="#000000" d="M0 0C0 23.84 19.33 43.17 43.17 43.17 67.02 43.17 86.35 23.84 86.35 0 86.35-23.84 67.02-43.17 43.17-43.17 19.33-43.17 0-23.84 0 0Z" />
<path transform="matrix(1,0,0,-1,2343.32,864.32)" stroke-width="3" stroke-linecap="butt" stroke-miterlimit="10" stroke-linejoin="miter" fill="none" stroke="#000000" d="M0 0H36.36V-36.36" />
<path transform="matrix(1,0,0,-1,2343.32,900.69)" stroke-width="3" stroke-linecap="butt" stroke-miterlimit="10" stroke-linejoin="miter" fill="none" stroke="#000000" d="M0 0 36.36 36.36" />
</g>
<g clip-path="url(#clip_14)">
<path transform="matrix(1,0,0,-1,0,2623.16)" d="M974.46 1843.97H957.9V1814.16H974.46ZM984.14 1815.3C983.56 1802.4 968.47 1803.75 958.88 1804.49 952.85 1804.96 948.43 1809.24 948.18 1815.49 947.83 1824.55 947.9 1833.52 948.15 1842.62 948.32 1848.7 952.42 1853.35 958.51 1853.71 963.69 1854.02 968.81 1854.05 973.98 1853.69 979.87 1853.29 983.96 1848.78 984.17 1842.88 984.49 1833.65 984.55 1824.52 984.14 1815.3" fill="#030303" />
<path transform="matrix(1,0,0,-1,1004.34,814.37)" d="M0 0-.21 30.6-3.18 29.07C-5.45 27.9-8.1 28.96-9.28 30.99-10.46 33.02-10.3 36.06-8.04 37.59-4.45 40.03-1.03 42.5 2.74 44.7 4.21 45.55 6.25 45.18 7.68 44.31 8.77 43.66 9.81 41.99 9.81 40.02L9.77 .411C9.77-2.29 7.47-4.24 5.24-4.49 3.04-4.74 .02-2.98 0 0" fill="#050505" />
<path transform="matrix(1,0,0,-1,928.23,814.33)" d="M0 0-.141 30.97C-2.64 28.78-5.68 27.73-8.2 29.77-10.35 31.53-10.86 35.48-8.08 37.46-4.54 39.98-1.06 42.34 2.66 44.61 4.09 45.48 6.14 45.17 7.58 44.36 8.74 43.71 9.84 42.03 9.83 40.03L9.8 .338C9.79-2.41 7.49-4.37 5.11-4.53 2.99-4.68 .013-2.95 0 0" fill="#020202" />
<path transform="matrix(1,0,0,-1,0,2623.16)" d="M898.37 1843.97H881.82V1814.16H898.37ZM908.08 1815.49C907.62 1802.44 892.37 1803.64 882.6 1804.52 876.76 1805.05 872.4 1809.22 872.13 1815.3 871.73 1824.51 871.78 1833.65 872.1 1842.88 872.31 1848.78 876.4 1853.29 882.29 1853.69 887.47 1854.05 892.57 1854.02 897.78 1853.71 903.55 1853.37 907.8 1849.04 908.05 1843.19 908.46 1833.91 908.41 1824.76 908.08 1815.49" fill="#030303" />
<path transform="matrix(1,0,0,-1,1004.29,880.36)" d="M0 0-.182 30.61C-3.03 28.35-5.79 27.68-8.05 29.45-10.26 31.18-10.87 35.03-8.33 37.01-4.91 39.67-1.26 41.79 2.32 44.23 3.93 45.32 5.98 45.03 7.46 44.22 8.91 43.43 9.87 41.75 9.86 39.7L9.81 .05C9.8-2.65 7.39-4.56 5.22-4.7 2.66-4.87 .017-2.88 0 0" fill="#050505" />
<path transform="matrix(1,0,0,-1,881.94,880.61)" d="M0 0-.342 30.8C-3.36 28.31-6.62 27.85-8.81 30.4-10.66 32.56-10.39 36.11-7.61 37.94L2.45 44.56C4 45.58 5.89 45.28 7.23 44.59 8.84 43.77 9.81 42.09 9.81 39.95L9.75 .276C9.74-2.43 7.34-4.35 4.98-4.46 2.93-4.55 .032-2.89 0 0" fill="#050505" />
<path transform="matrix(1,0,0,-1,0,2623.16)" d="M928.14 1777.88H911.59V1747.92H928.14ZM937.84 1749.11C937.29 1736.02 921.84 1737.52 912.01 1738.38 906.17 1738.88 902.09 1743.41 901.87 1749.32 901.53 1758.45 901.54 1767.51 901.87 1776.62 902.08 1782.61 906.18 1786.95 912.01 1787.47 917.28 1787.94 922.27 1787.9 927.56 1787.49 933.33 1787.05 937.61 1782.82 937.84 1776.81 938.2 1767.56 938.22 1758.41 937.84 1749.11" fill="#040404" />
<path transform="matrix(1,0,0,-1,0,2623.16)" d="M974.46 1777.88H957.9V1747.92H974.46ZM975.55 1738.67C969.76 1737.61 964.51 1737.96 959.06 1738.26 953.05 1738.58 948.45 1742.88 948.2 1749.14 947.84 1758.38 947.84 1767.57 948.2 1776.82 948.44 1782.78 952.71 1787.09 958.49 1787.48 964.33 1787.87 969.93 1788.16 975.68 1787.14 980.57 1786.28 983.88 1782.05 984.12 1777.03 984.57 1767.72 984.49 1758.62 984.17 1749.3 983.99 1744.23 980.83 1739.64 975.55 1738.67" fill="#040404" />
<path transform="matrix(1,0,0,-1,1354.19,872.17)" d="M0 0C6.86 2.14 12.57 5.12 17.52 9.8 19.89 12.04 22.7 15.22 22.91 18.74 23.87 34.77 17.55 50.37 6.15 61.31-11.62 78.34-38.59 78.72-56.78 62.09-68.73 51.16-75.36 35.17-74.39 18.75-74.17 15.07-71.18 11.82-68.68 9.51-63.69 4.88-57.85 1.98-51.24-.065-34.68-5.19-16.85-5.26 0 0M32.7 18.36C31.79 4.25 14.79-5.54 2.76-9.34-15.78-15.2-35.69-15.19-54.23-9.34-62.34-6.77-69.54-3.1-75.63 2.64-79.97 6.73-83.72 11.95-84.16 18.12-85.19 32.31-80.91 45.89-73.44 57.73L-73.44 84.87C-78.01 86.96-80.26 91.42-79.28 96.03-78.35 100.42-74.45 103.58-69.96 103.69-65.36 103.81-61.41 100.63-60.36 96.64-59.02 91.53-61.43 87.04-66.09 84.73L-65.72 67.12C-43.18 89.9-7.92 89.7 14.38 67L14.6 84.73C10.13 86.97 7.69 91.21 8.76 96.18 9.63 100.23 13.46 103.61 18.06 103.69 22.55 103.78 26.58 100.81 27.7 96.47 28.92 91.74 26.7 87.02 21.97 84.87L21.97 57.73C29.32 46.03 33.64 32.74 32.7 18.36" fill="#ffffff" />
<path transform="matrix(1,0,0,-1,1352.9,845.49)" d="M0 0C0 3.37-2.73 6.11-6.11 6.11-9.48 6.11-12.21 3.37-12.21 0-12.21-3.37-9.48-6.11-6.11-6.11-2.73-6.11 0-3.37 0 0M-36.67-.004C-36.67 3.37-39.4 6.11-42.78 6.11-46.16 6.11-48.89 3.37-48.89-.004-48.89-3.38-46.16-6.12-42.78-6.12-39.4-6.12-36.67-3.38-36.67-.004M5.81-11.68C-10.96-17.36-35.37-17.07-51.85-12.65-55.3-11.46-58.37-10.47-60.94-7.52-61.45 3-59.22 13.83-53.81 23.23-34.47 16.68-14.42 16.69 4.93 23.21 10.19 13.95 12.62 3.34 12-7.19 11.11-9.5 8.02-10.61 5.81-11.68" fill="#ffffff" />
<path transform="matrix(1,0,0,-1,577.09,845.75)" d="M0 0C3.68 .833 5.43 3.94 5.26 7 5.11 9.84 3.17 12.57-.116 13.09ZM-89.84 13.11C-93.59 12.28-95.3 9.19-95.11 6.13-94.93 3.31-92.98 .522-89.73 .049ZM-23.61-35.34-24.84-29.18C-25.75-24.55-22.56-21.29-18.04-20.56-10.47-19.34-8.94-14.2-8.57-6.94-8.07 2.74-8.21 12.2-8.46 21.86-8.64 29.22-10.04 36.03-18.32 37.02-21.19 37.36-24.08 37.8-27.12 37.8L-62.73 37.8C-65.75 37.8-68.69 37.33-71.51 37.02-76.8 36.45-80.05 32.97-80.79 27.77-81.93 19.71-81.93-3.52-80.76-11.58-79.98-16.97-76.41-20.35-70.86-20.89-62.98-21.66-55.02-21.64-46.98-21.58-37.69-21.5-36.88-27.41-29.15-32.92-27.44-34.14-25.73-35.23-23.61-35.34M-16.45 63.64C-16.45 64.36-17.04 64.95-17.76 64.95-18.48 64.95-19.07 64.36-19.07 63.64-19.07 62.92-18.48 62.33-17.76 62.33-17.04 62.33-16.45 62.92-16.45 63.64M-70.78 63.64C-70.78 64.36-71.37 64.94-72.09 64.94-72.81 64.94-73.4 64.36-73.4 63.64-73.4 62.92-72.81 62.33-72.09 62.33-71.37 62.33-70.78 62.92-70.78 63.64M-16.68-28.61C-15.06-33.93-13.72-42.36-20.51-43.52-29.18-45.01-36.98-37.71-42.29-31.82-43.76-30.19-45.24-29.69-47.49-29.72-55.76-29.8-63.85-29.93-71.95-28.98-80.62-27.96-87.02-22.49-88.57-13.89-88.91-12.03-89.03-10.15-89.64-8.36-97.61-7.58-103.27-1.01-103.29 6.56-103.3 14.2-97.65 20.6-89.65 21.48-88.95 31.98-87.22 40.79-76.23 44.27L-76.17 55.02C-80.19 57.11-82.2 61.3-81.4 65.49-80.56 69.86-76.8 72.89-72.62 73.11-68 73.35-64.15 70.42-62.99 66.4-61.68 61.84-63.66 57.37-67.88 55.08-68.09 51.99-68.06 49.13-67.89 45.84L-21.95 45.85C-21.8 49.11-21.75 51.99-21.97 55.09-26.05 57.32-28.04 61.53-26.97 65.99-26 70.06-22.25 73.15-17.73 73.12-13.43 73.1-9.58 70.23-8.54 65.89-7.51 61.59-9.54 57.17-13.67 55.02L-13.71 44.36C-2.7 40.69-.986 32.46-.178 21.48 7.8 20.6 13.46 14.2 13.44 6.56 13.42-1.01 7.77-7.59-.232-8.36L-1.57-15.18C-3.04-22.68-9.07-27.49-16.68-28.61" />
<path transform="matrix(1,0,0,-1,542.33,844.91)" d="M0 0C2.09 1.92 4.63 2.2 6.38 .337 8.07-1.47 7.73-4.11 5.73-5.94-3.13-14.02-17.19-14.02-26.04-5.94-28.04-4.11-28.41-1.46-26.69 .349-24.97 2.15-22.4 1.93-20.46 .113-14.94-5.05-5.74-5.25 0 0" />
<path transform="matrix(1,0,0,-1,521.34,825.59)" d="M0 0C0-3-2.44-5.44-5.44-5.44-8.44-5.44-10.88-3-10.88 0-10.88 3-8.44 5.44-5.44 5.44-2.44 5.44 0 3 0 0" />
<path transform="matrix(1,0,0,-1,553.92,825.59)" d="M0 0C0-3-2.44-5.44-5.44-5.44-8.44-5.44-10.88-3-10.88 0-10.88 3-8.44 5.44-5.44 5.44-2.44 5.44 0 3 0 0" />
<path transform="matrix(1,0,0,-1,1771.15,869.92)" d="M0 0C0 3.72-3.02 6.74-6.74 6.74-10.47 6.74-13.49 3.72-13.49 0-13.49-3.72-10.47-6.74-6.74-6.74-3.02-6.74 0-3.72 0 0M-43.24 .001C-43.24 3.73-46.27 6.75-49.99 6.75-53.72 6.75-56.73 3.73-56.73 .001-56.73-3.72-53.72-6.74-49.99-6.74-46.27-6.74-43.24-3.72-43.24 .001M-21.04 4.05C-19.49 9.25-15.94 12.68-10.9 14.29L-10.89 29.03C-16.1 30.6-19.46 34.37-21.1 39.24L-35.62 39.27C-37.3 34.2-40.88 30.5-45.94 28.96L-45.84 14.3C-40.73 12.74-37.21 9.06-35.64 4.05ZM.013 43.31C.013 47.04-3.01 50.07-6.74 50.07-10.47 50.07-13.49 47.04-13.49 43.31-13.49 39.58-10.47 36.56-6.74 36.56-3.01 36.56 .013 39.58 .013 43.31M-43.24 43.31C-43.24 47.04-46.26 50.06-49.99 50.06-53.72 50.06-56.74 47.04-56.74 43.31-56.74 39.58-53.72 36.56-49.99 36.56-46.26 36.56-43.24 39.58-43.24 43.31M-86.48 43.31C-86.48 47.04-89.51 50.07-93.24 50.07-96.97 50.07-99.99 47.04-99.99 43.31-99.99 39.58-96.97 36.56-93.24 36.56-89.51 36.56-86.48 39.58-86.48 43.31M-64.31 47.44C-62.61 52.73-58.96 56.07-54.05 57.66L-54.05 72.29C-59.15 73.78-62.68 77.52-64.29 82.48L-78.91 82.55C-80.51 77.36-84.2 73.9-89.19 72.17L-89.11 57.66C-84.12 56.02-80.53 52.55-78.93 47.47ZM-43.24 86.61C-43.24 90.34-46.26 93.36-49.99 93.36-53.71 93.36-56.73 90.34-56.73 86.61-56.73 82.89-53.71 79.87-49.99 79.87-46.26 79.87-43.24 82.89-43.24 86.61M-86.49 86.61C-86.49 90.33-89.51 93.35-93.23 93.35-96.96 93.35-99.98 90.33-99.98 86.61-99.98 82.88-96.96 79.86-93.23 79.86-89.51 79.86-86.49 82.88-86.49 86.61M-2.72 14.38C4.45 12.18 8.64 5.7 8.06-1.26 7.47-8.25 1.93-13.91-4.73-14.76-12.2-15.71-18.8-11.26-21.05-4.11L-35.71-4.17C-37.92-11.16-44.25-15.42-51.26-14.84-58.24-14.26-63.91-8.69-64.73-1.78-65.57 5.37-61.37 12.09-54.14 14.3L-54.04 28.94C-58.94 30.51-62.6 33.95-64.24 39.07L-78.94 39.13C-81.15 32.15-87.66 27.75-94.73 28.47-101.58 29.17-107.15 34.64-107.98 41.52-108.85 48.63-104.59 55.41-97.39 57.6L-97.24 72.17C-104.02 74.34-108.46 80.55-108.08 87.43-107.67 94.69-102.1 100.47-95.27 101.32-87.78 102.25-81.21 97.97-78.88 90.72L-64.29 90.74C-62.14 97.82-55.72 101.94-48.71 101.39-41.68 100.85-36.02 95.32-35.24 88.37-34.43 81.21-38.71 74.45-45.91 72.27L-45.92 57.65C-41.01 56.11-37.34 52.69-35.72 47.51L-21.05 47.5C-18.84 54.52-12.31 58.82-5.24 58.11 1.63 57.42 7.18 52.01 8 45.16 8.86 38 4.57 31.19-2.61 28.98Z" fill="#ffffff" />
<path transform="matrix(1,0,0,-1,0,2623.16)" d="M2091.28 1794.26H2077.32V1746.73H2091.28ZM2147.1 1746.79 2147.07 1807.3C2146.77 1810.02 2146.77 1812.48 2145.24 1814.63 2143.11 1816.16 2140.39 1816.49 2137.69 1816.49L2109.07 1816.49C2106.37 1816.49 2103.66 1816.14 2101.52 1814.63 2099.98 1812.48 2099.99 1810.02 2099.68 1807.3L2099.68 1746.76ZM2155.5 1746.8 2169.43 1746.77 2169.4 1826.13C2169.4 1829.81 2167.85 1832.05 2164.72 1833.65L2133.26 1849.7 2133.18 1825.09C2137.15 1824.84 2140.72 1824.97 2144.32 1824.08 2153.56 1822.04 2155.44 1814.33 2155.45 1805.74ZM2068.99 1794.53C2069.02 1806.37 2084.25 1801.5 2091.27 1802.79 2091.18 1812.06 2091.89 1821.55 2101.97 1824 2105.19 1824.78 2108.46 1824.96 2111.87 1824.99L2124.66 1825.09 2124.93 1850.78C2124.96 1853.54 2126.26 1856.08 2128.17 1857.34 2130.4 1858.82 2133.51 1858.9 2136.11 1857.57L2168.92 1840.88C2174.55 1838.01 2177.72 1833.16 2177.73 1826.66L2177.86 1746.86C2181.03 1747 2183.04 1745.6 2183.33 1743.16 2183.59 1741.06 2182.05 1738.39 2179.29 1738.39L2067.97 1738.36C2065.17 1738.35 2063.37 1740.38 2063.39 1742.72 2063.42 1745.34 2065.55 1747.06 2068.88 1746.85Z" fill="#ffffff" />
<path transform="matrix(1,0,0,-1,2129.33,828.93)" d="M0 0-11.65 .062C-14.13 .075-15.8 2.29-15.7 4.45-15.58 6.72-13.72 8.41-11.2 8.41H-.702C1.64 8.41 3.43 6.93 3.75 4.89 4.09 2.65 2.65 .518 0 0" fill="#ffffff" />
<path transform="matrix(1,0,0,-1,2129.33,845.67)" d="M0 0-11.65 .062C-14.13 .075-15.8 2.29-15.7 4.45-15.58 6.72-13.72 8.41-11.2 8.41H-.702C1.64 8.41 3.44 6.93 3.75 4.89 4.09 2.65 2.65 .518 0 0" fill="#ffffff" />
<path transform="matrix(1,0,0,-1,2129.33,862.42)" d="M0 0-11.65 .062C-14.13 .075-15.8 2.29-15.7 4.45-15.58 6.72-13.72 8.41-11.2 8.41H-.702C1.64 8.41 3.43 6.93 3.75 4.89 4.09 2.65 2.65 .518 0 0" fill="#ffffff" />
</g>
<g clip-path="url(#clip_16)">
<path transform="matrix(1,0,0,-1,2205.73,1821.76)" d="M0 0C-27.36 0-49.55-22.18-49.55-49.55-49.55-76.91-27.36-99.09 0-99.09 27.36-99.09 49.55-76.91 49.55-49.55 49.55-22.18 27.36 0 0 0M0-3C25.67-3 46.55-23.88 46.55-49.55 46.55-75.21 25.67-96.09 0-96.09-25.66-96.09-46.55-75.21-46.55-49.55-46.55-23.88-25.66-3 0-3" fill="#333333" />
<path transform="matrix(1,0,0,-1,2184.87,1850.44)" stroke-width="3" stroke-linecap="round" stroke-linejoin="round" fill="none" stroke="#333333" d="M0 0H41.73V-41.73" />
<path transform="matrix(1,0,0,-1,2184.87,1892.17)" stroke-width="3" stroke-linecap="round" stroke-linejoin="round" fill="none" stroke="#333333" d="M0 0 41.73 41.73" />
</g>
<g clip-path="url(#clip_21)">
<path transform="matrix(1,0,0,-1,2205.73,2121.05)" d="M0 0C-27.36 0-49.55-22.18-49.55-49.55-49.55-76.91-27.36-99.09 0-99.09 27.36-99.09 49.55-76.91 49.55-49.55 49.55-22.18 27.36 0 0 0M0-3C25.67-3 46.55-23.88 46.55-49.55 46.55-75.21 25.67-96.09 0-96.09-25.66-96.09-46.55-75.21-46.55-49.55-46.55-23.88-25.66-3 0-3" fill="#333333" />
<path transform="matrix(1,0,0,-1,2184.87,2149.73)" stroke-width="3" stroke-linecap="round" stroke-linejoin="round" fill="none" stroke="#333333" d="M0 0H41.73V-41.73" />
<path transform="matrix(1,0,0,-1,2184.87,2191.46)" stroke-width="3" stroke-linecap="round" stroke-linejoin="round" fill="none" stroke="#333333" d="M0 0 41.73 41.73" />
</g>
</g>
</g>
</g></svg>