<?xml version='1.0' encoding='utf-8'?>
<svg xmlns="http://www.w3.org/2000/svg" xmlns:ns1="http://www.inkscape.org/namespaces/inkscape" version="1.1" width="1920" height="1080" viewBox="0 0 1920 1080">
<defs>
<clipPath id="clip_1">
<path transform="matrix(1,0,0,-1,0,1080)" d="M0 1080H1920V0H0Z" />
</clipPath>
<clipPath id="clip_2">
<path transform="matrix(1,0,0,-1,0,1080)" d="M0 1080H1920V0H0Z" />
</clipPath>
<clipPath id="clip_3">
<path transform="matrix(1,0,0,-1,0,1080)" d="M0 1080H1920V0H0Z" />
</clipPath>
</defs>
<g>
<g ns1:groupmode="layer" ns1:label="Layer 1">
<g clip-path="url(#clip_1)">
<path transform="matrix(1,0,0,-1,1823.42,75)" d="M0 0H-173.985C-185.5 0-194.835-9.335-194.835-20.85V-20.851C-194.835-32.366-185.5-41.701-173.985-41.701H0C11.516-41.701 20.851-32.366 20.851-20.851V-20.85C20.851-9.335 11.516 0 0 0M0-1C10.946-1 19.851-9.905 19.851-20.851 19.851-31.796 10.946-40.701 0-40.701H-173.985C-184.931-40.701-193.835-31.796-193.835-20.85-193.835-9.905-184.931-1-173.985-1Z" fill="#444454" />
</g>
<g clip-path="url(#clip_2)">
<path transform="matrix(1,0,0,-1,481.9471,434.55488)" stroke-width="3" stroke-linecap="round" stroke-linejoin="round" fill="none" stroke="#3c3c4f" d="M0 0V-228.736C0-255.468-21.67-277.138-48.402-277.138-83.244-277.138-111.489-305.383-111.489-340.225-111.489-366.957-133.159-388.628-159.891-388.628H-359.834C-386.98-388.628-408.986-366.622-408.986-339.476V0C-408.986 27.146-386.98 49.151-359.834 49.151H-49.151C-22.006 49.151 0 27.146 0 0Z" />
<path transform="matrix(1,0,0,-1,384.5337,774.7831)" stroke-width="3" stroke-linecap="round" stroke-linejoin="round" fill="none" stroke="#3c3c4f" d="M0 0C0 26.73 21.669 48.399 48.399 48.399 75.13 48.399 96.799 26.73 96.799 0 96.799-26.73 75.13-48.399 48.399-48.399 21.669-48.399 0-26.73 0 0Z" />
<path transform="matrix(1,0,0,-1,412.4715,754.4088)" stroke-width="3" stroke-linecap="round" stroke-linejoin="round" fill="none" stroke="#3c3c4f" d="M0 0H40.764V-40.764" />
<path transform="matrix(1,0,0,-1,412.4715,795.17239)" stroke-width="3" stroke-linecap="round" stroke-linejoin="round" fill="none" stroke="#3c3c4f" d="M0 0 40.764 40.764" />
<path transform="matrix(1,0,0,-1,1748.7753,774.7831)" stroke-width="3" stroke-linecap="round" stroke-linejoin="round" fill="none" stroke="#3c3c4f" d="M0 0C0 26.73 21.669 48.399 48.399 48.399 75.13 48.399 96.799 26.73 96.799 0 96.799-26.73 75.13-48.399 48.399-48.399 21.669-48.399 0-26.73 0 0Z" />
<path transform="matrix(1,0,0,-1,1776.713,754.4088)" stroke-width="3" stroke-linecap="round" stroke-linejoin="round" fill="none" stroke="#3c3c4f" d="M0 0H40.764V-40.764" />
<path transform="matrix(1,0,0,-1,1776.713,795.17239)" stroke-width="3" stroke-linecap="round" stroke-linejoin="round" fill="none" stroke="#3c3c4f" d="M0 0 40.764 40.764" />
<path transform="matrix(1,0,0,-1,1390.8268,434.55488)" stroke-width="3" stroke-linecap="round" stroke-linejoin="round" fill="none" stroke="#3c3c4f" d="M0 0V-228.736C0-255.468-21.67-277.138-48.402-277.138-83.244-277.138-111.489-305.383-111.489-340.225-111.489-366.957-133.159-388.628-159.891-388.628H-359.834C-386.98-388.628-408.986-366.622-408.986-339.476V0C-408.986 27.146-386.98 49.151-359.834 49.151H-49.151C-22.006 49.151 0 27.146 0 0Z" />
<path transform="matrix(1,0,0,-1,1294.0281,774.7831)" stroke-width="3" stroke-linecap="round" stroke-linejoin="round" fill="none" stroke="#3c3c4f" d="M0 0C0 26.73 21.669 48.399 48.399 48.399 75.13 48.399 96.799 26.73 96.799 0 96.799-26.73 75.13-48.399 48.399-48.399 21.669-48.399 0-26.73 0 0Z" />
<path transform="matrix(1,0,0,-1,1321.9658,754.4088)" stroke-width="3" stroke-linecap="round" stroke-linejoin="round" fill="none" stroke="#3c3c4f" d="M0 0H40.764V-40.764" />
<path transform="matrix(1,0,0,-1,1321.9658,795.17239)" stroke-width="3" stroke-linecap="round" stroke-linejoin="round" fill="none" stroke="#3c3c4f" d="M0 0 40.764 40.764" />
<path transform="matrix(1,0,0,-1,839.2809,774.7831)" stroke-width="3" stroke-linecap="round" stroke-linejoin="round" fill="none" stroke="#3c3c4f" d="M0 0C0 26.73 21.669 48.399 48.399 48.399 75.13 48.399 96.799 26.73 96.799 0 96.799-26.73 75.13-48.399 48.399-48.399 21.669-48.399 0-26.73 0 0Z" />
<path transform="matrix(1,0,0,-1,867.2186,754.4088)" stroke-width="3" stroke-linecap="round" stroke-linejoin="round" fill="none" stroke="#3c3c4f" d="M0 0H40.764V-40.764" />
<path transform="matrix(1,0,0,-1,867.2186,795.17239)" stroke-width="3" stroke-linecap="round" stroke-linejoin="round" fill="none" stroke="#3c3c4f" d="M0 0 40.764 40.764" />
</g>
<g clip-path="url(#clip_3)">
<path transform="matrix(1,0,0,-1,481.9471,434.55488)" stroke-width="3" stroke-linecap="round" stroke-linejoin="round" fill="none" stroke="#3c3c4f" d="M0 0V-228.736C0-255.468-21.67-277.138-48.402-277.138-83.244-277.138-111.489-305.383-111.489-340.225-111.489-366.957-133.159-388.628-159.891-388.628H-359.834C-386.98-388.628-408.986-366.622-408.986-339.476V0C-408.986 27.146-386.98 49.151-359.834 49.151H-49.151C-22.006 49.151 0 27.146 0 0Z" />
<path transform="matrix(1,0,0,-1,384.5337,774.7831)" stroke-width="3" stroke-linecap="round" stroke-linejoin="round" fill="none" stroke="#3c3c4f" d="M0 0C0 26.73 21.669 48.399 48.399 48.399 75.13 48.399 96.799 26.73 96.799 0 96.799-26.73 75.13-48.399 48.399-48.399 21.669-48.399 0-26.73 0 0Z" />
<path transform="matrix(1,0,0,-1,412.4715,754.4088)" stroke-width="3" stroke-linecap="round" stroke-linejoin="round" fill="none" stroke="#3c3c4f" d="M0 0H40.764V-40.764" />
<path transform="matrix(1,0,0,-1,412.4715,795.17239)" stroke-width="3" stroke-linecap="round" stroke-linejoin="round" fill="none" stroke="#3c3c4f" d="M0 0 40.764 40.764" />
<path transform="matrix(1,0,0,-1,1845.574,434.55488)" stroke-width="3" stroke-linecap="round" stroke-linejoin="round" fill="none" stroke="#3c3c4f" d="M0 0V-228.736C0-255.468-21.67-277.138-48.402-277.138-83.244-277.138-111.489-305.383-111.489-340.225-111.489-366.957-133.159-388.628-159.891-388.628H-359.834C-386.98-388.628-408.986-366.622-408.986-339.476V0C-408.986 27.146-386.98 49.151-359.834 49.151H-49.151C-22.006 49.151 0 27.146 0 0Z" />
<path transform="matrix(1,0,0,-1,1748.7753,774.7831)" stroke-width="3" stroke-linecap="round" stroke-linejoin="round" fill="none" stroke="#3c3c4f" d="M0 0C0 26.73 21.669 48.399 48.399 48.399 75.13 48.399 96.799 26.73 96.799 0 96.799-26.73 75.13-48.399 48.399-48.399 21.669-48.399 0-26.73 0 0Z" />
<path transform="matrix(1,0,0,-1,1776.713,754.4088)" stroke-width="3" stroke-linecap="round" stroke-linejoin="round" fill="none" stroke="#3c3c4f" d="M0 0H40.764V-40.764" />
<path transform="matrix(1,0,0,-1,1776.713,795.17239)" stroke-width="3" stroke-linecap="round" stroke-linejoin="round" fill="none" stroke="#3c3c4f" d="M0 0 40.764 40.764" />
<path transform="matrix(1,0,0,-1,1390.8268,434.55488)" stroke-width="3" stroke-linecap="round" stroke-linejoin="round" fill="none" stroke="#3c3c4f" d="M0 0V-228.736C0-255.468-21.67-277.138-48.402-277.138-83.244-277.138-111.489-305.383-111.489-340.225-111.489-366.957-133.159-388.628-159.891-388.628H-359.834C-386.98-388.628-408.986-366.622-408.986-339.476V0C-408.986 27.146-386.98 49.151-359.834 49.151H-49.151C-22.006 49.151 0 27.146 0 0Z" />
<path transform="matrix(1,0,0,-1,1294.0281,774.7831)" stroke-width="3" stroke-linecap="round" stroke-linejoin="round" fill="none" stroke="#3c3c4f" d="M0 0C0 26.73 21.669 48.399 48.399 48.399 75.13 48.399 96.799 26.73 96.799 0 96.799-26.73 75.13-48.399 48.399-48.399 21.669-48.399 0-26.73 0 0Z" />
<path transform="matrix(1,0,0,-1,1321.9658,754.4088)" stroke-width="3" stroke-linecap="round" stroke-linejoin="round" fill="none" stroke="#3c3c4f" d="M0 0H40.764V-40.764" />
<path transform="matrix(1,0,0,-1,1321.9658,795.17239)" stroke-width="3" stroke-linecap="round" stroke-linejoin="round" fill="none" stroke="#3c3c4f" d="M0 0 40.764 40.764" />
<path transform="matrix(1,0,0,-1,936.0796,434.55488)" stroke-width="3" stroke-linecap="round" stroke-linejoin="round" fill="none" stroke="#3c3c4f" d="M0 0V-228.736C0-255.468-21.67-277.138-48.402-277.138-83.244-277.138-111.489-305.383-111.489-340.225-111.489-366.957-133.159-388.628-159.891-388.628H-359.834C-386.98-388.628-408.986-366.622-408.986-339.476V0C-408.986 27.146-386.98 49.151-359.834 49.151H-49.151C-22.006 49.151 0 27.146 0 0Z" />
<path transform="matrix(1,0,0,-1,839.2809,774.7831)" stroke-width="3" stroke-linecap="round" stroke-linejoin="round" fill="none" stroke="#3c3c4f" d="M0 0C0 26.73 21.669 48.399 48.399 48.399 75.13 48.399 96.799 26.73 96.799 0 96.799-26.73 75.13-48.399 48.399-48.399 21.669-48.399 0-26.73 0 0Z" />
<path transform="matrix(1,0,0,-1,867.2186,754.4088)" stroke-width="3" stroke-linecap="round" stroke-linejoin="round" fill="none" stroke="#3c3c4f" d="M0 0H40.764V-40.764" />
<path transform="matrix(1,0,0,-1,867.2186,795.17239)" stroke-width="3" stroke-linecap="round" stroke-linejoin="round" fill="none" stroke="#3c3c4f" d="M0 0 40.764 40.764" />
</g>
</g>
<g ns1:groupmode="layer" ns1:label="Layer 2">
</g>
</g>
</svg>