<?xml version='1.0' encoding='utf-8'?>
<svg xmlns="http://www.w3.org/2000/svg" xmlns:ns1="http://www.inkscape.org/namespaces/inkscape" version="1.1" width="1920" height="1080" viewBox="0 0 1920 1080">
<defs>
<clipPath id="clip_1">
<path transform="matrix(1,0,0,-1,0,1080)" d="M0 1080H1920V0H0Z" />
</clipPath>
<clipPath id="clip_2">
<path transform="matrix(1,0,0,-1,0,1080)" d="M1918.78 1184.52H-1.22V2273.31H1918.78Z" />
</clipPath>
<clipPath id="clip_3">
<path transform="matrix(1,0,0,-1,0,1080)" d="M1443.6 657.51H2458.29V1685.71H1443.6Z" />
</clipPath>
<clipPath id="clip_4">
<path transform="matrix(1,0,0,-1,0,1080)" d="M0 1080H1920V0H0Z" />
</clipPath>
<clipPath id="clip_5">
<path transform="matrix(1,0,0,-1,0,1080)" d="M0 1080H1920V0H0Z" />
</clipPath>
<clipPath id="clip_6">
<path transform="matrix(1,0,0,-1,0,1080)" d="M0 1080H1920V0H0Z" />
</clipPath>
<clipPath id="clip_7">
<path transform="matrix(1,0,0,-1,0,1080)" d="M257.89 502.87H1715.65V658.86H257.89Z" />
</clipPath>
<clipPath id="clip_8">
<path transform="matrix(1,0,0,-1,0,1080)" d="M0 1080H1920V0H0Z" />
</clipPath>
<clipPath id="clip_9">
<path transform="matrix(1,0,0,-1,0,1080)" d="M0 1080H1920V0H0Z" />
</clipPath>
</defs>
<g>
<g ns1:groupmode="layer" ns1:label="Layer 1">
</g>
<g ns1:groupmode="layer" ns1:label="Layer 2">
</g>
<g ns1:groupmode="layer" ns1:label="Page18">
</g>
<g ns1:groupmode="layer" ns1:label="Page17">
</g>
<g ns1:groupmode="layer" ns1:label="Page 16">
</g>
<g ns1:groupmode="layer" ns1:label="Page 15">
</g>
<g ns1:groupmode="layer" ns1:label="Page 14">
</g>
<g ns1:groupmode="layer" ns1:label="Page 13">
</g>
<g ns1:groupmode="layer" ns1:label="Page 12">
</g>
<g ns1:groupmode="layer" ns1:label="Page 11">
</g>
<g ns1:groupmode="layer" ns1:label="Page 10">
<g clip-path="url(#clip_1)">
<g clip-path="url(#clip_2)">
<g opacity=".0899963">
<g clip-path="url(#clip_3)">
<path transform="matrix(1,0,0,-1,2414.02,-21.02)" d="M0 0C59.02 28.17 59.02 113.02 0 141.18-86.24 182.35-164.09 238.56-230.3 306.44-297.31 373.55-352.79 452.44-393.42 539.84-421.22 599.64-504.95 599.64-532.75 539.84-573.38 452.44-628.86 373.55-695.86 306.44-762.08 238.56-839.93 182.35-926.17 141.18-985.18 113.02-985.18 28.17-926.17 0-839.91-41.17-762.06-97.39-695.83-165.29-628.85-232.39-573.37-311.27-532.75-398.66-504.95-458.46-421.22-458.46-393.42-398.66-352.8-311.27-297.32-232.38-230.33-165.29-164.11-97.39-86.25-41.17 0 0" fill="#f2f2f2" />
</g>
</g>
<g ns1:groupmode="layer" ns1:label="Page 9">
</g>
<g ns1:groupmode="layer" ns1:label="Page7">
</g>
</g>
</g>
</g>
<g ns1:groupmode="layer" ns1:label="Page 8">
<g clip-path="url(#clip_4)">
<path transform="matrix(1,0,0,-1,1069.1,5.33)" d="M0 0V-48.02C0-54.99 5.78-60.66 12.89-60.66H60.62ZM-273.14 .118C-277.83 .118-281.64-3.69-281.64-8.38V-148.9C-281.64-153.59-277.83-157.4-273.14-157.4H53.13C57.81-157.4 61.63-153.59 61.63-148.9L61.62-61.66H12.89C5.23-61.66-1-55.54-1-48.02V.118ZM53.13-158.4H-273.14C-278.38-158.4-282.64-154.14-282.64-148.9V-8.38C-282.64-3.14-278.38 1.12-273.14 1.12H-.029C.133 1.15 .309 1.1 .424 .99L62.04-60.66H62.14V-60.76L62.42-61.04C62.52-61.11 62.59-61.21 62.61-61.32 62.64-61.4 62.64-61.49 62.63-61.57V-148.9C62.63-154.14 58.36-158.4 53.13-158.4" fill="#97e342" />
</g>
</g>
<g ns1:groupmode="layer" ns1:label="7">
<path transform="matrix(1,0,0,-1,0,1080)" d="M0 0H1920V1080H0Z" fill="#ffffff" />
<text xml:space="preserve" transform="matrix(1 0 -0 1 0 1080)" font-size="20" font-family="ProximaNova-Semibold" font-weight="bold"><tspan y="-68" x="75.0957 89.99171 101.67171 113.493709 125.173709 137.19371 142.33371 154.14972 168.62973 183.25774 188.47772 200.31974 211.62775 226.10776 240.36176 245.57576">©2026 SUN.STUDIO</tspan></text>
<text xml:space="preserve" transform="matrix(1 0 -0 1 0 1080)" font-size="20" font-family="ProximaNova-Regular"><tspan y="-68" x="260.8757 266.0357 279.29173 289.27375 299.47377 304.63377 316.82978 321.60978 336.0478 350.14979 361.37178 373.09178 378.25178 390.41178 401.79179 413.55778 424.93778 436.88978 450.14579 461.5258"> ALL RIGHTS RESERVED</tspan></text>
<text fill="#2c2c2c" xml:space="preserve" transform="matrix(1 0 -0 1 0 1080)" font-size="20" font-family="ProximaNova-Semibold" font-weight="bold"><tspan y="-68" x="1832.9758">6</tspan></text>
<g clip-path="url(#clip_5)">
<path transform="matrix(1,0,0,-1,330.89,109.3)" stroke-width="1" stroke-linecap="butt" stroke-miterlimit="10" stroke-linejoin="miter" fill="none" stroke="#000000" d="M0 0H-240C-249.66 0-257.5 7.83-257.5 17.5-257.5 27.16-249.66 35-240 35H0C9.66 35 17.5 27.16 17.5 17.5 17.5 7.83 9.66 0 0 0Z" />
</g>
<text xml:space="preserve" transform="matrix(1.01 0 -0 .9884724 0 1080)" font-size="20.23324" font-family="ProximaNova-Bold" font-weight="bold"><tspan y="-992.5777" x="95.97543 110.865077 123.87505 129.05477 142.12543 147.30513 160.96662 172.67154 189.7747 194.74398 206.45903 211.63874 226.1318 237.21962 248.9549 259.77565 267.39955 274.28288 291.4204 302.50825 314.0938">HR &amp; Admin Department</tspan></text>
<g clip-path="url(#clip_6)">
<path transform="matrix(1,0,0,-1,1653.11,110.28)" d="M0 0V-8.33C0-8.69 .31-8.98 .693-8.98H8.02C8.4-8.98 8.71-8.69 8.71-8.33V2.58C8.71 3.08 8.29 3.22 7.94 3.06 5.5 2 2.59 1.18 .644 .697 .26 .601 0 .32 0 0" />
<path transform="matrix(1,0,0,-1,1673.5,108.26)" d="M0 0C-.828-.775-2.05-1.72-3.5-1.72-4.89-1.72-5.96-.4-6.6 .4-6.81 .66-7.37 .498-7.37 .046V-10.34C-7.37-10.71-7.06-11-6.67-11H.655C1.04-11 1.35-10.71 1.35-10.34V.163C1.35 .669 .844 .812 .577 .576 .391 .412 .156 .146 0 0" />
<path transform="matrix(1,0,0,-1,1686.96,87.35)" d="M0 0C-1.73-3.26-4.65-6.98-7.4-9.16-7.66-9.37-7.81-9.73-7.81-10.03V-31.25C-7.81-31.65-7.5-31.91-7.12-31.91H.214C.597-31.91 .907-31.66 .907-31.25V-.178C.902 .301 .232 .438 0 0" />
<path transform="matrix(1,0,0,-1,1677.26,86.19)" d="M0 0C-1.83 .073-3.25 1.61-3.17 3.44-3.1 5.27-1.56 6.69 .265 6.62 2.09 6.54 3.51 5 3.44 3.18 3.37 1.35 1.83-.073 0 0M6.35 11.04C.214 10.99-6.8 7.28-11.02 2.96-14.49 2.96-20.89 1.97-23.19-.92-23.67-1.52-23.48-2.32-22.78-2.63-22.12-2.92-18.26-3.8-18.11-3.98-18.47-4.71-18.46-5.05-17.99-5.7-17.94-5.78-17.88-5.85-17.82-5.93-17.62-5.91-17.41-5.89-17.2-5.89H-17.11C-14.76-5.92-12.7-7.28-11.72-9.44-11.19-10.61-11.05-11.87-11.27-13.06-11.03-13.34-10.8-13.62-10.58-13.91-10.11-14.42-9.57-14.3-8.99-14.1-8.57-15.55-8.58-17.56-8.07-18.94-7.8-19.68-7.01-19.85-6.36-19.46-5.98-19.23-5.03-18.07-4.73-17.66-2.64-14.85-1.74-11.21-1.38-7.77 3.37-4.06 7.8 2.59 8.47 8.7 8.7 10.8 8.47 11.06 6.35 11.04" fill="#ff5533" />
<path transform="matrix(1,0,0,-1,1660.13,93.54)" d="M0 0C-3.46 .045-4.62-3.22-5.72-5.88-6.17-6.96-7.09-9.07-7.26-10.13-7.34-10.62-7.15-11.06-6.74-11.31-6.22-11.62-5.83-11.39-5.29-11.26-3.22-10.76 2.1-9.13 3.42-7.58 5.91-4.66 3.87-.05 0 0" fill="#ff5533" />
<path transform="matrix(1,0,0,-1,1712.58,83.5)" d="M0 0H-3.61V-4.4H0C1.34-4.4 2.34-3.54 2.34-2.2 2.34-.884 1.34 0 0 0M-7-13.02V2.92H.454C3.92 2.92 5.81 .573 5.81-2.22 5.81-5 3.9-7.31 .454-7.31H-3.61V-13.02Z" />
<path transform="matrix(1,0,0,-1,1722.4,89.66)" d="M0 0H5.69C5.62 1.1 4.85 2.56 2.84 2.56 .956 2.56 .143 1.15 0 0M2.84 4.97C6.29 4.97 8.63 2.39 8.63-1.39V-2.06H.047C.239-3.51 1.41-4.73 3.37-4.73 4.45-4.73 5.71-4.3 6.45-3.58L7.79-5.54C6.62-6.62 4.83-7.14 3.04-7.14-.478-7.14-3.13-4.78-3.13-1.07-3.13 2.27-.669 4.97 2.84 4.97" />
<path transform="matrix(1,0,0,-1,1733.23,96.52)" d="M0 0V11.54H3.04V9.96C3.85 10.99 5.28 11.8 6.71 11.8V8.84C6.5 8.89 6.21 8.91 5.88 8.91 4.88 8.91 3.54 8.36 3.04 7.62V0Z" />
<path transform="matrix(1,0,0,-1,1745.56,87.63)" d="M0 0V-8.89H-3.06V0H-4.97V2.65H-3.06V3.27C-3.06 5.78-1.43 7.29 .836 7.29 1.7 7.29 2.48 7.1 3.04 6.81L2.41 4.66C2.15 4.83 1.79 4.9 1.43 4.9 .573 4.9 0 4.33 0 3.23V2.65H2.34V0Z" />
<path transform="matrix(1,0,0,-1,1757.97,90.74)" d="M0 0C0 1.79-1.07 3.35-2.96 3.35-4.85 3.35-5.9 1.79-5.9 0-5.9-1.82-4.85-3.37-2.96-3.37-1.07-3.37 0-1.82 0 0M-9.06 0C-9.06 3.27-6.76 6.05-2.96 6.05 .86 6.05 3.15 3.27 3.15 0 3.15-3.3 .86-6.07-2.96-6.07-6.76-6.07-9.06-3.3-9.06 0" />
<path transform="matrix(1,0,0,-1,1763.37,96.52)" d="M0 0V11.54H3.04V9.96C3.85 10.99 5.28 11.8 6.71 11.8V8.84C6.5 8.89 6.21 8.91 5.88 8.91 4.88 8.91 3.54 8.36 3.04 7.62V0Z" />
<path transform="matrix(1,0,0,-1,1786.29,96.52)" d="M0 0V7.29C0 8.36-.478 9.13-1.72 9.13-2.8 9.13-3.68 8.41-4.11 7.79V0H-7.17V7.29C-7.17 8.36-7.65 9.13-8.89 9.13-9.94 9.13-10.82 8.41-11.28 7.77V0H-14.31V11.54H-11.28V10.04C-10.8 10.73-9.27 11.83-7.5 11.83-5.81 11.83-4.73 11.04-4.3 9.73-3.63 10.78-2.1 11.83-.335 11.83 1.79 11.83 3.06 10.71 3.06 8.34V0Z" />
<path transform="matrix(1,0,0,-1,1799.27,92.32)" d="M0 0C-.501 .669-1.46 1-2.44 1-3.63 1-4.61 .358-4.61-.741-4.61-1.82-3.63-2.44-2.44-2.44-1.46-2.44-.501-2.1 0-1.43ZM0-4.21V-3.01C-.788-3.94-2.15-4.49-3.66-4.49-5.5-4.49-7.67-3.25-7.67-.669-7.67 2.03-5.5 3.01-3.66 3.01-2.13 3.01-.764 2.53 0 1.6V3.2C0 4.37-1 5.14-2.53 5.14-3.78 5.14-4.92 4.68-5.9 3.78L-7.05 5.81C-5.64 7.05-3.82 7.62-2.01 7.62 .622 7.62 3.04 6.57 3.04 3.25V-4.21Z" />
<path transform="matrix(1,0,0,-1,1813.1,96.52)" d="M0 0V6.98C0 8.58-.836 9.13-2.13 9.13-3.32 9.13-4.25 8.46-4.76 7.77V0H-7.79V11.54H-4.76V10.04C-4.01 10.92-2.6 11.83-.717 11.83 1.82 11.83 3.04 10.39 3.04 8.15V0Z" />
<path transform="matrix(1,0,0,-1,1824.53,84.69)" d="M0 0C2.37 0 3.8-1.03 4.56-2.1L2.58-3.94C2.03-3.15 1.19-2.7 .143-2.7-1.7-2.7-2.99-4.04-2.99-6.05-2.99-8.05-1.7-9.41 .143-9.41 1.19-9.41 2.03-8.94 2.58-8.17L4.56-10.01C3.8-11.09 2.37-12.12 0-12.12-3.56-12.12-6.12-9.61-6.12-6.05-6.12-2.51-3.56 0 0 0" />
<path transform="matrix(1,0,0,-1,1833.47,89.66)" d="M0 0H5.69C5.62 1.1 4.85 2.56 2.84 2.56 .956 2.56 .144 1.15 0 0M2.84 4.97C6.29 4.97 8.63 2.39 8.63-1.39V-2.06H.047C.239-3.51 1.41-4.73 3.37-4.73 4.45-4.73 5.71-4.3 6.45-3.58L7.79-5.54C6.62-6.62 4.83-7.14 3.04-7.14-.478-7.14-3.13-4.78-3.13-1.07-3.13 2.27-.669 4.97 2.84 4.97" />
<path transform="matrix(1,0,0,-1,1712.53,106.11)" d="M0 0H-3.56V-4.4H0C1.36-4.4 2.39-3.54 2.39-2.2 2.39-.86 1.36 0 0 0M2.06-13.02-1.07-7.31H-3.56V-13.02H-6.95V2.92H.502C3.82 2.92 5.86 .741 5.86-2.22 5.86-5.04 4.09-6.55 2.37-6.95L5.95-13.02Z" />
<path transform="matrix(1,0,0,-1,1722.55,112.27)" d="M0 0H5.69C5.62 1.1 4.85 2.56 2.84 2.56 .956 2.56 .144 1.15 0 0M2.84 4.97C6.29 4.97 8.63 2.39 8.63-1.39V-2.06H.047C.239-3.51 1.41-4.73 3.37-4.73 4.45-4.73 5.71-4.3 6.45-3.58L7.79-5.54C6.62-6.62 4.83-7.14 3.04-7.14-.478-7.14-3.13-4.78-3.13-1.07-3.13 2.27-.669 4.97 2.84 4.97" />
<path transform="matrix(1,0,0,-1,1736.36,119.13)" d="M0 0-4.64 11.54H-1.39L1.62 3.51 4.64 11.54H7.91L3.27 0Z" />
<path transform="matrix(1,0,0,-1,0,1080)" d="M1745.63 972.41H1748.67V960.87H1745.63ZM1745.32 975.92C1745.32 976.93 1746.16 977.74 1747.14 977.74 1748.14 977.74 1748.96 976.93 1748.96 975.92 1748.96 974.92 1748.14 974.11 1747.14 974.11 1746.16 974.11 1745.32 974.92 1745.32 975.92" />
<path transform="matrix(1,0,0,-1,1754.07,112.27)" d="M0 0H5.69C5.62 1.1 4.85 2.56 2.84 2.56 .956 2.56 .144 1.15 0 0M2.84 4.97C6.29 4.97 8.63 2.39 8.63-1.39V-2.06H.047C.239-3.51 1.41-4.73 3.37-4.73 4.45-4.73 5.71-4.3 6.45-3.58L7.79-5.54C6.62-6.62 4.83-7.14 3.04-7.14-.478-7.14-3.13-4.78-3.13-1.07-3.13 2.27-.669 4.97 2.84 4.97" />
<path transform="matrix(1,0,0,-1,1775.03,119.13)" d="M0 0-2.44 7.86-4.88 0H-8.12L-11.64 11.54H-8.48L-6.33 3.78-3.8 11.54H-1.1L1.43 3.78 3.58 11.54H6.74L3.23 0Z" />
<path transform="matrix(1,0,0,-1,1789.01,119.13)" d="M0 0V2.68C6.52 7.48 8.44 9.13 8.44 11.09 8.44 12.47 7.17 13.17 5.83 13.17 4.04 13.17 2.65 12.45 1.58 11.33L-.358 13.57C1.2 15.37 3.56 16.18 5.78 16.18 9.18 16.18 11.88 14.27 11.88 11.09 11.88 8.36 9.63 6 5.35 2.99H12V0Z" />
<path transform="matrix(1,0,0,-1,1809.64,105.96)" d="M0 0C-2.29 0-3.15-2.27-3.15-5.21-3.15-8.15-2.29-10.44 0-10.44 2.27-10.44 3.13-8.15 3.13-5.21 3.13-2.27 2.27 0 0 0M0 3.01C4.54 3.01 6.6-1.1 6.6-5.21 6.6-9.32 4.54-13.45 0-13.45-4.56-13.45-6.6-9.32-6.6-5.21-6.6-1.1-4.56 3.01 0 3.01" />
<path transform="matrix(1,0,0,-1,1818.17,119.13)" d="M0 0V2.68C6.52 7.48 8.44 9.13 8.44 11.09 8.44 12.47 7.17 13.17 5.83 13.17 4.04 13.17 2.65 12.45 1.58 11.33L-.359 13.57C1.2 15.37 3.56 16.18 5.78 16.18 9.18 16.18 11.88 14.27 11.88 11.09 11.88 8.36 9.63 6 5.35 2.99H12V0Z" />
<path transform="matrix(1,0,0,-1,1834.42,114.73)" d="M0 0C1.1-1.12 2.58-1.72 4.25-1.72 6.14-1.72 7.22-.645 7.22 .669 7.22 2.13 6.17 3.11 4.35 3.11 3.04 3.11 1.96 2.7 1 1.79L-1.36 2.44V11.54H9.58V8.63H1.96V4.64C2.8 5.38 4.09 5.95 5.54 5.95 8.24 5.95 10.66 4.04 10.66 .812 10.66-2.56 8.12-4.68 4.28-4.68 1.5-4.68-.502-3.78-1.86-2.29Z" />
<path transform="matrix(1,0,0,-1,0,1080)" d="M1943.77-14.26H-12.85V1087.65H1943.77Z" fill="#f2f2f2" />
<g opacity=".960007">
<g clip-path="url(#clip_7)">
<path transform="matrix(1,0,0,-1,0,1080)" d="M1715.65 502.87H257.89V658.86H1715.65Z" fill="#eaeae9" />
</g>
</g>
<path transform="matrix(1,0,0,-1,1738.73,734.64)" d="M0 0H-1555.89C-1571.35 0-1583.89 12.54-1583.89 28V295.31C-1583.89 310.77-1571.35 323.31-1555.89 323.31H0C15.46 323.31 28 310.77 28 295.31V28C28 12.54 15.46 0 0 0" fill="#ffffff" />
<path transform="matrix(1,0,0,-1,549.51,577.82)" d="M0 0H-350.13C-361.18 0-370.13 8.95-370.13 20V130.04C-370.13 141.09-361.18 150.04-350.13 150.04H0C11.05 150.04 20 141.09 20 130.04V20C20 8.95 11.05 0 0 0" fill="#ff5533" />
<path transform="matrix(1,0,0,-1,1134.92,576.65)" d="M0 0H-350.13C-361.18 0-370.13 8.95-370.13 20V128.56C-370.13 139.6-361.18 148.56-350.13 148.56H0C11.05 148.56 20 139.6 20 128.56V20C20 8.95 11.05 0 0 0" fill="#3333ff" />
<path transform="matrix(1,0,0,-1,1721.42,576.65)" d="M0 0H-350.13C-361.18 0-370.13 8.95-370.13 20V128.56C-370.13 139.6-361.18 148.56-350.13 148.56H0C11.05 148.56 20 139.6 20 128.56V20C20 8.95 11.05 0 0 0" fill="#97e342" />
</g>
<text fill="#ffffff" xml:space="preserve" transform="matrix(1 0 -0 .996192 0 1080)" font-size="65.55322" font-family="ProximaNova-Extrabld"><tspan y="-552.8748" x="203.56467 244.07656 284.98179 335.52333 352.30494 413.66276 462.2377 503.864 801.8689 841.6597 882.56497 933.10647 949.88809 998.463 1047.3657">80% WHAT20% HOW</tspan></text>
<text fill="#1a1a1a" xml:space="preserve" transform="matrix(1 0 -0 .996192 0 1080)" font-size="65.55322" font-family="ProximaNova-Extrabld"><tspan y="-552.0882" x="1421.15 1464.4807 1506.107 1544.7179 1563.8594 1612.3688">RATING</tspan></text>
<text fill="#333333" xml:space="preserve" transform="matrix(1 0 -0 .9961916 0 1080)" font-size="105.43293" font-family="CNYKTJ+Poppins-SemiBold" font-weight="bold"><tspan y="-541.8732" x="628.9665">+</tspan></text>
<text fill="#333333" xml:space="preserve" transform="matrix(.99494728 0 -0 1.01 0 1080)" font-size="106.37428" font-family="CNYKTJ+Poppins-SemiBold" font-weight="bold"><tspan y="-535.4886" x="1218.1315">=</tspan></text>
<text fill="#333333" xml:space="preserve" transform="matrix(1 0 -0 .99619367 0 1080)" font-size="19.665957" font-family="ProximaNova-Medium"><tspan y="-460.2901" x="178.6942 196.62957 209.55797 220.11858 231.3085 236.57898 248.0757 258.73466 264.00514 275.47236 286.04673 292.26118 297.53166 309.06773 320.1298 331.60295 341.5539 346.82438 356.78715 367.9161 374.13056 379.40104 390.83088 401.9677 412.62666 417.89714 429.38203 433.95829">-Bạn đã đạt được kết quả gì?</tspan><tspan y="-434.0754" x="178.69422 196.62957 208.14398 219.27097 225.48542 230.75589 242.18379 253.32257 263.98155 269.252 280.7704 292.21595 297.48646 303.72843 314.31465 325.76023 331.0307 342.48808 347.13908 357.798 363.06849 369.28294 376.0441 380.8229 386.09339 397.57829 402.35713 407.6276 417.42515 428.52857 439.97416 445.24464 451.1641 462.24784 472.77503 489.09779 494.36827 500.5827">-Kết quả đó tạo giá trị gì cho team / </tspan><tspan y="-407.8607" x="196.62957 208.09482 219.28476 224.55524 235.05686 246.2468 251.51729 257.73173 263.0022 274.74473 285.8363 297.01249 302.17283 313.77769 319.78565 330.94407 342.40934 347.04069 357.5423">dự án / Sun.Studio?</tspan></text>
<text fill="#333333" xml:space="preserve" transform="matrix(1 0 -0 .9961917 0 1080)" font-size="26.22126" font-family="ProximaNova-Bold" font-weight="bold"><tspan y="-455.91889" x="764.2667 782.0736 796.3327 811.777 818.75186 825.4383 839.6764 862.2791 869.25399 882.9415 889.57546 904.2778 917.6244 924.59927 939.9125 946.8873 969.2619 984.55416 997.90078 1004.8757 1020.11288 1035.426 1042.4009 1057.6328 1071.8762 1087.1893 1094.1642 1106.7346 1122.0477">Bạn làm việc ở mức độ nào so </tspan><tspan y="-429.69764" x="764.2667 777.4797 792.7063 799.60256 806.5774 813.26388 827.55709 840.749 855.37 862.26626 869.2411 884.4494 891.08346 905.6939 921.13827 928.11318 937.1909 951.4291 958.147">với level hiện tại?</tspan></text>
<text fill="#333333" xml:space="preserve" transform="matrix(1 0 -0 .99619367 0 1080)" font-size="19.665957" font-family="ProximaNova-Medium"><tspan y="-403.47529" x="764.2682 782.20358 794.9432 806.13308 811.4035 816.2354 826.20608 831.4765 841.101 852.47189 863.5989 875.14279 880.4132 890.4468 895.1115 906.3211 916.2721 921.54257 933.04318 944.13479 955.30307 965.254 970.5245 976.7644 987.325 998.8689 1004.13937 1015.49649 1026.5468 1037.7367 1043.0072 1054.5039 1064.9978 1075.3381">-Xử lý công việc phức tạp đến đâu?</tspan><tspan y="-377.26057" x="764.2682 782.20358 792.4476 802.97476 819.2975 824.56796 834.6015 839.26626 850.4758 860.4268 865.69729 871.73867 882.9286 888.19906 897.9986 909.0902 920.2801 925.55056 936.6343 946.95498 956.9256 962.19607 972.1628 982.72348 993.9134 999.18386 1010.2577 1021.3198 1026.0043 1037.1195 1048.3095 1053.58 1064.6716 1075.7338 1087.1793 1098.3084 1109.8523 1115.1228 1126.6255 1137.186 1147.4694">-Làm việc tự chủ hay cần nhiều hướng dẫn?</tspan></text>
<text fill="#ff5533" xml:space="preserve" transform="matrix(1 0 -0 .99619206 0 1080)" font-size="72.27522" font-family="ProximaNova-Extrabld"><tspan y="-842.9747" x="621.4895 653.7965 673.31088 720.57888 763.149 805.7191 824.22158 879.58438 930.3216 980.69747 999.1999 1049.2144 1099.9517 1150.3274 1168.83 1217.977 1268.3528 1321.8364">1.KẾT QUẢ CỦA BẠN </tspan><tspan y="-757.6176" x="507.7283 561.93478 615.34609 670.7089 720.7234 739.2258 791.11947 841.4953 894.97897 948.5349 967.03738 1019.29238 1040.3966 1090.7725 1109.275 1151.845 1205.4009 1247.971 1266.4735 1319.9572 1368.0202 1421.4315">ĐƯỢC ĐÁNH GIÁ THẾ NÀO?</tspan></text>
<text xml:space="preserve" transform="matrix(1 0 -0 1 0 1080)" font-size="20" font-family="ProximaNova-Semibold" font-weight="bold"><tspan y="-75" x="75.0957 89.99171 101.67171 113.493709 125.173709 137.19371 142.33371 154.14972 168.62973 183.25774 188.47772 200.31974 211.62775 226.10776 240.36176 245.57576">©2026 SUN.STUDIO</tspan></text>
<text xml:space="preserve" transform="matrix(1 0 -0 1 0 1080)" font-size="20" font-family="ProximaNova-Regular"><tspan y="-75" x="260.8757 266.0357 279.29173 289.27375 299.47377 304.63377 316.82978 321.60978 336.0478 350.14979 361.37178 373.09178 378.25178 390.41178 401.79179 413.55778 424.93778 436.88978 450.14579 461.5258"> ALL RIGHTS RESERVED</tspan></text>
<text xml:space="preserve" transform="matrix(1 0 -0 1 0 1080)" font-size="20" font-family="ProximaNova-Semibold" font-weight="bold"><tspan y="-75" x="1832.9758">6</tspan></text>
<g clip-path="url(#clip_8)">
<path transform="matrix(1,0,0,-1,1653.11,110.28)" d="M0 0V-8.33C0-8.69 .31-8.98 .693-8.98H8.02C8.4-8.98 8.71-8.69 8.71-8.33V2.58C8.71 3.08 8.29 3.22 7.94 3.06 5.5 2 2.59 1.18 .644 .697 .26 .601 0 .32 0 0" />
<path transform="matrix(1,0,0,-1,1673.5,108.26)" d="M0 0C-.828-.775-2.05-1.72-3.5-1.72-4.89-1.72-5.96-.4-6.6 .4-6.81 .66-7.37 .498-7.37 .046V-10.34C-7.37-10.71-7.06-11-6.67-11H.655C1.04-11 1.35-10.71 1.35-10.34V.163C1.35 .669 .844 .812 .577 .576 .391 .412 .156 .146 0 0" />
<path transform="matrix(1,0,0,-1,1686.96,87.35)" d="M0 0C-1.73-3.26-4.65-6.98-7.4-9.16-7.66-9.37-7.81-9.73-7.81-10.03V-31.25C-7.81-31.65-7.5-31.91-7.12-31.91H.214C.597-31.91 .907-31.66 .907-31.25V-.178C.902 .301 .232 .438 0 0" />
<path transform="matrix(1,0,0,-1,1677.26,86.19)" d="M0 0C-1.83 .073-3.25 1.61-3.17 3.44-3.1 5.27-1.56 6.69 .265 6.62 2.09 6.54 3.51 5 3.44 3.18 3.37 1.35 1.83-.073 0 0M6.35 11.04C.214 10.99-6.8 7.28-11.02 2.96-14.49 2.96-20.89 1.97-23.19-.92-23.67-1.52-23.48-2.32-22.78-2.63-22.12-2.92-18.26-3.8-18.11-3.98-18.47-4.71-18.46-5.05-17.99-5.7-17.94-5.78-17.88-5.85-17.82-5.93-17.62-5.91-17.41-5.89-17.2-5.89H-17.11C-14.76-5.92-12.7-7.28-11.72-9.44-11.19-10.61-11.05-11.87-11.27-13.06-11.03-13.34-10.8-13.62-10.58-13.91-10.11-14.42-9.57-14.3-8.99-14.1-8.57-15.55-8.58-17.56-8.07-18.94-7.8-19.68-7.01-19.85-6.36-19.46-5.98-19.23-5.03-18.07-4.73-17.66-2.64-14.85-1.74-11.21-1.38-7.77 3.37-4.06 7.8 2.59 8.47 8.7 8.7 10.8 8.47 11.06 6.35 11.04" fill="#ff5533" />
<path transform="matrix(1,0,0,-1,1660.13,93.54)" d="M0 0C-3.46 .045-4.62-3.22-5.72-5.88-6.17-6.96-7.09-9.07-7.26-10.13-7.34-10.62-7.15-11.06-6.74-11.31-6.22-11.62-5.83-11.39-5.29-11.26-3.22-10.76 2.1-9.13 3.42-7.58 5.91-4.66 3.87-.05 0 0" fill="#ff5533" />
<path transform="matrix(1,0,0,-1,1712.58,83.5)" d="M0 0H-3.61V-4.4H0C1.34-4.4 2.34-3.54 2.34-2.2 2.34-.884 1.34 0 0 0M-7-13.02V2.92H.454C3.92 2.92 5.81 .573 5.81-2.22 5.81-5 3.9-7.31 .454-7.31H-3.61V-13.02Z" />
<path transform="matrix(1,0,0,-1,1722.4,89.66)" d="M0 0H5.69C5.62 1.1 4.85 2.56 2.84 2.56 .956 2.56 .143 1.15 0 0M2.84 4.97C6.29 4.97 8.63 2.39 8.63-1.39V-2.06H.047C.239-3.51 1.41-4.73 3.37-4.73 4.45-4.73 5.71-4.3 6.45-3.58L7.79-5.54C6.62-6.62 4.83-7.14 3.04-7.14-.478-7.14-3.13-4.78-3.13-1.07-3.13 2.27-.669 4.97 2.84 4.97" />
<path transform="matrix(1,0,0,-1,1733.23,96.52)" d="M0 0V11.54H3.04V9.96C3.85 10.99 5.28 11.8 6.71 11.8V8.84C6.5 8.89 6.21 8.91 5.88 8.91 4.88 8.91 3.54 8.36 3.04 7.62V0Z" />
<path transform="matrix(1,0,0,-1,1745.56,87.63)" d="M0 0V-8.89H-3.06V0H-4.97V2.65H-3.06V3.27C-3.06 5.78-1.43 7.29 .836 7.29 1.7 7.29 2.48 7.1 3.04 6.81L2.41 4.66C2.15 4.83 1.79 4.9 1.43 4.9 .573 4.9 0 4.33 0 3.23V2.65H2.34V0Z" />
<path transform="matrix(1,0,0,-1,1757.97,90.74)" d="M0 0C0 1.79-1.07 3.35-2.96 3.35-4.85 3.35-5.9 1.79-5.9 0-5.9-1.82-4.85-3.37-2.96-3.37-1.07-3.37 0-1.82 0 0M-9.06 0C-9.06 3.27-6.76 6.05-2.96 6.05 .86 6.05 3.15 3.27 3.15 0 3.15-3.3 .86-6.07-2.96-6.07-6.76-6.07-9.06-3.3-9.06 0" />
<path transform="matrix(1,0,0,-1,1763.37,96.52)" d="M0 0V11.54H3.04V9.96C3.85 10.99 5.28 11.8 6.71 11.8V8.84C6.5 8.89 6.21 8.91 5.88 8.91 4.88 8.91 3.54 8.36 3.04 7.62V0Z" />
<path transform="matrix(1,0,0,-1,1786.29,96.52)" d="M0 0V7.29C0 8.36-.478 9.13-1.72 9.13-2.8 9.13-3.68 8.41-4.11 7.79V0H-7.17V7.29C-7.17 8.36-7.65 9.13-8.89 9.13-9.94 9.13-10.82 8.41-11.28 7.77V0H-14.31V11.54H-11.28V10.04C-10.8 10.73-9.27 11.83-7.5 11.83-5.81 11.83-4.73 11.04-4.3 9.73-3.63 10.78-2.1 11.83-.335 11.83 1.79 11.83 3.06 10.71 3.06 8.34V0Z" />
<path transform="matrix(1,0,0,-1,1799.27,92.32)" d="M0 0C-.501 .669-1.46 1-2.44 1-3.63 1-4.61 .358-4.61-.741-4.61-1.82-3.63-2.44-2.44-2.44-1.46-2.44-.501-2.1 0-1.43ZM0-4.21V-3.01C-.788-3.94-2.15-4.49-3.66-4.49-5.5-4.49-7.67-3.25-7.67-.669-7.67 2.03-5.5 3.01-3.66 3.01-2.13 3.01-.764 2.53 0 1.6V3.2C0 4.37-1 5.14-2.53 5.14-3.78 5.14-4.92 4.68-5.9 3.78L-7.05 5.81C-5.64 7.05-3.82 7.62-2.01 7.62 .622 7.62 3.04 6.57 3.04 3.25V-4.21Z" />
<path transform="matrix(1,0,0,-1,1813.1,96.52)" d="M0 0V6.98C0 8.58-.836 9.13-2.13 9.13-3.32 9.13-4.25 8.46-4.76 7.77V0H-7.79V11.54H-4.76V10.04C-4.01 10.92-2.6 11.83-.717 11.83 1.82 11.83 3.04 10.39 3.04 8.15V0Z" />
<path transform="matrix(1,0,0,-1,1824.53,84.69)" d="M0 0C2.37 0 3.8-1.03 4.56-2.1L2.58-3.94C2.03-3.15 1.19-2.7 .143-2.7-1.7-2.7-2.99-4.04-2.99-6.05-2.99-8.05-1.7-9.41 .143-9.41 1.19-9.41 2.03-8.94 2.58-8.17L4.56-10.01C3.8-11.09 2.37-12.12 0-12.12-3.56-12.12-6.12-9.61-6.12-6.05-6.12-2.51-3.56 0 0 0" />
<path transform="matrix(1,0,0,-1,1833.47,89.66)" d="M0 0H5.69C5.62 1.1 4.85 2.56 2.84 2.56 .956 2.56 .144 1.15 0 0M2.84 4.97C6.29 4.97 8.63 2.39 8.63-1.39V-2.06H.047C.239-3.51 1.41-4.73 3.37-4.73 4.45-4.73 5.71-4.3 6.45-3.58L7.79-5.54C6.62-6.62 4.83-7.14 3.04-7.14-.478-7.14-3.13-4.78-3.13-1.07-3.13 2.27-.669 4.97 2.84 4.97" />
<path transform="matrix(1,0,0,-1,1712.53,106.11)" d="M0 0H-3.56V-4.4H0C1.36-4.4 2.39-3.54 2.39-2.2 2.39-.86 1.36 0 0 0M2.06-13.02-1.07-7.31H-3.56V-13.02H-6.95V2.92H.502C3.82 2.92 5.86 .741 5.86-2.22 5.86-5.04 4.09-6.55 2.37-6.95L5.95-13.02Z" />
<path transform="matrix(1,0,0,-1,1722.55,112.27)" d="M0 0H5.69C5.62 1.1 4.85 2.56 2.84 2.56 .956 2.56 .144 1.15 0 0M2.84 4.97C6.29 4.97 8.63 2.39 8.63-1.39V-2.06H.047C.239-3.51 1.41-4.73 3.37-4.73 4.45-4.73 5.71-4.3 6.45-3.58L7.79-5.54C6.62-6.62 4.83-7.14 3.04-7.14-.478-7.14-3.13-4.78-3.13-1.07-3.13 2.27-.669 4.97 2.84 4.97" />
<path transform="matrix(1,0,0,-1,1736.36,119.13)" d="M0 0-4.64 11.54H-1.39L1.62 3.51 4.64 11.54H7.91L3.27 0Z" />
<path transform="matrix(1,0,0,-1,0,1080)" d="M1745.63 972.41H1748.67V960.87H1745.63ZM1745.32 975.92C1745.32 976.93 1746.16 977.74 1747.14 977.74 1748.14 977.74 1748.96 976.93 1748.96 975.92 1748.96 974.92 1748.14 974.11 1747.14 974.11 1746.16 974.11 1745.32 974.92 1745.32 975.92" />
<path transform="matrix(1,0,0,-1,1754.07,112.27)" d="M0 0H5.69C5.62 1.1 4.85 2.56 2.84 2.56 .956 2.56 .144 1.15 0 0M2.84 4.97C6.29 4.97 8.63 2.39 8.63-1.39V-2.06H.047C.239-3.51 1.41-4.73 3.37-4.73 4.45-4.73 5.71-4.3 6.45-3.58L7.79-5.54C6.62-6.62 4.83-7.14 3.04-7.14-.478-7.14-3.13-4.78-3.13-1.07-3.13 2.27-.669 4.97 2.84 4.97" />
<path transform="matrix(1,0,0,-1,1775.03,119.13)" d="M0 0-2.44 7.86-4.88 0H-8.12L-11.64 11.54H-8.48L-6.33 3.78-3.8 11.54H-1.1L1.43 3.78 3.58 11.54H6.74L3.23 0Z" />
<path transform="matrix(1,0,0,-1,1789.01,119.13)" d="M0 0V2.68C6.52 7.48 8.44 9.13 8.44 11.09 8.44 12.47 7.17 13.17 5.83 13.17 4.04 13.17 2.65 12.45 1.58 11.33L-.358 13.57C1.2 15.37 3.56 16.18 5.78 16.18 9.18 16.18 11.88 14.27 11.88 11.09 11.88 8.36 9.63 6 5.35 2.99H12V0Z" />
<path transform="matrix(1,0,0,-1,1809.64,105.96)" d="M0 0C-2.29 0-3.15-2.27-3.15-5.21-3.15-8.15-2.29-10.44 0-10.44 2.27-10.44 3.13-8.15 3.13-5.21 3.13-2.27 2.27 0 0 0M0 3.01C4.54 3.01 6.6-1.1 6.6-5.21 6.6-9.32 4.54-13.45 0-13.45-4.56-13.45-6.6-9.32-6.6-5.21-6.6-1.1-4.56 3.01 0 3.01" />
<path transform="matrix(1,0,0,-1,1818.17,119.13)" d="M0 0V2.68C6.52 7.48 8.44 9.13 8.44 11.09 8.44 12.47 7.17 13.17 5.83 13.17 4.04 13.17 2.65 12.45 1.58 11.33L-.359 13.57C1.2 15.37 3.56 16.18 5.78 16.18 9.18 16.18 11.88 14.27 11.88 11.09 11.88 8.36 9.63 6 5.35 2.99H12V0Z" />
<path transform="matrix(1,0,0,-1,1834.42,114.73)" d="M0 0C1.1-1.12 2.58-1.72 4.25-1.72 6.14-1.72 7.22-.645 7.22 .669 7.22 2.13 6.17 3.11 4.35 3.11 3.04 3.11 1.96 2.7 1 1.79L-1.36 2.44V11.54H9.58V8.63H1.96V4.64C2.8 5.38 4.09 5.95 5.54 5.95 8.24 5.95 10.66 4.04 10.66 .812 10.66-2.56 8.12-4.68 4.28-4.68 1.5-4.68-.502-3.78-1.86-2.29Z" />
<path transform="matrix(1,0,0,-1,98.34,96.89)" d="M0 0C.288 7.21 6.36 12.82 13.56 12.53 15.48 12.46 17.28 11.97 18.89 11.17 23.33 8.94 26.3 4.26 26.08-1.03 25.8-8.24 19.72-13.85 12.52-13.57 7.91-13.38 3.95-10.82 1.77-7.12 .554-5.03-.104-2.59 0 0M28.7-13.49C30.3-11.56 31.52-9.33 32.3-6.95 32.89-5.17 33.22-3.3 33.3-1.42 33.67 7.85 27.76 15.91 19.37 18.66 17.62 19.23 15.78 19.57 13.85 19.65 13.43 19.67-2.25 19.66-9.08 19.65-9.99 19.65-10.42 18.6-9.9 17.95-9.85 17.89-4.87 14.13-4.81 14.06-4.31 13.41-4.75 12.39-5.65 12.38L-22.29 12.38C-22.79 12.38-23.15 12.06-23.28 11.67-23.41 11.28-23.32 10.81-22.93 10.51L-9.7 .398C-8.9-.211-9.34-1.49-10.35-1.47-11.11-1.47-16.36-1.45-16.46-1.48-17.2-1.66-17.51-2.67-16.95-3.27-7.3-13.79 .69-18.76 8.14-20.3 12.11-21.29 16.37-21.05 20.2-19.6 23.36-18.44 26.02-16.53 28.09-14.2 28.3-13.97 28.5-13.73 28.7-13.49" fill="#ff5533" />
<path transform="matrix(1,0,0,-1,111.73,95.37)" d="M0 0C.049 1.34 1.18 2.39 2.52 2.34 3.86 2.3 4.91 1.17 4.86-.176 4.81-1.52 3.69-2.57 2.34-2.52 .999-2.47-.049-1.34 0 0M7.25-2.06C7.42 2.09 4.2 5.58 .053 5.74-4.09 5.91-7.58 2.68-7.75-1.46-7.91-5.61-4.69-9.1-.547-9.26 3.6-9.43 7.09-6.2 7.25-2.06" fill="#ff5533" />
<path transform="matrix(1,0,0,-1,144.34,84)" d="M0 0C-1.95 .369-3.03 .685-3.03 1.61-3.03 2.37-2.45 2.98-.948 2.98 .605 2.98 2.53 2.37 4 1.16L6.48 4.4C4.61 6 2.16 6.84-.658 6.84-5.16 6.84-7.66 4.29-7.66 1.34-7.66-2.82-3.61-3.55-.711-4.13 1.16-4.53 2.29-4.92 2.29-5.92 2.29-6.77 1.34-7.42-.21-7.42-2.61-7.42-4.55-6.37-5.82-5.11L-8.21-8.5C-6.45-10.19-3.98-11.29-.421-11.29 4.29-11.29 6.9-8.95 6.9-5.42 6.9-1.45 2.9-.605 0 0" fill="#ff5533" />
<path transform="matrix(1,0,0,-1,160.91,95.36)" d="M0 0C5.66 0 8.17 4.02 8.17 8.39V17.88H3.49V7.9C3.49 5.82 2.4 4 0 4-2.43 4-3.52 5.82-3.52 7.9V17.88H-8.2V8.36C-8.2 4.04-5.66 0 0 0" fill="#ff5533" />
<path transform="matrix(1,0,0,-1,180.62,117.41)" d="M0 0C5.66 0 8.17 4.02 8.17 8.39V17.88H3.49V7.9C3.49 5.82 2.4 4 0 4-2.43 4-3.52 5.82-3.52 7.9V17.88H-8.2V8.36C-8.2 4.04-5.66 0 0 0" fill="#ff5533" />
<path transform="matrix(1,0,0,-1,177.1,84.49)" d="M0 0 7.67-10.7H11.69V7.01H7.02V-3.19L-.284 7.01H-4.68V-10.7H0Z" fill="#ff5533" />
<path transform="matrix(1,0,0,-1,144.34,106.21)" d="M0 0C-1.95 .368-3.03 .685-3.03 1.61-3.03 2.37-2.45 2.98-.948 2.98 .605 2.98 2.53 2.37 4 1.16L6.48 4.4C4.61 6 2.16 6.84-.658 6.84-5.16 6.84-7.66 4.29-7.66 1.34-7.66-2.82-3.61-3.55-.711-4.13 1.16-4.53 2.29-4.92 2.29-5.92 2.29-6.77 1.34-7.42-.21-7.42-2.61-7.42-4.55-6.37-5.82-5.11L-8.21-8.5C-6.45-10.19-3.98-11.29-.421-11.29 4.29-11.29 6.9-8.95 6.9-5.42 6.9-1.45 2.9-.605 0 0" fill="#ff5533" />
<path transform="matrix(1,0,0,-1,152.71,103.54)" d="M0 0H6.01V-13.7H10.69V0H16.37V4.01H0Z" fill="#ff5533" />
<path transform="matrix(1,0,0,-1,199.33,113.23)" d="M0 0H-2.85V9.69H.026C3.25 9.69 4.88 7.58 4.88 4.86 4.88 2.24 3.09 0 0 0M-.095 13.7H-7.53V-4.01H-.069C5.48-4.01 9.49-.637 9.49 4.86 9.49 10.35 5.48 13.7-.095 13.7" fill="#ff5533" />
<path transform="matrix(1,0,0,-1,0,1080)" d="M211.51 962.76H216.19V980.46H211.51Z" fill="#ff5533" />
<path transform="matrix(1,0,0,-1,194.27,95.27)" d="M0 0C1.4 0 2.53 1.13 2.53 2.53 2.53 3.93 1.4 5.06 0 5.06-1.4 5.06-2.53 3.93-2.53 2.53-2.53 1.13-1.4 0 0 0" fill="#ff5533" />
<path transform="matrix(1,0,0,-1,227.84,113.26)" d="M0 0C-2.68 0-4.86 2.17-4.86 4.86-4.86 7.54-2.68 9.71 0 9.71 2.68 9.71 4.85 7.54 4.85 4.86 4.85 2.17 2.68 0 0 0M0 13.96C-5.03 13.96-9.11 9.88-9.11 4.86-9.11-.174-5.03-4.25 0-4.25 5.03-4.25 9.11-.174 9.11 4.86 9.11 9.88 5.03 13.96 0 13.96" fill="#ff5533" />
</g>
<text fill="#3333ff" xml:space="preserve" transform="matrix(1 0 -0 1 0 1080)" font-size="24" font-family="ProximaNova-Bold" font-weight="bold"><tspan y="-266.5088" x="783.7876 801.6196 819.83566">HOW</tspan></text>
<text fill="#4d4d4d" xml:space="preserve" transform="matrix(1 0 -0 1 0 1080)" font-size="24" font-family="ProximaNova-Bold" font-weight="bold"><tspan y="-266.5088" x="842.1076 848.4916 860.4388 874.42117 888.43716 894.8211 908.95956 915.0507 928.50039 936.85238 943.2363 957.4083 970.4763 984.6123 990.9963 1002.7539 1016.7699 1023.1539 1031.5371 1045.5364 1059.0484"> cho biết bạn có thể </tspan><tspan y="-237.70879" x="783.7876 792.1684 806.15078 819.1995 833.1195 847.2795 853.66348 865.4211 879.31228 893.31149 907.5915 913.97549 928.19308 941.5827 955.7187 962.10269 974.65469 988.86508 1002.86428 1017.1443 1023.52828 1037.5106 1050.257 1062.809 1069.193 1082.1937 1096.1762 1110.0674 1124.0665">thành công bền vững hay không</tspan></text>
<text fill="#ff5533" xml:space="preserve" transform="matrix(1 0 -0 .9997418 0 1080)" font-size="24.006199" font-family="ProximaNova-Bold" font-weight="bold"><tspan y="-262.59223" x="205.99948 228.22443 246.03224 260.82005">WHAT</tspan></text>
<text fill="#4d4d4d" xml:space="preserve" transform="matrix(1 0 -0 .9997418 0 1080)" font-size="24.006199" font-family="ProximaNova-Bold" font-weight="bold"><tspan y="-262.59223" x="275.04133 281.42698 293.37727 307.36326 321.38288 327.76853 341.9106 348.00337 361.45643 369.8106 376.19624 390.3719 403.4433 417.58296"> cho biết bạn </tspan><tspan y="-233.78479" x="205.99948 220.12473 233.1937 241.54787 247.9335 262.08998 275.14698 289.1666 295.55226 309.47584 323.42344 329.497 342.83006 356.9697 363.35536 374.88075 388.90037 395.286 407.3995 421.35673 427.67036 434.056 454.55729 468.57929 480.79847 487.1841 495.51908 501.59266 514.9257">đạt bao nhiêu so với mục tiêu</tspan></text>
<g clip-path="url(#clip_9)">
<path transform="matrix(1,0,0,-1,543.3,885.21)" stroke-width="1" stroke-linecap="butt" stroke-miterlimit="10" stroke-linejoin="miter" fill="none" stroke="#ff5533" d="M0 0H-337.04C-351.88 0-363.92 12.04-363.92 26.88V89.49C-363.92 104.34-351.88 116.38-337.04 116.38H0C14.85 116.38 26.88 104.34 26.88 89.49V26.88C26.88 12.04 14.85 0 0 0Z" />
<path transform="matrix(1,0,0,-1,1128.04,885.21)" stroke-width="1" stroke-linecap="butt" stroke-miterlimit="10" stroke-linejoin="miter" fill="none" stroke="#3333ff" d="M0 0H-334.58C-349.43 0-361.46 12.04-361.46 26.88V89.49C-361.46 104.34-349.43 116.38-334.58 116.38H0C14.85 116.38 26.88 104.34 26.88 89.49V26.88C26.88 12.04 14.85 0 0 0Z" />
<g ns1:groupmode="layer" ns1:label="Layer 31">
</g>
<g ns1:groupmode="layer" ns1:label="8">
</g>
<g ns1:groupmode="layer" ns1:label="Page 5">
</g>
<g ns1:groupmode="layer" ns1:label="Page 3">
</g>
<g ns1:groupmode="layer" ns1:label="Page 2">
</g>
<g ns1:groupmode="layer" ns1:label="Page 1">
</g>
</g>
</g>
<g ns1:groupmode="layer" ns1:label="bleed">
</g>
<g ns1:groupmode="layer" ns1:label="Layer 8">
</g>
</g>
</svg>