<?xml version='1.0' encoding='utf-8'?>
<svg xmlns="http://www.w3.org/2000/svg" xmlns:ns1="http://www.inkscape.org/namespaces/inkscape" version="1.1" width="960" height="540" viewBox="0 0 960 540">
<defs>
<clipPath id="clip_1">
<path transform="matrix(1,0,0,-1,0,540)" d="M0 540H960V0H0Z" />
</clipPath>
<clipPath id="clip_2">
<path transform="matrix(1,0,0,-1,0,540)" d="M0 540H960V0H0Z" />
</clipPath>
</defs>
<g>
<g ns1:groupmode="layer" ns1:label="Layer 1">
<g clip-path="url(#clip_1)">
<path transform="matrix(1,0,0,-1,718.65,30)" d="M0 0V0C0 4.74 3.84 8.58 8.58 8.58H104.14C108.88 8.58 112.72 4.74 112.72 0 112.72-4.74 108.88-8.58 104.14-8.58H8.58C3.84-8.58 0-4.74 0 0" fill="#ff5533" />
</g>
<text fill="#ffffff" xml:space="preserve" transform="matrix(1 0 -0 1 0 540)" font-size="10" font-family="VWYXZX+Arial-BoldMT" font-weight="bold"><tspan y="-506.4185" x="725.7217 732.32669 736.2426 742.39266 745.2946 750.9456 756.6856 760.01559 762.79556 769.4005 773.3705 779.0375 784.6385 790.2655 796.44656 799.9415 805.58157 809.0735 811.9335 818.1235">Project Presentation</tspan></text>
<text fill="#ff5533" xml:space="preserve" transform="matrix(1 0 -0 1 0 540)" font-size="10" font-family="AGLBRN+ArialMT"><tspan y="-506.4185" x="849.2317 855.95169 861.56869 866.65469 871.67166 873.9587 879.56869 885.1307 887.9107 894.07968 896.31069 899.3257 902.1827 904.4407">Session Tittle</tspan></text>
<text xml:space="preserve" transform="matrix(1 0 -0 1 0 540)" font-size="10" font-family="AGLBRN+ArialMT"><tspan y="-24.998505" x="898.64169 904.44168">04</tspan></text>
<text xml:space="preserve" transform="matrix(1 0 -0 1 0 540)" font-size="10" font-family="ProximaNova-Bold" font-weight="bold"><tspan y="-25.428505" x="50.001649 57.53565 63.57165 69.671649 75.68365 81.76365 84.323657 90.38365 97.78665 105.26065 108.06765 114.12765 119.90264 127.30565 134.59566 137.43666">©2025 SUN.STUDIO</tspan></text>
<text xml:space="preserve" transform="matrix(1 0 -0 1 0 540)" font-size="10" font-family="ProximaNova-Regular"><tspan y="-25.428505" x="145.08165 147.66165 154.39765 156.70764 158.95764 161.53765 164.91664 167.22664 173.03664 178.65464 181.87264 186.52265 189.10265 192.38665 198.07665 202.77065 208.47064 212.19765 217.06066 222.77967"> All rights reserved</tspan></text>
<text xml:space="preserve" transform="matrix(1 0 -0 1 0 540)" font-size="20" font-family="AGLBRN+ArialMT"><tspan y="-475.6802" x="50 63.256 67.454 71.806 82.745998 93.868 99.42799 113.782 118.021999 123.49999 134.622 140.18199 144.422 160.916 171.836 182.836">Slide with image</tspan></text>
<text xml:space="preserve" transform="matrix(1 0 -0 1 0 540)" font-size="10" font-family="AGLBRN+ArialMT"><tspan y="-458.9783" x="50 55.888 61.479 67.039 70.369 73.149 77.947 83.342998 88.342998 91.12299 94.024997 99.58499 104.384998 109.97399 115.47599 122.63899 128.04 133.028 138.005">Your key takeaways.</tspan><tspan y="-422.0583" x="50 55.535 61.152 64.5 70.089 78.419 81.199 83.427 89.011 93.997 99.549999 107.88 110.659999 116.25099 121.86899 124.14199 129.759 133.089 135.869 140.88501 143.11602 145.89601 148.67601 154.23601 162.60701 168.1 170.942 173.722 176.502 181.686 187.299 192.859 197.888 203.499 208.61899 211.34899 216.84299 219.63498 225.19498 228.52498">Lorem ipsum dolor sit amet, consectetur </tspan><tspan y="-409.0583" x="50 55.56 61.102 63.332 68.92 71.177 76.196 81.32 83.55 89.136 94.696 97.476 103.08299 105.29399 107.524997 110.36499 113.14499 115.92499 122.637989 128.25098 133.81098 136.59098 141.61898 147.23197 152.79196 155.57196 158.30297 163.90996 166.12996 168.34996 173.90996 178.90996 181.68996 186.72196 192.33495 197.89495 200.67494 202.90395 208.44295 213.55095 219.11095 224.11095">adipiscing elit. Sed sed tellus sed lacus </tspan><tspan y="-396.0583" x="50 58.355005 64.095 69.157 71.386 79.716 85.276 90.276 93.056 98.244 103.857 109.417 114.446 120.057 125.177 127.907 133.4 136.193 141.75299 144.486 147.26599 150.04599 156.706 162.29399 167.87799 173.467 179.03499 184.59499 187.37499 192.94899 195.159 197.437 202.991 208.56 214.12799 222.458 225.23799 227.967 233.575 235.795 238.015 243.575 248.575">maximus consectetur. Aenean aliquam tellus </tspan><tspan y="-383.0583" x="50 55.594 58.976 64.493007 67.334 70.114 72.894 78.384998 81.16499 83.94499 92.296 97.869998 100.127 105.744998 110.730998 116.299999 121.85999 127.41999 132.98 135.76 137.99199 143.57698 148.56198 154.11498 162.44498 165.22498 170.33098 175.89098 179.35198 184.33797 189.89797 194.89797 197.67797 199.95996 205.44097 208.22097 211.00096 217.79196 220.04596 224.94396 230.51296 238.84296 244.40296 249.40296">erat, et malesuada ipsum cursus id. Vivamus </tspan><tspan y="-370.0583" x="50 55.574 57.784006 60.062005 65.616008 71.200008 76.693 79.473 82.253 87.843997 91.216999 96.828998 101.828998 104.60899 109.480998 115.08899 117.30899 120.08899 122.833988 128.45099 132.18099 134.92499 140.54299 143.87299 146.65299 151.83899 157.45198 163.03798 168.61698 174.19498 179.75498 182.53498 188.03897 191.17897 194.22298 196.48097 201.60497 203.83496 206.62796 212.18796 215.51796 218.29796 223.17195 228.77895 230.99895 233.77895 238.65294 244.26094 246.48094">aliquet eros vel tortor congue efficitur vel vel </tspan><tspan y="-357.0583" x="50 52.210004 54.440004 60.049005 65.643 69.016 74.438999 77.218997 79.99899 86.48399 89.32599 91.56899 97.13799 105.467998 108.24799 110.467998 116.037998 121.158 123.95 129.51 134.51 137.29 145.635 147.855 150.635 155.652 157.883 160.663 163.443 169.00299 177.374 182.868 185.648 188.428 196.77899 202.30599 207.86598 211.36199 213.61899 218.61899 221.39899 229.75199 235.49198 240.55397 242.78397 251.11397 256.67399 261.67399">libero. Etiam luctus mi sit amet mauris maximus </tspan><tspan y="-344.0583" x="50 52.816999 58.344999 63.914999 69.038997 71.268 76.837 82.396999 87.37599 90.15599 92.93599 101.370998 106.92399 112.53499 117.707988 123.29598 128.86399 134.42398 139.42398 142.20398 145.02098 150.56098 155.68497 157.92397 160.13497 162.39197 167.40897 169.66597 174.66597 177.44597 182.98297 187.98297 190.76297 196.33797 201.89797 205.40796 210.96796 215.96796 218.74796 224.33095 229.89095 232.67095 238.29795 243.91594 247.64594 250.54993 256.08393">faucibus. Maecenas facilisis ac purus eu porta.</tspan><tspan y="-321.0583" x="50 56.690004 62.250005 67.262 72.876 78.464 84.05299 89.593997 91.85 96.936 101.964 107.523998 110.30399 115.411998 120.97199 124.43299 129.41799 134.97798 139.97798 142.75798 147.94599 153.55898 158.96398 163.86298 169.43598 171.65598 173.86898 176.12497 181.12497 183.90497 189.49196 195.05196 197.28296 205.57297 208.35297 211.13297 216.62397 219.40396">Suspendisse cursus convallis enim, et </tspan><tspan y="-308.0583" x="50 55.019 60.192 65.798999 68.057 73.655 77.149 79.40501 84.44001 89.99501 95.57901 101.13901 103.91901 109.468 115.012 117.232 120.012 125.636 131.244 136.86101 141.841 144.745 150.305 155.305 158.08499 163.11299 168.72699 174.208 176.98799 179.76799 187.04999 192.60999 194.82999 197.06299 202.62299 205.40299 210.97899 216.53899 218.77999 223.82299 226.05298 231.62198 237.19197 239.91898 242.69898 245.47898 247.73297 253.35198 258.912">scelerisque dui egestas sed. Nulla pulvinar, leo </tspan><tspan y="-295.0583" x="50 54.874 60.481004 62.701005 65.481 71.065 73.295009 78.903 84.492 90.079998 95.62999 101.178989 109.50899 112.28899 117.89098 121.23898 126.73298 129.57399 131.80899 137.361 145.651 148.431 151.211 153.938 159.546 161.766 163.98601 169.546 174.546 177.326 179.558 185.097 190.206 195.76599 200.76599 203.54599 208.65299 214.21298 217.67398 222.65998 228.21997 233.21997 235.99997 241.59297 244.97498 250.49297 253.33397 256.11399">vel bibendum pretium, tellus lacus cursus erat, </tspan><tspan y="-282.0583" x="50 55.623 61.231004 66.725 69.505 72.284999 77.884998 80.113 85.653 90.826 96.41899 99.801998 105.31899 108.09899 110.87899 116.43899 119.93599 125.50299 131.06299 133.84299 139.38799 144.94799 147.16799 149.39998 154.95998 157.73998 163.25698 166.03697 168.81697 171.04398 176.62798 181.61397 187.16696 195.45597">eget placerat urna nulla at ipsum.</tspan></text>
<g clip-path="url(#clip_2)">
<path transform="matrix(1,0,0,-1,604.76,262.36)" d="M0 0H-244.76C-253.04 0-259.76 6.72-259.76 15V197.6C-259.76 205.88-253.04 212.6-244.76 212.6H0C8.28 212.6 15 205.88 15 197.6V15C15 6.72 8.28 0 0 0" fill="#bfbfbf" />
<path transform="matrix(1,0,0,-1,894.52,262.36)" d="M0 0H-244.76C-253.04 0-259.76 6.72-259.76 15V197.6C-259.76 205.88-253.04 212.6-244.76 212.6H0C8.28 212.6 15 205.88 15 197.6V15C15 6.72 8.28 0 0 0" fill="#bfbfbf" />
<path transform="matrix(1,0,0,-1,604.76,489.96)" d="M0 0H-244.76C-253.04 0-259.76 6.72-259.76 15V197.6C-259.76 205.88-253.04 212.6-244.76 212.6H0C8.28 212.6 15 205.88 15 197.6V15C15 6.72 8.28 0 0 0" fill="#bfbfbf" />
<path transform="matrix(1,0,0,-1,894.52,489.96)" d="M0 0H-244.76C-253.04 0-259.76 6.72-259.76 15V197.6C-259.76 205.88-253.04 212.6-244.76 212.6H0C8.28 212.6 15 205.88 15 197.6V15C15 6.72 8.28 0 0 0" fill="#bfbfbf" />
<path transform="matrix(1,0,0,-1,82.7,489.96)" d="M0 0C-18.03 0-32.7 14.67-32.7 32.7-32.7 50.72-18.03 65.39 0 65.39 18.03 65.39 32.7 50.72 32.7 32.7 32.7 14.67 18.03 0 0 0" fill="#ffd0c9" />
<path transform="matrix(1,0,0,-1,82.7,486.62)" d="M0 0C-16.2 0-29.36 13.16-29.36 29.36-29.36 45.56-16.2 58.73 0 58.73 16.2 58.73 29.36 45.56 29.36 29.36 29.36 13.16 16.2 0 0 0" fill="#ffa797" />
<path transform="matrix(1,0,0,-1,82.7,483.29)" d="M0 0C-14.37 0-26.03 11.66-26.03 26.03-26.03 40.4-14.37 52.06 0 52.06 14.37 52.06 26.03 40.4 26.03 26.03 26.03 11.66 14.37 0 0 0" fill="#ff7e65" />
<path transform="matrix(1,0,0,-1,105.39,457.26)" d="M0 0C0-12.53-10.16-22.7-22.7-22.7-35.23-22.7-45.39-12.53-45.39 0-45.39 12.53-35.23 22.7-22.7 22.7-10.16 22.7 0 12.53 0 0" fill="#ff5533" />
<path transform="matrix(1,0,0,-1,72.85,447.41)" stroke-width="3" stroke-linecap="butt" stroke-linejoin="round" fill="none" stroke="#ffffff" d="M0 0H19.7V-19.7" />
<path transform="matrix(1,0,0,-1,72.85,467.11)" stroke-width="3" stroke-linecap="butt" stroke-linejoin="round" fill="none" stroke="#ffffff" d="M0 0 19.7 19.7" />
</g>
</g>
</g>
</svg>