<?xml version='1.0' encoding='utf-8'?>
<svg xmlns="http://www.w3.org/2000/svg" xmlns:ns1="http://www.inkscape.org/namespaces/inkscape" version="1.1" width="1920" height="1080" viewBox="0 0 1920 1080">
<defs>
<clipPath id="clip_1">
<path transform="matrix(1,0,0,-1,0,1080)" d="M0 1080H1920V0H0Z" />
</clipPath>
<clipPath id="clip_2">
<path transform="matrix(1,0,0,-1,0,1080)" d="M0 1080H1920V0H0Z" />
</clipPath>
<clipPath id="clip_3">
<path transform="matrix(1,0,0,-1,0,1080)" d="M0 1080H1920V0H0Z" />
</clipPath>
</defs>
<g>
<g ns1:groupmode="layer" ns1:label="Layer 1">
<g clip-path="url(#clip_1)">
<path transform="matrix(1,0,0,-1,1823.4202,75)" d="M0 0H-173.985C-185.501 0-194.836-9.335-194.836-20.85-194.836-32.366-185.501-41.701-173.985-41.701H0C11.515-41.701 20.85-32.366 20.85-20.85 20.85-9.335 11.515 0 0 0M0-1C10.946-1 19.85-9.905 19.85-20.85 19.85-31.796 10.946-40.701 0-40.701H-173.985C-184.931-40.701-193.836-31.796-193.836-20.85-193.836-9.905-184.931-1-173.985-1Z" fill="#444454" />
</g>
<g clip-path="url(#clip_2)">
<path transform="matrix(1,0,0,-1,1764.3102,349.76429)" d="M0 0V-425.499C0-451.599-21.158-472.757-47.258-472.757-81.276-472.757-108.853-500.334-108.853-534.352-108.853-560.452-130.011-581.61-156.111-581.61H-725.779C-752.283-581.61-773.769-560.124-773.769-533.62V0C-773.769 26.504-752.283 47.989-725.779 47.989H-47.99C-21.486 47.989 0 26.504 0 0" fill="#fff083" />
<path transform="matrix(1,0,0,-1,1764.3102,349.76429)" stroke-width="2" stroke-linecap="butt" stroke-miterlimit="10" stroke-linejoin="miter" fill="none" stroke="#000000" d="M0 0V-425.499C0-451.599-21.158-472.757-47.258-472.757-81.276-472.757-108.853-500.334-108.853-534.352-108.853-560.452-130.011-581.61-156.111-581.61H-725.779C-752.283-581.61-773.769-560.124-773.769-533.62V0C-773.769 26.504-752.283 47.989-725.779 47.989H-47.99C-21.486 47.989 0 26.504 0 0Z" />
<path transform="matrix(1,0,0,-1,1669.7999,884.1191)" stroke-width="3" stroke-linecap="butt" stroke-miterlimit="10" stroke-linejoin="miter" fill="none" stroke="#000000" d="M0 0C0 26.098 21.157 47.255 47.255 47.255 73.353 47.255 94.51 26.098 94.51 0 94.51-26.098 73.353-47.255 47.255-47.255 21.157-47.255 0-26.098 0 0Z" />
<path transform="matrix(1,0,0,-1,1697.0772,864.2264)" stroke-width="3" stroke-linecap="round" stroke-linejoin="round" fill="none" stroke="#000000" d="M0 0H39.8V-39.8" />
<path transform="matrix(1,0,0,-1,1697.0772,904.0263)" stroke-width="3" stroke-linecap="round" stroke-linejoin="round" fill="none" stroke="#000000" d="M0 0 39.8 39.8" />
</g>
<g clip-path="url(#clip_3)">
<path transform="matrix(1,0,0,-1,931.6144,349.76429)" d="M0 0V-425.499C0-451.599-21.158-472.757-47.258-472.757-81.276-472.757-108.853-500.334-108.853-534.352-108.853-560.452-130.011-581.61-156.111-581.61H-725.779C-752.283-581.61-773.769-560.124-773.769-533.62V0C-773.769 26.504-752.283 47.989-725.779 47.989H-47.989C-21.486 47.989 0 26.504 0 0" fill="#fff083" />
<path transform="matrix(1,0,0,-1,931.6144,349.76429)" stroke-width="2" stroke-linecap="butt" stroke-miterlimit="10" stroke-linejoin="miter" fill="none" stroke="#000000" d="M0 0V-425.499C0-451.599-21.158-472.757-47.258-472.757-81.276-472.757-108.853-500.334-108.853-534.352-108.853-560.452-130.011-581.61-156.111-581.61H-725.779C-752.283-581.61-773.769-560.124-773.769-533.62V0C-773.769 26.504-752.283 47.989-725.779 47.989H-47.989C-21.486 47.989 0 26.504 0 0Z" />
<path transform="matrix(1,0,0,-1,837.1042,884.1191)" stroke-width="3" stroke-linecap="butt" stroke-miterlimit="10" stroke-linejoin="miter" fill="none" stroke="#000000" d="M0 0C0 26.098 21.157 47.255 47.255 47.255 73.353 47.255 94.51 26.098 94.51 0 94.51-26.098 73.353-47.255 47.255-47.255 21.157-47.255 0-26.098 0 0Z" />
<path transform="matrix(1,0,0,-1,864.3815,864.2264)" stroke-width="3" stroke-linecap="round" stroke-linejoin="round" fill="none" stroke="#000000" d="M0 0H39.8V-39.8" />
<path transform="matrix(1,0,0,-1,864.3815,904.0263)" stroke-width="3" stroke-linecap="round" stroke-linejoin="round" fill="none" stroke="#000000" d="M0 0 39.8 39.8" />
</g>
</g>
<g ns1:groupmode="layer" ns1:label="Layer 2">
</g>
</g>
</svg>