<?xml version='1.0' encoding='utf-8'?>
<svg xmlns="http://www.w3.org/2000/svg" xmlns:ns1="http://www.inkscape.org/namespaces/inkscape" version="1.1" width="960" height="540" viewBox="0 0 960 540">
<defs>
<clipPath id="clip_1">
<path transform="matrix(1,0,0,-1,0,540)" d="M0 540H960V0H0Z" />
</clipPath>
<clipPath id="clip_2">
<path transform="matrix(1,0,0,-1,0,540)" d="M1980 1800H1020V2340H1980Z" />
</clipPath>
<clipPath id="clip_3">
<path transform="matrix(1,0,0,-1,0,540)" d="M-174.72 395.28H2376.97V2946.97H-174.72Z" />
</clipPath>
<clipPath id="clip_4">
<path transform="matrix(1,0,0,-1,0,540)" d="M1101.12 395.28C1272.89 395.28 1440.09 429.16 1598.07 495.97 1750.12 560.29 1886.46 652.14 2003.29 768.97 2120.12 885.79 2211.96 1022.13 2276.28 1174.19 2343.09 1332.16 2376.97 1499.35 2376.97 1671.12 2376.97 1842.89 2343.09 2010.09 2276.28 2168.07 2211.96 2320.13 2120.11 2456.47 2003.27 2573.3 1886.44 2690.12 1750.11 2781.96 1598.07 2846.27 1440.09 2913.09 1272.9 2946.97 1101.12 2946.97 929.36 2946.97 762.16 2913.09 604.18 2846.27 452.13 2781.96 315.8 2690.12 198.97 2573.29 82.14 2456.46-9.71 2320.12-74.03 2168.06-140.84 2010.1-174.72 1842.9-174.72 1671.12-174.72 1499.36-140.84 1332.16-74.03 1174.18-9.71 1022.13 82.14 885.79 198.96 768.97 315.81 652.13 452.14 560.28 604.2 495.97 762.15 429.16 929.35 395.28 1101.12 395.28" />
</clipPath>
<clipPath id="clip_5">
<path transform="matrix(1,0,0,-1,0,540)" d="M960 1800H0V2340H960Z" />
</clipPath>
<clipPath id="clip_6">
<path transform="matrix(1,0,0,-1,0,540)" d="M-1194.72 395.28H1356.97V2946.97H-1194.72Z" />
</clipPath>
<clipPath id="clip_7">
<path transform="matrix(1,0,0,-1,0,540)" d="M81.13 395.28C252.89 395.28 420.08 429.16 578.07 495.97 730.12 560.29 866.46 652.14 983.29 768.97 1100.12 885.79 1191.96 1022.13 1256.28 1174.19 1323.09 1332.16 1356.97 1499.35 1356.97 1671.12 1356.97 1842.89 1323.09 2010.09 1256.28 2168.07 1191.96 2320.13 1100.11 2456.47 983.27 2573.3 866.45 2690.12 730.11 2781.96 578.07 2846.27 420.09 2913.09 252.9 2946.97 81.13 2946.97-90.64 2946.97-257.84 2913.09-415.82 2846.27-567.87 2781.96-704.2 2690.12-821.03 2573.29-937.87 2456.46-1029.71 2320.12-1094.03 2168.06-1160.84 2010.1-1194.72 1842.9-1194.72 1671.12-1194.72 1499.36-1160.84 1332.16-1094.03 1174.18-1029.71 1022.13-937.86 885.79-821.04 768.97-704.2 652.13-567.86 560.28-415.8 495.97-257.85 429.16-90.65 395.28 81.13 395.28" />
</clipPath>
<clipPath id="clip_8">
<path transform="matrix(1,0,0,-1,0,540)" d="M0 540H960V0H0Z" />
</clipPath>
<clipPath id="clip_9">
<path transform="matrix(1,0,0,-1,0,540)" d="M960 1200H0V1740H960Z" />
</clipPath>
<clipPath id="clip_10">
<path transform="matrix(1,0,0,-1,0,540)" d="M81.13-204.72C252.89-204.72 420.08-170.84 578.07-104.03 730.12-39.71 866.46 52.14 983.29 168.97 1100.12 285.8 1191.96 422.13 1256.28 574.19 1323.09 732.16 1356.97 899.35 1356.97 1071.12 1356.97 1242.89 1323.09 1410.09 1256.28 1568.07 1191.96 1720.13 1100.11 1856.47 983.27 1973.3 866.45 2090.12 730.11 2181.96 578.07 2246.27 420.09 2313.09 252.9 2346.97 81.13 2346.97-90.64 2346.97-257.84 2313.09-415.82 2246.27-567.87 2181.96-704.2 2090.12-821.03 1973.29-937.87 1856.46-1029.71 1720.12-1094.03 1568.06-1160.84 1410.1-1194.72 1242.9-1194.72 1071.12-1194.72 899.36-1160.84 732.16-1094.03 574.18-1029.71 422.13-937.86 285.79-821.04 168.97-704.2 52.13-567.86-39.72-415.8-104.03-257.85-170.84-90.65-204.72 81.13-204.72" />
</clipPath>
<clipPath id="clip_11">
<path transform="matrix(1,0,0,-1,0,540)" d="M0 540H960V0H0Z" />
</clipPath>
<clipPath id="clip_12">
<path transform="matrix(1,0,0,-1,0,540)" d="M960 1200H0V1740H960Z" />
</clipPath>
<clipPath id="clip_13">
<path transform="matrix(1,0,0,-1,0,540)" d="M81.12 2184.78C-68.99 2184.78-214.96 2155.13-352.65 2096.89-485.38 2040.74-604.42 1960.52-706.34 1858.6-808.26 1756.68-888.49 1637.64-944.64 1504.9-1002.88 1367.22-1032.53 1221.24-1032.53 1071.12-1032.53 921.01-1002.88 775.04-944.64 637.35-888.49 504.61-808.26 385.57-706.35 283.66-604.42 181.73-485.38 101.5-352.64 45.36-214.97-12.88-69-42.53 81.12-42.53 231.23-42.53 377.2-12.88 514.89 45.36 647.64 101.5 766.68 181.74 868.6 283.65 970.51 385.57 1050.74 504.61 1106.89 637.36 1165.13 775.04 1194.78 921.01 1194.78 1071.12 1194.78 1221.24 1165.13 1367.21 1106.89 1504.9 1050.74 1637.64 970.51 1756.69 868.59 1858.6 766.67 1960.52 647.63 2040.74 514.9 2096.89 377.21 2155.13 231.24 2184.78 81.12 2184.78" />
</clipPath>
<clipPath id="clip_14">
<path transform="matrix(1,0,0,-1,0,540)" d="M0 540H960V0H0Z" />
</clipPath>
<clipPath id="clip_15">
<path transform="matrix(1,0,0,-1,0,540)" d="M960 1200H0V1740H960Z" />
</clipPath>
<clipPath id="clip_16">
<path transform="matrix(1,0,0,-1,0,540)" d="M81.12 2022.58C-47.33 2022.58-172.08 1997.17-289.48 1947.51-402.9 1899.53-504.64 1830.92-591.65 1743.92-678.66 1656.91-747.27 1555.16-795.26 1441.73-844.92 1324.34-870.33 1199.59-870.33 1071.12-870.33 942.67-844.92 817.92-795.26 700.52-747.28 587.1-678.67 485.35-591.67 398.35-504.65 311.34-402.9 242.72-289.47 194.74-172.09 145.08-47.34 119.67 81.12 119.67 209.58 119.67 334.32 145.08 451.72 194.74 565.15 242.72 666.9 311.33 753.9 398.34 840.91 485.34 909.53 587.1 957.51 700.53 1007.17 817.92 1032.58 942.66 1032.58 1071.12 1032.58 1199.58 1007.17 1324.33 957.51 1441.72 909.53 1555.15 840.91 1656.9 753.91 1743.91 666.9 1830.91 565.15 1899.53 451.73 1947.51 334.33 1997.17 209.58 2022.58 81.12 2022.58" />
</clipPath>
<clipPath id="clip_17">
<path transform="matrix(1,0,0,-1,0,540)" d="M0 540H960V0H0Z" />
</clipPath>
<clipPath id="clip_18">
<path transform="matrix(1,0,0,-1,0,540)" d="M960 1200H0V1740H960Z" />
</clipPath>
<clipPath id="clip_19">
<path transform="matrix(1,0,0,-1,0,540)" d="M81.12 1860.39C-25.68 1860.39-129.2 1839.21-226.31 1798.12-320.41 1758.31-404.86 1701.32-476.96 1629.23-549.06 1557.13-606.06 1472.68-645.87 1378.56-686.96 1281.45-708.14 1177.93-708.14 1071.12-708.14 964.33-686.96 860.8-645.88 763.7-606.06 669.59-549.07 585.13-476.98 513.04-404.88 440.94-320.42 383.94-226.3 344.12-129.2 303.04-25.68 281.86 81.12 281.86 187.92 281.86 291.44 303.04 388.55 344.12 482.66 383.94 567.12 440.93 639.21 513.02 711.31 585.12 768.31 669.58 808.12 763.69 849.21 860.8 870.39 964.32 870.39 1071.12 870.39 1177.92 849.21 1281.45 808.12 1378.56 768.31 1472.67 711.32 1557.12 639.22 1629.21 567.13 1701.31 482.67 1758.31 388.56 1798.12 291.45 1839.2 187.93 1860.39 81.12 1860.39" />
</clipPath>
<clipPath id="clip_20">
<path transform="matrix(1,0,0,-1,0,540)" d="M0 540H960V0H0Z" />
</clipPath>
<clipPath id="clip_21">
<path transform="matrix(1,0,0,-1,0,540)" d="M960 1200H0V1740H960Z" />
</clipPath>
<clipPath id="clip_22">
<path transform="matrix(1,0,0,-1,0,540)" d="M81.12 1698.19C-4.02 1698.19-86.32 1681.24-163.14 1648.74-237.93 1617.1-305.08 1571.72-362.26 1514.55-419.45 1457.36-464.84 1390.19-496.49 1315.39-528.99 1238.58-545.95 1156.27-545.95 1071.12-545.95 985.98-528.99 903.68-496.49 826.87-464.85 752.07-419.47 684.92-362.3 627.74-305.11 570.54-237.94 525.16-163.14 493.51-86.32 461.01-4.02 444.06 81.12 444.06 166.27 444.06 248.56 461 325.38 493.51 400.18 525.15 467.34 570.53 524.52 627.71 581.71 684.89 627.09 752.06 658.74 826.86 691.24 903.68 708.19 985.98 708.19 1071.12 708.19 1156.27 691.24 1238.57 658.74 1315.38 627.1 1390.18 581.72 1457.34 524.54 1514.52 467.35 1571.71 400.19 1617.09 325.39 1648.74 248.57 1681.24 166.27 1698.19 81.12 1698.19" />
</clipPath>
<clipPath id="clip_23">
<path transform="matrix(1,0,0,-1,0,540)" d="M0 540H960V0H0Z" />
</clipPath>
<clipPath id="clip_24">
<path transform="matrix(1,0,0,-1,0,540)" d="M960 1200H0V1740H960Z" />
</clipPath>
<clipPath id="clip_25">
<path transform="matrix(1,0,0,-1,0,540)" d="M-1194.72-204.72H1356.97V2346.97H-1194.72Z" />
</clipPath>
<clipPath id="clip_26">
<path transform="matrix(1,0,0,-1,0,540)" d="M81.13-204.72C252.89-204.72 420.08-170.84 578.07-104.03 730.12-39.71 866.46 52.14 983.29 168.97 1100.12 285.8 1191.96 422.13 1256.28 574.19 1323.09 732.16 1356.97 899.35 1356.97 1071.12 1356.97 1242.89 1323.09 1410.09 1256.28 1568.07 1191.96 1720.13 1100.11 1856.47 983.27 1973.3 866.45 2090.12 730.11 2181.96 578.07 2246.27 420.09 2313.09 252.9 2346.97 81.13 2346.97-90.64 2346.97-257.84 2313.09-415.82 2246.27-567.87 2181.96-704.2 2090.12-821.03 1973.29-937.87 1856.46-1029.71 1720.12-1094.03 1568.06-1160.84 1410.1-1194.72 1242.9-1194.72 1071.12-1194.72 899.36-1160.84 732.16-1094.03 574.18-1029.71 422.13-937.86 285.79-821.04 168.97-704.2 52.13-567.86-39.72-415.8-104.03-257.85-170.84-90.65-204.72 81.13-204.72" />
</clipPath>
<clipPath id="clip_27">
<path transform="matrix(1,0,0,-1,0,540)" d="M81.12 2184.78C-68.99 2184.78-214.96 2155.13-352.65 2096.89-485.38 2040.74-604.42 1960.52-706.34 1858.6-808.26 1756.68-888.49 1637.64-944.64 1504.9-1002.88 1367.22-1032.53 1221.24-1032.53 1071.12-1032.53 921.01-1002.88 775.04-944.64 637.35-888.49 504.61-808.26 385.57-706.35 283.66-604.42 181.73-485.38 101.5-352.64 45.36-214.97-12.88-69-42.53 81.12-42.53 231.23-42.53 377.2-12.88 514.89 45.36 647.64 101.5 766.68 181.74 868.6 283.65 970.51 385.57 1050.74 504.61 1106.89 637.36 1165.13 775.04 1194.78 921.01 1194.78 1071.12 1194.78 1221.24 1165.13 1367.21 1106.89 1504.9 1050.74 1637.64 970.51 1756.69 868.59 1858.6 766.67 1960.52 647.63 2040.74 514.9 2096.89 377.21 2155.13 231.24 2184.78 81.12 2184.78" />
</clipPath>
<clipPath id="clip_28">
<path transform="matrix(1,0,0,-1,0,540)" d="M81.12 2022.58C-47.33 2022.58-172.08 1997.17-289.48 1947.51-402.9 1899.53-504.64 1830.92-591.65 1743.92-678.66 1656.91-747.27 1555.16-795.26 1441.73-844.92 1324.34-870.33 1199.59-870.33 1071.12-870.33 942.67-844.92 817.92-795.26 700.52-747.28 587.1-678.67 485.35-591.67 398.35-504.65 311.34-402.9 242.72-289.47 194.74-172.09 145.08-47.34 119.67 81.12 119.67 209.58 119.67 334.32 145.08 451.72 194.74 565.15 242.72 666.9 311.33 753.9 398.34 840.91 485.34 909.53 587.1 957.51 700.53 1007.17 817.92 1032.58 942.66 1032.58 1071.12 1032.58 1199.58 1007.17 1324.33 957.51 1441.72 909.53 1555.15 840.91 1656.9 753.91 1743.91 666.9 1830.91 565.15 1899.53 451.73 1947.51 334.33 1997.17 209.58 2022.58 81.12 2022.58" />
</clipPath>
<clipPath id="clip_29">
<path transform="matrix(1,0,0,-1,0,540)" d="M81.12 1860.39C-25.68 1860.39-129.2 1839.21-226.31 1798.12-320.41 1758.31-404.86 1701.32-476.96 1629.23-549.06 1557.13-606.06 1472.68-645.87 1378.56-686.96 1281.45-708.14 1177.93-708.14 1071.12-708.14 964.33-686.96 860.8-645.88 763.7-606.06 669.59-549.07 585.13-476.98 513.04-404.88 440.94-320.42 383.94-226.3 344.12-129.2 303.04-25.68 281.86 81.12 281.86 187.92 281.86 291.44 303.04 388.55 344.12 482.66 383.94 567.12 440.93 639.21 513.02 711.31 585.12 768.31 669.58 808.12 763.69 849.21 860.8 870.39 964.32 870.39 1071.12 870.39 1177.92 849.21 1281.45 808.12 1378.56 768.31 1472.67 711.32 1557.12 639.22 1629.21 567.13 1701.31 482.67 1758.31 388.56 1798.12 291.45 1839.2 187.93 1860.39 81.12 1860.39" />
</clipPath>
<clipPath id="clip_30">
<path transform="matrix(1,0,0,-1,0,540)" d="M81.12 1698.19C-4.02 1698.19-86.32 1681.24-163.14 1648.74-237.93 1617.1-305.08 1571.72-362.26 1514.55-419.45 1457.36-464.84 1390.19-496.49 1315.39-528.99 1238.58-545.95 1156.27-545.95 1071.12-545.95 985.98-528.99 903.68-496.49 826.87-464.85 752.07-419.47 684.92-362.3 627.74-305.11 570.54-237.94 525.16-163.14 493.51-86.32 461.01-4.02 444.06 81.12 444.06 166.27 444.06 248.56 461 325.38 493.51 400.18 525.15 467.34 570.53 524.52 627.71 581.71 684.89 627.09 752.06 658.74 826.86 691.24 903.68 708.19 985.98 708.19 1071.12 708.19 1156.27 691.24 1238.57 658.74 1315.38 627.1 1390.18 581.72 1457.34 524.54 1514.52 467.35 1571.71 400.19 1617.09 325.39 1648.74 248.57 1681.24 166.27 1698.19 81.12 1698.19" />
</clipPath>
<clipPath id="clip_31">
<path transform="matrix(1,0,0,-1,0,540)" d="M0 540H960V0H0Z" />
</clipPath>
<clipPath id="clip_32">
<path transform="matrix(1,0,0,-1,0,540)" d="M0 540H960V0H0Z" />
</clipPath>
</defs>
<g>
<g ns1:groupmode="layer" ns1:label="Layer 1">
<g clip-path="url(#clip_1)">
<g clip-path="url(#clip_2)">
<g opacity=".300003">
<g clip-path="url(#clip_3)">
<g clip-path="url(#clip_4)">
</g>
</g>
</g>
</g>
<g clip-path="url(#clip_5)">
<g opacity=".300003">
<g clip-path="url(#clip_6)">
<g clip-path="url(#clip_7)">
</g>
</g>
</g>
</g>
</g>
<g clip-path="url(#clip_8)">
<g clip-path="url(#clip_9)">
<g clip-path="url(#clip_10)">
</g>
</g>
</g>
<g clip-path="url(#clip_11)">
<g clip-path="url(#clip_12)">
<g clip-path="url(#clip_13)">
</g>
</g>
</g>
<g clip-path="url(#clip_14)">
<g clip-path="url(#clip_15)">
<g clip-path="url(#clip_16)">
</g>
</g>
</g>
<g clip-path="url(#clip_17)">
<g clip-path="url(#clip_18)">
<g clip-path="url(#clip_19)">
</g>
</g>
</g>
<g clip-path="url(#clip_20)">
<g clip-path="url(#clip_21)">
<g clip-path="url(#clip_22)">
</g>
</g>
</g>
<g clip-path="url(#clip_23)">
<g clip-path="url(#clip_24)">
<g opacity=".300003" style="mix-blend-mode:color-burn">
<g clip-path="url(#clip_25)">
<g clip-path="url(#clip_26)">
</g>
<g clip-path="url(#clip_27)">
</g>
<g clip-path="url(#clip_28)">
</g>
<g clip-path="url(#clip_29)">
</g>
<g clip-path="url(#clip_30)">
</g>
</g>
</g>
</g>
<path transform="matrix(1,0,0,-1,718.65,30)" d="M0 0V0C0 4.74 3.84 8.58 8.58 8.58H104.14C108.88 8.58 112.72 4.74 112.72 0 112.72-4.74 108.88-8.58 104.14-8.58H8.58C3.84-8.58 0-4.74 0 0" fill="#ff5533" />
</g>
<text fill="#ffffff" xml:space="preserve" transform="matrix(1 0 -0 1 0 540)" font-size="10" font-family="VWYXZX+Arial-BoldMT" font-weight="bold"><tspan y="-506.4185" x="725.7217 732.32669 736.2426 742.39266 745.2946 750.9456 756.6856 760.01559 762.79556 769.4005 773.3705 779.0375 784.6385 790.2655 796.44656 799.9415 805.58157 809.0735 811.9335 818.1235">Project Presentation</tspan></text>
<text fill="#ff5533" xml:space="preserve" transform="matrix(1 0 -0 1 0 540)" font-size="10" font-family="AGLBRN+ArialMT"><tspan y="-506.4185" x="849.2317 855.95169 861.56869 866.65469 871.67166 873.9587 879.56869 885.1307 887.9107 894.07968 896.31069 899.3257 902.1827 904.4407">Session Tittle</tspan></text>
<text xml:space="preserve" transform="matrix(1 0 -0 1 0 540)" font-size="10" font-family="AGLBRN+ArialMT"><tspan y="-24.998505" x="898.64169 904.44168">04</tspan></text>
<text xml:space="preserve" transform="matrix(1 0 -0 1 0 540)" font-size="10" font-family="ProximaNova-Bold" font-weight="bold"><tspan y="-25.428505" x="50.001649 57.53565 63.57165 69.671649 75.68365 81.76365 84.323657 90.38365 97.78665 105.26065 108.06765 114.12765 119.90264 127.30565 134.59566 137.43666">©2025 SUN.STUDIO</tspan></text>
<text xml:space="preserve" transform="matrix(1 0 -0 1 0 540)" font-size="10" font-family="ProximaNova-Regular"><tspan y="-25.428505" x="145.08165 147.66165 154.39765 156.70764 158.95764 161.53765 164.91664 167.22664 173.03664 178.65464 181.87264 186.52265 189.10265 192.38665 198.07665 202.77065 208.47064 212.19765 217.06066 222.77967"> All rights reserved</tspan></text>
<g clip-path="url(#clip_31)">
<path transform="matrix(1,0,0,-1,246.58,212.46)" d="M0 0V-202C0-210.28-6.72-217-15-217H-181.14C-189.42-217-196.14-210.28-196.14-202V38C-196.14 46.29-189.42 53-181.14 53H-53C-44.72 53-38 46.28-38 38-38 25.3-27.7 15-15 15-6.72 15 0 8.28 0 0" fill="#3333ff" />
<path transform="matrix(1,0,0,-1,246.58,174.46)" d="M0 0C0-8.28-6.72-15-15-15-23.28-15-30-8.28-30 0-30 8.28-23.28 15-15 15-6.72 15 0 8.28 0 0" fill="#cbcbff" />
<path transform="matrix(1,0,0,-1,231.58,187.07)" d="M0 0C-6.96 0-12.61 5.65-12.61 12.61-12.61 19.58-6.96 25.23 0 25.23 6.96 25.23 12.61 19.58 12.61 12.61 12.61 5.65 6.96 0 0 0" fill="#9898ff" />
<path transform="matrix(1,0,0,-1,231.58,184.69)" d="M0 0C-5.64 0-10.23 4.58-10.23 10.23-10.23 15.87-5.64 20.46 0 20.46 5.64 20.46 10.23 15.87 10.23 10.23 10.23 4.58 5.64 0 0 0" fill="#6666ff" />
<path transform="matrix(1,0,0,-1,231.58,182.3)" d="M0 0C-4.32 0-7.84 3.52-7.84 7.84-7.84 12.17-4.32 15.68 0 15.68 4.32 15.68 7.84 12.17 7.84 7.84 7.84 3.52 4.32 0 0 0" fill="#3333ff" />
<path transform="matrix(1,0,0,-1,467.72,212.46)" d="M0 0V-202C0-210.28-6.72-217-15-217H-181.14C-189.42-217-196.14-210.28-196.14-202V38C-196.14 46.29-189.42 53-181.14 53H-53C-44.72 53-38 46.28-38 38-38 25.3-27.7 15-15 15-6.72 15 0 8.28 0 0" fill="#ff5533" />
<path transform="matrix(1,0,0,-1,467.72,174.46)" d="M0 0C0-8.28-6.72-15-15-15-23.28-15-30-8.28-30 0-30 8.28-23.28 15-15 15-6.72 15 0 8.28 0 0" fill="#ffd0c9" />
<path transform="matrix(1,0,0,-1,452.72,187.07)" d="M0 0C-6.96 0-12.61 5.65-12.61 12.61-12.61 19.58-6.96 25.23 0 25.23 6.96 25.23 12.61 19.58 12.61 12.61 12.61 5.65 6.96 0 0 0" fill="#ffa797" />
<path transform="matrix(1,0,0,-1,452.72,184.69)" d="M0 0C-5.64 0-10.23 4.58-10.23 10.23-10.23 15.87-5.64 20.46 0 20.46 5.64 20.46 10.23 15.87 10.23 10.23 10.23 4.58 5.64 0 0 0" fill="#ff7e65" />
<path transform="matrix(1,0,0,-1,452.72,182.3)" d="M0 0C-4.32 0-7.84 3.52-7.84 7.84-7.84 12.17-4.32 15.68 0 15.68 4.32 15.68 7.84 12.17 7.84 7.84 7.84 3.52 4.32 0 0 0" fill="#ff5533" />
<path transform="matrix(1,0,0,-1,688.86,212.46)" d="M0 0V-202C0-210.28-6.72-217-15-217H-181.14C-189.42-217-196.14-210.28-196.14-202V38C-196.14 46.29-189.42 53-181.14 53H-53C-44.72 53-38 46.28-38 38-38 25.3-27.7 15-15 15-6.72 15 0 8.28 0 0" fill="#bfff4d" />
<path transform="matrix(1,0,0,-1,688.86,174.46)" d="M0 0C0-8.28-6.72-15-15-15-23.28-15-30-8.28-30 0-30 8.28-23.28 15-15 15-6.72 15 0 8.28 0 0" fill="#f2ffdb" />
<path transform="matrix(1,0,0,-1,673.86,187.07)" d="M0 0C-6.96 0-12.61 5.65-12.61 12.61-12.61 19.58-6.96 25.23 0 25.23 6.96 25.23 12.61 19.58 12.61 12.61 12.61 5.65 6.96 0 0 0" fill="#e1ffac" />
<path transform="matrix(1,0,0,-1,673.86,184.69)" d="M0 0C-5.64 0-10.23 4.58-10.23 10.23-10.23 15.87-5.64 20.46 0 20.46 5.64 20.46 10.23 15.87 10.23 10.23 10.23 4.58 5.64 0 0 0" fill="#d0ff7c" />
<path transform="matrix(1,0,0,-1,673.86,182.3)" d="M0 0C-4.32 0-7.84 3.52-7.84 7.84-7.84 12.17-4.32 15.68 0 15.68 4.32 15.68 7.84 12.17 7.84 7.84 7.84 3.52 4.32 0 0 0" fill="#bfff4d" />
<path transform="matrix(1,0,0,-1,910,212.46)" d="M0 0V-202C0-210.28-6.72-217-15-217H-181.14C-189.42-217-196.14-210.28-196.14-202V38C-196.14 46.29-189.42 53-181.14 53H-53C-44.72 53-38 46.28-38 38-38 25.3-27.7 15-15 15-6.72 15 0 8.28 0 0" fill="#c39aff" />
<path transform="matrix(1,0,0,-1,910,174.46)" d="M0 0C0-8.28-6.72-15-15-15-23.28-15-30-8.28-30 0-30 8.28-23.28 15-15 15-6.72 15 0 8.28 0 0" fill="#f3ebff" />
<path transform="matrix(1,0,0,-1,895,187.07)" d="M0 0C-6.96 0-12.61 5.65-12.61 12.61-12.61 19.58-6.96 25.23 0 25.23 6.96 25.23 12.61 19.58 12.61 12.61 12.61 5.65 6.96 0 0 0" fill="#e3d0ff" />
<path transform="matrix(1,0,0,-1,895,184.69)" d="M0 0C-5.64 0-10.23 4.58-10.23 10.23-10.23 15.87-5.64 20.46 0 20.46 5.64 20.46 10.23 15.87 10.23 10.23 10.23 4.58 5.64 0 0 0" fill="#d3b5ff" />
<path transform="matrix(1,0,0,-1,895,182.3)" d="M0 0C-4.32 0-7.84 3.52-7.84 7.84-7.84 12.17-4.32 15.68 0 15.68 4.32 15.68 7.84 12.17 7.84 7.84 7.84 3.52 4.32 0 0 0" fill="#c39aff" />
<path transform="matrix(1,0,0,-1,96.44,205.46)" d="M0 0C-4.41 0-8 3.59-8 8-8 12.41-4.41 16 0 16 4.41 16 8 12.41 8 8 8 3.59 4.41 0 0 0M0 12C-2.21 12-4 10.21-4 8-4 5.79-2.21 4 0 4 2.21 4 4 5.79 4 8 4 10.21 2.21 12 0 12" fill="#ffffff" />
<path transform="matrix(1,0,0,-1,96.44,227.46)" d="M0 0C-7.73 0-16 2.73-16 6.8-16 14.08-8.82 20 0 20 8.82 20 16 14.08 16 6.8 16 2.73 7.73 0 0 0M-12 7.06C-11.17 6.12-6.74 4 0 4 6.74 4 11.17 6.12 12 7.06 11.81 12.02 6.5 16 0 16-6.5 16-11.81 12.02-12 7.06" fill="#ffffff" />
</g>
<text fill="#ffffff" xml:space="preserve" transform="matrix(1 0 -0 1 0 540)" font-size="20" font-family="AGLBRN+ArialMT"><tspan y="-272.9243" x="80.4419 91.2779 102.2999 108.77989 119.7379 136.3999 141.95992 146.1979 157.14992 166.89992 177.77993 194.43993">Lorem ipsum </tspan></text>
<text fill="#ffffff" xml:space="preserve" transform="matrix(1 0 -0 1 0 540)" font-size="10" font-family="AGLBRN+ArialMT"><tspan y="-245.106" x="80.4419 85.9769 91.593898 94.941898 100.53089 108.86089 111.64089 113.8689 119.452899 124.438899 129.9919 138.3219 141.1019 146.6929 152.3109 154.5839 160.2009 163.5309 166.3109 171.3269 173.5579 176.3379 179.1179 184.6779 193.0489 198.5419 201.3839 204.1639">Lorem ipsum dolor sit amet, </tspan><tspan y="-232.106" x="80.4419 85.629909 91.241909 96.8019 101.8319 107.4429 112.562908 115.2929 120.7859 123.578899 129.1389 132.4689 135.2489 140.8089 146.35089 148.5799 154.1689 156.4249 161.4439 166.5689 168.7979 174.38489 179.94489 182.72489 188.33188 190.54288 192.77288 195.61388 198.39388">consectetur adipiscing elit. </tspan><tspan y="-219.106" x="80.4419 87.1579 92.7719 98.331897 101.11189 106.13889 111.75289 117.31289 120.09289 122.82288 128.42989 130.64989 132.86989 138.42989 143.42989 146.20989 151.24188 156.85488 162.41487 165.19487 167.42388 172.96288 178.07088 183.63088 188.63088">Sed sed tellus sed lacus </tspan><tspan y="-206.106" x="80.4419 88.796909 94.5369 99.5989 101.8279 110.157909 115.7179 120.7179 123.4979 128.6859 134.29889 139.85889 144.8879 150.49889 155.61888 158.34888 163.84188 166.63488 172.19487 174.92787 177.70787 180.48787 187.14788 192.73587 198.31987 203.90888 209.47687 215.03687">maximus consectetur. Aenean </tspan><tspan y="-193.106" x="80.4419 86.0159 88.2259 90.5039 96.0579 101.6269 107.1949 115.5249 118.3049 121.0339 126.64189 128.8619 131.0819 136.64189 141.64189 144.42189 150.01889 153.39989 158.91788 161.75888 164.53888 167.31888 172.80988 175.58988">aliquam tellus erat, et </tspan><tspan y="-180.106" x="80.4419 88.796909 94.3709 96.62791 102.2459 107.2319 112.799907 118.3599 123.9199 129.4799 132.2599 134.4929 140.0769 145.0639 150.6159 158.9459 161.7259 166.83191 172.3919 175.8529 180.8389 186.3989 191.3989 194.1789 196.46089 201.9419 204.7219">malesuada ipsum cursus id. </tspan><tspan y="-167.106" x="80.4419 87.2359 89.490909 94.38891 99.95691 108.28691 113.84691 118.84691 121.62691 127.200908 129.4109 131.6889 137.2429 142.8269 148.3199 151.0999 153.8799 159.4709 162.8439 168.4559 173.4559 176.2359 181.1079 186.7159 188.9359 191.7159 194.46089 200.0779 203.80789 206.5519 212.16989 215.4999">Vivamus aliquet eros vel tortor </tspan><tspan y="-154.106" x="80.4419 85.629909 91.241909 96.8289 102.4069 107.98589 113.54589 116.32589 121.82989 124.96989 128.01389 130.27188 135.39588 137.62688 140.41887 145.97887 149.30887 152.08887 156.96286 162.56986 164.78986 167.56986 172.44385 178.05185 180.27185 183.05185 185.26186 187.49185 193.10085 198.69385 202.06685 207.62685">congue efficitur vel vel libero </tspan><tspan y="-141.106" x="80.4419 86.0259 91.5869 94.3669 99.994899 105.61289 109.342899 112.246898 117.77689">eu porta.</tspan></text>
<text fill="#ffffff" xml:space="preserve" transform="matrix(1 0 -0 1 0 540)" font-size="20" font-family="AGLBRN+ArialMT"><tspan y="-272.9243" x="301.5884 312.4244 323.4464 329.92643 340.88444 357.54646 363.10646 367.34446 378.29646 388.04646 398.92646 415.58647">Lorem ipsum </tspan></text>
<text fill="#ffffff" xml:space="preserve" transform="matrix(1 0 -0 1 0 540)" font-size="10" font-family="AGLBRN+ArialMT"><tspan y="-245.106" x="301.5884 307.1234 312.74043 316.0884 321.6774 330.0074 332.78739 335.01539 340.59938 345.58537 351.13838 359.46836 362.24836 367.83937 373.45738 375.73039 381.34739 384.67738 387.45738 392.47337 394.70436 397.48435 400.26435 405.82435 414.1953 419.68833 422.53034 425.31034">Lorem ipsum dolor sit amet, </tspan><tspan y="-232.106" x="301.5884 306.7764 312.3884 317.9484 322.9784 328.5894 333.70939 336.4394 341.9324 344.7254 350.2854 353.6154 356.3954 361.95539 367.49739 369.72639 375.31538 377.57139 382.5904 387.7154 389.9444 395.5314 401.0914 403.8714 409.4784 411.6894 413.9194 416.7604 419.5404">consectetur adipiscing elit. </tspan><tspan y="-219.106" x="301.5884 308.3044 313.9184 319.4784 322.2584 327.2854 332.89939 338.45939 341.23939 343.9694 349.5764 351.7964 354.0164 359.5764 364.5764 367.35639 372.3884 378.0014 383.5614 386.3414 388.5704 394.1094 399.2174 404.7774 409.7774">Sed sed tellus sed lacus </tspan><tspan y="-206.106" x="301.5884 309.9434 315.68339 320.7454 322.9744 331.30439 336.86439 341.86439 344.64439 349.83238 355.44538 361.00538 366.03437 371.64537 376.76536 379.49537 384.98838 387.78138 393.34138 396.07438 398.85438 401.63438 408.29438 413.8824 419.46638 425.05537 430.62336 436.18336">maximus consectetur. Aenean </tspan><tspan y="-193.106" x="301.5884 307.1624 309.3724 311.65043 317.2044 322.7734 328.3414 336.6714 339.4514 342.1804 347.7884 350.0084 352.2284 357.7884 362.7884 365.5684 371.16539 374.54637 380.06437 382.90538 385.68537 388.46537 393.95637 396.73637">aliquam tellus erat, et </tspan><tspan y="-180.106" x="301.5884 309.9434 315.5174 317.77439 323.3924 328.3784 333.94639 339.50639 345.06639 350.62638 353.40638 355.63938 361.22337 366.21037 371.76237 380.09236 382.87236 387.97834 393.53834 396.99934 401.98533 407.54533 412.54533 415.32533 417.60734 423.08833 425.86833">malesuada ipsum cursus id. </tspan><tspan y="-167.106" x="301.5884 308.38243 310.63743 315.53544 321.10343 329.4334 334.9934 339.9934 342.7734 348.3474 350.5574 352.83543 358.3894 363.9734 369.4664 372.2464 375.0264 380.6174 383.9904 389.6024 394.6024 397.3824 402.2544 407.8624 410.0824 412.8624 415.6074 421.2244 424.95439 427.69837 433.31639 436.64637">Vivamus aliquet eros vel tortor </tspan><tspan y="-154.106" x="301.5884 306.7764 312.3884 317.9754 323.5534 329.13243 334.6924 337.4724 342.9764 346.1164 349.1604 351.4184 356.5424 358.77339 361.56538 367.12538 370.45536 373.23536 378.10935 383.71635 385.93635 388.71635 393.59034 399.19834 401.41835 404.19834 406.40834 408.63835 414.24736 419.84034 423.21333 428.77333">congue efficitur vel vel libero </tspan><tspan y="-141.106" x="301.5884 307.1724 312.7334 315.5134 321.1414 326.7594 330.48939 333.39338 338.92338">eu porta.</tspan></text>
<text xml:space="preserve" transform="matrix(1 0 -0 1 0 540)" font-size="20" font-family="AGLBRN+ArialMT"><tspan y="-272.9243" x="522.7285 533.5645 544.58657 551.0665 562.02456 578.6865 584.2465 588.48458 599.4366 609.1866 620.0666 636.72659">Lorem ipsum </tspan></text>
<text xml:space="preserve" transform="matrix(1 0 -0 1 0 540)" font-size="10" font-family="AGLBRN+ArialMT"><tspan y="-245.106" x="522.7285 528.2635 533.8805 537.2285 542.8175 551.1475 553.92758 556.1555 561.7395 566.7255 572.2785 580.6085 583.38858 588.97958 594.59756 596.8705 602.4875 605.8175 608.59756 613.6135 615.8445 618.6245 621.40457 626.96456 635.3356 640.82858 643.6706 646.4506">Lorem ipsum dolor sit amet, </tspan><tspan y="-232.106" x="522.7285 527.9165 533.5285 539.0885 544.1185 549.72958 554.84957 557.5796 563.0726 565.8656 571.4256 574.7556 577.53567 583.09567 588.63766 590.8666 596.45559 598.71157 603.7305 608.8555 611.0845 616.67147 622.23147 625.0115 630.61849 632.82949 635.05947 637.90048 640.6805">consectetur adipiscing elit. </tspan><tspan y="-219.106" x="522.7285 529.4445 535.05856 540.6185 543.39859 548.42556 554.03958 559.59957 562.3796 565.1096 570.7166 572.9366 575.15658 580.71658 585.71658 588.4966 593.52859 599.14157 604.70156 607.48159 609.7105 615.2495 620.3575 625.9175 630.9175">Sed sed tellus sed lacus </tspan><tspan y="-206.106" x="522.7285 531.08358 536.82357 541.88558 544.1145 552.4445 558.0045 563.0045 565.78457 570.97256 576.5855 582.1455 587.1745 592.7855 597.9055 600.63558 606.12857 608.9216 614.48159 617.2146 619.9946 622.77468 629.43466 635.02267 640.6066 646.1956 651.7636 657.3236">maximus consectetur. Aenean </tspan><tspan y="-193.106" x="522.7285 528.3025 530.51248 532.7904 538.3444 543.9134 549.4814 557.8114 560.59146 563.32046 568.9284 571.1484 573.36837 578.92837 583.92837 586.7084 592.30538 595.6864 601.2044 604.0454 606.82546 609.60549 615.0965 617.8765">aliquam tellus erat, et </tspan><tspan y="-180.106" x="522.7285 531.08358 536.65756 538.9145 544.5325 549.5185 555.0865 560.6465 566.2065 571.7665 574.5465 576.7795 582.36349 587.35049 592.90249 601.2325 604.0125 609.1185 614.6785 618.1395 623.12557 628.68557 633.68557 636.4656 638.74758 644.2286 647.0086">malesuada ipsum cursus id. </tspan><tspan y="-167.106" x="522.7285 529.5225 531.77749 536.6755 542.24349 550.5735 556.1335 561.1335 563.9135 569.4875 571.69747 573.9754 579.5294 585.1134 590.6064 593.3864 596.16647 601.75747 605.1305 610.7425 615.7425 618.5225 623.39456 629.0025 631.2225 634.0025 636.74758 642.36459 646.0946 648.8386 654.4566 657.7866">Vivamus aliquet eros vel tortor </tspan><tspan y="-154.106" x="522.7285 527.9165 533.5285 539.1155 544.6935 550.27249 555.83248 558.6125 564.11648 567.2565 570.3005 572.5585 577.6825 579.91348 582.7055 588.2655 591.5955 594.37557 599.2496 604.85659 607.07656 609.85659 614.7306 620.33859 622.55856 625.33859 627.5485 629.7785 635.3875 640.9805 644.3536 649.9136">congue efficitur vel vel libero </tspan><tspan y="-141.106" x="522.7285 528.31259 533.8736 536.6536 542.2817 547.8997 551.6297 554.5337 560.0637">eu porta.</tspan></text>
<text xml:space="preserve" transform="matrix(1 0 -0 1 0 540)" font-size="20" font-family="AGLBRN+ArialMT"><tspan y="-272.9243" x="743.8687 754.7047 765.72677 772.2067 783.16476 799.8267 805.3867 809.62478 820.5768 830.3268 841.2068 857.86679">Lorem ipsum </tspan></text>
<text xml:space="preserve" transform="matrix(1 0 -0 1 0 540)" font-size="10" font-family="AGLBRN+ArialMT"><tspan y="-245.106" x="743.8687 749.4037 755.0207 758.3687 763.9577 772.2877 775.06777 777.2957 782.8797 787.8657 793.4187 801.7487 804.52877 810.11978 815.73776 818.0107 823.6277 826.9577 829.73776 834.7537 836.9847 839.7647 842.54476 848.10476 856.47579 861.96878 864.8108 867.5908">Lorem ipsum dolor sit amet, </tspan><tspan y="-232.106" x="743.8687 749.0567 754.6687 760.2287 765.2587 770.86978 775.98977 778.7198 784.21279 787.0058 792.5658 795.8958 798.67587 804.23587 809.77786 812.0068 817.59579 819.85177 824.8707 829.9957 832.2247 837.81167 843.37167 846.1517 851.75869 853.96969 856.19967 859.04067 861.8207">consectetur adipiscing elit. </tspan><tspan y="-219.106" x="743.8687 750.5847 756.1987 761.7587 764.53878 769.56576 775.17977 780.73977 783.5198 786.2498 791.8568 794.0768 796.29678 801.85678 806.85678 809.6368 814.66879 820.28176 825.84176 828.62179 830.8507 836.3897 841.4977 847.0577 852.0577">Sed sed tellus sed lacus </tspan><tspan y="-206.106" x="743.8687 752.22378 757.96377 763.02578 765.2547 773.5847 779.1447 784.1447 786.92477 792.11276 797.7257 803.2857 808.3147 813.9257 819.0457 821.77578 827.26876 830.06179 835.62179 838.3548 841.1348 843.91488 850.5748 856.16287 861.7468 867.3358 872.9038 878.4638">maximus consectetur. Aenean </tspan><tspan y="-193.106" x="743.8687 749.4427 751.65267 753.9306 759.4846 765.0536 770.6216 778.9516 781.7316 784.46066 790.0686 792.2886 794.50857 800.06857 805.06857 807.8486 813.44558 816.8266 822.3446 825.1856 827.96566 830.74569 836.2367 839.0167">aliquam tellus erat, et </tspan><tspan y="-180.106" x="743.8687 752.22378 757.7977 760.0547 765.67269 770.6587 776.2267 781.7867 787.3467 792.9067 795.6867 797.9197 803.50369 808.49069 814.04269 822.3727 825.1527 830.2587 835.8187 839.2797 844.26577 849.82577 854.82577 857.6058 859.88778 865.3688 868.1488">malesuada ipsum cursus id. </tspan><tspan y="-167.106" x="743.8687 750.6627 752.91769 757.8157 763.38369 771.7137 777.2737 782.2737 785.0537 790.6277 792.83767 795.1156 800.6696 806.2536 811.7466 814.5266 817.30667 822.89767 826.2707 831.8827 836.8827 839.6627 844.5347 850.1427 852.3627 855.1427 857.88778 863.50479 867.2348 869.9788 875.5968 878.9268">Vivamus aliquet eros vel tortor </tspan><tspan y="-154.106" x="743.8687 749.0567 754.6687 760.2557 765.8337 771.41268 776.97268 779.7527 785.25668 788.39669 791.4407 793.69869 798.8227 801.05368 803.8457 809.4057 812.7357 815.51577 820.3898 825.99679 828.21676 830.99679 835.8708 841.47879 843.6987 846.47879 848.6887 850.9187 856.5277 862.1207 865.4938 871.0538">congue efficitur vel vel libero </tspan><tspan y="-141.106" x="743.8687 749.45278 755.0138 757.7938 763.4219 769.0399 772.7699 775.6739 781.2039">eu porta.</tspan></text>
<g clip-path="url(#clip_32)">
<path transform="matrix(1,0,0,-1,317.64,189.46)" d="M0 0-1.4-5.6C-2.5-6.1-3.53-6.7-4.5-7.39L-10.05-5.8-16.05-16.2-11.91-20.2C-11.97-20.79-12-21.39-12-22-12-22.61-11.97-23.21-11.91-23.8L-16.05-27.8-10.05-38.2-4.5-36.61C-3.53-37.3-2.5-37.9-1.4-38.4L0-44H12L13.4-38.4C14.5-37.9 15.53-37.3 16.49-36.61L22.05-38.2 28.05-27.8 23.91-23.8C23.97-23.21 24-22.61 24-22 24-21.39 23.97-20.79 23.91-20.2L28.05-16.2 22.05-5.8 16.49-7.39C15.53-6.7 14.5-6.1 13.4-5.6L12 0ZM-3.73-11.77-2.15-10.64C-1.4-10.1-.591-9.63 .247-9.25L2.01-8.45 3.13-4H8.88L9.99-8.45 11.76-9.25C12.6-9.63 13.4-10.1 14.16-10.64L15.73-11.77 20.16-10.51 23.03-15.49 19.74-18.67 19.93-20.6C19.98-21.07 20-21.55 20-22 20-22.45 19.98-22.93 19.93-23.4L19.74-25.33 23.03-28.51 20.15-33.49 15.73-32.23 14.16-33.36C13.4-33.9 12.59-34.37 11.76-34.75L9.99-35.55 8.88-40H3.12L2.01-35.55 .245-34.75C-.593-34.37-1.4-33.9-2.16-33.36L-3.73-32.23-8.15-33.49-11.03-28.51-7.74-25.33-7.93-23.4C-7.98-22.93-8-22.46-8-22-8-21.54-7.98-21.07-7.93-20.6L-7.74-18.67-11.03-15.49-8.15-10.51-3.73-11.77Z" fill="#ffffff" />
<path transform="matrix(1,0,0,-1,323.64,207.46)" d="M0 0C2.21 0 4-1.79 4-4 4-6.21 2.21-8 0-8-2.21-8-4-6.21-4-4-4-1.79-2.21 0 0 0M0 4C-4.42 4-8 .418-8-4-8-8.42-4.42-12 0-12 4.42-12 8-8.42 8-4 8 .418 4.42 4 0 4" fill="#ffffff" />
<path transform="matrix(1,0,0,-1,561.9,216.44)" d="M0 0-.898 1.54C-1.46 2.5-2.69 2.82-3.64 2.25-4.59 1.69-4.91 .476-4.35-.474L-3.46-2.01C-2.93-2.92-3.28-3.72-3.45-4.02-3.62-4.32-4.14-5.02-5.18-5.02H-17.52L-15.27-2.77C-14.49-1.99-14.49-.724-15.27 .056-16.05 .838-17.32 .838-18.1 .056L-23.76-5.61C-24.54-6.39-24.54-7.65-23.76-8.43L-18.1-14.1C-17.32-14.88-16.05-14.88-15.27-14.1-14.49-13.31-14.49-12.05-15.27-11.27L-17.52-9.02H-5.18C-.554-9.02 2.33-4 0 0" />
<path transform="matrix(1,0,0,-1,557.38,198.61)" d="M0 0C-1.07 .282-2.16-.356-2.44-1.42L-3.25-4.5-9.47 6.17C-10.63 8.15-12.64 9.14-14.65 9.14-16.66 9.14-18.68 8.15-19.83 6.17L-20.84 4.44C-21.4 3.48-21.08 2.26-20.12 1.7-19.17 1.15-17.94 1.47-17.39 2.43L-16.38 4.15C-15.86 5.05-15 5.15-14.65 5.15-14.3 5.15-13.45 5.05-12.92 4.15L-6.71-6.51-9.78-5.7C-10.85-5.42-11.94-6.06-12.22-7.12-12.51-8.19-11.87-9.29-10.8-9.57L-3.06-11.61C-1.99-11.89-.894-11.25-.612-10.18L1.43-2.44C1.71-1.37 1.07-.278 .004 .004Z" />
<path transform="matrix(1,0,0,-1,526.58,206.78)" d="M0 0C-1.07-.282-2.16 .356-2.44 1.42-2.73 2.49-2.09 3.59-1.02 3.87L6.72 5.91C7.79 6.19 8.89 5.55 9.17 4.48L11.21-3.26C11.49-4.33 10.85-5.42 9.78-5.7 8.72-5.99 7.62-5.35 7.34-4.28L6.53-1.21 .424-11.68C-.102-12.58 .244-13.38 .418-13.68 .592-13.98 1.11-14.69 2.15-14.69H4.14C5.25-14.69 6.14-15.58 6.14-16.69 6.14-17.79 5.25-18.69 4.14-18.69H2.15C-2.48-18.69-5.36-13.67-3.03-9.67L3.08 .808 .004-.002Z" />
<path transform="matrix(1,0,0,-1,771.87,217.46)" d="M0 0H-24V2.76L-20 4.76V16C-20 20.41-16.41 24-12 24-7.59 24-4 20.41-4 16V4.76L0 2.76ZM0 7.24V16C0 22.62-5.38 28-12 28-18.62 28-24 22.62-24 16V7.24L-28 5.24V-4H-16C-16-6.21-14.21-8-12-8-9.79-8-8-6.21-8-4H4V5.24Z" fill-rule="evenodd" />
</g>
<text xml:space="preserve" transform="matrix(1 0 -0 1 0 540)" font-size="20" font-family="AGLBRN+ArialMT"><tspan y="-475.6802" x="50 63.152 74.034 90.518 107.018 117.948 125.208 135.20801 140.768 155.19 166.15001 177.05802 187.91402 192.15402 203.11403">Summary Heading</tspan></text>
<text xml:space="preserve" transform="matrix(1 0 -0 1 0 540)" font-size="10" font-family="AGLBRN+ArialMT"><tspan y="-458.9783" x="50 55.888 61.479 67.039 70.369 73.149 77.947 83.342998 88.342998 91.12299 94.024997 99.58499 104.384998 109.97399 115.47599 122.63899 128.04 133.028 138.005">Your key takeaways.</tspan></text>
</g>
</g>
</svg>