<?xml version='1.0' encoding='utf-8'?>
<svg xmlns="http://www.w3.org/2000/svg" xmlns:ns1="http://www.inkscape.org/namespaces/inkscape" version="1.1" width="1920" height="1080" viewBox="0 0 1920 1080">
<defs>
<clipPath id="clip_1">
<path transform="matrix(1,0,0,-1,0,1080)" d="M0 1080H1920V0H0Z" />
</clipPath>
<clipPath id="clip_2">
<path transform="matrix(1,0,0,-1,0,1080)" d="M0 1080H1920V0H0Z" />
</clipPath>
<clipPath id="clip_3">
<path transform="matrix(1,0,0,-1,0,1080)" d="M0 1080H1920V0H0Z" />
</clipPath>
<clipPath id="clip_4">
<path transform="matrix(1,0,0,-1,0,1080)" d="M0 1080H1920V0H0Z" />
</clipPath>
<clipPath id="clip_5">
<path transform="matrix(1,0,0,-1,0,1080)" d="M0 1080H1920V0H0Z" />
</clipPath>
</defs>
<g>
<g ns1:groupmode="layer" ns1:label="Layer 1">
<g clip-path="url(#clip_1)">
<path transform="matrix(1,0,0,-1,1220.7252,411.33863)" d="M0 0C-9.87 0-17.899 8.029-17.899 17.899V90.974C-17.899 100.843-9.87 108.872 0 108.872H598.742C608.611 108.872 616.641 100.843 616.641 90.974V17.899C616.641 8.029 608.611 0 598.742 0Z" fill="#f3f9ff" />
<path transform="matrix(1,0,0,-1,1819.4674,300.46614)" d="M0 0H-598.742C-609.732 0-618.641-8.909-618.641-19.899V-92.974C-618.641-103.963-609.732-112.873-598.742-112.873H0C10.99-112.873 19.899-103.963 19.899-92.974V-19.899C19.899-8.909 10.99 0 0 0M0-4C8.767-4 15.899-11.132 15.899-19.899V-92.974C15.899-101.74 8.767-108.873 0-108.873H-598.742C-607.509-108.873-614.641-101.74-614.641-92.974V-19.899C-614.641-11.132-607.509-4-598.742-4Z" fill="#ffffff" />
<path transform="matrix(1,0,0,-1,615.3776,411.33863)" d="M0 0C-9.87 0-17.899 8.029-17.899 17.899V90.974C-17.899 100.843-9.87 108.872 0 108.872H565.55C575.419 108.872 583.448 100.843 583.448 90.974V17.899C583.448 8.029 575.419 0 565.55 0Z" fill="#f3f9ff" />
<path transform="matrix(1,0,0,-1,1180.9274,300.46614)" d="M0 0H-565.55C-576.54 0-585.449-8.909-585.449-19.899V-92.974C-585.449-103.963-576.54-112.873-565.55-112.873H0C10.99-112.873 19.899-103.963 19.899-92.974V-19.899C19.899-8.909 10.99 0 0 0M0-4C8.767-4 15.899-11.132 15.899-19.899V-92.974C15.899-101.74 8.767-108.873 0-108.873H-565.55C-574.317-108.873-581.449-101.74-581.449-92.974V-19.899C-581.449-11.132-574.317-4-565.55-4Z" fill="#ffffff" />
<path transform="matrix(1,0,0,-1,575.5793,413.33863)" d="M0 0H-479.299C-490.288 0-499.198 8.909-499.198 19.899V92.974C-499.198 103.963-490.288 112.872-479.299 112.872H0C10.99 112.872 19.899 103.963 19.899 92.974V19.899C19.899 8.909 10.99 0 0 0" fill="#fff083" />
<path transform="matrix(1,0,0,-1,575.5793,413.33863)" stroke-width="2" stroke-linecap="butt" stroke-miterlimit="10" stroke-linejoin="miter" fill="none" stroke="#f3f9ff" d="M0 0H-479.299C-490.288 0-499.198 8.909-499.198 19.899V92.974C-499.198 103.963-490.288 112.872-479.299 112.872H0C10.99 112.872 19.899 103.963 19.899 92.974V19.899C19.899 8.909 10.99 0 0 0Z" />
<path transform="matrix(1,0,0,-1,1819.4673,296.46614)" d="M0 0H-594.339C-605.329 0-614.238 8.909-614.238 19.899V50.497C-614.238 61.486-605.329 70.396-594.339 70.396H0C10.99 70.396 19.899 61.486 19.899 50.497V19.899C19.899 8.909 10.99 0 0 0" fill="#00de96" />
<path transform="matrix(1,0,0,-1,1819.4673,296.46614)" stroke-width="2" stroke-linecap="butt" stroke-miterlimit="10" stroke-linejoin="miter" fill="none" stroke="#f3f9ff" d="M0 0H-594.339C-605.329 0-614.238 8.909-614.238 19.899V50.497C-614.238 61.486-605.329 70.396-594.339 70.396H0C10.99 70.396 19.899 61.486 19.899 50.497V19.899C19.899 8.909 10.99 0 0 0Z" />
<path transform="matrix(1,0,0,-1,1179.1038,296.46614)" d="M0 0H-557.857C-568.847 0-577.756 8.909-577.756 19.899V50.497C-577.756 61.486-568.847 70.396-557.857 70.396H0C10.99 70.396 19.899 61.486 19.899 50.497V19.899C19.899 8.909 10.99 0 0 0" fill="#ff5c63" />
<path transform="matrix(1,0,0,-1,1179.1038,296.46614)" stroke-width="2" stroke-linecap="butt" stroke-miterlimit="10" stroke-linejoin="miter" fill="none" stroke="#f3f9ff" d="M0 0H-557.857C-568.847 0-577.756 8.909-577.756 19.899V50.497C-577.756 61.486-568.847 70.396-557.857 70.396H0C10.99 70.396 19.899 61.486 19.899 50.497V19.899C19.899 8.909 10.99 0 0 0Z" />
</g>
<text xml:space="preserve" transform="matrix(1 0 -0 1 0 1080)" font-size="24" font-family="ProximaNova-BoldIt" font-weight="bold" font-style="italic"><tspan y="-737.9219" x="139.6475 154.27552 164.13951 170.28351 176.4275 191.66751 205.32352 219.37552 232.95473 241.06673 247.21073 260.88114 274.58995 286.56596 292.70997 300.92997 314.51878 328.19398 341.90278">01. Robot học thuộc</tspan></text>
<text xml:space="preserve" transform="matrix(1 0 -0 1 0 1080)" font-size="18" font-family="ProximaNova-Medium"><tspan y="-716.3223" x="139.6475 157.6475 166.55031 172.60552 182.18152 186.82552 191.00331 201.29932 205.49332 210.13732 215.64531 225.63532 235.69371 245.98972 250.63372 254.88532 263.83134 268.47535 273.98335 283.93373 294.07133 302.76173 312.77693 318.5819 322.8659 327.50993 336.88435 340.98115 349.78135 359.86134 364.50535 374.84275 384.33775 394.39976 398.68376 403.32777 413.61836 423.75596 432.70198 437.34599 442.85398 448.8408 452.925 462.8916 472.9716 477.6156 486.2556 496.5516 501.19563 509.59803 519.093 529.155">•Trả lời theo lý thuyết, kịch bản, quy trình có sẵn.</tspan><tspan y="-694.72238" x="139.6475 157.6475 168.64551 178.63732 188.87572 198.88912 209.27512 213.91912 222.55912 232.85512 237.49912 246.51172 250.70572 255.34972 265.67994 275.74195 280.38597 285.89396 295.87495 305.92796 314.85597 319.49998 324.77757 334.85755 339.50157 345.39839 355.69438 360.33839 366.363 375.8274 385.8408 396.23939">•Không có ví dụ thực tế rõ ràng.</tspan><tspan y="-717.78036" x="675.81356 693.81356 705.9149 715.9049 720.0989 724.74288 734.76528 744.99288 749.1869 753.8309 762.75888 772.21786 781.1458 785.7898 794.7088 804.1426 814.2046 818.8486 828.1924 832.29098 842.2342 852.2962 856.9402 862.4482 872.42739 882.4804 891.5686 895.8526 900.4966 909.8404 913.9462 923.91287 933.99288 938.63687 948.65029 958.94808 968.9039 973.0025 983.03396 997.79397 1002.4379 1012.78976 1022.3657 1027.0098 1031.1101 1040.5746">•Chỉ hỏi các câu kiến thức, kinh nghiệm đã làm</tspan></text>
<text xml:space="preserve" transform="matrix(1 0 -0 1 0 1080)" font-size="18" font-family="ProximaNova-BoldIt" font-weight="bold" font-style="italic"><tspan y="-727.9503" x="1270.1736 1280.6495 1285.2576 1297.5822 1307.8007 1318.1848 1327.1669 1336.9696 1347.3916 1351.9996 1362.3173 1372.5575 1377.1115 1381.7195 1390.2407 1400.7329 1411.0055 1421.5355 1426.1436 1434.9924 1445.3947 1455.8167 1460.4247 1470.7008 1480.9374 1485.4913 1490.0994 1497.7062 1514.151 1524.4722 1534.9769 1541.0609 1545.669 1550.5542 1556.6886 1563.7122 1568.3202">→ Chuyển đổi sang câu hỏi "What If": </tspan></text>
<text xml:space="preserve" transform="matrix(1 0 -0 1 0 1080)" font-size="18" font-family="ProximaNova-Medium"><tspan y="-706.35037" x="1270.1736 1288.1736 1294.938 1307.8477 1317.7908 1327.8528 1332.4968 1340.8469 1350.79 1361.176 1365.8201 1375.8208 1390.5808 1395.2249 1400.5817 1410.6437 1415.2877 1424.086 1434.1084 1444.3054 1448.4994 1453.1434 1462.0895 1466.7335 1472.0922 1482.048 1492.344 1502.3574 1512.7434 1517.3875 1527.7572 1537.74 1542.024 1546.6681 1556.6688 1571.4288 1576.0729 1584.423 1594.5029 1599.147 1603.2492 1612.7136 1627.4736 1632.1177 1642.4569 1646.4745 1655.246">•"Nếu sếp em từ chối ý tưởng đó, em sẽ làm gì?"</tspan></text>
<g clip-path="url(#clip_2)">
<path transform="matrix(1,0,0,-1,1220.7252,588.20779)" d="M0 0C-9.87 0-17.899 8.029-17.899 17.898V155.141C-17.899 165.011-9.87 173.04 0 173.04H598.742C608.611 173.04 616.641 165.011 616.641 155.141V17.898C616.641 8.029 608.611 0 598.742 0Z" fill="#f3f9ff" />
<path transform="matrix(1,0,0,-1,1819.4674,413.16804)" d="M0 0H-598.742C-609.732 0-618.641-8.909-618.641-19.899V-157.141C-618.641-168.131-609.732-177.04-598.742-177.04H0C10.99-177.04 19.899-168.131 19.899-157.141V-19.899C19.899-8.909 10.99 0 0 0M0-4C8.767-4 15.899-11.132 15.899-19.899V-157.141C15.899-165.908 8.767-173.04 0-173.04H-598.742C-607.509-173.04-614.641-165.908-614.641-157.141V-19.899C-614.641-11.132-607.509-4-598.742-4Z" fill="#ffffff" />
<path transform="matrix(1,0,0,-1,615.3776,588.20779)" d="M0 0C-9.87 0-17.899 8.029-17.899 17.898V155.141C-17.899 165.011-9.87 173.04 0 173.04H565.55C575.419 173.04 583.448 165.011 583.448 155.141V17.898C583.448 8.029 575.419 0 565.55 0Z" fill="#f3f9ff" />
<path transform="matrix(1,0,0,-1,1180.9274,413.16804)" d="M0 0H-565.55C-576.54 0-585.449-8.909-585.449-19.899V-157.141C-585.449-168.131-576.54-177.04-565.55-177.04H0C10.99-177.04 19.899-168.131 19.899-157.141V-19.899C19.899-8.909 10.99 0 0 0M0-4C8.767-4 15.899-11.132 15.899-19.899V-157.141C15.899-165.908 8.767-173.04 0-173.04H-565.55C-574.317-173.04-581.449-165.908-581.449-157.141V-19.899C-581.449-11.132-574.317-4-565.55-4Z" fill="#ffffff" />
<path transform="matrix(1,0,0,-1,575.5793,590.2081)" d="M0 0H-479.299C-490.288 0-499.198 8.909-499.198 19.899V157.141C-499.198 168.131-490.288 177.04-479.299 177.04H0C10.99 177.04 19.899 168.131 19.899 157.141V19.899C19.899 8.909 10.99 0 0 0" fill="#fff083" />
<path transform="matrix(1,0,0,-1,575.5793,590.2081)" stroke-width="2" stroke-linecap="butt" stroke-miterlimit="10" stroke-linejoin="miter" fill="none" stroke="#f3f9ff" d="M0 0H-479.299C-490.288 0-499.198 8.909-499.198 19.899V157.141C-499.198 168.131-490.288 177.04-479.299 177.04H0C10.99 177.04 19.899 168.131 19.899 157.141V19.899C19.899 8.909 10.99 0 0 0Z" />
</g>
<text xml:space="preserve" transform="matrix(1 0 -0 1 0 1080)" font-size="24" font-family="ProximaNova-BoldIt" font-weight="bold" font-style="italic"><tspan y="-472.0791" x="201 218.4888 224.3208 237.42 251.31601 257.46 265.5984 279.5112">Hiện tại</tspan></text>
<text fill="#ffffff" xml:space="preserve" transform="matrix(1 0 -0 1 0 1080)" font-size="26" font-family="ProximaNova-ExtrabldIt" font-style="italic"><tspan y="-810.3809" x="804.7896 819.4224 836.6994 854.5276 873.7676 893.03359 899.6896 907.65078 926.40457 946.20358 965.31356 971.97219 987.1822">TRÁNH (DON’T)</tspan></text>
<text xml:space="preserve" transform="matrix(1 0 -0 1 0 1080)" font-size="26" font-family="ProximaNova-ExtrabldIt" font-style="italic"><tspan y="-809.8609" x="1461.3936 1480.6336 1496.1035 1515.3435 1521.9995 1529.9633 1548.717 1568.1494 1576.5214">NÊN (DO) </tspan></text>
<g clip-path="url(#clip_3)">
<path transform="matrix(1,0,0,-1,575.5793,296.46614)" d="M0 0H-479.299C-490.288 0-499.198 8.909-499.198 19.899V50.497C-499.198 61.486-490.288 70.396-479.299 70.396H0C10.99 70.396 19.899 61.486 19.899 50.497V19.899C19.899 8.909 10.99 0 0 0" fill="#fff083" />
<path transform="matrix(1,0,0,-1,575.5793,296.46614)" stroke-width="2" stroke-linecap="butt" stroke-miterlimit="10" stroke-linejoin="miter" fill="none" stroke="#f3f9ff" d="M0 0H-479.299C-490.288 0-499.198 8.909-499.198 19.899V50.497C-499.198 61.486-490.288 70.396-479.299 70.396H0C10.99 70.396 19.899 61.486 19.899 50.497V19.899C19.899 8.909 10.99 0 0 0Z" />
</g>
<text xml:space="preserve" transform="matrix(1 0 -0 1 0 1080)" font-size="26" font-family="ProximaNova-ExtrabldIt" font-style="italic"><tspan y="-810.3809" x="196.1865 212.0595 218.8403 234.0633 249.5073 256.1633 271.2537 286.39869 301.1173 316.2987 331.6387 338.2947 347.81593 362.83613 377.87193 392.84794 408.02934 423.36933 430.02534 445.18333 460.36213">Tình huống thường gặp</tspan></text>
<g clip-path="url(#clip_4)">
<path transform="matrix(1,0,0,-1,1220.7252,759.6277)" d="M0 0C-9.87 0-17.899 8.029-17.899 17.899V149.521C-17.899 159.391-9.87 167.42 0 167.42H598.742C608.611 167.42 616.641 159.391 616.641 149.521V17.899C616.641 8.029 608.611 0 598.742 0Z" fill="#f3f9ff" />
<path transform="matrix(1,0,0,-1,1819.4674,590.208)" d="M0 0H-598.742C-609.732 0-618.641-8.909-618.641-19.899V-151.521C-618.641-162.51-609.732-171.419-598.742-171.419H0C10.99-171.419 19.899-162.51 19.899-151.521V-19.899C19.899-8.909 10.99 0 0 0M0-4C8.767-4 15.899-11.132 15.899-19.899V-151.521C15.899-160.287 8.767-167.419 0-167.419H-598.742C-607.509-167.419-614.641-160.287-614.641-151.521V-19.899C-614.641-11.132-607.509-4-598.742-4Z" fill="#ffffff" />
<path transform="matrix(1,0,0,-1,615.3776,759.6277)" d="M0 0C-9.87 0-17.899 8.029-17.899 17.899V149.521C-17.899 159.391-9.87 167.42 0 167.42H565.55C575.419 167.42 583.448 159.391 583.448 149.521V17.899C583.448 8.029 575.419 0 565.55 0Z" fill="#f3f9ff" />
<path transform="matrix(1,0,0,-1,1180.9274,590.208)" d="M0 0H-565.55C-576.54 0-585.449-8.909-585.449-19.899V-151.521C-585.449-162.51-576.54-171.419-565.55-171.419H0C10.99-171.419 19.899-162.51 19.899-151.521V-19.899C19.899-8.909 10.99 0 0 0M0-4C8.767-4 15.899-11.132 15.899-19.899V-151.521C15.899-160.287 8.767-167.419 0-167.419H-565.55C-574.317-167.419-581.449-160.287-581.449-151.521V-19.899C-581.449-11.132-574.317-4-565.55-4Z" fill="#ffffff" />
<path transform="matrix(1,0,0,-1,575.5793,761.62747)" d="M0 0H-479.299C-490.288 0-499.198 8.909-499.198 19.899V151.52C-499.198 162.51-490.288 171.419-479.299 171.419H0C10.99 171.419 19.899 162.51 19.899 151.52V19.899C19.899 8.909 10.99 0 0 0" fill="#fff083" />
<path transform="matrix(1,0,0,-1,575.5793,761.62747)" stroke-width="2" stroke-linecap="butt" stroke-miterlimit="10" stroke-linejoin="miter" fill="none" stroke="#f3f9ff" d="M0 0H-479.299C-490.288 0-499.198 8.909-499.198 19.899V151.52C-499.198 162.51-490.288 171.419-479.299 171.419H0C10.99 171.419 19.899 162.51 19.899 151.52V19.899C19.899 8.909 10.99 0 0 0Z" />
<path transform="matrix(1,0,0,-1,1220.7252,931.04666)" d="M0 0C-9.87 0-17.899 8.029-17.899 17.898V149.52C-17.899 159.39-9.87 167.419 0 167.419H598.742C608.611 167.419 616.641 159.39 616.641 149.52V17.898C616.641 8.029 608.611 0 598.742 0Z" fill="#f3f9ff" />
<path transform="matrix(1,0,0,-1,1819.4674,761.62747)" d="M0 0H-598.742C-609.732 0-618.641-8.909-618.641-19.899V-151.52C-618.641-162.51-609.732-171.419-598.742-171.419H0C10.99-171.419 19.899-162.51 19.899-151.52V-19.899C19.899-8.909 10.99 0 0 0M0-4C8.767-4 15.899-11.132 15.899-19.899V-151.52C15.899-160.287 8.767-167.419 0-167.419H-598.742C-607.509-167.419-614.641-160.287-614.641-151.52V-19.899C-614.641-11.132-607.509-4-598.742-4Z" fill="#ffffff" />
<path transform="matrix(1,0,0,-1,615.3776,931.04666)" d="M0 0C-9.87 0-17.899 8.029-17.899 17.898V149.52C-17.899 159.39-9.87 167.419 0 167.419H565.55C575.419 167.419 583.448 159.39 583.448 149.52V17.898C583.448 8.029 575.419 0 565.55 0Z" fill="#f3f9ff" />
<path transform="matrix(1,0,0,-1,1180.9274,761.62747)" d="M0 0H-565.55C-576.54 0-585.449-8.909-585.449-19.899V-151.52C-585.449-162.51-576.54-171.419-565.55-171.419H0C10.99-171.419 19.899-162.51 19.899-151.52V-19.899C19.899-8.909 10.99 0 0 0M0-4C8.767-4 15.899-11.132 15.899-19.899V-151.52C15.899-160.287 8.767-167.419 0-167.419H-565.55C-574.317-167.419-581.449-160.287-581.449-151.52V-19.899C-581.449-11.132-574.317-4-565.55-4Z" fill="#ffffff" />
<path transform="matrix(1,0,0,-1,575.5793,933.0468)" d="M0 0H-479.299C-490.288 0-499.198 8.909-499.198 19.899V151.52C-499.198 162.51-490.288 171.419-479.299 171.419H0C10.99 171.419 19.899 162.51 19.899 151.52V19.899C19.899 8.909 10.99 0 0 0" fill="#fff083" />
<path transform="matrix(1,0,0,-1,575.5793,933.0468)" stroke-width="2" stroke-linecap="butt" stroke-miterlimit="10" stroke-linejoin="miter" fill="none" stroke="#f3f9ff" d="M0 0H-479.299C-490.288 0-499.198 8.909-499.198 19.899V151.52C-499.198 162.51-490.288 171.419-479.299 171.419H0C10.99 171.419 19.899 162.51 19.899 151.52V19.899C19.899 8.909 10.99 0 0 0Z" />
</g>
<text xml:space="preserve" transform="matrix(1 0 -0 1 0 1080)" font-size="24" font-family="ProximaNova-BoldIt" font-weight="bold" font-style="italic"><tspan y="-592.5381" x="140.1602 154.4642 169.0586 175.20259 181.34659 198.77539 212.5586 226.23139 239.96419 246.0362 252.18019 264.8498 270.67939 283.7786 304.2266 310.3706 316.2026 329.9354 335.873 342.017 348.161 361.83143 375.44664 381.51863 387.66264 401.59223 407.6642 413.80824 427.78584 441.7394 455.7314 461.87544 475.54823 489.48744">02. Người kiệm lời, hỏi gì đáp nấy</tspan></text>
<text xml:space="preserve" transform="matrix(1 0 -0 1 0 1080)" font-size="18" font-family="ProximaNova-Medium"><tspan y="-570.9385" x="140.1602 158.1602 167.063 173.11821 182.69422 187.33821 191.516 201.81201 206.00601 210.65001 219.4394 229.4924 238.4204 243.06439 253.07779 263.42597 272.89936 282.96138 287.24537 291.88938 297.39738 307.35316 311.45176 321.39494 331.45695 336.10096 346.11436 356.34196 360.53596 365.17997 375.47956 385.45338 395.46678 405.88157 410.16557 414.80958 424.15516 434.14695 444.38536 454.39875 464.78474 469.42875 478.18757 488.15959 498.17478 508.56077">•Trả lời cực ngắn, thiếu nội dung, không cung </tspan><tspan y="-549.3385" x="158.1602 167.1116 176.5832 186.96921 191.6132 197.1212 207.113 217.11382 231.87381 236.5178 242.0258 252.01761 262.256 272.2694 282.6554 287.2994 292.8074 296.9132 306.97523 311.61924 320.40864 330.47065 335.11466 340.62266 350.64506 360.33445">cấp thêm thông tin cụ thể.</tspan><tspan y="-584.7265" x="675.8042 693.8042 705.9056 715.89559 720.0896 724.7336 734.756 744.9836 749.1776 753.8216 762.7496 772.20858 781.13656 785.7805 794.7085 804.1423 814.2043 818.84829 828.1921 832.2907 842.23397 852.29598 856.93997 862.44796 872.42898 882.482 891.5702 895.8542 900.49819 909.842 913.9478 923.9144 933.99447 938.6384 948.65188 958.94967 968.90548 973.0041 983.0355 997.79556 1002.4395 1012.7913 1022.3673 1027.0114 1031.1117 1040.5762">•Chỉ hỏi các câu kiến thức, kinh nghiệm đã làm</tspan><tspan y="-563.1265" x="675.8042 693.8042 702.70706 708.7316 718.1726 728.1392 738.21926 742.8632 751.7912 761.225 771.287 775.93099 785.95339 796.18099 800.375 805.019 817.2554 827.3606 832.9424 843.94039 853.9322 864.1706 874.184 884.57 889.214 894.4664 904.40597 914.38876 922.8469 928.42697 941.35818 951.24557">•Tránh câu hỏi Có/Không (Yes/No)</tspan></text>
<text xml:space="preserve" transform="matrix(1 0 -0 1 0 1080)" font-size="18" font-family="ProximaNova-BoldIt" font-weight="bold" font-style="italic"><tspan y="-616.19058" x="1270.1642 1283.0431 1293.4093 1303.6819 1314.2119 1318.82 1327.6688 1338.0692 1348.4912 1353.0993 1363.3772 1373.6138 1378.1677 1382.7758 1397.9786 1408.3107 1412.9187 1423.2382 1433.5161 1443.625 1448.233 1452.8411 1463.2721 1473.7589 1484.1809 1488.789 1499.22 1509.6708 1515.7548 1520.3628 1526.4575 1536.9299 1547.2025 1557.7326 1562.3406 1572.7463 1582.9452 1593.2233 1602.2053 1606.8134 1612.9081 1623.3301 1627.9381 1638.7382 1643.3462 1653.8222 1658.4302 1668.9061 1673.5142 1683.9901 1688.5982 1700.9102 1705.5182 1715.9942 1720.6022 1732.1762 1736.7842 1741.3922 1751.8665 1756.28 1766.6481 1777.1421">Dùng câu hỏi mở nhỏ, dẫn dắt từng bước từ S → T → A → R  giúp </tspan><tspan y="-594.5906" x="1270.1642 1280.6384 1290.911 1301.441 1306.0491 1315.2723 1319.7057 1329.5391 1339.961 1344.5691 1354.8723 1365.1198 1369.6737 1374.2817 1384.6659 1394.9439 1405.2219 1414.204 1418.812 1429.1315 1439.4598 1443.8609 1453.6528 1464.0748 1468.6829 1478.9608 1489.2929 1499.3711">ứng viên nói được nhiều hơn:</tspan></text>
<text xml:space="preserve" transform="matrix(1 0 -0 1 0 1080)" font-size="18" font-family="ProximaNova-Medium"><tspan y="-572.9906" x="1270.1642 1288.1642 1295.5172 1304.4199 1310.3167 1320.555 1330.5685 1340.9545 1345.5985 1351.1066 1355.1908 1365.1592 1375.2391 1379.8832 1389.8335 1399.8776 1410.0818 1420.0952 1430.4812 1435.1253 1445.4968 1455.4779 1459.762 1464.406 1474.7434 1484.2384 1494.3004 1498.9445 1503.0448 1512.5111 1527.2711 1531.9152 1542.2832 1552.239 1562.5692 1571.4972 1576.1412 1586.4264 1595.8909 1605.9529 1610.5969 1616.105 1620.173 1630.1737 1640.2357 1644.8798 1648.9801 1658.5562 1663.2002 1673.5411 1677.5587 1686.251">•“Trong tình huống đó, bạn làm bước đầu tiên là gì?”</tspan><tspan y="-551.3906" x="1270.1642 1288.1642 1295.708 1307.3738 1316.8688 1326.9308 1331.5748 1340.375 1350.3973 1360.6664 1370.7284 1375.3724 1384.3004 1393.7595 1402.5597 1412.6397 1417.2837 1427.6535 1437.9495 1442.5935 1451.6062 1455.8002 1460.4442 1464.6958 1473.6419 1478.2859 1488.6323 1498.9284 1503.5724 1513.9133 1517.9309 1526.6249">•“Bạn chọn cách đó vì lý do gì?”</tspan><tspan y="-529.79067" x="1270.1642 1288.1642 1295.708 1306.0797 1316.0949 1321.6029 1326.247 1336.5375 1346.5635 1356.1395 1360.7836 1366.8081 1376.3842 1381.0282 1389.3999 1398.8877 1408.3323 1416.6123 1421.2564 1434.166 1444.1091 1454.1712 1458.8152 1462.9155 1472.38 1487.14 1491.784 1495.915 1505.3975 1509.5914 1514.2355 1524.5729 1534.0679 1544.1299 1548.7739 1554.282 1564.2557 1573.5348 1582.4808 1587.1249 1597.3489 1607.5765 1611.7705 1616.4146 1626.7555 1630.7713 1639.4652">•“Kết quả ra sao? Nếu làm lại bạn thay đổi gì?”</tspan></text>
<text xml:space="preserve" transform="matrix(1 0 -0 1 0 1080)" font-size="24" font-family="ProximaNova-BoldIt" font-weight="bold" font-style="italic"><tspan y="-419.4512" x="140.1602 154.7642 169.04181 175.1858 181.3298 199.6298 211.6082 224.67621 233.309 240.9938 252.6626 266.31858 279.97459 293.70259 307.5914 320.6594 334.3514">03. Over-conﬁdent</tspan></text>
<text xml:space="preserve" transform="matrix(1 0 -0 1 0 1080)" font-size="18" font-family="ProximaNova-Medium"><tspan y="-397.8516" x="140.1602 158.1602 167.603 177.665 182.30899 187.81699 191.92279 201.98479 206.26879 210.91278 220.89559 231.09259 235.28659 239.93059 245.9858 255.4808 265.4942 275.8802 280.5242 287.2958 296.22383 305.6828 314.483 324.563 329.207 337.9964 348.0224 357.5984 362.2424 372.2432 387.0032 391.64723 395.74763 405.3236 409.96763 415.2452 425.4656 430.9736 435.6176 445.58424 455.58863 465.09803 470.903 476.9294 480.0956 486.8096 496.8104 511.5704">•Tự tin, nói rằng “cách của em là tốt nhất”,“em </tspan><tspan y="-376.2516" x="158.1602 162.2606 171.725 186.485 191.129 201.5168 211.4726 221.8028 230.73079 235.37479 245.39719 255.41239 261.21739 267.24378 271.52778 276.17179 282.9434 291.8714 301.30879 305.50279 310.1468 320.48777 324.68177 329.32579 338.11518 348.1196 358.133 368.51899 373.163 377.2634 386.72779 401.4878 406.1318 411.4094 421.628 427.43479 433.45039">làm được hết”, “cái gì cũng làm tốt”.</tspan><tspan y="-409.04759" x="675.8042 693.8042 706.15939 715.59317 725.65518 730.29916 740.32156 750.54916 754.74319 759.38717 769.74618 779.24118 789.2546 799.4336 803.7176 808.3616 815.90359 826.1942 840.9542 845.5982 854.23818 864.5342 869.17819 879.51199 883.61056 893.62576 899.1337 903.7777 916.48568 922.06747 933.45248 938.5806 950.8026 955.4466 964.7922 974.784 985.0224 995.0358 1004.655 1013.34909">•Câu hỏi dạng: “Em có biết A/B/C không?”</tspan><tspan y="-387.44758" x="675.8042 693.8042 702.70706 708.7316 718.1726 728.1392 738.21926 742.8632 753.25106 763.3472 772.9232 777.5672 783.5918 793.1678 797.81179 807.7784 817.7828 827.27957 837.34158 841.98556 850.46359 860.44638 865.95437 870.5983 879.9439 889.9357 899.9365 909.99856 914.6425 924.65597 935.0239 945.31997 949.5139 954.1579 964.1317 973.4107 982.3567 987.0007 995.95028 1005.96548 1011.47348 1016.11746 1020.1944 1030.2203 1039.7153 1049.7774 1054.4214 1062.7626 1073.0586 1087.833">•Tránh đưa ra nhận xét khen ngợi hay kết luận sớm.</tspan></text>
<text xml:space="preserve" transform="matrix(1 0 -0 1 0 1080)" font-size="18" font-family="ProximaNova-BoldIt" font-weight="bold" font-style="italic"><tspan y="-431.69157" x="1270.1642 1280.6401 1285.2482 1297.5728 1307.7913 1318.1754 1327.1592 1336.9602 1347.3822 1351.9902 1362.306 1372.5463 1377.1002 1381.7083 1390.2295 1400.7217 1410.9943 1421.5243 1426.1323 1434.9812 1445.3834 1455.8054 1460.4135 1470.6896 1480.928 1485.4819 1490.09 1497.6968 1514.1416 1524.4628 1534.9675 1541.0515 1545.6596 1550.5448 1556.6792 1563.9872 1568.5952 1578.9038 1588.8578 1593.4658 1599.656 1609.8529 1620.2749 1624.8829 1631.0731 1641.3943 1651.8235 1660.703 1671.143 1675.751 1686.0308 1696.4905 1706.7631 1717.2931 1721.9011 1726.2805 1736.6611 1745.6432 1750.2512 1756.4396 1766.7283 1777.2007 1783.2379">→ Chuyển đổi sang câu hỏi "What If" để thử thách năng lực thật:</tspan></text>
<text xml:space="preserve" transform="matrix(1 0 -0 1 0 1080)" font-size="18" font-family="ProximaNova-Medium"><tspan y="-410.09156" x="1270.1642 1288.1642 1295.708 1308.6177 1318.5608 1328.6228 1333.2669 1343.6133 1353.5889 1363.1073 1373.4124 1377.5073 1381.613 1391.5958 1401.6758 1406.3198 1416.6843 1420.8783 1425.5223 1435.7463 1445.974 1450.168 1454.812 1465.036 1475.2565 1480.7645 1485.4086 1495.422 1505.7882 1516.0087 1521.8137 1526.0978 1530.7418 1541.0792 1550.5742 1560.6362 1565.2803 1575.5385 1585.6005 1590.2445 1595.7526 1599.8206 1609.8213 1619.8833 1624.5274 1630.0354 1640.0578 1650.1377 1654.7817 1664.7466 1674.2344 1683.679 1692.3729">•“Nếu deadline bị đổi đột ngột, bạn ưu tiên thế nào?”</tspan><tspan y="-388.49156" x="1270.1642 1288.1642 1295.708 1308.6177 1318.5608 1328.6228 1333.2669 1338.5139 1348.4895 1357.954 1372.714 1377.358 1386.7036 1396.6953 1406.9337 1416.9472 1427.3331 1431.9772 1442.257 1452.526 1462.5394 1472.9254 1477.5695 1483.0775 1487.1618 1497.1283 1507.1957 1511.4797 1516.1238 1526.4612 1535.9562 1546.0182 1550.6622 1554.7626 1564.227 1578.987 1583.6311 1593.972 1598.166 1602.81 1613.034 1623.114 1627.758 1633.2661 1643.2164 1653.354 1662.0444 1672.0596 1677.5676 1682.2117 1692.5689 1702.5498 1712.5939 1720.701 1729.395">•“Nếu team không đồng tình, bạn làm gì để thuyết phục?”</tspan><tspan y="-366.89155" x="1270.1642 1288.1642 1295.708 1308.6177 1318.5608 1328.6228 1333.2669 1344.2847 1354.937 1359.4191 1364.0631 1369.5712 1379.5449 1388.986 1398.9994 1409.3854 1414.0294 1423.9943 1433.2733 1442.2194 1446.8634 1452.159 1461.611 1465.7078 1469.8855 1474.1696 1478.8136 1489.151 1498.646 1508.708 1513.352 1521.7022 1531.7821 1536.4262 1545.1975 1555.2595 1559.9036 1564.1552 1573.1012 1577.7453 1583.7698 1593.3458 1597.9899 1606.3616 1615.8494 1625.294 1633.9879">•“Nếu KPI tháng này fail, bạn sẽ xử lý ra sao?”</tspan></text>
<text xml:space="preserve" transform="matrix(1 0 -0 1 0 1080)" font-size="24" font-family="ProximaNova-BoldIt" font-weight="bold" font-style="italic"><tspan y="-227.9561" x="140.1602 154.94661 169.4882 175.6322 181.7762 197.00659 210.8162 222.79698 235.86258 249.75858 255.90258 267.09379 280.76899 294.34098 302.45298 308.597 322.52659 336.20179 349.8194 355.8914 362.0354 375.9458 389.6162 403.2314 416.89463 430.93464 437.07865 449.05467 463.00105">04. Xuyên suốt buổi phỏng vấn</tspan></text>
<text xml:space="preserve" transform="matrix(1 0 -0 1 0 1080)" font-size="18" font-family="ProximaNova-Medium"><tspan y="-240.5361" x="675.8086 693.8086 702.7114 708.736 718.20046 728.16708 738.2471 742.89108 746.9681 756.9941 766.4891 776.5511 781.19509 790.06369 799.63967 804.2836 814.6408 824.6146 834.0556 844.1176 848.7616 857.2414 867.2242 872.7322 877.37619 887.66317 897.6766 908.06259 912.70657 921.7191 925.7871 935.7879 945.8499 950.4939 956.0019 961.8987 972.1371 982.1505 992.5365 997.1805 1007.51608 1017.56008 1027.7877 1031.9817 1036.6257 1046.9829 1057.0053 1067.2743 1077.2877 1087.6737 1092.3178 1101.217 1110.6887">•Tranh luận và phán xét ứng viên trong buổi phỏng vấn</tspan><tspan y="-218.9361" x="675.8086 693.8086 706.783 716.8792 726.4552 731.0992 740.04879 750.06399 755.57199 760.21597 770.50656 780.53256 790.1085 794.7525 804.7659 815.0853 824.3643 833.3103 837.9543 843.4623 849.3591 859.5975 869.6109 879.9969 884.64089 894.9783 905.0241 915.24996 919.444 924.08798 934.4451 944.4675 954.7366 964.75 975.136 979.77999 988.67916 998.15078 1008.21279 1012.85678 1021.55618 1031.8522 1036.0462 1040.6902 1050.9772 1060.9906 1071.3766 1076.0206 1085.0333 1089.1013 1099.1002">•Đưa kết quả ngay trong buổi phỏng vấn với ứng viên</tspan><tspan y="-240.2121" x="1270.1686 1288.1686 1301.0925 1305.1875 1315.2495 1319.8936 1325.4016 1335.3754 1344.8129 1349.0068 1353.6509 1363.8749 1374.1709 1378.815 1384.323 1390.3098 1400.2836 1410.297 1420.683 1425.327 1429.458 1438.953 1449.0726 1453.3567 1458.0007 1463.2478 1473.5438 1478.1879 1492.8867 1502.8695">•Giữ thái độ trung lập, tò mò.</tspan><tspan y="-218.61209" x="1270.1686 1288.1686 1299.1666 1309.1583 1319.3967 1329.4102 1339.7962 1344.4402 1354.828 1364.9242 1374.5003 1379.1443 1385.1688 1394.7449 1399.3889 1408.3385 1418.3536 1423.8617 1428.5057 1438.7963 1448.8223 1458.3983 1463.0424 1473.0558 1483.3751 1492.6542 1501.6002 1506.2443 1511.7523 1517.649 1527.8875 1537.9009 1548.2869 1552.9309 1563.2666 1573.3124 1583.54 1587.734 1592.378 1602.7352 1612.7576 1623.0266 1633.04 1643.426 1648.0701 1656.9694 1666.441 1676.503">•Không đưa ra kết quả ngay trong buổi phỏng vấn.</tspan></text>
<text xml:space="preserve" transform="matrix(1 0 -0 1 0 1080)" font-size="20" font-family="ProximaNova-Bold" font-weight="bold"><tspan y="-991.2163" x="72.3477 84.26771 98.881717 113.643718 118.91572 131.78173 137.28772 149.33972 161.20973 174.06974 179.18973 191.06974 203.05773 214.93773">SUN.RISER 2026</tspan></text>
<text xml:space="preserve" transform="matrix(1 0 -0 1 0 1080)" font-size="20" font-family="ProximaNova-Regular"><tspan y="-74.99628" x="72.3477 87.1877 98.4857 110.1017 121.399707 133.21971 138.37972 150.01372 164.11373 178.46973 183.27173 195.01773 206.26973 220.37174 234.39174 239.21173 254.51174 259.67173 272.92774 282.90977 293.10978 298.26979 310.4658 315.2458 329.6838 343.7878 355.0098 366.7298 371.8898 384.0498 395.4298 407.19383 418.57383 430.52583 443.78184 455.16184">©2026 SUN.STUDIO ALL RIGHTS RESERVED</tspan></text>
<text xml:space="preserve" transform="matrix(1 0 -0 1 0 1080)" font-size="20" font-family="ProximaNova-Semibold" font-weight="bold"><tspan y="-74.99628" x="1824.2277 1831.9476">10</tspan></text>
<g clip-path="url(#clip_5)">
<path transform="matrix(1,0,0,-1,1823.42,75)" d="M0 0H-173.985C-185.5 0-194.835-9.335-194.835-20.85V-20.851C-194.835-32.366-185.5-41.701-173.985-41.701H0C11.516-41.701 20.851-32.366 20.851-20.851V-20.85C20.851-9.335 11.516 0 0 0M0-1C10.946-1 19.851-9.905 19.851-20.851 19.851-31.796 10.946-40.701 0-40.701H-173.985C-184.931-40.701-193.835-31.796-193.835-20.85-193.835-9.905-184.931-1-173.985-1Z" fill="#444454" />
</g>
<text xml:space="preserve" transform="matrix(1 0 -0 1 0 1080)" font-size="20" font-family="ProximaNova-Regular"><tspan y="-976.8037" x="1650.9551 1665.331 1677.9011 1691.0612 1696.2212 1710.2212 1721.6012 1732.2952 1745.5512 1757.5252 1768.7792 1785.1052 1796.4852 1810.5093">HRA DEPARTMENT</tspan></text>
<text xml:space="preserve" transform="matrix(1 0 -0 1 0 1080)" font-size="55" font-family="ProximaNova-Extrabld"><tspan y="-900.457" x="72.9771 103.9146 139.35109 181.04109 221.30109 261.0661 275.14613 309.52113 349.83613 391.52613 431.78614 471.55116 485.63117 520.5672 558.4622 598.90927 613.15426 627.23428 666.6472 708.7772 722.85726 758.54678 772.6268 812.03976 853.72976 894.3583 906.5793">TRONG PHỎNG VẤN: DO &amp; DON'T</tspan></text>
</g>
<g ns1:groupmode="layer" ns1:label="Layer 2">
</g>
</g>
</svg>