<?xml version='1.0' encoding='utf-8'?>
<svg xmlns="http://www.w3.org/2000/svg" xmlns:ns1="http://www.inkscape.org/namespaces/inkscape" version="1.1" width="960" height="540" viewBox="0 0 960 540">
<defs>
<clipPath id="clip_1">
<path transform="matrix(1,0,0,-1,0,540)" d="M0 540H960V0H0Z" />
</clipPath>
<clipPath id="clip_2">
<path transform="matrix(1,0,0,-1,0,540)" d="M0 540H960V0H0Z" />
</clipPath>
<clipPath id="clip_3">
<path transform="matrix(1,0,0,-1,0,540)" d="M0 540H960V0H0Z" />
</clipPath>
</defs>
<g>
<g ns1:groupmode="layer" ns1:label="Layer 1">
<text xml:space="preserve" transform="matrix(1 0 -0 1 0 540)" font-size="60" font-family="AGLBRN+ArialMT"><tspan y="-438.5107" x="50 88.55 120.86001 153.04402 185.25803 217.27402">Agenda</tspan></text>
<text fill="#ff5533" xml:space="preserve" transform="matrix(1 0 -0 1 0 540)" font-size="40" font-family="AGLBRN+ArialMT"><tspan y="-258.0031" x="345 365.504">01</tspan></text>
<text xml:space="preserve" transform="matrix(1 0 -0 1 0 540)" font-size="20" font-family="AGLBRN+ArialMT"><tspan y="-228.0031" x="345 363.24403 374.364 379.924 394.276 398.538 402.768 407.208 412.768 418.37 429.298 433.496 443.496">We will talk </tspan><tspan y="-205.0031" x="345 355.92 366.96003 377.92604 388.80805 394.36405 399.92405 405.40406 416.31007 420.60606 430.32807">about this.</tspan></text>
<text fill="#ff5533" xml:space="preserve" transform="matrix(1 0 -0 1 0 540)" font-size="40" font-family="AGLBRN+ArialMT"><tspan y="-102.9951" x="345 367.52003">04</tspan></text>
<text xml:space="preserve" transform="matrix(1 0 -0 1 0 540)" font-size="20" font-family="AGLBRN+ArialMT"><tspan y="-72.9951" x="345 363.24403 374.364 379.924 394.276 398.538 402.768 407.208 412.768 418.37 429.298 433.496 443.496">We will talk </tspan><tspan y="-49.995103" x="345 355.92 366.96003 377.92604 388.80805 394.36405 399.92405 405.40406 416.31007 420.60606 430.32807">about this.</tspan></text>
<text fill="#ff5533" xml:space="preserve" transform="matrix(1 0 -0 1 0 540)" font-size="40" font-family="AGLBRN+ArialMT"><tspan y="-102.9951" x="566.2725 588.35256">05</tspan></text>
<text xml:space="preserve" transform="matrix(1 0 -0 1 0 540)" font-size="20" font-family="AGLBRN+ArialMT"><tspan y="-72.9951" x="566.2725 580.6845 591.2165 601.4905 606.9505 612.5105 618.0705 632.1425 643.2625 648.8225 663.1745 667.4365 671.6685">Next, we will</tspan><tspan y="-49.995103" x="566.2725 571.87258 582.80258 587.00259 597.00259 602.56259 613.48257 624.5145 635.48257 646.36257 651.92056 657.4805 662.95858 673.86459 678.1606 687.88259">talk about this.</tspan></text>
<text fill="#ff5533" xml:space="preserve" transform="matrix(1 0 -0 1 0 540)" font-size="40" font-family="AGLBRN+ArialMT"><tspan y="-102.9951" x="787.5303 810.1703">06</tspan></text>
<text xml:space="preserve" transform="matrix(1 0 -0 1 0 540)" font-size="20" font-family="AGLBRN+ArialMT"><tspan y="-72.9951" x="787.5303 799.6543 810.6143 821.57437 832.69839 838.25839 852.3384 863.4604 869.0204 883.37246 887.63449 891.8645">Then we will</tspan><tspan y="-49.995103" x="787.5303 793.1303 804.0603 808.2603 818.2603 823.8203 834.7403 845.7723 856.7403 867.6203 873.1783 878.7383 884.2163 895.1223 899.41836 909.1403">talk about this.</tspan></text>
<text fill="#ff5533" xml:space="preserve" transform="matrix(1 0 -0 1 0 540)" font-size="40" font-family="AGLBRN+ArialMT"><tspan y="-258.0031" x="566.2422 587.8822">02</tspan></text>
<text xml:space="preserve" transform="matrix(1 0 -0 1 0 540)" font-size="20" font-family="AGLBRN+ArialMT"><tspan y="-228.0031" x="566.2422 580.6542 591.18618 601.46017 606.92019 612.48019 618.04019 632.1122 643.2322 648.7922 663.14419 667.4062 671.6382">Next, we will</tspan><tspan y="-205.0031" x="566.2422 571.8422 582.7722 586.9722 596.9722 602.5322 613.4522 624.4842 635.4522 646.3322 651.8902 657.4502 662.9282 673.8342 678.13027 687.85226">talk about this.</tspan></text>
<text fill="#ff5533" xml:space="preserve" transform="matrix(1 0 -0 1 0 540)" font-size="40" font-family="AGLBRN+ArialMT"><tspan y="-258.0031" x="787.5 809.22">03</tspan></text>
<text xml:space="preserve" transform="matrix(1 0 -0 1 0 540)" font-size="20" font-family="AGLBRN+ArialMT"><tspan y="-228.0031" x="787.5 799.624 810.58407 821.54409 832.6681 838.2281 852.3081 863.4301 868.9901 883.34219 887.6042 891.8342">Then we will</tspan><tspan y="-205.0031" x="787.5 793.10006 804.03 808.23007 818.23007 823.79006 834.71 845.742 856.71 867.59 873.148 878.708 884.18606 895.09207 899.38809 909.11007">talk about this.</tspan></text>
<g clip-path="url(#clip_1)">
<path transform="matrix(1,0,0,-1,842,30)" stroke-width="1" stroke-linecap="butt" stroke-miterlimit="10" stroke-linejoin="miter" fill="none" stroke="#000000" d="M0 0V0C0 4.74 3.84 8.58 8.58 8.58H66.65C71.39 8.58 75.23 4.74 75.23 0 75.23-4.74 71.39-8.58 66.65-8.58H8.58C3.84-8.58 0-4.74 0 0Z" />
</g>
<text xml:space="preserve" transform="matrix(1 0 -0 1 0 540)" font-size="10" font-family="VWYXZX+Arial-BoldMT" font-weight="bold"><tspan y="-506.4185" x="847.8242 855.1052 860.74929 864.2153 869.8013">Date.</tspan></text>
<text xml:space="preserve" transform="matrix(1 0 -0 1 0 540)" font-size="10" font-family="AGLBRN+ArialMT"><tspan y="-506.4185" x="872.5742 875.35427 880.62826 886.2592 889.1162 894.7162 900.31619 905.8441"> 10/2025</tspan></text>
<g clip-path="url(#clip_2)">
<path transform="matrix(1,0,0,-1,718.65,30)" d="M0 0V0C0 4.74 3.84 8.58 8.58 8.58H104.14C108.88 8.58 112.72 4.74 112.72 0 112.72-4.74 108.88-8.58 104.14-8.58H8.58C3.84-8.58 0-4.74 0 0" />
</g>
<text fill="#ffffff" xml:space="preserve" transform="matrix(1 0 -0 1 0 540)" font-size="10" font-family="VWYXZX+Arial-BoldMT" font-weight="bold"><tspan y="-506.4185" x="725.7217 732.32669 736.2426 742.39266 745.2946 750.9456 756.6856 760.01559 762.79556 769.4005 773.3705 779.0375 784.6385 790.2655 796.44656 799.9415 805.58157 809.0735 811.9335 818.1235">Project Presentation</tspan></text>
<g clip-path="url(#clip_3)">
<path transform="matrix(1,0,0,-1,50,453.46)" stroke-width="5" stroke-linecap="butt" stroke-linejoin="round" fill="none" stroke="#ff5533" d="M0 0H36.54V-36.54" />
<path transform="matrix(1,0,0,-1,50,490)" stroke-width="5" stroke-linecap="butt" stroke-linejoin="round" fill="none" stroke="#ff5533" d="M0 0 36.54 36.54" />
</g>
<text xml:space="preserve" transform="matrix(1 0 -0 1 0 540)" font-size="10" font-family="AGLBRN+ArialMT"><tspan y="-25.0001" x="898.6411 904.4411">04</tspan></text>
</g>
</g>
</svg>