<?xml version='1.0' encoding='utf-8'?>
<svg xmlns="http://www.w3.org/2000/svg" xmlns:ns1="http://www.inkscape.org/namespaces/inkscape" version="1.1" width="1920" height="1080" viewBox="0 0 1920 1080">
<defs>
<clipPath id="clip_1">
<path transform="matrix(1,0,0,-1,0,1080)" d="M0 1080H1920V0H0Z" />
</clipPath>
<clipPath id="clip_2">
<path transform="matrix(1,0,0,-1,0,1080)" d="M0 1080H1920V0H0Z" />
</clipPath>
<clipPath id="clip_3">
<path transform="matrix(1,0,0,-1,0,1080)" d="M0 1080H1920V0H0Z" />
</clipPath>
<clipPath id="clip_4">
<path transform="matrix(1,0,0,-1,0,1080)" d="M0 1080H1920V0H0Z" />
</clipPath>
<clipPath id="clip_5">
<path transform="matrix(1,0,0,-1,0,1080)" d="M0 1080H1920V0H0Z" />
</clipPath>
<clipPath id="clip_6">
<path transform="matrix(1,0,0,-1,0,1080)" d="M0 1080H1920V0H0Z" />
</clipPath>
<clipPath id="clip_7">
<path transform="matrix(1,0,0,-1,0,1080)" d="M0 1080H1920V0H0Z" />
</clipPath>
</defs>
<g>
<g ns1:groupmode="layer" ns1:label="Layer 1">
<g clip-path="url(#clip_1)">
<path transform="matrix(1,0,0,-1,1823.4202,75)" d="M0 0H-173.985C-185.501 0-194.836-9.335-194.836-20.85V-20.851C-194.836-32.366-185.501-41.701-173.985-41.701H0C11.515-41.701 20.85-32.366 20.85-20.851V-20.85C20.85-9.335 11.515 0 0 0M0-1C10.946-1 19.85-9.905 19.85-20.851 19.85-31.796 10.946-40.701 0-40.701H-173.985C-184.931-40.701-193.836-31.796-193.836-20.85-193.836-9.905-184.931-1-173.985-1Z" fill="#444454" />
</g>
<g clip-path="url(#clip_2)">
<path transform="matrix(1,0,0,-1,788.2072,575.0867)" d="M0 0C-9.87 0-17.899 8.029-17.899 17.898V130.43C-17.899 140.299-9.87 148.328 0 148.328H1033.26C1043.129 148.328 1051.159 140.299 1051.159 130.43V17.898C1051.159 8.029 1043.129 0 1033.26 0Z" fill="#f3f9ff" />
<path transform="matrix(1,0,0,-1,1821.4673,424.75813)" d="M0 0H-1033.26C-1044.25 0-1053.159-8.909-1053.159-19.899V-132.43C-1053.159-143.42-1044.25-152.329-1033.26-152.329H0C10.99-152.329 19.899-143.42 19.899-132.43V-19.899C19.899-8.909 10.99 0 0 0M0-4C8.767-4 15.899-11.132 15.899-19.899V-132.43C15.899-141.197 8.767-148.329 0-148.329H-1033.26C-1042.027-148.329-1049.159-141.197-1049.159-132.43V-19.899C-1049.159-11.132-1042.027-4-1033.26-4Z" fill="#ffffff" />
<path transform="matrix(1,0,0,-1,1820.921,420.75819)" d="M0 0H-1033.26C-1044.25 0-1053.159 8.909-1053.159 19.899V50.497C-1053.159 61.486-1044.25 70.396-1033.26 70.396H0C10.99 70.396 19.899 61.486 19.899 50.497V19.899C19.899 8.909 10.99 0 0 0" fill="#ffd200" />
<path transform="matrix(1,0,0,-1,1820.921,420.75819)" stroke-width="2" stroke-linecap="butt" stroke-miterlimit="10" stroke-linejoin="miter" fill="none" stroke="#f3f9ff" d="M0 0H-1033.26C-1044.25 0-1053.159 8.909-1053.159 19.899V50.497C-1053.159 61.486-1044.25 70.396-1033.26 70.396H0C10.99 70.396 19.899 61.486 19.899 50.497V19.899C19.899 8.909 10.99 0 0 0Z" />
<path transform="matrix(1,0,0,-1,788.2072,728.3386)" d="M0 0C-9.87 0-17.899 8.029-17.899 17.898V130.43C-17.899 140.299-9.87 148.328 0 148.328H1033.26C1043.129 148.328 1051.159 140.299 1051.159 130.43V17.898C1051.159 8.029 1043.129 0 1033.26 0Z" fill="#f3f9ff" />
<path transform="matrix(1,0,0,-1,1821.4673,578.0103)" d="M0 0H-1033.26C-1044.25 0-1053.159-8.909-1053.159-19.899V-132.43C-1053.159-143.42-1044.25-152.329-1033.26-152.329H0C10.99-152.329 19.899-143.42 19.899-132.43V-19.899C19.899-8.909 10.99 0 0 0M0-4C8.767-4 15.899-11.132 15.899-19.899V-132.43C15.899-141.197 8.767-148.329 0-148.329H-1033.26C-1042.027-148.329-1049.159-141.197-1049.159-132.43V-19.899C-1049.159-11.132-1042.027-4-1033.26-4Z" fill="#ffffff" />
</g>
<g clip-path="url(#clip_3)">
<path transform="matrix(1,0,0,-1,98.2809,575.0867)" d="M0 0C-9.87 0-17.899 8.029-17.899 17.898V130.43C-17.899 140.299-9.87 148.328 0 148.328H650.128C659.998 148.328 668.027 140.299 668.027 130.43V17.898C668.027 8.029 659.998 0 650.128 0Z" fill="#f3f9ff" />
<path transform="matrix(1,0,0,-1,748.4094,424.75813)" d="M0 0H-650.129C-661.118 0-670.028-8.909-670.028-19.899V-132.43C-670.028-143.42-661.118-152.329-650.129-152.329H0C10.99-152.329 19.899-143.42 19.899-132.43V-19.899C19.899-8.909 10.99 0 0 0M0-4C8.767-4 15.899-11.132 15.899-19.899V-132.43C15.899-141.197 8.767-148.329 0-148.329H-650.129C-658.895-148.329-666.028-141.197-666.028-132.43V-19.899C-666.028-11.132-658.895-4-650.129-4Z" fill="#ffffff" />
<path transform="matrix(1,0,0,-1,98.2838,420.25849)" d="M0 0C-10.7 0-19.402 8.702-19.402 19.399V49.997C-19.402 60.693-10.7 69.396-.003 69.396H650.125C660.822 69.396 669.524 60.693 669.524 49.997V19.399C669.524 8.802 660.873-3.998 650.128-4Z" fill="#1a1a1a" />
<path transform="matrix(1,0,0,-1,748.4094,350.3625)" d="M0 0H-650.129C-661.119 0-670.028-8.909-670.028-19.899V-50.497C-670.028-61.487-661.119-70.396-650.129-70.396L0-74.396C10.99-74.396 19.899-61.487 19.899-50.497V-19.899C19.899-8.909 10.99 0 0 0M0-1C10.421-1 18.899-9.478 18.899-19.899V-50.497C18.899-60.868 10.469-73.396 .006-73.396L-650.129-69.396C-660.55-69.396-669.028-60.917-669.028-50.497V-19.899C-669.028-9.478-660.55-1-650.129-1Z" fill="#f3f9ff" />
</g>
<g clip-path="url(#clip_4)">
<path transform="matrix(1,0,0,-1,98.2809,728.3386)" d="M0 0C-9.87 0-17.899 8.029-17.899 17.898V130.43C-17.899 140.299-9.87 148.328 0 148.328H650.128C659.998 148.328 668.027 140.299 668.027 130.43V17.898C668.027 8.029 659.998 0 650.128 0Z" fill="#f3f9ff" />
<path transform="matrix(1,0,0,-1,748.4094,578.0103)" d="M0 0H-650.129C-661.118 0-670.028-8.909-670.028-19.899V-132.43C-670.028-143.42-661.118-152.329-650.129-152.329H0C10.99-152.329 19.899-143.42 19.899-132.43V-19.899C19.899-8.909 10.99 0 0 0M0-4C8.767-4 15.899-11.132 15.899-19.899V-132.43C15.899-141.197 8.767-148.329 0-148.329H-650.129C-658.895-148.329-666.028-141.197-666.028-132.43V-19.899C-666.028-11.132-658.895-4-650.129-4Z" fill="#ffffff" />
</g>
<g clip-path="url(#clip_5)">
<path transform="matrix(1,0,0,-1,0,1080)" d="M859.858 624.027H844.11V608.279H859.858ZM858.858 609.28H845.11V623.028H858.858Z" />
<path transform="matrix(1,0,0,-1,0,1080)" d="M859.858 587.439H844.11V571.69107H859.858ZM858.858 572.691H845.11V586.43899H858.858Z" />
<path transform="matrix(1,0,0,-1,0,1080)" d="M859.858 551.227H844.11V535.479H859.858ZM858.858 536.479H845.11V550.227H858.858Z" />
</g>
<g clip-path="url(#clip_6)">
<path transform="matrix(1,0,0,-1,0,1080)" d="M859.858 471.173H844.11V455.42503H859.858ZM858.858 456.426H845.11V470.17399H858.858Z" />
<path transform="matrix(1,0,0,-1,0,1080)" d="M859.858 434.585H844.11V418.837H859.858ZM858.858 419.837H845.11V433.585H858.858Z" />
<path transform="matrix(1,0,0,-1,0,1080)" d="M859.858 398.373H844.11V382.625H859.858ZM858.858 383.625H845.11V397.373H858.858Z" />
<path transform="matrix(1,0,0,-1,788.2072,934.1638)" d="M0 0C-9.87 0-17.899 8.029-17.899 17.899V183.926C-17.899 193.796-9.87 201.825 0 201.825H1033.26C1043.129 201.825 1051.159 193.796 1051.159 183.926V17.899C1051.159 8.029 1043.129 0 1033.26 0Z" fill="#f3f9ff" />
<path transform="matrix(1,0,0,-1,1821.4673,730.3391)" d="M0 0H-1033.26C-1044.25 0-1053.159-8.909-1053.159-19.899V-185.926C-1053.159-196.916-1044.25-205.824-1033.26-205.824H0C10.99-205.824 19.899-196.916 19.899-185.926V-19.899C19.899-8.909 10.99 0 0 0M0-4C8.767-4 15.899-11.132 15.899-19.899V-185.926C15.899-194.692 8.767-201.824 0-201.824H-1033.26C-1042.027-201.824-1049.159-194.692-1049.159-185.926V-19.899C-1049.159-11.132-1042.027-4-1033.26-4Z" fill="#ffffff" />
<path transform="matrix(1,0,0,-1,98.2809,934.1638)" d="M0 0C-9.87 0-17.899 8.029-17.899 17.899V183.926C-17.899 193.796-9.87 201.825 0 201.825H650.128C659.998 201.825 668.027 193.796 668.027 183.926V17.899C668.027 8.029 659.998 0 650.128 0Z" fill="#f3f9ff" />
<path transform="matrix(1,0,0,-1,748.4094,730.3391)" d="M0 0H-650.129C-661.118 0-670.028-8.909-670.028-19.899V-185.926C-670.028-196.916-661.118-205.824-650.129-205.824H0C10.99-205.824 19.899-196.916 19.899-185.926V-19.899C19.899-8.909 10.99 0 0 0M0-4C8.767-4 15.899-11.132 15.899-19.899V-185.926C15.899-194.692 8.767-201.824 0-201.824H-650.129C-658.895-201.824-666.028-194.692-666.028-185.926V-19.899C-666.028-11.132-658.895-4-650.129-4Z" fill="#ffffff" />
</g>
<g clip-path="url(#clip_7)">
<path transform="matrix(1,0,0,-1,0,1080)" d="M859.858 309.388H844.11V293.64H859.858ZM858.858 294.641H845.11V308.38899H858.858Z" />
<path transform="matrix(1,0,0,-1,0,1080)" d="M859.858 272.8H844.11V257.052H859.858ZM858.858 258.052H845.11V271.8H858.858Z" />
<path transform="matrix(1,0,0,-1,0,1080)" d="M859.858 236.589H844.11V220.841H859.858ZM858.858 221.84H845.11V235.588H858.858Z" />
<path transform="matrix(1,0,0,-1,0,1080)" d="M859.858 201.772H844.11V186.024H859.858ZM858.858 187.024H845.11V200.772H858.858Z" />
</g>
</g>
<g ns1:groupmode="layer" ns1:label="Layer 2">
</g>
</g>
</svg>