<?xml version='1.0' encoding='utf-8'?>
<svg xmlns="http://www.w3.org/2000/svg" xmlns:ns1="http://www.inkscape.org/namespaces/inkscape" version="1.1" width="1920" height="1080" viewBox="0 0 1920 1080">
<defs>
<clipPath id="clip_1">
<path transform="matrix(1,0,0,-1,0,1080)" d="M0 1080H1920V0H0Z" />
</clipPath>
<clipPath id="clip_2">
<path transform="matrix(1,0,0,-1,0,1080)" d="M0 1080H1920V0H0Z" />
</clipPath>
<clipPath id="clip_3">
<path transform="matrix(1,0,0,-1,0,1080)" d="M0 1080H1920V0H0Z" />
</clipPath>
<clipPath id="clip_4">
<path transform="matrix(1,0,0,-1,0,1080)" d="M0 1080H1920V0H0Z" />
</clipPath>
<clipPath id="clip_5">
<path transform="matrix(1,0,0,-1,0,1080)" d="M0 1080H1920V0H0Z" />
</clipPath>
</defs>
<g>
<g ns1:groupmode="layer" ns1:label="Layer 1">
<g clip-path="url(#clip_1)">
<path transform="matrix(1,0,0,-1,1220.7252,411.33863)" d="M0 0C-9.87 0-17.899 8.029-17.899 17.899V90.974C-17.899 100.843-9.87 108.872 0 108.872H598.742C608.611 108.872 616.641 100.843 616.641 90.974V17.899C616.641 8.029 608.611 0 598.742 0Z" fill="#f3f9ff" />
<path transform="matrix(1,0,0,-1,1819.4674,300.46614)" d="M0 0H-598.742C-609.732 0-618.641-8.909-618.641-19.899V-92.974C-618.641-103.963-609.732-112.873-598.742-112.873H0C10.99-112.873 19.899-103.963 19.899-92.974V-19.899C19.899-8.909 10.99 0 0 0M0-4C8.767-4 15.899-11.132 15.899-19.899V-92.974C15.899-101.74 8.767-108.873 0-108.873H-598.742C-607.509-108.873-614.641-101.74-614.641-92.974V-19.899C-614.641-11.132-607.509-4-598.742-4Z" fill="#ffffff" />
<path transform="matrix(1,0,0,-1,615.3776,411.33863)" d="M0 0C-9.87 0-17.899 8.029-17.899 17.899V90.974C-17.899 100.843-9.87 108.872 0 108.872H565.55C575.419 108.872 583.448 100.843 583.448 90.974V17.899C583.448 8.029 575.419 0 565.55 0Z" fill="#f3f9ff" />
<path transform="matrix(1,0,0,-1,1180.9274,300.46614)" d="M0 0H-565.55C-576.54 0-585.449-8.909-585.449-19.899V-92.974C-585.449-103.963-576.54-112.873-565.55-112.873H0C10.99-112.873 19.899-103.963 19.899-92.974V-19.899C19.899-8.909 10.99 0 0 0M0-4C8.767-4 15.899-11.132 15.899-19.899V-92.974C15.899-101.74 8.767-108.873 0-108.873H-565.55C-574.317-108.873-581.449-101.74-581.449-92.974V-19.899C-581.449-11.132-574.317-4-565.55-4Z" fill="#ffffff" />
<path transform="matrix(1,0,0,-1,575.5793,413.33863)" d="M0 0H-479.299C-490.288 0-499.198 8.909-499.198 19.899V92.974C-499.198 103.963-490.288 112.872-479.299 112.872H0C10.99 112.872 19.899 103.963 19.899 92.974V19.899C19.899 8.909 10.99 0 0 0" fill="#fff083" />
<path transform="matrix(1,0,0,-1,575.5793,413.33863)" stroke-width="2" stroke-linecap="butt" stroke-miterlimit="10" stroke-linejoin="miter" fill="none" stroke="#f3f9ff" d="M0 0H-479.299C-490.288 0-499.198 8.909-499.198 19.899V92.974C-499.198 103.963-490.288 112.872-479.299 112.872H0C10.99 112.872 19.899 103.963 19.899 92.974V19.899C19.899 8.909 10.99 0 0 0Z" />
<path transform="matrix(1,0,0,-1,1819.4673,296.46614)" d="M0 0H-594.339C-605.329 0-614.238 8.909-614.238 19.899V50.497C-614.238 61.486-605.329 70.396-594.339 70.396H0C10.99 70.396 19.899 61.486 19.899 50.497V19.899C19.899 8.909 10.99 0 0 0" fill="#00de96" />
<path transform="matrix(1,0,0,-1,1819.4673,296.46614)" stroke-width="2" stroke-linecap="butt" stroke-miterlimit="10" stroke-linejoin="miter" fill="none" stroke="#f3f9ff" d="M0 0H-594.339C-605.329 0-614.238 8.909-614.238 19.899V50.497C-614.238 61.486-605.329 70.396-594.339 70.396H0C10.99 70.396 19.899 61.486 19.899 50.497V19.899C19.899 8.909 10.99 0 0 0Z" />
<path transform="matrix(1,0,0,-1,1179.1038,296.46614)" d="M0 0H-557.857C-568.847 0-577.756 8.909-577.756 19.899V50.497C-577.756 61.486-568.847 70.396-557.857 70.396H0C10.99 70.396 19.899 61.486 19.899 50.497V19.899C19.899 8.909 10.99 0 0 0" fill="#ff5c63" />
<path transform="matrix(1,0,0,-1,1179.1038,296.46614)" stroke-width="2" stroke-linecap="butt" stroke-miterlimit="10" stroke-linejoin="miter" fill="none" stroke="#f3f9ff" d="M0 0H-557.857C-568.847 0-577.756 8.909-577.756 19.899V50.497C-577.756 61.486-568.847 70.396-557.857 70.396H0C10.99 70.396 19.899 61.486 19.899 50.497V19.899C19.899 8.909 10.99 0 0 0Z" />
</g>
<g clip-path="url(#clip_2)">
<path transform="matrix(1,0,0,-1,1220.7252,588.20779)" d="M0 0C-9.87 0-17.899 8.029-17.899 17.898V155.141C-17.899 165.011-9.87 173.04 0 173.04H598.742C608.611 173.04 616.641 165.011 616.641 155.141V17.898C616.641 8.029 608.611 0 598.742 0Z" fill="#f3f9ff" />
<path transform="matrix(1,0,0,-1,1819.4674,413.16804)" d="M0 0H-598.742C-609.732 0-618.641-8.909-618.641-19.899V-157.141C-618.641-168.131-609.732-177.04-598.742-177.04H0C10.99-177.04 19.899-168.131 19.899-157.141V-19.899C19.899-8.909 10.99 0 0 0M0-4C8.767-4 15.899-11.132 15.899-19.899V-157.141C15.899-165.908 8.767-173.04 0-173.04H-598.742C-607.509-173.04-614.641-165.908-614.641-157.141V-19.899C-614.641-11.132-607.509-4-598.742-4Z" fill="#ffffff" />
<path transform="matrix(1,0,0,-1,615.3776,588.20779)" d="M0 0C-9.87 0-17.899 8.029-17.899 17.898V155.141C-17.899 165.011-9.87 173.04 0 173.04H565.55C575.419 173.04 583.448 165.011 583.448 155.141V17.898C583.448 8.029 575.419 0 565.55 0Z" fill="#f3f9ff" />
<path transform="matrix(1,0,0,-1,1180.9274,413.16804)" d="M0 0H-565.55C-576.54 0-585.449-8.909-585.449-19.899V-157.141C-585.449-168.131-576.54-177.04-565.55-177.04H0C10.99-177.04 19.899-168.131 19.899-157.141V-19.899C19.899-8.909 10.99 0 0 0M0-4C8.767-4 15.899-11.132 15.899-19.899V-157.141C15.899-165.908 8.767-173.04 0-173.04H-565.55C-574.317-173.04-581.449-165.908-581.449-157.141V-19.899C-581.449-11.132-574.317-4-565.55-4Z" fill="#ffffff" />
<path transform="matrix(1,0,0,-1,575.5793,590.2081)" d="M0 0H-479.299C-490.288 0-499.198 8.909-499.198 19.899V157.141C-499.198 168.131-490.288 177.04-479.299 177.04H0C10.99 177.04 19.899 168.131 19.899 157.141V19.899C19.899 8.909 10.99 0 0 0" fill="#fff083" />
<path transform="matrix(1,0,0,-1,575.5793,590.2081)" stroke-width="2" stroke-linecap="butt" stroke-miterlimit="10" stroke-linejoin="miter" fill="none" stroke="#f3f9ff" d="M0 0H-479.299C-490.288 0-499.198 8.909-499.198 19.899V157.141C-499.198 168.131-490.288 177.04-479.299 177.04H0C10.99 177.04 19.899 168.131 19.899 157.141V19.899C19.899 8.909 10.99 0 0 0Z" />
</g>
<g clip-path="url(#clip_3)">
<path transform="matrix(1,0,0,-1,575.5793,296.46614)" d="M0 0H-479.299C-490.288 0-499.198 8.909-499.198 19.899V50.497C-499.198 61.486-490.288 70.396-479.299 70.396H0C10.99 70.396 19.899 61.486 19.899 50.497V19.899C19.899 8.909 10.99 0 0 0" fill="#fff083" />
<path transform="matrix(1,0,0,-1,575.5793,296.46614)" stroke-width="2" stroke-linecap="butt" stroke-miterlimit="10" stroke-linejoin="miter" fill="none" stroke="#f3f9ff" d="M0 0H-479.299C-490.288 0-499.198 8.909-499.198 19.899V50.497C-499.198 61.486-490.288 70.396-479.299 70.396H0C10.99 70.396 19.899 61.486 19.899 50.497V19.899C19.899 8.909 10.99 0 0 0Z" />
</g>
<g clip-path="url(#clip_4)">
<path transform="matrix(1,0,0,-1,1220.7252,759.6277)" d="M0 0C-9.87 0-17.899 8.029-17.899 17.899V149.521C-17.899 159.391-9.87 167.42 0 167.42H598.742C608.611 167.42 616.641 159.391 616.641 149.521V17.899C616.641 8.029 608.611 0 598.742 0Z" fill="#f3f9ff" />
<path transform="matrix(1,0,0,-1,1819.4674,590.208)" d="M0 0H-598.742C-609.732 0-618.641-8.909-618.641-19.899V-151.521C-618.641-162.51-609.732-171.419-598.742-171.419H0C10.99-171.419 19.899-162.51 19.899-151.521V-19.899C19.899-8.909 10.99 0 0 0M0-4C8.767-4 15.899-11.132 15.899-19.899V-151.521C15.899-160.287 8.767-167.419 0-167.419H-598.742C-607.509-167.419-614.641-160.287-614.641-151.521V-19.899C-614.641-11.132-607.509-4-598.742-4Z" fill="#ffffff" />
<path transform="matrix(1,0,0,-1,615.3776,759.6277)" d="M0 0C-9.87 0-17.899 8.029-17.899 17.899V149.521C-17.899 159.391-9.87 167.42 0 167.42H565.55C575.419 167.42 583.448 159.391 583.448 149.521V17.899C583.448 8.029 575.419 0 565.55 0Z" fill="#f3f9ff" />
<path transform="matrix(1,0,0,-1,1180.9274,590.208)" d="M0 0H-565.55C-576.54 0-585.449-8.909-585.449-19.899V-151.521C-585.449-162.51-576.54-171.419-565.55-171.419H0C10.99-171.419 19.899-162.51 19.899-151.521V-19.899C19.899-8.909 10.99 0 0 0M0-4C8.767-4 15.899-11.132 15.899-19.899V-151.521C15.899-160.287 8.767-167.419 0-167.419H-565.55C-574.317-167.419-581.449-160.287-581.449-151.521V-19.899C-581.449-11.132-574.317-4-565.55-4Z" fill="#ffffff" />
<path transform="matrix(1,0,0,-1,575.5793,761.62747)" d="M0 0H-479.299C-490.288 0-499.198 8.909-499.198 19.899V151.52C-499.198 162.51-490.288 171.419-479.299 171.419H0C10.99 171.419 19.899 162.51 19.899 151.52V19.899C19.899 8.909 10.99 0 0 0" fill="#fff083" />
<path transform="matrix(1,0,0,-1,575.5793,761.62747)" stroke-width="2" stroke-linecap="butt" stroke-miterlimit="10" stroke-linejoin="miter" fill="none" stroke="#f3f9ff" d="M0 0H-479.299C-490.288 0-499.198 8.909-499.198 19.899V151.52C-499.198 162.51-490.288 171.419-479.299 171.419H0C10.99 171.419 19.899 162.51 19.899 151.52V19.899C19.899 8.909 10.99 0 0 0Z" />
<path transform="matrix(1,0,0,-1,1220.7252,931.04666)" d="M0 0C-9.87 0-17.899 8.029-17.899 17.898V149.52C-17.899 159.39-9.87 167.419 0 167.419H598.742C608.611 167.419 616.641 159.39 616.641 149.52V17.898C616.641 8.029 608.611 0 598.742 0Z" fill="#f3f9ff" />
<path transform="matrix(1,0,0,-1,1819.4674,761.62747)" d="M0 0H-598.742C-609.732 0-618.641-8.909-618.641-19.899V-151.52C-618.641-162.51-609.732-171.419-598.742-171.419H0C10.99-171.419 19.899-162.51 19.899-151.52V-19.899C19.899-8.909 10.99 0 0 0M0-4C8.767-4 15.899-11.132 15.899-19.899V-151.52C15.899-160.287 8.767-167.419 0-167.419H-598.742C-607.509-167.419-614.641-160.287-614.641-151.52V-19.899C-614.641-11.132-607.509-4-598.742-4Z" fill="#ffffff" />
<path transform="matrix(1,0,0,-1,615.3776,931.04666)" d="M0 0C-9.87 0-17.899 8.029-17.899 17.898V149.52C-17.899 159.39-9.87 167.419 0 167.419H565.55C575.419 167.419 583.448 159.39 583.448 149.52V17.898C583.448 8.029 575.419 0 565.55 0Z" fill="#f3f9ff" />
<path transform="matrix(1,0,0,-1,1180.9274,761.62747)" d="M0 0H-565.55C-576.54 0-585.449-8.909-585.449-19.899V-151.52C-585.449-162.51-576.54-171.419-565.55-171.419H0C10.99-171.419 19.899-162.51 19.899-151.52V-19.899C19.899-8.909 10.99 0 0 0M0-4C8.767-4 15.899-11.132 15.899-19.899V-151.52C15.899-160.287 8.767-167.419 0-167.419H-565.55C-574.317-167.419-581.449-160.287-581.449-151.52V-19.899C-581.449-11.132-574.317-4-565.55-4Z" fill="#ffffff" />
<path transform="matrix(1,0,0,-1,575.5793,933.0468)" d="M0 0H-479.299C-490.288 0-499.198 8.909-499.198 19.899V151.52C-499.198 162.51-490.288 171.419-479.299 171.419H0C10.99 171.419 19.899 162.51 19.899 151.52V19.899C19.899 8.909 10.99 0 0 0" fill="#fff083" />
<path transform="matrix(1,0,0,-1,575.5793,933.0468)" stroke-width="2" stroke-linecap="butt" stroke-miterlimit="10" stroke-linejoin="miter" fill="none" stroke="#f3f9ff" d="M0 0H-479.299C-490.288 0-499.198 8.909-499.198 19.899V151.52C-499.198 162.51-490.288 171.419-479.299 171.419H0C10.99 171.419 19.899 162.51 19.899 151.52V19.899C19.899 8.909 10.99 0 0 0Z" />
</g>
<g clip-path="url(#clip_5)">
<path transform="matrix(1,0,0,-1,1823.42,75)" d="M0 0H-173.985C-185.5 0-194.835-9.335-194.835-20.85V-20.851C-194.835-32.366-185.5-41.701-173.985-41.701H0C11.516-41.701 20.851-32.366 20.851-20.851V-20.85C20.851-9.335 11.516 0 0 0M0-1C10.946-1 19.851-9.905 19.851-20.851 19.851-31.796 10.946-40.701 0-40.701H-173.985C-184.931-40.701-193.835-31.796-193.835-20.85-193.835-9.905-184.931-1-173.985-1Z" fill="#444454" />
</g>
</g>
<g ns1:groupmode="layer" ns1:label="Layer 2">
</g>
</g>
</svg>