<?xml version='1.0' encoding='utf-8'?>
<svg xmlns="http://www.w3.org/2000/svg" xmlns:ns1="http://www.inkscape.org/namespaces/inkscape" version="1.1" width="960" height="540" viewBox="0 0 960 540">
<defs>
<clipPath id="clip_1">
<path transform="matrix(1,0,0,-1,0,540)" d="M0 540H960V0H0Z" />
</clipPath>
<clipPath id="clip_2">
<path transform="matrix(1,0,0,-1,0,540)" d="M-60 1800H-1020V2340H-60Z" />
</clipPath>
<clipPath id="clip_3">
<path transform="matrix(1,0,0,-1,0,540)" d="M-938.88 395.28C-767.11 395.28-599.91 429.16-441.94 495.97-289.88 560.29-153.54 652.14-36.71 768.97 80.12 885.79 171.96 1022.13 236.28 1174.19 303.09 1332.16 336.97 1499.35 336.97 1671.12 336.97 1842.89 303.09 2010.09 236.28 2168.07 171.96 2320.13 80.11 2456.47-36.73 2573.3-153.56 2690.12-289.89 2781.96-441.93 2846.27-599.91 2913.09-767.1 2946.97-938.88 2946.97-1110.64 2946.97-1277.84 2913.09-1435.82 2846.27-1587.87 2781.96-1724.2 2690.12-1841.03 2573.29-1957.87 2456.46-2049.71 2320.12-2114.03 2168.06-2180.84 2010.1-2214.72 1842.9-2214.72 1671.12-2214.72 1499.36-2180.84 1332.16-2114.03 1174.18-2049.71 1022.13-1957.86 885.79-1841.04 768.97-1724.19 652.13-1587.86 560.28-1435.8 495.97-1277.85 429.16-1110.65 395.28-938.88 395.28" />
</clipPath>
<clipPath id="clip_4">
<path transform="matrix(1,0,0,-1,0,540)" d="M0 540H960V0H0Z" />
</clipPath>
<clipPath id="clip_5">
<path transform="matrix(1,0,0,-1,0,540)" d="M-60 1800H-1020V2340H-60Z" />
</clipPath>
<clipPath id="clip_6">
<path transform="matrix(1,0,0,-1,0,540)" d="M-2214.72 395.28H336.97V2946.97H-2214.72Z" />
</clipPath>
<clipPath id="clip_7">
<path transform="matrix(1,0,0,-1,0,540)" d="M-938.88 395.28C-767.11 395.28-599.91 429.16-441.94 495.97-289.88 560.29-153.54 652.14-36.71 768.97 80.12 885.79 171.96 1022.13 236.28 1174.19 303.09 1332.16 336.97 1499.35 336.97 1671.12 336.97 1842.89 303.09 2010.09 236.28 2168.07 171.96 2320.13 80.11 2456.47-36.73 2573.3-153.56 2690.12-289.89 2781.96-441.93 2846.27-599.91 2913.09-767.1 2946.97-938.88 2946.97-1110.64 2946.97-1277.84 2913.09-1435.82 2846.27-1587.87 2781.96-1724.2 2690.12-1841.03 2573.29-1957.87 2456.46-2049.71 2320.12-2114.03 2168.06-2180.84 2010.1-2214.72 1842.9-2214.72 1671.12-2214.72 1499.36-2180.84 1332.16-2114.03 1174.18-2049.71 1022.13-1957.86 885.79-1841.04 768.97-1724.19 652.13-1587.86 560.28-1435.8 495.97-1277.85 429.16-1110.65 395.28-938.88 395.28" />
</clipPath>
<clipPath id="clip_8">
<path transform="matrix(1,0,0,-1,0,540)" d="M0 540H960V0H0Z" />
</clipPath>
<clipPath id="clip_9">
<path transform="matrix(1,0,0,-1,0,540)" d="M0 540H960V0H0Z" />
</clipPath>
<clipPath id="clip_10">
<path transform="matrix(1,0,0,-1,0,540)" d="M0 540H960V0H0Z" />
</clipPath>
<clipPath id="clip_11">
<path transform="matrix(1,0,0,-1,0,540)" d="M0 540H960V0H0Z" />
</clipPath>
<clipPath id="clip_12">
<path transform="matrix(1,0,0,-1,0,540)" d="M0 540H960V0H0Z" />
</clipPath>
<clipPath id="clip_13">
<path transform="matrix(1,0,0,-1,0,540)" d="M0 540H960V0H0Z" />
</clipPath>
<clipPath id="clip_14">
<path transform="matrix(1,0,0,-1,0,540)" d="M0 540H960V0H0Z" />
</clipPath>
</defs>
<g>
<g ns1:groupmode="layer" ns1:label="Layer 1">
<path transform="matrix(1,0,0,-1,0,540)" d="M0 0H960V540H0Z" fill="#3333ff" />
<g clip-path="url(#clip_1)">
<g clip-path="url(#clip_2)">
<g clip-path="url(#clip_3)">
</g>
</g>
</g>
<g clip-path="url(#clip_4)">
<g clip-path="url(#clip_5)">
<g opacity=".300003" style="mix-blend-mode:color-burn">
<g clip-path="url(#clip_6)">
<g clip-path="url(#clip_7)">
</g>
</g>
</g>
</g>
<path transform="matrix(1,0,0,-1,718.65,30)" d="M0 0V0C0 4.74 3.84 8.58 8.58 8.58H104.14C108.88 8.58 112.72 4.74 112.72 0 112.72-4.74 108.88-8.58 104.14-8.58H8.58C3.84-8.58 0-4.74 0 0" fill="#ffffff" />
</g>
<text fill="#3333ff" xml:space="preserve" transform="matrix(1 0 -0 1 0 540)" font-size="10" font-family="VWYXZX+Arial-BoldMT" font-weight="bold"><tspan y="-506.4185" x="725.7217 732.32669 736.2426 742.39266 745.2946 750.9456 756.6856 760.01559 762.79556 769.4005 773.3705 779.0375 784.6385 790.2655 796.44656 799.9415 805.58157 809.0735 811.9335 818.1235">Project Presentation</tspan></text>
<text fill="#ffffff" xml:space="preserve" transform="matrix(1 0 -0 1 0 540)" font-size="10" font-family="AGLBRN+ArialMT"><tspan y="-506.4185" x="849.2317 855.95169 861.56869 866.65469 871.67166 873.9587 879.56869 885.1307 887.9107 894.07968 896.31069 899.3257 902.1827 904.4407">Session Tittle</tspan><tspan y="-24.998505" x="898.64169 904.44168">04</tspan></text>
<text fill="#ffffff" xml:space="preserve" transform="matrix(1 0 -0 1 0 540)" font-size="10" font-family="ProximaNova-Bold" font-weight="bold"><tspan y="-25.428505" x="50.001649 57.53565 63.57165 69.671649 75.68365 81.76365 84.323657 90.38365 97.78665 105.26065 108.06765 114.12765 119.90264 127.30565 134.59566 137.43666">©2025 SUN.STUDIO</tspan></text>
<text fill="#ffffff" xml:space="preserve" transform="matrix(1 0 -0 1 0 540)" font-size="10" font-family="ProximaNova-Regular"><tspan y="-25.428505" x="145.08165 147.66165 154.39765 156.70764 158.95764 161.53765 164.91664 167.22664 173.03664 178.65464 181.87264 186.52265 189.10265 192.38665 198.07665 202.77065 208.47064 212.19765 217.06066 222.77967"> All rights reserved</tspan></text>
<text fill="#ffffff" xml:space="preserve" transform="matrix(1 0 -0 1 0 540)" font-size="20" font-family="AGLBRN+ArialMT"><tspan y="-475.6802" x="50 55.36 66.19 71.55 82.57 89.366 105.85999 116.67199 122.13999 126.50199 137.512 148.63599 154.19599 167.39398 172.88199 179.696 190.616 200.648 206.008 216.902 223.384 234.506 240.066 253.32199 257.52198 261.87196 272.81196">Information Structure Slide</tspan></text>
<text fill="#ffffff" xml:space="preserve" transform="matrix(1 0 -0 1 0 540)" font-size="10" font-family="AGLBRN+ArialMT"><tspan y="-458.9783" x="50 55.888 61.479 67.039 70.369 73.149 77.947 83.342998 88.342998 91.12299 94.024997 99.58499 104.384998 109.97399 115.47599 122.63899 128.04 133.028 138.005">Your key takeaways.</tspan></text>
<g clip-path="url(#clip_8)">
<path transform="matrix(1,0,0,-1,546.51,332)" d="M0 0C0-3.17 1.94-5.9 4.69-7.07 6.53-7.85 7.68-9.72 7.68-11.72V-27.49C7.68-32.19 3.86-36.01-.85-36.01H-131.3C-136.01-36.01-139.82-32.19-139.82-27.49V-11.72C-139.82-9.72-138.68-7.85-136.83-7.07-134.08-5.9-132.15-3.17-132.15 0-132.15 3.17-134.08 5.9-136.83 7.06-138.68 7.85-139.82 9.72-139.82 11.72V28.97C-139.82 33.68-136.01 37.49-131.3 37.49H-.85C3.86 37.49 7.68 33.68 7.68 28.97V11.72C7.68 9.72 6.53 7.85 4.69 7.06 1.94 5.9 0 3.17 0 0" fill="#ffffff" />
</g>
<text fill="#3333ff" xml:space="preserve" transform="matrix(1 0 -0 1 0 540)" font-size="20" font-family="ProximaNova-Semibold" font-weight="bold"><tspan y="-209.9507" x="423.188 433.25199 444.63798 451.36997 462.42396 479.08396 484.22395 488.92396 500.50196 509.79997 521.01998">Lorem ipsum</tspan></text>
<text fill="#3333ff" xml:space="preserve" transform="matrix(1 0 -0 1 0 540)" font-size="10" font-family="ProximaNova-Regular"><tspan y="-196.9507" x="449.7749 456.3549 462.1049 464.3549 470.09489 472.34489 476.99488 481.9449 484.1949 489.7049 495.4449 498.02488 503.65489 505.90489 508.15489">Adipiscing elit</tspan></text>
<g clip-path="url(#clip_9)">
<path transform="matrix(1,0,0,-1,406.68,336.26)" d="M0 0C-2.35 0-4.26 1.91-4.26 4.26-4.26 6.62-2.35 8.53 0 8.53 2.35 8.53 4.26 6.62 4.26 4.26 4.26 1.91 2.35 0 0 0" fill="#8585ff" />
<path transform="matrix(1,0,0,-1,403.33,332)" d="M0 0C0 1.85 1.5 3.35 3.35 3.35 5.21 3.35 6.71 1.85 6.71 0 6.71-1.85 5.21-3.35 3.35-3.35 1.5-3.35 0-1.85 0 0" fill="#aeaeff" />
<path transform="matrix(1,0,0,-1,404.24,332)" d="M0 0C0 1.35 1.09 2.44 2.44 2.44 3.79 2.44 4.89 1.35 4.89 0 4.89-1.35 3.79-2.44 2.44-2.44 1.09-2.44 0-1.35 0 0" fill="#d6d6ff" />
<path transform="matrix(1,0,0,-1,405.15,332)" d="M0 0C0 .846 .689 1.53 1.53 1.53 2.38 1.53 3.07 .846 3.07 0 3.07-.846 2.38-1.53 1.53-1.53 .689-1.53 0-.846 0 0" fill="#ffffff" />
<path transform="matrix(1,0,0,-1,554.18,336.26)" d="M0 0C2.35 0 4.26 1.91 4.26 4.26 4.26 6.62 2.35 8.53 0 8.53-2.35 8.53-4.26 6.62-4.26 4.26-4.26 1.91-2.35 0 0 0" fill="#8585ff" />
<path transform="matrix(1,0,0,-1,557.54,332)" d="M0 0C0 1.85-1.5 3.35-3.35 3.35-5.21 3.35-6.71 1.85-6.71 0-6.71-1.85-5.21-3.35-3.35-3.35-1.5-3.35 0-1.85 0 0" fill="#aeaeff" />
<path transform="matrix(1,0,0,-1,556.63,332)" d="M0 0C0 1.35-1.09 2.44-2.44 2.44-3.79 2.44-4.89 1.35-4.89 0-4.89-1.35-3.79-2.44-2.44-2.44-1.09-2.44 0-1.35 0 0" fill="#d6d6ff" />
<path transform="matrix(1,0,0,-1,555.72,332)" d="M0 0C0 .846-.688 1.53-1.53 1.53-2.38 1.53-3.07 .846-3.07 0-3.07-.846-2.38-1.53-1.53-1.53-.688-1.53 0-.846 0 0" fill="#ffffff" />
<path transform="matrix(1,0,0,-1,546.51,209.48)" d="M0 0C0-3.17 1.94-5.9 4.69-7.07 6.53-7.85 7.68-9.72 7.68-11.72V-27.49C7.68-32.19 3.86-36.01-.85-36.01H-131.3C-136.01-36.01-139.82-32.19-139.82-27.49V-11.72C-139.82-9.72-138.68-7.85-136.83-7.07-134.08-5.9-132.15-3.17-132.15 0-132.15 3.17-134.08 5.9-136.83 7.06-138.68 7.85-139.82 9.72-139.82 11.72V28.97C-139.82 33.68-136.01 37.49-131.3 37.49H-.85C3.86 37.49 7.68 33.68 7.68 28.97V11.72C7.68 9.72 6.53 7.85 4.69 7.06 1.94 5.9 0 3.17 0 0" fill="#ffffff" />
</g>
<text fill="#3333ff" xml:space="preserve" transform="matrix(1 0 -0 1 0 540)" font-size="20" font-family="ProximaNova-Semibold" font-weight="bold"><tspan y="-332.4692" x="423.188 433.25199 444.63798 451.36997 462.42396 479.08396 484.22395 488.92396 500.50196 509.79997 521.01998">Lorem ipsum</tspan></text>
<text fill="#3333ff" xml:space="preserve" transform="matrix(1 0 -0 1 0 540)" font-size="10" font-family="ProximaNova-Regular"><tspan y="-319.4692" x="449.7749 456.3549 462.1049 464.3549 470.09489 472.34489 476.99488 481.9449 484.1949 489.7049 495.4449 498.02488 503.65489 505.90489 508.15489">Adipiscing elit</tspan></text>
<g clip-path="url(#clip_10)">
<path transform="matrix(1,0,0,-1,406.68,213.75)" d="M0 0C-2.35 0-4.26 1.91-4.26 4.26-4.26 6.62-2.35 8.53 0 8.53 2.35 8.53 4.26 6.62 4.26 4.26 4.26 1.91 2.35 0 0 0" fill="#8585ff" />
<path transform="matrix(1,0,0,-1,403.33,209.48)" d="M0 0C0 1.85 1.5 3.35 3.35 3.35 5.21 3.35 6.71 1.85 6.71 0 6.71-1.85 5.21-3.35 3.35-3.35 1.5-3.35 0-1.85 0 0" fill="#aeaeff" />
<path transform="matrix(1,0,0,-1,404.24,209.48)" d="M0 0C0 1.35 1.09 2.44 2.44 2.44 3.79 2.44 4.89 1.35 4.89 0 4.89-1.35 3.79-2.44 2.44-2.44 1.09-2.44 0-1.35 0 0" fill="#d6d6ff" />
<path transform="matrix(1,0,0,-1,405.15,209.48)" d="M0 0C0 .846 .689 1.53 1.53 1.53 2.38 1.53 3.07 .846 3.07 0 3.07-.846 2.38-1.53 1.53-1.53 .689-1.53 0-.846 0 0" fill="#ffffff" />
<path transform="matrix(1,0,0,-1,554.18,213.75)" d="M0 0C2.35 0 4.26 1.91 4.26 4.26 4.26 6.62 2.35 8.53 0 8.53-2.35 8.53-4.26 6.62-4.26 4.26-4.26 1.91-2.35 0 0 0" fill="#8585ff" />
<path transform="matrix(1,0,0,-1,557.54,209.48)" d="M0 0C0 1.85-1.5 3.35-3.35 3.35-5.21 3.35-6.71 1.85-6.71 0-6.71-1.85-5.21-3.35-3.35-3.35-1.5-3.35 0-1.85 0 0" fill="#aeaeff" />
<path transform="matrix(1,0,0,-1,556.63,209.48)" d="M0 0C0 1.35-1.09 2.44-2.44 2.44-3.79 2.44-4.89 1.35-4.89 0-4.89-1.35-3.79-2.44-2.44-2.44-1.09-2.44 0-1.35 0 0" fill="#d6d6ff" />
<path transform="matrix(1,0,0,-1,555.72,209.48)" d="M0 0C0 .846-.688 1.53-1.53 1.53-2.38 1.53-3.07 .846-3.07 0-3.07-.846-2.38-1.53-1.53-1.53-.688-1.53 0-.846 0 0" fill="#ffffff" />
<path transform="matrix(1,0,0,-1,783,184.51)" d="M0 0H-130.45C-135.16 0-138.97 3.82-138.97 8.53V24.29C-138.97 26.29-137.83 28.16-135.98 28.94-133.23 30.11-131.3 32.84-131.3 36.01-131.3 39.18-133.23 41.91-135.98 43.08-137.83 43.86-138.97 45.73-138.97 47.73V64.98C-138.97 69.69-135.16 73.5-130.45 73.5H0C4.71 73.5 8.53 69.69 8.53 64.98V8.53C8.53 3.82 4.71 0 0 0" fill="#ffffff" />
</g>
<text fill="#3333ff" xml:space="preserve" transform="matrix(1 0 -0 1 0 540)" font-size="20" font-family="ProximaNova-Semibold" font-weight="bold"><tspan y="-393.4526" x="660.5303 670.59426 681.9803 688.7123 699.7663 716.4263 721.5663 726.2663 737.8443 747.14236 758.3623">Lorem ipsum</tspan></text>
<text fill="#3333ff" xml:space="preserve" transform="matrix(1 0 -0 1 0 540)" font-size="10" font-family="ProximaNova-Regular"><tspan y="-380.4526" x="687.1172 693.6972 699.4472 701.6972 707.4372 709.6872 714.3372 719.28726 721.53726 727.04727 732.78726 735.36727 740.99728 743.24728 745.49728">Adipiscing elit</tspan></text>
<g clip-path="url(#clip_11)">
<path transform="matrix(1,0,0,-1,644.03,152.76)" d="M0 0C-2.35 0-4.26 1.91-4.26 4.26-4.26 6.62-2.35 8.53 0 8.53 2.35 8.53 4.26 6.62 4.26 4.26 4.26 1.91 2.35 0 0 0" fill="#8585ff" />
<path transform="matrix(1,0,0,-1,640.67,148.5)" d="M0 0C0 1.85 1.5 3.35 3.35 3.35 5.21 3.35 6.71 1.85 6.71 0 6.71-1.85 5.21-3.35 3.35-3.35 1.5-3.35 0-1.85 0 0" fill="#aeaeff" />
<path transform="matrix(1,0,0,-1,641.58,148.5)" d="M0 0C0 1.35 1.09 2.44 2.44 2.44 3.79 2.44 4.89 1.35 4.89 0 4.89-1.35 3.79-2.44 2.44-2.44 1.09-2.44 0-1.35 0 0" fill="#d6d6ff" />
<path transform="matrix(1,0,0,-1,642.49,148.5)" d="M0 0C0 .846 .688 1.53 1.53 1.53 2.38 1.53 3.07 .846 3.07 0 3.07-.846 2.38-1.53 1.53-1.53 .688-1.53 0-.846 0 0" fill="#ffffff" />
<path transform="matrix(1,0,0,-1,783,306.75)" d="M0 0H-130.45C-135.16 0-138.97 3.82-138.97 8.53V24.29C-138.97 26.29-137.83 28.16-135.98 28.94-133.23 30.11-131.3 32.84-131.3 36.01-131.3 39.18-133.23 41.91-135.98 43.08-137.83 43.86-138.97 45.73-138.97 47.73V64.98C-138.97 69.69-135.16 73.5-130.45 73.5H0C4.71 73.5 8.53 69.69 8.53 64.98V8.53C8.53 3.82 4.71 0 0 0" fill="#ffffff" />
</g>
<text fill="#3333ff" xml:space="preserve" transform="matrix(1 0 -0 1 0 540)" font-size="20" font-family="ProximaNova-Semibold" font-weight="bold"><tspan y="-271.209" x="660.5303 670.59426 681.9803 688.7123 699.7663 716.4263 721.5663 726.2663 737.8443 747.14236 758.3623">Lorem ipsum</tspan></text>
<text fill="#3333ff" xml:space="preserve" transform="matrix(1 0 -0 1 0 540)" font-size="10" font-family="ProximaNova-Regular"><tspan y="-258.209" x="687.1172 693.6972 699.4472 701.6972 707.4372 709.6872 714.3372 719.28726 721.53726 727.04727 732.78726 735.36727 740.99728 743.24728 745.49728">Adipiscing elit</tspan></text>
<g clip-path="url(#clip_12)">
<path transform="matrix(1,0,0,-1,644.03,275.01)" d="M0 0C-2.35 0-4.26 1.91-4.26 4.26-4.26 6.62-2.35 8.53 0 8.53 2.35 8.53 4.26 6.62 4.26 4.26 4.26 1.91 2.35 0 0 0" fill="#8585ff" />
<path transform="matrix(1,0,0,-1,640.67,270.74)" d="M0 0C0 1.85 1.5 3.35 3.35 3.35 5.21 3.35 6.71 1.85 6.71 0 6.71-1.85 5.21-3.35 3.35-3.35 1.5-3.35 0-1.85 0 0" fill="#aeaeff" />
<path transform="matrix(1,0,0,-1,641.58,270.74)" d="M0 0C0 1.35 1.09 2.44 2.44 2.44 3.79 2.44 4.89 1.35 4.89 0 4.89-1.35 3.79-2.44 2.44-2.44 1.09-2.44 0-1.35 0 0" fill="#d6d6ff" />
<path transform="matrix(1,0,0,-1,642.49,270.74)" d="M0 0C0 .846 .688 1.53 1.53 1.53 2.38 1.53 3.07 .846 3.07 0 3.07-.846 2.38-1.53 1.53-1.53 .688-1.53 0-.846 0 0" fill="#ffffff" />
<path transform="matrix(1,0,0,-1,783,429)" d="M0 0H-130.45C-135.16 0-138.97 3.82-138.97 8.53V24.29C-138.97 26.29-137.83 28.16-135.98 28.94-133.23 30.11-131.3 32.84-131.3 36.01-131.3 39.18-133.23 41.91-135.98 43.08-137.83 43.86-138.97 45.73-138.97 47.73V64.98C-138.97 69.69-135.16 73.5-130.45 73.5H0C4.71 73.5 8.53 69.69 8.53 64.98V8.53C8.53 3.82 4.71 0 0 0" fill="#ffffff" />
</g>
<text fill="#3333ff" xml:space="preserve" transform="matrix(1 0 -0 1 0 540)" font-size="20" font-family="ProximaNova-Semibold" font-weight="bold"><tspan y="-148.9653" x="660.5303 670.59426 681.9803 688.7123 699.7663 716.4263 721.5663 726.2663 737.8443 747.14236 758.3623">Lorem ipsum</tspan></text>
<text fill="#3333ff" xml:space="preserve" transform="matrix(1 0 -0 1 0 540)" font-size="10" font-family="ProximaNova-Regular"><tspan y="-135.9653" x="687.1172 693.6972 699.4472 701.6972 707.4372 709.6872 714.3372 719.28726 721.53726 727.04727 732.78726 735.36727 740.99728 743.24728 745.49728">Adipiscing elit</tspan></text>
<g clip-path="url(#clip_13)">
<path transform="matrix(1,0,0,-1,644.03,397.25)" d="M0 0C-2.35 0-4.26 1.91-4.26 4.26-4.26 6.62-2.35 8.53 0 8.53 2.35 8.53 4.26 6.62 4.26 4.26 4.26 1.91 2.35 0 0 0" fill="#8585ff" />
<path transform="matrix(1,0,0,-1,640.67,392.99)" d="M0 0C0 1.85 1.5 3.35 3.35 3.35 5.21 3.35 6.71 1.85 6.71 0 6.71-1.85 5.21-3.35 3.35-3.35 1.5-3.35 0-1.85 0 0" fill="#aeaeff" />
<path transform="matrix(1,0,0,-1,641.58,392.99)" d="M0 0C0 1.35 1.09 2.44 2.44 2.44 3.79 2.44 4.89 1.35 4.89 0 4.89-1.35 3.79-2.44 2.44-2.44 1.09-2.44 0-1.35 0 0" fill="#d6d6ff" />
<path transform="matrix(1,0,0,-1,642.49,392.99)" d="M0 0C0 .846 .688 1.53 1.53 1.53 2.38 1.53 3.07 .846 3.07 0 3.07-.846 2.38-1.53 1.53-1.53 .688-1.53 0-.846 0 0" fill="#ffffff" />
<path transform="matrix(1,0,0,-1,177,306.75)" d="M0 0H130.45C135.16 0 138.97 3.82 138.97 8.53V24.29C138.97 26.29 137.83 28.16 135.98 28.94 133.23 30.11 131.3 32.84 131.3 36.01 131.3 39.18 133.23 41.91 135.98 43.08 137.83 43.86 138.97 45.73 138.97 47.73V64.98C138.97 69.69 135.16 73.5 130.45 73.5H0C-4.71 73.5-8.53 69.69-8.53 64.98V8.53C-8.53 3.82-4.71 0 0 0" fill="#ffffff" />
<path transform="matrix(1,0,0,-1,315.97,275.01)" d="M0 0C2.35 0 4.26 1.91 4.26 4.26 4.26 6.62 2.35 8.53 0 8.53-2.35 8.53-4.26 6.62-4.26 4.26-4.26 1.91-2.35 0 0 0" fill="#8585ff" />
<path transform="matrix(1,0,0,-1,319.33,270.74)" d="M0 0C0 1.85-1.5 3.35-3.35 3.35-5.21 3.35-6.71 1.85-6.71 0-6.71-1.85-5.21-3.35-3.35-3.35-1.5-3.35 0-1.85 0 0" fill="#aeaeff" />
<path transform="matrix(1,0,0,-1,318.42,270.74)" d="M0 0C0 1.35-1.09 2.44-2.44 2.44-3.79 2.44-4.89 1.35-4.89 0-4.89-1.35-3.79-2.44-2.44-2.44-1.09-2.44 0-1.35 0 0" fill="#d6d6ff" />
<path transform="matrix(1,0,0,-1,317.51,270.74)" d="M0 0C0 .846-.688 1.53-1.53 1.53-2.38 1.53-3.07 .846-3.07 0-3.07-.846-2.38-1.53-1.53-1.53-.688-1.53 0-.846 0 0" fill="#ffffff" />
</g>
<text fill="#3333ff" xml:space="preserve" transform="matrix(1 0 -0 1 0 540)" font-size="20" font-family="ProximaNova-Semibold" font-weight="bold"><tspan y="-271.209" x="184.9775 195.04149 206.42749 213.1595 224.2135 240.8735 246.0135 250.7135 262.2915 271.5895 282.8095">Lorem ipsum</tspan></text>
<text fill="#3333ff" xml:space="preserve" transform="matrix(1 0 -0 1 0 540)" font-size="10" font-family="ProximaNova-Regular"><tspan y="-258.209" x="211.5645 218.1445 223.8945 226.1445 231.8845 234.1345 238.7845 243.7345 245.9845 251.49449 257.2345 259.81449 265.4445 267.6945 269.9445">Adipiscing elit</tspan></text>
<g clip-path="url(#clip_14)">
<path transform="matrix(1,0,0,-1,315.97,270.74)" stroke-width="1" stroke-linecap="butt" stroke-miterlimit="10" stroke-linejoin="miter" fill="none" stroke="#ffffff" d="M0 0H14.1C31.01 0 44.72 13.71 44.72 30.62 44.72 47.53 58.43 61.24 75.35 61.24H90.71" />
<path transform="matrix(1,0,0,-1,406.68,331.99)" stroke-width="1" stroke-linecap="butt" stroke-miterlimit="10" stroke-linejoin="miter" fill="none" stroke="#ffffff" d="M0 0H-14.1C-31.01 0-44.72 13.71-44.72 30.62-44.72 47.53-58.43 61.24-75.35 61.24H-90.71" />
<path transform="matrix(1,0,0,-1,554.18,209.48)" stroke-width="1" stroke-linecap="butt" stroke-miterlimit="10" stroke-linejoin="miter" fill="none" stroke="#ffffff" d="M0 0H13.03C29.95 0 43.66-13.71 43.66-30.63 43.66-47.55 57.38-61.26 74.29-61.26H89.84" />
<path transform="matrix(1,0,0,-1,554.18,332)" stroke-width="1" stroke-linecap="butt" stroke-miterlimit="10" stroke-linejoin="miter" fill="none" stroke="#ffffff" d="M0 0H13.03C29.95 0 43.66-13.71 43.66-30.63 43.66-47.4 57.25-60.98 74.02-60.98H89.84" />
<path transform="matrix(1,0,0,-1,641.51,148.22)" stroke-width="1" stroke-linecap="butt" stroke-miterlimit="10" stroke-linejoin="miter" fill="none" stroke="#ffffff" d="M0 0H-13.03C-29.95 0-43.66-13.71-43.66-30.63-43.66-47.55-57.38-61.26-74.29-61.26H-87.32" />
</g>
</g>
</g>
</svg>