<?xml version='1.0' encoding='utf-8'?>
<svg xmlns="http://www.w3.org/2000/svg" xmlns:ns1="http://www.inkscape.org/namespaces/inkscape" version="1.1" width="1920" height="1080" viewBox="0 0 1920 1080">
<defs>
<clipPath id="clip_1">
<path transform="matrix(1,0,0,-1,0,1080)" d="M0 1080H1920V0H0Z" />
</clipPath>
<clipPath id="clip_2">
<path transform="matrix(1,0,0,-1,0,1080)" d="M0 1080H1920V0H0Z" />
</clipPath>
<clipPath id="clip_3">
<path transform="matrix(1,0,0,-1,0,1080)" d="M0 1080H1920V0H0Z" />
</clipPath>
</defs>
<g>
<g ns1:groupmode="layer" ns1:label="Layer 1">
<text xml:space="preserve" transform="matrix(1 0 -0 1 0 1080)" font-size="55" font-family="ProximaNova-Extrabld"><tspan y="-900.1611" x="72.3467 100.05021 137.92871 186.16371 200.24372 231.18122 271.6722 303.2532 317.4982 331.5782 362.51573 402.8637 443.10169 475.4967 489.5767 512.7702 543.7077 584.0227 626.0042 650.09426 664.17428 704.4728 738.1823 774.20736 788.28738 819.23037 834.93838 883.17337 897.25338 921.21139 961.4714 1000.8349 1042.3928 1080.013 1103.7069">TÂM THẾ: THUÊ "THỢ" HAY TÌM "NGỌC"?</tspan></text>
<text xml:space="preserve" transform="matrix(1 0 -0 1 0 1080)" font-size="20" font-family="ProximaNova-Bold" font-weight="bold"><tspan y="-991.2163" x="72.3472 84.267208 98.88121 113.64321 118.915218 131.78122 137.28722 149.33922 161.20922 174.06922 179.18921 191.06922 203.0572 214.93721">SUN.RISER 2026</tspan></text>
<text xml:space="preserve" transform="matrix(1 0 -0 1 0 1080)" font-size="20" font-family="ProximaNova-Regular"><tspan y="-74.99628" x="72.3472 87.187198 98.4852 110.1012 121.3992 133.21921 138.37921 150.01322 164.11322 178.46923 183.27123 195.01723 206.26924 220.37125 234.39125 239.21125 254.51125 259.67124 272.92726 282.90928 293.10929 298.2693 310.4653 315.2453 329.68333 343.78733 355.0093 366.7293 371.8893 384.04933 395.42933 407.19334 418.57334 430.52534 443.78135 455.16136">©2026 SUN.STUDIO ALL RIGHTS RESERVED</tspan></text>
<text xml:space="preserve" transform="matrix(1 0 -0 1 0 1080)" font-size="20" font-family="ProximaNova-Semibold" font-weight="bold"><tspan y="-74.99628" x="1832.6671">4</tspan></text>
<g clip-path="url(#clip_1)">
<path transform="matrix(1,0,0,-1,1823.4202,75)" d="M0 0H-173.985C-185.501 0-194.836-9.335-194.836-20.85-194.836-32.366-185.501-41.701-173.985-41.701H0C11.515-41.701 20.85-32.366 20.85-20.85 20.85-9.335 11.515 0 0 0M0-1C10.946-1 19.85-9.905 19.85-20.85 19.85-31.796 10.946-40.701 0-40.701H-173.985C-184.931-40.701-193.836-31.796-193.836-20.85-193.836-9.905-184.931-1-173.985-1Z" fill="#444454" />
</g>
<text xml:space="preserve" transform="matrix(1 0 -0 1 0 1080)" font-size="20" font-family="ProximaNova-Regular"><tspan y="-976.8037" x="1650.9546 1665.3306 1677.9006 1691.0607 1696.2207 1710.2207 1721.6007 1732.2947 1745.5507 1757.5247 1768.7787 1785.1047 1796.4848 1810.5088">HRA DEPARTMENT</tspan></text>
<g clip-path="url(#clip_2)">
<path transform="matrix(1,0,0,-1,1764.3102,349.76429)" d="M0 0V-425.499C0-451.599-21.158-472.757-47.258-472.757-81.276-472.757-108.853-500.334-108.853-534.352-108.853-560.452-130.011-581.61-156.111-581.61H-725.779C-752.283-581.61-773.769-560.124-773.769-533.62V0C-773.769 26.504-752.283 47.989-725.779 47.989H-47.99C-21.486 47.989 0 26.504 0 0" fill="#fff083" />
<path transform="matrix(1,0,0,-1,1764.3102,349.76429)" stroke-width="2" stroke-linecap="butt" stroke-miterlimit="10" stroke-linejoin="miter" fill="none" stroke="#000000" d="M0 0V-425.499C0-451.599-21.158-472.757-47.258-472.757-81.276-472.757-108.853-500.334-108.853-534.352-108.853-560.452-130.011-581.61-156.111-581.61H-725.779C-752.283-581.61-773.769-560.124-773.769-533.62V0C-773.769 26.504-752.283 47.989-725.779 47.989H-47.99C-21.486 47.989 0 26.504 0 0Z" />
<path transform="matrix(1,0,0,-1,1669.7999,884.1191)" stroke-width="3" stroke-linecap="butt" stroke-miterlimit="10" stroke-linejoin="miter" fill="none" stroke="#000000" d="M0 0C0 26.098 21.157 47.255 47.255 47.255 73.353 47.255 94.51 26.098 94.51 0 94.51-26.098 73.353-47.255 47.255-47.255 21.157-47.255 0-26.098 0 0Z" />
<path transform="matrix(1,0,0,-1,1697.0772,864.2264)" stroke-width="3" stroke-linecap="round" stroke-linejoin="round" fill="none" stroke="#000000" d="M0 0H39.8V-39.8" />
<path transform="matrix(1,0,0,-1,1697.0772,904.0263)" stroke-width="3" stroke-linecap="round" stroke-linejoin="round" fill="none" stroke="#000000" d="M0 0 39.8 39.8" />
</g>
<text xml:space="preserve" transform="matrix(1 0 -0 1 0 1080)" font-size="28" font-family="ProximaNova-ExtrabldIt" font-style="italic"><tspan y="-475.9727" x="1048.6314 1063.3313 1079.6665 1096.1585 1103.3264 1113.5828 1123.6655 1140.1184 1156.4536 1172.9736 1180.1416 1194.4328 1210.7623 1226.8904 1234.0584 1250.1107 1257.2507 1272.3735 1296.8735 1304.0415 1320.3375 1336.6755 1353.0079">Tập trung vào Tiềm năng</tspan></text>
<text xml:space="preserve" transform="matrix(1 0 -0 1 0 1080)" font-size="28" font-family="ProximaNova-MediumIt" font-style="italic"><tspan y="-442.37269" x="1048.6314 1066.6354 1080.9517 1096.7857 1110.6736 1117.8976 1133.7149 1149.7308 1156.9548 1172.352 1188.284 1202.1721 1209.3961 1227.4002 1234.6242 1243.0326 1258.3878 1264.6206 1278.2006 1293.8806 1301.1046 1316.4878 1332.4702 1347.8255 1354.3495 1361.5735 1375.9011 1391.2564 1397.7804 1405.0044 1418.5313 1434.5332 1450.5492 1457.7732 1480.5036 1496.3375 1502.8616 1510.0856 1518.494 1527.6332 1543.078 1559.038 1574.4212 1590.5772">•Tốc độ học &amp; thích nghi khi vào môi trường </tspan><tspan y="-408.77268" x="1066.6354 1089.3573 1105.2753">mới</tspan><tspan y="-375.17268" x="1048.6314 1066.6354 1085.4541 1100.7225 1116.3745 1123.5985 1139.4186 1155.2413 1170.6245 1186.7805 1194.0045 1207.5314 1223.7153 1230.9393 1253.6613 1269.6492 1285.0715 1300.7516 1307.9756 1323.9159 1339.9038 1355.5558 1362.7798 1369.0099 1384.3932 1400.0452 1407.2692 1415.6776 1421.9441 1437.4086 1452.7918 1468.9478 1476.1718 1484.5718 1491.7958 1507.193 1523.0186 1529.5426 1536.7666 1545.1666 1552.3906 1568.191 1583.8711">•Chủ động và mạnh dạn lên tiếng - hỏi - đề </tspan><tspan y="-341.57267" x="1066.6354 1080.039 1095.523 1111.5249">xuất</tspan><tspan y="-307.97267" x="1048.6314 1066.6354 1081.0274 1096.6793 1103.9033 1119.8353 1135.3698 1149.2857 1156.5097 1169.9552 1185.834 1201.8164 1208.0884">•Tư duy Logic</tspan><tspan y="-274.37266" x="1048.6314 1066.6354 1085.4541 1100.731 1116.3829 1123.6069 1137.523 1144.747 1160.5474 1176.0147 1191.6666 1198.8906 1212.4706 1227.8258 1234.3499 1241.5739 1249.9823 1256.2488 1271.4865 1280.2953 1286.9592 1294.1832 1302.5833 1309.1073 1316.3313 1339 1345.2384 1351.9024 1359.1264 1372.642 1388.6271 1404.279 1411.503 1419.9087 1435.3087 1451.2966">•Chú ý đến chi tiết, tỉ mỉ, cẩn thận</tspan><tspan y="-240.77265" x="1048.6314 1066.6354 1086.9773 1102.9736 1125.9336 1133.1576 1155.8711 1171.5512 1178.7752 1192.302 1208.486 1215.71 1231.53 1247.3556 1262.7388 1278.8948 1286.1188 1292.3264 1308.012 1321.8999 1329.1239 1342.6283 1358.5463 1365.0703 1372.2943 1386.1151 1392.6392 1399.8632 1408.2716 1417.4052 1423.9292 1431.1532 1447.0264 1462.4096 1478.5656 1485.7896 1493.9039 1509.4384 1522.9287 1538.354">•Đam mê và động lực với vị trí ứng tuyển</tspan></text>
<text xml:space="preserve" transform="matrix(1 0 -0 1 0 1080)" font-size="60" font-family="ProximaNova-Extrabld"><tspan y="-648.4834" x="1050.4536 1094.5536 1111.6116 1150.6476 1185.9876 1201.3475 1234.6956 1280.6555">HIRE TO </tspan><tspan y="-576.4834" x="1050.4536 1093.5336 1128.9216 1170.2017 1205.6437 1235.2897 1280.7097 1319.2898">DEVELOP </tspan></text>
<text xml:space="preserve" transform="matrix(1 0 -0 1 0 1080)" font-size="60" font-family="ProximaNova-SemiboldIt" font-weight="bold" font-style="italic"><tspan y="-576.4834" x="1334.6498 1349.9736 1364.7157 1397.3497 1415.2297 1447.5277 1467.0578 1499.0736">(Intern)</tspan></text>
<g clip-path="url(#clip_3)">
<path transform="matrix(1,0,0,-1,931.6144,349.76429)" d="M0 0V-425.499C0-451.599-21.158-472.757-47.258-472.757-81.276-472.757-108.853-500.334-108.853-534.352-108.853-560.452-130.011-581.61-156.111-581.61H-725.779C-752.283-581.61-773.769-560.124-773.769-533.62V0C-773.769 26.504-752.283 47.989-725.779 47.989H-47.989C-21.486 47.989 0 26.504 0 0" fill="#fff083" />
<path transform="matrix(1,0,0,-1,931.6144,349.76429)" stroke-width="2" stroke-linecap="butt" stroke-miterlimit="10" stroke-linejoin="miter" fill="none" stroke="#000000" d="M0 0V-425.499C0-451.599-21.158-472.757-47.258-472.757-81.276-472.757-108.853-500.334-108.853-534.352-108.853-560.452-130.011-581.61-156.111-581.61H-725.779C-752.283-581.61-773.769-560.124-773.769-533.62V0C-773.769 26.504-752.283 47.989-725.779 47.989H-47.989C-21.486 47.989 0 26.504 0 0Z" />
<path transform="matrix(1,0,0,-1,837.1042,884.1191)" stroke-width="3" stroke-linecap="butt" stroke-miterlimit="10" stroke-linejoin="miter" fill="none" stroke="#000000" d="M0 0C0 26.098 21.157 47.255 47.255 47.255 73.353 47.255 94.51 26.098 94.51 0 94.51-26.098 73.353-47.255 47.255-47.255 21.157-47.255 0-26.098 0 0Z" />
<path transform="matrix(1,0,0,-1,864.3815,864.2264)" stroke-width="3" stroke-linecap="round" stroke-linejoin="round" fill="none" stroke="#000000" d="M0 0H39.8V-39.8" />
<path transform="matrix(1,0,0,-1,864.3815,904.0263)" stroke-width="3" stroke-linecap="round" stroke-linejoin="round" fill="none" stroke="#000000" d="M0 0 39.8 39.8" />
</g>
<text xml:space="preserve" transform="matrix(1 0 -0 1 0 1080)" font-size="28" font-family="ProximaNova-ExtrabldIt" font-style="italic"><tspan y="-309.668" x="231.1602 245.8602 262.1954 278.6874 285.8554 296.1118 306.19459 322.64738 338.98258 355.50257 362.67057 376.96177 393.29136 409.41935 416.58735 433.80177 448.82377 458.90376 466.07176 482.31455 498.69734">Tập trung vào Kết quả</tspan></text>
<text xml:space="preserve" transform="matrix(1 0 -0 1 0 1080)" font-size="28" font-family="ProximaNova-MediumIt" font-style="italic"><tspan y="-276.068" x="231.1602 249.1642 265.9642 272.3006 287.723 303.403 310.62705 326.00746 341.99266 357.34507 363.61149 378.9835 401.9435 409.1675 417.57594 432.84434 448.52995 462.41795 469.64195 483.22193 498.57713 504.84074 520.3051">•Kinh nghiệm thực chiến</tspan><tspan y="-242.46799" x="231.1602 249.1642 265.2502 279.16624 286.39024 301.77345 317.76145 333.14466 349.30067 356.5247 370.10469 385.38148 400.91587 414.41468 429.78669 445.4387 452.6627 465.48109 481.3571">•Kỹ năng chuyên sâu</tspan></text>
<text xml:space="preserve" transform="matrix(1 0 -0 1 0 1080)" font-size="60" font-family="ProximaNova-Extrabld"><tspan y="-648.4834" x="231.1602 275.26023 292.3182 331.35423 366.6942 382.0542 415.4022 461.36219 476.72218 519.64016 565.60018">HIRE TO DO </tspan></text>
<text xml:space="preserve" transform="matrix(1 0 -0 1 0 1080)" font-size="60" font-family="ProximaNova-SemiboldIt" font-weight="bold" font-style="italic"><tspan y="-576.4834" x="231.1602 246.5202 296.0202 309.60423 343.49223 377.4822 390.80223 423.04023 449.98023">(Middle+)</tspan></text>
</g>
<g ns1:groupmode="layer" ns1:label="Layer 2">
</g>
</g>
</svg>