<?xml version='1.0' encoding='utf-8'?>
<svg xmlns="http://www.w3.org/2000/svg" xmlns:ns1="http://www.inkscape.org/namespaces/inkscape" version="1.1" width="1920" height="1080" viewBox="0 0 1920 1080">
<defs>
<clipPath id="clip_1">
<path transform="matrix(1,0,0,-1,0,1080)" d="M0 1080H1920V0H0Z" />
</clipPath>
<clipPath id="clip_2">
<path transform="matrix(1,0,0,-1,0,1080)" d="M0 1080H1920V0H0Z" />
</clipPath>
<clipPath id="clip_3">
<path transform="matrix(1,0,0,-1,0,1080)" d="M0 1080H1920V0H0Z" />
</clipPath>
</defs>
<g>
<g ns1:groupmode="layer" ns1:label="Layer 1">
</g>
<g ns1:groupmode="layer" ns1:label="Layer 2">
</g>
<g ns1:groupmode="layer" ns1:label="Page18">
</g>
<g ns1:groupmode="layer" ns1:label="Page17">
</g>
<g ns1:groupmode="layer" ns1:label="Page 16">
</g>
<g ns1:groupmode="layer" ns1:label="Page 15">
</g>
<g ns1:groupmode="layer" ns1:label="Page 14">
</g>
<g ns1:groupmode="layer" ns1:label="Page 13">
</g>
<g ns1:groupmode="layer" ns1:label="Page 12">
</g>
<g ns1:groupmode="layer" ns1:label="Page 11">
</g>
<g ns1:groupmode="layer" ns1:label="Page 10">
</g>
<g ns1:groupmode="layer" ns1:label="Page 9">
</g>
<g ns1:groupmode="layer" ns1:label="Page7">
</g>
<g ns1:groupmode="layer" ns1:label="Page 8">
</g>
<g ns1:groupmode="layer" ns1:label="7">
</g>
<g ns1:groupmode="layer" ns1:label="Layer 31">
</g>
<g ns1:groupmode="layer" ns1:label="8">
</g>
<g ns1:groupmode="layer" ns1:label="Page 5">
</g>
<g ns1:groupmode="layer" ns1:label="Page 3">
</g>
<g ns1:groupmode="layer" ns1:label="Page 2">
</g>
<g ns1:groupmode="layer" ns1:label="Page 1">
<g clip-path="url(#clip_1)">
<path transform="matrix(1,0,0,-1,1840.18,929.04)" d="M0 0H-742.42C-745.13 0-747.32 2.19-747.32 4.9V717.83C-747.32 720.54-745.13 722.73-742.42 722.73H0C2.71 722.73 4.9 720.54 4.9 717.83V4.9C4.9 2.19 2.71 0 0 0" fill="#ff5533" />
</g>
<text fill="#2c2c2c" xml:space="preserve" transform="matrix(1 0 -0 1 0 1080)" font-size="120" font-family="ProximaNova-Black" font-weight="bold"><tspan y="-660.4775" x="72.5654 159.80539 245.0054 335.0054 425.1254 455.7254 542.8454 580.0454 665.2454">ĐÁNH GIÁ </tspan><tspan y="-528.4775" x="72.5654 162.6854 199.88539 271.4054 361.2854 391.8854 465.4454 550.52548 628.52548">HIỆU SUẤT</tspan><tspan y="-396.47749" x="72.5654 156.2054 246.0854 338.0054 375.2054 405.80543 495.80543 581.00546">CUỐI NĂM</tspan></text>
<text fill="#ff5533" xml:space="preserve" transform="matrix(1.01 0 -0 .9884724 0 1080)" font-size="30.349862" font-family="ProximaNova-SemiboldIt" font-weight="bold" font-style="italic"><tspan y="-329.11814" x="78.47018 100.322078 117.5608 134.76917 151.97754 169.58046 177.38036 195.13504 202.44934 219.35422 236.56259 244.36252 261.9958 279.62904 296.8374 304.6373 319.7212 337.35447 354.56285 362.36274 379.996 387.31034 404.2152 413.89683 421.69673 441.24205 449.04194 464.12583 481.7591 496.843 514.08169 521.8816 536.96548 554.20419 571.41256 589.04586 606.2542 614.0541 631.6874">Những điều bạn cần biết &amp; cách chuẩn bị</tspan></text>
<g clip-path="url(#clip_2)">
<text fill="#ffffff" xml:space="preserve" transform="matrix(.9845791 .17493987 -.17493987 .9845791 0 1080)" font-size="659.3145" font-family="ProximaNova-Black" font-weight="bold"><tspan y="-542.4782" x="961.6619 1365.8218">25</tspan></text>
<path transform="matrix(1,0,0,-1,332.58,844.4)" stroke-width="1" stroke-linecap="butt" stroke-miterlimit="10" stroke-linejoin="miter" fill="none" stroke="#000000" d="M0 0H-240C-249.66 0-257.5 7.83-257.5 17.5-257.5 27.16-249.66 35-240 35H0C9.66 35 17.5 27.16 17.5 17.5 17.5 7.83 9.66 0 0 0Z" />
</g>
<text xml:space="preserve" transform="matrix(1.01 0 -0 .9884724 0 1080)" font-size="20.23324" font-family="ProximaNova-Bold" font-weight="bold"><tspan y="-248.9084" x="97.6503 112.53994 125.54992 130.72963 143.8003 148.98 162.64148 174.3464 191.44957 196.41884 208.1339 213.3136 227.80667 238.89449 250.62976 261.4505 269.0744 275.95774 293.09529 304.1831 315.76869">HR &amp; Admin Department</tspan></text>
<text xml:space="preserve" transform="matrix(1 0 -0 1 0 1080)" font-size="20" font-family="ProximaNova-Semibold" font-weight="bold"><tspan y="-75.0908" x="75.0815 89.9775 101.6575 113.4795 125.1595 137.1795 142.3195 154.13552 168.61553 183.24353 188.46352 200.30553 211.61354 226.09355 240.34755 245.56156">©2026 SUN.STUDIO</tspan></text>
<text xml:space="preserve" transform="matrix(1 0 -0 1 0 1080)" font-size="20" font-family="ProximaNova-Regular"><tspan y="-75.0908" x="260.8615 266.0215 279.27754 289.25956 299.45957 304.61958 316.81559 321.59559 336.0336 350.1356 361.35758 373.07759 378.23759 390.39759 401.7776 413.54359 424.92359 436.87559 450.1316 461.5116"> ALL RIGHTS RESERVED</tspan></text>
<g clip-path="url(#clip_3)">
<path transform="matrix(1,0,0,-1,106.94,103.76)" d="M0 0C.388 9.72 8.58 17.28 18.29 16.89 20.87 16.79 23.29 16.14 25.46 15.05 31.45 12.05 35.45 5.74 35.17-1.4 34.78-11.11 26.59-18.68 16.88-18.29 10.66-18.04 5.32-14.59 2.39-9.59 .747-6.79-.14-3.49 0 0M38.7-18.19C40.84-15.58 42.5-12.58 43.55-9.37 44.34-6.96 44.79-4.45 44.9-1.92 45.4 10.58 37.43 21.45 26.11 25.16 23.76 25.93 21.27 26.39 18.68 26.49 18.1 26.52-3.03 26.5-12.24 26.49-13.47 26.49-14.05 25.07-13.35 24.21-13.27 24.12-6.57 19.05-6.49 18.95-5.81 18.08-6.4 16.7-7.61 16.7L-30.05 16.69C-30.73 16.69-31.21 16.27-31.39 15.74-31.57 15.21-31.44 14.58-30.91 14.17L-13.08 .536C-12.01-.285-12.6-2-13.95-1.99-14.98-1.98-22.05-1.96-22.19-2-23.19-2.24-23.61-3.59-22.86-4.42-9.85-18.59 .93-25.29 10.97-27.37 16.32-28.7 22.07-28.38 27.23-26.42 31.49-24.86 35.07-22.28 37.88-19.14 38.16-18.83 38.43-18.51 38.7-18.19" fill="#ff5533" />
<path transform="matrix(1,0,0,-1,124.99,101.72)" d="M0 0C.066 1.81 1.59 3.23 3.4 3.16 5.21 3.1 6.62 1.57 6.55-.237 6.49-2.05 4.97-3.46 3.16-3.4 1.35-3.33-.066-1.81 0 0M9.78-2.77C10 2.81 5.66 7.52 .071 7.75-5.51 7.97-10.22 3.62-10.44-1.97-10.67-7.56-6.32-12.27-.737-12.49 4.85-12.71 9.55-8.36 9.78-2.77" fill="#ff5533" />
<path transform="matrix(1,0,0,-1,168.96,86.38)" d="M0 0C-2.63 .497-4.08 .923-4.08 2.17-4.08 3.19-3.3 4.01-1.28 4.01 .816 4.01 3.41 3.19 5.39 1.56L8.73 5.93C6.21 8.09 2.91 9.23-.887 9.23-6.96 9.23-10.33 5.79-10.33 1.81-10.33-3.8-4.86-4.79-.958-5.57 1.56-6.11 3.09-6.64 3.09-7.99 3.09-9.12 1.81-10.01-.284-10.01-3.51-10.01-6.14-8.59-7.84-6.88L-11.07-11.46C-8.7-13.73-5.36-15.23-.568-15.23 5.79-15.23 9.3-12.07 9.3-7.31 9.3-1.95 3.9-.816 0 0" fill="#ff5533" />
<path transform="matrix(1,0,0,-1,191.29,101.7)" d="M0 0C7.63 0 11.02 5.42 11.02 11.31V24.1H4.71V10.66C4.71 7.85 3.23 5.39 0 5.39-3.27 5.39-4.75 7.85-4.75 10.66V24.1H-11.05V11.28C-11.05 5.45-7.63 0 0 0" fill="#ff5533" />
<path transform="matrix(1,0,0,-1,217.87,131.43)" d="M0 0C7.63 0 11.02 5.42 11.02 11.31V24.1H4.71V10.66C4.71 7.85 3.23 5.39 0 5.39-3.27 5.39-4.75 7.85-4.75 10.66V24.1H-11.05V11.28C-11.05 5.45-7.63 0 0 0" fill="#ff5533" />
<path transform="matrix(1,0,0,-1,213.12,87.05)" d="M0 0 10.34-14.42H15.77V9.45H9.46V-4.29L-.383 9.45H-6.31V-14.42H0Z" fill="#ff5533" />
<path transform="matrix(1,0,0,-1,168.96,116.33)" d="M0 0C-2.63 .496-4.08 .923-4.08 2.17-4.08 3.19-3.3 4.01-1.28 4.01 .816 4.01 3.41 3.19 5.39 1.56L8.73 5.93C6.21 8.09 2.91 9.23-.887 9.23-6.96 9.23-10.33 5.79-10.33 1.81-10.33-3.8-4.86-4.79-.958-5.57 1.56-6.11 3.09-6.64 3.09-7.99 3.09-9.12 1.81-10.01-.284-10.01-3.51-10.01-6.14-8.59-7.84-6.88L-11.07-11.46C-8.7-13.73-5.36-15.23-.568-15.23 5.79-15.23 9.3-12.07 9.3-7.31 9.3-1.95 3.9-.816 0 0" fill="#ff5533" />
<path transform="matrix(1,0,0,-1,180.24,112.73)" d="M0 0H8.11V-18.47H14.41V0H22.07V5.41H0Z" fill="#ff5533" />
<path transform="matrix(1,0,0,-1,243.09,125.8)" d="M0 0H-3.84V13.06H.036C4.38 13.06 6.58 10.21 6.58 6.55 6.58 3.02 4.17 0 0 0M-.128 18.47H-10.15V-5.41H-.092C7.39-5.41 12.79-.859 12.79 6.55 12.79 13.96 7.39 18.47-.128 18.47" fill="#ff5533" />
<path transform="matrix(1,0,0,-1,0,1080)" d="M259.51 948.8H265.82V972.67H259.51Z" fill="#ff5533" />
<path transform="matrix(1,0,0,-1,236.28,101.57)" d="M0 0C1.88 0 3.41 1.53 3.41 3.41 3.41 5.3 1.88 6.82 0 6.82-1.88 6.82-3.41 5.3-3.41 3.41-3.41 1.53-1.88 0 0 0" fill="#ff5533" />
<path transform="matrix(1,0,0,-1,281.53,125.84)" d="M0 0C-3.62 0-6.55 2.93-6.55 6.54-6.55 10.16-3.62 13.09 0 13.09 3.62 13.09 6.54 10.16 6.54 6.54 6.54 2.93 3.62 0 0 0M0 18.82C-6.78 18.82-12.28 13.32-12.28 6.54-12.28-.234-6.78-5.73 0-5.73 6.78-5.73 12.28-.234 12.28 6.54 12.28 13.32 6.78 18.82 0 18.82" fill="#ff5533" />
<path transform="matrix(1,0,0,-1,1598.83,120.21)" d="M0 0V-10.68C0-11.14 .398-11.52 .889-11.52H10.29C10.78-11.52 11.18-11.14 11.18-10.68V3.31C11.18 3.96 10.63 4.13 10.19 3.93 7.06 2.57 3.32 1.52 .827 .894 .333 .771 0 .41 0 0" />
<path transform="matrix(1,0,0,-1,1624.98,117.62)" d="M0 0C-1.06-.995-2.63-2.21-4.49-2.21-6.28-2.21-7.65-.513-8.47 .513-8.74 .846-9.45 .639-9.45 .059V-13.27C-9.45-13.74-9.05-14.11-8.56-14.11H.84C1.33-14.11 1.73-13.73 1.73-13.27V.209C1.73 .858 1.08 1.04 .74 .739 .502 .528 .2 .187 0 0" />
<path transform="matrix(1,0,0,-1,1642.25,90.8)" d="M0 0C-2.22-4.18-5.97-8.96-9.49-11.75-9.82-12.02-10.02-12.49-10.02-12.86V-40.09C-10.02-40.6-9.62-40.94-9.13-40.94H.275C.765-40.94 1.16-40.61 1.16-40.09V-.228C1.16 .386 .298 .561 0 0" />
<path transform="matrix(1,0,0,-1,1629.8,89.32)" d="M0 0C-2.34 .093-4.17 2.07-4.07 4.41-3.98 6.76-2 8.58 .339 8.49 2.68 8.4 4.51 6.42 4.41 4.08 4.32 1.73 2.34-.093 0 0M8.15 14.16C.275 14.1-8.72 9.33-14.13 3.8-18.59 3.8-26.8 2.53-29.75-1.18-30.37-1.95-30.12-2.97-29.22-3.37-28.38-3.74-23.43-4.87-23.23-5.11-23.7-6.04-23.68-6.48-23.08-7.32-23.01-7.41-22.93-7.51-22.86-7.6-22.6-7.58-22.34-7.56-22.06-7.56H-21.94C-18.94-7.6-16.29-9.34-15.03-12.11-14.35-13.61-14.18-15.22-14.46-16.75-14.15-17.11-13.85-17.48-13.57-17.84-12.97-18.5-12.28-18.34-11.53-18.08-11-19.95-11-22.53-10.35-24.3-10.01-25.25-9-25.46-8.16-24.96-7.67-24.67-6.46-23.18-6.07-22.66-3.38-19.05-2.23-14.37-1.77-9.96 4.32-5.2 10.01 3.32 10.86 11.16 11.15 13.86 10.86 14.19 8.15 14.16" fill="#ff5533" />
<path transform="matrix(1,0,0,-1,1607.83,98.74)" d="M0 0C-4.44 .057-5.93-4.13-7.34-7.55-7.91-8.93-9.1-11.64-9.32-13-9.42-13.62-9.17-14.19-8.64-14.51-7.98-14.91-7.47-14.61-6.79-14.44-4.13-13.8 2.69-11.72 4.38-9.73 7.58-5.98 4.96-.064 0 0" fill="#ff5533" />
<path transform="matrix(1,0,0,-1,1675.11,85.86)" d="M0 0H-4.63V-5.64H0C1.72-5.64 3-4.54 3-2.82 3-1.13 1.72 0 0 0M-8.98-16.71V3.74H.582C5.03 3.74 7.45 .736 7.45-2.85 7.45-6.41 5-9.38 .582-9.38H-4.63V-16.71Z" />
<path transform="matrix(1,0,0,-1,1687.71,93.77)" d="M0 0H7.3C7.2 1.41 6.22 3.28 3.65 3.28 1.23 3.28 .184 1.47 0 0M3.65 6.38C8.06 6.38 11.07 3.07 11.07-1.78V-2.64H.061C.307-4.51 1.81-6.07 4.32-6.07 5.7-6.07 7.33-5.52 8.28-4.6L9.99-7.11C8.49-8.49 6.19-9.17 3.89-9.17-.613-9.17-4.02-6.13-4.02-1.38-4.02 2.91-.858 6.38 3.65 6.38" />
<path transform="matrix(1,0,0,-1,1701.6,102.56)" d="M0 0V14.81H3.89V12.78C4.94 14.1 6.78 15.14 8.61 15.14V11.34C8.34 11.4 7.97 11.43 7.54 11.43 6.25 11.43 4.54 10.73 3.89 9.78V0Z" />
<path transform="matrix(1,0,0,-1,1717.42,91.16)" d="M0 0V-11.4H-3.92V0H-6.38V3.4H-3.92V4.2C-3.92 7.42-1.84 9.35 1.07 9.35 2.18 9.35 3.19 9.1 3.89 8.74L3.1 5.98C2.76 6.19 2.3 6.28 1.84 6.28 .736 6.28 0 5.55 0 4.14V3.4H3V0Z" />
<path transform="matrix(1,0,0,-1,1733.33,95.15)" d="M0 0C0 2.3-1.38 4.29-3.8 4.29-6.22 4.29-7.57 2.3-7.57 0-7.57-2.33-6.22-4.32-3.8-4.32-1.38-4.32 0-2.33 0 0M-11.62 0C-11.62 4.2-8.68 7.76-3.8 7.76 1.1 7.76 4.05 4.2 4.05 0 4.05-4.23 1.1-7.79-3.8-7.79-8.68-7.79-11.62-4.23-11.62 0" />
<path transform="matrix(1,0,0,-1,1740.26,102.56)" d="M0 0V14.81H3.89V12.78C4.94 14.1 6.78 15.14 8.61 15.14V11.34C8.34 11.4 7.97 11.43 7.54 11.43 6.25 11.43 4.54 10.73 3.89 9.78V0Z" />
<path transform="matrix(1,0,0,-1,1769.66,102.56)" d="M0 0V9.35C0 10.73-.613 11.71-2.21 11.71-3.59 11.71-4.72 10.79-5.27 9.99V0H-9.2V9.35C-9.2 10.73-9.81 11.71-11.4 11.71-12.75 11.71-13.89 10.79-14.47 9.96V0H-18.36V14.81H-14.47V12.88C-13.86 13.76-11.89 15.17-9.63 15.17-7.45 15.17-6.07 14.16-5.52 12.48-4.66 13.82-2.7 15.17-.43 15.17 2.3 15.17 3.92 13.73 3.92 10.7V0Z" />
<path transform="matrix(1,0,0,-1,1786.31,97.17)" d="M0 0C-.643 .858-1.87 1.29-3.13 1.29-4.66 1.29-5.92 .46-5.92-.951-5.92-2.33-4.66-3.13-3.13-3.13-1.87-3.13-.643-2.7 0-1.84ZM0-5.39V-3.86C-1.01-5.06-2.76-5.76-4.69-5.76-7.05-5.76-9.84-4.17-9.84-.858-9.84 2.61-7.05 3.86-4.69 3.86-2.73 3.86-.981 3.25 0 2.05V4.11C0 5.61-1.29 6.59-3.25 6.59-4.84 6.59-6.32 6.01-7.57 4.84L-9.04 7.45C-7.23 9.04-4.9 9.78-2.58 9.78 .797 9.78 3.89 8.43 3.89 4.17V-5.39Z" />
<path transform="matrix(1,0,0,-1,1804.06,102.56)" d="M0 0V8.95C0 11.01-1.07 11.71-2.73 11.71-4.26 11.71-5.46 10.85-6.1 9.96V0H-9.99V14.81H-6.1V12.88C-5.15 14.01-3.34 15.17-.92 15.17 2.33 15.17 3.89 13.34 3.89 10.45V0Z" />
<path transform="matrix(1,0,0,-1,1818.72,87.39)" d="M0 0C3.03 0 4.87-1.32 5.86-2.7L3.31-5.06C2.6-4.05 1.53-3.46 .183-3.46-2.18-3.46-3.83-5.18-3.83-7.76-3.83-10.33-2.18-12.08 .183-12.08 1.53-12.08 2.6-11.46 3.31-10.48L5.86-12.84C4.87-14.22 3.03-15.54 0-15.54-4.57-15.54-7.85-12.32-7.85-7.76-7.85-3.22-4.57 0 0 0" />
<path transform="matrix(1,0,0,-1,1830.18,93.77)" d="M0 0H7.3C7.2 1.41 6.22 3.28 3.65 3.28 1.23 3.28 .184 1.47 0 0M3.65 6.38C8.06 6.38 11.07 3.07 11.07-1.78V-2.64H.061C.307-4.51 1.81-6.07 4.32-6.07 5.7-6.07 7.33-5.52 8.28-4.6L9.99-7.11C8.49-8.49 6.19-9.17 3.89-9.17-.613-9.17-4.02-6.13-4.02-1.38-4.02 2.91-.858 6.38 3.65 6.38" />
<path transform="matrix(1,0,0,-1,1675.05,114.86)" d="M0 0H-4.57V-5.64H0C1.75-5.64 3.07-4.54 3.07-2.82 3.07-1.1 1.75 0 0 0M2.64-16.71-1.38-9.38H-4.57V-16.71H-8.92V3.74H.644C4.91 3.74 7.51 .95 7.51-2.85 7.51-6.47 5.24-8.4 3.04-8.92L7.63-16.71Z" />
<path transform="matrix(1,0,0,-1,1687.9,122.77)" d="M0 0H7.3C7.2 1.41 6.22 3.28 3.65 3.28 1.23 3.28 .184 1.47 0 0M3.65 6.38C8.06 6.38 11.07 3.07 11.07-1.78V-2.64H.061C.307-4.51 1.81-6.07 4.32-6.07 5.7-6.07 7.33-5.52 8.28-4.6L9.99-7.11C8.49-8.49 6.19-9.17 3.89-9.17-.613-9.17-4.02-6.13-4.02-1.38-4.02 2.91-.858 6.38 3.65 6.38" />
<path transform="matrix(1,0,0,-1,1705.62,131.57)" d="M0 0-5.95 14.81H-1.78L2.08 4.51 5.95 14.81H10.15L4.2 0Z" />
<path transform="matrix(1,0,0,-1,0,1080)" d="M1717.51 963.24H1721.4V948.43H1717.51ZM1717.11 967.75C1717.11 969.03 1718.19 970.08 1719.44 970.08 1720.73 970.08 1721.77 969.03 1721.77 967.75 1721.77 966.46 1720.73 965.41 1719.44 965.41 1718.19 965.41 1717.11 966.46 1717.11 967.75" />
<path transform="matrix(1,0,0,-1,1728.33,122.77)" d="M0 0H7.3C7.2 1.41 6.22 3.28 3.65 3.28 1.23 3.28 .184 1.47 0 0M3.65 6.38C8.06 6.38 11.07 3.07 11.07-1.78V-2.64H.061C.307-4.51 1.81-6.07 4.32-6.07 5.7-6.07 7.33-5.52 8.28-4.6L9.99-7.11C8.49-8.49 6.19-9.17 3.89-9.17-.613-9.17-4.02-6.13-4.02-1.38-4.02 2.91-.858 6.38 3.65 6.38" />
<path transform="matrix(1,0,0,-1,1755.22,131.57)" d="M0 0-3.13 10.09-6.25 0H-10.42L-14.93 14.81H-10.88L-8.12 4.84-4.87 14.81H-1.41L1.84 4.84 4.6 14.81H8.64L4.14 0Z" />
<path transform="matrix(1,0,0,-1,1773.16,131.57)" d="M0 0V3.43C8.37 9.6 10.82 11.71 10.82 14.22 10.82 16 9.2 16.89 7.48 16.89 5.18 16.89 3.4 15.97 2.02 14.53L-.459 17.41C1.53 19.71 4.57 20.75 7.42 20.75 11.77 20.75 15.24 18.3 15.24 14.22 15.24 10.73 12.36 7.69 6.87 3.83H15.39V0Z" />
<path transform="matrix(1,0,0,-1,1799.62,114.68)" d="M0 0C-2.94 0-4.05-2.91-4.05-6.68-4.05-10.45-2.94-13.4 0-13.4 2.91-13.4 4.02-10.45 4.02-6.68 4.02-2.91 2.91 0 0 0M0 3.86C5.82 3.86 8.46-1.41 8.46-6.68 8.46-11.96 5.82-17.26 0-17.26-5.86-17.26-8.46-11.96-8.46-6.68-8.46-1.41-5.86 3.86 0 3.86" />
<path transform="matrix(1,0,0,-1,1810.56,131.57)" d="M0 0V3.43C8.37 9.6 10.82 11.71 10.82 14.22 10.82 16 9.2 16.89 7.48 16.89 5.18 16.89 3.4 15.97 2.02 14.53L-.46 17.41C1.53 19.71 4.57 20.75 7.42 20.75 11.77 20.75 15.23 18.3 15.23 14.22 15.23 10.73 12.35 7.69 6.87 3.83H15.39V0Z" />
<path transform="matrix(1,0,0,-1,1831.41,125.93)" d="M0 0C1.41-1.44 3.31-2.21 5.46-2.21 7.88-2.21 9.26-.828 9.26 .858 9.26 2.73 7.91 3.98 5.58 3.98 3.89 3.98 2.51 3.46 1.29 2.3L-1.75 3.13V14.81H12.29V11.07H2.51V5.95C3.59 6.9 5.24 7.63 7.11 7.63 10.58 7.63 13.67 5.18 13.67 1.04 13.67-3.28 10.42-6.01 5.49-6.01 1.93-6.01-.644-4.84-2.39-2.94Z" />
</g>
<text fill="#2c2c2c" xml:space="preserve" transform="matrix(1 0 -0 1 0 1080)" font-size="20" font-family="ProximaNova-Semibold" font-weight="bold"><tspan y="-75" x="1834.4004">1</tspan></text>
</g>
<g ns1:groupmode="layer" ns1:label="bleed">
</g>
<g ns1:groupmode="layer" ns1:label="Layer 8">
</g>
</g>
</svg>