<?xml version='1.0' encoding='utf-8'?>
<svg xmlns="http://www.w3.org/2000/svg" xmlns:ns2="http://www.inkscape.org/namespaces/inkscape" xmlns:xlink="http://www.w3.org/1999/xlink" version="1.1" width="960" height="540" viewBox="0 0 960 540">
<defs>
<clipPath id="clip_1">
<path transform="matrix(1,0,0,-1,0,540)" d="M0 540H960V0H0Z" />
</clipPath>
<clipPath id="clip_2">
<path transform="matrix(1,0,0,-1,0,540)" d="M1980 0H1020V540H1980Z" />
</clipPath>
<clipPath id="clip_3">
<path transform="matrix(1,0,0,-1,0,540)" d="M-174.72-1404.72H2376.97V1146.97H-174.72Z" />
</clipPath>
<clipPath id="clip_4">
<path transform="matrix(1,0,0,-1,0,540)" d="M1101.12-1404.72C1272.89-1404.72 1440.09-1370.84 1598.07-1304.03 1750.12-1239.71 1886.46-1147.86 2003.29-1031.03 2120.12-914.21 2211.96-777.87 2276.28-625.81 2343.09-467.84 2376.97-300.65 2376.97-128.88 2376.97 42.89 2343.09 210.09 2276.28 368.07 2211.96 520.13 2120.11 656.47 2003.27 773.3 1886.44 890.12 1750.11 981.96 1598.07 1046.27 1440.09 1113.09 1272.9 1146.97 1101.12 1146.97 929.36 1146.97 762.16 1113.09 604.18 1046.27 452.13 981.96 315.8 890.12 198.97 773.29 82.14 656.46-9.71 520.12-74.03 368.06-140.84 210.1-174.72 42.9-174.72-128.88-174.72-300.64-140.84-467.84-74.03-625.82-9.71-777.87 82.14-914.21 198.96-1031.03 315.81-1147.87 452.14-1239.72 604.2-1304.03 762.15-1370.84 929.35-1404.72 1101.12-1404.72" />
</clipPath>
<clipPath id="clip_5">
<path transform="matrix(1,0,0,-1,0,540)" d="M1101.12 984.78C951.01 984.78 805.04 955.13 667.35 896.89 534.62 840.75 415.58 760.52 313.66 658.6 211.74 556.68 131.51 437.64 75.36 304.9 17.12 167.22-12.53 21.24-12.53-128.88-12.53-278.99 17.12-424.96 75.36-562.65 131.51-695.39 211.74-814.43 313.65-916.34 415.58-1018.27 534.62-1098.5 667.36-1154.64 805.03-1212.88 951-1242.53 1101.12-1242.53 1251.23-1242.53 1397.2-1212.88 1534.89-1154.64 1667.64-1098.49 1786.68-1018.26 1888.6-916.35 1990.51-814.43 2070.74-695.39 2126.89-562.64 2185.13-424.96 2214.78-278.99 2214.78-128.88 2214.78 21.24 2185.13 167.21 2126.89 304.9 2070.74 437.64 1990.51 556.69 1888.59 658.6 1786.67 760.52 1667.63 840.74 1534.9 896.89 1397.21 955.13 1251.24 984.78 1101.12 984.78" />
</clipPath>
<clipPath id="clip_6">
<path transform="matrix(1,0,0,-1,0,540)" d="M1101.12 822.58C972.67 822.58 847.92 797.17 730.52 747.51 617.1 699.53 515.36 630.92 428.35 543.92 341.34 456.91 272.73 355.16 224.74 241.73 175.08 124.34 149.67-.413 149.67-128.88 149.67-257.33 175.08-382.08 224.74-499.48 272.72-612.9 341.33-714.65 428.33-801.65 515.35-888.66 617.1-957.28 730.53-1005.26 847.91-1054.92 972.66-1080.33 1101.12-1080.33 1229.58-1080.33 1354.32-1054.92 1471.72-1005.26 1585.15-957.28 1686.9-888.67 1773.9-801.66 1860.91-714.66 1929.53-612.9 1977.51-499.47 2027.17-382.08 2052.58-257.34 2052.58-128.88 2052.58-.42 2027.17 124.33 1977.51 241.72 1929.53 355.15 1860.91 456.9 1773.91 543.91 1686.9 630.91 1585.15 699.52 1471.73 747.5 1354.33 797.17 1229.58 822.58 1101.12 822.58" />
</clipPath>
<clipPath id="clip_7">
<path transform="matrix(1,0,0,-1,0,540)" d="M1101.12 660.39C994.33 660.39 890.8 639.21 793.69 598.12 699.59 558.31 615.14 501.32 543.04 429.23 470.94 357.13 413.94 272.68 374.13 178.56 333.05 81.45 311.86-22.07 311.86-128.88 311.86-235.68 333.04-339.2 374.12-436.31 413.94-530.41 470.93-614.87 543.02-686.96 615.12-759.06 699.58-816.06 793.7-855.88 890.8-896.96 994.32-918.14 1101.12-918.14 1207.92-918.14 1311.44-896.96 1408.55-855.88 1502.66-816.06 1587.12-759.07 1659.21-686.98 1731.31-614.88 1788.31-530.42 1828.12-436.31 1869.21-339.2 1890.39-235.68 1890.39-128.88 1890.39-22.08 1869.21 81.45 1828.12 178.56 1788.31 272.67 1731.32 357.12 1659.22 429.21 1587.13 501.31 1502.67 558.31 1408.56 598.12 1311.45 639.21 1207.93 660.39 1101.12 660.39" />
</clipPath>
<clipPath id="clip_8">
<path transform="matrix(1,0,0,-1,0,540)" d="M1101.12 498.19C1015.98 498.19 933.68 481.24 856.86 448.74 782.07 417.1 714.92 371.72 657.74 314.55 600.55 257.36 555.16 190.19 523.51 115.39 491.01 38.58 474.06-43.73 474.06-128.88 474.06-214.02 491.01-296.32 523.51-373.13 555.15-447.93 600.53-515.08 657.7-572.26 714.89-629.46 782.06-674.84 856.86-706.49 933.68-738.99 1015.98-755.94 1101.12-755.94 1186.27-755.94 1268.56-739 1345.38-706.49 1420.18-674.85 1487.34-629.47 1544.52-572.29 1601.7-515.11 1647.09-447.94 1678.74-373.14 1711.24-296.32 1728.19-214.02 1728.19-128.88 1728.19-43.73 1711.24 38.56 1678.74 115.38 1647.1 190.18 1601.72 257.34 1544.54 314.52 1487.35 371.71 1420.19 417.09 1345.39 448.74 1268.57 481.24 1186.27 498.19 1101.12 498.19" />
</clipPath>
<clipPath id="clip_9">
<path transform="matrix(1,0,0,-1,0,540)" d="M1101.12 336C1037.64 336 976.56 323.28 920.03 299.36 864.56 275.88 814.7 242.12 772.43 199.86 730.15 157.59 696.38 107.71 672.89 52.23 648.97-4.31 636.25-65.38 636.25-128.88 636.25-192.36 648.97-253.44 672.89-309.96 696.37-365.44 730.13-415.3 772.39-457.57 814.67-499.85 864.54-533.62 920.03-557.11 976.56-581.03 1037.63-593.75 1101.12-593.75 1164.61-593.75 1225.68-581.03 1282.21-557.11 1337.69-533.63 1387.56-499.87 1429.82-457.61 1472.1-415.33 1505.87-365.46 1529.36-309.97 1553.28-253.44 1566-192.37 1566-128.88 1566-65.39 1553.28-4.32 1529.36 52.21 1505.88 107.69 1472.12 157.56 1429.85 199.83 1387.58 242.1 1337.71 275.87 1282.23 299.35 1225.69 323.28 1164.62 336 1101.12 336" />
</clipPath>
<clipPath id="clip_10">
<path transform="matrix(1,0,0,-1,0,540)" d="M798.45-128.88C798.45-296.04 933.96-431.56 1101.12-431.56 1268.29-431.56 1403.81-296.04 1403.81-128.88 1403.81 38.29 1268.29 173.81 1101.12 173.81 933.96 173.81 798.45 38.29 798.45-128.88" />
</clipPath>
<clipPath id="clip_11">
<path transform="matrix(1,0,0,-1,0,540)" d="M0 0H960V540H0Z" />
</clipPath>
<clipPath id="clip_12">
<path transform="matrix(1,0,0,-1,0,540)" d="M-1194.72-1404.72H1356.97V1146.97H-1194.72Z" />
</clipPath>
<clipPath id="clip_13">
<path transform="matrix(1,0,0,-1,0,540)" d="M81.13-1404.72C252.89-1404.72 420.08-1370.84 578.07-1304.03 730.12-1239.71 866.46-1147.86 983.29-1031.03 1100.12-914.21 1191.96-777.87 1256.28-625.81 1323.09-467.84 1356.97-300.65 1356.97-128.88 1356.97 42.89 1323.09 210.09 1256.28 368.07 1191.96 520.13 1100.11 656.47 983.27 773.3 866.45 890.12 730.11 981.96 578.07 1046.27 420.09 1113.09 252.9 1146.97 81.13 1146.97-90.64 1146.97-257.84 1113.09-415.82 1046.27-567.87 981.96-704.2 890.12-821.03 773.29-937.87 656.46-1029.71 520.12-1094.03 368.06-1160.84 210.1-1194.72 42.9-1194.72-128.88-1194.72-300.64-1160.84-467.84-1094.03-625.82-1029.71-777.87-937.86-914.21-821.04-1031.03-704.2-1147.87-567.86-1239.72-415.8-1304.03-257.85-1370.84-90.65-1404.72 81.13-1404.72" />
</clipPath>
<clipPath id="clip_14">
<path transform="matrix(1,0,0,-1,0,540)" d="M81.12 984.78C-68.99 984.78-214.96 955.13-352.65 896.89-485.38 840.75-604.42 760.52-706.34 658.6-808.26 556.68-888.49 437.64-944.64 304.9-1002.88 167.22-1032.53 21.24-1032.53-128.88-1032.53-278.99-1002.88-424.96-944.64-562.65-888.49-695.39-808.26-814.43-706.35-916.34-604.42-1018.27-485.38-1098.5-352.64-1154.64-214.97-1212.88-69-1242.53 81.12-1242.53 231.23-1242.53 377.2-1212.88 514.89-1154.64 647.64-1098.49 766.68-1018.26 868.6-916.35 970.51-814.43 1050.74-695.39 1106.89-562.64 1165.13-424.96 1194.78-278.99 1194.78-128.88 1194.78 21.24 1165.13 167.21 1106.89 304.9 1050.74 437.64 970.51 556.69 868.59 658.6 766.67 760.52 647.63 840.74 514.9 896.89 377.21 955.13 231.24 984.78 81.12 984.78" />
</clipPath>
<clipPath id="clip_15">
<path transform="matrix(1,0,0,-1,0,540)" d="M81.12 822.58C-47.33 822.58-172.08 797.17-289.48 747.51-402.9 699.53-504.64 630.92-591.65 543.92-678.66 456.91-747.27 355.16-795.26 241.73-844.92 124.34-870.33-.413-870.33-128.88-870.33-257.33-844.92-382.08-795.26-499.48-747.28-612.9-678.67-714.65-591.67-801.65-504.65-888.66-402.9-957.28-289.47-1005.26-172.09-1054.92-47.34-1080.33 81.12-1080.33 209.58-1080.33 334.32-1054.92 451.72-1005.26 565.15-957.28 666.9-888.67 753.9-801.66 840.91-714.66 909.53-612.9 957.51-499.47 1007.17-382.08 1032.58-257.34 1032.58-128.88 1032.58-.42 1007.17 124.33 957.51 241.72 909.53 355.15 840.91 456.9 753.91 543.91 666.9 630.91 565.15 699.52 451.73 747.5 334.33 797.17 209.58 822.58 81.12 822.58" />
</clipPath>
<clipPath id="clip_16">
<path transform="matrix(1,0,0,-1,0,540)" d="M81.12 660.39C-25.68 660.39-129.2 639.21-226.31 598.12-320.41 558.31-404.86 501.32-476.96 429.23-549.06 357.13-606.06 272.68-645.87 178.56-686.96 81.45-708.14-22.07-708.14-128.88-708.14-235.68-686.96-339.2-645.88-436.31-606.06-530.41-549.07-614.87-476.98-686.96-404.88-759.06-320.42-816.06-226.3-855.88-129.2-896.96-25.68-918.14 81.12-918.14 187.92-918.14 291.44-896.96 388.55-855.88 482.66-816.06 567.12-759.07 639.21-686.98 711.31-614.88 768.31-530.42 808.12-436.31 849.21-339.2 870.39-235.68 870.39-128.88 870.39-22.08 849.21 81.45 808.12 178.56 768.31 272.67 711.32 357.12 639.22 429.21 567.13 501.31 482.67 558.31 388.56 598.12 291.45 639.21 187.93 660.39 81.12 660.39" />
</clipPath>
<clipPath id="clip_17">
<path transform="matrix(1,0,0,-1,0,540)" d="M81.12 498.19C-4.02 498.19-86.32 481.24-163.14 448.74-237.93 417.1-305.08 371.72-362.26 314.55-419.45 257.36-464.84 190.19-496.49 115.39-528.99 38.58-545.95-43.73-545.95-128.88-545.95-214.02-528.99-296.32-496.49-373.13-464.85-447.93-419.47-515.08-362.3-572.26-305.11-629.46-237.94-674.84-163.14-706.49-86.32-738.99-4.02-755.94 81.12-755.94 166.27-755.94 248.56-739 325.38-706.49 400.18-674.85 467.34-629.47 524.52-572.29 581.71-515.11 627.09-447.94 658.74-373.14 691.24-296.32 708.19-214.02 708.19-128.88 708.19-43.73 691.24 38.56 658.74 115.38 627.1 190.18 581.72 257.34 524.54 314.52 467.35 371.71 400.19 417.09 325.39 448.74 248.57 481.24 166.27 498.19 81.12 498.19" />
</clipPath>
<clipPath id="clip_18">
<path transform="matrix(1,0,0,-1,0,540)" d="M81.12 336C17.64 336-43.44 323.28-99.97 299.36-155.44 275.88-205.3 242.12-247.57 199.86-289.85 157.59-323.62 107.71-347.11 52.23-371.03-4.31-383.75-65.38-383.75-128.88-383.75-192.36-371.03-253.44-347.11-309.96-323.63-365.44-289.87-415.3-247.61-457.57-205.33-499.85-155.46-533.62-99.97-557.11-43.44-581.03 17.63-593.75 81.12-593.75 144.61-593.75 205.68-581.03 262.21-557.11 317.69-533.63 367.56-499.87 409.82-457.61 452.1-415.33 485.87-365.46 509.36-309.97 533.28-253.44 546-192.37 546-128.88 546-65.39 533.28-4.32 509.36 52.21 485.88 107.69 452.12 157.56 409.85 199.83 367.58 242.1 317.71 275.87 262.23 299.35 205.69 323.28 144.62 336 81.12 336" />
</clipPath>
<clipPath id="clip_19">
<path transform="matrix(1,0,0,-1,0,540)" d="M-221.56-128.88C-221.56-296.04-86.04-431.56 81.12-431.56 248.29-431.56 383.81-296.04 383.81-128.88 383.81 38.29 248.29 173.81 81.12 173.81-86.04 173.81-221.56 38.29-221.56-128.88" />
</clipPath>
<clipPath id="clip_20">
<path transform="matrix(1,0,0,-1,0,540)" d="M0 0H960V540H0Z" />
</clipPath>
<g id="mask_21_contents">
<rect x="0" y="0" width="100%" height="100%" fill="white" />
<g>
<clipPath id="clip_22">
<path transform="matrix(1,0,0,-1,0,540)" d="M-32768-32768H32767V32767H-32768Z" />
</clipPath>
<g clip-path="url(#clip_22)">
<image x="0" y="0" width="960" height="540" xlink:href="../assets/image-01-e1edc718182d.png" />
</g>
</g>
</g>
<mask id="mask_21" mask-type="luminance">
<use xlink:href="#mask_21_contents" />
</mask>
<clipPath id="clip_23">
<path transform="matrix(1,0,0,-1,0,540)" d="M0 540H960V0H0Z" />
</clipPath>
<clipPath id="clip_24">
<path transform="matrix(1,0,0,-1,0,540)" d="M960-600H0V-60H960Z" />
</clipPath>
<clipPath id="clip_25">
<path transform="matrix(1,0,0,-1,0,540)" d="M81.13-2004.72C252.89-2004.72 420.08-1970.84 578.07-1904.03 730.12-1839.71 866.46-1747.86 983.29-1631.03 1100.12-1514.2 1191.96-1377.87 1256.28-1225.81 1323.09-1067.84 1356.97-900.65 1356.97-728.88 1356.97-557.11 1323.09-389.91 1256.28-231.93 1191.96-79.87 1100.11 56.47 983.27 173.3 866.45 290.12 730.11 381.96 578.07 446.27 420.09 513.09 252.9 546.97 81.13 546.97-90.64 546.97-257.84 513.09-415.82 446.27-567.87 381.96-704.2 290.12-821.03 173.29-937.87 56.46-1029.71-79.88-1094.03-231.94-1160.84-389.9-1194.72-557.1-1194.72-728.88-1194.72-900.64-1160.84-1067.84-1094.03-1225.82-1029.71-1377.87-937.86-1514.21-821.04-1631.03-704.2-1747.87-567.86-1839.72-415.8-1904.03-257.85-1970.84-90.65-2004.72 81.13-2004.72" />
</clipPath>
<clipPath id="clip_26">
<path transform="matrix(1,0,0,-1,0,540)" d="M0 540H960V0H0Z" />
</clipPath>
<clipPath id="clip_27">
<path transform="matrix(1,0,0,-1,0,540)" d="M960-600H0V-60H960Z" />
</clipPath>
<clipPath id="clip_28">
<path transform="matrix(1,0,0,-1,0,540)" d="M81.12 384.78C-68.99 384.78-214.96 355.13-352.65 296.89-485.38 240.75-604.42 160.52-706.34 58.6-808.26-43.32-888.49-162.36-944.64-295.1-1002.88-432.78-1032.53-578.76-1032.53-728.88-1032.53-878.99-1002.88-1024.96-944.64-1162.65-888.49-1295.39-808.26-1414.43-706.35-1516.34-604.42-1618.27-485.38-1698.5-352.64-1754.64-214.97-1812.88-69-1842.53 81.12-1842.53 231.23-1842.53 377.2-1812.88 514.89-1754.64 647.64-1698.49 766.68-1618.27 868.6-1516.35 970.51-1414.43 1050.74-1295.39 1106.89-1162.64 1165.13-1024.96 1194.78-878.99 1194.78-728.88 1194.78-578.76 1165.13-432.79 1106.89-295.1 1050.74-162.36 970.51-43.31 868.59 58.6 766.67 160.52 647.63 240.74 514.9 296.89 377.21 355.13 231.24 384.78 81.12 384.78" />
</clipPath>
<clipPath id="clip_29">
<path transform="matrix(1,0,0,-1,0,540)" d="M0 540H960V0H0Z" />
</clipPath>
<clipPath id="clip_30">
<path transform="matrix(1,0,0,-1,0,540)" d="M960-600H0V-60H960Z" />
</clipPath>
<clipPath id="clip_31">
<path transform="matrix(1,0,0,-1,0,540)" d="M81.12 222.58C-47.33 222.58-172.08 197.17-289.48 147.51-402.9 99.53-504.64 30.92-591.65-56.08-678.66-143.09-747.27-244.84-795.26-358.27-844.92-475.66-870.33-600.41-870.33-728.88-870.33-857.33-844.92-982.08-795.26-1099.48-747.28-1212.9-678.67-1314.65-591.67-1401.65-504.65-1488.66-402.9-1557.28-289.47-1605.26-172.09-1654.92-47.34-1680.33 81.12-1680.33 209.58-1680.33 334.32-1654.92 451.72-1605.26 565.15-1557.28 666.9-1488.67 753.9-1401.66 840.91-1314.66 909.53-1212.9 957.51-1099.47 1007.17-982.08 1032.58-857.34 1032.58-728.88 1032.58-600.42 1007.17-475.67 957.51-358.27 909.53-244.84 840.91-143.1 753.91-56.09 666.9 30.91 565.15 99.53 451.73 147.5 334.33 197.17 209.58 222.58 81.12 222.58" />
</clipPath>
<clipPath id="clip_32">
<path transform="matrix(1,0,0,-1,0,540)" d="M0 540H960V0H0Z" />
</clipPath>
<clipPath id="clip_33">
<path transform="matrix(1,0,0,-1,0,540)" d="M960-600H0V-60H960Z" />
</clipPath>
<clipPath id="clip_34">
<path transform="matrix(1,0,0,-1,0,540)" d="M81.12 60.39C-25.68 60.39-129.2 39.21-226.31-1.88-320.41-41.69-404.86-98.68-476.96-170.77-549.06-242.87-606.06-327.32-645.87-421.44-686.96-518.54-708.14-622.07-708.14-728.88-708.14-835.67-686.96-939.2-645.88-1036.31-606.06-1130.41-549.07-1214.87-476.98-1286.96-404.88-1359.06-320.42-1416.06-226.3-1455.88-129.2-1496.96-25.68-1518.14 81.12-1518.14 187.92-1518.14 291.44-1496.96 388.55-1455.88 482.66-1416.06 567.12-1359.07 639.21-1286.98 711.31-1214.88 768.31-1130.42 808.12-1036.31 849.21-939.2 870.39-835.68 870.39-728.88 870.39-622.08 849.21-518.55 808.12-421.44 768.31-327.33 711.32-242.88 639.22-170.78 567.13-98.69 482.67-41.69 388.56-1.88 291.45 39.2 187.93 60.39 81.12 60.39" />
</clipPath>
<clipPath id="clip_35">
<path transform="matrix(1,0,0,-1,0,540)" d="M0 540H960V0H0Z" />
</clipPath>
<clipPath id="clip_36">
<path transform="matrix(1,0,0,-1,0,540)" d="M960-600H0V-60H960Z" />
</clipPath>
<clipPath id="clip_37">
<path transform="matrix(1,0,0,-1,0,540)" d="M-1194.72-2004.72H1356.97V546.97H-1194.72Z" />
</clipPath>
<clipPath id="clip_38">
<path transform="matrix(1,0,0,-1,0,540)" d="M81.13-2004.72C252.89-2004.72 420.08-1970.84 578.07-1904.03 730.12-1839.71 866.46-1747.86 983.29-1631.03 1100.12-1514.2 1191.96-1377.87 1256.28-1225.81 1323.09-1067.84 1356.97-900.65 1356.97-728.88 1356.97-557.11 1323.09-389.91 1256.28-231.93 1191.96-79.87 1100.11 56.47 983.27 173.3 866.45 290.12 730.11 381.96 578.07 446.27 420.09 513.09 252.9 546.97 81.13 546.97-90.64 546.97-257.84 513.09-415.82 446.27-567.87 381.96-704.2 290.12-821.03 173.29-937.87 56.46-1029.71-79.88-1094.03-231.94-1160.84-389.9-1194.72-557.1-1194.72-728.88-1194.72-900.64-1160.84-1067.84-1094.03-1225.82-1029.71-1377.87-937.86-1514.21-821.04-1631.03-704.2-1747.87-567.86-1839.72-415.8-1904.03-257.85-1970.84-90.65-2004.72 81.13-2004.72" />
</clipPath>
<clipPath id="clip_39">
<path transform="matrix(1,0,0,-1,0,540)" d="M81.12 384.78C-68.99 384.78-214.96 355.13-352.65 296.89-485.38 240.75-604.42 160.52-706.34 58.6-808.26-43.32-888.49-162.36-944.64-295.1-1002.88-432.78-1032.53-578.76-1032.53-728.88-1032.53-878.99-1002.88-1024.96-944.64-1162.65-888.49-1295.39-808.26-1414.43-706.35-1516.34-604.42-1618.27-485.38-1698.5-352.64-1754.64-214.97-1812.88-69-1842.53 81.12-1842.53 231.23-1842.53 377.2-1812.88 514.89-1754.64 647.64-1698.49 766.68-1618.27 868.6-1516.35 970.51-1414.43 1050.74-1295.39 1106.89-1162.64 1165.13-1024.96 1194.78-878.99 1194.78-728.88 1194.78-578.76 1165.13-432.79 1106.89-295.1 1050.74-162.36 970.51-43.31 868.59 58.6 766.67 160.52 647.63 240.74 514.9 296.89 377.21 355.13 231.24 384.78 81.12 384.78" />
</clipPath>
<clipPath id="clip_40">
<path transform="matrix(1,0,0,-1,0,540)" d="M81.12 222.58C-47.33 222.58-172.08 197.17-289.48 147.51-402.9 99.53-504.64 30.92-591.65-56.08-678.66-143.09-747.27-244.84-795.26-358.27-844.92-475.66-870.33-600.41-870.33-728.88-870.33-857.33-844.92-982.08-795.26-1099.48-747.28-1212.9-678.67-1314.65-591.67-1401.65-504.65-1488.66-402.9-1557.28-289.47-1605.26-172.09-1654.92-47.34-1680.33 81.12-1680.33 209.58-1680.33 334.32-1654.92 451.72-1605.26 565.15-1557.28 666.9-1488.67 753.9-1401.66 840.91-1314.66 909.53-1212.9 957.51-1099.47 1007.17-982.08 1032.58-857.34 1032.58-728.88 1032.58-600.42 1007.17-475.67 957.51-358.27 909.53-244.84 840.91-143.1 753.91-56.09 666.9 30.91 565.15 99.53 451.73 147.5 334.33 197.17 209.58 222.58 81.12 222.58" />
</clipPath>
<clipPath id="clip_41">
<path transform="matrix(1,0,0,-1,0,540)" d="M81.12 60.39C-25.68 60.39-129.2 39.21-226.31-1.88-320.41-41.69-404.86-98.68-476.96-170.77-549.06-242.87-606.06-327.32-645.87-421.44-686.96-518.54-708.14-622.07-708.14-728.88-708.14-835.67-686.96-939.2-645.88-1036.31-606.06-1130.41-549.07-1214.87-476.98-1286.96-404.88-1359.06-320.42-1416.06-226.3-1455.88-129.2-1496.96-25.68-1518.14 81.12-1518.14 187.92-1518.14 291.44-1496.96 388.55-1455.88 482.66-1416.06 567.12-1359.07 639.21-1286.98 711.31-1214.88 768.31-1130.42 808.12-1036.31 849.21-939.2 870.39-835.68 870.39-728.88 870.39-622.08 849.21-518.55 808.12-421.44 768.31-327.33 711.32-242.88 639.22-170.78 567.13-98.69 482.67-41.69 388.56-1.88 291.45 39.2 187.93 60.39 81.12 60.39" />
</clipPath>
<clipPath id="clip_42">
<path transform="matrix(1,0,0,-1,0,540)" d="M0 540H960V0H0Z" />
</clipPath>
<clipPath id="clip_43">
<path transform="matrix(1,0,0,-1,0,540)" d="M0 540H960V0H0Z" />
</clipPath>
<clipPath id="clip_44">
<path transform="matrix(1,0,0,-1,0,540)" d="M0 540H960V0H0Z" />
</clipPath>
<clipPath id="clip_45">
<path transform="matrix(1,0,0,-1,0,540)" d="M0 540H960V0H0Z" />
</clipPath>
<clipPath id="clip_46">
<path transform="matrix(1,0,0,-1,0,540)" d="M0 540H960V0H0Z" />
</clipPath>
<clipPath id="clip_47">
<path transform="matrix(1,0,0,-1,0,540)" d="M0 540H960V0H0Z" />
</clipPath>
<clipPath id="clip_48">
<path transform="matrix(1,0,0,-1,0,540)" d="M0 540H960V0H0Z" />
</clipPath>
</defs>
<g>
<g ns2:groupmode="layer" ns2:label="Layer 1">
<g clip-path="url(#clip_1)">
<g clip-path="url(#clip_2)">
<g opacity=".300003">
<g clip-path="url(#clip_3)">
<g clip-path="url(#clip_4)">
</g>
<g clip-path="url(#clip_5)">
</g>
<g clip-path="url(#clip_6)">
</g>
<g clip-path="url(#clip_7)">
</g>
<g clip-path="url(#clip_8)">
</g>
<g clip-path="url(#clip_9)">
</g>
<g clip-path="url(#clip_10)">
</g>
</g>
</g>
</g>
</g>
<g clip-path="url(#clip_11)">
<g opacity=".300003">
<g clip-path="url(#clip_12)">
<g clip-path="url(#clip_13)">
<image x="0" y="0" width="960" height="540" xlink:href="../assets/image-02-c9511c5f521d.png" />
</g>
<g clip-path="url(#clip_14)">
<image x="0" y="0" width="960" height="540" xlink:href="../assets/image-03-1fedf2a63df0.png" />
</g>
<g clip-path="url(#clip_15)">
<image x="0" y="0" width="960" height="540" xlink:href="../assets/image-04-4db648f06d0b.png" />
</g>
<g clip-path="url(#clip_16)">
<image x="0" y="0" width="871" height="540" xlink:href="../assets/image-05-bc41bb26c3c0.png" />
</g>
<g clip-path="url(#clip_17)">
<image x="0" y="41" width="709" height="499" xlink:href="../assets/image-06-d5670a78ce91.png" />
</g>
<g clip-path="url(#clip_18)">
<image x="0" y="204" width="546" height="336" xlink:href="../assets/image-07-3dd73f8d864c.png" />
</g>
<g clip-path="url(#clip_19)">
<image x="0" y="366" width="384" height="174" xlink:href="../assets/image-08-42ad5a47d4e7.png" />
</g>
</g>
</g>
</g>
<g clip-path="url(#clip_20)">
<g mask="url(#mask_21)">
<image x="0" y="0" width="960" height="540" xlink:href="../assets/image-09-033380fb3bdf.png" />
</g>
</g>
<g clip-path="url(#clip_23)">
<g clip-path="url(#clip_24)">
<g clip-path="url(#clip_25)">
</g>
</g>
</g>
<g clip-path="url(#clip_26)">
<g clip-path="url(#clip_27)">
<g clip-path="url(#clip_28)">
</g>
</g>
</g>
<g clip-path="url(#clip_29)">
<g clip-path="url(#clip_30)">
<g clip-path="url(#clip_31)">
</g>
</g>
</g>
<g clip-path="url(#clip_32)">
<g clip-path="url(#clip_33)">
<g clip-path="url(#clip_34)">
</g>
</g>
</g>
<g clip-path="url(#clip_35)">
<g clip-path="url(#clip_36)">
<g opacity=".300003" style="mix-blend-mode:color-burn">
<g clip-path="url(#clip_37)">
<g clip-path="url(#clip_38)">
</g>
<g clip-path="url(#clip_39)">
</g>
<g clip-path="url(#clip_40)">
</g>
<g clip-path="url(#clip_41)">
</g>
</g>
</g>
</g>
</g>
<text fill="#ffffff" xml:space="preserve" transform="matrix(1 0 -0 1 0 540)" font-size="40" font-family="AGLBRN+ArialMT"><tspan y="-398.6494" x="50 73.996 95.56401 103.92402 123.92402 135.04402 143.39603 163.39603 174.51602 196.75603">This is a </tspan><tspan y="-358.6494" x="50 70.132 91.92401 113.208019 123.96002 137.30802 145.54802 167.14803 188.66803 198.95603 220.76804 233.97203 253.97203">contributors </tspan><tspan y="-318.6494" x="50 69.44 77.604007 86.076007 107.72 128.8 139.912 151.032 161.504 183.06801 202.50801 224.21202 238.58802 249.70401 260.824 279.764 301.444 322.988 336.312">slide. Insert your </tspan><tspan y="-278.6494" x="50 60.24 81.92801 103.52401 136.84403">team </tspan></text>
<text fill="#ffffff" xml:space="preserve" transform="matrix(1 0 -0 1 0 540)" font-size="40" font-family="VWYXZX+Arial-BoldMT" font-weight="bold"><tspan y="-278.6494" x="147.96404 172.16803 194.10004 209.31604 230.95604">here.</tspan></text>
<text fill="#ffffff" xml:space="preserve" transform="matrix(1 0 -0 1 0 540)" font-size="10" font-family="AGLBRN+ArialMT"><tspan y="-241.2217" x="50 55.535 61.152 64.5 70.089 78.419 81.199 83.427 89.011 93.997 99.549999 107.88 110.659999 116.25099 121.86899 124.14199 129.759 133.089 135.869 140.88501 143.11602 145.89601 148.67601 154.23601 162.60701 168.1 170.942 173.722 176.502 181.686 187.299 192.859 197.888 203.499 208.61899 211.34899 216.84299 219.63498 225.19498 228.52498 231.30498 236.86498 242.40697 244.63697 250.22496 252.48197 257.50099 262.62498 264.85398 270.44099 276.00099 278.78099 284.38899 286.59898 288.82997 291.66996 294.44996 297.22996 303.94297 309.55598 315.11598">Lorem ipsum dolor sit amet, consectetur adipiscing elit. Sed </tspan><tspan y="-228.2217" x="50 55.028 60.642004 66.202 68.982 71.712 77.31899 79.538997 81.758998 87.31899 92.31899 95.09899 100.12999 105.74399 111.303989 114.083988 116.31199 121.85199 126.95999 132.51999 137.51999 140.29999 148.65499 154.39498 159.45598 161.68598 170.01598 175.57598 180.57598 183.35597 188.54398 194.15697 199.71697 204.74597 210.35597 215.47698 218.20697 223.70098 226.49297 232.05297 234.78597 237.56597 240.34597 247.00597 252.59397 258.17796 263.76695 269.33494 274.89494 277.67494 283.24894 285.45893 287.73695 293.29093 298.85993 304.42793 312.7579">sed tellus sed lacus maximus consectetur. Aenean aliquam </tspan><tspan y="-215.2217" x="50 52.73 58.338 60.558004 62.778005 68.338008 73.338008 76.118007 81.714008 85.09701 90.614009 93.456 96.236 99.016 104.506 107.285999 110.065998 118.418 123.991 126.249 131.86602 136.852 142.42 147.98 153.54 159.09999 161.87999 164.11299 169.69799 174.68398 180.23598 188.56598 191.34598 196.45298 202.01297 205.47298 210.45998 216.01998 221.01998 223.79998 226.08098 231.56198 234.34198 237.12198 243.91298 246.16799 251.06499 256.634 264.964 270.524 275.524 278.304 283.87699 286.08799 288.366 293.91999 299.50398 304.99797 307.77796">tellus erat, et malesuada ipsum cursus id. Vivamus aliquet </tspan><tspan y="-202.2217" x="50 55.594 58.967004 64.579 69.579 72.359 77.231 82.839 85.059 87.839 90.58399 96.20099 99.93099 102.67499 108.292987 111.622989 114.402988 119.58898 125.20198 130.78798 136.36698 141.94498 147.50498 150.28498 155.78897 158.92897 161.97298 164.23097 169.35497 171.58496 174.37796 179.93796 183.26796 186.04796 190.92195 196.52895 198.74895 201.52895 206.40294 212.01094 214.23094 217.01094 219.22194 221.45095 227.05994 232.65294 236.02594 241.44994 244.22994 247.00994 253.49593 256.33695 258.58094 264.14894 272.4789 275.2589 277.4789 283.0479 288.1679 290.9609 296.5209 301.5209 304.3009 312.6459 314.8659">eros vel tortor congue efficitur vel vel libero. Etiam luctus mi </tspan><tspan y="-189.2217" x="50 55.017 57.248 60.028 62.808 68.368 76.739 82.231998 85.01199 87.79199 96.144 101.672 107.231998 110.727 112.984 117.984 120.764 129.118 134.857 139.91899 142.14899 150.47899 156.03899 161.03899 163.81899 166.63599 172.16399 177.73299 182.85698 185.08599 190.65598 196.21598 201.19498 203.97498 206.75498 215.18898 220.74298 226.35298 231.52599 237.11499 242.68299 248.24298 253.24298 256.02299 258.83998 264.37898 269.50297 271.74296 273.95396 276.20997 281.22697 283.48396 288.48396 291.26396 296.80195 301.80195">sit amet mauris maximus faucibus. Maecenas facilisis ac </tspan><tspan y="-176.2217" x="50 55.577 61.137 64.646 70.206 75.206 77.986 83.569 89.129 91.909 97.536998 103.15399 106.883998 109.788997 115.32199">purus eu porta.</tspan></text>
<g clip-path="url(#clip_42)">
<path transform="matrix(1,0,0,-1,615,173.96)" d="M0 0C0-33.83-27.42-61.25-61.25-61.25-95.08-61.25-122.5-33.83-122.5 0-122.5 33.83-95.08 61.25-61.25 61.25-27.42 61.25 0 33.83 0 0" fill="#bfbfbf" />
</g>
<text fill="#ffffff" xml:space="preserve" transform="matrix(1 0 -0 1 0 540)" font-size="10" font-family="VWYXZX+Arial-BoldMT" font-weight="bold"><tspan y="-283.3704" x="512.1187 518.7287 524.3687 527.8757 531.93069 534.79067 540.4607 546.0227 548.8027 555.69668 558.4747 561.25466 567.97866 574.15469 580.3647 584.33468 589.81967">Patrick E. Shorey</tspan></text>
<text fill="#ffffff" xml:space="preserve" transform="matrix(1 0 -0 1 0 540)" font-size="10" font-family="AGLBRN+ArialMT"><tspan y="-269.3704" x="504.8587 511.98973 517.59976 522.72079 526.0687 531.65878 537.17678 540.01779 542.30276 547.91476 553.4828 559.0558 561.2778 564.05776 566.90377 572.4938 578.0838 581.46578 587.0348 592.6248 594.88186 599.8619">Recreational therapist</tspan></text>
<g clip-path="url(#clip_43)">
<path transform="matrix(1,0,0,-1,762.5,173.96)" d="M0 0C0-33.83-27.42-61.25-61.25-61.25-95.08-61.25-122.5-33.83-122.5 0-122.5 33.83-95.08 61.25-61.25 61.25-27.42 61.25 0 33.83 0 0" fill="#bfbfbf" />
</g>
<text fill="#ffffff" xml:space="preserve" transform="matrix(1 0 -0 1 0 540)" font-size="10" font-family="VWYXZX+Arial-BoldMT" font-weight="bold"><tspan y="-283.3704" x="658.3843 666.8513 672.5233 676.87338 682.43338 685.2134 690.62338 693.4034 696.1834 704.5944 707.47848 713.7144 719.8954 722.8014 728.42739 731.8214 738.0074">Mary T. Middleton</tspan></text>
<text fill="#ffffff" xml:space="preserve" transform="matrix(1 0 -0 1 0 540)" font-size="10" font-family="AGLBRN+ArialMT"><tspan y="-269.3704" x="651.0643 657.6883 663.0793 668.06826 673.0852 675.3452 680.5372 686.11117 688.33218 691.1122 699.4822 704.97518 707.7062 713.32516 718.9431 722.3131 727.9301 730.2031 735.8511 741.42007 743.68008 748.66006">Physical meteorologist</tspan></text>
<g clip-path="url(#clip_44)">
<path transform="matrix(1,0,0,-1,910,173.96)" d="M0 0C0-33.83-27.42-61.25-61.25-61.25-95.08-61.25-122.5-33.83-122.5 0-122.5 33.83-95.08 61.25-61.25 61.25-27.42 61.25 0 33.83 0 0" fill="#bfbfbf" />
</g>
<text fill="#ffffff" xml:space="preserve" transform="matrix(1 0 -0 1 0 540)" font-size="10" font-family="VWYXZX+Arial-BoldMT" font-weight="bold"><tspan y="-283.3704" x="804.3154 813.8734 816.6965 819.51956 822.3426 825.2146 830.9046 839.7946 842.57467 850.04367 852.82369 855.6037 862.8857 869.0867 875.32968 880.88967 887.07669">William R. Hudson</tspan></text>
<text fill="#ffffff" xml:space="preserve" transform="matrix(1 0 -0 1 0 540)" font-size="10" font-family="AGLBRN+ArialMT"><tspan y="-269.3704" x="822.3054 828.4744 830.7044 839.0754 844.6584 849.4574 855.0604 860.65048 866.26449 871.8545">Timekeeper</tspan></text>
<g clip-path="url(#clip_45)">
<path transform="matrix(1,0,0,-1,615,366.04)" d="M0 0C0-33.83-27.42-61.25-61.25-61.25-95.08-61.25-122.5-33.83-122.5 0-122.5 33.83-95.08 61.25-61.25 61.25-27.42 61.25 0 33.83 0 0" fill="#bfbfbf" />
</g>
<text fill="#ffffff" xml:space="preserve" transform="matrix(1 0 -0 1 0 540)" font-size="10" font-family="VWYXZX+Arial-BoldMT" font-weight="bold"><tspan y="-91.2922" x="513.8022 520.0632 525.73519 529.8202 534.1702 539.7302 542.51028 550.4063 553.18637 555.9664 563.26736 569.4763 575.6973 581.9633 587.59036">Larry G. Dodgen</tspan></text>
<text fill="#ffffff" xml:space="preserve" transform="matrix(1 0 -0 1 0 540)" font-size="10" font-family="AGLBRN+ArialMT"><tspan y="-77.2922" x="512.09219 518.86618 523.95217 528.9692 531.22616 536.20516 539.1101 544.6801 550.17617 552.95516 555.7351 564.17318 569.74319 575.3132 580.8832 586.4912 592.0842">Assistant Manager</tspan></text>
<g clip-path="url(#clip_46)">
<path transform="matrix(1,0,0,-1,762.5,366.04)" d="M0 0C0-33.83-27.42-61.25-61.25-61.25-95.08-61.25-122.5-33.83-122.5 0-122.5 33.83-95.08 61.25-61.25 61.25-27.42 61.25 0 33.83 0 0" fill="#bfbfbf" />
</g>
<text fill="#ffffff" xml:space="preserve" transform="matrix(1 0 -0 1 0 540)" font-size="10" font-family="VWYXZX+Arial-BoldMT" font-weight="bold"><tspan y="-91.2922" x="657.2754 665.7424 671.3924 677.5404 683.7764 689.41146 692.18948 694.9694 701.6984 704.4774 707.2574 714.5824 720.2324 725.9385 731.5885 735.67349 739.66549">Manuel S. Becerra</tspan></text>
<text fill="#ffffff" xml:space="preserve" transform="matrix(1 0 -0 1 0 540)" font-size="10" font-family="AGLBRN+ArialMT"><tspan y="-77.2922" x="641.5054 647.05337 649.31137 654.4843 660.0733 665.6333 670.6623 676.2763 681.8363 684.61636 690.8823 696.51736 701.70938 707.22738 710.06838 712.35336 717.96536 723.5333 729.1063 731.3263 734.1063 741.3923 746.9523 750.4123 755.4403">Licensed Vocational Nurse</tspan></text>
<g clip-path="url(#clip_47)">
<path transform="matrix(1,0,0,-1,910,366.04)" d="M0 0C0-33.83-27.42-61.25-61.25-61.25-95.08-61.25-122.5-33.83-122.5 0-122.5 33.83-95.08 61.25-61.25 61.25-27.42 61.25 0 33.83 0 0" fill="#bfbfbf" />
</g>
<text fill="#ffffff" xml:space="preserve" transform="matrix(1 0 -0 1 0 540)" font-size="10" font-family="VWYXZX+Arial-BoldMT" font-weight="bold"><tspan y="-91.2922" x="805.4536 812.7536 818.9386 825.1236 830.7636 833.6486 839.75668 842.5366 848.14767 850.92666 853.7066 860.9976 867.2066 871.31057 880.2905 885.9395">Donald P. Norman</tspan></text>
<text fill="#ffffff" xml:space="preserve" transform="matrix(1 0 -0 1 0 540)" font-size="10" font-family="AGLBRN+ArialMT"><tspan y="-77.2922" x="809.8336 817.11068 819.3257 822.1777 825.5597 831.12069 836.16067 841.7736 847.3736 853.02059 858.60256 861.9835 867.55349 873.15347 878.74246 884.3354">Ultrasonographer</tspan></text>
<text fill="#3333ff" xml:space="preserve" transform="matrix(1 0 -0 1 0 540)" font-size="10" font-family="AGLBRN+ArialMT"><tspan y="-506.42219" x="849.23367 855.9536 861.5706 866.6566 871.6736 873.96066 879.5706 885.1326 887.91268 894.0816 896.3126 899.32766 902.18466 904.4426">Session Tittle</tspan></text>
<g clip-path="url(#clip_48)">
<path transform="matrix(1,0,0,-1,718.65,30)" d="M0 0V0C0 4.74 3.84 8.58 8.58 8.58H104.14C108.88 8.58 112.72 4.74 112.72 0 112.72-4.74 108.88-8.58 104.14-8.58H8.58C3.84-8.58 0-4.74 0 0" fill="#3333ff" />
</g>
<text fill="#ffffff" xml:space="preserve" transform="matrix(1 0 -0 1 0 540)" font-size="10" font-family="VWYXZX+Arial-BoldMT" font-weight="bold"><tspan y="-506.4182" x="725.7217 732.32669 736.2426 742.39266 745.2946 750.9456 756.6856 760.01559 762.79556 769.4005 773.3705 779.0375 784.6385 790.2655 796.44656 799.9415 805.58157 809.0735 811.9335 818.1235">Project Presentation</tspan></text>
<text fill="#ffffff" xml:space="preserve" transform="matrix(1 0 -0 1 0 540)" font-size="10" font-family="AGLBRN+ArialMT"><tspan y="-24.99823" x="898.64169 904.44168">04</tspan></text>
<text fill="#ffffff" xml:space="preserve" transform="matrix(1 0 -0 1 0 540)" font-size="10" font-family="ProximaNova-Bold" font-weight="bold"><tspan y="-25.42823" x="50.001649 57.53565 63.57165 69.671649 75.68365 81.76365 84.323657 90.38365 97.78665 105.26065 108.06765 114.12765 119.90264 127.30565 134.59566 137.43666">©2025 SUN.STUDIO</tspan></text>
<text fill="#ffffff" xml:space="preserve" transform="matrix(1 0 -0 1 0 540)" font-size="10" font-family="ProximaNova-Regular"><tspan y="-25.42823" x="145.08165 147.66165 154.39765 156.70764 158.95764 161.53765 164.91664 167.22664 173.03664 178.65464 181.87264 186.52265 189.10265 192.38665 198.07665 202.77065 208.47064 212.19765 217.06066 222.77967"> All rights reserved</tspan></text>
</g>
</g>
</svg>