<?xml version='1.0' encoding='utf-8'?>
<svg xmlns="http://www.w3.org/2000/svg" xmlns:ns1="http://www.inkscape.org/namespaces/inkscape" version="1.1" width="960" height="540" viewBox="0 0 960 540">
<defs>
<clipPath id="clip_1">
<path transform="matrix(1,0,0,-1,0,540)" d="M0 540H960V0H0Z" />
</clipPath>
<clipPath id="clip_2">
<path transform="matrix(1,0,0,-1,0,540)" d="M0 540H960V0H0Z" />
</clipPath>
<clipPath id="clip_3">
<path transform="matrix(1,0,0,-1,0,540)" d="M0 540H960V0H0Z" />
</clipPath>
</defs>
<g>
<g ns1:groupmode="layer" ns1:label="Layer 1">
<g clip-path="url(#clip_1)">
<path transform="matrix(1,0,0,-1,718.65,30)" d="M0 0V0C0 4.74 3.84 8.58 8.58 8.58H104.14C108.88 8.58 112.72 4.74 112.72 0 112.72-4.74 108.88-8.58 104.14-8.58H8.58C3.84-8.58 0-4.74 0 0" fill="#ff5533" />
</g>
<g clip-path="url(#clip_2)">
<path transform="matrix(1,0,0,-1,485.04,489.96)" d="M0 0H409.96C418.24 0 424.96 6.72 424.96 15V424.96C424.96 433.24 418.24 439.96 409.96 439.96H0C-8.28 439.96-15 433.24-15 424.96V15C-15 6.72-8.28 0 0 0" fill="#bfbfbf" />
</g>
<g clip-path="url(#clip_3)">
<path transform="matrix(1,0,0,-1,82.7,489.96)" d="M0 0C-18.03 0-32.7 14.67-32.7 32.7-32.7 50.72-18.03 65.39 0 65.39 18.03 65.39 32.7 50.72 32.7 32.7 32.7 14.67 18.03 0 0 0" fill="#ffd0c9" />
<path transform="matrix(1,0,0,-1,82.7,486.62)" d="M0 0C-16.2 0-29.36 13.16-29.36 29.36-29.36 45.56-16.2 58.73 0 58.73 16.2 58.73 29.36 45.56 29.36 29.36 29.36 13.16 16.2 0 0 0" fill="#ffa797" />
<path transform="matrix(1,0,0,-1,82.7,483.29)" d="M0 0C-14.37 0-26.03 11.66-26.03 26.03-26.03 40.4-14.37 52.06 0 52.06 14.37 52.06 26.03 40.4 26.03 26.03 26.03 11.66 14.37 0 0 0" fill="#ff7e65" />
<path transform="matrix(1,0,0,-1,105.39,457.26)" d="M0 0C0-12.53-10.16-22.7-22.7-22.7-35.23-22.7-45.39-12.53-45.39 0-45.39 12.53-35.23 22.7-22.7 22.7-10.16 22.7 0 12.53 0 0" fill="#ff5533" />
<path transform="matrix(1,0,0,-1,72.85,447.41)" stroke-width="3" stroke-linecap="butt" stroke-linejoin="round" fill="none" stroke="#ffffff" d="M0 0H19.7V-19.7" />
<path transform="matrix(1,0,0,-1,72.85,467.11)" stroke-width="3" stroke-linecap="butt" stroke-linejoin="round" fill="none" stroke="#ffffff" d="M0 0 19.7 19.7" />
</g>
</g>
</g>
</svg>