<?xml version='1.0' encoding='utf-8'?>
<svg xmlns="http://www.w3.org/2000/svg" xmlns:ns1="http://www.inkscape.org/namespaces/inkscape" version="1.1" width="1920" height="1080" viewBox="0 0 1920 1080">
<defs>
<clipPath id="clip_1">
<path transform="matrix(1,0,0,-1,0,1080)" d="M0 0H1245.75V694.5H0Z" />
</clipPath>
<clipPath id="clip_2">
<path transform="matrix(1,0,0,-1,0,1080)" d="M0 1080H1920V0H0Z" />
</clipPath>
<clipPath id="clip_3">
<path transform="matrix(1,0,0,-1,0,1080)" d="M153.58 221.47H441.23V577.7H153.58Z" />
</clipPath>
<clipPath id="clip_4">
<path transform="matrix(1,0,0,-1,0,1080)" d="M0 1080H1920V0H0Z" />
</clipPath>
<clipPath id="clip_5">
<path transform="matrix(1,0,0,-1,0,1080)" d="M390.71 642.86H432.8V684.98H390.71Z" />
</clipPath>
<clipPath id="clip_6">
<path transform="matrix(1,0,0,-1,0,1080)" d="M0 1080H1920V0H0Z" />
</clipPath>
<clipPath id="clip_7">
<path transform="matrix(1,0,0,-1,0,1080)" d="M484.77 221.47H772.42V568.94H484.77Z" />
</clipPath>
<clipPath id="clip_8">
<path transform="matrix(1,0,0,-1,0,1080)" d="M0 1080H1920V0H0Z" />
</clipPath>
<clipPath id="clip_9">
<path transform="matrix(1,0,0,-1,0,1080)" d="M722.26 642.86H764.35V684.98H722.26Z" />
</clipPath>
<clipPath id="clip_10">
<path transform="matrix(1,0,0,-1,0,1080)" d="M815.96 221.47H1103.61V568.94H815.96Z" />
</clipPath>
<clipPath id="clip_11">
<path transform="matrix(1,0,0,-1,0,1080)" d="M0 1080H1920V0H0Z" />
</clipPath>
<clipPath id="clip_12">
<path transform="matrix(1,0,0,-1,0,1080)" d="M1053.44 642.86H1095.54V684.98H1053.44Z" />
</clipPath>
<clipPath id="clip_13">
<path transform="matrix(1,0,0,-1,0,1080)" d="M1481.99 220.66H1769.64V568.94H1481.99Z" />
</clipPath>
<clipPath id="clip_14">
<path transform="matrix(1,0,0,-1,0,1080)" d="M0 1080H1920V0H0Z" />
</clipPath>
<clipPath id="clip_15">
<path transform="matrix(1,0,0,-1,0,1080)" d="M1719.47 642.86H1761.57V684.98H1719.47Z" />
</clipPath>
<clipPath id="clip_16">
<path transform="matrix(1,0,0,-1,0,1080)" d="M0 1080H1920V0H0Z" />
</clipPath>
<clipPath id="clip_17">
<path transform="matrix(1,0,0,-1,0,1080)" d="M1148.38 221.47H1436.03V568.94H1148.38Z" />
</clipPath>
<clipPath id="clip_18">
<path transform="matrix(1,0,0,-1,0,1080)" d="M0 1080H1920V0H0Z" />
</clipPath>
<clipPath id="clip_19">
<path transform="matrix(1,0,0,-1,0,1080)" d="M1385.87 642.86H1427.96V684.98H1385.87Z" />
</clipPath>
<clipPath id="clip_20">
<path transform="matrix(1,0,0,-1,0,1080)" d="M0 1080H1920V0H0Z" />
</clipPath>
<clipPath id="clip_21">
<path transform="matrix(1,0,0,-1,0,1080)" d="M0 1080H1920V0H0Z" />
</clipPath>
<clipPath id="clip_22">
<path transform="matrix(1,0,0,-1,0,1080)" d="M0 1080H1920V0H0Z" />
</clipPath>
<clipPath id="clip_23">
<path transform="matrix(1,0,0,-1,0,1080)" d="M0 1080H1920V0H0Z" />
</clipPath>
</defs>
<g>
<g ns1:groupmode="layer" ns1:label="Layer 1">
</g>
<g ns1:groupmode="layer" ns1:label="Layer 2">
<g clip-path="url(#clip_1)">
<g ns1:groupmode="layer" ns1:label="Page18">
</g>
<g ns1:groupmode="layer" ns1:label="Page17">
</g>
<g ns1:groupmode="layer" ns1:label="Page 16">
</g>
<g ns1:groupmode="layer" ns1:label="Page 15">
</g>
<g ns1:groupmode="layer" ns1:label="Page 14">
</g>
<g ns1:groupmode="layer" ns1:label="Page 13">
</g>
<g ns1:groupmode="layer" ns1:label="Page 12">
</g>
<g ns1:groupmode="layer" ns1:label="Page 11">
</g>
</g>
</g>
<g ns1:groupmode="layer" ns1:label="Page 10">
<path transform="matrix(1,0,0,-1,0,1080)" d="M1.14 0H1920V1080H1.14Z" fill="#f2f2f2" />
<g clip-path="url(#clip_2)">
<path transform="matrix(1,0,0,-1,1654.19,111.45)" d="M0 0V-8.33C0-8.69 .31-8.98 .693-8.98H8.02C8.4-8.98 8.71-8.69 8.71-8.33V2.58C8.71 3.08 8.29 3.22 7.94 3.06 5.5 2 2.59 1.18 .644 .697 .26 .601 0 .32 0 0" />
<path transform="matrix(1,0,0,-1,1674.58,109.44)" d="M0 0C-.828-.776-2.05-1.72-3.5-1.72-4.89-1.72-5.96-.4-6.6 .4-6.81 .66-7.37 .498-7.37 .046V-10.34C-7.37-10.71-7.06-11-6.67-11H.655C1.04-11 1.35-10.71 1.35-10.34V.163C1.35 .669 .844 .812 .577 .576 .391 .412 .156 .146 0 0" />
<path transform="matrix(1,0,0,-1,1688.04,88.53)" d="M0 0C-1.73-3.26-4.65-6.98-7.4-9.16-7.66-9.37-7.81-9.73-7.81-10.03V-31.25C-7.81-31.65-7.5-31.91-7.12-31.91H.214C.597-31.91 .907-31.66 .907-31.25V-.178C.902 .301 .232 .438 0 0" />
<path transform="matrix(1,0,0,-1,1678.33,87.37)" d="M0 0C-1.83 .072-3.25 1.61-3.17 3.44-3.1 5.27-1.56 6.69 .265 6.62 2.09 6.54 3.51 5 3.44 3.18 3.37 1.35 1.83-.073 0 0M6.35 11.04C.214 10.99-6.8 7.28-11.02 2.96-14.49 2.96-20.89 1.97-23.19-.92-23.67-1.52-23.48-2.32-22.78-2.63-22.12-2.92-18.26-3.8-18.11-3.98-18.47-4.71-18.46-5.05-17.99-5.7-17.94-5.78-17.88-5.85-17.82-5.93-17.62-5.91-17.41-5.89-17.2-5.89H-17.11C-14.76-5.92-12.7-7.28-11.72-9.44-11.19-10.61-11.05-11.87-11.27-13.06-11.03-13.34-10.8-13.62-10.58-13.91-10.11-14.42-9.57-14.3-8.99-14.1-8.57-15.55-8.58-17.56-8.07-18.94-7.8-19.68-7.01-19.85-6.36-19.46-5.98-19.23-5.03-18.07-4.73-17.66-2.64-14.85-1.74-11.21-1.38-7.77 3.37-4.06 7.8 2.59 8.47 8.7 8.7 10.8 8.47 11.06 6.35 11.04" fill="#ff5533" />
<path transform="matrix(1,0,0,-1,1661.2,94.71)" d="M0 0C-3.46 .045-4.62-3.22-5.72-5.88-6.17-6.96-7.09-9.07-7.26-10.13-7.34-10.62-7.15-11.06-6.74-11.31-6.22-11.62-5.83-11.39-5.29-11.26-3.22-10.76 2.1-9.13 3.42-7.58 5.91-4.66 3.87-.05 0 0" fill="#ff5533" />
<path transform="matrix(1,0,0,-1,1713.65,84.67)" d="M0 0H-3.61V-4.4H0C1.34-4.4 2.34-3.54 2.34-2.2 2.34-.884 1.34 0 0 0M-7-13.02V2.92H.454C3.92 2.92 5.81 .573 5.81-2.22 5.81-5 3.9-7.31 .454-7.31H-3.61V-13.02Z" />
<path transform="matrix(1,0,0,-1,1723.48,90.84)" d="M0 0H5.69C5.62 1.1 4.85 2.56 2.84 2.56 .956 2.56 .143 1.15 0 0M2.84 4.97C6.29 4.97 8.63 2.39 8.63-1.39V-2.06H.047C.239-3.51 1.41-4.73 3.37-4.73 4.45-4.73 5.71-4.3 6.45-3.58L7.79-5.54C6.62-6.62 4.83-7.14 3.04-7.14-.478-7.14-3.13-4.78-3.13-1.07-3.13 2.27-.669 4.97 2.84 4.97" />
<path transform="matrix(1,0,0,-1,1734.3,97.7)" d="M0 0V11.54H3.04V9.96C3.85 10.99 5.28 11.8 6.71 11.8V8.84C6.5 8.89 6.21 8.91 5.88 8.91 4.88 8.91 3.54 8.36 3.04 7.62V0Z" />
<path transform="matrix(1,0,0,-1,1746.64,88.81)" d="M0 0V-8.89H-3.06V0H-4.97V2.65H-3.06V3.27C-3.06 5.78-1.43 7.29 .836 7.29 1.7 7.29 2.48 7.1 3.04 6.81L2.41 4.66C2.15 4.83 1.79 4.9 1.43 4.9 .573 4.9 0 4.33 0 3.23V2.65H2.34V0Z" />
<path transform="matrix(1,0,0,-1,1759.04,91.91)" d="M0 0C0 1.79-1.07 3.35-2.96 3.35-4.85 3.35-5.9 1.79-5.9 0-5.9-1.82-4.85-3.37-2.96-3.37-1.07-3.37 0-1.82 0 0M-9.06 0C-9.06 3.27-6.76 6.05-2.96 6.05 .86 6.05 3.15 3.27 3.15 0 3.15-3.3 .86-6.07-2.96-6.07-6.76-6.07-9.06-3.3-9.06 0" />
<path transform="matrix(1,0,0,-1,1764.44,97.7)" d="M0 0V11.54H3.04V9.96C3.85 10.99 5.28 11.8 6.71 11.8V8.84C6.5 8.89 6.21 8.91 5.88 8.91 4.88 8.91 3.54 8.36 3.04 7.62V0Z" />
<path transform="matrix(1,0,0,-1,1787.36,97.7)" d="M0 0V7.29C0 8.36-.478 9.13-1.72 9.13-2.8 9.13-3.68 8.41-4.11 7.79V0H-7.17V7.29C-7.17 8.36-7.65 9.13-8.89 9.13-9.94 9.13-10.82 8.41-11.28 7.77V0H-14.31V11.54H-11.28V10.04C-10.8 10.73-9.27 11.83-7.5 11.83-5.81 11.83-4.73 11.04-4.3 9.73-3.63 10.78-2.1 11.83-.335 11.83 1.79 11.83 3.06 10.71 3.06 8.34V0Z" />
<path transform="matrix(1,0,0,-1,1800.34,93.49)" d="M0 0C-.501 .669-1.46 1-2.44 1-3.63 1-4.61 .358-4.61-.741-4.61-1.82-3.63-2.44-2.44-2.44-1.46-2.44-.501-2.1 0-1.43ZM0-4.21V-3.01C-.788-3.94-2.15-4.49-3.66-4.49-5.5-4.49-7.67-3.25-7.67-.669-7.67 2.03-5.5 3.01-3.66 3.01-2.13 3.01-.764 2.53 0 1.6V3.2C0 4.37-1 5.14-2.53 5.14-3.78 5.14-4.92 4.68-5.9 3.78L-7.05 5.81C-5.64 7.05-3.82 7.62-2.01 7.62 .621 7.62 3.04 6.57 3.04 3.25V-4.21Z" />
<path transform="matrix(1,0,0,-1,1814.18,97.7)" d="M0 0V6.98C0 8.58-.836 9.13-2.13 9.13-3.32 9.13-4.25 8.46-4.76 7.77V0H-7.79V11.54H-4.76V10.04C-4.01 10.92-2.6 11.83-.717 11.83 1.82 11.83 3.04 10.39 3.04 8.15V0Z" />
<path transform="matrix(1,0,0,-1,1825.6,85.87)" d="M0 0C2.37 0 3.8-1.03 4.56-2.1L2.58-3.94C2.03-3.15 1.19-2.7 .143-2.7-1.7-2.7-2.99-4.04-2.99-6.05-2.99-8.05-1.7-9.41 .143-9.41 1.19-9.41 2.03-8.94 2.58-8.17L4.56-10.01C3.8-11.09 2.37-12.12 0-12.12-3.56-12.12-6.12-9.61-6.12-6.05-6.12-2.51-3.56 0 0 0" />
<path transform="matrix(1,0,0,-1,1834.54,90.84)" d="M0 0H5.69C5.62 1.1 4.85 2.56 2.84 2.56 .956 2.56 .144 1.15 0 0M2.84 4.97C6.29 4.97 8.63 2.39 8.63-1.39V-2.06H.047C.239-3.51 1.41-4.73 3.37-4.73 4.45-4.73 5.71-4.3 6.45-3.58L7.79-5.54C6.62-6.62 4.83-7.14 3.04-7.14-.478-7.14-3.13-4.78-3.13-1.07-3.13 2.27-.669 4.97 2.84 4.97" />
<path transform="matrix(1,0,0,-1,1713.6,107.28)" d="M0 0H-3.56V-4.4H0C1.36-4.4 2.39-3.54 2.39-2.2 2.39-.86 1.36 0 0 0M2.06-13.02-1.07-7.31H-3.56V-13.02H-6.95V2.92H.502C3.82 2.92 5.86 .741 5.86-2.22 5.86-5.04 4.09-6.55 2.37-6.95L5.95-13.02Z" />
<path transform="matrix(1,0,0,-1,1723.62,113.45)" d="M0 0H5.69C5.62 1.1 4.85 2.56 2.84 2.56 .956 2.56 .144 1.15 0 0M2.84 4.97C6.29 4.97 8.63 2.39 8.63-1.39V-2.06H.047C.239-3.51 1.41-4.73 3.37-4.73 4.45-4.73 5.71-4.3 6.45-3.58L7.79-5.54C6.62-6.62 4.83-7.14 3.04-7.14-.478-7.14-3.13-4.78-3.13-1.07-3.13 2.27-.669 4.97 2.84 4.97" />
<path transform="matrix(1,0,0,-1,1737.43,120.31)" d="M0 0-4.64 11.54H-1.39L1.62 3.51 4.64 11.54H7.91L3.27 0Z" />
<path transform="matrix(1,0,0,-1,0,1080)" d="M1746.71 971.24H1749.74V959.69H1746.71ZM1746.4 974.75C1746.4 975.75 1747.23 976.57 1748.21 976.57 1749.22 976.57 1750.03 975.75 1750.03 974.75 1750.03 973.75 1749.22 972.93 1748.21 972.93 1747.23 972.93 1746.4 973.75 1746.4 974.75" />
<path transform="matrix(1,0,0,-1,1755.14,113.45)" d="M0 0H5.69C5.62 1.1 4.85 2.56 2.84 2.56 .956 2.56 .144 1.15 0 0M2.84 4.97C6.29 4.97 8.63 2.39 8.63-1.39V-2.06H.047C.239-3.51 1.41-4.73 3.37-4.73 4.45-4.73 5.71-4.3 6.45-3.58L7.79-5.54C6.62-6.62 4.83-7.14 3.04-7.14-.478-7.14-3.13-4.78-3.13-1.07-3.13 2.27-.669 4.97 2.84 4.97" />
<path transform="matrix(1,0,0,-1,1776.1,120.31)" d="M0 0-2.44 7.86-4.88 0H-8.12L-11.64 11.54H-8.48L-6.33 3.78-3.8 11.54H-1.1L1.43 3.78 3.58 11.54H6.74L3.23 0Z" />
<path transform="matrix(1,0,0,-1,1790.09,120.31)" d="M0 0V2.68C6.52 7.48 8.44 9.13 8.44 11.09 8.44 12.47 7.17 13.17 5.83 13.17 4.04 13.17 2.65 12.45 1.58 11.33L-.358 13.57C1.2 15.37 3.56 16.18 5.78 16.18 9.18 16.18 11.88 14.27 11.88 11.09 11.88 8.36 9.63 6 5.35 2.99H12V0Z" />
<path transform="matrix(1,0,0,-1,1810.71,107.14)" d="M0 0C-2.29 0-3.15-2.27-3.15-5.21-3.15-8.15-2.29-10.44 0-10.44 2.27-10.44 3.13-8.15 3.13-5.21 3.13-2.27 2.27 0 0 0M0 3.01C4.54 3.01 6.6-1.1 6.6-5.21 6.6-9.32 4.54-13.45 0-13.45-4.56-13.45-6.6-9.32-6.6-5.21-6.6-1.1-4.56 3.01 0 3.01" />
<path transform="matrix(1,0,0,-1,1819.24,120.31)" d="M0 0V2.68C6.52 7.48 8.44 9.13 8.44 11.09 8.44 12.47 7.17 13.17 5.83 13.17 4.04 13.17 2.65 12.45 1.58 11.33L-.359 13.57C1.2 15.37 3.56 16.18 5.78 16.18 9.18 16.18 11.88 14.27 11.88 11.09 11.88 8.36 9.63 6 5.35 2.99H12V0Z" />
<path transform="matrix(1,0,0,-1,1835.5,115.91)" d="M0 0C1.1-1.12 2.58-1.72 4.25-1.72 6.14-1.72 7.22-.645 7.22 .669 7.22 2.13 6.17 3.11 4.35 3.11 3.04 3.11 1.96 2.7 1 1.79L-1.36 2.44V11.54H9.58V8.63H1.96V4.64C2.8 5.38 4.09 5.95 5.54 5.95 8.24 5.95 10.66 4.04 10.66 .812 10.66-2.56 8.12-4.68 4.28-4.68 1.5-4.68-.502-3.78-1.86-2.29Z" />
<path transform="matrix(1,0,0,-1,98.34,96.89)" d="M0 0C.288 7.21 6.36 12.82 13.56 12.53 15.48 12.46 17.28 11.97 18.89 11.17 23.33 8.94 26.3 4.26 26.08-1.03 25.8-8.24 19.72-13.85 12.52-13.57 7.91-13.38 3.95-10.82 1.77-7.12 .554-5.03-.104-2.59 0 0M28.7-13.49C30.3-11.56 31.52-9.33 32.3-6.95 32.89-5.17 33.22-3.3 33.3-1.42 33.67 7.85 27.76 15.91 19.37 18.66 17.62 19.23 15.78 19.57 13.85 19.65 13.43 19.67-2.25 19.66-9.08 19.65-9.99 19.65-10.42 18.6-9.9 17.95-9.85 17.89-4.87 14.13-4.81 14.06-4.31 13.41-4.75 12.39-5.65 12.38L-22.29 12.38C-22.79 12.38-23.15 12.06-23.28 11.67-23.41 11.28-23.32 10.81-22.93 10.51L-9.7 .398C-8.9-.211-9.34-1.49-10.35-1.47-11.11-1.47-16.36-1.45-16.46-1.48-17.2-1.66-17.51-2.67-16.95-3.27-7.3-13.79 .69-18.76 8.14-20.3 12.11-21.29 16.37-21.05 20.2-19.6 23.36-18.44 26.02-16.53 28.09-14.2 28.3-13.97 28.5-13.73 28.7-13.49" fill="#ff5533" />
<path transform="matrix(1,0,0,-1,111.73,95.37)" d="M0 0C.049 1.34 1.18 2.39 2.52 2.34 3.86 2.3 4.91 1.17 4.86-.176 4.81-1.52 3.69-2.57 2.34-2.52 .999-2.47-.049-1.34 0 0M7.25-2.06C7.42 2.09 4.2 5.58 .053 5.74-4.09 5.91-7.58 2.68-7.75-1.46-7.91-5.61-4.69-9.1-.547-9.26 3.6-9.43 7.09-6.2 7.25-2.06" fill="#ff5533" />
<path transform="matrix(1,0,0,-1,144.34,84)" d="M0 0C-1.95 .369-3.03 .685-3.03 1.61-3.03 2.37-2.45 2.98-.948 2.98 .605 2.98 2.53 2.37 4 1.16L6.48 4.4C4.61 6 2.16 6.84-.658 6.84-5.16 6.84-7.66 4.29-7.66 1.34-7.66-2.82-3.61-3.55-.711-4.13 1.16-4.53 2.29-4.92 2.29-5.92 2.29-6.77 1.34-7.42-.21-7.42-2.61-7.42-4.55-6.37-5.82-5.11L-8.21-8.5C-6.45-10.19-3.98-11.29-.421-11.29 4.29-11.29 6.9-8.95 6.9-5.42 6.9-1.45 2.9-.605 0 0" fill="#ff5533" />
<path transform="matrix(1,0,0,-1,160.91,95.36)" d="M0 0C5.66 0 8.17 4.02 8.17 8.39V17.88H3.49V7.9C3.49 5.82 2.4 4 0 4-2.43 4-3.52 5.82-3.52 7.9V17.88H-8.2V8.36C-8.2 4.04-5.66 0 0 0" fill="#ff5533" />
<path transform="matrix(1,0,0,-1,180.62,117.41)" d="M0 0C5.66 0 8.17 4.02 8.17 8.39V17.88H3.49V7.9C3.49 5.82 2.4 4 0 4-2.43 4-3.52 5.82-3.52 7.9V17.88H-8.2V8.36C-8.2 4.04-5.66 0 0 0" fill="#ff5533" />
<path transform="matrix(1,0,0,-1,177.1,84.49)" d="M0 0 7.67-10.7H11.69V7.01H7.02V-3.19L-.284 7.01H-4.68V-10.7H0Z" fill="#ff5533" />
<path transform="matrix(1,0,0,-1,144.34,106.21)" d="M0 0C-1.95 .368-3.03 .685-3.03 1.61-3.03 2.37-2.45 2.98-.948 2.98 .605 2.98 2.53 2.37 4 1.16L6.48 4.4C4.61 6 2.16 6.84-.658 6.84-5.16 6.84-7.66 4.29-7.66 1.34-7.66-2.82-3.61-3.55-.711-4.13 1.16-4.53 2.29-4.92 2.29-5.92 2.29-6.77 1.34-7.42-.21-7.42-2.61-7.42-4.55-6.37-5.82-5.11L-8.21-8.5C-6.45-10.19-3.98-11.29-.421-11.29 4.29-11.29 6.9-8.95 6.9-5.42 6.9-1.45 2.9-.605 0 0" fill="#ff5533" />
<path transform="matrix(1,0,0,-1,152.71,103.54)" d="M0 0H6.01V-13.7H10.69V0H16.37V4.01H0Z" fill="#ff5533" />
<path transform="matrix(1,0,0,-1,199.33,113.23)" d="M0 0H-2.85V9.69H.026C3.25 9.69 4.88 7.58 4.88 4.86 4.88 2.24 3.09 0 0 0M-.095 13.7H-7.53V-4.01H-.069C5.48-4.01 9.49-.637 9.49 4.86 9.49 10.35 5.48 13.7-.095 13.7" fill="#ff5533" />
<path transform="matrix(1,0,0,-1,0,1080)" d="M211.51 962.76H216.19V980.46H211.51Z" fill="#ff5533" />
<path transform="matrix(1,0,0,-1,194.27,95.27)" d="M0 0C1.4 0 2.53 1.13 2.53 2.53 2.53 3.93 1.4 5.06 0 5.06-1.4 5.06-2.53 3.93-2.53 2.53-2.53 1.13-1.4 0 0 0" fill="#ff5533" />
<path transform="matrix(1,0,0,-1,227.84,113.26)" d="M0 0C-2.68 0-4.86 2.17-4.86 4.86-4.86 7.54-2.68 9.71 0 9.71 2.68 9.71 4.85 7.54 4.85 4.86 4.85 2.17 2.68 0 0 0M0 13.96C-5.03 13.96-9.11 9.88-9.11 4.86-9.11-.174-5.03-4.25 0-4.25 5.03-4.25 9.11-.174 9.11 4.86 9.11 9.88 5.03 13.96 0 13.96" fill="#ff5533" />
<g opacity=".600006">
<g clip-path="url(#clip_3)">
<path transform="matrix(1,0,0,-1,430.86,858.53)" d="M0 0H-266.91C-272.64 0-277.28 4.64-277.28 10.37V347.48C-277.28 352.31-273.36 356.23-268.53 356.23H0C5.73 356.23 10.37 351.59 10.37 345.86V10.37C10.37 4.64 5.73 0 0 0" fill="#b3b3b3" />
</g>
</g>
</g>
<g clip-path="url(#clip_4)">
<path transform="matrix(1,0,0,-1,149.21,502.3)" d="M0 0 .721 90.19C.721 100.08 8.74 108.1 18.64 108.1H226.57C233.55 108.1 239.21 102.44 239.21 95.46V75.14C239.21 68.36 244.83 62.85 251.73 62.85H283.04C290.02 62.85 295.68 57.19 295.68 50.21L295.68 11.43C295.68 8.27 293.12 5.71 289.96 5.71H14.26 6.64C3.48 5.71 .92 3.15 .92-.007Z" fill="#ff5533" />
<g opacity=".600006">
<g clip-path="url(#clip_5)">
<path transform="matrix(1,0,0,-1,400.33,437.14)" d="M0 0H30.23C32.23 0 33.23 2.41 31.82 3.82L-5.8 41.45C-7.21 42.86-9.62 41.87-9.62 39.87V9.43C-9.62 4.23-5.3 0 0 0" fill="#b3b3b3" />
</g>
</g>
</g>
<g clip-path="url(#clip_6)">
<g opacity=".600006">
<g clip-path="url(#clip_7)">
<path transform="matrix(1,0,0,-1,762.05,858.53)" d="M0 0H-266.91C-272.64 0-277.28 4.64-277.28 10.37V338.72C-277.28 343.55-273.36 347.47-268.53 347.47H0C5.73 347.47 10.37 342.83 10.37 337.1V10.37C10.37 4.64 5.73 0 0 0" fill="#b3b3b3" />
</g>
</g>
</g>
<g clip-path="url(#clip_8)">
<path transform="matrix(1,0,0,-1,480.76,502.3)" d="M0 0 .72 90.19C.72 100.08 8.74 108.1 18.64 108.1H226.57C233.55 108.1 239.21 102.44 239.21 95.46V75.14C239.21 68.36 244.83 62.85 251.73 62.85H283.04C290.02 62.85 295.68 57.19 295.68 50.21L295.68 11.43C295.68 8.27 293.12 5.71 289.96 5.71H14.26 6.64C3.48 5.71 .92 3.15 .92-.007Z" fill="#ff5533" />
<g opacity=".600006">
<g clip-path="url(#clip_9)">
<path transform="matrix(1,0,0,-1,731.87,437.14)" d="M0 0H30.23C32.23 0 33.23 2.41 31.82 3.82L-5.8 41.45C-7.21 42.86-9.62 41.87-9.62 39.87V9.43C-9.62 4.23-5.3 0 0 0" fill="#b3b3b3" />
</g>
</g>
<g opacity=".600006">
<g clip-path="url(#clip_10)">
<path transform="matrix(1,0,0,-1,1093.24,858.53)" d="M0 0H-266.91C-272.64 0-277.28 4.64-277.28 10.37V338.72C-277.28 343.55-273.36 347.47-268.53 347.47H0C5.73 347.47 10.37 342.83 10.37 337.1V10.37C10.37 4.64 5.73 0 0 0" fill="#b3b3b3" />
</g>
</g>
</g>
<g clip-path="url(#clip_11)">
<path transform="matrix(1,0,0,-1,811.95,502.3)" d="M0 0 .721 90.19C.721 100.08 8.74 108.1 18.64 108.1H226.57C233.55 108.1 239.21 102.44 239.21 95.46V75.14C239.21 68.36 244.83 62.85 251.73 62.85H283.04C290.02 62.85 295.68 57.19 295.68 50.21L295.68 11.43C295.68 8.27 293.12 5.71 289.96 5.71H14.26 6.64C3.48 5.71 .92 3.15 .92-.007Z" fill="#ff5533" />
<g opacity=".600006">
<g clip-path="url(#clip_12)">
<path transform="matrix(1,0,0,-1,1063.06,437.14)" d="M0 0H30.23C32.23 0 33.23 2.41 31.82 3.82L-5.8 41.45C-7.21 42.86-9.62 41.87-9.62 39.87V9.43C-9.62 4.23-5.3 0 0 0" fill="#b3b3b3" />
</g>
</g>
<g opacity=".600006">
<g clip-path="url(#clip_13)">
<path transform="matrix(1,0,0,-1,1759.27,859.33)" d="M0 0H-266.91C-272.64 0-277.28 4.64-277.28 10.37V339.52C-277.28 344.35-273.36 348.27-268.53 348.27H0C5.73 348.27 10.37 343.63 10.37 337.9V10.37C10.37 4.64 5.73 0 0 0" fill="#b3b3b3" />
</g>
</g>
</g>
<g clip-path="url(#clip_14)">
<path transform="matrix(1,0,0,-1,1477.98,502.3)" d="M0 0 .721 90.19C.721 100.08 8.74 108.1 18.64 108.1H226.57C233.55 108.1 239.21 102.44 239.21 95.46V75.14C239.21 68.36 244.83 62.85 251.73 62.85H283.04C290.02 62.85 295.68 57.19 295.68 50.21L295.68 11.43C295.68 8.27 293.12 5.71 289.96 5.71H14.26 6.64C3.48 5.71 .92 3.15 .92-.007Z" fill="#ff5533" />
<g opacity=".600006">
<g clip-path="url(#clip_15)">
<path transform="matrix(1,0,0,-1,1729.09,437.14)" d="M0 0H30.23C32.23 0 33.23 2.41 31.82 3.82L-5.8 41.45C-7.21 42.86-9.62 41.87-9.62 39.87V9.43C-9.62 4.23-5.3 0 0 0" fill="#b3b3b3" />
</g>
</g>
</g>
<g clip-path="url(#clip_16)">
<path transform="matrix(1,0,0,-1,1499.45,455.44)" d="M0 0C-.624 0-1.25-.358-1.48-1.07L-2.71-4.87C-2.92-5.51-3.52-5.95-4.19-5.95H-8.19C-9.69-5.95-10.32-7.88-9.1-8.76L-5.87-11.11C-5.33-11.5-5.1-12.21-5.3-12.85L-6.54-16.64C-6.89-17.74-6.03-18.69-5.05-18.69-4.75-18.69-4.43-18.59-4.14-18.38L-.915-16.04C-.642-15.84-.321-15.74 0-15.74 .321-15.74 .642-15.84 .915-16.04L4.14-18.38C4.43-18.59 4.75-18.69 5.05-18.69 6.03-18.69 6.89-17.74 6.54-16.64L5.3-12.85C5.1-12.21 5.33-11.5 5.87-11.11L9.1-8.76C10.32-7.88 9.69-5.95 8.19-5.95H4.19C3.52-5.95 2.92-5.51 2.71-4.87L1.48-1.07C1.25-.358 .624 0 0 0M0-1C.122-1 .416-1.04 .529-1.38L1.76-5.18C2.11-6.24 3.08-6.95 4.19-6.95H8.19C8.55-6.95 8.68-7.22 8.71-7.33 8.75-7.45 8.81-7.74 8.51-7.95L5.28-10.3C4.38-10.95 4.01-12.1 4.35-13.16L5.59-16.95C5.65-17.13 5.62-17.3 5.52-17.44 5.41-17.59 5.23-17.69 5.05-17.69 4.94-17.69 4.84-17.65 4.73-17.57L1.5-15.23C1.06-14.91 .543-14.74 0-14.74-.543-14.74-1.06-14.91-1.5-15.23L-4.73-17.57C-4.84-17.65-4.94-17.69-5.05-17.69-5.23-17.69-5.41-17.59-5.52-17.44-5.62-17.3-5.65-17.13-5.59-16.95L-4.35-13.16C-4.01-12.1-4.38-10.95-5.28-10.3L-8.51-7.95C-8.81-7.74-8.75-7.45-8.71-7.33-8.68-7.22-8.55-6.95-8.19-6.95H-4.19C-3.08-6.95-2.11-6.24-1.76-5.18L-.529-1.38C-.416-1.04-.122-1 0-1" fill="#ffffff" />
<path transform="matrix(1,0,0,-1,1547.26,455.44)" d="M0 0C-.624 0-1.25-.358-1.48-1.07L-2.71-4.87C-2.92-5.51-3.52-5.95-4.19-5.95H-8.19C-9.69-5.95-10.32-7.88-9.1-8.76L-5.87-11.11C-5.33-11.5-5.1-12.21-5.3-12.85L-6.54-16.64C-6.89-17.74-6.03-18.69-5.05-18.69-4.75-18.69-4.43-18.59-4.14-18.38L-.915-16.04C-.642-15.84-.321-15.74 0-15.74 .321-15.74 .642-15.84 .915-16.04L4.14-18.38C4.43-18.59 4.75-18.69 5.05-18.69 6.03-18.69 6.89-17.74 6.54-16.64L5.3-12.85C5.1-12.21 5.33-11.5 5.87-11.11L9.1-8.76C10.32-7.88 9.69-5.95 8.19-5.95H4.19C3.52-5.95 2.92-5.51 2.71-4.87L1.48-1.07C1.25-.358 .624 0 0 0M0-1C.122-1 .416-1.04 .529-1.38L1.76-5.18C2.11-6.24 3.08-6.95 4.19-6.95H8.19C8.55-6.95 8.68-7.21 8.71-7.33 8.75-7.45 8.81-7.74 8.51-7.95L5.28-10.3C4.38-10.95 4.01-12.1 4.35-13.16L5.59-16.95C5.65-17.13 5.62-17.3 5.52-17.44 5.41-17.59 5.23-17.69 5.05-17.69 4.94-17.69 4.84-17.65 4.73-17.57L1.5-15.23C1.06-14.91 .543-14.74 0-14.74-.543-14.74-1.06-14.91-1.5-15.23L-4.73-17.57C-4.84-17.65-4.94-17.69-5.05-17.69-5.23-17.69-5.41-17.59-5.52-17.44-5.62-17.3-5.65-17.13-5.59-16.95L-4.35-13.16C-4.01-12.1-4.38-10.95-5.28-10.3L-8.51-7.95C-8.81-7.74-8.75-7.45-8.71-7.33-8.68-7.22-8.55-6.95-8.19-6.95H-4.19C-3.08-6.95-2.11-6.24-1.76-5.18L-.529-1.38C-.416-1.04-.122-1 0-1" fill="#ffffff" />
<path transform="matrix(1,0,0,-1,1523.26,455.44)" d="M0 0C-.624 0-1.25-.358-1.48-1.07L-2.71-4.87C-2.92-5.51-3.52-5.95-4.19-5.95H-8.19C-9.69-5.95-10.32-7.88-9.1-8.76L-5.87-11.11C-5.33-11.5-5.1-12.21-5.3-12.85L-6.54-16.64C-6.89-17.74-6.03-18.69-5.05-18.69-4.75-18.69-4.43-18.59-4.14-18.38L-.915-16.04C-.642-15.84-.321-15.74 0-15.74 .321-15.74 .642-15.84 .915-16.04L4.14-18.38C4.43-18.59 4.75-18.69 5.05-18.69 6.03-18.69 6.89-17.74 6.54-16.64L5.3-12.85C5.1-12.21 5.33-11.5 5.87-11.11L9.1-8.76C10.32-7.88 9.69-5.95 8.19-5.95H4.19C3.52-5.95 2.92-5.51 2.71-4.87L1.48-1.07C1.25-.358 .624 0 0 0M0-1C.122-1 .416-1.04 .529-1.38L1.76-5.18C2.11-6.24 3.08-6.95 4.19-6.95H8.19C8.55-6.95 8.68-7.22 8.71-7.33 8.75-7.45 8.81-7.74 8.51-7.95L5.28-10.3C4.38-10.95 4.01-12.1 4.35-13.16L5.59-16.95C5.65-17.13 5.62-17.3 5.52-17.44 5.41-17.59 5.23-17.69 5.05-17.69 4.94-17.69 4.84-17.65 4.73-17.57L1.5-15.23C1.06-14.91 .543-14.74 0-14.74-.543-14.74-1.06-14.91-1.5-15.23L-4.73-17.57C-4.84-17.65-4.94-17.69-5.05-17.69-5.23-17.69-5.41-17.59-5.52-17.44-5.62-17.3-5.65-17.13-5.59-16.95L-4.35-13.16C-4.01-12.1-4.38-10.95-5.28-10.3L-8.51-7.95C-8.81-7.74-8.75-7.45-8.71-7.33-8.68-7.22-8.55-6.95-8.19-6.95H-4.19C-3.08-6.95-2.11-6.24-1.76-5.18L-.529-1.38C-.416-1.04-.122-1 0-1" fill="#ffffff" />
<path transform="matrix(1,0,0,-1,1597.05,456.51)" d="M0 0 1.23-3.8C1.44-4.44 2.04-4.87 2.71-4.87H6.71C8.21-4.87 8.84-6.8 7.62-7.69L4.39-10.03C3.85-10.43 3.62-11.13 3.83-11.77L5.06-15.57C5.52-17 3.88-18.2 2.66-17.31L-.565-14.96C-1.11-14.57-1.85-14.57-2.4-14.96L-5.62-17.31C-6.84-18.2-8.48-17-8.02-15.57L-6.79-11.77C-6.58-11.13-6.8-10.43-7.35-10.03L-10.58-7.69C-11.8-6.8-11.17-4.87-9.66-4.87H-5.67C-5-4.87-4.4-4.44-4.19-3.8L-2.96 0C-2.49 1.43-.466 1.43 0 0" fill="#ffffff" />
<path transform="matrix(1,0,0,-1,1571.57,455.44)" d="M0 0C-.624 0-1.25-.358-1.48-1.07L-2.71-4.87C-2.92-5.51-3.52-5.95-4.19-5.95H-8.19C-9.69-5.95-10.32-7.88-9.1-8.76L-5.87-11.11C-5.33-11.5-5.1-12.21-5.3-12.85L-6.54-16.64C-6.89-17.74-6.03-18.69-5.05-18.69-4.75-18.69-4.43-18.59-4.14-18.38L-.915-16.04C-.642-15.84-.321-15.74 0-15.74 .321-15.74 .643-15.84 .915-16.04L4.14-18.38C4.43-18.59 4.75-18.69 5.05-18.69 6.03-18.69 6.89-17.74 6.54-16.64L5.31-12.85C5.1-12.21 5.33-11.5 5.87-11.11L9.1-8.76C10.32-7.88 9.69-5.95 8.19-5.95H4.19C3.52-5.95 2.92-5.51 2.71-4.87L1.48-1.07C1.25-.358 .624 0 0 0M0-1C.122-1 .417-1.04 .529-1.38L1.76-5.18C2.1-6.24 3.08-6.95 4.19-6.95H8.19C8.55-6.95 8.68-7.22 8.71-7.33 8.75-7.45 8.81-7.74 8.51-7.95L5.28-10.3C4.38-10.95 4.01-12.1 4.35-13.16L5.59-16.95C5.65-17.13 5.62-17.3 5.52-17.44 5.41-17.59 5.23-17.69 5.05-17.69 4.94-17.69 4.84-17.65 4.73-17.57L1.5-15.23C1.06-14.91 .544-14.74 0-14.74-.543-14.74-1.06-14.91-1.5-15.23L-4.73-17.57C-4.84-17.65-4.94-17.69-5.05-17.69-5.23-17.69-5.41-17.59-5.52-17.44-5.62-17.3-5.65-17.13-5.59-16.95L-4.35-13.16C-4.01-12.1-4.38-10.95-5.28-10.3L-8.51-7.95C-8.81-7.74-8.75-7.45-8.71-7.33-8.68-7.22-8.55-6.95-8.19-6.95H-4.19C-3.08-6.95-2.1-6.24-1.76-5.18L-.529-1.38C-.416-1.04-.122-1 0-1" fill="#ffffff" />
<g opacity=".600006">
<g clip-path="url(#clip_17)">
<path transform="matrix(1,0,0,-1,1425.66,858.53)" d="M0 0H-266.91C-272.64 0-277.28 4.64-277.28 10.37V338.72C-277.28 343.55-273.36 347.47-268.53 347.47H0C5.73 347.47 10.37 342.83 10.37 337.1V10.37C10.37 4.64 5.73 0 0 0" fill="#b3b3b3" />
</g>
</g>
</g>
<g clip-path="url(#clip_18)">
<path transform="matrix(1,0,0,-1,1144.37,502.3)" d="M0 0 .72 90.19C.72 100.08 8.74 108.1 18.64 108.1H226.57C233.55 108.1 239.21 102.44 239.21 95.46V75.14C239.21 68.36 244.83 62.85 251.73 62.85H283.04C290.02 62.85 295.68 57.19 295.68 50.21L295.68 11.43C295.68 8.27 293.12 5.71 289.96 5.71H14.26 6.64C3.48 5.71 .92 3.15 .92-.007Z" fill="#ff5533" />
<g opacity=".600006">
<g clip-path="url(#clip_19)">
<path transform="matrix(1,0,0,-1,1395.48,437.14)" d="M0 0H30.23C32.23 0 33.23 2.41 31.82 3.82L-5.8 41.45C-7.21 42.86-9.62 41.87-9.62 39.87V9.43C-9.62 4.23-5.3 0 0 0" fill="#b3b3b3" />
</g>
</g>
</g>
<g clip-path="url(#clip_20)">
<path transform="matrix(1,0,0,-1,848.14,455.44)" d="M0 0C-.624 0-1.25-.358-1.48-1.07L-2.71-4.87C-2.92-5.51-3.52-5.95-4.19-5.95H-8.19C-9.69-5.95-10.32-7.88-9.1-8.76L-5.87-11.11C-5.33-11.5-5.1-12.21-5.3-12.85L-6.54-16.64C-6.89-17.74-6.03-18.69-5.05-18.69-4.75-18.69-4.43-18.59-4.14-18.38L-.915-16.04C-.642-15.84-.321-15.74 0-15.74 .321-15.74 .643-15.84 .915-16.04L4.14-18.38C4.43-18.59 4.75-18.69 5.05-18.69 6.03-18.69 6.89-17.74 6.54-16.64L5.3-12.85C5.1-12.21 5.33-11.5 5.87-11.11L9.1-8.76C10.32-7.88 9.69-5.95 8.19-5.95H4.19C3.52-5.95 2.92-5.51 2.71-4.87L1.48-1.07C1.25-.358 .624 0 0 0M0-1C.122-1 .417-1.04 .529-1.38L1.76-5.18C2.1-6.24 3.08-6.95 4.19-6.95H8.19C8.55-6.95 8.68-7.22 8.71-7.33 8.75-7.45 8.81-7.74 8.51-7.95L5.28-10.3C4.38-10.95 4.01-12.1 4.35-13.16L5.59-16.95C5.65-17.13 5.62-17.3 5.52-17.44 5.41-17.59 5.23-17.69 5.05-17.69 4.94-17.69 4.84-17.65 4.73-17.57L1.5-15.23C1.06-14.91 .544-14.74 0-14.74-.543-14.74-1.06-14.91-1.5-15.23L-4.73-17.57C-4.84-17.65-4.94-17.69-5.05-17.69-5.23-17.69-5.41-17.59-5.52-17.44-5.62-17.3-5.65-17.13-5.59-16.95L-4.35-13.16C-4.01-12.1-4.38-10.95-5.28-10.3L-8.51-7.95C-8.81-7.74-8.75-7.45-8.71-7.33-8.68-7.22-8.55-6.95-8.19-6.95H-4.19C-3.08-6.95-2.1-6.24-1.76-5.18L-.529-1.38C-.416-1.04-.122-1 0-1" fill="#ffffff" />
<path transform="matrix(1,0,0,-1,897.43,456.51)" d="M0 0 1.23-3.8C1.44-4.44 2.04-4.87 2.71-4.87H6.71C8.21-4.87 8.84-6.8 7.62-7.69L4.39-10.03C3.85-10.43 3.62-11.13 3.83-11.77L5.06-15.57C5.52-17 3.88-18.2 2.66-17.31L-.565-14.96C-1.11-14.57-1.85-14.57-2.4-14.96L-5.62-17.31C-6.84-18.2-8.48-17-8.02-15.57L-6.79-11.77C-6.58-11.13-6.8-10.43-7.35-10.03L-10.58-7.69C-11.8-6.8-11.17-4.87-9.66-4.87H-5.67C-5-4.87-4.4-4.44-4.19-3.8L-2.96 0C-2.49 1.43-.466 1.43 0 0" fill="#ffffff" />
<path transform="matrix(1,0,0,-1,871.96,455.44)" d="M0 0C-.624 0-1.25-.358-1.48-1.07L-2.71-4.87C-2.92-5.51-3.52-5.95-4.19-5.95H-8.19C-9.69-5.95-10.32-7.88-9.1-8.76L-5.87-11.11C-5.33-11.5-5.1-12.21-5.31-12.85L-6.54-16.64C-6.89-17.74-6.03-18.69-5.05-18.69-4.75-18.69-4.43-18.59-4.14-18.38L-.915-16.04C-.642-15.84-.321-15.74 0-15.74 .321-15.74 .642-15.84 .915-16.04L4.14-18.38C4.43-18.59 4.75-18.69 5.05-18.69 6.03-18.69 6.89-17.74 6.54-16.64L5.3-12.85C5.1-12.21 5.33-11.5 5.87-11.11L9.1-8.76C10.32-7.88 9.69-5.95 8.19-5.95H4.19C3.52-5.95 2.92-5.51 2.71-4.87L1.48-1.07C1.25-.358 .624 0 0 0M0-1C.121-1 .416-1.04 .529-1.38L1.76-5.18C2.1-6.24 3.08-6.95 4.19-6.95H8.19C8.55-6.95 8.68-7.22 8.71-7.33 8.75-7.45 8.81-7.74 8.51-7.95L5.28-10.3C4.38-10.95 4.01-12.1 4.35-13.16L5.59-16.95C5.65-17.13 5.62-17.3 5.52-17.44 5.41-17.59 5.23-17.69 5.05-17.69 4.94-17.69 4.84-17.65 4.73-17.57L1.5-15.23C1.06-14.91 .543-14.74 0-14.74-.544-14.74-1.06-14.91-1.5-15.23L-4.73-17.57C-4.84-17.65-4.94-17.69-5.05-17.69-5.23-17.69-5.41-17.59-5.52-17.44-5.62-17.3-5.65-17.13-5.59-16.95L-4.35-13.16C-4.01-12.1-4.38-10.95-5.28-10.3L-8.51-7.95C-8.81-7.74-8.75-7.45-8.71-7.33-8.68-7.22-8.55-6.95-8.19-6.95H-4.19C-3.08-6.95-2.1-6.24-1.76-5.18L-.529-1.38C-.417-1.04-.122-1 0-1" fill="#ffffff" />
<path transform="matrix(1,0,0,-1,945.74,456.51)" d="M0 0 1.23-3.8C1.44-4.44 2.04-4.87 2.71-4.87H6.71C8.21-4.87 8.84-6.8 7.62-7.69L4.39-10.03C3.85-10.43 3.62-11.13 3.83-11.77L5.06-15.57C5.52-17 3.88-18.2 2.66-17.31L-.565-14.96C-1.11-14.57-1.85-14.57-2.4-14.96L-5.62-17.31C-6.84-18.2-8.48-17-8.02-15.57L-6.79-11.77C-6.58-11.13-6.8-10.43-7.35-10.03L-10.58-7.69C-11.8-6.8-11.17-4.87-9.66-4.87H-5.67C-5-4.87-4.4-4.44-4.19-3.8L-2.96 0C-2.49 1.43-.466 1.43 0 0" fill="#ffffff" />
<path transform="matrix(1,0,0,-1,921.74,456.51)" d="M0 0 1.23-3.8C1.44-4.44 2.04-4.87 2.71-4.87H6.71C8.21-4.87 8.84-6.8 7.62-7.69L4.39-10.03C3.85-10.43 3.62-11.13 3.83-11.77L5.06-15.57C5.52-17 3.88-18.2 2.66-17.31L-.565-14.96C-1.11-14.57-1.85-14.57-2.4-14.96L-5.62-17.31C-6.84-18.2-8.48-17-8.02-15.57L-6.79-11.77C-6.58-11.13-6.8-10.43-7.35-10.03L-10.58-7.69C-11.8-6.8-11.17-4.87-9.66-4.87H-5.67C-5-4.87-4.4-4.44-4.19-3.8L-2.96 0C-2.49 1.43-.466 1.43 0 0" fill="#ffffff" />
</g>
<g clip-path="url(#clip_21)">
<path transform="matrix(1,0,0,-1,1164.13,455.44)" d="M0 0C-.624 0-1.25-.358-1.48-1.07L-2.71-4.87C-2.92-5.51-3.52-5.95-4.19-5.95H-8.19C-9.69-5.95-10.32-7.88-9.1-8.76L-5.87-11.11C-5.33-11.5-5.1-12.21-5.3-12.85L-6.54-16.64C-6.89-17.74-6.03-18.69-5.05-18.69-4.75-18.69-4.43-18.59-4.14-18.38L-.915-16.04C-.643-15.84-.321-15.74 0-15.74 .321-15.74 .642-15.84 .915-16.04L4.14-18.38C4.43-18.59 4.75-18.69 5.05-18.69 6.03-18.69 6.89-17.74 6.54-16.64L5.3-12.85C5.1-12.21 5.33-11.5 5.87-11.11L9.1-8.76C10.32-7.88 9.69-5.95 8.19-5.95H4.19C3.52-5.95 2.92-5.51 2.71-4.87L1.48-1.07C1.25-.358 .624 0 0 0M0-1C.122-1 .416-1.04 .529-1.38L1.76-5.18C2.11-6.24 3.08-6.95 4.19-6.95H8.19C8.55-6.95 8.68-7.22 8.71-7.33 8.75-7.45 8.81-7.74 8.51-7.95L5.28-10.3C4.38-10.95 4.01-12.1 4.35-13.16L5.59-16.95C5.65-17.13 5.62-17.3 5.52-17.44 5.41-17.59 5.23-17.69 5.05-17.69 4.94-17.69 4.84-17.65 4.73-17.57L1.5-15.23C1.06-14.91 .543-14.74 0-14.74-.544-14.74-1.06-14.91-1.5-15.23L-4.73-17.57C-4.84-17.65-4.94-17.69-5.05-17.69-5.23-17.69-5.41-17.59-5.52-17.44-5.62-17.3-5.65-17.13-5.59-16.95L-4.35-13.16C-4.01-12.1-4.38-10.95-5.28-10.3L-8.51-7.95C-8.81-7.74-8.75-7.45-8.71-7.33-8.68-7.22-8.55-6.95-8.19-6.95H-4.19C-3.08-6.95-2.1-6.24-1.76-5.18L-.529-1.38C-.416-1.04-.122-1 0-1" fill="#ffffff" />
<path transform="matrix(1,0,0,-1,1211.94,455.44)" d="M0 0C-.624 0-1.25-.358-1.48-1.07L-2.71-4.87C-2.92-5.51-3.52-5.95-4.19-5.95H-8.19C-9.69-5.95-10.32-7.88-9.1-8.76L-5.87-11.11C-5.33-11.5-5.1-12.21-5.3-12.85L-6.54-16.64C-6.89-17.74-6.03-18.69-5.05-18.69-4.75-18.69-4.43-18.59-4.14-18.38L-.915-16.04C-.642-15.84-.321-15.74 0-15.74 .321-15.74 .642-15.84 .915-16.04L4.14-18.38C4.43-18.59 4.75-18.69 5.05-18.69 6.03-18.69 6.89-17.74 6.54-16.64L5.3-12.85C5.1-12.21 5.33-11.5 5.87-11.11L9.1-8.76C10.32-7.88 9.69-5.95 8.19-5.95H4.19C3.52-5.95 2.92-5.51 2.71-4.87L1.48-1.07C1.25-.358 .624 0 0 0M0-1C.122-1 .416-1.04 .529-1.38L1.76-5.18C2.11-6.24 3.08-6.95 4.19-6.95H8.19C8.55-6.95 8.68-7.22 8.71-7.33 8.75-7.45 8.81-7.74 8.51-7.95L5.28-10.3C4.38-10.95 4.01-12.1 4.35-13.16L5.59-16.95C5.65-17.13 5.62-17.3 5.52-17.44 5.41-17.59 5.23-17.69 5.05-17.69 4.94-17.69 4.84-17.65 4.73-17.57L1.5-15.23C1.06-14.91 .543-14.74 0-14.74-.543-14.74-1.06-14.91-1.5-15.23L-4.73-17.57C-4.84-17.65-4.94-17.69-5.05-17.69-5.23-17.69-5.41-17.59-5.52-17.44-5.62-17.3-5.65-17.13-5.59-16.95L-4.35-13.16C-4.01-12.1-4.38-10.95-5.28-10.3L-8.51-7.95C-8.81-7.74-8.75-7.45-8.71-7.33-8.68-7.22-8.55-6.95-8.19-6.95H-4.19C-3.08-6.95-2.11-6.24-1.76-5.18L-.529-1.38C-.416-1.04-.122-1 0-1" fill="#ffffff" />
<path transform="matrix(1,0,0,-1,1187.95,455.44)" d="M0 0C-.624 0-1.25-.358-1.48-1.07L-2.71-4.87C-2.92-5.51-3.52-5.95-4.19-5.95H-8.19C-9.69-5.95-10.32-7.88-9.1-8.76L-5.87-11.11C-5.33-11.5-5.1-12.21-5.3-12.85L-6.54-16.64C-6.89-17.74-6.03-18.69-5.05-18.69-4.75-18.69-4.43-18.59-4.14-18.38L-.915-16.04C-.643-15.84-.321-15.74 0-15.74 .321-15.74 .642-15.84 .915-16.04L4.14-18.38C4.43-18.59 4.75-18.69 5.05-18.69 6.03-18.69 6.89-17.74 6.54-16.64L5.3-12.85C5.1-12.21 5.33-11.5 5.87-11.11L9.1-8.76C10.32-7.88 9.69-5.95 8.19-5.95H4.19C3.52-5.95 2.92-5.51 2.71-4.87L1.48-1.07C1.25-.358 .624 0 0 0M0-1C.122-1 .416-1.04 .529-1.38L1.76-5.18C2.11-6.24 3.08-6.95 4.19-6.95H8.19C8.55-6.95 8.68-7.22 8.71-7.33 8.75-7.45 8.81-7.74 8.51-7.95L5.28-10.3C4.38-10.95 4.01-12.1 4.35-13.16L5.59-16.95C5.65-17.13 5.62-17.3 5.52-17.44 5.41-17.59 5.23-17.69 5.05-17.69 4.94-17.69 4.84-17.65 4.73-17.57L1.5-15.23C1.06-14.91 .543-14.74 0-14.74-.544-14.74-1.06-14.91-1.5-15.23L-4.73-17.57C-4.84-17.65-4.94-17.69-5.05-17.69-5.23-17.69-5.41-17.59-5.52-17.44-5.62-17.3-5.65-17.13-5.59-16.95L-4.35-13.16C-4.01-12.1-4.38-10.95-5.28-10.3L-8.51-7.95C-8.81-7.74-8.75-7.45-8.71-7.33-8.68-7.21-8.55-6.95-8.19-6.95H-4.19C-3.08-6.95-2.11-6.24-1.76-5.18L-.529-1.38C-.416-1.04-.122-1 0-1" fill="#ffffff" />
<path transform="matrix(1,0,0,-1,1261.73,456.51)" d="M0 0 1.23-3.8C1.44-4.44 2.04-4.87 2.71-4.87H6.71C8.21-4.87 8.84-6.8 7.62-7.69L4.39-10.03C3.85-10.43 3.62-11.13 3.83-11.77L5.06-15.57C5.53-17 3.88-18.2 2.66-17.31L-.565-14.96C-1.11-14.57-1.85-14.57-2.4-14.96L-5.62-17.31C-6.84-18.2-8.48-17-8.02-15.57L-6.79-11.77C-6.58-11.13-6.8-10.43-7.35-10.03L-10.58-7.69C-11.8-6.8-11.17-4.87-9.66-4.87H-5.67C-5-4.87-4.4-4.44-4.19-3.8L-2.96 0C-2.49 1.43-.466 1.43 0 0" fill="#ffffff" />
<path transform="matrix(1,0,0,-1,1237.73,456.51)" d="M0 0 1.23-3.8C1.44-4.44 2.04-4.87 2.71-4.87H6.71C8.21-4.87 8.84-6.8 7.62-7.69L4.39-10.03C3.85-10.43 3.62-11.13 3.83-11.77L5.06-15.57C5.52-17 3.88-18.2 2.66-17.31L-.565-14.96C-1.11-14.57-1.85-14.57-2.4-14.96L-5.62-17.31C-6.84-18.2-8.48-17-8.02-15.57L-6.79-11.77C-6.58-11.13-6.8-10.43-7.35-10.03L-10.58-7.69C-11.8-6.8-11.17-4.87-9.66-4.87H-5.67C-5-4.87-4.4-4.44-4.19-3.8L-2.96 0C-2.49 1.43-.466 1.43 0 0" fill="#ffffff" />
<path transform="matrix(1,0,0,-1,177.52,456.51)" d="M0 0 1.23-3.8C1.44-4.44 2.04-4.87 2.71-4.87H6.71C8.21-4.87 8.84-6.8 7.62-7.69L4.39-10.03C3.85-10.43 3.62-11.13 3.83-11.77L5.06-15.57C5.52-17 3.88-18.2 2.66-17.31L-.565-14.96C-1.11-14.57-1.85-14.57-2.4-14.96L-5.62-17.31C-6.84-18.2-8.48-17-8.02-15.57L-6.79-11.77C-6.58-11.13-6.8-10.43-7.35-10.03L-10.58-7.69C-11.8-6.8-11.17-4.87-9.66-4.87H-5.67C-5-4.87-4.4-4.44-4.19-3.8L-2.96 0C-2.49 1.43-.466 1.43 0 0" fill="#ffffff" />
<path transform="matrix(1,0,0,-1,225.34,456.51)" d="M0 0 1.23-3.8C1.44-4.44 2.04-4.87 2.71-4.87H6.71C8.21-4.87 8.84-6.8 7.62-7.69L4.39-10.03C3.85-10.43 3.62-11.13 3.83-11.77L5.06-15.57C5.52-17 3.88-18.2 2.66-17.31L-.565-14.96C-1.11-14.57-1.85-14.57-2.4-14.96L-5.62-17.31C-6.84-18.2-8.48-17-8.02-15.57L-6.79-11.77C-6.58-11.13-6.8-10.43-7.35-10.03L-10.58-7.69C-11.8-6.8-11.17-4.87-9.66-4.87H-5.67C-5-4.87-4.4-4.44-4.19-3.8L-2.96 0C-2.49 1.43-.466 1.43 0 0" fill="#ffffff" />
<path transform="matrix(1,0,0,-1,201.34,456.51)" d="M0 0 1.23-3.8C1.44-4.44 2.04-4.87 2.71-4.87H6.71C8.21-4.87 8.84-6.8 7.62-7.69L4.39-10.03C3.85-10.43 3.62-11.13 3.83-11.77L5.06-15.57C5.52-17 3.88-18.2 2.66-17.31L-.565-14.96C-1.11-14.57-1.85-14.57-2.4-14.96L-5.62-17.31C-6.84-18.2-8.48-17-8.02-15.57L-6.79-11.77C-6.58-11.13-6.8-10.43-7.35-10.03L-10.58-7.69C-11.8-6.8-11.17-4.87-9.66-4.87H-5.67C-5-4.87-4.4-4.44-4.19-3.8L-2.96 0C-2.49 1.43-.466 1.43 0 0" fill="#ffffff" />
<path transform="matrix(1,0,0,-1,512.53,455.44)" d="M0 0C-.624 0-1.25-.358-1.48-1.07L-2.71-4.87C-2.92-5.51-3.52-5.95-4.19-5.95H-8.19C-9.69-5.95-10.32-7.88-9.1-8.76L-5.87-11.11C-5.33-11.5-5.1-12.21-5.3-12.85L-6.54-16.64C-6.89-17.74-6.03-18.69-5.05-18.69-4.75-18.69-4.43-18.59-4.14-18.38L-.915-16.04C-.642-15.84-.321-15.74 0-15.74 .321-15.74 .643-15.84 .915-16.04L4.14-18.38C4.43-18.59 4.75-18.69 5.05-18.69 6.03-18.69 6.89-17.74 6.54-16.64L5.3-12.85C5.1-12.21 5.33-11.5 5.87-11.11L9.1-8.76C10.32-7.88 9.69-5.95 8.19-5.95H4.19C3.52-5.95 2.92-5.51 2.71-4.87L1.48-1.07C1.25-.358 .624 0 0 0M0-1C.122-1 .416-1.04 .529-1.38L1.76-5.18C2.11-6.24 3.08-6.95 4.19-6.95H8.19C8.55-6.95 8.68-7.21 8.71-7.33 8.75-7.45 8.81-7.74 8.51-7.95L5.28-10.3C4.38-10.95 4.01-12.1 4.35-13.16L5.59-16.95C5.65-17.13 5.62-17.3 5.52-17.44 5.41-17.59 5.23-17.69 5.05-17.69 4.94-17.69 4.84-17.65 4.73-17.57L1.5-15.23C1.06-14.91 .544-14.74 0-14.74-.543-14.74-1.06-14.91-1.5-15.23L-4.73-17.57C-4.84-17.65-4.94-17.69-5.05-17.69-5.23-17.69-5.41-17.59-5.52-17.44-5.62-17.3-5.65-17.13-5.59-16.95L-4.35-13.16C-4.01-12.1-4.38-10.95-5.28-10.3L-8.51-7.95C-8.81-7.74-8.75-7.45-8.71-7.33-8.68-7.22-8.55-6.95-8.19-6.95H-4.19C-3.08-6.95-2.11-6.24-1.76-5.18L-.529-1.38C-.416-1.04-.122-1 0-1" fill="#ffffff" />
<path transform="matrix(1,0,0,-1,561.82,456.51)" d="M0 0 1.23-3.8C1.44-4.44 2.04-4.87 2.71-4.87H6.71C8.21-4.87 8.84-6.8 7.62-7.69L4.39-10.03C3.85-10.43 3.62-11.13 3.83-11.77L5.06-15.57C5.52-17 3.88-18.2 2.66-17.31L-.565-14.96C-1.11-14.57-1.85-14.57-2.4-14.96L-5.62-17.31C-6.84-18.2-8.48-17-8.02-15.57L-6.79-11.77C-6.58-11.13-6.8-10.43-7.35-10.03L-10.58-7.69C-11.8-6.8-11.17-4.87-9.66-4.87H-5.67C-5-4.87-4.4-4.44-4.19-3.8L-2.96 0C-2.49 1.43-.466 1.43 0 0" fill="#ffffff" />
<path transform="matrix(1,0,0,-1,537.83,456.51)" d="M0 0 1.23-3.8C1.44-4.44 2.04-4.87 2.71-4.87H6.71C8.21-4.87 8.84-6.8 7.62-7.69L4.39-10.03C3.85-10.43 3.62-11.13 3.83-11.77L5.06-15.57C5.52-17 3.88-18.2 2.66-17.31L-.565-14.96C-1.11-14.57-1.85-14.57-2.4-14.96L-5.62-17.31C-6.84-18.2-8.48-17-8.02-15.57L-6.79-11.77C-6.58-11.13-6.8-10.43-7.35-10.03L-10.58-7.69C-11.8-6.8-11.17-4.87-9.66-4.87H-5.67C-5-4.87-4.4-4.44-4.19-3.8L-2.96 0C-2.49 1.43-.466 1.43 0 0" fill="#ffffff" />
<path transform="matrix(1,0,0,-1,610.13,456.51)" d="M0 0 1.23-3.8C1.44-4.44 2.04-4.87 2.71-4.87H6.71C8.21-4.87 8.84-6.8 7.62-7.69L4.39-10.03C3.85-10.43 3.62-11.13 3.83-11.77L5.06-15.57C5.52-17 3.88-18.2 2.66-17.31L-.565-14.96C-1.11-14.57-1.85-14.57-2.4-14.96L-5.62-17.31C-6.84-18.2-8.48-17-8.02-15.57L-6.79-11.77C-6.58-11.13-6.8-10.43-7.35-10.03L-10.58-7.69C-11.8-6.8-11.17-4.87-9.66-4.87H-5.67C-5-4.87-4.4-4.44-4.19-3.8L-2.96 0C-2.49 1.43-.466 1.43 0 0" fill="#ffffff" />
<path transform="matrix(1,0,0,-1,586.13,456.51)" d="M0 0 1.23-3.8C1.44-4.44 2.04-4.87 2.71-4.87H6.71C8.21-4.87 8.84-6.8 7.62-7.69L4.39-10.03C3.85-10.43 3.62-11.13 3.83-11.77L5.06-15.57C5.52-17 3.88-18.2 2.66-17.31L-.565-14.96C-1.11-14.57-1.85-14.57-2.4-14.96L-5.62-17.31C-6.84-18.2-8.48-17-8.02-15.57L-6.79-11.77C-6.58-11.13-6.8-10.43-7.35-10.03L-10.58-7.69C-11.8-6.8-11.17-4.87-9.66-4.87H-5.67C-5-4.87-4.4-4.44-4.19-3.8L-2.96 0C-2.49 1.43-.466 1.43 0 0" fill="#ffffff" />
</g>
<g clip-path="url(#clip_22)">
<path transform="matrix(1,0,0,-1,272.88,456.51)" d="M0 0 1.23-3.8C1.44-4.44 2.04-4.87 2.71-4.87H6.71C8.21-4.87 8.84-6.8 7.62-7.69L4.39-10.03C3.85-10.43 3.62-11.13 3.83-11.77L5.06-15.57C5.52-17 3.88-18.2 2.66-17.31L-.565-14.96C-1.11-14.57-1.85-14.57-2.4-14.96L-5.62-17.31C-6.84-18.2-8.48-17-8.02-15.57L-6.79-11.77C-6.58-11.13-6.8-10.43-7.35-10.03L-10.58-7.69C-11.8-6.8-11.17-4.87-9.66-4.87H-5.67C-5-4.87-4.4-4.44-4.19-3.8L-2.96 0C-2.49 1.43-.466 1.43 0 0" fill="#ffffff" />
<path transform="matrix(1,0,0,-1,248.89,456.51)" d="M0 0 1.23-3.8C1.44-4.44 2.04-4.87 2.71-4.87H6.71C8.21-4.87 8.84-6.8 7.62-7.69L4.39-10.03C3.85-10.43 3.62-11.13 3.83-11.77L5.06-15.57C5.52-17 3.88-18.2 2.66-17.31L-.565-14.96C-1.11-14.57-1.85-14.57-2.4-14.96L-5.62-17.31C-6.84-18.2-8.48-17-8.02-15.57L-6.79-11.77C-6.58-11.13-6.8-10.43-7.35-10.03L-10.58-7.69C-11.8-6.8-11.17-4.87-9.66-4.87H-5.67C-5-4.87-4.4-4.44-4.19-3.8L-2.96 0C-2.49 1.43-.466 1.43 0 0" fill="#ffffff" />
<g ns1:groupmode="layer" ns1:label="Page 9">
</g>
<g ns1:groupmode="layer" ns1:label="Page7">
</g>
<g ns1:groupmode="layer" ns1:label="Page 8">
</g>
</g>
</g>
<g ns1:groupmode="layer" ns1:label="7">
<g clip-path="url(#clip_23)">
<path transform="matrix(1,0,0,-1,1101.01,315)" d="M0 0H-299.04C-322.31 0-341.18 18.87-341.18 42.14V119.31C-341.18 142.58-322.31 161.45-299.04 161.45H0C23.27 161.45 42.14 142.58 42.14 119.31V42.14C42.14 18.87 23.27 0 0 0" fill="#333333" />
</g>
</g>
<g ns1:groupmode="layer" ns1:label="Layer 31">
</g>
<g ns1:groupmode="layer" ns1:label="8">
</g>
<g ns1:groupmode="layer" ns1:label="Page 5">
</g>
<g ns1:groupmode="layer" ns1:label="Page 3">
</g>
<g ns1:groupmode="layer" ns1:label="Page 2">
</g>
<g ns1:groupmode="layer" ns1:label="Page 1">
</g>
<g ns1:groupmode="layer" ns1:label="bleed">
</g>
<g ns1:groupmode="layer" ns1:label="Layer 8">
</g>
</g>
</svg>