<?xml version='1.0' encoding='utf-8'?>
<svg xmlns="http://www.w3.org/2000/svg" xmlns:ns2="http://www.inkscape.org/namespaces/inkscape" xmlns:xlink="http://www.w3.org/1999/xlink" version="1.1" width="960" height="540" viewBox="0 0 960 540">
<defs>
<clipPath id="clip_1">
<path transform="matrix(1,0,0,-1,0,540)" d="M0 540H960V0H0Z" />
</clipPath>
<clipPath id="clip_2">
<path transform="matrix(1,0,0,-1,0,540)" d="M1980 600H1020V1140H1980Z" />
</clipPath>
<clipPath id="clip_3">
<path transform="matrix(1,0,0,-1,0,540)" d="M-174.72-804.72H2376.97V1746.97H-174.72Z" />
</clipPath>
<clipPath id="clip_4">
<path transform="matrix(1,0,0,-1,0,540)" d="M1101.12-804.72C1272.89-804.72 1440.09-770.84 1598.07-704.03 1750.12-639.71 1886.46-547.86 2003.29-431.03 2120.12-314.2 2211.96-177.87 2276.28-25.81 2343.09 132.16 2376.97 299.35 2376.97 471.12 2376.97 642.89 2343.09 810.09 2276.28 968.07 2211.96 1120.13 2120.11 1256.47 2003.27 1373.3 1886.44 1490.12 1750.11 1581.96 1598.07 1646.27 1440.09 1713.09 1272.9 1746.97 1101.12 1746.97 929.36 1746.97 762.16 1713.09 604.18 1646.27 452.13 1581.96 315.8 1490.12 198.97 1373.29 82.14 1256.46-9.71 1120.12-74.03 968.06-140.84 810.1-174.72 642.9-174.72 471.12-174.72 299.36-140.84 132.16-74.03-25.82-9.71-177.87 82.14-314.21 198.96-431.03 315.81-547.87 452.14-639.72 604.2-704.03 762.15-770.84 929.35-804.72 1101.12-804.72" />
</clipPath>
<clipPath id="clip_5">
<path transform="matrix(1,0,0,-1,0,540)" d="M1101.12 1584.78C951.01 1584.78 805.04 1555.13 667.35 1496.89 534.62 1440.74 415.58 1360.52 313.66 1258.6 211.74 1156.68 131.51 1037.64 75.36 904.9 17.12 767.22-12.53 621.24-12.53 471.12-12.53 321.01 17.12 175.04 75.36 37.35 131.51-95.39 211.74-214.43 313.65-316.34 415.58-418.27 534.62-498.5 667.36-554.64 805.03-612.88 951-642.53 1101.12-642.53 1251.23-642.53 1397.2-612.88 1534.89-554.64 1667.64-498.5 1786.68-418.26 1888.6-316.35 1990.51-214.43 2070.74-95.39 2126.89 37.36 2185.13 175.04 2214.78 321.01 2214.78 471.12 2214.78 621.24 2185.13 767.21 2126.89 904.9 2070.74 1037.64 1990.51 1156.69 1888.59 1258.6 1786.67 1360.52 1667.63 1440.74 1534.9 1496.89 1397.21 1555.13 1251.24 1584.78 1101.12 1584.78" />
</clipPath>
<clipPath id="clip_6">
<path transform="matrix(1,0,0,-1,0,540)" d="M1101.12 1422.58C972.67 1422.58 847.92 1397.17 730.52 1347.51 617.1 1299.53 515.36 1230.92 428.35 1143.92 341.34 1056.91 272.73 955.16 224.74 841.73 175.08 724.34 149.67 599.59 149.67 471.12 149.67 342.67 175.08 217.92 224.74 100.52 272.72-12.9 341.33-114.65 428.33-201.65 515.35-288.66 617.1-357.28 730.53-405.26 847.91-454.92 972.66-480.33 1101.12-480.33 1229.58-480.33 1354.32-454.92 1471.72-405.26 1585.15-357.28 1686.9-288.67 1773.9-201.66 1860.91-114.66 1929.53-12.9 1977.51 100.53 2027.17 217.92 2052.58 342.66 2052.58 471.12 2052.58 599.58 2027.17 724.33 1977.51 841.73 1929.53 955.15 1860.91 1056.9 1773.91 1143.91 1686.9 1230.91 1585.15 1299.53 1471.73 1347.51 1354.33 1397.17 1229.58 1422.58 1101.12 1422.58" />
</clipPath>
<clipPath id="clip_7">
<path transform="matrix(1,0,0,-1,0,540)" d="M1101.12 1260.39C994.33 1260.39 890.8 1239.21 793.69 1198.12 699.59 1158.31 615.14 1101.32 543.04 1029.23 470.94 957.13 413.94 872.68 374.13 778.56 333.05 681.46 311.86 577.93 311.86 471.12 311.86 364.32 333.04 260.8 374.12 163.69 413.94 69.58 470.93-14.87 543.02-86.96 615.12-159.06 699.58-216.06 793.7-255.88 890.8-296.96 994.32-318.14 1101.12-318.14 1207.92-318.14 1311.44-296.96 1408.55-255.88 1502.66-216.06 1587.12-159.07 1659.21-86.98 1731.31-14.88 1788.31 69.58 1828.12 163.69 1869.21 260.8 1890.39 364.32 1890.39 471.12 1890.39 577.92 1869.21 681.45 1828.12 778.55 1788.31 872.67 1731.32 957.12 1659.22 1029.21 1587.13 1101.31 1502.67 1158.31 1408.56 1198.12 1311.45 1239.2 1207.93 1260.39 1101.12 1260.39" />
</clipPath>
<clipPath id="clip_8">
<path transform="matrix(1,0,0,-1,0,540)" d="M1101.12 1098.19C1015.98 1098.19 933.68 1081.24 856.86 1048.74 782.07 1017.1 714.92 971.72 657.74 914.55 600.55 857.36 555.16 790.2 523.51 715.39 491.01 638.58 474.06 556.27 474.06 471.12 474.06 385.98 491.01 303.68 523.51 226.87 555.15 152.07 600.53 84.92 657.7 27.74 714.89-29.46 782.06-74.84 856.86-106.49 933.68-138.99 1015.98-155.94 1101.12-155.94 1186.27-155.94 1268.56-139 1345.38-106.49 1420.18-74.85 1487.34-29.47 1544.52 27.71 1601.7 84.89 1647.09 152.06 1678.74 226.86 1711.24 303.68 1728.19 385.98 1728.19 471.12 1728.19 556.27 1711.24 638.57 1678.74 715.38 1647.1 790.18 1601.72 857.34 1544.54 914.52 1487.35 971.71 1420.19 1017.09 1345.39 1048.74 1268.57 1081.24 1186.27 1098.19 1101.12 1098.19" />
</clipPath>
<clipPath id="clip_9">
<path transform="matrix(1,0,0,-1,0,540)" d="M1101.12 936C1037.64 936 976.56 923.28 920.03 899.36 864.56 875.88 814.7 842.12 772.43 799.86 730.15 757.59 696.38 707.71 672.89 652.23 648.97 595.69 636.25 534.62 636.25 471.12 636.25 407.64 648.97 346.56 672.89 290.04 696.37 234.56 730.13 184.7 772.39 142.43 814.67 100.15 864.54 66.38 920.03 42.89 976.56 18.97 1037.63 6.25 1101.12 6.25 1164.61 6.25 1225.68 18.97 1282.21 42.89 1337.69 66.37 1387.56 100.13 1429.82 142.39 1472.1 184.67 1505.87 234.54 1529.36 290.03 1553.28 346.56 1566 407.63 1566 471.12 1566 534.61 1553.28 595.68 1529.36 652.21 1505.88 707.69 1472.12 757.56 1429.85 799.83 1387.58 842.1 1337.71 875.87 1282.23 899.35 1225.69 923.28 1164.62 936 1101.12 936" />
</clipPath>
<clipPath id="clip_10">
<path transform="matrix(1,0,0,-1,0,540)" d="M798.45 471.12C798.45 303.96 933.96 168.44 1101.12 168.44 1268.29 168.44 1403.81 303.96 1403.81 471.12 1403.81 638.29 1268.29 773.8 1101.12 773.8 933.96 773.8 798.45 638.29 798.45 471.12" />
</clipPath>
<clipPath id="clip_11">
<path transform="matrix(1,0,0,-1,0,540)" d="M960 600H0V1140H960Z" />
</clipPath>
<clipPath id="clip_12">
<path transform="matrix(1,0,0,-1,0,540)" d="M-1194.72-804.72H1356.97V1746.97H-1194.72Z" />
</clipPath>
<clipPath id="clip_13">
<path transform="matrix(1,0,0,-1,0,540)" d="M81.13-804.72C252.89-804.72 420.08-770.84 578.07-704.03 730.12-639.71 866.46-547.86 983.29-431.03 1100.12-314.2 1191.96-177.87 1256.28-25.81 1323.09 132.16 1356.97 299.35 1356.97 471.12 1356.97 642.89 1323.09 810.09 1256.28 968.07 1191.96 1120.13 1100.11 1256.47 983.27 1373.3 866.45 1490.12 730.11 1581.96 578.07 1646.27 420.09 1713.09 252.9 1746.97 81.13 1746.97-90.64 1746.97-257.84 1713.09-415.82 1646.27-567.87 1581.96-704.2 1490.12-821.03 1373.29-937.87 1256.46-1029.71 1120.12-1094.03 968.06-1160.84 810.1-1194.72 642.9-1194.72 471.12-1194.72 299.36-1160.84 132.16-1094.03-25.82-1029.71-177.87-937.86-314.21-821.04-431.03-704.2-547.87-567.86-639.72-415.8-704.03-257.85-770.84-90.65-804.72 81.13-804.72" />
</clipPath>
<clipPath id="clip_14">
<path transform="matrix(1,0,0,-1,0,540)" d="M81.12 1584.78C-68.99 1584.78-214.96 1555.13-352.65 1496.89-485.38 1440.74-604.42 1360.52-706.34 1258.6-808.26 1156.68-888.49 1037.64-944.64 904.9-1002.88 767.22-1032.53 621.24-1032.53 471.12-1032.53 321.01-1002.88 175.04-944.64 37.35-888.49-95.39-808.26-214.43-706.35-316.34-604.42-418.27-485.38-498.5-352.64-554.64-214.97-612.88-69-642.53 81.12-642.53 231.23-642.53 377.2-612.88 514.89-554.64 647.64-498.5 766.68-418.26 868.6-316.35 970.51-214.43 1050.74-95.39 1106.89 37.36 1165.13 175.04 1194.78 321.01 1194.78 471.12 1194.78 621.24 1165.13 767.21 1106.89 904.9 1050.74 1037.64 970.51 1156.69 868.59 1258.6 766.67 1360.52 647.63 1440.74 514.9 1496.89 377.21 1555.13 231.24 1584.78 81.12 1584.78" />
</clipPath>
<clipPath id="clip_15">
<path transform="matrix(1,0,0,-1,0,540)" d="M81.12 1422.58C-47.33 1422.58-172.08 1397.17-289.48 1347.51-402.9 1299.53-504.64 1230.92-591.65 1143.92-678.66 1056.91-747.27 955.16-795.26 841.73-844.92 724.34-870.33 599.59-870.33 471.12-870.33 342.67-844.92 217.92-795.26 100.52-747.28-12.9-678.67-114.65-591.67-201.65-504.65-288.66-402.9-357.28-289.47-405.26-172.09-454.92-47.34-480.33 81.12-480.33 209.58-480.33 334.32-454.92 451.72-405.26 565.15-357.28 666.9-288.67 753.9-201.66 840.91-114.66 909.53-12.9 957.51 100.53 1007.17 217.92 1032.58 342.66 1032.58 471.12 1032.58 599.58 1007.17 724.33 957.51 841.73 909.53 955.15 840.91 1056.9 753.91 1143.91 666.9 1230.91 565.15 1299.53 451.73 1347.51 334.33 1397.17 209.58 1422.58 81.12 1422.58" />
</clipPath>
<clipPath id="clip_16">
<path transform="matrix(1,0,0,-1,0,540)" d="M81.12 1260.39C-25.68 1260.39-129.2 1239.21-226.31 1198.12-320.41 1158.31-404.86 1101.32-476.96 1029.23-549.06 957.13-606.06 872.68-645.87 778.56-686.96 681.46-708.14 577.93-708.14 471.12-708.14 364.32-686.96 260.8-645.88 163.69-606.06 69.58-549.07-14.87-476.98-86.96-404.88-159.06-320.42-216.06-226.3-255.88-129.2-296.96-25.68-318.14 81.12-318.14 187.92-318.14 291.44-296.96 388.55-255.88 482.66-216.06 567.12-159.07 639.21-86.98 711.31-14.88 768.31 69.58 808.12 163.69 849.21 260.8 870.39 364.32 870.39 471.12 870.39 577.92 849.21 681.45 808.12 778.55 768.31 872.67 711.32 957.12 639.22 1029.21 567.13 1101.31 482.67 1158.31 388.56 1198.12 291.45 1239.2 187.93 1260.39 81.12 1260.39" />
</clipPath>
<clipPath id="clip_17">
<path transform="matrix(1,0,0,-1,0,540)" d="M81.12 1098.19C-4.02 1098.19-86.32 1081.24-163.14 1048.74-237.93 1017.1-305.08 971.72-362.26 914.55-419.45 857.36-464.84 790.2-496.49 715.39-528.99 638.58-545.95 556.27-545.95 471.12-545.95 385.98-528.99 303.68-496.49 226.87-464.85 152.07-419.47 84.92-362.3 27.74-305.11-29.46-237.94-74.84-163.14-106.49-86.32-138.99-4.02-155.94 81.12-155.94 166.27-155.94 248.56-139 325.38-106.49 400.18-74.85 467.34-29.47 524.52 27.71 581.71 84.89 627.09 152.06 658.74 226.86 691.24 303.68 708.19 385.98 708.19 471.12 708.19 556.27 691.24 638.57 658.74 715.38 627.1 790.18 581.72 857.34 524.54 914.52 467.35 971.71 400.19 1017.09 325.39 1048.74 248.57 1081.24 166.27 1098.19 81.12 1098.19" />
</clipPath>
<clipPath id="clip_18">
<path transform="matrix(1,0,0,-1,0,540)" d="M81.12 936C17.64 936-43.44 923.28-99.97 899.36-155.44 875.88-205.3 842.12-247.57 799.86-289.85 757.59-323.62 707.71-347.11 652.23-371.03 595.69-383.75 534.62-383.75 471.12-383.75 407.64-371.03 346.56-347.11 290.04-323.63 234.56-289.87 184.7-247.61 142.43-205.33 100.15-155.46 66.38-99.97 42.89-43.44 18.97 17.63 6.25 81.12 6.25 144.61 6.25 205.68 18.97 262.21 42.89 317.69 66.37 367.56 100.13 409.82 142.39 452.1 184.67 485.87 234.54 509.36 290.03 533.28 346.56 546 407.63 546 471.12 546 534.61 533.28 595.68 509.36 652.21 485.88 707.69 452.12 757.56 409.85 799.83 367.58 842.1 317.71 875.87 262.23 899.35 205.69 923.28 144.62 936 81.12 936" />
</clipPath>
<clipPath id="clip_19">
<path transform="matrix(1,0,0,-1,0,540)" d="M-221.56 471.12C-221.56 303.96-86.04 168.44 81.12 168.44 248.29 168.44 383.81 303.96 383.81 471.12 383.81 638.29 248.29 773.8 81.12 773.8-86.04 773.8-221.56 638.29-221.56 471.12" />
</clipPath>
<clipPath id="clip_20">
<path transform="matrix(1,0,0,-1,0,540)" d="M0 0H960V540H0Z" />
</clipPath>
<clipPath id="clip_21">
<path transform="matrix(1,0,0,-1,0,540)" d="M0 0H960V540H0Z" />
</clipPath>
<clipPath id="clip_22">
<path transform="matrix(1,0,0,-1,0,540)" d="M0 540V0H960V235.78C959.18 237.76 958.35 239.75 957.51 241.73 910.25 353.46 842.96 453.86 757.79 540Z" />
</clipPath>
<clipPath id="clip_23">
<path transform="matrix(1,0,0,-1,0,540)" d="M0 540V0H859.9C849.79 61.33 832.45 121.07 808.12 178.56 768.31 272.67 711.32 357.12 639.22 429.21 596.97 471.47 550.47 508.54 500.27 540Z" />
</clipPath>
<clipPath id="clip_24">
<path transform="matrix(1,0,0,-1,0,540)" d="M0 492.99V0H694.91C686.62 39.55 674.51 78.11 658.74 115.39 627.1 190.18 581.72 257.34 524.54 314.52 467.36 371.71 400.19 417.09 325.39 448.74 248.57 481.24 166.27 498.19 81.12 498.19 53.76 498.19 26.69 496.44 0 492.99" />
</clipPath>
<clipPath id="clip_25">
<path transform="matrix(1,0,0,-1,0,540)" d="M0 328.94V0H527.87C522.74 17.78 516.56 35.2 509.36 52.21 485.88 107.69 452.12 157.56 409.86 199.83 367.58 242.1 317.71 275.87 262.23 299.35 205.69 323.28 144.62 336 81.12 336 53.57 336 26.47 333.6 0 328.94" />
</clipPath>
<clipPath id="clip_26">
<path transform="matrix(1,0,0,-1,0,540)" d="M0 162.81V0H355.08C306.67 102.72 202.2 173.81 81.12 173.81 53.03 173.81 25.82 169.97 0 162.81" />
</clipPath>
<clipPath id="clip_27">
<path transform="matrix(1,0,0,-1,0,540)" d="M0 0H960V540H0Z" />
</clipPath>
<clipPath id="clip_28">
<path transform="matrix(1,0,0,-1,0,540)" d="M-1194.72-1404.72H1356.97V1146.97H-1194.72Z" />
</clipPath>
<clipPath id="clip_29">
<path transform="matrix(1,0,0,-1,0,540)" d="M81.13-1404.72C252.89-1404.72 420.08-1370.84 578.07-1304.03 730.12-1239.71 866.46-1147.86 983.29-1031.03 1100.12-914.21 1191.96-777.87 1256.28-625.81 1323.09-467.84 1356.97-300.65 1356.97-128.88 1356.97 42.89 1323.09 210.09 1256.28 368.07 1191.96 520.13 1100.11 656.47 983.27 773.3 866.45 890.12 730.11 981.96 578.07 1046.27 420.09 1113.09 252.9 1146.97 81.13 1146.97-90.64 1146.97-257.84 1113.09-415.82 1046.27-567.87 981.96-704.2 890.12-821.03 773.29-937.87 656.46-1029.71 520.12-1094.03 368.06-1160.84 210.1-1194.72 42.9-1194.72-128.88-1194.72-300.64-1160.84-467.84-1094.03-625.82-1029.71-777.87-937.86-914.21-821.04-1031.03-704.2-1147.87-567.86-1239.72-415.8-1304.03-257.85-1370.84-90.65-1404.72 81.13-1404.72" />
</clipPath>
<clipPath id="clip_30">
<path transform="matrix(1,0,0,-1,0,540)" d="M81.12 984.78C-68.99 984.78-214.96 955.13-352.65 896.89-485.38 840.75-604.42 760.52-706.34 658.6-808.26 556.68-888.49 437.64-944.64 304.9-1002.88 167.22-1032.53 21.24-1032.53-128.88-1032.53-278.99-1002.88-424.96-944.64-562.65-888.49-695.39-808.26-814.43-706.35-916.34-604.42-1018.27-485.38-1098.5-352.64-1154.64-214.97-1212.88-69-1242.53 81.12-1242.53 231.23-1242.53 377.2-1212.88 514.89-1154.64 647.64-1098.49 766.68-1018.26 868.6-916.35 970.51-814.43 1050.74-695.39 1106.89-562.64 1165.13-424.96 1194.78-278.99 1194.78-128.88 1194.78 21.24 1165.13 167.21 1106.89 304.9 1050.74 437.64 970.51 556.69 868.59 658.6 766.67 760.52 647.63 840.74 514.9 896.89 377.21 955.13 231.24 984.78 81.12 984.78" />
</clipPath>
<clipPath id="clip_31">
<path transform="matrix(1,0,0,-1,0,540)" d="M81.12 822.58C-47.33 822.58-172.08 797.17-289.48 747.51-402.9 699.53-504.64 630.92-591.65 543.92-678.66 456.91-747.27 355.16-795.26 241.73-844.92 124.34-870.33-.413-870.33-128.88-870.33-257.33-844.92-382.08-795.26-499.48-747.28-612.9-678.67-714.65-591.67-801.65-504.65-888.66-402.9-957.28-289.47-1005.26-172.09-1054.92-47.34-1080.33 81.12-1080.33 209.58-1080.33 334.32-1054.92 451.72-1005.26 565.15-957.28 666.9-888.67 753.9-801.66 840.91-714.66 909.53-612.9 957.51-499.47 1007.17-382.08 1032.58-257.34 1032.58-128.88 1032.58-.42 1007.17 124.33 957.51 241.72 909.53 355.15 840.91 456.9 753.91 543.91 666.9 630.91 565.15 699.52 451.73 747.5 334.33 797.17 209.58 822.58 81.12 822.58" />
</clipPath>
<clipPath id="clip_32">
<path transform="matrix(1,0,0,-1,0,540)" d="M81.12 660.39C-25.68 660.39-129.2 639.21-226.31 598.12-320.41 558.31-404.86 501.32-476.96 429.23-549.06 357.13-606.06 272.68-645.87 178.56-686.96 81.45-708.14-22.07-708.14-128.88-708.14-235.68-686.96-339.2-645.88-436.31-606.06-530.41-549.07-614.87-476.98-686.96-404.88-759.06-320.42-816.06-226.3-855.88-129.2-896.96-25.68-918.14 81.12-918.14 187.92-918.14 291.44-896.96 388.55-855.88 482.66-816.06 567.12-759.07 639.21-686.98 711.31-614.88 768.31-530.42 808.12-436.31 849.21-339.2 870.39-235.68 870.39-128.88 870.39-22.08 849.21 81.45 808.12 178.56 768.31 272.67 711.32 357.12 639.22 429.21 567.13 501.31 482.67 558.31 388.56 598.12 291.45 639.21 187.93 660.39 81.12 660.39" />
</clipPath>
<clipPath id="clip_33">
<path transform="matrix(1,0,0,-1,0,540)" d="M81.12 498.19C-4.02 498.19-86.32 481.24-163.14 448.74-237.93 417.1-305.08 371.72-362.26 314.55-419.45 257.36-464.84 190.19-496.49 115.39-528.99 38.58-545.95-43.73-545.95-128.88-545.95-214.02-528.99-296.32-496.49-373.13-464.85-447.93-419.47-515.08-362.3-572.26-305.11-629.46-237.94-674.84-163.14-706.49-86.32-738.99-4.02-755.94 81.12-755.94 166.27-755.94 248.56-739 325.38-706.49 400.18-674.85 467.34-629.47 524.52-572.29 581.71-515.11 627.09-447.94 658.74-373.14 691.24-296.32 708.19-214.02 708.19-128.88 708.19-43.73 691.24 38.56 658.74 115.38 627.1 190.18 581.72 257.34 524.54 314.52 467.35 371.71 400.19 417.09 325.39 448.74 248.57 481.24 166.27 498.19 81.12 498.19" />
</clipPath>
<clipPath id="clip_34">
<path transform="matrix(1,0,0,-1,0,540)" d="M81.12 336C17.64 336-43.44 323.28-99.97 299.36-155.44 275.88-205.3 242.12-247.57 199.86-289.85 157.59-323.62 107.71-347.11 52.23-371.03-4.31-383.75-65.38-383.75-128.88-383.75-192.36-371.03-253.44-347.11-309.96-323.63-365.44-289.87-415.3-247.61-457.57-205.33-499.85-155.46-533.62-99.97-557.11-43.44-581.03 17.63-593.75 81.12-593.75 144.61-593.75 205.68-581.03 262.21-557.11 317.69-533.63 367.56-499.87 409.82-457.61 452.1-415.33 485.87-365.46 509.36-309.97 533.28-253.44 546-192.37 546-128.88 546-65.39 533.28-4.32 509.36 52.21 485.88 107.69 452.12 157.56 409.85 199.83 367.58 242.1 317.71 275.87 262.23 299.35 205.69 323.28 144.62 336 81.12 336" />
</clipPath>
<clipPath id="clip_35">
<path transform="matrix(1,0,0,-1,0,540)" d="M-221.56-128.88C-221.56-296.04-86.04-431.56 81.12-431.56 248.29-431.56 383.81-296.04 383.81-128.88 383.81 38.29 248.29 173.81 81.12 173.81-86.04 173.81-221.56 38.29-221.56-128.88" />
</clipPath>
<clipPath id="clip_36">
<path transform="matrix(1,0,0,-1,0,540)" d="M0 0H960V540H0Z" />
</clipPath>
<g id="mask_37_contents">
<rect x="0" y="0" width="100%" height="100%" fill="white" />
<g>
<clipPath id="clip_38">
<path transform="matrix(1,0,0,-1,0,540)" d="M-32768-32768H32767V32767H-32768Z" />
</clipPath>
<g clip-path="url(#clip_38)">
<image x="0" y="0" width="960" height="540" xlink:href="../assets/image-01-5556a40fdabf.png" />
</g>
</g>
</g>
<mask id="mask_37" mask-type="luminance">
<use xlink:href="#mask_37_contents" />
</mask>
<clipPath id="clip_39">
<path transform="matrix(1,0,0,-1,0,540)" d="M0 540H960V0H0Z" />
</clipPath>
<clipPath id="clip_40">
<path transform="matrix(1,0,0,-1,0,540)" d="M0 540H960V0H0Z" />
</clipPath>
</defs>
<g>
<g ns2:groupmode="layer" ns2:label="Layer 1">
<g clip-path="url(#clip_1)">
<g clip-path="url(#clip_2)">
<g opacity=".300003">
<g clip-path="url(#clip_3)">
<g clip-path="url(#clip_4)">
</g>
<g clip-path="url(#clip_5)">
</g>
<g clip-path="url(#clip_6)">
</g>
<g clip-path="url(#clip_7)">
</g>
<g clip-path="url(#clip_8)">
</g>
<g clip-path="url(#clip_9)">
</g>
<g clip-path="url(#clip_10)">
</g>
</g>
</g>
</g>
<g clip-path="url(#clip_11)">
<g opacity=".300003">
<g clip-path="url(#clip_12)">
<g clip-path="url(#clip_13)">
</g>
<g clip-path="url(#clip_14)">
</g>
<g clip-path="url(#clip_15)">
</g>
<g clip-path="url(#clip_16)">
</g>
<g clip-path="url(#clip_17)">
</g>
<g clip-path="url(#clip_18)">
</g>
<g clip-path="url(#clip_19)">
</g>
</g>
</g>
</g>
</g>
<g clip-path="url(#clip_20)">
<image x="0" y="0" width="960" height="540" xlink:href="../assets/image-02-29c76334d568.png" />
</g>
<g clip-path="url(#clip_21)">
<image x="0" y="0" width="960" height="540" xlink:href="../assets/image-03-c66fb38d4dbe.png" />
</g>
<g clip-path="url(#clip_22)">
<image x="0" y="0" width="960" height="540" xlink:href="../assets/image-04-38d50a9f7a64.png" />
</g>
<g clip-path="url(#clip_23)">
<image x="0" y="0" width="860" height="540" xlink:href="../assets/image-05-e8cd60fd2a00.png" />
</g>
<g clip-path="url(#clip_24)">
<image x="0" y="41" width="695" height="499" xlink:href="../assets/image-06-0e6056907a31.png" />
</g>
<g clip-path="url(#clip_25)">
<image x="0" y="204" width="528" height="336" xlink:href="../assets/image-07-13c2da361bfa.png" />
</g>
<g clip-path="url(#clip_26)">
<image x="0" y="366" width="356" height="174" xlink:href="../assets/image-08-d6b19e1a4a5f.png" />
</g>
<g clip-path="url(#clip_27)">
<g opacity=".300003" style="mix-blend-mode:color-burn">
<g clip-path="url(#clip_28)">
<g clip-path="url(#clip_29)">
<image x="0" y="0" width="960" height="540" xlink:href="../assets/image-02-29c76334d568.png" />
</g>
<g clip-path="url(#clip_30)">
<image x="0" y="0" width="960" height="540" xlink:href="../assets/image-03-c66fb38d4dbe.png" />
</g>
<g clip-path="url(#clip_31)">
<image x="0" y="0" width="960" height="540" xlink:href="../assets/image-04-38d50a9f7a64.png" />
</g>
<g clip-path="url(#clip_32)">
<image x="0" y="0" width="871" height="540" xlink:href="../assets/image-09-d9dfcba79592.png" />
</g>
<g clip-path="url(#clip_33)">
<image x="0" y="41" width="709" height="499" xlink:href="../assets/image-10-090b3844fd00.png" />
</g>
<g clip-path="url(#clip_34)">
<image x="0" y="204" width="546" height="336" xlink:href="../assets/image-11-12edc06f43d3.png" />
</g>
<g clip-path="url(#clip_35)">
<image x="0" y="366" width="384" height="174" xlink:href="../assets/image-12-15f198bab750.png" />
</g>
</g>
</g>
</g>
<g clip-path="url(#clip_36)">
<g mask="url(#mask_37)">
<image x="0" y="0" width="960" height="540" xlink:href="../assets/image-13-a87e97b14841.png" />
</g>
</g>
<g clip-path="url(#clip_39)">
<path transform="matrix(1,0,0,-1,718.65,30)" d="M0 0V0C0 4.74 3.84 8.58 8.58 8.58H104.14C108.88 8.58 112.72 4.74 112.72 0 112.72-4.74 108.88-8.58 104.14-8.58H8.58C3.84-8.58 0-4.74 0 0" fill="#ffffff" />
</g>
<text fill="#ff5533" xml:space="preserve" transform="matrix(1 0 -0 1 0 540)" font-size="10" font-family="VWYXZX+Arial-BoldMT" font-weight="bold"><tspan y="-506.4182" x="725.7217 732.32669 736.2426 742.39266 745.2946 750.9456 756.6856 760.01559 762.79556 769.4005 773.3705 779.0375 784.6385 790.2655 796.44656 799.9415 805.58157 809.0735 811.9335 818.1235">Project Presentation</tspan></text>
<text fill="#ff5533" xml:space="preserve" transform="matrix(1 0 -0 1 0 540)" font-size="10" font-family="AGLBRN+ArialMT"><tspan y="-506.4182" x="849.2317 855.95169 861.56869 866.65469 871.67166 873.9587 879.56869 885.1307 887.9107 894.07968 896.31069 899.3257 902.1827 904.4407">Session Tittle</tspan></text>
<g clip-path="url(#clip_40)">
<path transform="matrix(1,0,0,-1,585,430.4)" d="M0 0V247.04C0 253.38 5.14 258.52 11.48 258.52H258.52C264.86 258.52 270 253.38 270 247.04V0C270-6.34 264.86-11.48 258.52-11.48H11.48C5.14-11.48 0-6.34 0 0" fill="#ff725d" />
<path transform="matrix(1,0,0,-1,585,415.65)" d="M0 0V247.04C0 253.38 5.14 258.52 11.48 258.52H258.52C264.86 258.52 270 253.38 270 247.04V0C270-6.34 264.86-11.48 258.52-11.48H11.48C5.14-11.48 0-6.34 0 0" fill="#ff8e7d" />
<path transform="matrix(1,0,0,-1,585,400.9)" d="M0 0V247.04C0 253.38 5.14 258.52 11.48 258.52H258.52C264.86 258.52 270 253.38 270 247.04V0C270-6.34 264.86-11.48 258.52-11.48H11.48C5.14-11.48 0-6.34 0 0" fill="#ffaa9e" />
<path transform="matrix(1,0,0,-1,585,386.15)" d="M0 0V247.04C0 253.38 5.14 258.52 11.48 258.52H258.52C264.86 258.52 270 253.38 270 247.04V0C270-6.34 264.86-11.48 258.52-11.48H11.48C5.14-11.48 0-6.34 0 0" fill="#ffc7be" />
<path transform="matrix(1,0,0,-1,585,371.39)" d="M0 0V247.04C0 253.38 5.14 258.52 11.48 258.52H258.52C264.86 258.52 270 253.38 270 247.04V0C270-6.34 264.86-11.48 258.52-11.48H11.48C5.14-11.48 0-6.34 0 0" fill="#ffe3df" />
<path transform="matrix(1,0,0,-1,585,356.64)" d="M0 0V247.04C0 253.38 5.14 258.52 11.48 258.52H258.52C264.86 258.52 270 253.38 270 247.04V0C270-6.34 264.86-11.48 258.52-11.48H11.48C5.14-11.48 0-6.34 0 0" fill="#ffffff" />
<path transform="matrix(1,0,0,-1,742.59,126.81)" d="M0 0V-6.38C-2.12-6.39-4.26-6.37-6.38-6.38V-12.76C-7.17-13.14-12.44-13.15-12.63-12.78L-12.76 0Z" />
<path transform="matrix(1,0,0,-1,806.9,320.02)" d="M0 0C.008-2.21-.006-4.43 0-6.64H6.64C6.96-6.64 6.64-12.43 6.64-13.02 .183-13-6.29-13-12.76-13.02V-6.64C-10.63-6.64-8.5-6.65-6.38-6.64-6.37-4.43-6.39-2.21-6.38 0-4.26-.003-2.12 0 0 0" />
<path transform="matrix(1,0,0,-1,710.43,126.81)" d="M0 0-.001-6.38C2.12-6.38 4.25-6.38 6.38-6.38 6.38-8.49 6.4-10.62 6.36-12.74 4.25-13.39 2-12.78 0-12.76-.016-11.16 .256-8.44 0-7.04-.055-6.75-.135-6.55-.399-6.38H-6.64L-6.38 0Z" />
<path transform="matrix(1,0,0,-1,736.21,313.65)" d="M0 0C0-2.12-.001-4.26 .001-6.38-4.34-6.37-8.69-6.39-13.02-6.38-13.02-4.26-13.02-2.12-13.02 0-8.69-.01-4.34-.016 0 0" />
<path transform="matrix(1,0,0,-1,723.19,126.81)" d="M0 0 .001-6.38C-2.12-6.38-4.25-6.38-6.38-6.38-6.38-4.26-6.38-2.12-6.38 0Z" />
<path transform="matrix(1,0,0,-1,710.43,139.57)" d="M0 0C.022-2.21 .009-4.43 0-6.64-1.66-6.63-4.52-6.91-5.98-6.64-6.28-6.59-6.48-6.51-6.64-6.25V-.399L-6.25-.093C-4.18-.042-2.07 .02 0 0" />
<path transform="matrix(1,0,0,-1,748.97,223.55)" d="M0 0C-2.12-.002-4.26 .001-6.38 0V6.64H0C.008 4.43-.011 2.21 0 0 1.64 .002 4.55-.262 5.98 0 6.28 .055 6.48 .135 6.64 .399V5.98C6.64 6.05 6.33 6.19 6.49 6.38 7.02 7.15 11.92 6.37 13.02 6.38 13.02 4.8 13.28 2.04 13.02 .665 12.97 .367 12.89 .167 12.62 0H6.64C6.63-2.12 6.66-4.26 6.64-6.38 4.43-6.37 2.21-6.38-.001-6.38-.007-4.26 .01-2.12 0 0" />
<path transform="matrix(1,0,0,-1,806.9,191.39)" d="M0 0H-6.38V-5.98L-5.98-6.38H0ZM0-38.54C-.016-34.2 .012-29.85 0-25.51H-6.38V-19.14H-12.76V0L-6.38 .266V6.64H-12.76V.266L-25.54 .124C-25.99 .382-25.83 9.22-25.79 10.51-25.77 11.26-25.78 12.51-25.38 13.02H6.64V6.64H19.4V0H6.64V-12.76H0V-19.14H19.4V-25.51C17.38-25.74 14.8-25.03 13.02-25.91V-32.16H6.64V-38.54C4.43-38.54 2.21-38.53 0-38.54" />
<path transform="matrix(1,0,0,-1,768.37,126.81)" d="M0 0 .001-6.38C-2.12-6.38-4.25-6.37-6.38-6.38V0Z" />
<path transform="matrix(1,0,0,-1,819.93,307.27)" d="M0 0C.008-2.12-.005-4.26-.001-6.38L6.38-6.38V-12.76H-13.02C-13.03-10.63-13.03-8.5-13.02-6.38-10.81-6.37-8.59-6.38-6.38-6.38-6.37-4.26-6.39-2.12-6.38 0-4.26 .008-2.12 0 0 0" />
<path transform="matrix(1,0,0,-1,639.47,242.95)" d="M0 0-6.38 .266V-6.38H0ZM13.02 .266C13.39 .419 13.82 0 13.95 0H19L19.4 .399V6.25L19 6.64H6.78L6.38 6.25V-5.98L6.78-6.38H12.76C12.67-6.12 13.02-5.8 13.02-5.71ZM0 13.02H-6.38V6.64H0ZM19.4 32.42C15.06 32.44 10.71 32.41 6.38 32.42V38.8H0V58.2H-6.38V38.8H-19.4V45.18H-13.02L-12.62 64.58H19.4C19.4 62.46 19.4 60.32 19.4 58.2 15.8 58.22 10.7 58.62 7.29 58.22 6.91 58.17 6.61 58.18 6.38 57.8V45.58L6.78 45.18H12.76L13.05 38.83C15.16 38.77 17.29 38.82 19.4 38.8 19.41 36.68 19.39 34.55 19.4 32.42 21.52 32.41 23.66 32.43 25.78 32.42V26.05H32.16V32.02L32.56 32.42H38.8L38.65 38.55C38.98 39 44.18 38.79 45.18 38.8 45.2 36.68 45.17 34.55 45.18 32.42H51.56C51.57 34.55 51.54 36.68 51.56 38.8 53.68 38.8 55.81 38.81 57.94 38.8 57.96 32.34 57.92 25.86 57.94 19.4 55.81 19.4 53.68 19.4 51.56 19.4 51.54 21.06 51.83 23.92 51.56 25.38 51.5 25.68 51.42 25.88 51.16 26.05H45.58L45.18 25.65V19.4H51.56C51.58 17.28 51.54 15.14 51.56 13.02H57.94V-6.38C53.69-6.39 49.43-6.36 45.18-6.38 45.18-5.38 45.38-.183 44.92 .153 41.26 .212 36.66-.434 33.07-.014 32.69 .032 32.39 .019 32.16 .399V6.25L32.56 6.64H38.8L38.54 13.02H25.78V-5.98L26.18-6.38H32.16V-12.76C34.37-12.75 36.59-12.76 38.8-12.76 38.81-16.25 38.86-19.77 38.81-23.27 38.8-24.11 38.42-24.84 38.8-25.78H44.78L45.18-25.38V-19.14C47.3-19.13 49.44-19.14 51.56-19.14 51.56-20.77 51.3-23.68 51.56-25.11 51.61-25.41 51.69-25.61 51.96-25.78H57.94C57.93-23.57 57.94-21.35 57.94-19.14 62.27-19.13 66.62-19.14 70.96-19.14V-12.76H77.34V-19.14H89.96L90.36-19.53V-25.38L89.44-25.79 70.96-25.78V-38.54C68.84-38.54 66.7-38.52 64.58-38.54 64.57-36.58 64.04-34.24 64.31-32.16H45.18V-38.14L44.78-38.54H38.8L38.54-25.78H26.18L25.78-25.38V-12.76C23.66-12.74 21.52-12.77 19.4-12.76V-6.38H13.02V-12.09C13.02-12.16 12.71-12.3 12.87-12.49 13.19-12.96 18.39-12.75 19.4-12.76V-19.14H6.38V-25.51C6.64-25.43 6.96-25.78 7.04-25.78H25.78V-32.16H6.78L6.38-31.76V-25.78H0V-38.54H6.38V-44.91H-6.38C-6.35-36.33-6.41-27.72-6.38-19.14-4.26-19.13-2.12-19.14 0-19.14V-12.76H-6.38C-6.38-14.88-6.37-17.01-6.38-19.14-8.59-19.14-10.81-19.13-13.02-19.13L-13.02 6.64H-19.4V13.02H-25.78V25.78L-13.06 26.01C-12.22 25.48-13.16 20.33-12.95 19.8-12.88 19.62-12.77 19.51-12.62 19.4H6.38V25.65L6.78 26.05H19C19.27 25.88 19.35 25.68 19.4 25.38 19.66 23.95 19.4 21.04 19.4 19.4 17.28 19.38 15.14 19.41 13.02 19.4V13.02H19.4C19.4 15.14 19.4 17.28 19.4 19.4 21.52 19.42 23.66 19.39 25.78 19.4V25.65C25.55 26.02 25.25 26.01 24.86 26.06 23.24 26.25 21.03 26.04 19.4 25.78 19.39 27.99 19.41 30.21 19.4 32.42" />
<path transform="matrix(1,0,0,-1,742.59,146.22)" d="M0 0C0-2.12 .002-4.26 0-6.38L-12.76-6.38-13.02-.002C-8.69 0-4.34 .002 0 0" />
<path transform="matrix(1,0,0,-1,723.19,307.27)" d="M0 0C.008-2.12-.003-4.26 0-6.38-2.12-6.37-4.26-6.39-6.38-6.38-6.39-4.26-6.39-2.12-6.38 0-4.26 .008-2.12 0 0 0" />
<path transform="matrix(1,0,0,-1,710.43,197.77)" d="M0 0H-6.25L-6.64-.399V-5.45C-6.64-5.71-6.5-6.21-6.25-6.38H0ZM32.16 0V6.25C31.79 6.85 31.59 6.38 31.49 6.38H19.14C19.55 4.49 19.55 2.31 19.16 .419L19.53 0ZM12.76 6.38 6.91 6.56 6.38 6.25V0H12.76ZM32.16 13.02H44.78L45.18 13.42V18.2C45.18 18.56 45.12 19.18 44.78 19.4H32.16ZM57.94 38.8H51.56V25.78H57.94ZM51.56 64.58V51.56H64.31V13.02C62.19 13.02 60.06 13.03 57.94 13.02 57.92 15.14 57.95 17.28 57.94 19.4H51.56C51.56 17.28 51.56 15.14 51.56 13.02 49.44 13.01 47.3 13.03 45.18 13.02V-5.98L44.78-6.38H38.54V-12.76H25.78V-6.78L25.38-6.38H12.76V-12.76H-6.64L-6.67-6.41C-8.78-6.34-10.91-6.39-13.02-6.38-13.03-4.26-13.02-2.12-13.02 0H-19.4C-19.41-2.12-19.38-4.26-19.4-6.38-21.52-6.38-23.66-6.36-25.78-6.38-25.8-4.26-25.77-2.12-25.78 0H-32.02L-32.36 .387C-31.65 1.41-32.66 5.9-32.31 6.39-31.86 7.02-26.7 5.66-25.78 6.78V13.02H-13.02V19.4H-6.64V44.78L-6.25 45.18H0C.006 47.3-.008 49.44 0 51.56 2.12 51.54 4.26 51.57 6.38 51.56V45.18H19L19.34 44.75C19.12 44.37 19.4 43.93 19.4 43.72V32.16H25.11C25.2 32.16 25.52 32.51 25.78 32.42V38.8H32.16C32.15 36.59 32.17 34.37 32.16 32.16L25.78 32.16C25.77 30.04 25.79 27.9 25.78 25.78 23.66 25.78 21.5 25.67 19.39 25.9L19.35 31.73 19 32.16H13.15L12.76 32.56V38.8H0V19.4H-6.25C-6.62 19.17-6.61 18.87-6.66 18.48-6.76 17.59-6.79 14.5-6.64 13.69-6.59 13.39-6.51 13.19-6.25 13.02H-.399L0 12.62V6.64C2.08 6.25 4.29 6.25 6.38 6.64V13.02H12.76C12.76 15.14 12.75 17.28 12.76 19.4 10.63 19.42 8.5 19.39 6.38 19.4V32.02L6.78 32.37C6.88 32.37 6.98 32.16 7.04 32.16H12.76C12.74 27.91 12.77 23.65 12.76 19.4 14.42 19.39 17.28 19.67 18.74 19.4 19.03 19.35 19.23 19.27 19.4 19V13.69C19.4 13.62 19.18 13.53 19.19 13.42L19.53 13.02H25.78C25.79 17.27 25.76 21.53 25.78 25.78 27.9 25.78 30.04 25.78 32.16 25.78 32.16 27.9 32.15 30.04 32.16 32.16L38.54 32.42V25.78H44.78L45.18 26.18V32.16H38.93L38.54 32.56V38.8H32.16C32.16 40.92 32.16 43.06 32.16 45.18 35.78 45.18 40.84 44.76 44.26 45.17 44.65 45.21 44.95 45.2 45.18 45.58V51.56C40.84 51.56 36.49 51.56 32.16 51.56V64.58C38.62 64.61 45.1 64.56 51.56 64.58" />
<path transform="matrix(1,0,0,-1,794.15,333.05)" d="M0 0V-6.38H-6.38L-6.38 .001C-4.26 .005-2.12-.008 0 0" />
<path transform="matrix(1,0,0,-1,658.87,184.75)" d="M0 0C2.12-.008 4.26 .006 6.38 0V-12.62L6.78-13.02H12.76V-19.4C8.51-19.38 4.25-19.43 0-19.4-.008-17.28 .006-15.14 0-13.02H-6.38L-6.35-6.4C-6.28-6.34-5.33-6.64-5.18-6.64H-.399C-.135-6.48-.055-6.28 0-5.98 .262-4.55-.002-1.64 0 0" />
<path transform="matrix(1,0,0,-1,768.37,184.75)" d="M0 0C.014-2.11-.044-4.23 .037-6.34 .315-6.79 3.89-6.67 4.65-6.64 4.99-6.63 6.38-6.09 6.38-6.78V-13.02C4.26-13.04 2.12-13.01 0-13.02-.015-10.91 .037-8.78-.029-6.67L-6.26-6.39C-6.48-4.28-6.38-2.12-6.38 0-4.26 .008-2.12-.008 0 0" />
<path transform="matrix(1,0,0,-1,826.31,300.89)" d="M0 0V-6.38H-6.38C-6.39-4.26-6.39-2.12-6.38 0-4.26 .002-2.12-.002 0 0" />
<path transform="matrix(1,0,0,-1,704.19,320.02)" d="M0 0-.399-.399V-6.25L0-6.64H5.85L6.25-6.25V-.399L5.85 0ZM51.42 25.51H25.38L25.65 19.14H51.03L51.42 19.53ZM89.96 32.16H70.56V12.76H89.96ZM57.8 32.16H51.42V25.91C51.62 25.64 51.66 25.62 51.97 25.62 53.89 25.62 55.88 25.84 57.8 25.78ZM51.16 38.54H38.4V32.16H51.16C51.54 33 51.57 38.27 51.16 38.54M102.72 70.69V77.34C102.52 77.41 102.4 77.07 102.32 77.07H96.34V71.09L96.74 70.69ZM57.8 57.94H64.18V51.69C64.01 51.44 63.52 51.29 63.25 51.29H57.8V44.91H51.42V38.54H70.56V51.29H76.81C77.47 50.24 77.25 48.23 77.22 46.9 77.21 46.48 76.67 44.91 77.34 44.91H83.58V38.54H89.96V51.29H95.94L96.34 51.69V57.94H89.96V64.31H76.94C76.87 64.12 77.2 64 77.2 63.92V58.87C77.2 58.62 76.98 58.2 76.94 57.94H83.58V51.69L83.18 51.29H77.2C76.85 53.3 76.76 55.52 77.14 57.55L76.81 57.94H70.56V70.69H83.18L83.58 71.09V76.94L51.42 77.07V70.69H64.18V64.31H57.8C57.79 62.19 57.82 60.06 57.8 57.94H51.42V51.29H57.41C57.67 51.46 57.75 51.66 57.8 51.96 58.07 53.41 57.79 56.27 57.8 57.94M96.34 83.72H89.96V77.47C90.25 77 90.67 77.1 91.14 77.06 92.06 76.98 94.81 76.94 95.67 77.08 95.9 77.11 96.34 77.27 96.34 77.47ZM51.42 90.09C53.55 90.08 55.68 90.1 57.8 90.09V83.72H64.18V96.47H70.56V102.72L70.96 103.12H77.2C76.86 105.04 76.75 107.16 77.14 109.11L76.81 109.49H70.56V115.87H76.81L77.14 116.26C76.85 117.43 76.87 118.8 76.93 120 76.96 120.65 77.02 121.82 77.34 122.25H83.58V115.87H76.94C77.33 113.89 77.41 111.46 76.94 109.49H83.18C83.56 109.26 83.55 108.97 83.6 108.58 84.2 103.4 83.6 95.57 83.58 90.09 82.47 90.09 77.52 90.31 77.05 89.84 77.18 88.56 77.22 87.26 77.21 85.96 77.21 85.19 76.77 84.21 77.34 83.72H83.58C83.59 85.84 83.57 87.97 83.58 90.09 89.96 90.14 96.34 90.07 102.72 90.09 102.72 87.97 102.71 85.84 102.72 83.72H108.96L109.36 83.32V77.34C111.5 77.19 113.63 76.91 115.74 77.34V90.09H122.12V77.07L115.74 77.07C115.73 74.95 115.75 72.82 115.74 70.69 115.15 70.69 109.36 71.01 109.36 70.69V64.31H102.72V45.31L103.12 44.91H109.36V51.29H115.08C115.17 51.29 115.5 51.56 115.7 51.6 115.79 57.95 115.72 64.33 115.74 70.69H122.12V51.29H115.74V38.54H102.72C102.71 36.41 102.72 34.28 102.72 32.16 100.59 32.15 98.46 32.16 96.34 32.16V19.53L96.74 19.14H102.72C102.73 23.47 102.7 27.82 102.72 32.16 109.18 32.18 115.66 32.14 122.12 32.16V25.51L115.74 25.52C115.73 23.39 115.75 21.26 115.74 19.14 113.62 19.13 111.48 19.14 109.36 19.14 109.35 17.01 109.38 14.88 109.36 12.76 107.15 12.75 104.93 12.76 102.72 12.76 102.71 10.63 102.73 8.5 102.72 6.38 100.59 6.37 98.46 6.38 96.34 6.38 96.33 4.26 96.35 2.12 96.34 0 94.22 .003 92.08-.004 89.96 0 89.95 2.12 89.97 4.26 89.96 6.38H77.2L76.94 .002C81.28-.007 85.62 .007 89.96 0 89.97-2.21 89.96-4.43 89.96-6.64 85.71-6.66 81.45-6.63 77.2-6.64L77.2-19.4H64.18C64.18-17.28 64.18-15.14 64.18-13.02 66.3-13.01 68.44-13.03 70.56-13.02V-6.64H64.18C64.18-8.77 64.18-10.9 64.18-13.02 55.59-13.05 46.99-13 38.4-13.02V0H51.03C51.99-1.89 51.06-4.51 51.42-6.64H57.41C57.78-6.41 57.77-6.11 57.82-5.73 58.22-2.28 57.79 2.73 57.8 6.38 59.92 6.37 62.06 6.39 64.18 6.38 64.2 4.26 64.17 2.12 64.18 0H70.56V6.38C68.44 6.38 66.3 6.37 64.18 6.38 64.17 8.5 64.19 10.63 64.18 12.76H57.8C57.8 10.63 57.81 8.5 57.8 6.38 55.69 6.39 53.56 6.35 51.45 6.4 50.98 6.8 52.01 11.99 51.03 12.76H38.4V6.38C36.28 6.37 34.15 6.39 32.02 6.38 32.02 8.5 32.02 10.63 32.03 12.76L19 12.76C18.99 14.88 19.01 17.01 19 19.14H12.62C12.62 17.01 12.63 14.88 12.62 12.76 10.5 12.75 8.37 12.76 6.25 12.76V6.38C8.37 6.37 10.5 6.39 12.62 6.38 12.63 4.26 12.62 2.12 12.62-.001 14.74-.005 16.88 .008 19 0 18.99-2.21 19.01-4.43 19-6.64H12.62V-13.02H25.25C26.13-14.8 25.42-17.38 25.65-19.4H-13.15V-13.02H-6.78V-6.64H-13.15V-.399L-12.76 0H-6.78V19.14H5.85C6.11 19.3 6.19 19.5 6.25 19.8 6.51 21.23 6.24 24.14 6.25 25.78 7.68 25.82 9.2 25.83 10.64 25.79 11.06 25.78 12.62 25.24 12.62 25.91V32.16H19C19.32 32.16 19 37.95 19 38.54 16.88 38.55 14.75 38.52 12.62 38.54V44.91H19V38.54C21.13 38.52 23.28 38.65 25.4 38.42 25.92 38.06 25.64 33.7 25.43 32.77L25.78 32.16H32.02V38.54H25.65L25.38 44.91H31.63L32.02 45.31V51.29H38.4C38.41 49.17 38.4 47.04 38.4 44.91H44.78V51.29H38.4C38.4 53.5 38.41 55.73 38.4 57.94H51.16L51.42 64.31H44.78V70.69H38.4V83.72H51.42C51.44 85.84 51.41 87.97 51.42 90.09" />
<path transform="matrix(1,0,0,-1,813.55,333.05)" d="M0 0C2.12-.008 4.26 .005 6.38 .001L6.38-6.38H0Z" />
<path transform="matrix(1,0,0,-1,691.03,262.09)" d="M0 0C-.002 2.12 .001 4.26 0 6.38H6.38C6.38 4.26 6.37 2.12 6.38 0 4.26-.004 2.12 .008 0 0" />
<path transform="matrix(1,0,0,-1,768.37,197.77)" d="M0 0C.045-6.37-.034-12.76 .001-19.14L-5.2-19.12C-5.58-18.99-6.17-19.4-6.38-19.4-6.37-17.78-6.12-14.84-6.38-13.42-6.43-13.12-6.51-12.92-6.78-12.76H-13.02C-12.38-10.95-12.92-8.77-12.91-6.92-12.91-6.61-12.89-6.58-12.62-6.38H-6.38V0C-4.26 .012-2.12-.017 0 0" />
<path transform="matrix(1,0,0,-1,671.63,300.89)" d="M0 0C-.017 2.12 .011 4.26 .001 6.38L-6.38 6.64V19.4H6.38C6.8 17.52 6.79 15.33 6.41 13.44L6.78 13.02H25.78V19.4C27.99 19.41 30.21 19.39 32.42 19.4 32.42 19.2 32.01 18.6 32.15 18.22L32.16 13.02H38.8C38.8 10.9 38.8 8.77 38.8 6.64 28.89 6.38 18.85 6.23 8.89 6.37 8.47 6.38 6.9 6.66 6.79 6.63 6.16 6.45 6.64 6.01 6.64 5.98V.399C6.48 .135 6.28 .055 5.98 0 4.52-.267 1.66 .015 0 0 .017-2.12-.012-4.26 0-6.38H6.25L6.6-6.82C6.68-7.06 6.64-7.32 6.66-7.56 6.71-8.21 6.74-11.88 6.61-12.31 6.54-12.51 6.41-12.63 6.25-12.76H.399L0-13.15V-19.14H12.62L13.02-19.53V-25.38L12.62-25.78H-6.38V0C-4.26 .014-2.12-.019 0 0" />
<path transform="matrix(1,0,0,-1,684.65,249.33)" d="M0 0C.001-2.12-.002-4.26 .001-6.38-2.12-6.38-4.25-6.37-6.38-6.38-6.38-4.6-6.24-2.7-6.37-.922-6.4-.566-6.52-.316-6.64-.003-4.43 .009-2.21-.01 0 0" />
<path transform="matrix(1,0,0,-1,819.93,133.19)" d="M0 0H-32.16V-32.02L-31.76-32.42H-.664C-.577-32.42-.261-32.07 0-32.16ZM-38.54 6.38H6.38V-38.8L-38.69-38.55Z" />
<path transform="matrix(1,0,0,-1,620.07,333.05)" d="M0 0H32.02L32.42 .399V31.76L32.02 32.16H0ZM-6.38 38.54 38.76 38.5 38.8-6.38H-6.38Z" />
<path transform="matrix(1,0,0,-1,652.23,133.19)" d="M0 0H-31.76L-32.16-.399V-32.02L-.107-32.18ZM6.64 6.38 6.64-38.8-38.54-38.8V6.38Z" />
<path transform="matrix(1,0,0,-1,0,540)" d="M613.7 277.91H620.07V252.13H613.7Z" />
<path transform="matrix(1,0,0,-1,0,540)" d="M665.25 206.95H684.65V200.57H665.25Z" />
<path transform="matrix(1,0,0,-1,0,540)" d="M826.3 335.85H819.93V342.23H826.3Z" />
<path transform="matrix(1,0,0,-1,0,540)" d="M613.7 361.63H620.07V355.25H613.7Z" />
<path transform="matrix(1,0,0,-1,0,540)" d="M613.7 297.05H620.07V290.67H613.7Z" />
<path transform="matrix(1,0,0,-1,678.28,146.22)" d="M0 0C2.12 .01 4.26-.008 6.38 0V6.64C6.18 6.71 6.06 6.38 5.98 6.38H.93C.768 6.38 .464 6.52 .253 6.52L-.001 7.04C.395 8.97-.748 11.39 .133 13.02H6.38V6.78C6.62 6.42 7 6.44 7.37 6.45 9.1 6.47 10.97 6.75 12.76 6.64L12.76-12.76C10.63-12.75 8.5-12.76 6.38-12.76 6.37-10.63 6.38-8.5 6.38-6.38H0C-.079-4.26 .02-2.1 0 0" />
<path transform="matrix(1,0,0,-1,691.03,171.99)" d="M0 0C-.008-2.12 .006-4.26 0-6.38H-6.38C-6.38-4.26-6.37-2.12-6.38 0-4.26-.012-2.12-.008 0 0" />
<path transform="matrix(1,0,0,-1,678.28,146.22)" d="M0 0C-2.21-.011-4.43 .008-6.64 0V-12.76C-2.31-12.76 2.04-12.75 6.38-12.76 6.39-17.09 6.36-21.44 6.38-25.78 4.17-25.77 1.95-25.79-.265-25.78L-.051-19.56-.412-19.15-6.64-19.4V-25.38L-6.25-25.78H-.399C.178-26.1-.282-26.49-.234-26.94 .176-30.77-.053-34.67 0-38.54H-6.64V-32.16H-13.02V6.25C-12.55 6.64-11.46 6.63-10.78 6.66-7.29 6.8-3.72 6.63-.251 6.51 .04 6.3-.007 .768 0 0" />
<path transform="matrix(1,0,0,-1,691.03,158.97)" d="M0 0C2.12-.008 4.26 .006 6.38 0V-13.02C4.26-13.03 2.12-13.01 0-13.02 .016-8.69 0-4.34 0 0" />
<path transform="matrix(1,0,0,-1,0,540)" d="M639.47 323.09H633.1V329.47H639.47Z" />
<path transform="matrix(1,0,0,-1,658.87,281.49)" d="M0 0V-6.38H-6.38V-.664C-6.38-.571-6.85-.37-6.25 0Z" />
<path transform="matrix(1,0,0,-1,0,540)" d="M691.03 226.35H684.65V232.73H691.03Z" />
<path transform="matrix(1,0,0,-1,737.54,215.31)" d="M0 0V-35.35H-14.09C-14.29-30.97-15.38-26.93-17.86-23.3-18.43-22.46-20.25-20.72-20.41-20.01-20.58-19.26-20.6-15.52-20.46-14.75-20.41-14.45-20.33-14.25-20.07-14.09H-14.09V-7.31L-13.69-6.91H-7.57C-7.48-6.91-7.36-7.34-7.18-7.04L-6.91-6.78C-6.92-6.67-7.18-6.59-7.18-6.51V-.399L-6.78 0Z" />
<path transform="matrix(1,0,0,-1,702.19,250.66)" d="M0 0V20.46C1.06 20.15 2.18 20.29 3.25 20.13 11.87 18.77 19.09 11.47 20.17 2.76 20.26 2.03 20.48 .5 20.07 0Z" />
<path transform="matrix(1,0,0,-1,709.37,215.31)" d="M0 0 6.91-13.95V-19.4C2.94-16.17-1.97-14.06-7.18-14.09V0Z" />
<path transform="matrix(1,0,0,-1,736.21,255.71)" d="M0 0V-6.38H-6.25L-6.59-5.78C-6.22-3.93-6.24-1.82-6.64 0Z" />
<path transform="matrix(1,0,0,-1,781.13,294.51)" d="M0 0C1.24 .382 2.57 .289 3.87 .274 4.68 .264 6.06 .283 6.64-.133V-5.98L6.25-6.38H.399C.14-6.21 0-5.42 0-5.18Z" />
<path transform="matrix(1,0,0,-1,813.55,158.97)" d="M0 0H-19.4V19.4L-.661 19.41 0 19Z" />
<path transform="matrix(1,0,0,-1,645.85,307.27)" d="M0 0V-19.4H-19C-19.69-18.66-19.13-17.54-19.12-16.62-19.1-12.29-19-7.9-19.12-3.58-19.16-2.38-19.89-.915-19 0Z" />
<path transform="matrix(1,0,0,-1,645.85,139.57)" d="M0 0V-19.4H-19.4L-19.32-.39C-19.21-.033-18.5 0-18.2 0Z" />
</g>
<text fill="#ffffff" xml:space="preserve" transform="matrix(1 0 -0 1 0 540)" font-size="60" font-family="AGLBRN+ArialMT"><tspan y="-308.5386" x="50 87.93201 118.862018 148.862 165.54199 197.222 214.118 229.118 261.296 292.86198 308.58198 320.98399 353.32997 384.79997">Pay attention!</tspan><tspan y="-248.5386" x="50 65.306 82.442 91.724 121.724 138.404 154.15402 186.33803 219.69803 236.37804 274.82606 316.52607 356.21006 399.53608">It’s the SCAN </tspan><tspan y="-188.5386" x="50 99.44 139.46 156.14002 205.10002 237.44004 286.32804 318.50605 350.07206 365.70207">ME moment.</tspan></text>
<text fill="#ffffff" xml:space="preserve" transform="matrix(1 0 -0 1 0 540)" font-size="10" font-family="AGLBRN+ArialMT"><tspan y="-25" x="898.6411 904.4411">04</tspan></text>
</g>
</g>
</svg>