<svg xmlns="http://www.w3.org/2000/svg" viewBox="0 0 44 50" width="44" height="50"><defs>
<clipPath id="clip_1">
<path transform="matrix(1,0,0,-1,0,2623.16)" d="M0 2623.16H2938.83V0H0Z" />
</clipPath>
<clipPath id="clip_2">
<path transform="matrix(1,0,0,-1,0,2623.16)" d="M0 2623.16H2938.83V0H0Z" />
</clipPath>
<clipPath id="clip_3">
<path transform="matrix(1,0,0,-1,0,2623.16)" d="M0 2623.16H2938.83V0H0Z" />
</clipPath>
</defs>
<g transform="translate(-1261 -1313)"><g clip-path="url(#clip_1)"><path transform="matrix(1,0,0,-1,1283.87,1321.76)" d="M0 0C7.72 0 14-6.28 14-14 14-24 4.09-30.97-.008-33.43-4.11-30.99-14-24.05-14-14-14-6.28-7.72 0 0 0M0 4C-9.94 4-18-4.06-18-14-18-29.27 0-38 0-38 0-38 18-29.27 18-14 18-4.06 9.94 4 0 4" />
<path transform="matrix(1,0,0,-1,1283.87,1331.76)" d="M0 0C2.21 0 4-1.79 4-4 4-6.21 2.21-8 0-8-2.21-8-4-6.21-4-4-4-1.79-2.21 0 0 0M0 4C-4.42 4-8 .418-8-4-8-8.42-4.42-12 0-12 4.42-12 8-8.42 8-4 8 .418 4.42 4 0 4" />
</g></g></svg>