<svg xmlns="http://www.w3.org/2000/svg" viewBox="0 0 52 38" width="52" height="38"><defs>
<clipPath id="clip_1">
<path transform="matrix(1,0,0,-1,0,2623.16)" d="M0 2623.16H2938.83V0H0Z" />
</clipPath>
<clipPath id="clip_2">
<path transform="matrix(1,0,0,-1,0,2623.16)" d="M0 2623.16H2938.83V0H0Z" />
</clipPath>
<clipPath id="clip_3">
<path transform="matrix(1,0,0,-1,0,2623.16)" d="M0 2623.16H2938.83V0H0Z" />
</clipPath>
</defs>
<g transform="translate(-2089 -1423)"><g clip-path="url(#clip_1)"><path transform="matrix(1,0,0,-1,2129.87,1437.76)" d="M0 0H-4.93C-5.6 0-6.22 .334-6.59 .89L-8.81 4.22C-9.55 5.33-10.8 6-12.14 6H-14V2H-13.07C-12.4 2-11.78 1.67-11.41 1.11L-9.19-2.22C-8.45-3.33-7.2-4-5.86-4H0C2.21-4 4-5.79 4-8V-10C4-11.1 3.1-12 2-12H-2.37C-3.2-9.68-5.4-8-8-8-10.6-8-12.8-9.68-13.63-12H-18.37C-19.2-9.67-21.39-8-24-8-26.61-8-28.81-9.67-29.63-12H-30C-31.1-12-32-11.1-32-10V-8H-36V-10C-36-13.31-33.31-16-30-16H-29.63C-28.8-18.33-26.61-20-24-20-21.39-20-19.19-18.33-18.37-16H-13.63C-12.8-18.32-10.6-20-8-20-5.4-20-3.2-18.32-2.37-16H2C5.31-16 8-13.31 8-10V-8C8-3.59 4.41 0 0 0M-24-16C-25.1-16-26-15.1-26-14-26-12.9-25.1-12-24-12-22.9-12-22-12.9-22-14-22-15.1-22.9-16-24-16M-8-16C-9.1-16-10-15.1-10-14-10-12.9-9.1-12-8-12-6.9-12-6-12.9-6-14-6-15.1-6.9-16-8-16" />
<path transform="matrix(1,0,0,-1,2099.87,1443.76)" d="M0 0H8C10.21 0 12 1.79 12 4V10H10V14C10 15.1 9.1 16 8 16 6.9 16 6 15.1 6 14V10H2V14C2 15.1 1.1 16 0 16-1.1 16-2 15.1-2 14V10H-4V4C-4 1.79-2.21 0 0 0" />
</g></g></svg>