<svg xmlns="http://www.w3.org/2000/svg" viewBox="0 0 96 147" width="96" height="147"><defs>
<clipPath id="clip_1">
<path transform="matrix(1,0,0,-1,0,2623.16)" d="M0 2623.16H2938.83V0H0Z" />
</clipPath>
<clipPath id="clip_2">
<path transform="matrix(1,0,0,-1,0,2623.16)" d="M0 2623.16H2938.83V0H0Z" />
</clipPath>
<clipPath id="clip_3">
<path transform="matrix(1,0,0,-1,0,2623.16)" d="M0 2623.16H2938.83V0H0Z" />
</clipPath>
</defs>
<g transform="translate(-1628 -616)"><g clip-path="url(#clip_2)"><path transform="matrix(1,0,0,-1,1696.67,749.25)" d="M0 0C-.377 7.03 2.13 15.66-4.91 15.91-15.54 16.28-26.1 16.25-36.74 15.93-39.42 15.85-41.31 14.52-41.49 11.87-41.74 7.88-42.04 4.05-41.59-.005ZM-14.41 60.02-.71 52.06C-.222 51.77 .671 51.49 .906 51.76 3.78 55.07-6.83 71.1 1.24 79.37L12.05 90.46C12.67 91.09 13.05 92.1 12.69 92.77 12.48 93.16 11.73 93.53 11.05 93.65L-3.15 96.23C-6.63 96.86-9.79 99.25-11.4 102.42L-19.26 117.94C-19.65 118.72-20.3 119.18-21.04 119.08-21.59 119-22.22 118.53-22.61 117.75L-30.2 102.65C-32.2 98.69-36.13 96.53-40.46 95.8L-52.82 93.68C-53.58 93.55-54.17 93.18-54.34 92.81-54.53 92.37-54.55 91.31-54.05 90.8L-44.03 80.61C-40.94 77.45-38.9 73.19-39.88 68.71L-42.94 54.72C-43.15 53.74-43.2 52.02-42.25 51.57-32.79 54.98-24.65 65.98-14.41 60.02M18.23-9.65-59.78-9.66C-62.71-9.66-64.28-7.17-64.33-4.85-64.38-2.42-62.68-.137-59.88-.086L-51.58 .064C-51.42 10.17-52.8 23.81-38.87 25.4-34.55 25.9-30.33 25.71-25.74 25.83L-25.74 49.41-36.93 43.25C-40.52 41.27-44.9 41.3-48.33 43.65-58.86 50.84-46.6 69.04-50.33 73.11-57.2 80.61-66.91 86.68-63.77 95.97-62.76 98.96-59.74 102.11-55.78 102.89L-39.51 106.1-30.38 123.46C-28.5 127.04-24.73 129.04-21.12 129.13-17.29 129.22-13.47 127.36-11.55 123.75L-2.17 106.06 14.21 102.84C17.97 102.11 20.84 99.15 21.93 96.36 25.42 87.37 16.14 80.84 9.28 73.86 7.67 72.22 7.52 70.77 8.03 68.52 9.82 60.66 14.11 49.51 7.17 44-.203 38.15-8.74 45.89-15.92 49.43L-15.9 25.8C-11.2 25.74-7.04 25.89-2.75 25.39 10.77 23.81 9.86 10.83 9.84 .226 13.27-.905 22.78 2.21 22.66-4.86 22.63-6.97 21.03-9.65 18.23-9.65" />
</g></g></svg>