<svg xmlns="http://www.w3.org/2000/svg" viewBox="0 0 52 38" width="52" height="38"><defs>
<clipPath id="clip_1">
<path transform="matrix(1,0,0,-1,0,2623.16)" d="M0 2623.16H2938.83V0H0Z" />
</clipPath>
<clipPath id="clip_2">
<path transform="matrix(1,0,0,-1,0,2623.16)" d="M0 2623.16H2938.83V0H0Z" />
</clipPath>
<clipPath id="clip_3">
<path transform="matrix(1,0,0,-1,0,2623.16)" d="M0 2623.16H2938.83V0H0Z" />
</clipPath>
</defs>
<g transform="translate(-1881 -1009)"><g clip-path="url(#clip_1)"><path transform="matrix(1,0,0,-1,1897.87,1023.76)" d="M0 0H20L24-20H28L24 0H28V6H32V10H-12V6H-8V0H-4L-8-20H-4ZM-4 6H24V4H-4Z" />
</g></g></svg>