<svg xmlns="http://www.w3.org/2000/svg" viewBox="0 0 44 48" width="44" height="48"><defs>
<clipPath id="clip_1">
<path transform="matrix(1,0,0,-1,0,2623.16)" d="M0 2623.16H2938.83V0H0Z" />
</clipPath>
<clipPath id="clip_2">
<path transform="matrix(1,0,0,-1,0,2623.16)" d="M0 2623.16H2938.83V0H0Z" />
</clipPath>
<clipPath id="clip_3">
<path transform="matrix(1,0,0,-1,0,2623.16)" d="M0 2623.16H2938.83V0H0Z" />
</clipPath>
</defs>
<g transform="translate(-741 -1731)"><g clip-path="url(#clip_1)"><path transform="matrix(1,0,0,-1,763.87,1747.76)" d="M0 0C-6.08 0-11-4.92-11-11-11-17.08-6.08-22 0-22 6.08-22 11-17.08 11-11 11-4.92 6.08 0 0 0M0-18C-3.86-18-7-14.86-7-11-7-7.14-3.86-4 0-4 3.86-4 7-7.14 7-11 7-14.86 3.86-18 0-18" />
<path transform="matrix(1,0,0,-1,753.87,1745.76)" d="M0 0C1.1 0 2 .895 2 2 2 3.1 1.1 4 0 4-1.1 4-2 3.1-2 2-2 .895-1.1 0 0 0" />
<path transform="matrix(1,0,0,-1,773.87,1741.76)" d="M0 0H-14C-15.1 0-16-.896-16-2-16-3.1-15.1-4-14-4H0C1.1-4 2-3.1 2-2 2-.896 1.1 0 0 0" />
<path transform="matrix(1,0,0,-1,777.87,1735.98)" d="M0 0H-28C-30.21 0-32-1.79-32-4V-35.55C-32-37.76-30.21-39.55-28-39.55H0C2.21-39.55 4-37.76 4-35.55V-4C4-1.79 2.21 0 0 0M-28-35.56V-4H0L.004-35.56Z" />
</g></g></svg>