<svg xmlns="http://www.w3.org/2000/svg" viewBox="0 0 128 129" width="128" height="129"><defs>
<clipPath id="clip_1">
<path transform="matrix(1,0,0,-1,0,2623.16)" d="M0 2623.16H2938.83V0H0Z" />
</clipPath>
<clipPath id="clip_2">
<path transform="matrix(1,0,0,-1,0,2623.16)" d="M0 2623.16H2938.83V0H0Z" />
</clipPath>
<clipPath id="clip_3">
<path transform="matrix(1,0,0,-1,0,2623.16)" d="M0 2623.16H2938.83V0H0Z" />
</clipPath>
</defs>
<g transform="translate(-1859 -354)"><g clip-path="url(#clip_2)"><path transform="matrix(1,0,0,-1,0,2623.16)" d="M1891.79 2199.96H1877.82V2152.43H1891.79ZM1947.61 2152.49 1947.57 2213C1947.28 2215.72 1947.28 2218.18 1945.74 2220.33 1943.61 2221.86 1940.89 2222.19 1938.19 2222.19L1909.57 2222.19C1906.87 2222.19 1904.16 2221.84 1902.02 2220.33 1900.48 2218.18 1900.49 2215.72 1900.18 2213L1900.18 2152.46ZM1956.01 2152.5 1969.94 2152.47 1969.9 2231.82C1969.9 2235.5 1968.35 2237.75 1965.22 2239.35L1933.76 2255.4 1933.68 2230.79C1937.65 2230.54 1941.22 2230.67 1944.82 2229.78 1954.07 2227.74 1955.94 2220.03 1955.95 2211.44ZM1869.49 2200.23C1869.52 2212.07 1884.75 2207.2 1891.77 2208.49 1891.68 2217.76 1892.39 2227.25 1902.48 2229.7 1905.69 2230.48 1908.96 2230.66 1912.37 2230.69L1925.16 2230.79 1925.43 2256.48C1925.46 2259.24 1926.76 2261.78 1928.67 2263.04 1930.9 2264.52 1934.01 2264.6 1936.61 2263.27L1969.42 2246.58C1975.05 2243.71 1978.22 2238.86 1978.23 2232.36L1978.37 2152.56C1981.53 2152.7 1983.54 2151.3 1983.84 2148.86 1984.09 2146.76 1982.56 2144.09 1979.79 2144.09L1868.47 2144.05C1865.67 2144.05 1863.87 2146.07 1863.9 2148.42 1863.92 2151.04 1866.06 2152.76 1869.38 2152.55Z" />
<path transform="matrix(1,0,0,-1,1929.83,423.23)" d="M0 0-11.65 .062C-14.13 .075-15.8 2.29-15.7 4.45-15.58 6.72-13.72 8.41-11.2 8.41L-.702 8.41C1.64 8.41 3.43 6.93 3.75 4.89 4.09 2.65 2.65 .518 0 0" />
<path transform="matrix(1,0,0,-1,1929.83,439.98)" d="M0 0-11.65 .062C-14.13 .075-15.8 2.29-15.7 4.45-15.58 6.72-13.72 8.41-11.2 8.41H-.702C1.64 8.41 3.43 6.93 3.75 4.89 4.09 2.65 2.65 .518 0 0" />
<path transform="matrix(1,0,0,-1,1929.83,456.72)" d="M0 0-11.65 .062C-14.13 .075-15.8 2.29-15.7 4.45-15.58 6.72-13.72 8.41-11.2 8.41H-.702C1.64 8.41 3.43 6.93 3.75 4.89 4.09 2.65 2.65 .518 0 0" />
</g></g></svg>