<svg xmlns="http://www.w3.org/2000/svg" viewBox="0 0 52 52" width="52" height="52"><defs>
<clipPath id="clip_1">
<path transform="matrix(1,0,0,-1,0,2623.16)" d="M0 2623.16H2938.83V0H0Z" />
</clipPath>
<clipPath id="clip_2">
<path transform="matrix(1,0,0,-1,0,2623.16)" d="M0 2623.16H2938.83V0H0Z" />
</clipPath>
<clipPath id="clip_3">
<path transform="matrix(1,0,0,-1,0,2623.16)" d="M0 2623.16H2938.83V0H0Z" />
</clipPath>
</defs>
<g transform="translate(-611 -770)"><g clip-path="url(#clip_1)"><path transform="matrix(1,0,0,-1,635.88,808.72)" d="M0 0C-5.51 0-10 4.49-10 10-10 15.51-5.51 20 0 20 5.51 20 10 15.51 10 10 10 4.49 5.51 0 0 0M0 24C-7.72 24-14 17.72-14 10-14 2.28-7.72-4 0-4 7.72-4 14 2.28 14 10 14 17.72 7.72 24 0 24" />
<path transform="matrix(1,0,0,-1,656.88,781.72)" d="M0 0-8-1V3L0 2ZM-5-17C-5-25.82-12.18-33-21-33-29.82-33-37-25.82-37-17-37-8.18-29.82-1-21-1H-11V-5L3-2.64V4.64L-11 7V3H-21C-32.03 3-41-5.97-41-17-41-28.03-32.03-37-21-37-9.97-37-1-28.03-1-17Z" />
<path transform="matrix(1,0,0,-1,635.88,802.72)" d="M0 0C-2.21 0-4 1.79-4 4-4 6.21-2.21 8 0 8 2.21 8 4 6.21 4 4 4 1.79 2.21 0 0 0M0 12C-4.41 12-8 8.41-8 4-8-.412-4.41-4 0-4 4.41-4 8-.412 8 4 8 8.41 4.41 12 0 12" />
</g></g></svg>