<svg xmlns="http://www.w3.org/2000/svg" viewBox="0 0 48 52" width="48" height="52"><defs>
<clipPath id="clip_1">
<path transform="matrix(1,0,0,-1,0,2623.16)" d="M0 2623.16H2938.83V0H0Z" />
</clipPath>
<clipPath id="clip_2">
<path transform="matrix(1,0,0,-1,0,2623.16)" d="M0 2623.16H2938.83V0H0Z" />
</clipPath>
<clipPath id="clip_3">
<path transform="matrix(1,0,0,-1,0,2623.16)" d="M0 2623.16H2938.83V0H0Z" />
</clipPath>
</defs>
<g transform="translate(-1467 -1313)"><g clip-path="url(#clip_1)"><path transform="matrix(1,0,0,-1,1489.87,1335.76)" d="M0 0C1.66 0 3 1.34 3 3 3 4.66 1.66 6 0 6-1.66 6-3 4.66-3 3-3 1.34-1.66 0 0 0" />
<path transform="matrix(1,0,0,-1,1487.87,1337.76)" d="M0 0V-6C-3.31-6-6-8.69-6-12-6-15.31-3.31-18 0-18 3.31-18 6-15.31 6-12 6-11.3 5.86-10.63 5.63-10H8V-16H12V-8L10-6H8L4 0ZM2-12C2-13.1 1.1-14 0-14-1.1-14-2-13.1-2-12-2-10.9-1.1-10 0-10 1.1-10 2-10.9 2-12" />
<path transform="matrix(1,0,0,-1,1511.87,1327.76)" d="M0 0V4H-18V10H-22V4H-40V0H-38V-30H-40V-34H0V-30H-2V0ZM-6-30H-34V0H-6Z" />
</g></g></svg>