<svg xmlns="http://www.w3.org/2000/svg" viewBox="0 0 50 46" width="50" height="46"><defs>
<clipPath id="clip_1">
<path transform="matrix(1,0,0,-1,0,2623.16)" d="M0 2623.16H2938.83V0H0Z" />
</clipPath>
<clipPath id="clip_2">
<path transform="matrix(1,0,0,-1,0,2623.16)" d="M0 2623.16H2938.83V0H0Z" />
</clipPath>
<clipPath id="clip_3">
<path transform="matrix(1,0,0,-1,0,2623.16)" d="M0 2623.16H2938.83V0H0Z" />
</clipPath>
</defs>
<g transform="translate(-1674 -1421)"><g clip-path="url(#clip_1)"><path transform="matrix(1,0,0,-1,1700.87,1453.76)" d="M0 0H5.17L-1.41-6.59 1.41-9.41 8-2.83V-8H12V4H0Z" />
<path transform="matrix(1,0,0,-1,1711.87,1435.76)" d="M0 0H-9.83L-15.83-6H-18L-20 0H-28V-18.17L-33.03-23.2-30.2-26.03-8.17-4H0C2.21-4 4-5.79 4-8H8C8-3.59 4.41 0 0 0" />
<path transform="matrix(1,0,0,-1,1687.87,1433.76)" d="M0 0C2.21 0 4 1.79 4 4 4 6.21 2.21 8 0 8-2.21 8-4 6.21-4 4-4 1.79-2.21 0 0 0" />
</g></g></svg>