<svg xmlns="http://www.w3.org/2000/svg" viewBox="0 0 52 52" width="52" height="52"><defs>
<clipPath id="clip_1">
<path transform="matrix(1,0,0,-1,0,2623.16)" d="M0 2623.16H2938.83V0H0Z" />
</clipPath>
<clipPath id="clip_2">
<path transform="matrix(1,0,0,-1,0,2623.16)" d="M0 2623.16H2938.83V0H0Z" />
</clipPath>
<clipPath id="clip_3">
<path transform="matrix(1,0,0,-1,0,2623.16)" d="M0 2623.16H2938.83V0H0Z" />
</clipPath>
</defs>
<g transform="translate(-1049 -1417)"><g clip-path="url(#clip_1)"><path transform="matrix(1,0,0,-1,1073.87,1431.76)" d="M0 0C-7.72 0-14-6.28-14-14-14-21.72-7.72-28 0-28 7.72-28 14-21.72 14-14 14-6.28 7.72 0 0 0M0-24C-5.51-24-10-19.51-10-14-10-8.49-5.51-4 0-4 5.51-4 10-8.49 10-14 10-19.51 5.51-24 0-24" />
<path transform="matrix(1,0,0,-1,1089.87,1445.76)" d="M0 0C0-8.82-7.18-16-16-16-24.82-16-32-8.82-32 0-32 8.82-24.82 16-16 16H-6V12L8 14.36V21.64L-6 24V20H-16C-27.03 20-36 11.03-36 .002-36-11.03-27.03-20-16-20-4.97-20 4-11.03 4 .002ZM5 17-3 16V20L5 19Z" />
<path transform="matrix(1,0,0,-1,1073.87,1437.76)" d="M0 0C-4.41 0-8-3.59-8-8-8-12.41-4.41-16 0-16 4.41-16 8-12.41 8-8 8-3.59 4.41 0 0 0M0-12C-2.21-12-4-10.21-4-8-4-5.79-2.21-4 0-4 2.21-4 4-5.79 4-8 4-10.21 2.21-12 0-12" />
</g></g></svg>