<svg xmlns="http://www.w3.org/2000/svg" viewBox="0 0 49 52" width="49" height="52"><defs>
<clipPath id="clip_1">
<path transform="matrix(1,0,0,-1,0,2623.16)" d="M0 2623.16H2938.83V0H0Z" />
</clipPath>
<clipPath id="clip_2">
<path transform="matrix(1,0,0,-1,0,2623.16)" d="M0 2623.16H2938.83V0H0Z" />
</clipPath>
<clipPath id="clip_3">
<path transform="matrix(1,0,0,-1,0,2623.16)" d="M0 2623.16H2938.83V0H0Z" />
</clipPath>
</defs>
<g transform="translate(-1468 -2145)"><g clip-path="url(#clip_1)"><path transform="matrix(1,0,0,-1,1505.08,2183.76)" d="M0 0-17.9 34H-22.42L-10.7 11.74C-11.18 11.89-11.68 12-12.21 12H-15.23C-15.37 17.87-18.38 20-21.21 20-24.04 20-27.04 17.87-27.18 12L-27.19 11.98V12H-27.21C-29.97 12-32.21 9.76-32.21 7-32.21 4.96-30.97 3.21-29.21 2.43V-6C-29.21-8.21-27.41-10-25.21-10H-13.21C-11-10-9.21-8.21-9.21-6V-4H8.79V0ZM-21.21 16C-19.83 16-19.28 14-19.22 12H-23.19C-23.13 14-22.59 16-21.21 16ZM-12.21 6H-13.21V-6H-25.21V6H-27.21C-27.76 6-28.21 6.45-28.21 7-28.21 7.55-27.76 8-27.21 8H-19.21V2C-19.21 .896-18.31 0-17.21 0-16.1 0-15.21 .896-15.21 2V8H-12.21C-11.66 8-11.21 7.55-11.21 7-11.21 6.45-11.66 6-12.21 6M-9.21 0V3.03C-8.38 3.66-7.76 4.54-7.45 5.56L-4.52 0Z" />
</g></g></svg>