<svg xmlns="http://www.w3.org/2000/svg" viewBox="0 0 52 44" width="52" height="44"><defs>
<clipPath id="clip_1">
<path transform="matrix(1,0,0,-1,0,2623.16)" d="M0 2623.16H2938.83V0H0Z" />
</clipPath>
<clipPath id="clip_2">
<path transform="matrix(1,0,0,-1,0,2623.16)" d="M0 2623.16H2938.83V0H0Z" />
</clipPath>
<clipPath id="clip_3">
<path transform="matrix(1,0,0,-1,0,2623.16)" d="M0 2623.16H2938.83V0H0Z" />
</clipPath>
</defs>
<g transform="translate(-803 -582)"><g clip-path="url(#clip_1)"><path transform="matrix(1,0,0,-1,827.88,617.52)" d="M0 0-9.28 8.8H-16V16.8H-9.28L0 25.6ZM-10.72 20.8H-20V4.8H-10.72L0-5.2H4V30.8H0Z" />
<path transform="matrix(1,0,0,-1,835.53,599.07)" d="M0 0C1.51-1.51 2.34-3.52 2.34-5.66 2.34-7.79 1.51-9.8 0-11.31L2.83-14.14C5.1-11.87 6.34-8.86 6.34-5.66 6.34-2.45 5.1 .562 2.83 2.83Z" />
<path transform="matrix(1,0,0,-1,846.32,591.31)" d="M0 0-2.83-2.83C3.01-8.67 3.01-18.16-2.83-24L0-26.83C7.4-19.43 7.4-7.4 0 0" />
</g></g></svg>