<svg xmlns="http://www.w3.org/2000/svg" viewBox="0 0 48 44" width="48" height="44"><defs>
<clipPath id="clip_1">
<path transform="matrix(1,0,0,-1,0,2623.16)" d="M0 2623.16H2938.83V0H0Z" />
</clipPath>
<clipPath id="clip_2">
<path transform="matrix(1,0,0,-1,0,2623.16)" d="M0 2623.16H2938.83V0H0Z" />
</clipPath>
<clipPath id="clip_3">
<path transform="matrix(1,0,0,-1,0,2623.16)" d="M0 2623.16H2938.83V0H0Z" />
</clipPath>
</defs>
<g transform="translate(-1883 -1837)"><g clip-path="url(#clip_1)"><path transform="matrix(1,0,0,-1,1895.87,1865.76)" d="M0 0C2.21 0 4-1.79 4-4 4-6.21 2.21-8 0-8-2.21-8-4-6.21-4-4-4-1.79-2.21 0 0 0M0 4C-4.42 4-8 .418-8-4-8-8.42-4.42-12 0-12 4.42-12 8-8.42 8-4 8 .418 4.42 4 0 4" />
<path transform="matrix(1,0,0,-1,1919.87,1865.76)" d="M0 0C2.21 0 4-1.79 4-4 4-6.21 2.21-8 0-8-2.21-8-4-6.21-4-4-4-1.79-2.21 0 0 0M0 4C-4.42 4-8 .418-8-4-8-8.42-4.42-12 0-12 4.42-12 8-8.42 8-4 8 .418 4.42 4 0 4" />
<path transform="matrix(1,0,0,-1,1917.87,1841.76)" d="M0 0C2.21 0 4-1.79 4-4 4-6.21 2.21-8 0-8-2.21-8-4-6.21-4-4-4-1.79-2.21 0 0 0" />
<path transform="matrix(1,0,0,-1,1921.87,1855.76)" d="M0 0H-2L-8.2 6.2C-9.35 7.35-10.92 8-12.55 8-13.5 8-14.44 7.78-15.3 7.35L-24.04 2.98C-25.24 2.38-26 1.15-26-.196-26-1.33-25.46-2.4-24.54-3.06L-16.82-8.7C-16.31-9.08-16-9.68-16-10.32V-16C-16-17.11-15.1-18-14-18-12.9-18-12-17.11-12-16V-9.09C-12-7.81-12.61-6.61-13.64-5.86L-18.55-2.28-10.02 1.99-4.58-3.42C-4.21-3.79-3.7-4-3.17-4H.002C1.11-4 2-3.11 2-2 2-.898 1.11-.002 .002-.002Z" />
</g></g></svg>