<svg xmlns="http://www.w3.org/2000/svg" viewBox="0 0 42 45" width="42" height="45"><defs>
<clipPath id="clip_1">
<path transform="matrix(1,0,0,-1,0,2623.16)" d="M0 2623.16H2938.83V0H0Z" />
</clipPath>
<clipPath id="clip_2">
<path transform="matrix(1,0,0,-1,0,2623.16)" d="M0 2623.16H2938.83V0H0Z" />
</clipPath>
<clipPath id="clip_3">
<path transform="matrix(1,0,0,-1,0,2623.16)" d="M0 2623.16H2938.83V0H0Z" />
</clipPath>
</defs>
<g transform="translate(-429 -1837)"><g clip-path="url(#clip_1)"><path transform="matrix(1,0,0,-1,457.88,1860.76)" d="M0 0C-1.1 0-2-.896-2-2V-11.8L-5.35-8.67C-6.11-7.95-7.3-7.97-8.04-8.71-8.81-9.48-8.79-10.74-7.99-11.48L-2.83-16.23C-2.29-16.72-1.6-17-.868-17 .716-17 2-15.71 2-14.13V-2C2-.894 1.11 .002 .002 .002ZM8.58 18.42C7.8 19.2 6.53 19.2 5.75 18.42L2 14.67V16.13C2 17.71 .716 19-.87 19-1.6 19-2.3 18.72-2.83 18.23L-12.73 9H-16C-20.42 9-24 5.42-24 .998-24-2.34-21.96-5.19-19.06-6.39L-23.42-10.75C-24.2-11.53-24.2-12.8-23.42-13.59-22.64-14.37-21.37-14.37-20.59-13.59L8.58 15.58C9.36 16.36 9.36 17.63 8.58 18.41ZM-2 10.67-15.67-3H-16C-18.21-3-20-1.21-20 1-20 3.21-18.21 5-16 5H-11.28L-2 13.8Z" />
</g></g></svg>