<svg xmlns="http://www.w3.org/2000/svg" viewBox="0 0 52 42" width="52" height="42"><defs>
<clipPath id="clip_1">
<path transform="matrix(1,0,0,-1,0,2623.16)" d="M0 2623.16H2938.83V0H0Z" />
</clipPath>
<clipPath id="clip_2">
<path transform="matrix(1,0,0,-1,0,2623.16)" d="M0 2623.16H2938.83V0H0Z" />
</clipPath>
<clipPath id="clip_3">
<path transform="matrix(1,0,0,-1,0,2623.16)" d="M0 2623.16H2938.83V0H0Z" />
</clipPath>
</defs>
<g transform="translate(-1153 -2149)"><g clip-path="url(#clip_1)"><path transform="matrix(1,0,0,-1,1187.29,2174.93)" d="M0 0C-.782 .782-2.05 .782-2.83 0L-9.72-6.89C-9.87-7.05-10.13-7.05-10.28-6.89L-13.17-4C-13.96-3.22-15.22-3.22-16-4-16.78-4.78-16.78-6.05-16-6.83L-11.42-11.41C-10.63-12.2-9.37-12.2-8.59-11.41L-.002-2.83C.78-2.05 .78-.78-.002 0Z" />
<path transform="matrix(1,0,0,-1,1166.28,2181.55)" d="M0 0C-2.72 .75-4.67 3.37-4.38 6.39-4.12 8.95-2.13 10.99 .358 11.63L1.64 11.96 1.6 13.79C1.6 19.63 6.64 24.32 12.6 23.74 17.79 23.23 21.6 18.56 21.6 13.34V11.79H25.36C28.26 11.79 30.93 9.83 31.48 6.98 32.22 3.15 29.3-.214 25.6-.214H23.6C22.49-.214 21.6-1.11 21.6-2.21 21.6-3.32 22.49-4.21 23.6-4.21H25.6C32.2-4.21 37.34 2.23 35.04 9.16 33.71 13.17 29.82 15.79 25.6 15.79H25.45C24.48 22.56 18.64 27.79 11.6 27.79 4.27 27.79-1.77 22.12-2.36 14.94-5.98 13.39-8.4 9.81-8.4 5.79-8.4 1.13-5.21-2.79-.902-3.9 .36-4.22 1.6-3.26 1.6-1.95 1.6-1.11 1.01-.276 .002 0Z" />
</g></g></svg>