<svg xmlns="http://www.w3.org/2000/svg" viewBox="0 0 52 42" width="52" height="42"><defs>
<clipPath id="clip_1">
<path transform="matrix(1,0,0,-1,0,2623.16)" d="M0 2623.16H2938.83V0H0Z" />
</clipPath>
<clipPath id="clip_2">
<path transform="matrix(1,0,0,-1,0,2623.16)" d="M0 2623.16H2938.83V0H0Z" />
</clipPath>
<clipPath id="clip_3">
<path transform="matrix(1,0,0,-1,0,2623.16)" d="M0 2623.16H2938.83V0H0Z" />
</clipPath>
</defs>
<g transform="translate(-945 -2149)"><g clip-path="url(#clip_1)"><path transform="matrix(1,0,0,-1,971.29,2171.18)" d="M0 0C-.78 .782-2.05 .782-2.83 0L-9.91-7.09C-10.74-7.91-10.74-9.26-9.91-10.09-9.09-10.91-7.74-10.91-6.91-10.09L-3.41-6.59V-14.59C-3.41-15.69-2.52-16.59-1.41-16.59-.31-16.59 .586-15.69 .586-14.59V-6.59L4.09-10.09C4.91-10.91 6.26-10.91 7.09-10.09 7.91-9.26 7.91-7.91 7.09-7.09Z" />
<path transform="matrix(1,0,0,-1,993.32,2172.39)" d="M0 0C-1.33 4.01-5.22 6.62-9.44 6.62H-9.59C-10.56 13.4-16.4 18.62-23.44 18.62-30.77 18.62-36.81 12.96-37.4 5.78-41.02 4.23-43.44 .652-43.44-3.38-43.44-8.03-40.25-11.95-35.94-13.06-34.68-13.39-33.44-12.42-33.44-11.12-33.44-10.27-34.03-9.44-35.04-9.16-37.76-8.41-39.71-5.79-39.41-2.77-39.16-.216-37.17 1.83-34.68 2.47L-33.4 2.8-33.44 4.62C-33.44 10.47-28.4 15.16-22.44 14.58-17.25 14.07-13.44 9.4-13.44 4.18V2.62H-9.68C-6.78 2.62-4.11 .668-3.56-2.18-2.81-6.01-5.74-9.38-9.44-9.38H-11.44C-12.55-9.38-13.44-10.27-13.44-11.38-13.44-12.48-12.55-13.38-11.44-13.38H-9.44C-2.83-13.38 2.3-6.93 0 0" />
</g></g></svg>