<svg xmlns="http://www.w3.org/2000/svg" viewBox="0 0 52 46" width="52" height="46"><defs>
<clipPath id="clip_1">
<path transform="matrix(1,0,0,-1,0,2623.16)" d="M0 2623.16H2938.83V0H0Z" />
</clipPath>
<clipPath id="clip_2">
<path transform="matrix(1,0,0,-1,0,2623.16)" d="M0 2623.16H2938.83V0H0Z" />
</clipPath>
<clipPath id="clip_3">
<path transform="matrix(1,0,0,-1,0,2623.16)" d="M0 2623.16H2938.83V0H0Z" />
</clipPath>
</defs>
<g transform="translate(-945 -1004)"><g clip-path="url(#clip_1)"><path transform="matrix(1,0,0,-1,987.04,1008.93)" d="M0 0-2.83-2.83H-37.17V-26.83L-33.17-30.83H-30.83L-35-35-32.17-37.83 2.83-2.83ZM-7.17-7.17-23.21-23.21C-23.83-22.99-24.47-22.83-25.17-22.83-27.77-22.83-29.97-24.51-30.8-26.83H-31.51L-33.17-25.18V-6.83H-7.17Z" />
<path transform="matrix(1,0,0,-1,987.87,1019.76)" d="M0 0H-2V-4L2-8V-16H-.368C-1.2-13.68-3.4-12-6-12-8.6-12-10.8-13.68-11.63-16H-16V-20H-11.63C-10.8-22.32-8.6-24-6-24-3.4-24-1.2-22.32-.368-20H4L6-18V-6ZM-6-20C-7.1-20-8-19.1-8-18-8-16.9-7.1-16-6-16-4.9-16-4-16.9-4-18-4-19.1-4.9-20-6-20" />
</g></g></svg>