<svg xmlns="http://www.w3.org/2000/svg" viewBox="0 0 36 52" width="36" height="52"><defs>
<clipPath id="clip_1">
<path transform="matrix(1,0,0,-1,0,2623.16)" d="M0 2623.16H2938.83V0H0Z" />
</clipPath>
<clipPath id="clip_2">
<path transform="matrix(1,0,0,-1,0,2623.16)" d="M0 2623.16H2938.83V0H0Z" />
</clipPath>
<clipPath id="clip_3">
<path transform="matrix(1,0,0,-1,0,2623.16)" d="M0 2623.16H2938.83V0H0Z" />
</clipPath>
</defs>
<g transform="translate(-2617 -1729)"><g clip-path="url(#clip_1)"><path transform="matrix(1,0,0,-1,2649.87,1741.76)" d="M0 0V4C0 5.1-.896 6-2 6H-4C-4 7.1-4.9 8-6 8H-22C-25.31 8-28 5.31-28 2V0C-28-2.21-26.21-4-24-4V-9.53L-27.37-16.26C-27.78-17.09-28-18.02-28-18.94V-30C-28-33.31-25.31-36-22-36H-6C-2.69-36 0-33.31 0-30V-20.14C0-18.13-.998-16.26-2.67-15.15L-12-8.93V-4H-7.72C-7.03-6.63-5.06-8.74-2.52-9.59-1.27-10.01 0-9.01 0-7.7 0-6.87-.474-6.06-1.26-5.8-2.85-5.27-4-3.76-4-2H-2C-.896-2 0-1.1 0 0M-16-8H-20V-4H-16ZM-4-20.14V-30C-4-31.1-4.9-32-6-32H-22C-23.1-32-24-31.1-24-30V-18.94C-24-18.64-23.93-18.33-23.79-18.05L-20.76-12H-14.61L-4.89-18.48C-4.33-18.85-4-19.47-4-20.14ZM-8 0H-23C-23.55 0-24 .448-24 1V2C-24 3.1-23.1 4-22 4H-8Z" />
</g></g></svg>