<svg xmlns="http://www.w3.org/2000/svg" viewBox="0 0 52 40" width="52" height="40"><defs>
<clipPath id="clip_1">
<path transform="matrix(1,0,0,-1,0,2623.16)" d="M0 2623.16H2938.83V0H0Z" />
</clipPath>
<clipPath id="clip_2">
<path transform="matrix(1,0,0,-1,0,2623.16)" d="M0 2623.16H2938.83V0H0Z" />
</clipPath>
<clipPath id="clip_3">
<path transform="matrix(1,0,0,-1,0,2623.16)" d="M0 2623.16H2938.83V0H0Z" />
</clipPath>
</defs>
<g transform="translate(-1985 -1423)"><g clip-path="url(#clip_1)"><path transform="matrix(1,0,0,-1,2001.87,1441.76)" d="M0 0H-2L-4-6V-8H0V-12H2L4-6V-4H0Z" />
<path transform="matrix(1,0,0,-1,2031.87,1437.76)" d="M0 0V6H-4V0H-8V6H-12V0H-14V-10H-8V-18H-18V10H-42V-22H-4V-10H2V0ZM-22 2H-38V6H-22ZM-38-2H-22V-18H-38Z" />
</g></g></svg>