<svg xmlns="http://www.w3.org/2000/svg" viewBox="0 0 32 44" width="32" height="44"><defs>
<clipPath id="clip_1">
<path transform="matrix(1,0,0,-1,0,2623.16)" d="M0 2623.16H2938.83V0H0Z" />
</clipPath>
<clipPath id="clip_2">
<path transform="matrix(1,0,0,-1,0,2623.16)" d="M0 2623.16H2938.83V0H0Z" />
</clipPath>
<clipPath id="clip_3">
<path transform="matrix(1,0,0,-1,0,2623.16)" d="M0 2623.16H2938.83V0H0Z" />
</clipPath>
</defs>
<g transform="translate(-435 -1733)"><g clip-path="url(#clip_1)"><path transform="matrix(1,0,0,-1,443.87,1773.76)" d="M0 0C1.1 0 2 .895 2 2 2 3.1 1.1 4 0 4-1.1 4-2 3.1-2 2-2 .895-1.1 0 0 0" />
<path transform="matrix(1,0,0,-1,459.87,1773.76)" d="M0 0C1.1 0 2 .895 2 2 2 3.1 1.1 4 0 4-1.1 4-2 3.1-2 2-2 .895-1.1 0 0 0" />
<path transform="matrix(1,0,0,-1,449.87,1761.58)" d="M0 0V-8.18H-6V-12.18H10V-8.18H4V0" />
<path transform="matrix(1,0,0,-1,462.86,1740.73)" d="M0 0C-.442 1.76-2.05 2.96-3.86 2.96H-18.12C-19.93 2.96-21.54 1.76-21.98 0-22.48-2-22.99-5.01-22.99-9.04-22.99-14.97-18.66-19.9-12.99-20.86H-8.99C-3.33-19.9 1.01-14.97 1.01-9.04 1.01-5.01 .502-2 0 0M-10.99-17.04C-14.99-17.04-16.81-14.95-17.92-13.04H-4.07C-5.18-14.95-6.99-17.04-10.99-17.04M-18.99-9.04C-18.99-5.92-18.66-3.51-18.29-1.81-18.2-1.36-17.79-1.04-17.32-1.04H-4.66C-4.2-1.04-3.79-1.35-3.69-1.81-3.33-3.51-2.99-5.92-2.99-9.04Z" />
</g></g></svg>