<svg xmlns="http://www.w3.org/2000/svg" viewBox="0 0 52 42" width="52" height="42"><defs>
<clipPath id="clip_1">
<path transform="matrix(1,0,0,-1,0,2623.16)" d="M0 2623.16H2938.83V0H0Z" />
</clipPath>
<clipPath id="clip_2">
<path transform="matrix(1,0,0,-1,0,2623.16)" d="M0 2623.16H2938.83V0H0Z" />
</clipPath>
<clipPath id="clip_3">
<path transform="matrix(1,0,0,-1,0,2623.16)" d="M0 2623.16H2938.83V0H0Z" />
</clipPath>
</defs>
<g transform="translate(-2713 -1837)"><g clip-path="url(#clip_1)"><path transform="matrix(1,0,0,-1,2757.87,1853.76)" d="M0 0H-1.07C-1.82 .834-3.2 2.2-5.18 3.57-4.85 3.82-4.45 4-4 4V8C-5.94 8-7.65 7.06-8.75 5.62-11.61 6.97-15.18 8-19.48 8-27.54 8-32.65 5.28-34.48 4.1-35.35 4.32-36 5.07-36 6-36 7.1-35.1 8-34 8-32.9 8-32 8.9-32 10-32 11.1-32.9 12-34 12-37.31 12-40 9.31-40 6-40 3.4-38.32 1.2-36 .368V-20C-36-21.1-35.1-22-34-22H-30C-29.14-22-28.38-21.45-28.1-20.63L-26.82-16.78C-25.29-17.46-23.34-18-21-18-19.04-18-17.14-17.6-15.4-16.86V-16.88L-13.86-20.74C-13.55-21.5-12.82-22-12-22H-8C-6.9-22-6-21.1-6-20V-12H-3.42C-2.18-12-.952-11.71 .16-11.15L1.79-10.34C3.14-9.66 4-8.28 4-6.76V-4C4-1.79 2.2 .002-.004 .002ZM0-6.15C0-6.52-.214-6.87-.552-7.04L-1.63-7.58C-2.18-7.86-2.8-8-3.42-8H-10V-18H-10.65L-12.5-13.37-12.54-13.37C-12.59-13.24-12.62-13.11-12.69-12.99-13.3-12.06-14.53-11.8-15.46-12.4-17.09-13.46-18.96-14-21-14-23.7-14-25.65-13.03-26.81-12.22-27.72-11.59-28.97-11.81-29.6-12.72-29.71-12.88-29.76-13.05-29.82-13.23L-29.85-13.22-31.45-18H-32V-.262C-32 .506-31.57 1.2-30.88 1.54-28.78 2.59-24.93 4-19.49 4-8.16 4-3.01-4-3.01-4H-.006V-6.14Z" />
</g></g></svg>