<svg xmlns="http://www.w3.org/2000/svg" viewBox="0 0 44 44" width="44" height="44"><defs>
<clipPath id="clip_1">
<path transform="matrix(1,0,0,-1,0,2623.16)" d="M0 2623.16H2938.83V0H0Z" />
</clipPath>
<clipPath id="clip_2">
<path transform="matrix(1,0,0,-1,0,2623.16)" d="M0 2623.16H2938.83V0H0Z" />
</clipPath>
<clipPath id="clip_3">
<path transform="matrix(1,0,0,-1,0,2623.16)" d="M0 2623.16H2938.83V0H0Z" />
</clipPath>
</defs>
<g transform="translate(-533 -1942)"><g clip-path="url(#clip_1)"><path transform="matrix(1,0,0,-1,561.63,1948)" d="M0 0-22-22C-23.13-23.13-23.76-24.65-23.76-26.24V-29.76C-23.76-31.97-21.97-33.76-19.76-33.76H-16.24C-14.65-33.76-13.13-33.12-12-32L10-10C12.34-7.65 12.34-3.86 10-1.51L8.48 .002C6.14 2.35 2.34 2.35-.002 .002ZM-16.66-29.76H-18.76C-19.31-29.76-19.76-29.31-19.76-28.76V-26.66C-19.76-25.86-19.44-25.1-18.88-24.54L-.524-6.18 3.82-10.52-14.54-28.88C-15.1-29.44-15.86-29.76-16.66-29.76" />
</g></g></svg>