<svg xmlns="http://www.w3.org/2000/svg" viewBox="0 0 43 44" width="43" height="44"><defs>
<clipPath id="clip_1">
<path transform="matrix(1,0,0,-1,0,2623.16)" d="M0 2623.16H2938.83V0H0Z" />
</clipPath>
<clipPath id="clip_2">
<path transform="matrix(1,0,0,-1,0,2623.16)" d="M0 2623.16H2938.83V0H0Z" />
</clipPath>
<clipPath id="clip_3">
<path transform="matrix(1,0,0,-1,0,2623.16)" d="M0 2623.16H2938.83V0H0Z" />
</clipPath>
</defs>
<g transform="translate(-2407 -1213)"><g clip-path="url(#clip_1)"><path transform="matrix(1,0,0,-1,2439.87,1239.76)" d="M0 0C-4.96 0-9 4.04-9 9-9 12.41-7.04 15.51-4 17.03V20.95C-5.95 21.64-7.97 22-10 22-19.93 22-28 13.93-28 4-28-5.93-19.93-14-10-14-2.54-14 3.99-9.52 6.7-2.7L3.35 .65C2.29 .224 1.15 0 0 0M-10-10C-17.72-10-24-3.72-24 4-24 11.72-17.72 18-10 18-9.79 18-9.59 18-9.38 17.99-11.66 15.61-13 12.4-13 9-13 1.83-7.17-4 0-4 .516-4 1.03-3.97 1.54-3.91-1.03-7.63-5.34-10-10-10" />
</g></g></svg>