<svg xmlns="http://www.w3.org/2000/svg" viewBox="0 0 44 36" width="44" height="36"><defs>
<clipPath id="clip_1">
<path transform="matrix(1,0,0,-1,0,2623.16)" d="M0 2623.16H2938.83V0H0Z" />
</clipPath>
<clipPath id="clip_2">
<path transform="matrix(1,0,0,-1,0,2623.16)" d="M0 2623.16H2938.83V0H0Z" />
</clipPath>
<clipPath id="clip_3">
<path transform="matrix(1,0,0,-1,0,2623.16)" d="M0 2623.16H2938.83V0H0Z" />
</clipPath>
</defs>
<g transform="translate(-1989 -1945)"><g clip-path="url(#clip_1)"><path transform="matrix(1,0,0,-1,1995.87,1953.76)" d="M0 0C-1.1 0-2 .896-2 2-2 3.1-1.1 4 0 4H32C33.1 4 34 3.1 34 2 34 .896 33.1 0 32 0Z" />
<path transform="matrix(1,0,0,-1,1995.87,1965.76)" d="M0 0C-1.1 0-2 .896-2 2-2 3.1-1.1 4 0 4H32C33.1 4 34 3.1 34 2 34 .896 33.1 0 32 0Z" />
<path transform="matrix(1,0,0,-1,1995.87,1977.76)" d="M0 0C-1.1 0-2 .896-2 2-2 3.1-1.1 4 0 4H32C33.1 4 34 3.1 34 2 34 .896 33.1 0 32 0Z" />
</g></g></svg>