<svg xmlns="http://www.w3.org/2000/svg" viewBox="0 0 48 46" width="48" height="46"><defs>
<clipPath id="clip_1">
<path transform="matrix(1,0,0,-1,0,2623.16)" d="M0 2623.16H2938.83V0H0Z" />
</clipPath>
<clipPath id="clip_2">
<path transform="matrix(1,0,0,-1,0,2623.16)" d="M0 2623.16H2938.83V0H0Z" />
</clipPath>
<clipPath id="clip_3">
<path transform="matrix(1,0,0,-1,0,2623.16)" d="M0 2623.16H2938.83V0H0Z" />
</clipPath>
</defs>
<g transform="translate(-1675 -901)"><g clip-path="url(#clip_1)"><path transform="matrix(1,0,0,-1,1709.68,913.8)" d="M0 0C-.914 4.58-4.96 8.04-9.8 8.04-14.65 8.04-18.69 4.58-19.6 0-25.29-.414-29.8-5.17-29.8-10.96-29.8-17.02-24.87-21.96-18.8-21.96H-11.8V-29.96H-7.8V-21.96H-.802C5.26-21.96 10.2-17.02 10.2-10.96 10.2-5.17 5.69-.414 0 0M-.802-17.96H-18.8C-22.66-17.96-25.8-14.82-25.8-10.96-25.8-7.1-22.66-3.96-18.8-3.96H-15.8V-1.96C-15.8 1.35-13.11 4.04-9.8 4.04-6.49 4.04-3.8 1.35-3.8-1.96V-3.96H-.802C3.06-3.96 6.2-7.1 6.2-10.96 6.2-14.82 3.06-17.96-.802-17.96" />
</g></g></svg>