<svg xmlns="http://www.w3.org/2000/svg" viewBox="0 0 36 52" width="36" height="52"><defs>
<clipPath id="clip_1">
<path transform="matrix(1,0,0,-1,0,2623.16)" d="M0 2623.16H2938.83V0H0Z" />
</clipPath>
<clipPath id="clip_2">
<path transform="matrix(1,0,0,-1,0,2623.16)" d="M0 2623.16H2938.83V0H0Z" />
</clipPath>
<clipPath id="clip_3">
<path transform="matrix(1,0,0,-1,0,2623.16)" d="M0 2623.16H2938.83V0H0Z" />
</clipPath>
</defs>
<g transform="translate(-1291 -386)"><g clip-path="url(#clip_1)"><path transform="matrix(1,0,0,-1,1319.88,408.72)" d="M0 0C0-2.04-.61-3.93-1.66-5.51L-7.13-.03 0 7.1V-.002ZM-10-10C-15.51-10-20-5.51-20 0V7.2L-4.49-8.34C-6.07-9.39-7.96-10-10-10M-10 12.34-5.21 7.55-9.96 2.8-14.75 7.6ZM1.24 14-2.38 10.38-10 18-17.57 10.43-21.14 14H-24V0C-24-7.04-18.77-12.86-12-13.84V-26H-8V-13.84C-1.23-12.86 4-7.04 4 0V14Z" />
</g></g></svg>