<svg xmlns="http://www.w3.org/2000/svg" viewBox="0 0 36 50" width="36" height="50"><defs>
<clipPath id="clip_1">
<path transform="matrix(1,0,0,-1,0,2623.16)" d="M0 2623.16H2938.83V0H0Z" />
</clipPath>
<clipPath id="clip_2">
<path transform="matrix(1,0,0,-1,0,2623.16)" d="M0 2623.16H2938.83V0H0Z" />
</clipPath>
<clipPath id="clip_3">
<path transform="matrix(1,0,0,-1,0,2623.16)" d="M0 2623.16H2938.83V0H0Z" />
</clipPath>
</defs>
<g transform="translate(-1265 -1731)"><g clip-path="url(#clip_1)"><path transform="matrix(1,0,0,-1,1296.02,1737.99)" d="M0 0C-1.13 .464-2.41 .21-3.27-.65L-5.44-2.82-9.32 1.06C-10.88 2.62-13.41 2.62-14.98 1.06L-18.55-2.52-21.02-.036C-21.88 .826-23.16 1.09-24.29 .618-25.42 .154-26.15-.936-26.15-2.16V-13.77C-26.15-20.81-20.92-26.64-14.15-27.61V-39.77H-10.15V-27.61C-3.38-26.64 1.85-20.81 1.85-13.77V-2.77C1.85-1.56 1.13-.466 0 0M-12.86-2.48C-12.47-2.09-11.83-2.09-11.44-2.48L-8.27-5.65-11.85-9.23-15.72-5.35ZM-12.15-23.77C-17.66-23.77-22.15-19.29-22.15-13.77V-4.57L-5.51-21.24C-7.27-22.81-9.6-23.77-12.15-23.77M-2.15-13.77C-2.15-15.28-2.48-16.72-3.09-18L-9.02-12.06-2.15-5.18Z" />
</g></g></svg>