<svg xmlns="http://www.w3.org/2000/svg" viewBox="0 0 83 114" width="83" height="114"><defs>
<clipPath id="clip_1">
<path transform="matrix(1,0,0,-1,0,2623.16)" d="M0 2623.16H2938.83V0H0Z" />
</clipPath>
<clipPath id="clip_2">
<path transform="matrix(1,0,0,-1,0,2623.16)" d="M0 2623.16H2938.83V0H0Z" />
</clipPath>
<clipPath id="clip_3">
<path transform="matrix(1,0,0,-1,0,2623.16)" d="M0 2623.16H2938.83V0H0Z" />
</clipPath>
</defs>
<g transform="translate(-2085 -366)"><g clip-path="url(#clip_2)"><path transform="matrix(1,0,0,-1,2125.02,377.22)" d="M0 0C-10.16-1.15-15.08-13.44-9.18-21.61-3.64-29.28 8.11-29.03 13.3-21.11 19.8-11.2 11.75 1.33 0 0M3.96 6.64C13.26 5.78 21.36-2.47 22.07-11.77 23.56-31.36-.729-41.53-13.54-26.58-23.96-14.43-16.09 5.17-.16 6.64 .925 6.74 2.87 6.74 3.96 6.64" />
<path transform="matrix(1,0,0,-1,2157.58,469.3)" d="M0 0V30.54C0 31.84-.669 34.09-1.2 35.31-3.2 39.92-7.51 42.56-12.34 43.39L-28.4 0ZM-61.33 30.54V0H-32.93L-48.99 43.39C-49.31 43.66-53.64 41.98-54.31 41.62-58.39 39.5-60.97 35.1-61.33 30.54M-36.02 26.33C-35.69 26.32-35.68 27.03-35.64 27.28-34.92 31.22-34.73 35.26-33.95 39.19-33.96 40.2-37.11 44.53-37.7 45.93-38.82 48.6-37.21 50.57-34.48 50.81-32.52 50.98-28.39 51.01-26.47 50.78-24.03 50.48-22.63 48.42-23.57 46.07-24.43 43.89-26.5 41.63-27.37 39.37L-25.52 26.33-17.05 49.01C-15.76 51.15-14.21 50.82-12.14 50.28-.76 47.34 5.99 41.69 6.59 29.32 7.1 18.83 6.19 7.95 6.59-2.58 6.43-4.87 5.68-6.34 3.2-6.59H-64.53C-67.01-6.34-67.76-4.87-67.93-2.58-68.74 8.59-67.46 20.93-67.71 32.18-66.81 39.33-62.22 45.47-55.57 48.23-53.98 48.88-48.9 50.64-47.38 50.76-46.04 50.87-44.63 49.97-44.15 48.74Z" />
</g></g></svg>