<svg xmlns="http://www.w3.org/2000/svg" viewBox="0 0 48 46" width="48" height="46"><defs>
<clipPath id="clip_1">
<path transform="matrix(1,0,0,-1,0,2623.16)" d="M0 2623.16H2938.83V0H0Z" />
</clipPath>
<clipPath id="clip_2">
<path transform="matrix(1,0,0,-1,0,2623.16)" d="M0 2623.16H2938.83V0H0Z" />
</clipPath>
<clipPath id="clip_3">
<path transform="matrix(1,0,0,-1,0,2623.16)" d="M0 2623.16H2938.83V0H0Z" />
</clipPath>
</defs>
<g transform="translate(-739 -1005)"><g clip-path="url(#clip_1)"><path transform="matrix(1,0,0,-1,765.87,1011.85)" d="M0 0V2.09H-4V0C-14.54-.91-22-9-22-19.91H-4V-29.91C-4-31.01-4.9-31.91-6-31.91-7.1-31.91-8-31.01-8-29.91H-12C-12-33.22-9.31-35.91-6-35.91-2.69-35.91 0-33.22 0-29.91V-19.91H18C18-9 10.54-.91 0 0M2-13.91V-15.91H-6V-13.91C-6-10.9-5.61-3.91-2-3.91 1.61-3.91 2-10.9 2-13.91M-8.72-5.19C-9.5-7.24-10-10.05-10-13.91V-15.91H-17.56C-16.45-10.9-13.25-7.07-8.72-5.19M6-15.91V-13.91C6-10.05 5.5-7.24 4.72-5.19 9.25-7.07 12.45-10.9 13.56-15.91Z" />
</g></g></svg>