<svg xmlns="http://www.w3.org/2000/svg" viewBox="0 0 52 40" width="52" height="40"><defs>
<clipPath id="clip_1">
<path transform="matrix(1,0,0,-1,0,2623.16)" d="M0 2623.16H2938.83V0H0Z" />
</clipPath>
<clipPath id="clip_2">
<path transform="matrix(1,0,0,-1,0,2623.16)" d="M0 2623.16H2938.83V0H0Z" />
</clipPath>
<clipPath id="clip_3">
<path transform="matrix(1,0,0,-1,0,2623.16)" d="M0 2623.16H2938.83V0H0Z" />
</clipPath>
</defs>
<g transform="translate(-1049 -1007)"><g clip-path="url(#clip_1)"><path transform="matrix(1,0,0,-1,1097.87,1025.76)" d="M0 0-6 6H-10V14H-44V-10L-40-14H-37.63C-36.8-16.32-34.6-18-32-18-29.4-18-27.2-16.32-26.37-14H-17.63C-16.8-16.32-14.6-18-12-18-9.4-18-7.2-16.32-6.37-14H-2L0-12ZM-32-14C-33.1-14-34-13.1-34-12-34-10.9-33.1-10-32-10-30.9-10-30-10.9-30-12-30-13.1-30.9-14-32-14M-12-14C-13.1-14-14-13.1-14-12-14-10.9-13.1-10-12-10-10.9-10-10-10.9-10-12-10-13.1-10.9-14-12-14M-4-10H-6.37C-7.2-7.68-9.4-6-12-6-14.6-6-16.8-7.68-17.63-10H-26.37C-27.2-7.68-29.4-6-32-6-34.6-6-36.8-7.68-37.63-10H-38.34L-40-8.34V10H-14V-4H-10V2H-8L-4-2Z" />
</g></g></svg>