<svg xmlns="http://www.w3.org/2000/svg" viewBox="0 0 48 48" width="48" height="48"><defs>
<clipPath id="clip_1">
<path transform="matrix(1,0,0,-1,0,2623.16)" d="M0 2623.16H2938.83V0H0Z" />
</clipPath>
<clipPath id="clip_2">
<path transform="matrix(1,0,0,-1,0,2623.16)" d="M0 2623.16H2938.83V0H0Z" />
</clipPath>
<clipPath id="clip_3">
<path transform="matrix(1,0,0,-1,0,2623.16)" d="M0 2623.16H2938.83V0H0Z" />
</clipPath>
</defs>
<g transform="translate(-843 -1211)"><g clip-path="url(#clip_1)"><path transform="matrix(1,0,0,-1,887.87,1243.76)" d="M0 0V8L-14 13.8V22C-14 25.31-16.69 28-20 28-23.31 28-26 25.31-26 22V13.8L-40 8V0H-26V-2L-30-4.76V-12H-10V-4L-14-2V0ZM-14-6V-8H-26V-6L-22-3.4V4H-36V5.74L-22 11.2V22C-22 23.1-21.1 24-20 24-18.9 24-18 23.1-18 22V11.2L-4 5.74V4H-18V-3.4Z" />
</g></g></svg>