<svg xmlns="http://www.w3.org/2000/svg" viewBox="0 0 44 44" width="44" height="44"><defs>
<clipPath id="clip_1">
<path transform="matrix(1,0,0,-1,0,2623.16)" d="M0 2623.16H2938.83V0H0Z" />
</clipPath>
<clipPath id="clip_2">
<path transform="matrix(1,0,0,-1,0,2623.16)" d="M0 2623.16H2938.83V0H0Z" />
</clipPath>
<clipPath id="clip_3">
<path transform="matrix(1,0,0,-1,0,2623.16)" d="M0 2623.16H2938.83V0H0Z" />
</clipPath>
</defs>
<g transform="translate(-533 -1317)"><g clip-path="url(#clip_1)"><path transform="matrix(1,0,0,-1,541.87,1343.76)" d="M0 0H-4V-14H10V-10H0Z" />
<path transform="matrix(1,0,0,-1,559.87,1321.76)" d="M0 0V-4H10V-14H14V0Z" />
<path transform="matrix(1,0,0,-1,569.87,1353.76)" d="M0 0H-10V-4H4V10H0Z" />
<path transform="matrix(1,0,0,-1,537.87,1335.76)" d="M0 0H4V10H14V14H0Z" />
</g></g></svg>