<svg xmlns="http://www.w3.org/2000/svg" viewBox="0 0 52 44" width="52" height="44"><defs>
<clipPath id="clip_1">
<path transform="matrix(1,0,0,-1,0,2623.16)" d="M0 2623.16H2938.83V0H0Z" />
</clipPath>
<clipPath id="clip_2">
<path transform="matrix(1,0,0,-1,0,2623.16)" d="M0 2623.16H2938.83V0H0Z" />
</clipPath>
<clipPath id="clip_3">
<path transform="matrix(1,0,0,-1,0,2623.16)" d="M0 2623.16H2938.83V0H0Z" />
</clipPath>
</defs>
<g transform="translate(-995 -582)"><g clip-path="url(#clip_1)"><path transform="matrix(1,0,0,-1,1019.88,617.52)" d="M0 0-9.28 8.8H-16V16.8H-9.28L0 25.6ZM-10.72 20.8H-20V4.8H-10.72L0-5.2H4V30.8H0Z" />
<path transform="matrix(1,0,0,-1,1043.29,600.14)" d="M0 0-2.83 2.83-7.41-1.76-12 2.83-14.83 0-10.24-4.59-14.83-9.17-12-12-7.41-7.41-2.83-12 0-9.17-4.59-4.59Z" />
</g></g></svg>