<svg xmlns="http://www.w3.org/2000/svg" viewBox="0 0 48 46" width="48" height="46"><defs>
<clipPath id="clip_1">
<path transform="matrix(1,0,0,-1,0,2623.16)" d="M0 2623.16H2938.83V0H0Z" />
</clipPath>
<clipPath id="clip_2">
<path transform="matrix(1,0,0,-1,0,2623.16)" d="M0 2623.16H2938.83V0H0Z" />
</clipPath>
<clipPath id="clip_3">
<path transform="matrix(1,0,0,-1,0,2623.16)" d="M0 2623.16H2938.83V0H0Z" />
</clipPath>
</defs>
<g transform="translate(-843 -1939)"><g clip-path="url(#clip_1)"><path transform="matrix(1,0,0,-1,879.87,1967.76)" d="M0 0C2.21 0 4-1.79 4-4 4-6.21 2.21-8 0-8-2.21-8-4-6.21-4-4-4-1.79-2.21 0 0 0M0 4C-4.42 4-8 .418-8-4-8-8.42-4.42-12 0-12 4.42-12 8-8.42 8-4 8 .418 4.42 4 0 4M-2 24C.21 24 2 22.21 2 20 2 17.79 .21 16-2 16-4.21 16-6 17.79-6 20-6 22.21-4.21 24-2 24" />
<path transform="matrix(1,0,0,-1,881.87,1957.76)" d="M0 0C0 0-4.32-4-4-4H0C1.1-4 2-3.1 2-2 2-.896 1.1 0 0 0M-16-16C-16-17.1-15.1-18-14-18-12.9-18-12-17.1-12-16V-12ZM-13.64-5.86-18.55-2.28-10.02 1.99-7.01-1.01-4 2-8.2 6.2C-9.35 7.35-10.92 8-12.55 8-13.5 8-14.44 7.78-15.3 7.35L-24.04 2.98C-25.24 2.38-26 1.15-26-.198-26-1.33-25.46-2.4-24.54-3.07L-16.82-8.7C-16.38-9.02-16.11-9.51-16.03-10.04L-12.77-6.78C-13.02-6.44-13.29-6.12-13.64-5.86ZM-26-10C-24.82-10-23.74-10.51-23.01-11.35L-28.65-16.99C-29.49-16.26-30-15.18-30-14-30-11.79-28.21-10-26-10M-26-6C-30.42-6-34-9.58-34-14-34-17.8-31.34-20.97-27.78-21.78L-18.22-12.22C-19.03-8.66-22.2-6-26-6M4 10 1.17 12.83-32.83-21.17-30-24" />
</g></g></svg>