<svg xmlns="http://www.w3.org/2000/svg" viewBox="0 0 54 44" width="54" height="44"><defs>
<clipPath id="clip_1">
<path transform="matrix(1,0,0,-1,0,2623.16)" d="M0 2623.16H2938.83V0H0Z" />
</clipPath>
<clipPath id="clip_2">
<path transform="matrix(1,0,0,-1,0,2623.16)" d="M0 2623.16H2938.83V0H0Z" />
</clipPath>
<clipPath id="clip_3">
<path transform="matrix(1,0,0,-1,0,2623.16)" d="M0 2623.16H2938.83V0H0Z" />
</clipPath>
</defs>
<g transform="translate(-2711 -1733)"><g clip-path="url(#clip_1)"><path transform="matrix(1,0,0,-1,2739.01,1737.76)" d="M0 0C-.726 0-1.43-.276-1.96-.77L-11.86-10H-15.13C-19.55-10-23.13-13.58-23.13-18-23.13-22.42-19.55-26-15.13-26H-11.86L-1.96-35.23C-1.43-35.73-.728-36 0-36 1.58-36 2.87-34.72 2.87-33.13V-2.87C2.87-1.29 1.59 0 0 0M-1.13-30.8-10.41-22H-15.13C-17.34-22-19.13-20.21-19.13-18-19.13-15.79-17.34-14-15.13-14H-10.41L-1.13-5.2Z" />
<path transform="matrix(1,0,0,-1,2750.36,1747.28)" d="M0 0C-.782 .782-2.05 .782-2.83 0-3.61-.782-3.61-2.05-2.83-2.83-1.32-4.34-.484-6.35-.484-8.48-.484-10.62-1.32-12.63-2.83-14.14-3.61-14.92-3.61-16.19-2.83-16.97-2.44-17.36-1.93-17.55-1.41-17.55-.902-17.55-.39-17.36 0-16.97 2.27-14.7 3.52-11.69 3.52-8.48 3.52-5.28 2.27-2.27 0 0" />
<path transform="matrix(1,0,0,-1,2756.32,1742.35)" d="M0 0C-.782 .782-2.05 .782-2.83 0-3.61-.782-3.61-2.05-2.83-2.83 3.01-8.67 3.01-18.16-2.83-24-3.61-24.78-3.61-26.05-2.83-26.83-2.44-27.22-1.93-27.41-1.41-27.41-.902-27.41-.39-27.22 0-26.83 7.4-19.43 7.4-7.4 0 0" />
</g></g></svg>