<svg xmlns="http://www.w3.org/2000/svg" viewBox="0 0 40 48" width="40" height="48"><defs>
<clipPath id="clip_1">
<path transform="matrix(1,0,0,-1,0,2623.16)" d="M0 2623.16H2938.83V0H0Z" />
</clipPath>
<clipPath id="clip_2">
<path transform="matrix(1,0,0,-1,0,2623.16)" d="M0 2623.16H2938.83V0H0Z" />
</clipPath>
<clipPath id="clip_3">
<path transform="matrix(1,0,0,-1,0,2623.16)" d="M0 2623.16H2938.83V0H0Z" />
</clipPath>
</defs>
<g transform="translate(-713 -292)"><g clip-path="url(#clip_1)"><path transform="matrix(1,0,0,-1,0,2623.16)" d="M745.88 2302.44H721.88V2312.44H745.88ZM741.88 2294.44C740.77 2294.44 739.88 2295.33 739.88 2296.44 739.88 2297.54 740.77 2298.44 741.88 2298.44 742.98 2298.44 743.88 2297.54 743.88 2296.44 743.88 2295.33 742.98 2294.44 741.88 2294.44M725.88 2294.44C724.77 2294.44 723.88 2295.33 723.88 2296.44 723.88 2297.54 724.77 2298.44 725.88 2298.44 726.98 2298.44 727.88 2297.54 727.88 2296.44 727.88 2295.33 726.98 2294.44 725.88 2294.44M727.88 2320.44H739.88V2316.44H727.88ZM743.88 2326.44H723.88C720.57 2326.44 717.88 2323.74 717.88 2320.44V2296.44C717.88 2293.5 720 2291.06 722.78 2290.55L720.41 2286.44H725.03L727.34 2290.44H740.41L742.72 2286.44H747.34L744.97 2290.55C747.75 2291.06 749.88 2293.5 749.88 2296.44V2320.44C749.88 2323.74 747.18 2326.44 743.88 2326.44" />
</g></g></svg>