<svg xmlns="http://www.w3.org/2000/svg" viewBox="0 0 52 42" width="52" height="42"><defs>
<clipPath id="clip_1">
<path transform="matrix(1,0,0,-1,0,2623.16)" d="M0 2623.16H2938.83V0H0Z" />
</clipPath>
<clipPath id="clip_2">
<path transform="matrix(1,0,0,-1,0,2623.16)" d="M0 2623.16H2938.83V0H0Z" />
</clipPath>
<clipPath id="clip_3">
<path transform="matrix(1,0,0,-1,0,2623.16)" d="M0 2623.16H2938.83V0H0Z" />
</clipPath>
</defs>
<g transform="translate(-1777 -1735)"><g clip-path="url(#clip_1)"><path transform="matrix(1,0,0,-1,0,2623.16)" d="M1809.87 866.4H1813.87V869.4H1809.87Z" />
<path transform="matrix(1,0,0,-1,1792.87,1761.76)" d="M0 0C1.66 0 3 2.69 3 6 3 9.31 1.66 12 0 12-1.66 12-3 9.31-3 6-3 2.69-1.66 0 0 0" />
<path transform="matrix(1,0,0,-1,1824.78,1769.43)" d="M0 0C-.544 .358-.904 .974-.904 1.67V13.67C-.904 22.49-6.29 29.67-12.9 29.67H-31.9C-38.07 29.67-42.9 22.64-42.9 13.67-42.9 4.7-38.07-2.33-31.9-2.33H-23.34C-22.24-3.55-20.67-4.33-18.9-4.33H-1.26C.044-4.33 1.1-3.27 1.1-1.98 1.1-1.17 .672-.442 0 0M-31.9 1.67C-35.7 1.67-38.9 7.17-38.9 13.67-38.9 20.18-35.7 25.67-31.9 25.67-28.11 25.67-24.9 20.18-24.9 13.67-24.9 7.17-28.11 1.67-31.9 1.67M-18.9-.328C-20.01-.328-20.9 .568-20.9 1.67V12.67H-16.9V15.67H-20.99C-21.32 19.68-22.63 23.17-24.57 25.67H-12.9C-9.02 25.67-5.69 21.26-5.03 15.67H-8.9V12.67H-4.9V1.67C-4.9 .968-4.76 .3-4.54-.328Z" />
</g></g></svg>