<svg xmlns="http://www.w3.org/2000/svg" viewBox="0 0 52 38" width="52" height="38"><defs>
<clipPath id="clip_1">
<path transform="matrix(1,0,0,-1,0,2623.16)" d="M0 2623.16H2938.83V0H0Z" />
</clipPath>
<clipPath id="clip_2">
<path transform="matrix(1,0,0,-1,0,2623.16)" d="M0 2623.16H2938.83V0H0Z" />
</clipPath>
<clipPath id="clip_3">
<path transform="matrix(1,0,0,-1,0,2623.16)" d="M0 2623.16H2938.83V0H0Z" />
</clipPath>
</defs>
<g transform="translate(-2297 -1423)"><g clip-path="url(#clip_1)"><path transform="matrix(1,0,0,-1,2309.87,1443.76)" d="M0 0H2L6 8V10H2V16H0L-4 8V6H0Z" />
<path transform="matrix(1,0,0,-1,2341.87,1437.76)" d="M0 0H-10L-14 6H-22V2H-16L-12-4H-2L0-6V-10L-2-12H-6.37C-7.2-9.68-9.4-8-12-8-14.6-8-16.8-9.68-17.63-12H-22.37C-23.2-9.68-25.4-8-28-8-30.6-8-32.8-9.68-33.63-12H-34.34L-36-10.34V-4H-40V-12L-36-16H-33.63C-32.8-18.32-30.6-20-28-20-25.4-20-23.2-18.32-22.37-16H-17.63C-16.8-18.32-14.6-20-12-20-9.4-20-7.2-18.32-6.37-16H0L4-12V-4ZM-28-16C-29.1-16-30-15.1-30-14-30-12.9-29.1-12-28-12-26.9-12-26-12.9-26-14-26-15.1-26.9-16-28-16M-12-16C-13.1-16-14-15.1-14-14-14-12.9-13.1-12-12-12-10.9-12-10-12.9-10-14-10-15.1-10.9-16-12-16" />
</g></g></svg>