<svg xmlns="http://www.w3.org/2000/svg" viewBox="0 0 32 52" width="32" height="52"><defs>
<clipPath id="clip_1">
<path transform="matrix(1,0,0,-1,0,2623.16)" d="M0 2623.16H2938.83V0H0Z" />
</clipPath>
<clipPath id="clip_2">
<path transform="matrix(1,0,0,-1,0,2623.16)" d="M0 2623.16H2938.83V0H0Z" />
</clipPath>
<clipPath id="clip_3">
<path transform="matrix(1,0,0,-1,0,2623.16)" d="M0 2623.16H2938.83V0H0Z" />
</clipPath>
</defs>
<g transform="translate(-1267 -897)"><g clip-path="url(#clip_1)"><path transform="matrix(1,0,0,-1,1291.87,924.86)" d="M0 0V15.1C0 19.51-3.59 23.1-8 23.1-12.41 23.1-16 19.51-16 15.1V0C-18.55-2.28-20-5.47-20-8.9-20-15.52-14.62-20.9-8-20.9-1.38-20.9 4-15.52 4-8.9 4-5.47 2.55-2.28 0 0M-8-16.9C-12.41-16.9-16-13.31-16-8.9-16-6.4-14.83-4.08-12.79-2.54L-12-1.94V15.1C-12 17.31-10.21 19.1-8 19.1-5.79 19.1-4 17.31-4 15.1V-1.94L-3.21-2.54C-1.17-4.08 0-6.4 0-8.9 0-13.31-3.59-16.9-8-16.9" />
<path transform="matrix(1,0,0,-1,1285.87,928.13)" d="M0 0V10.37C0 11.47-.896 12.37-2 12.37-3.1 12.37-4 11.47-4 10.37V0C-6.33-.826-8-3.02-8-5.63-8-8.95-5.31-11.63-2-11.63 1.31-11.63 4-8.95 4-5.63 4-3.02 2.33-.826 0 0" />
</g></g></svg>