<svg xmlns="http://www.w3.org/2000/svg" viewBox="0 0 34 44" width="34" height="44"><defs>
<clipPath id="clip_1">
<path transform="matrix(1,0,0,-1,0,2623.16)" d="M0 2623.16H2938.83V0H0Z" />
</clipPath>
<clipPath id="clip_2">
<path transform="matrix(1,0,0,-1,0,2623.16)" d="M0 2623.16H2938.83V0H0Z" />
</clipPath>
<clipPath id="clip_3">
<path transform="matrix(1,0,0,-1,0,2623.16)" d="M0 2623.16H2938.83V0H0Z" />
</clipPath>
</defs>
<g transform="translate(-1261 -1941)"><g clip-path="url(#clip_1)"><path transform="matrix(1,0,0,-1,1289.01,1945.76)" d="M0 0C-.726 0-1.43-.276-1.96-.77L-11.86-10H-15.13C-19.55-10-23.13-13.58-23.13-18-23.13-22.42-19.55-26-15.13-26H-11.86L-1.96-35.23C-1.43-35.73-.728-36 0-36 1.58-36 2.87-34.72 2.87-33.13V-2.87C2.87-1.29 1.59 0 0 0M-1.13-30.8-10.41-22H-15.13C-17.34-22-19.13-20.21-19.13-18-19.13-15.79-17.34-14-15.13-14H-10.41L-1.13-5.2Z" />
</g></g></svg>