<svg xmlns="http://www.w3.org/2000/svg" viewBox="0 0 44 44" width="44" height="44"><defs>
<clipPath id="clip_1">
<path transform="matrix(1,0,0,-1,0,2623.16)" d="M0 2623.16H2938.83V0H0Z" />
</clipPath>
<clipPath id="clip_2">
<path transform="matrix(1,0,0,-1,0,2623.16)" d="M0 2623.16H2938.83V0H0Z" />
</clipPath>
<clipPath id="clip_3">
<path transform="matrix(1,0,0,-1,0,2623.16)" d="M0 2623.16H2938.83V0H0Z" />
</clipPath>
</defs>
<g transform="translate(-1989 -1109)"><g clip-path="url(#clip_1)"><path transform="matrix(1,0,0,-1,2029.29,1146.35)" d="M0 0-10.21 10.21C-8.46 12.55-7.41 15.44-7.41 18.59-7.41 26.32-13.68 32.59-21.41 32.59-29.15 32.59-35.41 26.32-35.41 18.59-35.41 10.85-29.15 4.59-21.41 4.59-18.27 4.59-15.38 5.63-13.04 7.38L-2.83-2.83ZM-31.41 18.59C-31.41 24.1-26.93 28.59-21.41 28.59-15.9 28.59-11.41 24.1-11.41 18.59-11.41 13.07-15.9 8.59-21.41 8.59-26.93 8.59-31.41 13.07-31.41 18.59" />
</g></g></svg>