<svg xmlns="http://www.w3.org/2000/svg" viewBox="0 0 108 119" width="108" height="119"><defs>
<clipPath id="clip_1">
<path transform="matrix(1,0,0,-1,0,2623.16)" d="M0 2623.16H2938.83V0H0Z" />
</clipPath>
<clipPath id="clip_2">
<path transform="matrix(1,0,0,-1,0,2623.16)" d="M0 2623.16H2938.83V0H0Z" />
</clipPath>
<clipPath id="clip_3">
<path transform="matrix(1,0,0,-1,0,2623.16)" d="M0 2623.16H2938.83V0H0Z" />
</clipPath>
</defs>
<g transform="translate(-2313 -359)"><g clip-path="url(#clip_2)"><path transform="matrix(1,0,0,-1,2392.24,465.56)" d="M0 0C5.67 .005 16.68 7.63 17.11 12.12 17.57 16.92 6.4 22.52 3.39 24.48-14.03 35.84-35.89 35.93-53.37 24.64-56.58 22.56-67.75 16.99-67.37 12.12-67.02 7.7-55.89-.052-50.02-.046ZM-47.46-7.98C-57.52-7.98-65.98-2.63-72.03 4.3-76.47 9.39-75.83 15.92-71.56 20.92-67.68 25.46-62.54 27.96-57.54 31.16-37.58 43.94-12.67 43.95 7.29 31.17 12.29 27.96 17.43 25.47 21.3 20.93 25.57 15.92 26.21 9.39 21.78 4.3 15.72-2.66 7.16-7.97-2.58-7.97Z" />
<path transform="matrix(1,0,0,-1,2386.34,390.13)" d="M0 0C0 10.62-8.61 19.23-19.23 19.23-29.85 19.23-38.46 10.62-38.46 0-38.46-10.62-29.85-19.23-19.23-19.23-8.61-19.23 0-10.62 0 0M7.7 .003C7.7-14.87-4.36-26.93-19.23-26.93-34.11-26.93-46.17-14.87-46.17 .003-46.17 14.88-34.11 26.94-19.23 26.94-4.36 26.94 7.7 14.88 7.7 .003" />
</g></g></svg>