<svg xmlns="http://www.w3.org/2000/svg" viewBox="0 0 46 46" width="46" height="46"><defs>
<clipPath id="clip_1">
<path transform="matrix(1,0,0,-1,0,2623.16)" d="M0 2623.16H2938.83V0H0Z" />
</clipPath>
<clipPath id="clip_2">
<path transform="matrix(1,0,0,-1,0,2623.16)" d="M0 2623.16H2938.83V0H0Z" />
</clipPath>
<clipPath id="clip_3">
<path transform="matrix(1,0,0,-1,0,2623.16)" d="M0 2623.16H2938.83V0H0Z" />
</clipPath>
</defs>
<g transform="translate(-1779 -899)"><g clip-path="url(#clip_1)"><path transform="matrix(1,0,0,-1,1821.29,938.35)" d="M0 0-8.79 8.79C-6.68 11.5-5.41 14.89-5.41 18.59-5.41 27.42-12.58 34.59-21.41 34.59-30.25 34.59-37.41 27.42-37.41 18.59-37.41 9.75-30.25 2.59-21.41 2.59-17.72 2.59-14.32 3.85-11.61 5.96L-2.83-2.83ZM-21.41 6.59C-28.03 6.59-33.41 11.97-33.41 18.59-33.41 25.2-28.03 30.59-21.41 30.59-14.8 30.59-9.41 25.2-9.41 18.59-9.41 11.97-14.8 6.59-21.41 6.59" />
<path transform="matrix(1,0,0,-1,0,2623.16)" d="M1791.87 1701.4H1807.87V1705.4H1791.87Z" />
</g></g></svg>