<svg xmlns="http://www.w3.org/2000/svg" viewBox="0 0 52 52" width="52" height="52"><defs>
<clipPath id="clip_1">
<path transform="matrix(1,0,0,-1,0,2623.16)" d="M0 2623.16H2938.83V0H0Z" />
</clipPath>
<clipPath id="clip_2">
<path transform="matrix(1,0,0,-1,0,2623.16)" d="M0 2623.16H2938.83V0H0Z" />
</clipPath>
<clipPath id="clip_3">
<path transform="matrix(1,0,0,-1,0,2623.16)" d="M0 2623.16H2938.83V0H0Z" />
</clipPath>
</defs>
<g transform="translate(-1465 -1521)"><g clip-path="url(#clip_1)"><path transform="matrix(1,0,0,-1,1481.87,1537.76)" d="M0 0C3.31 0 6 2.69 6 6 6 9.31 3.31 12 0 12-3.31 12-6 9.31-6 6-6 2.69-3.31 0 0 0M0 8C1.1 8 2 7.1 2 6 2 4.9 1.1 4 0 4-1.1 4-2 4.9-2 6-2 7.1-1.1 8 0 8" />
<path transform="matrix(1,0,0,-1,1509.87,1545.76)" d="M0 0V12C0 14.21-1.79 16-4 16H-8C-10.21 16-12 14.21-12 12V0C-13.47 0-14.75-.81-15.44-2H-20V6H-36V-2H-40V-6H-16V-18C-16-19.47-15.19-20.75-14-21.44V-22C-14-23.1-13.11-24-12-24-10.89-24-10-23.1-10-22H-2C-2-23.1-1.1-24 0-24 1.1-24 2-23.1 2-22V-21.44C3.19-20.75 4-19.47 4-18V-4C4-1.79 2.21 0 0 0M-8 12H-4V0H-8ZM-12-4H0L.004-18H-12ZM-32 2H-24V-2H-32Z" />
</g></g></svg>