<svg xmlns="http://www.w3.org/2000/svg" viewBox="0 0 40 46" width="40" height="46"><defs>
<clipPath id="clip_1">
<path transform="matrix(1,0,0,-1,0,2623.16)" d="M0 2623.16H2938.83V0H0Z" />
</clipPath>
<clipPath id="clip_2">
<path transform="matrix(1,0,0,-1,0,2623.16)" d="M0 2623.16H2938.83V0H0Z" />
</clipPath>
<clipPath id="clip_3">
<path transform="matrix(1,0,0,-1,0,2623.16)" d="M0 2623.16H2938.83V0H0Z" />
</clipPath>
</defs>
<g transform="translate(-2615 -1939)"><g clip-path="url(#clip_1)"><path transform="matrix(1,0,0,-1,2647.87,1958.89)" d="M0 0V2.71C0 8.81-4.37 14.25-10.42 15.03-17.74 15.96-24 10.26-24 3.13V0C-26.38-1.39-28-3.92-28-6.87V-14.87C-28-19.29-24.42-22.87-20-22.87H-4C.418-22.87 4-19.29 4-14.87V-6.87C4-3.92 2.38-1.38 0 0M-20 3.13C-20 7.54-16.41 11.13-12 11.13-7.59 11.13-4 7.54-4 3.13V1.13H-20ZM0-14.87C0-17.08-1.79-18.87-4-18.87H-20C-22.21-18.87-24-17.08-24-14.87V-6.87C-24-4.66-22.21-2.87-20-2.87H-4C-1.79-2.87 0-4.66 0-6.87Z" fill-rule="evenodd" />
<path transform="matrix(1,0,0,-1,2635.87,1973.76)" d="M0 0C2.21 0 4 1.79 4 4 4 6.21 2.21 8 0 8-2.21 8-4 6.21-4 4-4 1.79-2.21 0 0 0" />
</g></g></svg>