<svg xmlns="http://www.w3.org/2000/svg" viewBox="0 0 40 50" width="40" height="50"><defs>
<clipPath id="clip_1">
<path transform="matrix(1,0,0,-1,0,2623.16)" d="M0 2623.16H2938.83V0H0Z" />
</clipPath>
<clipPath id="clip_2">
<path transform="matrix(1,0,0,-1,0,2623.16)" d="M0 2623.16H2938.83V0H0Z" />
</clipPath>
<clipPath id="clip_3">
<path transform="matrix(1,0,0,-1,0,2623.16)" d="M0 2623.16H2938.83V0H0Z" />
</clipPath>
</defs>
<g transform="translate(-521 -290)"><g clip-path="url(#clip_1)"><path transform="matrix(1,0,0,-1,553.88,318.72)" d="M0 0C0-1.1-.896-2-2-2H-22C-23.1-2-24-1.1-24 0V10C-24 11.1-23.1 12-22 12H-2C-.896 12 0 11.1 0 10ZM-8-10H-16C-17.1-10-18-9.1-18-8-18-6.9-17.1-6-16-6H-8C-6.9-6-6-6.9-6-8-6-9.1-6.9-10-8-10M-2 16H-10V20H-4V24H-20V20H-14V16H-22C-25.31 16-28 13.31-28 10V-8C-28-10.93-25.88-13.37-23.09-13.89L-25.46-18H-20.84L-18.54-14H-5.46L-3.16-18H1.46L-.908-13.89C1.88-13.37 4-10.94 4-8V10C4 13.31 1.31 16-2 16" />
</g></g></svg>