<svg xmlns="http://www.w3.org/2000/svg" viewBox="0 0 52 45" width="52" height="45"><defs>
<clipPath id="clip_1">
<path transform="matrix(1,0,0,-1,0,2623.16)" d="M0 2623.16H2938.83V0H0Z" />
</clipPath>
<clipPath id="clip_2">
<path transform="matrix(1,0,0,-1,0,2623.16)" d="M0 2623.16H2938.83V0H0Z" />
</clipPath>
<clipPath id="clip_3">
<path transform="matrix(1,0,0,-1,0,2623.16)" d="M0 2623.16H2938.83V0H0Z" />
</clipPath>
</defs>
<g transform="translate(-945 -1524)"><g clip-path="url(#clip_1)"><path transform="matrix(1,0,0,-1,987.04,1528.93)" d="M0 0-6.18-6.18C-8.74-2.93-12.71-.834-17.17-.834-24.5-.834-30.53-6.5-31.12-13.68-34.74-15.23-37.17-18.81-37.17-22.83-37.17-26.71-34.93-30.04-31.7-31.7L-34-34-31.17-36.83 2.83-2.83ZM-28.63-28.63C-31.23-27.97-33.17-25.63-33.17-22.83-33.17-20.11-31.31-17.73-28.65-17.05L-27.12-16.66-27.16-14.83C-27.16-9.32-22.68-4.83-17.16-4.83-13.81-4.83-10.87-6.52-9.06-9.06Z" />
<path transform="matrix(1,0,0,-1,983.87,1541.76)" d="M0 0H-2V-4H0C3.31-4 6-6.69 6-10 6-13.31 3.31-16 0-16H-14V-20H0C5.51-20 10-15.51 10-10 10-4.49 5.51 0 0 0" />
</g></g></svg>