<svg xmlns="http://www.w3.org/2000/svg" viewBox="0 0 44 50" width="44" height="50"><defs>
<clipPath id="clip_1">
<path transform="matrix(1,0,0,-1,0,2623.16)" d="M0 2623.16H2938.83V0H0Z" />
</clipPath>
<clipPath id="clip_2">
<path transform="matrix(1,0,0,-1,0,2623.16)" d="M0 2623.16H2938.83V0H0Z" />
</clipPath>
<clipPath id="clip_3">
<path transform="matrix(1,0,0,-1,0,2623.16)" d="M0 2623.16H2938.83V0H0Z" />
</clipPath>
</defs>
<g transform="translate(-2197 -2251)"><g clip-path="url(#clip_1)"><path transform="matrix(1,0,0,-1,2232.24,2289.76)" d="M0 0-1.73 10H-10.37V12H-2.37V16H-10.37L-14.37 24H-20.37V15.82C-26.03 14.86-30.37 9.94-30.37 4-30.37-2.62-24.98-8-18.37-8-11.75-8-6.37-2.62-6.37 4H-10.37C-10.37-.412-13.95-4-18.37-4-22.78-4-26.37-.412-26.37 4-26.37 7.72-23.81 10.82-20.37 11.72V6H-5L-3.37-4H5.63V0Z" />
<path transform="matrix(1,0,0,-1,2215.87,2263.76)" d="M0 0C.828 0 1.6 .252 2.23 .684 3.3 1.4 4 2.62 4 4 4 5.38 3.3 6.6 2.23 7.32 1.6 7.75 .826 8 0 8-1.38 8-2.6 7.3-3.32 6.23-3.75 5.6-4 4.83-4 4-4 3.17-3.75 2.4-3.32 1.77-2.6 .702-1.38 0 0 0" />
</g></g></svg>