<svg xmlns="http://www.w3.org/2000/svg" viewBox="0 0 51 44" width="51" height="44"><defs>
<clipPath id="clip_1">
<path transform="matrix(1,0,0,-1,0,2623.16)" d="M0 2623.16H2938.83V0H0Z" />
</clipPath>
<clipPath id="clip_2">
<path transform="matrix(1,0,0,-1,0,2623.16)" d="M0 2623.16H2938.83V0H0Z" />
</clipPath>
<clipPath id="clip_3">
<path transform="matrix(1,0,0,-1,0,2623.16)" d="M0 2623.16H2938.83V0H0Z" />
</clipPath>
</defs>
<g transform="translate(-634 -1732)"><g clip-path="url(#clip_1)"><path transform="matrix(1,0,0,-1,659.87,1771.76)" d="M0 0 6.33 6.33C4.2 8.47 1.25 9.29-1.52 8.81L-5.17 5.17Z" />
<path transform="matrix(1,0,0,-1,669.36,1762.27)" d="M0 0 4.24 4.24C2.41 6.07 .308 7.45-1.94 8.39L-6.71 3.62C-4.25 3.11-1.91 1.9 0 0" />
<path transform="matrix(1,0,0,-1,676.75,1754.74)" d="M0 0 4.24 4.24C2.48 6 .542 7.46-1.5 8.69L-5.89 4.3C-3.77 3.21-1.78 1.78 0 0" />
<path transform="matrix(1,0,0,-1,675.47,1737.32)" d="M0 0C-.782 .782-2.05 .782-2.83 0L-8.21-5.38C-18.09-2.87-29.01-5.46-36.72-13.17L-32.48-17.42C-27.27-12.21-20.24-9.97-13.43-10.6L-18.06-15.23C-22.18-15.74-26.18-17.54-29.34-20.71L-26.44-23.6-32-29.17C-32.78-29.95-32.78-31.22-32-32-31.22-32.78-29.95-32.78-29.17-32L0-2.83C.782-2.05 .782-.782 0 0" />
</g></g></svg>