<svg xmlns="http://www.w3.org/2000/svg" viewBox="0 0 52 40" width="52" height="40"><defs>
<clipPath id="clip_1">
<path transform="matrix(1,0,0,-1,0,2623.16)" d="M0 2623.16H2938.83V0H0Z" />
</clipPath>
<clipPath id="clip_2">
<path transform="matrix(1,0,0,-1,0,2623.16)" d="M0 2623.16H2938.83V0H0Z" />
</clipPath>
<clipPath id="clip_3">
<path transform="matrix(1,0,0,-1,0,2623.16)" d="M0 2623.16H2938.83V0H0Z" />
</clipPath>
</defs>
<g transform="translate(-1881 -2047)"><g clip-path="url(#clip_1)"><path transform="matrix(1,0,0,-1,1897.87,2077.76)" d="M0 0C2.21 0 4 1.79 4 4 4 7.28 0 10 0 10 0 10-4 7.28-4 4-4 1.79-2.21 0 0 0" />
<path transform="matrix(1,0,0,-1,1927.87,2058.61)" d="M0 0-8.1 4.68C-9.35 5.4-10.93 4.97-11.65 3.73-12.37 2.49-11.94 .898-10.7 .18L-6-2.53V-5.38C-6-6.09-5.62-6.75-5-7.11L-2-8.84V-20.15C-2-20.71-2.45-21.15-3-21.15H-18V2.85C-18 5.06-19.79 6.85-22 6.85H-38C-40.21 6.85-42 5.06-42 2.85V-21.15C-42-23.36-40.21-25.15-38-25.15H-2C.208-25.15 2-23.36 2-21.15V-3.46C2-2.03 1.24-.714 0 0M-22-21.15H-38V-5.15H-22ZM-22-1.15H-38V2.85H-22Z" />
</g></g></svg>