<svg xmlns="http://www.w3.org/2000/svg" viewBox="0 0 52 44" width="52" height="44"><defs>
<clipPath id="clip_1">
<path transform="matrix(1,0,0,-1,0,2623.16)" d="M0 2623.16H2938.83V0H0Z" />
</clipPath>
<clipPath id="clip_2">
<path transform="matrix(1,0,0,-1,0,2623.16)" d="M0 2623.16H2938.83V0H0Z" />
</clipPath>
<clipPath id="clip_3">
<path transform="matrix(1,0,0,-1,0,2623.16)" d="M0 2623.16H2938.83V0H0Z" />
</clipPath>
</defs>
<g transform="translate(-803 -676)"><g clip-path="url(#clip_1)"><path transform="matrix(1,0,0,-1,0,2623.16)" d="M837.88 1942.44H833.88V1936.44H837.88Z" />
<path transform="matrix(1,0,0,-1,845.77,684)" d="M0 0-4.24-4.24-1.41-7.07 2.83-2.83Z" />
<path transform="matrix(1,0,0,-1,833.88,712.72)" d="M0 0H-16C-19.31 0-22 2.69-22 6-22 8.75-20.13 11.13-17.44 11.8L-16.05 12.14-15.93 13.57C-15.63 17.24-12.65 20-9 20-5.46 20-2.49 17.32-2.09 13.78L-1.89 12H0C3.31 12 6 9.31 6 6 6 2.69 3.31 0 0 0M6 16C6 15.37 5.84 14.78 5.58 14.25 4.39 15.06 3.05 15.64 1.57 15.88 1.23 17.16 .644 18.34-.102 19.39 .508 19.77 1.23 20 2 20 4.21 20 6 18.21 6 16M9.42 9.28C9.17 10.01 8.84 10.7 8.43 11.34 9.4 12.65 10 14.24 10 16 10 20.42 6.42 24 2 24 .084 24-1.66 23.31-3.03 22.18-3.64 22.58-4.27 22.92-4.95 23.19L-3.66 24.48-7.9 28.73-10.73 25.9-8.81 23.98C-8.88 23.98-8.94 24-9 24-14.29 24-18.69 20.32-19.72 15.25-23.48 13.75-26 10.12-26 6-26 .484-21.51-4-16-4H0C5.26-4 9.53 .088 9.92 5.25L11.9 3.27 14.73 6.1 10.49 10.34 9.43 9.28Z" />
<path transform="matrix(1,0,0,-1,0,2623.16)" d="M851.88 1928.44H845.88V1924.44H851.88Z" />
</g></g></svg>