<svg xmlns="http://www.w3.org/2000/svg" viewBox="0 0 28 52" width="28" height="52"><defs>
<clipPath id="clip_1">
<path transform="matrix(1,0,0,-1,0,2623.16)" d="M0 2623.16H2938.83V0H0Z" />
</clipPath>
<clipPath id="clip_2">
<path transform="matrix(1,0,0,-1,0,2623.16)" d="M0 2623.16H2938.83V0H0Z" />
</clipPath>
<clipPath id="clip_3">
<path transform="matrix(1,0,0,-1,0,2623.16)" d="M0 2623.16H2938.83V0H0Z" />
</clipPath>
</defs>
<g transform="translate(-1789 -1313)"><g clip-path="url(#clip_1)"><path transform="matrix(1,0,0,-1,1805.87,1333.76)" d="M0 0H8L3.6 16H-7.6L-12 0H-4V-24H-8V-28H4V-24H0ZM-4.55 12H.552L2.75 4H-6.75L-4.55 12Z" />
</g></g></svg>