<svg xmlns="http://www.w3.org/2000/svg" viewBox="0 0 40 48" width="40" height="48"><defs>
<clipPath id="clip_1">
<path transform="matrix(1,0,0,-1,0,2623.16)" d="M0 2623.16H2938.83V0H0Z" />
</clipPath>
<clipPath id="clip_2">
<path transform="matrix(1,0,0,-1,0,2623.16)" d="M0 2623.16H2938.83V0H0Z" />
</clipPath>
<clipPath id="clip_3">
<path transform="matrix(1,0,0,-1,0,2623.16)" d="M0 2623.16H2938.83V0H0Z" />
</clipPath>
</defs>
<g transform="translate(-2719 -2147)"><g clip-path="url(#clip_1)"><path transform="matrix(1,0,0,-1,2742.7,2165.76)" d="M0 0 2.17 2.17C2.95 2.95 2.95 4.22 2.17 5 1.39 5.78 .126 5.78-.656 5L-2.83 2.83-5 5C-5.78 5.78-7.05 5.78-7.83 5-8.61 4.22-8.61 2.95-7.83 2.17L-5.66 0-7.83-2.17C-8.61-2.95-8.61-4.22-7.83-5-7.05-5.78-5.78-5.78-5-5L-2.83-2.83-.656-5C.126-5.78 1.39-5.78 2.17-5 2.95-4.22 2.95-2.95 2.17-2.17Z" />
<path transform="matrix(1,0,0,-1,2747.87,2151.76)" d="M0 0H-16C-20.42 0-24-3.58-24-8V-37C-24-37.68-23.77-38.37-23.3-38.93-22.23-40.2-20.34-40.36-19.07-39.3L-9.29-31.09C-8.54-30.46-7.46-30.46-6.71-31.09L3.07-39.3C4.34-40.36 6.23-40.2 7.3-38.93 7.77-38.37 8-37.68 8-37V-8C8-3.58 4.42 0 0 0M4-34C4-34.11 3.96-34.23 3.88-34.32 3.7-34.53 3.39-34.56 3.18-34.38L-5.43-27.16C-6.92-25.91-9.09-25.91-10.57-27.16L-19.18-34.38C-19.39-34.56-19.71-34.53-19.88-34.32-19.96-34.23-20-34.11-20-34V-8C-20-5.79-18.21-4-16-4H-.002C2.21-4 4-5.79 4-8Z" />
</g></g></svg>