<svg xmlns="http://www.w3.org/2000/svg" viewBox="0 0 44 48" width="44" height="48"><defs>
<clipPath id="clip_1">
<path transform="matrix(1,0,0,-1,0,2623.16)" d="M0 2623.16H2938.83V0H0Z" />
</clipPath>
<clipPath id="clip_2">
<path transform="matrix(1,0,0,-1,0,2623.16)" d="M0 2623.16H2938.83V0H0Z" />
</clipPath>
<clipPath id="clip_3">
<path transform="matrix(1,0,0,-1,0,2623.16)" d="M0 2623.16H2938.83V0H0Z" />
</clipPath>
</defs>
<g transform="translate(-2301 -1835)"><g clip-path="url(#clip_1)"><path transform="matrix(1,0,0,-1,2332.88,1846.17)" d="M0 0C-.96 .56-2.18 .228-2.73-.728-3.29-1.69-2.96-2.91-2-3.46 2.31-5.96 5-10.6 5-15.59 5-23.31-1.28-29.59-9-29.59-16.72-29.59-23-23.31-23-15.59-23-10.6-20.32-5.96-16-3.46-15.04-2.91-14.72-1.68-15.27-.728-15.82 .23-17.05 .562-18 0-23.55-3.21-27-9.18-27-15.59-27-25.52-18.93-33.59-9-33.59 .924-33.59 9-25.52 9-15.59 9-9.18 5.55-3.21 0 0" fill-rule="evenodd" />
<path transform="matrix(1,0,0,-1,2323.87,1857.76)" d="M0 0C1.1 0 2 .896 2 2V16C2 17.1 1.1 18 0 18-1.1 18-2 17.1-2 16V2C-2 .896-1.1 0 0 0" fill-rule="evenodd" />
</g></g></svg>