<svg xmlns="http://www.w3.org/2000/svg" viewBox="0 0 44 48" width="44" height="48"><defs>
<clipPath id="clip_1">
<path transform="matrix(1,0,0,-1,0,2623.16)" d="M0 2623.16H2938.83V0H0Z" />
</clipPath>
<clipPath id="clip_2">
<path transform="matrix(1,0,0,-1,0,2623.16)" d="M0 2623.16H2938.83V0H0Z" />
</clipPath>
<clipPath id="clip_3">
<path transform="matrix(1,0,0,-1,0,2623.16)" d="M0 2623.16H2938.83V0H0Z" />
</clipPath>
</defs>
<g transform="translate(-615 -388)"><g clip-path="url(#clip_1)"><path transform="matrix(1,0,0,-1,0,2623.16)" d="M655.88 2230.44H619.88V2190.44H655.88ZM651.88 2194.44H623.88V2226.44H651.88Z" />
<path transform="matrix(1,0,0,-1,637.88,404.72)" d="M0 0C-6.08 0-11-4.92-11-11-11-17.08-6.08-22 0-22 6.08-22 11-17.08 11-11 11-4.92 6.08 0 0 0M0-4C3.86-4 7-7.14 7-11 7-14.86 3.86-18 0-18-3.86-18-7-14.86-7-11-7-7.14-3.86-4 0-4" />
<path transform="matrix(1,0,0,-1,0,2623.16)" d="M629.88 2224.44H625.88V2220.44H629.88Z" />
<path transform="matrix(1,0,0,-1,0,2623.16)" d="M649.88 2224.44H631.88V2220.44H649.88Z" />
</g></g></svg>