<svg xmlns="http://www.w3.org/2000/svg" viewBox="0 0 52 42" width="52" height="42"><defs>
<clipPath id="clip_1">
<path transform="matrix(1,0,0,-1,0,2623.16)" d="M0 2623.16H2938.83V0H0Z" />
</clipPath>
<clipPath id="clip_2">
<path transform="matrix(1,0,0,-1,0,2623.16)" d="M0 2623.16H2938.83V0H0Z" />
</clipPath>
<clipPath id="clip_3">
<path transform="matrix(1,0,0,-1,0,2623.16)" d="M0 2623.16H2938.83V0H0Z" />
</clipPath>
</defs>
<g transform="translate(-1361 -2149)"><g clip-path="url(#clip_1)"><path transform="matrix(1,0,0,-1,1388.29,2180.35)" d="M0 0 3.17 3.17C3.95 3.95 3.95 5.22 3.17 6 2.39 6.78 1.12 6.78 .344 6L-2.83 2.83-6 6C-6.78 6.78-8.05 6.78-8.83 6-9.61 5.22-9.61 3.95-8.83 3.17L-5.66 0-8.83-3.17C-9.61-3.95-9.61-5.22-8.83-6-8.05-6.78-6.78-6.78-6-6L-2.83-2.83 .344-6C1.13-6.78 2.39-6.78 3.17-6 3.95-5.22 3.95-3.95 3.17-3.17Z" />
<path transform="matrix(1,0,0,-1,1374.28,2181.55)" d="M0 0C-2.72 .75-4.67 3.37-4.38 6.39-4.12 8.95-2.13 10.99 .358 11.63L1.64 11.96 1.6 13.79C1.6 19.63 6.64 24.32 12.6 23.74 17.79 23.23 21.6 18.56 21.6 13.34V11.79H25.36C28.26 11.79 30.93 9.83 31.48 6.98 32.22 3.15 29.3-.214 25.6-.214H23.6C22.49-.214 21.6-1.11 21.6-2.21 21.6-3.32 22.49-4.21 23.6-4.21H25.6C32.2-4.21 37.34 2.23 35.04 9.16 33.71 13.17 29.82 15.79 25.6 15.79H25.45C24.48 22.56 18.64 27.79 11.6 27.79 4.27 27.79-1.77 22.12-2.36 14.94-5.98 13.39-8.4 9.81-8.4 5.79-8.4 1.13-5.21-2.79-.902-3.9 .36-4.22 1.6-3.26 1.6-1.95 1.6-1.11 1.01-.276 .002 0Z" />
</g></g></svg>