<svg xmlns="http://www.w3.org/2000/svg" viewBox="0 0 44 44" width="44" height="44"><defs>
<clipPath id="clip_1">
<path transform="matrix(1,0,0,-1,0,2623.16)" d="M0 2623.16H2938.83V0H0Z" />
</clipPath>
<clipPath id="clip_2">
<path transform="matrix(1,0,0,-1,0,2623.16)" d="M0 2623.16H2938.83V0H0Z" />
</clipPath>
<clipPath id="clip_3">
<path transform="matrix(1,0,0,-1,0,2623.16)" d="M0 2623.16H2938.83V0H0Z" />
</clipPath>
</defs>
<g transform="translate(-519 -774)"><g clip-path="url(#clip_1)"><path transform="matrix(1,0,0,-1,527.88,792.72)" d="M0 0C0 5.51 4.49 10 10 10 15.51 10 20 5.51 20 0 20-5.51 15.51-10 10-10 4.49-10 0-5.51 0 0M31.41-18.59 21.2-8.37C22.95-6.04 24-3.14 24 0 24 7.73 17.73 14 10 14 2.27 14-4 7.73-4 0-4-7.73 2.27-14 10-14 13.14-14 16.04-12.95 18.37-11.2L28.59-21.41Z" />
</g></g></svg>