<svg xmlns="http://www.w3.org/2000/svg" viewBox="0 0 40 46" width="40" height="46"><defs>
<clipPath id="clip_1">
<path transform="matrix(1,0,0,-1,0,2623.16)" d="M0 2623.16H2938.83V0H0Z" />
</clipPath>
<clipPath id="clip_2">
<path transform="matrix(1,0,0,-1,0,2623.16)" d="M0 2623.16H2938.83V0H0Z" />
</clipPath>
<clipPath id="clip_3">
<path transform="matrix(1,0,0,-1,0,2623.16)" d="M0 2623.16H2938.83V0H0Z" />
</clipPath>
</defs>
<g transform="translate(-639 -2147)"><g clip-path="url(#clip_1)"><path transform="matrix(1,0,0,-1,662.22,2151.76)" d="M0 0H-10.34C-14.76 0-18.34-3.58-18.34-8V-30C-18.34-34.42-14.76-38-10.34-38H5.66C10.07-38 13.66-34.42 13.66-30V-13.66C13.66-12.6 13.23-11.58 12.48-10.83L2.83-1.17C2.08-.422 1.06 0 0 0M1.66-5.66 8-12H3.66C2.55-12 1.66-11.1 1.66-10ZM5.66-34H-10.34C-12.55-34-14.34-32.21-14.34-30V-8C-14.34-5.79-12.55-4-10.34-4H-2.34V-12C-2.34-14.21-.554-16 1.66-16H9.66V-30C9.66-32.21 7.87-34 5.66-34" />
<path transform="matrix(1,0,0,-1,653.87,2175.76)" d="M0 0H12C13.1 0 14 .896 14 2 14 3.1 13.1 4 12 4H0C-1.1 4-2 3.1-2 2-2 .896-1.1 0 0 0" />
<path transform="matrix(1,0,0,-1,665.87,2177.76)" d="M0 0H-12C-13.1 0-14-.896-14-2-14-3.1-13.1-4-12-4H0C1.1-4 2-3.1 2-2 2-.896 1.1 0 0 0" />
</g></g></svg>