<svg xmlns="http://www.w3.org/2000/svg" viewBox="0 0 48 50" width="48" height="50"><defs>
<clipPath id="clip_1">
<path transform="matrix(1,0,0,-1,0,2623.16)" d="M0 2623.16H2938.83V0H0Z" />
</clipPath>
<clipPath id="clip_2">
<path transform="matrix(1,0,0,-1,0,2623.16)" d="M0 2623.16H2938.83V0H0Z" />
</clipPath>
<clipPath id="clip_3">
<path transform="matrix(1,0,0,-1,0,2623.16)" d="M0 2623.16H2938.83V0H0Z" />
</clipPath>
</defs>
<g transform="translate(-2091 -1835)"><g clip-path="url(#clip_1)"><path transform="matrix(1,0,0,-1,2135.05,1866.74)" d="M0 0-.898 1.54C-1.46 2.5-2.69 2.82-3.64 2.25-4.59 1.69-4.91 .476-4.35-.474L-3.46-2.01C-2.93-2.92-3.28-3.72-3.45-4.02-3.62-4.32-4.14-5.02-5.18-5.02H-17.52L-15.27-2.77C-14.49-1.99-14.49-.724-15.27 .056-16.05 .838-17.32 .838-18.1 .056L-23.76-5.61C-24.54-6.39-24.54-7.65-23.76-8.43L-18.1-14.1C-17.32-14.88-16.05-14.88-15.27-14.1-14.49-13.31-14.49-12.05-15.27-11.27L-17.52-9.02H-5.18C-.554-9.02 2.33-4 0 0" />
<path transform="matrix(1,0,0,-1,2130.52,1848.9)" d="M0 0C-1.07 .282-2.16-.356-2.44-1.42L-3.25-4.5-9.47 6.17C-10.63 8.15-12.64 9.14-14.65 9.14-16.66 9.14-18.68 8.15-19.83 6.17L-20.84 4.44C-21.4 3.48-21.08 2.26-20.12 1.7-19.17 1.15-17.94 1.47-17.39 2.43L-16.38 4.15C-15.86 5.05-15 5.15-14.65 5.15-14.3 5.15-13.45 5.05-12.92 4.15L-6.71-6.51-9.78-5.7C-10.85-5.42-11.94-6.06-12.22-7.12-12.51-8.19-11.87-9.29-10.8-9.57L-3.06-11.61C-1.99-11.89-.894-11.25-.612-10.18L1.43-2.44C1.71-1.37 1.07-.278 .004 .004Z" />
<path transform="matrix(1,0,0,-1,2099.73,1857.07)" d="M0 0C-1.07-.282-2.16 .356-2.44 1.42-2.73 2.49-2.09 3.59-1.02 3.87L6.72 5.91C7.79 6.19 8.89 5.55 9.17 4.48L11.21-3.26C11.49-4.33 10.85-5.42 9.78-5.7 8.72-5.99 7.62-5.35 7.34-4.28L6.53-1.21 .424-11.68C-.102-12.58 .244-13.38 .418-13.68 .592-13.98 1.11-14.69 2.15-14.69H4.14C5.25-14.69 6.14-15.58 6.14-16.69 6.14-17.79 5.25-18.69 4.14-18.69H2.15C-2.48-18.69-5.36-13.67-3.03-9.67L3.08 .808 .004-.002Z" />
</g></g></svg>