<svg xmlns="http://www.w3.org/2000/svg" viewBox="0 0 52 52" width="52" height="52"><defs>
<clipPath id="clip_1">
<path transform="matrix(1,0,0,-1,0,2623.16)" d="M0 2623.16H2938.83V0H0Z" />
</clipPath>
<clipPath id="clip_2">
<path transform="matrix(1,0,0,-1,0,2623.16)" d="M0 2623.16H2938.83V0H0Z" />
</clipPath>
<clipPath id="clip_3">
<path transform="matrix(1,0,0,-1,0,2623.16)" d="M0 2623.16H2938.83V0H0Z" />
</clipPath>
</defs>
<g transform="translate(-1569 -1729)"><g clip-path="url(#clip_1)"><path transform="matrix(1,0,0,-1,1583.87,1745.76)" d="M0 0C3.31 0 6 2.69 6 6 6 9.31 3.31 12 0 12-3.31 12-6 9.31-6 6-6 2.69-3.31 0 0 0M0 8C1.1 8 2 7.1 2 6 2 4.9 1.1 4 0 4-1.1 4-2 4.9-2 6-2 7.1-1.1 8 0 8" />
<path transform="matrix(1,0,0,-1,1589.87,1747.76)" d="M0 0H-12C-14.21 0-16-1.79-16-4V-12C-16-14.61-14.33-16.83-12-17.66V-28C-12-29.11-11.11-30-10-30-8.89-30-8-29.11-8-28V-16C-8-14.89-8.89-14-10-14-11.11-14-12-13.1-12-12V-4H0V-12C0-13.1-.896-14-2-14-3.1-14-4-14.89-4-16V-28C-4-29.11-3.11-30-2-30-.894-30 0-29.11 0-28V-17.66C2.33-16.83 4-14.61 4-12V-4C4-1.79 2.21 0 0 0" />
<path transform="matrix(1,0,0,-1,1607.87,1745.76)" d="M0 0C3.31 0 6 2.69 6 6 6 9.31 3.31 12 0 12-3.31 12-6 9.31-6 6-6 2.69-3.31 0 0 0M0 8C1.1 8 2 7.1 2 6 2 4.9 1.1 4 0 4-1.1 4-2 4.9-2 6-2 7.1-1.1 8 0 8" />
<path transform="matrix(1,0,0,-1,1617.62,1765.32)" d="M0 0-1.36 12.22C-1.7 15.26-4.26 17.56-7.32 17.56H-12.16C-15.22 17.56-17.79 15.26-18.12 12.22L-19.48-.002C-19.61-1.13-19.25-2.26-18.49-3.11-17.78-3.9-16.79-4.37-15.74-4.43V-10.44C-15.74-11.55-14.85-12.44-13.74-12.44-12.64-12.44-11.74-11.55-11.74-10.44V-2.44C-11.74-1.34-12.64-.442-13.74-.442H-15.51L-14.15 11.78C-14.04 12.79-13.18 13.56-12.16 13.56H-7.32C-6.3 13.56-5.45 12.79-5.34 11.78L-3.98-.442H-5.74C-6.85-.442-7.74-1.34-7.74-2.44V-10.44C-7.74-11.55-6.85-12.44-5.74-12.44-4.64-12.44-3.74-11.55-3.74-10.44V-4.43C-2.69-4.37-1.7-3.9-.996-3.11-.238-2.26 .126-1.13 0 0" />
</g></g></svg>