<svg xmlns="http://www.w3.org/2000/svg" viewBox="0 0 52 42" width="52" height="42"><defs>
<clipPath id="clip_1">
<path transform="matrix(1,0,0,-1,0,2623.16)" d="M0 2623.16H2938.83V0H0Z" />
</clipPath>
<clipPath id="clip_2">
<path transform="matrix(1,0,0,-1,0,2623.16)" d="M0 2623.16H2938.83V0H0Z" />
</clipPath>
<clipPath id="clip_3">
<path transform="matrix(1,0,0,-1,0,2623.16)" d="M0 2623.16H2938.83V0H0Z" />
</clipPath>
</defs>
<g transform="translate(-2401 -1837)"><g clip-path="url(#clip_1)"><path transform="matrix(1,0,0,-1,2447.87,1857.76)" d="M0 0V2C0 3.1-.896 4-2 4H-38C-39.1 4-40 3.1-40 2V0H-42V-4L-40-6V-12.23C-40-15.42-37.42-18-34.23-18H-5.77C-2.58-18 .002-15.42 .002-12.23V-6L2-4V0ZM-4-12.23C-4-13.2-4.79-14-5.77-14H-34.23C-35.21-14-36-13.21-36-12.23V0H-4Z" />
<path transform="matrix(1,0,0,-1,2409.87,1851.76)" d="M0 0H36C37.1 0 38 .896 38 2 38 3.1 37.1 4 36 4H25.72C24.82 7.44 21.72 10 18 10 14.28 10 11.18 7.44 10.28 4H0C-1.1 4-2 3.1-2 2-2 .896-1.1 0 0 0M18 6C19.47 6 20.75 5.19 21.44 4H14.56C15.25 5.19 16.53 6 18 6" />
</g></g></svg>