<svg xmlns="http://www.w3.org/2000/svg" viewBox="0 0 44 49" width="44" height="49"><defs>
<clipPath id="clip_1">
<path transform="matrix(1,0,0,-1,0,2623.16)" d="M0 2623.16H2938.83V0H0Z" />
</clipPath>
<clipPath id="clip_2">
<path transform="matrix(1,0,0,-1,0,2623.16)" d="M0 2623.16H2938.83V0H0Z" />
</clipPath>
<clipPath id="clip_3">
<path transform="matrix(1,0,0,-1,0,2623.16)" d="M0 2623.16H2938.83V0H0Z" />
</clipPath>
</defs>
<g transform="translate(-2717 -1107)"><g clip-path="url(#clip_1)"><path transform="matrix(1,0,0,-1,2745.87,1116.81)" d="M0 0V-4.32C4.72-6.57 8-11.38 8-16.95 8-24.67 1.72-30.95-6-30.95-13.72-30.95-20-24.67-20-16.95-20-11.38-16.72-6.57-12-4.32V0C-18.98-2.48-24-9.13-24-16.95-24-26.88-15.93-34.95-6-34.95 3.93-34.95 12-26.88 12-16.95 12-9.13 6.98-2.48 0 0" />
<path transform="matrix(1,0,0,-1,0,2623.16)" d="M2737.87 1493.4H2741.87V1511.4H2737.87Z" />
</g></g></svg>