<svg xmlns="http://www.w3.org/2000/svg" viewBox="0 0 28 53" width="28" height="53"><defs>
<clipPath id="clip_1">
<path transform="matrix(1,0,0,-1,0,2623.16)" d="M0 2623.16H2938.83V0H0Z" />
</clipPath>
<clipPath id="clip_2">
<path transform="matrix(1,0,0,-1,0,2623.16)" d="M0 2623.16H2938.83V0H0Z" />
</clipPath>
<clipPath id="clip_3">
<path transform="matrix(1,0,0,-1,0,2623.16)" d="M0 2623.16H2938.83V0H0Z" />
</clipPath>
</defs>
<g transform="translate(-1998 -2041)"><g clip-path="url(#clip_1)"><path transform="matrix(1,0,0,-1,2013.88,2059.76)" d="M0 0V7.76C0 10.67-1.96 13.34-4.82 13.89-7.57 14.41-10.08 13.05-11.27 10.87-11.98 9.57-10.93 8-9.46 8-8.77 8-8.09 8.33-7.77 8.93-7.43 9.57-6.77 10-6 10-4.89 10-4 9.1-4 8V0H-7.81C-10.13 0-12.01-1.98-11.8-4.3-10.71-16.05-5.49-24.45-4-26.63V-28C-4-29.1-3.1-30-2-30-.894-30 .002-29.1 .002-28V-26.63C1.49-24.45 6.72-16.05 7.8-4.3 8.02-1.98 6.13 0 3.81 0ZM-4-18.26C-5.5-14.89-7.03-10.39-7.67-5.13-7.75-4.54-7.27-4-6.67-4H-4ZM0-18.26V-4H2.67C3.27-4 3.75-4.53 3.67-5.13 3.03-10.39 1.5-14.89 0-18.26" />
</g></g></svg>