<svg xmlns="http://www.w3.org/2000/svg" viewBox="0 0 52 38" width="52" height="38"><defs>
<clipPath id="clip_1">
<path transform="matrix(1,0,0,-1,0,2623.16)" d="M0 2623.16H2938.83V0H0Z" />
</clipPath>
<clipPath id="clip_2">
<path transform="matrix(1,0,0,-1,0,2623.16)" d="M0 2623.16H2938.83V0H0Z" />
</clipPath>
<clipPath id="clip_3">
<path transform="matrix(1,0,0,-1,0,2623.16)" d="M0 2623.16H2938.83V0H0Z" />
</clipPath>
</defs>
<g transform="translate(-2713 -2049)"><g clip-path="url(#clip_1)"><path transform="matrix(1,0,0,-1,2759.87,2069.32)" d="M0 0V7.56C0 11.98-3.58 15.56-8 15.56H-32C-36.42 15.56-40 11.98-40 7.56V0C-41.22-1.1-42-2.67-42-4.44V-8.44C-42-9.55-41.1-10.44-40-10.44H-38V-12.44C-38-13.55-37.1-14.44-36-14.44-34.9-14.44-34-13.55-34-12.44V-10.44H-6V-12.44C-6-13.55-5.1-14.44-4-14.44-2.9-14.44-2-13.55-2-12.44V-10.44H0C1.1-10.44 2-9.55 2-8.44V-4.44C2-2.67 1.22-1.1 0 0M-36 7.56C-36 9.77-34.21 11.56-32 11.56H-8C-5.79 11.56-4 9.77-4 7.56V1.56H-6V3.56C-6 5.77-7.79 7.56-10 7.56H-18C-18.73 7.56-19.41 7.35-20 7-20.59 7.35-21.27 7.56-22 7.56H-30C-32.21 7.56-34 5.77-34 3.56V1.56H-36ZM-22 1.56H-30V3.56H-22ZM-10 1.56H-18V3.56H-10ZM-38-6.44V-4.44C-38-3.34-37.1-2.44-36-2.44H-4C-2.9-2.44-2-3.34-2-4.44V-6.44Z" />
</g></g></svg>