<svg xmlns="http://www.w3.org/2000/svg" viewBox="0 0 145 119" width="145" height="119"><defs>
<clipPath id="clip_1">
<path transform="matrix(1,0,0,-1,0,2623.16)" d="M0 2623.16H2938.83V0H0Z" />
</clipPath>
<clipPath id="clip_2">
<path transform="matrix(1,0,0,-1,0,2623.16)" d="M0 2623.16H2938.83V0H0Z" />
</clipPath>
<clipPath id="clip_3">
<path transform="matrix(1,0,0,-1,0,2623.16)" d="M0 2623.16H2938.83V0H0Z" />
</clipPath>
</defs>
<g transform="translate(-1615 -370)"><g clip-path="url(#clip_2)"><path transform="matrix(1,0,0,-1,1678.08,438.48)" d="M0 0C-13.94-1.14-24.49-12.15-25.38-26.04-25.5-27.98-25.8-32.64-24.33-33.87-23.34-34.69-18.48-35.33-16.89-35.57-.738-38.11 16.22-38.22 32.44-36.15 35.25-35.79 40.21-35.3 42.73-34.45 45.72-33.45 45.09-28.45 44.9-25.77 43.92-11.63 32.88-.799 18.78 .097 13.4 .439 5.35 .438 0 0M7.42 55.99C-11.28 54.19-20.89 31.7-8.79 17.09 4.46 1.09 30.27 8.15 33.4 28.59 35.75 43.92 22.85 57.47 7.42 55.99M28.91 6.65 36.02 3.06C48.17-4.36 54.23-17.62 53.2-31.77 52.34-43.67 39.4-43.7 30.16-44.73 15.13-46.39-.217-46.18-15.18-44.15-27.84-42.43-34.35-41.44-33.66-26.61-33.35-19.9-31.36-13.09-27.6-7.54-23.11-.908-16.81 3.66-9.37 6.51-26.79 19.09-26.55 45.66-9.05 58.18 5.53 68.62 25.67 65.34 36 50.73 45.88 36.76 43.06 16.47 28.91 6.65" />
<path transform="matrix(1,0,0,-1,1740.22,464.78)" d="M0 0C1.78 1.67 5.85 1 7.05 2.23 8.06 3.27 7.55 8.07 7.3 9.64 6.01 17.66-1.19 25.88-8.95 28.24-11.51 29.01-15.05 28.71-15.5 32.26-16.07 36.72-11.54 37.03-8.69 39.12 .371 45.77 1.11 59.73-7.39 67.22-9.39 68.98-14.32 70.67-15.1 72.65-16.04 75.02-14.55 78.01-11.93 78.34-10.18 78.57-7.92 77.37-6.38 76.52 9.12 67.87 11.37 45.98-1.81 34.23 7.04 29.46 14.68 19.89 15.57 9.63 16.05 4.16 16.27-2.24 10.84-5.27 8.92-6.34 3.14-7.57 1.12-6.82-1.53-5.83-2.03-1.9 0 0" />
<path transform="matrix(1,0,0,-1,1645.78,386.48)" d="M0 0C4.63 .888 6.95-4.92 3.2-7.48 1.12-8.9-1.05-9.38-3.2-11.37-11.76-19.26-10.46-33.47-.755-39.75 1.99-41.53 5.93-41.92 5.15-46.28 4.54-49.71 .589-49.4-2-50.27-9.26-52.7-16.13-60.63-17.51-68.19-17.81-69.84-18.2-73.6-17.86-75.14-17.2-78.08-10.71-75.68-9.29-79.99-8.06-83.69-10.97-85.6-14.35-85.33-24.95-84.5-26.6-78.78-25.93-69.19-25.2-58.71-17.51-48.93-8.5-44.06-21.5-32.48-19.51-11.01-4.47-2.1-3.47-1.5-1.05-.201 0 0" />
</g></g></svg>