<svg xmlns="http://www.w3.org/2000/svg" viewBox="0 0 44 38" width="44" height="38"><defs>
<clipPath id="clip_1">
<path transform="matrix(1,0,0,-1,0,2623.16)" d="M0 2623.16H2938.83V0H0Z" />
</clipPath>
<clipPath id="clip_2">
<path transform="matrix(1,0,0,-1,0,2623.16)" d="M0 2623.16H2938.83V0H0Z" />
</clipPath>
<clipPath id="clip_3">
<path transform="matrix(1,0,0,-1,0,2623.16)" d="M0 2623.16H2938.83V0H0Z" />
</clipPath>
</defs>
<g transform="translate(-903 -682)"><g clip-path="url(#clip_1)"><path transform="matrix(1,0,0,-1,0,2623.16)" d="M939.88 1914.44H911.88V1918.44H939.88ZM929.88 1922.44H921.88V1924.44H929.88ZM914.88 1932.44H936.88C937.43 1932.44 937.88 1931.99 937.88 1931.44V1922.44H933.88V1924.44C933.88 1926.65 932.09 1928.44 929.88 1928.44H921.88C919.66 1928.44 917.88 1926.65 917.88 1924.44V1922.44H913.88V1931.44C913.88 1931.99 914.32 1932.44 914.88 1932.44M941.88 1922.44V1932.44C941.88 1934.64 940.08 1936.44 937.88 1936.44H913.88C911.67 1936.44 909.88 1934.64 909.88 1932.44V1922.44H907.88V1910.44H911.88V1906.44H915.88V1910.44H935.88V1906.44H939.88V1910.44H943.88V1922.44Z" />
</g></g></svg>