<svg xmlns="http://www.w3.org/2000/svg" viewBox="0 0 53 42" width="53" height="42"><defs>
<clipPath id="clip_1">
<path transform="matrix(1,0,0,-1,0,2623.16)" d="M0 2623.16H2938.83V0H0Z" />
</clipPath>
<clipPath id="clip_2">
<path transform="matrix(1,0,0,-1,0,2623.16)" d="M0 2623.16H2938.83V0H0Z" />
</clipPath>
<clipPath id="clip_3">
<path transform="matrix(1,0,0,-1,0,2623.16)" d="M0 2623.16H2938.83V0H0Z" />
</clipPath>
</defs>
<g transform="translate(-737 -1213)"><g clip-path="url(#clip_1)"><path transform="matrix(1,0,0,-1,775.75,1240.74)" d="M0 0C.544 2.14-.752 4.32-2.89 4.86L-12.37 7.27-17.88 22.98H-21.88V9.68L-27.88 10.99-29.88 14.99H-33.88V4.99L-4.86-2.89C-2.72-3.43-.546-2.14-.002 .004Z" />
<path transform="matrix(1,0,0,-1,0,2623.16)" d="M751.88 1371.4H785.88V1375.4H751.88Z" />
</g></g></svg>