<svg xmlns="http://www.w3.org/2000/svg" viewBox="0 0 52 32" width="52" height="32"><defs>
<clipPath id="clip_1">
<path transform="matrix(1,0,0,-1,0,2623.16)" d="M0 2623.16H2938.83V0H0Z" />
</clipPath>
<clipPath id="clip_2">
<path transform="matrix(1,0,0,-1,0,2623.16)" d="M0 2623.16H2938.83V0H0Z" />
</clipPath>
<clipPath id="clip_3">
<path transform="matrix(1,0,0,-1,0,2623.16)" d="M0 2623.16H2938.83V0H0Z" />
</clipPath>
</defs>
<g transform="translate(-1049 -1635)"><g clip-path="url(#clip_1)"><path transform="matrix(1,0,0,-1,0,2623.16)" d="M1059.87 965.4H1061.87V977.4H1059.87Z" />
<path transform="matrix(1,0,0,-1,1095.87,1643.76)" d="M0 0V4H-42V-20H0V-16H2V0ZM-4-16H-38V0H-4Z" />
</g></g></svg>