<svg xmlns="http://www.w3.org/2000/svg" viewBox="0 0 52 48" width="52" height="48"><defs>
<clipPath id="clip_1">
<path transform="matrix(1,0,0,-1,0,2623.16)" d="M0 2623.16H2938.83V0H0Z" />
</clipPath>
<clipPath id="clip_2">
<path transform="matrix(1,0,0,-1,0,2623.16)" d="M0 2623.16H2938.83V0H0Z" />
</clipPath>
<clipPath id="clip_3">
<path transform="matrix(1,0,0,-1,0,2623.16)" d="M0 2623.16H2938.83V0H0Z" />
</clipPath>
</defs>
<g transform="translate(-1881 -1733)"><g clip-path="url(#clip_1)"><path transform="matrix(1,0,0,-1,1903.87,1757.76)" d="M0 0-4-10V-12H2L0-20H2L10-10V-8H6L10 0Z" />
<path transform="matrix(1,0,0,-1,1919.87,1749.76)" d="M0 0H-.142C-1.11 6.78-6.96 12-14 12-21.33 12-27.36 6.34-27.95-.842-31.58-2.4-34-5.97-34-10-34-15.51-29.51-20-24-20-22.9-20-22-19.1-22-18-22-16.9-22.9-16-24-16-27.31-16-30-13.31-30-10-30-7.28-28.14-4.9-25.49-4.22L-23.95-3.82-24-2C-24 3.51-19.51 8-14 8-8.48 8-4 3.51-4-2V-4H.002C3.31-4 6-6.69 6-10 6-13.31 3.31-16 .002-16-1.1-16-2-16.9-2-18-2-19.1-1.1-20 .002-20 5.52-20 10-15.51 10-10 10-4.49 5.51 0 0 0" />
</g></g></svg>