<svg xmlns="http://www.w3.org/2000/svg" viewBox="0 0 50 38" width="50" height="38"><defs>
<clipPath id="clip_1">
<path transform="matrix(1,0,0,-1,0,2623.16)" d="M0 2623.16H2938.83V0H0Z" />
</clipPath>
<clipPath id="clip_2">
<path transform="matrix(1,0,0,-1,0,2623.16)" d="M0 2623.16H2938.83V0H0Z" />
</clipPath>
<clipPath id="clip_3">
<path transform="matrix(1,0,0,-1,0,2623.16)" d="M0 2623.16H2938.83V0H0Z" />
</clipPath>
</defs>
<g transform="translate(-531 -1735)"><g clip-path="url(#clip_1)"><path transform="matrix(1,0,0,-1,565.87,1739.76)" d="M0 0C-1.1 0-2-.896-2-2-2-3.1-1.1-4 0-4 4.41-4 8-7.59 8-12 8-16.41 4.41-20 0-20H-28C-29.1-20-30-20.9-30-22-30-23.1-29.1-24-28-24H0C6.62-24 12-18.62 12-12 12-5.38 6.62 0 0 0" />
<path transform="matrix(1,0,0,-1,539.87,1757.76)" d="M0 0H19.38C22.68 0 25.38 2.69 25.38 6 25.38 9.31 22.68 12 19.38 12H16C14.9 12 14 11.1 14 10 14 8.9 14.9 8 16 8H19.38C20.48 8 21.38 7.1 21.38 6 21.38 4.9 20.48 4 19.38 4H0C-1.1 4-2 3.1-2 2-2 .896-1.1 0 0 0" />
<path transform="matrix(1,0,0,-1,559.87,1765.76)" d="M0 0H-20C-21.1 0-22-.896-22-2-22-3.1-21.1-4-20-4H0C1.1-4 2-3.1 2-2 2-.896 1.1 0 0 0" />
</g></g></svg>