<svg xmlns="http://www.w3.org/2000/svg" viewBox="0 0 48 45" width="48" height="45"><defs>
<clipPath id="clip_1">
<path transform="matrix(1,0,0,-1,0,2623.16)" d="M0 2623.16H2938.83V0H0Z" />
</clipPath>
<clipPath id="clip_2">
<path transform="matrix(1,0,0,-1,0,2623.16)" d="M0 2623.16H2938.83V0H0Z" />
</clipPath>
<clipPath id="clip_3">
<path transform="matrix(1,0,0,-1,0,2623.16)" d="M0 2623.16H2938.83V0H0Z" />
</clipPath>
</defs>
<g transform="translate(-1051 -1940)"><g clip-path="url(#clip_1)"><path transform="matrix(1,0,0,-1,1089.87,1959.76)" d="M0 0H-4V-2.28C-7.44-3.17-10-6.28-10-10-10-14.42-6.42-18-2-18 2.42-18 6-14.42 6-10 6-6.28 3.44-3.18 0-2.28ZM-2-14C-4.21-14-6-12.21-6-10-6-7.79-4.21-6-2-6 .206-6 2-7.79 2-10 2-12.21 .206-14-2-14" />
<path transform="matrix(1,0,0,-1,1063.87,1965.76)" d="M0 0C1.33 0 2.57-.686 3.31-1.84L3.78-2.56-1.47-7.81-2.18-7.34C-3.32-6.6-4-5.35-4-4-4-1.79-2.21 0-.002 0M27.17 20.83 22.74 16.41C21.41 17.4 19.78 18 18 18 16.9 18 16 17.1 16 16 16 14.9 16.9 14 18 14 18.67 14 19.3 13.82 19.86 13.52L16.33 10H2C.896 10 0 9.1 0 8 0 6.9 .896 6 2 6H12.33L6.67 .34C5.25 2.53 2.81 4 0 4-4.42 4-8 .418-8-4-8-6.81-6.55-9.27-4.36-10.69L-6.83-13.17-4-16 30 18Z" />
</g></g></svg>