<svg xmlns="http://www.w3.org/2000/svg" viewBox="0 0 52 43" width="52" height="43"><defs>
<clipPath id="clip_1">
<path transform="matrix(1,0,0,-1,0,2623.16)" d="M0 2623.16H2938.83V0H0Z" />
</clipPath>
<clipPath id="clip_2">
<path transform="matrix(1,0,0,-1,0,2623.16)" d="M0 2623.16H2938.83V0H0Z" />
</clipPath>
<clipPath id="clip_3">
<path transform="matrix(1,0,0,-1,0,2623.16)" d="M0 2623.16H2938.83V0H0Z" />
</clipPath>
</defs>
<g transform="translate(-899 -389)"><g clip-path="url(#clip_1)"><path transform="matrix(1,0,0,-1,941.37,402.89)" d="M0 0-2.81-2.81C-.128-5.34 1.45-8.21 2.19-9.83 .654-13.17-4.39-21.83-15.5-21.83-17.54-21.83-19.38-21.53-21.03-21.03L-24.15-24.15C-21.68-25.17-18.82-25.83-15.5-25.83 1.16-25.83 6.5-9.83 6.5-9.83 6.5-9.83 4.71-4.51 0 0" />
<path transform="matrix(1,0,0,-1,925.88,420.72)" d="M0 0C4.41 0 8 3.59 8 8 8 8.71 7.88 9.38 7.7 10.04L-2.04 .294C-1.38 .12-.71-.002-.002-.002Z" />
<path transform="matrix(1,0,0,-1,925.88,404.72)" d="M0 0C-4.41 0-8-3.59-8-8-8-8.71-7.88-9.38-7.7-10.04L-12.67-15C-15.36-12.48-16.94-9.62-17.68-8-16.15-4.65-11.11 4 .002 4 2.05 4 3.87 3.69 5.52 3.19L2.04-.292C1.39-.118 .712 .004 .004 .004ZM13.17 10.83 8.66 6.33C6.19 7.35 3.33 8 0 8-16.65 8-22-8-22-8-22-8-20.2-13.32-15.5-17.83L-18.83-21.17-16-24 16 8Z" />
</g></g></svg>