<svg xmlns="http://www.w3.org/2000/svg" viewBox="0 0 43 43" width="43" height="43"><defs>
<clipPath id="clip_1">
<path transform="matrix(1,0,0,-1,0,2623.16)" d="M0 2623.16H2938.83V0H0Z" />
</clipPath>
<clipPath id="clip_2">
<path transform="matrix(1,0,0,-1,0,2623.16)" d="M0 2623.16H2938.83V0H0Z" />
</clipPath>
<clipPath id="clip_3">
<path transform="matrix(1,0,0,-1,0,2623.16)" d="M0 2623.16H2938.83V0H0Z" />
</clipPath>
</defs>
<g transform="translate(-2094 -1734)"><g clip-path="url(#clip_1)"><path transform="matrix(1,0,0,-1,2116.37,1746.26)" d="M0 0-7.09 7.09C-7.87 7.87-9.13 7.87-9.91 7.09L-17 0C-17.83-.828-17.83-2.17-17-3-16.17-3.83-14.83-3.83-14-3L-10.5 .5V-15.5C-10.5-16.6-9.6-17.5-8.5-17.5-7.4-17.5-6.5-16.6-6.5-15.5V.5L-3-3C-2.17-3.83-.828-3.83 0-3 .828-2.17 .828-.828 0 0" />
<path transform="matrix(1,0,0,-1,2132.37,1762.26)" d="M0 0C-.828 .828-2.17 .828-3 0L-6.5-3.5V12.5C-6.5 13.6-7.4 14.5-8.5 14.5-9.6 14.5-10.5 13.6-10.5 12.5V-3.5L-14 0C-14.83 .828-16.17 .828-17 0-17.83-.828-17.83-2.17-17-3L-9.91-10.09C-9.13-10.87-7.87-10.87-7.09-10.09L0-3C.828-2.17 .828-.828 0 0" />
</g></g></svg>