<svg xmlns="http://www.w3.org/2000/svg" viewBox="0 0 48 42" width="48" height="42"><defs>
<clipPath id="clip_1">
<path transform="matrix(1,0,0,-1,0,2623.16)" d="M0 2623.16H2938.83V0H0Z" />
</clipPath>
<clipPath id="clip_2">
<path transform="matrix(1,0,0,-1,0,2623.16)" d="M0 2623.16H2938.83V0H0Z" />
</clipPath>
<clipPath id="clip_3">
<path transform="matrix(1,0,0,-1,0,2623.16)" d="M0 2623.16H2938.83V0H0Z" />
</clipPath>
</defs>
<g transform="translate(-2195 -2149)"><g clip-path="url(#clip_1)"><path transform="matrix(1,0,0,-1,2231.87,2187.76)" d="M0 0H-24C-28.42 0-32 3.58-32 8V22C-32 26.42-28.42 30-24 30H-23.24L-22.34 31.79C-21.66 33.14-20.28 34-18.76 34H-5.24C-3.72 34-2.34 33.14-1.66 31.79L-.764 30H0C4.42 30 8 26.42 8 22V8C8 3.58 4.42 0 0 0M-24 4H0C2.21 4 4 5.79 4 8V22C4 24.21 2.21 26 0 26H-3.24L-4.68 28.89C-5.02 29.57-5.72 30-6.47 30H-17.53C-18.29 30-18.98 29.57-19.32 28.89L-20.76 26H-24C-26.21 26-28 24.21-28 22V8C-28 5.79-26.21 4-24 4" />
<path transform="matrix(1,0,0,-1,2219.87,2181.76)" d="M0 0C-5.51 0-10 4.49-10 10-10 15.51-5.51 20 0 20 5.51 20 10 15.51 10 10 10 4.49 5.51 0 0 0M0 16C-3.31 16-6 13.31-6 10-6 6.69-3.31 4 0 4 3.31 4 6 6.69 6 10 6 13.31 3.31 16 0 16" />
</g></g></svg>