<svg xmlns="http://www.w3.org/2000/svg" viewBox="0 0 51 38" width="51" height="38"><defs>
<clipPath id="clip_1">
<path transform="matrix(1,0,0,-1,0,2623.16)" d="M0 2623.16H2938.83V0H0Z" />
</clipPath>
<clipPath id="clip_2">
<path transform="matrix(1,0,0,-1,0,2623.16)" d="M0 2623.16H2938.83V0H0Z" />
</clipPath>
<clipPath id="clip_3">
<path transform="matrix(1,0,0,-1,0,2623.16)" d="M0 2623.16H2938.83V0H0Z" />
</clipPath>
</defs>
<g transform="translate(-420 -298)"><g clip-path="url(#clip_1)"><path transform="matrix(1,0,0,-1,445.88,332.72)" d="M0 0-6.33 6.33C-2.84 9.83 2.83 9.83 6.33 6.33L-.002 0Z" />
<path transform="matrix(1,0,0,-1,455.37,323.23)" d="M0 0C-5.23 5.23-13.75 5.23-18.98 0L-23.22 4.24C-15.65 11.82-3.33 11.82 4.24 4.24Z" />
<path transform="matrix(1,0,0,-1,462.75,315.7)" d="M0 0C-9.31 9.3-24.45 9.3-33.76 0L-38 4.24C-26.36 15.89-7.4 15.89 4.24 4.24Z" />
</g></g></svg>