<svg xmlns="http://www.w3.org/2000/svg" viewBox="0 0 52 46" width="52" height="46"><defs>
<clipPath id="clip_1">
<path transform="matrix(1,0,0,-1,0,2623.16)" d="M0 2623.16H2938.83V0H0Z" />
</clipPath>
<clipPath id="clip_2">
<path transform="matrix(1,0,0,-1,0,2623.16)" d="M0 2623.16H2938.83V0H0Z" />
</clipPath>
<clipPath id="clip_3">
<path transform="matrix(1,0,0,-1,0,2623.16)" d="M0 2623.16H2938.83V0H0Z" />
</clipPath>
</defs>
<g transform="translate(-2297 -1317)"><g clip-path="url(#clip_1)"><path transform="matrix(1,0,0,-1,2333.87,1321.76)" d="M0 0C-4.66 0-7.92-1.92-10-3.78-12.08-1.92-15.34 0-20 0-26.62 0-32-5.38-32-12-32-30.08-10-37.5-10-37.5-10-37.5 12-30.08 12-12 12-5.38 6.62 0 0 0M-10-33.23C-13.32-31.87-27.74-25.2-28-12.34-28.08-7.88-24.46-4-20-4-16-4-13.4-5.77-11.85-7.39L-10-9.24-8.15-7.39C-6.6-5.77-4-4-.004-4 4.46-4 8.08-7.87 8-12.33 7.75-25.16-6.69-31.86-10-33.23" />
</g></g></svg>