<svg xmlns="http://www.w3.org/2000/svg" viewBox="0 0 52 46" width="52" height="46"><defs>
<clipPath id="clip_1">
<path transform="matrix(1,0,0,-1,0,2623.16)" d="M0 2623.16H2938.83V0H0Z" />
</clipPath>
<clipPath id="clip_2">
<path transform="matrix(1,0,0,-1,0,2623.16)" d="M0 2623.16H2938.83V0H0Z" />
</clipPath>
<clipPath id="clip_3">
<path transform="matrix(1,0,0,-1,0,2623.16)" d="M0 2623.16H2938.83V0H0Z" />
</clipPath>
</defs>
<g transform="translate(-1985 -1212)"><g clip-path="url(#clip_1)"><path transform="matrix(1,0,0,-1,2029.87,1229.76)" d="M0 0H-6V-4H-2L0-6V-10L-2-12H-6.37C-7.2-9.67-9.39-8-12-8-15.31-8-18-10.69-18-14-18-17.31-15.31-20-12-20-9.39-20-7.19-18.33-6.37-16H0L4-12V-4ZM-12-16C-13.1-16-14-15.1-14-14-14-12.9-13.1-12-12-12-10.9-12-10-12.9-10-14-10-15.1-10.9-16-12-16" />
<path transform="matrix(1,0,0,-1,2027.04,1216.93)" d="M0 0-9.43-9.43-11.17-6.83H-27.17L-37.17-14.83V-24.83L-33.17-28.83H-30.8C-30.63-29.3-30.4-29.73-30.14-30.14L-35-35-32.17-37.83 2.83-2.83ZM-21.86-21.86C-22.81-21.22-23.94-20.83-25.17-20.83-27.77-20.83-29.97-22.51-30.8-24.83H-31.51L-33.17-23.18V-16.83L-25.17-10.83H-13.17L-12.23-12.23Z" />
</g></g></svg>