<svg xmlns="http://www.w3.org/2000/svg" viewBox="0 0 48 46" width="48" height="46"><defs>
<clipPath id="clip_1">
<path transform="matrix(1,0,0,-1,0,2623.16)" d="M0 2623.16H2938.83V0H0Z" />
</clipPath>
<clipPath id="clip_2">
<path transform="matrix(1,0,0,-1,0,2623.16)" d="M0 2623.16H2938.83V0H0Z" />
</clipPath>
<clipPath id="clip_3">
<path transform="matrix(1,0,0,-1,0,2623.16)" d="M0 2623.16H2938.83V0H0Z" />
</clipPath>
</defs>
<g transform="translate(-1156 -1733)"><g clip-path="url(#clip_1)"><path transform="matrix(1,0,0,-1,1199.39,1755.06)" d="M0 0C-1.82 8.47-8.55 14.44-17.51 15.21V15.3C-17.51 16.41-18.41 17.3-19.51 17.3-20.62 17.3-21.51 16.41-21.51 15.3V15.21C-30.47 14.44-37.21 8.47-39.02 0-39.55-2.43-37.57-4.7-35.09-4.7H-21.51V-14.7C-21.51-15.8-22.41-16.7-23.51-16.7-24.28-16.7-24.95-16.26-25.28-15.63-25.6-15.02-26.28-14.7-26.97-14.7-28.46-14.7-29.48-16.3-28.76-17.6-27.56-19.77-25.05-21.12-22.31-20.58-19.46-20.02-17.51-17.36-17.51-14.46V-4.7H-3.94C-1.45-4.7 .522-2.43 0 0M-27.51 1.3V-.698H-33.76C-34.42-.698-34.93-.064-34.74 .566-33.4 4.96-30.37 8.3-26.23 10.02-27.01 7.97-27.51 5.15-27.51 1.3ZM-15.51-.698H-23.51V1.3C-23.51 4.31-23.12 11.3-19.51 11.3-15.9 11.3-15.51 4.31-15.51 1.3ZM-5.26-.698H-11.51V1.3C-11.51 5.16-12.02 7.97-12.8 10.02-8.65 8.3-5.62 4.96-4.29 .568-4.09-.062-4.6-.698-5.26-.698" />
</g></g></svg>