<svg xmlns="http://www.w3.org/2000/svg" viewBox="0 0 50 38" width="50" height="38"><defs>
<clipPath id="clip_1">
<path transform="matrix(1,0,0,-1,0,2623.16)" d="M0 2623.16H2938.83V0H0Z" />
</clipPath>
<clipPath id="clip_2">
<path transform="matrix(1,0,0,-1,0,2623.16)" d="M0 2623.16H2938.83V0H0Z" />
</clipPath>
<clipPath id="clip_3">
<path transform="matrix(1,0,0,-1,0,2623.16)" d="M0 2623.16H2938.83V0H0Z" />
</clipPath>
</defs>
<g transform="translate(-2299 -1217)"><g clip-path="url(#clip_1)"><path transform="matrix(1,0,0,-1,2344.21,1238.92)" d="M0 0H.054L-12.33 17.16H-20.33V13.16H-14.39L-11.5 9.16H-14.33L-18.33 5.16H-20.33L-24.33 9.16H-40.33V5.16H-34.63L-33.13 3.08C-37.17 2.68-40.33-.692-40.33-4.84-40.33-9.26-36.75-12.84-32.33-12.84-27.91-12.84-24.33-9.26-24.33-4.84H-14.33C-14.33-9.26-10.75-12.84-6.33-12.84-1.91-12.84 1.67-9.26 1.67-4.84 1.67-3.01 1.03-1.35 0 0M-32.33-8.84C-34.54-8.84-36.33-7.04-36.33-4.84-36.33-2.63-34.54-.838-32.33-.838-30.13-.838-28.33-2.63-28.33-4.84-28.33-7.04-30.13-8.84-32.33-8.84M-13.22-.838H-26.33L-30.33 5.16H-26.33L-22.33 1.16H-16.33L-12.33 5.16H-8.62L-7.12 3.08C-9.74 2.82-11.96 1.33-13.22-.838M-6.33-8.84C-8.54-8.84-10.33-7.04-10.33-4.84-10.33-2.63-8.54-.838-6.33-.838-4.13-.838-2.33-2.63-2.33-4.84-2.33-7.04-4.13-8.84-6.33-8.84" />
</g></g></svg>