<svg xmlns="http://www.w3.org/2000/svg" viewBox="0 0 44 44" width="44" height="44"><defs>
<clipPath id="clip_1">
<path transform="matrix(1,0,0,-1,0,2623.16)" d="M0 2623.16H2938.83V0H0Z" />
</clipPath>
<clipPath id="clip_2">
<path transform="matrix(1,0,0,-1,0,2623.16)" d="M0 2623.16H2938.83V0H0Z" />
</clipPath>
<clipPath id="clip_3">
<path transform="matrix(1,0,0,-1,0,2623.16)" d="M0 2623.16H2938.83V0H0Z" />
</clipPath>
</defs>
<g transform="translate(-949 -1837)"><g clip-path="url(#clip_1)"><path transform="matrix(1,0,0,-1,979.47,1855.51)" d="M0 0-18 13C-18.76 13.46-19.64 13.75-20.6 13.75-23.36 13.75-25.6 11.51-25.6 8.75V-17.25C-25.6-20.02-23.36-22.25-20.6-22.25-19.64-22.25-18.76-21.97-18-21.51L0-8.51C1.43-7.63 2.4-6.06 2.4-4.25 2.4-2.45 1.44-.88 0 0M-2.09-5.09-20.09-18.09C-20.24-18.19-20.41-18.25-20.6-18.25-21.15-18.25-21.6-17.81-21.6-17.25V8.75C-21.6 9.3-21.15 9.75-20.6 9.75-20.41 9.75-20.24 9.68-20.09 9.58L-2.09-3.42C-1.8-3.59-1.6-3.89-1.6-4.25-1.6-4.61-1.8-4.92-2.09-5.09" />
<path transform="matrix(1,0,0,-1,987.87,1843.76)" d="M0 0C-1.1 0-2-.896-2-2V-30C-2-31.1-1.1-32 0-32 1.1-32 2-31.1 2-30V-2C2-.896 1.1 0 0 0" />
</g></g></svg>