<svg xmlns="http://www.w3.org/2000/svg" viewBox="0 0 44 46" width="44" height="46"><defs>
<clipPath id="clip_1">
<path transform="matrix(1,0,0,-1,0,2623.16)" d="M0 2623.16H2938.83V0H0Z" />
</clipPath>
<clipPath id="clip_2">
<path transform="matrix(1,0,0,-1,0,2623.16)" d="M0 2623.16H2938.83V0H0Z" />
</clipPath>
<clipPath id="clip_3">
<path transform="matrix(1,0,0,-1,0,2623.16)" d="M0 2623.16H2938.83V0H0Z" />
</clipPath>
</defs>
<g transform="translate(-1365 -1836)"><g clip-path="url(#clip_1)"><path transform="matrix(1,0,0,-1,1393.87,1855.76)" d="M0 0V-4H4C6.21-4 8-5.79 8-8V-14C8-16.21 6.21-18 4-18H-16C-18.21-18-20-16.21-20-14V-8C-20-5.79-18.21-4-16-4H-12V0H-16C-20.42 0-24-3.58-24-8V-14C-24-18.42-20.42-22-16-22H4C8.42-22 12-18.42 12-14V-8C12-3.58 8.42 0 4 0Z" />
<path transform="matrix(1,0,0,-1,1387.87,1867.76)" d="M0 0C1.1 0 2 .896 2 2V20L6.5 15.5C7.33 14.67 8.67 14.67 9.5 15.5 10.33 16.33 10.33 17.67 9.5 18.5L1.41 26.59C.632 27.37-.634 27.37-1.41 26.59L-9.5 18.5C-10.33 17.67-10.33 16.33-9.5 15.5-8.67 14.67-7.33 14.67-6.5 15.5L-2 20V2C-2 .896-1.1 0 0 0" />
</g></g></svg>