<svg xmlns="http://www.w3.org/2000/svg" viewBox="0 0 52 44" width="52" height="44"><defs>
<clipPath id="clip_1">
<path transform="matrix(1,0,0,-1,0,2623.16)" d="M0 2623.16H2938.83V0H0Z" />
</clipPath>
<clipPath id="clip_2">
<path transform="matrix(1,0,0,-1,0,2623.16)" d="M0 2623.16H2938.83V0H0Z" />
</clipPath>
<clipPath id="clip_3">
<path transform="matrix(1,0,0,-1,0,2623.16)" d="M0 2623.16H2938.83V0H0Z" />
</clipPath>
</defs>
<g transform="translate(-1257 -2149)"><g clip-path="url(#clip_1)"><path transform="matrix(1,0,0,-1,1300.46,2154.34)" d="M0 0C-.782 .782-2.05 .782-2.83 0L-7.6-4.76C-10.16-1.51-14.13 .584-18.58 .584-25.91 .584-31.94-5.08-32.54-12.26-36.16-13.81-38.58-17.39-38.58-21.42-38.58-25.29-36.34-28.62-33.11-30.28L-34-31.17C-34.78-31.95-34.78-33.22-34-34-33.22-34.78-31.95-34.78-31.17-34L0-2.83C.782-2.05 .782-.782 0 0M-30.05-27.21C-32.65-26.56-34.58-24.22-34.58-21.42-34.58-18.69-32.73-16.31-30.07-15.63L-28.54-15.24-28.58-13.42C-28.58-7.9-24.1-3.42-18.58-3.42-15.23-3.42-12.29-5.1-10.48-7.65Z" />
<path transform="matrix(1,0,0,-1,1305.82,2174.76)" d="M0 0C-.508 5.19-5.18 9-10.4 9H-10.95C-12.06 9-12.95 8.1-12.95 7-12.95 5.9-12.06 5-10.95 5H-10.19C-7.29 5-4.62 3.04-4.07 .196-3.32-3.63-6.25-7-9.95-7H-21.95C-23.06-7-23.95-7.9-23.95-9-23.95-10.1-23.06-11-21.95-11H-9.95C-4.11-11 .58-5.96 0 0" />
</g></g></svg>