<svg xmlns="http://www.w3.org/2000/svg" viewBox="0 0 153 153" width="153" height="153"><defs>
<clipPath id="clip_1">
<path transform="matrix(1,0,0,-1,0,2623.16)" d="M0 2623.16H2938.83V0H0Z" />
</clipPath>
<clipPath id="clip_2">
<path transform="matrix(1,0,0,-1,0,2623.16)" d="M0 2623.16H2938.83V0H0Z" />
</clipPath>
<clipPath id="clip_3">
<path transform="matrix(1,0,0,-1,0,2623.16)" d="M0 2623.16H2938.83V0H0Z" />
</clipPath>
</defs>
<g transform="translate(-1987 -603)"><g clip-path="url(#clip_2)"><path transform="matrix(1,0,0,-1,2114.66,741.37)" d="M0 0C6.38 .328 10.7 5.02 10.93 11.15 11.19 18.34 11.22 25.34 10.9 32.5 10.62 38.95 5.74 43.33-.592 43.33L-20.84 43.33C-27.48 43.33-32.41 38.57-32.4 31.87L-32.36 11.16C-32.35 4.75-27.46 .206-21.15-.032-14.17-.296-7.3-.376 0 0M-53.62 .021C-47.31 .386-42.83 5.08-42.82 11.14L-42.78 31.96C-42.77 37.45-46.55 42.67-52.31 43.07-60.31 43.62-68.17 43.51-76.2 43.13-82.02 42.85-85.88 37.81-86.1 32.3-86.38 25.18-86.34 18.35-86.11 11.29-85.9 4.77-81.17 .15-74.67-.052-67.73-.267-60.9-.4-53.62 .021M.925 54.01C7.12 54.32 10.8 59.69 10.96 65.27 11.17 72.35 11.19 79.05 10.94 86.03 10.7 92.52 6.11 96.88-.295 97.16-7.25 97.47-14.19 97.47-21.14 97.16-27.54 96.88-32.13 92.52-32.37 86.03-32.63 79.06-32.59 72.34-32.4 65.28-32.24 59.4-28.19 54.13-22.04 53.96-14.46 53.74-7.02 53.62 .925 54.01M-52.78-10.03C-60.81-10.44-68.32-10.45-76.05-10.04-87.18-9.45-95.68-.596-96.14 10.48-96.45 18.18-96.47 25.48-96.12 33.1-95.62 44.4-86.83 52.97-75.61 53.4-68.06 53.7-61.01 53.74-53.49 53.41-47.41 53.14-41.86 50.74-37.91 46.19-36.66 46.39-35.23 47.75-35.19 48.97-39.45 52.75-42.08 58.03-42.38 63.88-42.77 71.44-42.66 78.76-42.45 86.29-42.13 98.09-33.12 106.91-21.35 107.28-14.17 107.5-7.26 107.5-.084 107.27 11.69 106.91 20.7 98.1 21.01 86.28 21.21 78.94 21.35 71.77 20.97 64.41 20.66 58.32 18.45 52.97 13.37 48.69 18.19 44.35 20.7 39.09 20.98 32.78 21.31 25.4 21.24 18.3 21.01 10.87 20.67-.233 12.36-9.37 1.09-10.02-7.02-10.49-14.96-10.46-23.03-9.98-28.89-9.63-33.65-6.73-37.62-2.45-41.71-7.08-46.65-9.71-52.78-10.03" />
<path transform="matrix(1,0,0,-1,2033.33,660.79)" d="M0 0C6.64 .279 11.41 4.65 11.66 11.18 11.93 18.37 11.97 25.29 11.65 32.57 11.42 37.72 7.95 42.58 2.57 43.1-5.83 43.93-14.12 43.93-22.52 43.1-27.89 42.58-31.37 37.72-31.6 32.57-31.92 25.3-31.88 18.36-31.61 11.18-31.36 4.38-26.23 .178-19.66-.023-13.19-.22-6.79-.286 0 0M.875-10.05C-6.57-10.4-13.42-10.33-20.52-10.08-32.28-9.66-41.3-.888-41.7 10.92-41.95 18.27-41.95 25.42-41.7 32.78-41.3 44.34-32.47 53.14-20.92 53.55-13.53 53.81-6.42 53.8 .975 53.55 12.53 53.15 21.34 44.35 21.75 32.77 22 25.41 22.01 18.27 21.75 10.92 21.34-.644 12.68-9.5 .875-10.05" />
</g></g></svg>