<svg xmlns="http://www.w3.org/2000/svg" viewBox="0 0 52 52" width="52" height="52"><defs>
<clipPath id="clip_1">
<path transform="matrix(1,0,0,-1,0,2623.16)" d="M0 2623.16H2938.83V0H0Z" />
</clipPath>
<clipPath id="clip_2">
<path transform="matrix(1,0,0,-1,0,2623.16)" d="M0 2623.16H2938.83V0H0Z" />
</clipPath>
<clipPath id="clip_3">
<path transform="matrix(1,0,0,-1,0,2623.16)" d="M0 2623.16H2938.83V0H0Z" />
</clipPath>
</defs>
<g transform="translate(-2193 -1729)"><g clip-path="url(#clip_1)"><path transform="matrix(1,0,0,-1,2219.87,1743.76)" d="M0 0C-6.63 0-12-5.37-12-12-12-18.63-6.63-24 0-24 6.63-24 12-18.63 12-12 12-5.37 6.63 0 0 0M0-20C-4.41-20-8-16.41-8-12-8-7.59-4.41-4 0-4 4.41-4 8-7.59 8-12 8-16.41 4.41-20 0-20" />
<path transform="matrix(1,0,0,-1,2239.87,1753.76)" d="M0 0H-4C-5.11 0-6-.895-6-2-6-3.1-5.11-4-4-4H0C1.1-4 2-3.1 2-2 2-.895 1.1 0 0 0" />
<path transform="matrix(1,0,0,-1,2203.87,1753.76)" d="M0 0H-4C-5.11 0-6-.895-6-2-6-3.1-5.11-4-4-4H0C1.1-4 2-3.1 2-2 2-.895 1.1 0 0 0" />
<path transform="matrix(1,0,0,-1,2219.87,1733.76)" d="M0 0C-1.1 0-2-.896-2-2V-6C-2-7.1-1.1-8 0-8 1.1-8 2-7.1 2-6V-2C2-.896 1.1 0 0 0" />
<path transform="matrix(1,0,0,-1,2219.87,1769.76)" d="M0 0C-1.1 0-2-.896-2-2V-6C-2-7.1-1.1-8 0-8 1.1-8 2-7.1 2-6V-2C2-.896 1.1 0 0 0" />
<path transform="matrix(1,0,0,-1,2235.43,1740.21)" d="M0 0C-.782 .78-2.05 .78-2.83 0L-5.66-2.83C-6.44-3.61-6.44-4.88-5.66-5.66-4.87-6.44-3.61-6.44-2.83-5.66L0-2.83C.782-2.05 .782-.78 0 0" />
<path transform="matrix(1,0,0,-1,2209.97,1765.66)" d="M0 0C-.782 .78-2.05 .78-2.83 0L-5.66-2.83C-6.44-3.61-6.44-4.88-5.66-5.66-4.87-6.44-3.61-6.44-2.83-5.66L0-2.83C.782-2.05 .782-.78 0 0" />
<path transform="matrix(1,0,0,-1,2209.97,1743.03)" d="M0 0-2.83 2.83C-3.61 3.61-4.87 3.61-5.66 2.83-6.44 2.05-6.44 .78-5.66 0L-2.83-2.83C-2.05-3.61-.782-3.61 0-2.83 .782-2.05 .782-.78 0 0" />
<path transform="matrix(1,0,0,-1,2235.43,1768.49)" d="M0 0-2.83 2.83C-3.61 3.61-4.87 3.61-5.66 2.83-6.44 2.05-6.44 .78-5.66 0L-2.83-2.83C-2.05-3.61-.782-3.61 0-2.83 .782-2.05 .782-.78 0 0" />
</g></g></svg>