<svg xmlns="http://www.w3.org/2000/svg" viewBox="0 0 40 44" width="40" height="44"><defs>
<clipPath id="clip_1">
<path transform="matrix(1,0,0,-1,0,2623.16)" d="M0 2623.16H2938.83V0H0Z" />
</clipPath>
<clipPath id="clip_2">
<path transform="matrix(1,0,0,-1,0,2623.16)" d="M0 2623.16H2938.83V0H0Z" />
</clipPath>
<clipPath id="clip_3">
<path transform="matrix(1,0,0,-1,0,2623.16)" d="M0 2623.16H2938.83V0H0Z" />
</clipPath>
</defs>
<g transform="translate(-1679 -1213)"><g clip-path="url(#clip_1)"><path transform="matrix(1,0,0,-1,1711.87,1238.53)" d="M0 0V8.76C0 15.38-5.38 20.76-12 20.76-18.62 20.76-24 15.38-24 8.76V0L-28-2V-11.24H-16C-16-13.45-14.21-15.24-12-15.24-9.79-15.24-8-13.45-8-11.24H4V-2ZM0-7.24H-24V-4.47L-20-2.47V8.76C-20 13.18-16.41 16.76-12 16.76-7.59 16.76-4 13.18-4 8.76V-2.47L0-4.47Z" fill-rule="evenodd" />
</g></g></svg>