<svg xmlns="http://www.w3.org/2000/svg" viewBox="0 0 52 40" width="52" height="40"><defs>
<clipPath id="clip_1">
<path transform="matrix(1,0,0,-1,0,2623.16)" d="M0 2623.16H2938.83V0H0Z" />
</clipPath>
<clipPath id="clip_2">
<path transform="matrix(1,0,0,-1,0,2623.16)" d="M0 2623.16H2938.83V0H0Z" />
</clipPath>
<clipPath id="clip_3">
<path transform="matrix(1,0,0,-1,0,2623.16)" d="M0 2623.16H2938.83V0H0Z" />
</clipPath>
</defs>
<g transform="translate(-1153 -2047)"><g clip-path="url(#clip_1)"><path transform="matrix(1,0,0,-1,1157.87,2059.76)" d="M0 0V-16C0-20.42 3.58-24 8-24H36C40.42-24 44-20.42 44-16V0C44 4.42 40.42 8 36 8H8C3.58 8 0 4.42 0 0M36-20H8C5.79-20 4-18.21 4-16V0C4 2.21 5.79 4 8 4H36C38.21 4 40 2.21 40 0V-16C40-18.21 38.21-20 36-20" />
<path transform="matrix(1,0,0,-1,1190.87,2065.76)" d="M0 0C1.66 0 3 1.34 3 3 3 4.66 1.66 6 0 6-1.66 6-3 4.66-3 3-3 1.34-1.66 0 0 0" />
<path transform="matrix(1,0,0,-1,1183.01,2070.62)" d="M0 0C-.416-.416-1.1-.384-1.48 .066L-6.37 5.94C-6.77 6.42-7.51 6.42-7.91 5.94L-15.77-3.5C-16.31-4.15-15.85-5.14-15-5.14H8.45C9.34-5.14 9.79-4.06 9.16-3.43L3.57 2.16C3.18 2.55 2.55 2.55 2.16 2.16Z" />
</g></g></svg>