<svg xmlns="http://www.w3.org/2000/svg" viewBox="0 0 44 52" width="44" height="52"><defs>
<clipPath id="clip_1">
<path transform="matrix(1,0,0,-1,0,2623.16)" d="M0 2623.16H2938.83V0H0Z" />
</clipPath>
<clipPath id="clip_2">
<path transform="matrix(1,0,0,-1,0,2623.16)" d="M0 2623.16H2938.83V0H0Z" />
</clipPath>
<clipPath id="clip_3">
<path transform="matrix(1,0,0,-1,0,2623.16)" d="M0 2623.16H2938.83V0H0Z" />
</clipPath>
</defs>
<g transform="translate(-533 -2249)"><g clip-path="url(#clip_1)"><path transform="matrix(1,0,0,-1,572.46,2256.35)" d="M0 0C-.782 .782-2.05 .782-2.83 0L-7.34-4.51-15.3 2.12C-15.9 2.62-16.73 2.7-17.43 2.38-18.13 2.05-18.58 1.33-18.58 .55V-15.15L-27.3-7.88C-28.15-7.17-29.41-7.29-30.12-8.14-30.83-8.99-30.71-10.25-29.86-10.95L-21.09-18.26-34-31.17C-34.78-31.95-34.78-33.22-34-34-33.21-34.78-31.94-34.78-31.16-34L.004-2.83C.786-2.05 .786-.78 .004 .002ZM-14.58-11.75V-3.69L-10.19-7.35ZM-3.3-27.88-12.07-20.57-18.58-27.09V-39.42C-18.58-40.19-18.13-40.9-17.43-41.23-17.16-41.35-16.87-41.42-16.58-41.42-16.13-41.42-15.67-41.26-15.3-40.96L-3.3-30.96C-2.85-30.58-2.58-30.01-2.58-29.42-2.58-28.82-2.85-28.26-3.3-27.88M-14.58-35.15V-25.51L-13.59-24.52-7.71-29.42Z" />
</g></g></svg>