<svg xmlns="http://www.w3.org/2000/svg" viewBox="0 0 30 52" width="30" height="52"><defs>
<clipPath id="clip_1">
<path transform="matrix(1,0,0,-1,0,2623.16)" d="M0 2623.16H2938.83V0H0Z" />
</clipPath>
<clipPath id="clip_2">
<path transform="matrix(1,0,0,-1,0,2623.16)" d="M0 2623.16H2938.83V0H0Z" />
</clipPath>
<clipPath id="clip_3">
<path transform="matrix(1,0,0,-1,0,2623.16)" d="M0 2623.16H2938.83V0H0Z" />
</clipPath>
</defs>
<g transform="translate(-2517 -2145)"><g clip-path="url(#clip_1)"><path transform="matrix(1,0,0,-1,2527.87,2161.76)" d="M0 0C3.31 0 6 2.69 6 6 6 9.31 3.31 12 0 12-3.31 12-6 9.31-6 6-6 2.69-3.31 0 0 0M0 8C1.1 8 2 7.1 2 6 2 4.9 1.1 4 0 4-1.1 4-2 4.9-2 6-2 7.1-1.1 8 0 8" />
<path transform="matrix(1,0,0,-1,2535.87,2168.46)" d="M0 0V4.7H-14V-17.3H-10V-25.3H-6V-13.3H-10V.7H-4V-3.3C.412-3.3 4-6.89 4-11.3V-13.3H-4V-25.3H0V-17.3H8V-11.3C8-6.09 4.65-1.65 0 0" />
</g></g></svg>