<svg xmlns="http://www.w3.org/2000/svg" viewBox="0 0 48 45" width="48" height="45"><defs>
<clipPath id="clip_1">
<path transform="matrix(1,0,0,-1,0,2623.16)" d="M0 2623.16H2938.83V0H0Z" />
</clipPath>
<clipPath id="clip_2">
<path transform="matrix(1,0,0,-1,0,2623.16)" d="M0 2623.16H2938.83V0H0Z" />
</clipPath>
<clipPath id="clip_3">
<path transform="matrix(1,0,0,-1,0,2623.16)" d="M0 2623.16H2938.83V0H0Z" />
</clipPath>
</defs>
<g transform="translate(-2091 -1212)"><g clip-path="url(#clip_1)"><path transform="matrix(1,0,0,-1,2129.87,1234.04)" d="M0 0V2.28H-4V0C-7.44-.892-10-3.99-10-7.72-10-12.14-6.42-15.72-2-15.72 2.42-15.72 6-12.14 6-7.72 6-3.99 3.44-.894 0 0M-2-11.72C-4.21-11.72-6-9.92-6-7.72-6-5.51-4.21-3.72-2-3.72 .206-3.72 2-5.51 2-7.72 2-9.92 .206-11.72-2-11.72" />
<path transform="matrix(1,0,0,-1,2131.04,1216.93)" d="M0 0-2.83-2.83H-11.17V-6.83H-6.83L-10.83-10.83H-27.17V-14.83H-17.17V-17.17L-20.48-20.48C-21.9-18.29-24.36-16.83-27.17-16.83-31.58-16.83-35.17-20.42-35.17-24.83-35.17-27.64-33.71-30.1-31.53-31.53L-34-34-31.17-36.83 2.83-2.83ZM-28.57-28.57C-30.08-28-31.17-26.55-31.17-24.83-31.17-22.63-29.37-20.83-27.17-20.83-25.46-20.83-24-21.92-23.43-23.43Z" />
</g></g></svg>