<svg xmlns="http://www.w3.org/2000/svg" viewBox="0 0 42 32" width="42" height="32"><defs>
<clipPath id="clip_1">
<path transform="matrix(1,0,0,-1,0,2623.16)" d="M0 2623.16H2938.83V0H0Z" />
</clipPath>
<clipPath id="clip_2">
<path transform="matrix(1,0,0,-1,0,2623.16)" d="M0 2623.16H2938.83V0H0Z" />
</clipPath>
<clipPath id="clip_3">
<path transform="matrix(1,0,0,-1,0,2623.16)" d="M0 2623.16H2938.83V0H0Z" />
</clipPath>
</defs>
<g transform="translate(-1575 -1427)"><g clip-path="url(#clip_1)"><path transform="matrix(1,0,0,-1,1605.63,1445.76)" d="M0 0H.576C4.44 0 7.58 3.14 7.58 7 7.58 10.86 4.44 14 .576 14H-23.76V2C-23.76-1.27-21.85-4.17-18.93-6H-25.76V-10H6.24V-6H-4.59C-2.27-4.56-.598-2.44 0 0M.242 10H.576C2.23 10 3.58 8.65 3.58 7 3.58 5.35 2.23 4 .576 4H.242ZM-19.76 10H-3.76V2C-3.76-1.31-7.35-4-11.76-4-16.17-4-19.76-1.31-19.76 2Z" />
</g></g></svg>