<svg xmlns="http://www.w3.org/2000/svg" viewBox="0 0 52 40" width="52" height="40"><defs>
<clipPath id="clip_1">
<path transform="matrix(1,0,0,-1,0,2623.16)" d="M0 2623.16H2938.83V0H0Z" />
</clipPath>
<clipPath id="clip_2">
<path transform="matrix(1,0,0,-1,0,2623.16)" d="M0 2623.16H2938.83V0H0Z" />
</clipPath>
<clipPath id="clip_3">
<path transform="matrix(1,0,0,-1,0,2623.16)" d="M0 2623.16H2938.83V0H0Z" />
</clipPath>
</defs>
<g transform="translate(-1465 -2047)"><g clip-path="url(#clip_1)"><path transform="matrix(1,0,0,-1,1511.4,2075.29)" d="M0 0-17.53 8.76V9.53C-17.53 10.82-17.08 11.23-16.18 12.05-15.06 13.07-13.53 14.46-13.53 17.53-13.53 21.06-15.99 23.53-19.53 23.53-23.06 23.53-25.53 21.06-25.53 17.53-25.53 16.42-24.63 15.53-23.53 15.53-22.42 15.53-21.53 16.42-21.53 17.53-21.53 18.84-20.84 19.53-19.53 19.53-18.22 19.53-17.53 18.84-17.53 17.53-17.53 16.23-17.98 15.82-18.87 15.01-19.99 13.99-21.53 12.59-21.53 9.53V8.76L-39.06-.002C-40.58-.766-41.53-2.3-41.53-4-41.53-6.47-39.52-8.47-37.06-8.47H-2C.464-8.47 2.47-6.47 2.47-4 2.47-2.3 1.52-.766 0 0M-2-4.47H-37.06C-37.32-4.47-37.53-4.26-37.53-4-37.53-3.82-37.43-3.66-37.27-3.58L-19.53 5.29-1.79-3.58C-1.63-3.66-1.53-3.82-1.53-4-1.53-4.26-1.74-4.47-2-4.47" />
</g></g></svg>