<svg xmlns="http://www.w3.org/2000/svg" viewBox="0 0 44 44" width="44" height="44"><defs>
<clipPath id="clip_1">
<path transform="matrix(1,0,0,-1,0,2623.16)" d="M0 2623.16H2938.83V0H0Z" />
</clipPath>
<clipPath id="clip_2">
<path transform="matrix(1,0,0,-1,0,2623.16)" d="M0 2623.16H2938.83V0H0Z" />
</clipPath>
<clipPath id="clip_3">
<path transform="matrix(1,0,0,-1,0,2623.16)" d="M0 2623.16H2938.83V0H0Z" />
</clipPath>
</defs>
<g transform="translate(-2093 -2253)"><g clip-path="url(#clip_1)"><path transform="matrix(1,0,0,-1,2115.87,2293.76)" d="M0 0C1.1 0 2 .896 2 2V16H16C17.1 16 18 16.9 18 18 18 19.1 17.1 20 16 20H2V34C2 35.1 1.1 36 0 36-1.1 36-2 35.1-2 34V20H-16C-17.1 20-18 19.1-18 18-18 16.9-17.1 16-16 16H-2V2C-2 .896-1.1 0 0 0" />
</g></g></svg>