<svg xmlns="http://www.w3.org/2000/svg" viewBox="0 0 42 45" width="42" height="45"><defs>
<clipPath id="clip_1">
<path transform="matrix(1,0,0,-1,0,2623.16)" d="M0 2623.16H2938.83V0H0Z" />
</clipPath>
<clipPath id="clip_2">
<path transform="matrix(1,0,0,-1,0,2623.16)" d="M0 2623.16H2938.83V0H0Z" />
</clipPath>
<clipPath id="clip_3">
<path transform="matrix(1,0,0,-1,0,2623.16)" d="M0 2623.16H2938.83V0H0Z" />
</clipPath>
</defs>
<g transform="translate(-637 -1941)"><g clip-path="url(#clip_1)"><path transform="matrix(1,0,0,-1,674.46,1946.34)" d="M0 0C-.782 .782-2.05 .782-2.83 0L-32-29.17C-32.78-29.95-32.78-31.22-32-32-31.22-32.78-29.95-32.78-29.17-32L0-2.83C.782-2.05 .782-.782 0 0" />
<path transform="matrix(1,0,0,-1,649.58,1973.76)" d="M0 0C-.942 0-1.71 .768-1.71 1.71-1.71 2.36-1.35 2.94-.762 3.24L1.19 4.21C1.87 4.55 2.29 5.24 2.29 6V15.65C2.29 17.91 3.09 20.16 4.72 21.73 6.24 23.21 8.2 24 10.29 24 10.55 24 10.82 23.98 11.09 23.96 14.44 23.64 17.16 21.04 18 17.7L21.14 20.84C19.37 24.7 15.75 27.53 11.47 27.94 8.09 28.27 4.72 27.15 2.22 24.88-.274 22.61-1.71 19.37-1.71 16V7.23L-2.55 6.81C-4.5 5.84-5.71 3.88-5.71 1.71-5.71-.382-4.57-2.19-2.89-3.19L.294-.004H.002ZM23.14 6.81 22.29 7.24V13C22.29 14.1 21.4 15 20.29 15 19.19 15 18.29 14.1 18.29 13V6C18.29 5.24 18.72 4.55 19.4 4.21L21.35 3.24C21.93 2.95 22.29 2.36 22.29 1.71 22.29 .768 21.53 .002 20.59 .002H4.29C3.19 .002 2.29-.894 2.29-2 2.29-3.1 3.19-4 4.29-4H6.29C6.29-6.21 8.09-8 10.29-8 12.5-8 14.29-6.21 14.29-4H20.27C23.32-4 26.07-1.75 26.28 1.3 26.44 3.64 25.21 5.78 23.14 6.82Z" />
</g></g></svg>