<svg xmlns="http://www.w3.org/2000/svg" viewBox="0 0 116 140" width="116" height="140"><defs>
<clipPath id="clip_1">
<path transform="matrix(1,0,0,-1,0,2623.16)" d="M0 2623.16H2938.83V0H0Z" />
</clipPath>
<clipPath id="clip_2">
<path transform="matrix(1,0,0,-1,0,2623.16)" d="M0 2623.16H2938.83V0H0Z" />
</clipPath>
<clipPath id="clip_3">
<path transform="matrix(1,0,0,-1,0,2623.16)" d="M0 2623.16H2938.83V0H0Z" />
</clipPath>
</defs>
<g transform="translate(-2260 -610)"><g clip-path="url(#clip_3)"><path transform="matrix(1,0,0,-1,2332.27,735.69)" d="M0 0C-.646 7.34-5.18 13.38 1.16 19.67 3.5 22 5.77 24.04 8.13 26.91 1.06 29.1-5.29 27.17-9.12 34.47-10.93 37.92-12.26 41.3-14.49 44.98-23.08 29.66-18.53 30.11-37.06 26.97-34.51 23.62-31.71 21.52-29.22 18.65-24.28 12.97-28.27 7.17-28.91 .06-25.21 1.41-22.42 3.91-18.9 5.6-11.43 9.19-6.55 2.59 0 0M29.7 89.6C29.92 95.78 30.02 101.73 29.59 107.86 29.4 110.55 27.48 112.57 24.61 112.58L-9.77 112.68-9.91 86.7C-9.93 83.92-12.2 82.04-14.7 82.15-16.84 82.25-19 84-19.01 86.6L-19.13 112.66-53.53 112.6C-56.37 112.6-58.29 110.65-58.52 107.97-58.95 101.8-58.86 95.79-58.63 89.55-58.5 86.21-56.7 83.39-53.77 81.7L-20.86 62.7C-16.44 60.16-12.37 60.2-7.96 62.75L24.96 81.77C27.88 83.46 29.57 86.33 29.7 89.6M-3.68-8.62-14.44-2.49-25.35-8.66C-28.32-10.34-32.02-10.22-34.78-8.27-37.35-6.46-38.94-2.94-38.24 .642L-35.94 12.34-44.13 20.94C-46.45 23.38-47.23 26.77-46.09 30.16-45.26 32.65-42.82 35.22-39.56 35.84L-28.58 37.95C-25.4 42.93-24.24 48-20.35 52.37-24.27 54.12-27.59 55.83-31.17 57.91L-59.01 74.17C-64.46 77.36-67.5 82.94-67.8 89.08-68.11 95.62-68.12 101.68-67.7 108.28-67.26 115.3-62.08 121.68-54.33 121.68L25.5 121.67C32.96 121.67 38.13 115.54 38.7 108.75 39.25 102.09 39.11 96.05 38.89 89.5 38.67 83.03 35.51 77.3 29.81 73.98L.804 57.1C-2.26 55.31-5.04 53.86-8.63 52.45-4.58 47.84-3.76 42.84-.41 38.33 4.03 35.98 14.27 37.75 17.03 30.48 18.31 27.11 17.65 23.55 15.23 21.01L7 12.34 9.29 .622C9.95-2.79 8.55-6.06 6.25-7.95 3.54-10.18-.324-10.52-3.68-8.62" />
</g></g></svg>