<svg xmlns="http://www.w3.org/2000/svg" viewBox="0 0 52 40" width="52" height="40"><defs>
<clipPath id="clip_1">
<path transform="matrix(1,0,0,-1,0,2623.16)" d="M0 2623.16H2938.83V0H0Z" />
</clipPath>
<clipPath id="clip_2">
<path transform="matrix(1,0,0,-1,0,2623.16)" d="M0 2623.16H2938.83V0H0Z" />
</clipPath>
<clipPath id="clip_3">
<path transform="matrix(1,0,0,-1,0,2623.16)" d="M0 2623.16H2938.83V0H0Z" />
</clipPath>
</defs>
<g transform="translate(-323 -488)"><g clip-path="url(#clip_1)"><path transform="matrix(1,0,0,-1,367.88,516.72)" d="M0 0H-2.37C-3.2 2.32-5.4 4-8 4-10.6 4-12.8 2.32-13.63 0H-22.37C-23.2 2.32-25.4 4-28 4-30.6 4-32.8 2.32-33.63 0H-34.34L-36 1.66V20H-10V6H-6V12H-4L0 8ZM-8-4C-9.1-4-10-3.1-10-2-10-.896-9.1 0-8 0-6.9 0-6-.896-6-2-6-3.1-6.9-4-8-4M-28-4C-29.1-4-30-3.1-30-2-30-.896-29.1 0-28 0-26.9 0-26-.896-26-2-26-3.1-26.9-4-28-4M4 10-2 16H-6V24H-40V0L-36-4H-33.63C-32.8-6.32-30.6-8-28-8-25.4-8-23.2-6.32-22.37-4H-13.63C-12.8-6.32-10.6-8-8-8-5.4-8-3.2-6.32-2.37-4H2L4-2Z" />
</g></g></svg>