<svg xmlns="http://www.w3.org/2000/svg" viewBox="0 0 48 46" width="48" height="46"><defs>
<clipPath id="clip_1">
<path transform="matrix(1,0,0,-1,0,2623.16)" d="M0 2623.16H2938.83V0H0Z" />
</clipPath>
<clipPath id="clip_2">
<path transform="matrix(1,0,0,-1,0,2623.16)" d="M0 2623.16H2938.83V0H0Z" />
</clipPath>
<clipPath id="clip_3">
<path transform="matrix(1,0,0,-1,0,2623.16)" d="M0 2623.16H2938.83V0H0Z" />
</clipPath>
</defs>
<g transform="translate(-997 -294)"><g clip-path="url(#clip_1)"><path transform="matrix(1,0,0,-1,1030.88,324.72)" d="M0 0H-18C-21.86 0-25 3.14-25 7-25 10.86-21.86 14-18 14H-15V16C-15 19.31-12.31 22-9 22-5.69 22-3 19.31-3 16V14H0C3.86 14 7 10.86 7 7 7 3.14 3.86 0 0 0M.802 17.96C-.112 22.54-4.16 26-9 26-13.84 26-17.89 22.54-18.8 17.96-24.49 17.55-29 12.79-29 7-29 .936-24.06-4-18-4H-11V-12H-7V-4H0C6.06-4 11 .936 11 7 11 12.79 6.49 17.55 .802 17.96" />
</g></g></svg>