<svg xmlns="http://www.w3.org/2000/svg" viewBox="0 0 44 38" width="44" height="38"><defs>
<clipPath id="clip_1">
<path transform="matrix(1,0,0,-1,0,2623.16)" d="M0 2623.16H2938.83V0H0Z" />
</clipPath>
<clipPath id="clip_2">
<path transform="matrix(1,0,0,-1,0,2623.16)" d="M0 2623.16H2938.83V0H0Z" />
</clipPath>
<clipPath id="clip_3">
<path transform="matrix(1,0,0,-1,0,2623.16)" d="M0 2623.16H2938.83V0H0Z" />
</clipPath>
</defs>
<g transform="translate(-1157 -1841)"><g clip-path="url(#clip_1)"><path transform="matrix(1,0,0,-1,1195.87,1861.32)" d="M0 0V7.56C0 11.98-3.58 15.56-8 15.56H-24C-28.42 15.56-32 11.98-32 7.56V0C-33.22-1.1-34-2.67-34-4.44V-8.44C-34-9.55-33.1-10.44-32-10.44H-30V-12.44C-30-13.55-29.1-14.44-28-14.44-26.9-14.44-26-13.55-26-12.44V-10.44H-6V-12.44C-6-13.55-5.1-14.44-4-14.44-2.9-14.44-2-13.55-2-12.44V-10.44H0C1.1-10.44 2-9.55 2-8.44V-4.44C2-2.67 1.22-1.1 0 0M-28 7.56C-28 9.77-26.21 11.56-24 11.56H-8C-5.79 11.56-4 9.77-4 7.56V1.56H-8V3.56C-8 5.77-9.79 7.56-12 7.56H-20C-22.21 7.56-24 5.77-24 3.56V1.56H-28ZM-12 1.56H-20V3.56H-12ZM-2-6.44H-30V-4.44C-30-3.34-29.1-2.44-28-2.44H-4C-2.9-2.44-2-3.34-2-4.44Z" />
</g></g></svg>