<svg xmlns="http://www.w3.org/2000/svg" viewBox="0 0 52 40" width="52" height="40"><defs>
<clipPath id="clip_1">
<path transform="matrix(1,0,0,-1,0,2623.16)" d="M0 2623.16H2938.83V0H0Z" />
</clipPath>
<clipPath id="clip_2">
<path transform="matrix(1,0,0,-1,0,2623.16)" d="M0 2623.16H2938.83V0H0Z" />
</clipPath>
<clipPath id="clip_3">
<path transform="matrix(1,0,0,-1,0,2623.16)" d="M0 2623.16H2938.83V0H0Z" />
</clipPath>
</defs>
<g transform="translate(-633 -1839)"><g clip-path="url(#clip_1)"><path transform="matrix(1,0,0,-1,677.87,1851.76)" d="M0 0V4C0 6.21-1.79 8-4 8H-32C-34.21 8-36 6.21-36 4V0C-38.21 0-40-1.79-40-4V-16C-40-18.21-38.21-20-36-20V-22C-36-23.1-35.1-24-34-24-32.9-24-32-23.1-32-22V-20H-4V-22C-4-23.1-3.1-24-2-24-.896-24 0-23.1 0-22V-20C2.21-20 4-18.21 4-16V-4C4-1.79 2.21 0 0 0M-32 3C-32 3.55-31.55 4-31 4H-5C-4.45 4-4 3.55-4 3V0H-6C-8.21 0-10-1.79-10-4V-6H-26V-4C-26-1.79-27.79 0-30 0H-32ZM0-15C0-15.55-.448-16-1-16H-35C-35.55-16-36-15.55-36-15V-5C-36-4.45-35.55-4-35-4H-31C-30.45-4-30-4.45-30-5V-8C-30-9.1-29.1-10-28-10H-8C-6.9-10-6-9.1-6-8V-5C-6-4.45-5.55-4-5-4H-1C-.448-4 0-4.45 0-5Z" />
</g></g></svg>