<svg xmlns="http://www.w3.org/2000/svg" viewBox="0 0 42 50" width="42" height="50"><defs>
<clipPath id="clip_1">
<path transform="matrix(1,0,0,-1,0,2623.16)" d="M0 2623.16H2938.83V0H0Z" />
</clipPath>
<clipPath id="clip_2">
<path transform="matrix(1,0,0,-1,0,2623.16)" d="M0 2623.16H2938.83V0H0Z" />
</clipPath>
<clipPath id="clip_3">
<path transform="matrix(1,0,0,-1,0,2623.16)" d="M0 2623.16H2938.83V0H0Z" />
</clipPath>
</defs>
<g transform="translate(-1470 -2251)"><g clip-path="url(#clip_1)"><path transform="matrix(1,0,0,-1,1506.87,2271.76)" d="M0 0H-1V4C-1 5.1-1.9 6-3 6H-27C-28.1 6-29 5.1-29 4V0H-30C-31.1 0-32-.896-32-2-32-3.1-31.1-4-30-4H-28.43C-27.28-7.96-24.3-11.59-18.63-12.67L-28.04-26H-23.14L-19.61-21H-10.39L-6.86-26H-1.96L-11.37-12.67C-5.7-11.59-2.72-7.95-1.57-4H0C1.1-4 2-3.1 2-2 2-.896 1.1 0 0 0M-16.79-17-15-14.47-13.21-17H-16.79ZM-15-9C-20.67-9-23.16-6.52-24.23-4H-5.77C-6.84-6.52-9.33-9-15-9ZM-5 0H-25V1.5C-25 1.78-24.78 2-24.5 2H-5.5C-5.22 2-5 1.78-5 1.5ZM-17.75 10.9C-18.77 12.75-20.74 14-23 14-23.77 14-24.44 14.43-24.77 15.07-25.09 15.68-25.77 16-26.45 16-27.94 16-28.97 14.4-28.25 13.1-27.22 11.25-25.25 10-23 10-22.23 10-21.56 9.57-21.23 8.93-20.91 8.32-20.23 8-19.54 8-18.05 8-17.03 9.6-17.75 10.9M-3.75 10.9C-4.77 12.75-6.74 14-9 14-9.77 14-10.44 14.43-10.77 15.07-11.09 15.68-11.77 16-12.45 16-13.94 16-14.97 14.4-14.25 13.1-13.22 11.25-11.25 10-9 10-8.23 10-7.56 9.57-7.23 8.93-6.91 8.32-6.23 8-5.54 8-4.05 8-3.03 9.6-3.75 10.9" />
</g></g></svg>