<svg xmlns="http://www.w3.org/2000/svg" viewBox="0 0 32 52" width="32" height="52"><defs>
<clipPath id="clip_1">
<path transform="matrix(1,0,0,-1,0,2623.16)" d="M0 2623.16H2938.83V0H0Z" />
</clipPath>
<clipPath id="clip_2">
<path transform="matrix(1,0,0,-1,0,2623.16)" d="M0 2623.16H2938.83V0H0Z" />
</clipPath>
<clipPath id="clip_3">
<path transform="matrix(1,0,0,-1,0,2623.16)" d="M0 2623.16H2938.83V0H0Z" />
</clipPath>
</defs>
<g transform="translate(-813 -290)"><g clip-path="url(#clip_1)"><path transform="matrix(1,0,0,-1,829.88,334.72)" d="M0 0C-4.41 0-8 3.59-8 8-8 10.5-6.83 12.82-4.79 14.36L-4 14.96V32C-4 34.21-2.21 36 0 36 2.21 36 4 34.21 4 32V14.96L4.79 14.36C6.83 12.82 8 10.5 8 8 8 3.59 4.41 0 0 0M8 16.9V32C8 36.41 4.41 40 0 40-4.41 40-8 36.41-8 32V16.9C-10.55 14.61-12 11.43-12 8-12 1.38-6.62-4 0-4 6.62-4 12 1.38 12 8 12 11.43 10.55 14.62 8 16.9" />
<path transform="matrix(1,0,0,-1,831.88,321.09)" d="M0 0V10.37C0 11.47-.896 12.37-2 12.37-3.1 12.37-4 11.47-4 10.37V0C-6.33-.826-8-3.02-8-5.63-8-8.95-5.31-11.63-2-11.63 1.31-11.63 4-8.95 4-5.63 4-3.02 2.33-.826 0 0" />
</g></g></svg>