<svg xmlns="http://www.w3.org/2000/svg" viewBox="0 0 45 45" width="45" height="45"><defs>
<clipPath id="clip_1">
<path transform="matrix(1,0,0,-1,0,2623.16)" d="M0 2623.16H2938.83V0H0Z" />
</clipPath>
<clipPath id="clip_2">
<path transform="matrix(1,0,0,-1,0,2623.16)" d="M0 2623.16H2938.83V0H0Z" />
</clipPath>
<clipPath id="clip_3">
<path transform="matrix(1,0,0,-1,0,2623.16)" d="M0 2623.16H2938.83V0H0Z" />
</clipPath>
</defs>
<g transform="translate(-323 -1731)"><g clip-path="url(#clip_1)"><path transform="matrix(1,0,0,-1,363.87,1768.93)" d="M0 0-7.37 7.37C-4.78 10.7-3.46 15.07-4.21 19.77-5.32 26.77-11.16 32.31-18.21 33.08-28.45 34.19-37.01 25.63-35.9 15.39-35.14 8.34-29.6 2.49-22.59 1.38-17.9 .636-13.53 1.96-10.2 4.55L-2.83-2.83C-2.04-3.61-.778-3.61 .002-2.83 .784-2.04 .784-.778 .002 .002ZM-20 5.17C-26.62 5.17-32 10.56-32 17.17-32 23.79-26.62 29.17-20 29.17-13.38 29.17-8 23.79-8 17.17-8 10.56-13.38 5.17-20 5.17" />
<path transform="matrix(1,0,0,-1,349.87,1749.76)" d="M0 0H-4V4C-4 5.1-4.9 6-6 6-7.1 6-8 5.1-8 4V0H-12C-13.1 0-14-.896-14-2-14-3.1-13.1-4-12-4H-8V-8C-8-9.1-7.1-10-6-10-4.9-10-4-9.1-4-8V-4H0C1.1-4 2-3.1 2-2 2-.896 1.1 0 0 0" />
</g></g></svg>