<svg xmlns="http://www.w3.org/2000/svg" viewBox="0 0 49 49" width="49" height="49"><defs>
<clipPath id="clip_1">
<path transform="matrix(1,0,0,-1,0,2623.16)" d="M0 2623.16H2938.83V0H0Z" />
</clipPath>
<clipPath id="clip_2">
<path transform="matrix(1,0,0,-1,0,2623.16)" d="M0 2623.16H2938.83V0H0Z" />
</clipPath>
<clipPath id="clip_3">
<path transform="matrix(1,0,0,-1,0,2623.16)" d="M0 2623.16H2938.83V0H0Z" />
</clipPath>
</defs>
<g transform="translate(-1883 -1210)"><g clip-path="url(#clip_1)"><path transform="matrix(1,0,0,-1,1919.88,1239.76)" d="M0 0C2.21 0 4-1.79 4-4 4-6.21 2.21-8 0-8-2.21-8-4-6.21-4-4-4-1.79-2.21 0 0 0M0 4C-4.42 4-8 .418-8-4-8-8.42-4.42-12 0-12 4.42-12 8-8.42 8-4 8 .418 4.42 4 0 4" />
<path transform="matrix(1,0,0,-1,1917.88,1233.76)" d="M0 0H6V4H4Z" />
<path transform="matrix(1,0,0,-1,1905.88,1245.76)" d="M0 0H4V4Z" />
<path transform="matrix(1,0,0,-1,1927.88,1217.76)" d="M0 0-2.83 2.83-6.27-.598C-6.84 .918-8.29 2-10 2-12.21 2-14 .21-14-2-14-3.71-12.92-5.16-11.4-5.73L-12.83-7.17-16-4H-20L-32-10V-14L-24.87-19.2-26.2-20.53C-27.65-18.98-29.71-18-32-18-36.42-18-40-21.58-40-26-40-28.3-39.02-30.35-37.47-31.8L-40.83-35.17-38-38ZM-36-26C-36-23.79-34.21-22-32-22-30.82-22-29.75-22.51-29.01-23.35L-34.65-28.99C-35.49-28.25-36-27.18-36-26M-21.89-16.22-24.55-14.28-16.02-10.01-15.85-10.18-21.89-16.22Z" />
</g></g></svg>