<svg xmlns="http://www.w3.org/2000/svg" viewBox="0 0 122 149" width="122" height="149"><defs>
<clipPath id="clip_1">
<path transform="matrix(1,0,0,-1,0,2623.16)" d="M0 2623.16H2938.83V0H0Z" />
</clipPath>
<clipPath id="clip_2">
<path transform="matrix(1,0,0,-1,0,2623.16)" d="M0 2623.16H2938.83V0H0Z" />
</clipPath>
<clipPath id="clip_3">
<path transform="matrix(1,0,0,-1,0,2623.16)" d="M0 2623.16H2938.83V0H0Z" />
</clipPath>
</defs>
<g transform="translate(-1803 -611)"><g clip-path="url(#clip_2)"><path transform="matrix(1,0,0,-1,1898.62,745.54)" d="M0 0C.004 4.89 .64 9.56-.886 14.15-1.35 15.56-4.1 16.15-5.68 16.15L-62.92 16.14C-70.43 16.13-67.78 6.22-68.11-.013ZM-59.72 66.73-51.72 26.06-16.47 26.11-.943 106.08C-.755 109.52 2.55 121.29-3.43 120.58-6.87 120.17-10.06 119.18-13.3 117.84L-43.96 105.23C-52.99 101.52-61.82 95.71-61.72 84.94-61.9 78.84-60.8 73.14-59.72 66.73M-87.08-.207-78.1 .059C-77.98 9-79.3 23.2-67.08 25.28L-61.77 26.19-69.32 65.03C-72.35 80.61-74.47 96.95-60.09 107.32-55.68 110.5-51.13 112.96-46.05 115.03L-15.07 127.64C-11.74 129-8.36 129.79-4.84 130.25 2.96 131.26 9.21 125.98 9.75 118.15 10.08 113.2 9.47 108.59 8.5 103.55L-6.43 26.48C-5.24 25.61-3.89 25.69-2.6 25.55 11.17 23.98 9.83 10.03 9.95 .026 14.41-.603 22.29 1.85 22.84-4.41 23.06-6.9 21.3-9.77 18.08-9.77L-86.08-9.78C-88.92-9.78-90.68-7.69-90.98-5.46-91.27-3.27-90-.293-87.08-.207" />
</g></g></svg>