<svg xmlns="http://www.w3.org/2000/svg" viewBox="0 0 48 38" width="48" height="38"><defs>
<clipPath id="clip_1">
<path transform="matrix(1,0,0,-1,0,2623.16)" d="M0 2623.16H2938.83V0H0Z" />
</clipPath>
<clipPath id="clip_2">
<path transform="matrix(1,0,0,-1,0,2623.16)" d="M0 2623.16H2938.83V0H0Z" />
</clipPath>
<clipPath id="clip_3">
<path transform="matrix(1,0,0,-1,0,2623.16)" d="M0 2623.16H2938.83V0H0Z" />
</clipPath>
</defs>
<g transform="translate(-1093 -392)"><g clip-path="url(#clip_1)"><path transform="matrix(1,0,0,-1,1129.88,422.72)" d="M0 0C-2.21 0-4 1.79-4 4-4 6.21-2.21 8 0 8 2.21 8 4 6.21 4 4 4 1.79 2.21 0 0 0M-6 26C-7.1 26-8 25.1-8 24-8 22.9-7.1 22-6 22-3.79 22-2 20.21-2 18H-22C-23.1 18-24 17.1-24 16-24 14.9-23.1 14-22 14H-12C-12 10.83-13.87 8.13-16.54 6.84-17.69 9.85-20.58 12-24 12-28.42 12-32 8.42-32 4-32-.418-28.42-4-24-4-20.04-4-16.77-1.11-16.13 2.67-11.41 4.28-8 8.74-8 14H-2V11.72C-6.02 10.68-8.82 6.63-7.78 2.1-7.12-.776-4.79-3.11-1.91-3.78-1.26-3.93-.622-4 0-4 4.42-4 8-.418 8 4 8 7.72 5.44 10.82 2 11.72V18C2 22.42-1.58 26-6 26M-24 8C-22.34 8-20.88 6.98-20.28 5.41L-19.9 4.41-20.08 3.33C-20.4 1.4-22.05 0-24 0-26.21 0-28 1.79-28 4-28 6.21-26.21 8-24 8" />
</g></g></svg>