<svg xmlns="http://www.w3.org/2000/svg" viewBox="0 0 28 52" width="28" height="52"><defs>
<clipPath id="clip_1">
<path transform="matrix(1,0,0,-1,0,2623.16)" d="M0 2623.16H2938.83V0H0Z" />
</clipPath>
<clipPath id="clip_2">
<path transform="matrix(1,0,0,-1,0,2623.16)" d="M0 2623.16H2938.83V0H0Z" />
</clipPath>
<clipPath id="clip_3">
<path transform="matrix(1,0,0,-1,0,2623.16)" d="M0 2623.16H2938.83V0H0Z" />
</clipPath>
</defs>
<g transform="translate(-2413 -1937)"><g clip-path="url(#clip_1)"><path transform="matrix(1,0,0,-1,2427.87,1953.76)" d="M0 0C3.31 0 6 2.69 6 6 6 9.31 3.31 12 0 12-3.31 12-6 9.31-6 6-6 2.69-3.31 0 0 0M0 8C1.1 8 2 7.1 2 6 2 4.9 1.1 4 0 4-1.1 4-2 4.9-2 6-2 7.1-1.1 8 0 8" />
<path transform="matrix(1,0,0,-1,2433.87,1955.76)" d="M0 0H-12C-14.21 0-16-1.79-16-4V-12C-16-14.61-14.33-16.83-12-17.66V-28C-12-29.11-11.11-30-10-30-8.89-30-8-29.11-8-28V-16C-8-14.89-8.89-14-10-14-11.11-14-12-13.1-12-12V-4H0V-12C0-13.1-.896-14-2-14-3.1-14-4-14.89-4-16V-28C-4-29.11-3.11-30-2-30-.894-30 0-29.11 0-28V-17.66C2.33-16.83 4-14.61 4-12V-4C4-1.79 2.21 0 0 0" />
</g></g></svg>