<svg xmlns="http://www.w3.org/2000/svg" viewBox="0 0 37 52" width="37" height="52"><defs>
<clipPath id="clip_1">
<path transform="matrix(1,0,0,-1,0,2623.16)" d="M0 2623.16H2938.83V0H0Z" />
</clipPath>
<clipPath id="clip_2">
<path transform="matrix(1,0,0,-1,0,2623.16)" d="M0 2623.16H2938.83V0H0Z" />
</clipPath>
<clipPath id="clip_3">
<path transform="matrix(1,0,0,-1,0,2623.16)" d="M0 2623.16H2938.83V0H0Z" />
</clipPath>
</defs>
<g transform="translate(-849 -2145)"><g clip-path="url(#clip_1)"><path transform="matrix(1,0,0,-1,878.01,2174.06)" d="M0 0 .008 .518 4.11 14.88 1.86 17.12V18.3C1.86 19.4 .968 20.3-.136 20.3H-3.31L-6.72 23.71C-7.5 24.49-8.77 24.49-9.55 23.71-10.33 22.93-10.33 21.66-9.55 20.88L-8.97 20.3H-20.14C-21.24 20.3-22.14 19.4-22.14 18.3V17.13L-24.38 14.88-20.28 .52-20.27 .002-23.89-14.47C-24.45-16.71-23.05-19.7-18.61-19.7H-1.66C2.77-19.7 4.18-16.71 3.62-14.47L0 .002ZM-17.66-15.7C-19.25-15.7-19.95-15.22-19.72-14.28L-18.01-7.44-17.75-8.33C-17.45-9.39-16.34-10.01-15.28-9.7-14.22-9.4-13.6-8.29-13.91-7.23L-19.89 13.71-17.31 16.3H-2.96L-.382 13.71-1.36 10.3H-10.14C-11.42 10.3-12.37 9.11-12.09 7.86L-10.25-.396C-10.22-.558-10.22-.728-10.27-.888L-12.06-7.15C-12.42-8.43-11.46-9.7-10.14-9.7H-1.7L-.556-14.28C-.32-15.22-1.02-15.7-2.61-15.7ZM-3.95-.708-2.7-5.7H-7.48L-6.35-1.74C-6.17-1.1-6.15-.424-6.29 .226L-7.64 6.3H-2.5L-3.91 1.36C-4.1 .688-4.12-.026-3.95-.706Z" />
</g></g></svg>