<svg xmlns="http://www.w3.org/2000/svg" viewBox="0 0 40 52" width="40" height="52"><defs>
<clipPath id="clip_1">
<path transform="matrix(1,0,0,-1,0,2623.16)" d="M0 2623.16H2938.83V0H0Z" />
</clipPath>
<clipPath id="clip_2">
<path transform="matrix(1,0,0,-1,0,2623.16)" d="M0 2623.16H2938.83V0H0Z" />
</clipPath>
<clipPath id="clip_3">
<path transform="matrix(1,0,0,-1,0,2623.16)" d="M0 2623.16H2938.83V0H0Z" />
</clipPath>
</defs>
<g transform="translate(-1575 -2041)"><g clip-path="url(#clip_1)"><path transform="matrix(1,0,0,-1,1593.87,2059.94)" d="M0 0V2.18C2.21 2.18 4 3.97 4 6.18H7.93C8.2 6.18 8.45 6.07 8.64 5.89L12.17 2.35 15 5.18 11.17 9.01C10.42 9.76 9.41 10.18 8.35 10.18H4C4 12.39 2.21 14.18 .002 14.18H-4C-6.21 14.18-8 12.39-8 10.18V6.18C-8 3.97-6.21 2.18-4 2.18V0C-9.66-.956-14-5.88-14-11.82V-25.82C-14-28.03-12.21-29.82-10-29.82H6C8.21-29.82 10-28.03 10-25.82V-11.82C10-5.89 5.67-.958 .002 0ZM-3 10.18H-1C-.448 10.18 0 9.73 0 9.18V7.18C0 6.63-.448 6.18-1 6.18H-3C-3.55 6.18-4 6.63-4 7.18V9.18C-4 9.73-3.55 10.18-3 10.18M5-25.82H-9C-9.55-25.82-10-25.37-10-24.82V-12.17C-10-8-6.95-4.26-2.8-3.86 1.97-3.39 6-7.14 6-11.82V-24.82C6-25.37 5.55-25.82 5-25.82" />
<path transform="matrix(1,0,0,-1,1609.87,2065.76)" d="M0 0C1.1 0 2 .895 2 2 2 3.1 1.1 4 0 4-1.1 4-2 3.1-2 2-2 .895-1.1 0 0 0" />
<path transform="matrix(1,0,0,-1,1609.87,2073.76)" d="M0 0C1.1 0 2 .895 2 2 2 3.1 1.1 4 0 4-1.1 4-2 3.1-2 2-2 .895-1.1 0 0 0" />
<path transform="matrix(1,0,0,-1,1609.87,2081.76)" d="M0 0C1.1 0 2 .895 2 2 2 3.1 1.1 4 0 4-1.1 4-2 3.1-2 2-2 .895-1.1 0 0 0" />
</g></g></svg>