<svg xmlns="http://www.w3.org/2000/svg" viewBox="0 0 38 48" width="38" height="48"><defs>
<clipPath id="clip_1">
<path transform="matrix(1,0,0,-1,0,2623.16)" d="M0 2623.16H2938.83V0H0Z" />
</clipPath>
<clipPath id="clip_2">
<path transform="matrix(1,0,0,-1,0,2623.16)" d="M0 2623.16H2938.83V0H0Z" />
</clipPath>
<clipPath id="clip_3">
<path transform="matrix(1,0,0,-1,0,2623.16)" d="M0 2623.16H2938.83V0H0Z" />
</clipPath>
</defs>
<g transform="translate(-1987 -1627)"><g clip-path="url(#clip_1)"><path transform="matrix(1,0,0,-1,1999.87,1641.76)" d="M0 0 7 7 4 10-8-2 4-14 7-11 0-4H18V-30H22V0Z" />
</g></g></svg>