<svg xmlns="http://www.w3.org/2000/svg" viewBox="0 0 36 52" width="36" height="52"><defs>
<clipPath id="clip_1">
<path transform="matrix(1,0,0,-1,0,2623.16)" d="M0 2623.16H2938.83V0H0Z" />
</clipPath>
<clipPath id="clip_2">
<path transform="matrix(1,0,0,-1,0,2623.16)" d="M0 2623.16H2938.83V0H0Z" />
</clipPath>
<clipPath id="clip_3">
<path transform="matrix(1,0,0,-1,0,2623.16)" d="M0 2623.16H2938.83V0H0Z" />
</clipPath>
</defs>
<g transform="translate(-2721 -1001)"><g clip-path="url(#clip_1)"><path transform="matrix(1,0,0,-1,2753.87,1007.76)" d="M0 0H-4V2H-22C-25.31 2-28-.692-28-4V-10H-24V-15.53L-28-23.53V-42H0V-22.93L-12-14.93V-10H-7.72C-6.82-13.44-3.72-16 0-16V-12C-2.21-12-4-10.21-4-8H0ZM-4-38H-24V-24.47L-20.76-18H-14.61L-4-25.07ZM-16-14H-20V-10H-16ZM-24-6V-4C-24-2.9-23.1-2-22-2H-8V-6Z" />
</g></g></svg>