<svg xmlns="http://www.w3.org/2000/svg" viewBox="0 0 48 38" width="48" height="38"><defs>
<clipPath id="clip_1">
<path transform="matrix(1,0,0,-1,0,2623.16)" d="M0 2623.16H2938.83V0H0Z" />
</clipPath>
<clipPath id="clip_2">
<path transform="matrix(1,0,0,-1,0,2623.16)" d="M0 2623.16H2938.83V0H0Z" />
</clipPath>
<clipPath id="clip_3">
<path transform="matrix(1,0,0,-1,0,2623.16)" d="M0 2623.16H2938.83V0H0Z" />
</clipPath>
</defs>
<g transform="translate(-739 -2255)"><g clip-path="url(#clip_1)"><path transform="matrix(1,0,0,-1,751.87,2277.76)" d="M0 0C1.66 0 3.12-1.02 3.72-2.59L4.1-3.59 3.92-4.67C3.6-6.6 1.95-8 0-8-2.21-8-4-6.21-4-4-4-1.79-2.21 0 0 0M18 18C16.9 18 16 17.1 16 16 16 14.9 16.9 14 18 14 20.21 14 22 12.21 22 10H2C.896 10 0 9.1 0 8 0 6.9 .896 6 2 6H12C12 2.83 10.13 .126 7.46-1.16 6.31 1.85 3.42 4 0 4-4.42 4-8 .418-8-4-8-8.42-4.42-12 0-12 3.96-12 7.23-9.11 7.87-5.33 12.59-3.72 16 .738 16 6H22V3.72C17.98 2.68 15.18-1.37 16.22-5.9 16.88-8.78 19.21-11.11 22.09-11.78 22.74-11.93 23.38-12 24-12 28.42-12 32-8.42 32-4 32-.276 29.44 2.82 26 3.72V10C26 14.42 22.42 18 18 18M24-8C21.79-8 20-6.21 20-4 20-1.79 21.79 0 24 0 26.21 0 28-1.79 28-4 28-6.21 26.21-8 24-8" />
</g></g></svg>