<svg xmlns="http://www.w3.org/2000/svg" viewBox="0 0 46 40" width="46" height="40"><defs>
<clipPath id="clip_1">
<path transform="matrix(1,0,0,-1,0,2623.16)" d="M0 2623.16H2938.83V0H0Z" />
</clipPath>
<clipPath id="clip_2">
<path transform="matrix(1,0,0,-1,0,2623.16)" d="M0 2623.16H2938.83V0H0Z" />
</clipPath>
<clipPath id="clip_3">
<path transform="matrix(1,0,0,-1,0,2623.16)" d="M0 2623.16H2938.83V0H0Z" />
</clipPath>
</defs>
<g transform="translate(-1781 -2151)"><g clip-path="url(#clip_1)"><path transform="matrix(1,0,0,-1,1822.75,2165.1)" d="M0 0-2.25 1.33-4.05 4.07C-4.44 4.67-5.32 4.67-5.72 4.08L-8.88-.666-10.88-2.67H-28.88C-28.92-2.67-32.88-2.62-32.88 1.33-32.88 5.29-28.92 5.33-28.88 5.33-27.77 5.33-26.88 6.23-26.88 7.33-26.88 8.44-27.77 9.33-28.88 9.33-31.97 9.33-36.88 7.16-36.88 1.33-36.88-3.34-33.72-5.66-30.88-6.39V-20.47C-30.88-21.68-29.89-22.67-28.68-22.67-27.63-22.67-26.73-21.93-26.52-20.9L-24.88-12.67H-14.88V-20.47C-14.88-21.68-13.89-22.67-12.68-22.67-11.63-22.67-10.73-21.93-10.52-20.9L-8.88-12.67-4.88-6.67C-.878-6.67 1.12-6.67 1.12-2.67V-1.97C1.12-1.16 .696-.414-.002-.002Z" />
</g></g></svg>