<svg xmlns="http://www.w3.org/2000/svg" viewBox="0 0 42 48" width="42" height="48"><defs>
<clipPath id="clip_1">
<path transform="matrix(1,0,0,-1,0,2623.16)" d="M0 2623.16H2938.83V0H0Z" />
</clipPath>
<clipPath id="clip_2">
<path transform="matrix(1,0,0,-1,0,2623.16)" d="M0 2623.16H2938.83V0H0Z" />
</clipPath>
<clipPath id="clip_3">
<path transform="matrix(1,0,0,-1,0,2623.16)" d="M0 2623.16H2938.83V0H0Z" />
</clipPath>
</defs>
<g transform="translate(-2511 -1835)"><g clip-path="url(#clip_1)"><path transform="matrix(1,0,0,-1,2546.51,1853.81)" d="M0 0-20 13C-21.06 13.65-22.3 14.05-23.64 14.05-27.5 14.05-30.64 10.91-30.64 7.05V-18.95C-30.64-22.81-27.5-25.95-23.64-25.95-22.3-25.95-21.06-25.56-20-24.9L0-11.9C2.01-10.67 3.36-8.48 3.36-5.95 3.36-3.43 2.01-1.23 0 0M-2.08-8.5-22.08-21.5C-22.53-21.78-23.06-21.95-23.64-21.95-25.29-21.95-26.64-20.61-26.64-18.95V7.05C-26.64 8.7-25.29 10.05-23.64 10.05-23.06 10.05-22.53 9.88-22.08 9.6L-2.08-3.4C-1.22-3.93-.636-4.87-.636-5.95-.636-7.03-1.22-7.97-2.08-8.5" />
</g></g></svg>