<svg xmlns="http://www.w3.org/2000/svg" viewBox="0 0 38 45" width="38" height="45"><defs>
<clipPath id="clip_1">
<path transform="matrix(1,0,0,-1,0,2623.16)" d="M0 2623.16H2938.83V0H0Z" />
</clipPath>
<clipPath id="clip_2">
<path transform="matrix(1,0,0,-1,0,2623.16)" d="M0 2623.16H2938.83V0H0Z" />
</clipPath>
<clipPath id="clip_3">
<path transform="matrix(1,0,0,-1,0,2623.16)" d="M0 2623.16H2938.83V0H0Z" />
</clipPath>
</defs>
<g transform="translate(-849 -2252)"><g clip-path="url(#clip_1)"><path transform="matrix(1,0,0,-1,877.87,2267.76)" d="M0 0V4C0 7.87-3.13 11-7 11H-16.65C-20.01 11-23.11 8.79-23.83 5.51-24.37 3.07-23.57 .74-22-.872V-22C-22-24.21-20.21-26-18-26H-4C-1.79-26 0-24.21 0-22H2C4.21-22 6-20.21 6-18V-4C6-1.79 4.21 0 2 0ZM-17 7H-7C-5.34 7-4 5.66-4 4-4 2.34-5.34 1-7 1H-12V-1C-12-2.1-12.9-3-14-3-15.08-3-15.94-2.16-16-1.1L-15.94 .72-17.6 1.06C-18.98 1.34-20 2.58-20 4-20 5.66-18.66 7-17 7M-18-21V-5.44C-16.93-6.4-15.54-7-14-7-11.4-7-9.16-5.32-8.34-3H-7C-5.92-3-4.91-2.73-4-2.3V-21C-4-21.55-4.45-22-5-22H-17C-17.55-22-18-21.55-18-21M1-18H0V-4H1C1.55-4 2-4.45 2-5V-17C2-17.55 1.55-18 1-18" />
</g></g></svg>