<svg xmlns="http://www.w3.org/2000/svg" viewBox="0 0 34 50" width="34" height="50"><defs>
<clipPath id="clip_1">
<path transform="matrix(1,0,0,-1,0,2623.16)" d="M0 2623.16H2938.83V0H0Z" />
</clipPath>
<clipPath id="clip_2">
<path transform="matrix(1,0,0,-1,0,2623.16)" d="M0 2623.16H2938.83V0H0Z" />
</clipPath>
<clipPath id="clip_3">
<path transform="matrix(1,0,0,-1,0,2623.16)" d="M0 2623.16H2938.83V0H0Z" />
</clipPath>
</defs>
<g transform="translate(-852 -1731)"><g clip-path="url(#clip_1)"><path transform="matrix(1,0,0,-1,869.88,1743.76)" d="M0 0C2.21 0 4 1.79 4 4 4 6.21 2.21 8 0 8-2.21 8-4 6.21-4 4-4 1.79-2.21 0 0 0" />
<path transform="matrix(1,0,0,-1,878.2,1751.76)" d="M0 0C-.606 0-1.18 .276-1.56 .75L-4.56 4.5C-5.32 5.45-6.47 6-7.69 6H-13.1C-13.89 6-14.67 5.77-15.32 5.33L-19.03 2.86C-19.86 2.31-20.45 1.47-20.69 .5L-21.7-3.54C-22.01-4.79-21.07-6-19.78-6-18.88-6-18.1-5.39-17.87-4.52L-16.97-1.1C-16.85-.622-16.56-.208-16.15 .064L-14.56 1.12-19.45-23.62C-19.69-24.85-18.75-26-17.5-26-16.55-26-15.73-25.33-15.54-24.4L-13.04-11.79-6.51-16.94C-5.63-17.63-5.09-18.64-5-19.75L-4.63-24.15C-4.54-25.2-3.67-26-2.63-26-1.45-26-.52-24.99-.624-23.81L-1.01-19.38C-1.21-17.18-2.3-15.16-4.03-13.8L-7.44-11.11-5.67-.504-4-2.54C-3.24-3.46-2.1-4-.908-4H1.69C2.79-4 3.69-3.1 3.69-2 3.69-.896 2.79 0 1.69 0Z" />
</g></g></svg>