<svg xmlns="http://www.w3.org/2000/svg" viewBox="0 0 28 52" width="28" height="52"><defs>
<clipPath id="clip_1">
<path transform="matrix(1,0,0,-1,0,2623.16)" d="M0 2623.16H2938.83V0H0Z" />
</clipPath>
<clipPath id="clip_2">
<path transform="matrix(1,0,0,-1,0,2623.16)" d="M0 2623.16H2938.83V0H0Z" />
</clipPath>
<clipPath id="clip_3">
<path transform="matrix(1,0,0,-1,0,2623.16)" d="M0 2623.16H2938.83V0H0Z" />
</clipPath>
</defs>
<g transform="translate(-2517 -2249)"><g clip-path="url(#clip_1)"><path transform="matrix(1,0,0,-1,2537.87,2266.85)" d="M0 0V9.09C0 11.3-1.79 13.09-4 13.09H-8C-10.21 13.09-12 11.3-12 9.09V0C-12-.198-12.06-.39-12.17-.554L-15.33-5.29C-15.77-5.95-16-6.72-16-7.51V-26.91C-16-29.12-14.21-30.91-12-30.91H0C2.21-30.91 4-29.12 4-26.91V-7.51C4-6.72 3.77-5.95 3.33-5.29L.168-.554C.058-.39 0-.196 0 0M-4 8.09V7.09H-8V8.09C-8 8.64-7.55 9.09-7 9.09H-5C-4.45 9.09-4 8.64-4 8.09M-1-26.91H-11C-11.55-26.91-12-26.46-12-25.91V-7.82C-12-7.62-11.94-7.43-11.83-7.26L-8.67-2.52C-8.23-1.86-8-1.09-8-.304V3.09H-4V-.304C-4-1.09-3.77-1.87-3.33-2.52L-.168-7.26C-.058-7.43 0-7.62 0-7.82V-25.91C0-26.46-.448-26.91-1-26.91" />
</g></g></svg>