<svg xmlns="http://www.w3.org/2000/svg" viewBox="0 0 40 52" width="40" height="52"><defs>
<clipPath id="clip_1">
<path transform="matrix(1,0,0,-1,0,2623.16)" d="M0 2623.16H2938.83V0H0Z" />
</clipPath>
<clipPath id="clip_2">
<path transform="matrix(1,0,0,-1,0,2623.16)" d="M0 2623.16H2938.83V0H0Z" />
</clipPath>
<clipPath id="clip_3">
<path transform="matrix(1,0,0,-1,0,2623.16)" d="M0 2623.16H2938.83V0H0Z" />
</clipPath>
</defs>
<g transform="translate(-521 -482)"><g clip-path="url(#clip_1)"><path transform="matrix(1,0,0,-1,0,2623.16)" d="M535.88 2132.44H539.88V2128.44H535.88ZM545.88 2110.44V2096.44H529.88V2110.44C529.88 2114.85 533.46 2118.44 537.88 2118.44 542.29 2118.44 545.88 2114.85 545.88 2110.44M543.88 2124.44V2128.44H548.22L552.05 2124.61 554.88 2127.44 549.88 2132.44H543.88V2136.44H531.88V2124.44H535.88V2122.26C530.21 2121.3 525.88 2116.37 525.88 2110.44V2092.44H549.88V2110.44C549.88 2116.37 545.54 2121.3 539.88 2122.26V2124.44Z" />
<path transform="matrix(1,0,0,-1,555.88,506.72)" d="M0 0C1.1 0 2 .895 2 2 2 3.1 1.1 4 0 4-1.1 4-2 3.1-2 2-2 .895-1.1 0 0 0" />
<path transform="matrix(1,0,0,-1,555.88,514.72)" d="M0 0C1.1 0 2 .895 2 2 2 3.1 1.1 4 0 4-1.1 4-2 3.1-2 2-2 .895-1.1 0 0 0" />
<path transform="matrix(1,0,0,-1,555.88,522.72)" d="M0 0C1.1 0 2 .895 2 2 2 3.1 1.1 4 0 4-1.1 4-2 3.1-2 2-2 .895-1.1 0 0 0" />
<path transform="matrix(1,0,0,-1,535.88,510.72)" d="M0 0V-4H-4V-8H0V-12H4V-8H8V-4H4V0Z" />
</g></g></svg>