<svg xmlns="http://www.w3.org/2000/svg" viewBox="0 0 42 50" width="42" height="50"><defs>
<clipPath id="clip_1">
<path transform="matrix(1,0,0,-1,0,2623.16)" d="M0 2623.16H2938.83V0H0Z" />
</clipPath>
<clipPath id="clip_2">
<path transform="matrix(1,0,0,-1,0,2623.16)" d="M0 2623.16H2938.83V0H0Z" />
</clipPath>
<clipPath id="clip_3">
<path transform="matrix(1,0,0,-1,0,2623.16)" d="M0 2623.16H2938.83V0H0Z" />
</clipPath>
</defs>
<g transform="translate(-1366 -1627)"><g clip-path="url(#clip_1)"><path transform="matrix(1,0,0,-1,1383.26,1668.76)" d="M0 0H9.22L12.75-5H17.65L8.24 8.33C13.91 9.41 16.89 13.05 18.04 17H21.61V21H18.61V27H-9.39V21H-12.39V17H-8.82C-7.67 13.04-4.69 9.41 .98 8.33L-8.43-5H-3.53ZM2.82 4 4.61 6.53 6.4 4H2.82ZM-5.39 23H14.61V21H-5.39ZM-4.62 17H13.84C12.77 14.48 10.28 12 4.61 12-1.06 12-3.55 14.48-4.62 17ZM-3.39 31C-2.29 31-1.39 30.1-1.39 29H2.61C2.61 32.31-.082 35-3.39 35-4.49 35-5.39 35.9-5.39 37H-9.39C-9.39 33.69-6.7 31-3.39 31M10.61 31C11.71 31 12.61 30.1 12.61 29H16.61C16.61 32.31 13.92 35 10.61 35 9.51 35 8.61 35.9 8.61 37H4.61C4.61 33.69 7.3 31 10.61 31" />
</g></g></svg>