<svg xmlns="http://www.w3.org/2000/svg" viewBox="0 0 48 46" width="48" height="46"><defs>
<clipPath id="clip_1">
<path transform="matrix(1,0,0,-1,0,2623.16)" d="M0 2623.16H2938.83V0H0Z" />
</clipPath>
<clipPath id="clip_2">
<path transform="matrix(1,0,0,-1,0,2623.16)" d="M0 2623.16H2938.83V0H0Z" />
</clipPath>
<clipPath id="clip_3">
<path transform="matrix(1,0,0,-1,0,2623.16)" d="M0 2623.16H2938.83V0H0Z" />
</clipPath>
</defs>
<g transform="translate(-1052 -1733)"><g clip-path="url(#clip_1)"><path transform="matrix(1,0,0,-1,1095.39,1755.06)" d="M0 0C-1.82 8.47-8.55 14.44-17.51 15.21V15.3C-17.51 16.41-18.41 17.3-19.51 17.3-20.62 17.3-21.51 16.41-21.51 15.3V15.21C-30.47 14.44-37.21 8.47-39.02 0-39.55-2.43-37.57-4.7-35.09-4.7H-21.51V-14.7C-21.51-15.8-22.41-16.7-23.51-16.7-24.28-16.7-24.95-16.26-25.28-15.63-25.6-15.02-26.28-14.7-26.97-14.7-28.46-14.7-29.48-16.3-28.76-17.6-27.56-19.77-25.05-21.12-22.31-20.58-19.46-20.02-17.51-17.36-17.51-14.46V-4.7H-3.94C-1.45-4.7 .522-2.43 0 0" />
</g></g></svg>