<svg xmlns="http://www.w3.org/2000/svg" viewBox="0 0 28 52" width="28" height="52"><defs>
<clipPath id="clip_1">
<path transform="matrix(1,0,0,-1,0,2623.16)" d="M0 2623.16H2938.83V0H0Z" />
</clipPath>
<clipPath id="clip_2">
<path transform="matrix(1,0,0,-1,0,2623.16)" d="M0 2623.16H2938.83V0H0Z" />
</clipPath>
<clipPath id="clip_3">
<path transform="matrix(1,0,0,-1,0,2623.16)" d="M0 2623.16H2938.83V0H0Z" />
</clipPath>
</defs>
<g transform="translate(-2621 -2145)"><g clip-path="url(#clip_1)"><path transform="matrix(1,0,0,-1,2645.87,2173.76)" d="M0 0H-5.96L-1.14 6.32-3.83 10.35C-3.92 10.48-3.95 10.64-3.97 10.79-3.97 10.83-4 10.87-4 10.91V20C-4 22.21-5.79 24-8 24H-12C-14.21 24-16 22.21-16 20V10.91C-16 10.71-16.06 10.52-16.17 10.35L-19.33 5.61C-19.77 4.96-20 4.18-20 3.4V-16C-20-18.21-18.21-20-16-20H-4C-1.79-20 0-18.21 0-16V-8H-2.26L0-4.6ZM-12 19C-12 19.55-11.55 20-11 20H-9C-8.45 20-8 19.55-8 19V18H-12ZM-4-15C-4-15.55-4.45-16-5-16H-15C-15.55-16-16-15.55-16-15V3.09C-16 3.29-15.94 3.48-15.83 3.65L-12.67 8.39C-12.23 9.04-12 9.82-12 10.6V14H-8V10.6C-8 9.81-7.77 9.04-7.33 8.39L-6.06 6.48-12-1.33V-4H-4.4L-8-9.4V-12H-4Z" />
</g></g></svg>