<svg xmlns="http://www.w3.org/2000/svg" viewBox="0 0 52 43" width="52" height="43"><defs>
<clipPath id="clip_1">
<path transform="matrix(1,0,0,-1,0,2623.16)" d="M0 2623.16H2938.83V0H0Z" />
</clipPath>
<clipPath id="clip_2">
<path transform="matrix(1,0,0,-1,0,2623.16)" d="M0 2623.16H2938.83V0H0Z" />
</clipPath>
<clipPath id="clip_3">
<path transform="matrix(1,0,0,-1,0,2623.16)" d="M0 2623.16H2938.83V0H0Z" />
</clipPath>
</defs>
<g transform="translate(-425 -1004)"><g clip-path="url(#clip_1)"><path transform="matrix(1,0,0,-1,467.37,1017.93)" d="M0 0-2.81-2.81C-.128-5.34 1.45-8.21 2.19-9.83 .654-13.17-4.39-21.83-15.5-21.83-17.54-21.83-19.38-21.53-21.03-21.03L-24.15-24.15C-21.68-25.17-18.82-25.83-15.5-25.83 1.16-25.83 6.5-9.83 6.5-9.83 6.5-9.83 4.71-4.51 0 0" />
<path transform="matrix(1,0,0,-1,451.87,1035.76)" d="M0 0C4.41 0 8 3.59 8 8 8 8.71 7.88 9.38 7.7 10.04L-2.04 .294C-1.38 .12-.71-.002-.002-.002Z" />
<path transform="matrix(1,0,0,-1,465.04,1008.93)" d="M0 0-4.5-4.5C-6.97-3.48-9.84-2.83-13.17-2.83-29.82-2.83-35.17-18.83-35.17-18.83-35.17-18.83-33.37-24.16-28.66-28.66L-32-32-29.17-34.83 2.83-2.83ZM-13.17-10.83C-17.58-10.83-21.17-14.42-21.17-18.83-21.17-19.54-21.04-20.22-20.87-20.87L-25.84-25.84C-28.53-23.31-30.11-20.45-30.85-18.83-29.31-15.49-24.27-6.83-13.16-6.83-11.12-6.83-9.29-7.14-7.65-7.65L-11.13-11.13C-11.78-10.95-12.45-10.83-13.16-10.83Z" />
</g></g></svg>