<svg xmlns="http://www.w3.org/2000/svg" viewBox="0 0 44 42" width="44" height="42"><defs>
<clipPath id="clip_1">
<path transform="matrix(1,0,0,-1,0,2623.16)" d="M0 2623.16H2938.83V0H0Z" />
</clipPath>
<clipPath id="clip_2">
<path transform="matrix(1,0,0,-1,0,2623.16)" d="M0 2623.16H2938.83V0H0Z" />
</clipPath>
<clipPath id="clip_3">
<path transform="matrix(1,0,0,-1,0,2623.16)" d="M0 2623.16H2938.83V0H0Z" />
</clipPath>
</defs>
<g transform="translate(-1885 -1109)"><g clip-path="url(#clip_1)"><path transform="matrix(1,0,0,-1,1921.88,1131.76)" d="M0 0V-6H-10V2.53L-4.8 5.53-12 18-32 6.45-29.64 3.74-32 2.38-28-4.55-24.28-2.4-22.36-4.61-14 .216V-10H0V-16H4V-.002ZM-25.79 5.42-13.46 12.54-10.26 6.99-21.51 .504-25.79 5.42Z" />
</g></g></svg>