<svg xmlns="http://www.w3.org/2000/svg" viewBox="0 0 52 44" width="52" height="44"><defs>
<clipPath id="clip_1">
<path transform="matrix(1,0,0,-1,0,2623.16)" d="M0 2623.16H2938.83V0H0Z" />
</clipPath>
<clipPath id="clip_2">
<path transform="matrix(1,0,0,-1,0,2623.16)" d="M0 2623.16H2938.83V0H0Z" />
</clipPath>
<clipPath id="clip_3">
<path transform="matrix(1,0,0,-1,0,2623.16)" d="M0 2623.16H2938.83V0H0Z" />
</clipPath>
</defs>
<g transform="translate(-1465 -901)"><g clip-path="url(#clip_1)"><path transform="matrix(1,0,0,-1,1511.27,921.76)" d="M0 0-2.61 7.14C-3.11 8.82-4.69 10-6.45 10H-9.4V12C-9.4 14.21-11.19 16-13.4 16H-25.4C-27.6 16-29.4 14.21-29.4 12V10H-32.35C-34.11 10-35.69 8.82-36.15 7.25L-38.8 0H-41.4V-4H-39.4V-14C-39.4-15.47-38.59-16.75-37.4-17.44V-18C-37.4-19.11-36.5-20-35.4-20H-31.4C-30.29-20-29.4-19.11-29.4-18H-9.4C-9.4-19.11-8.5-20-7.4-20H-3.4C-2.29-20-1.4-19.11-1.4-18V-17.44C-.208-16.75 .602-15.47 .602-14V-4H2.6V0ZM-25.4 12H-13.4V10H-25.4ZM-32.35 6H-6.45L-4.26 0H-34.54ZM-3.4-14-31.38-14C-31.39-14-35.4-14-35.4-14V-4H-3.4Z" />
<path transform="matrix(1,0,0,-1,1479.88,931.76)" d="M0 0C1.1 0 2 .895 2 2 2 3.1 1.1 4 0 4-1.1 4-2 3.1-2 2-2 .895-1.1 0 0 0" />
<path transform="matrix(1,0,0,-1,1503.88,931.76)" d="M0 0C1.1 0 2 .895 2 2 2 3.1 1.1 4 0 4-1.1 4-2 3.1-2 2-2 .895-1.1 0 0 0" />
<path transform="matrix(1,0,0,-1,0,2623.16)" d="M1485.88 1689.4H1497.88V1693.4H1485.88Z" />
</g></g></svg>