<svg xmlns="http://www.w3.org/2000/svg" viewBox="0 0 44 44" width="44" height="44"><defs>
<clipPath id="clip_1">
<path transform="matrix(1,0,0,-1,0,2623.16)" d="M0 2623.16H2938.83V0H0Z" />
</clipPath>
<clipPath id="clip_2">
<path transform="matrix(1,0,0,-1,0,2623.16)" d="M0 2623.16H2938.83V0H0Z" />
</clipPath>
<clipPath id="clip_3">
<path transform="matrix(1,0,0,-1,0,2623.16)" d="M0 2623.16H2938.83V0H0Z" />
</clipPath>
</defs>
<g transform="translate(-1157 -1941)"><g clip-path="url(#clip_1)"><path transform="matrix(1,0,0,-1,1195.87,1945.76)" d="M0 0H-14C-15.1 0-16-.896-16-2-16-3.1-15.1-4-14-4H-4.83L-19.41-18.59C-19.78-18.95-20-19.45-20-20-20-21.1-19.1-22-18-22-17.45-22-16.95-21.78-16.59-21.41L-2-6.83V-16C-2-17.1-1.1-18 0-18 1.1-18 2-17.1 2-16V-2C2-.896 1.1 0 0 0" />
<path transform="matrix(1,0,0,-1,1191.87,1967.76)" d="M0 0C-1.1 0-2-.896-2-2V-6C-2-8.21-3.79-10-6-10H-22C-24.21-10-26-8.21-26-6V10C-26 12.21-24.21 14-22 14H-18C-16.9 14-16 14.9-16 16-16 17.1-16.9 18-18 18H-22C-26.42 18-30 14.42-30 10V-6C-30-10.42-26.42-14-22-14H-6C-1.58-14 2-10.42 2-6V-2C2-.896 1.1 0 0 0" />
</g></g></svg>