<svg xmlns="http://www.w3.org/2000/svg" viewBox="0 0 27 52" width="27" height="52"><defs>
<clipPath id="clip_1">
<path transform="matrix(1,0,0,-1,0,2623.16)" d="M0 2623.16H2938.83V0H0Z" />
</clipPath>
<clipPath id="clip_2">
<path transform="matrix(1,0,0,-1,0,2623.16)" d="M0 2623.16H2938.83V0H0Z" />
</clipPath>
<clipPath id="clip_3">
<path transform="matrix(1,0,0,-1,0,2623.16)" d="M0 2623.16H2938.83V0H0Z" />
</clipPath>
</defs>
<g transform="translate(-542 -2041)"><g clip-path="url(#clip_1)"><path transform="matrix(1,0,0,-1,563.25,2061.76)" d="M0 0C1.32 0 2.28 1.26 1.93 2.53L-1.37 14.53C-1.61 15.4-2.4 16-3.3 16H-11.45C-12.35 16-13.14 15.4-13.38 14.53L-16.68 2.53C-17.03 1.26-16.07 0-14.75 0H-9.38V-24H-13.38C-14.48-24-15.38-24.9-15.38-26V-28H.624V-26C.624-24.9-.272-24-1.38-24H-5.38V0ZM-11.47 4C-11.8 4-12.04 4.31-11.95 4.63L-10.03 11.63C-9.97 11.85-9.77 12-9.55 12H-5.21C-4.98 12-4.78 11.85-4.72 11.63L-2.8 4.63C-2.71 4.31-2.95 4-3.28 4Z" />
</g></g></svg>