<svg xmlns="http://www.w3.org/2000/svg" viewBox="0 0 52 42" width="52" height="42"><defs>
<clipPath id="clip_1">
<path transform="matrix(1,0,0,-1,0,2623.16)" d="M0 2623.16H2938.83V0H0Z" />
</clipPath>
<clipPath id="clip_2">
<path transform="matrix(1,0,0,-1,0,2623.16)" d="M0 2623.16H2938.83V0H0Z" />
</clipPath>
<clipPath id="clip_3">
<path transform="matrix(1,0,0,-1,0,2623.16)" d="M0 2623.16H2938.83V0H0Z" />
</clipPath>
</defs>
<g transform="translate(-945 -1213)"><g clip-path="url(#clip_1)"><path transform="matrix(1,0,0,-1,988.8,1229.76)" d="M0 0C-.752 .834-2.13 2.2-4.11 3.57-3.78 3.82-3.38 4-2.93 4V8C-4.87 8-6.58 7.06-7.68 5.62-10.54 6.97-14.11 8-18.41 8-26.47 8-31.58 5.28-33.41 4.1-34.28 4.32-34.93 5.07-34.93 6-34.93 7.1-34.03 8-32.93 8V12C-36.24 12-38.93 9.31-38.93 6-38.93 3.4-37.25 1.2-34.93 .368V-22H-27.49L-25.75-16.79C-24.22-17.47-22.27-18-19.93-18-17.97-18-16.07-17.62-14.33-16.88L-12.28-22H-4.93V-12H-.458L5.07-9.24V0ZM1.07-6.76-1.4-8H-8.93V-18H-9.58L-11.98-12H-13.77C-13.77-12-16.02-14-19.93-14-23.84-14-26.05-12-26.05-12H-28.37L-30.37-18H-30.93V.924C-29.31 1.9-25.05 4-18.41 4-7.09 4-1.93-4-1.93-4H1.07Z" />
</g></g></svg>