<svg xmlns="http://www.w3.org/2000/svg" viewBox="0 0 28 52" width="28" height="52"><defs>
<clipPath id="clip_1">
<path transform="matrix(1,0,0,-1,0,2623.16)" d="M0 2623.16H2938.83V0H0Z" />
</clipPath>
<clipPath id="clip_2">
<path transform="matrix(1,0,0,-1,0,2623.16)" d="M0 2623.16H2938.83V0H0Z" />
</clipPath>
<clipPath id="clip_3">
<path transform="matrix(1,0,0,-1,0,2623.16)" d="M0 2623.16H2938.83V0H0Z" />
</clipPath>
</defs>
<g transform="translate(-2102 -2041)"><g clip-path="url(#clip_1)"><path transform="matrix(1,0,0,-1,2115.87,2057.76)" d="M0 0C-3.31 0-6 2.69-6 6-6 9.31-3.31 12 0 12 3.31 12 6 9.31 6 6 6 2.69 3.31 0 0 0M0 8C-1.1 8-2 7.1-2 6-2 4.9-1.1 4 0 4 1.1 4 2 4.9 2 6 2 7.1 1.1 8 0 8" />
<path transform="matrix(1,0,0,-1,2119.87,2089.76)" d="M0 0C-1.11 0-2 .894-2 2V10C-2 11.11-1.11 12 0 12H1.77L.406 24.22C.294 25.23-.56 26-1.58 26H-6.42C-7.44 26-8.3 25.23-8.41 24.22L-9.77 12H-8C-6.89 12-6 11.11-6 10V2C-6 .894-6.89 0-8 0-9.11 0-10 .894-10 2V8.01C-11.05 8.07-12.04 8.54-12.75 9.33-13.5 10.18-13.87 11.31-13.74 12.44L-12.38 24.66C-12.04 27.7-9.48 30-6.42 30H-1.58C1.48 30 4.04 27.71 4.38 24.66L5.74 12.44C5.87 11.31 5.5 10.18 4.75 9.33 4.04 8.54 3.05 8.07 2 8.01V2C2 .894 1.11 0 0 0" />
</g></g></svg>