<svg xmlns="http://www.w3.org/2000/svg" viewBox="0 0 52 38" width="52" height="38"><defs>
<clipPath id="clip_1">
<path transform="matrix(1,0,0,-1,0,2623.16)" d="M0 2623.16H2938.83V0H0Z" />
</clipPath>
<clipPath id="clip_2">
<path transform="matrix(1,0,0,-1,0,2623.16)" d="M0 2623.16H2938.83V0H0Z" />
</clipPath>
<clipPath id="clip_3">
<path transform="matrix(1,0,0,-1,0,2623.16)" d="M0 2623.16H2938.83V0H0Z" />
</clipPath>
</defs>
<g transform="translate(-1379 -490)"><g clip-path="url(#clip_1)"><path transform="matrix(1,0,0,-1,0,2623.16)" d="M1391.88 2124.44H1419.88V2122.44H1391.88ZM1395.88 2118.44H1415.88L1419.88 2098.44H1423.88L1419.88 2118.44H1423.88V2124.44H1427.88V2128.44H1383.88V2124.44H1387.88V2118.44H1391.88L1387.88 2098.44H1391.88Z" />
</g></g></svg>