<svg xmlns="http://www.w3.org/2000/svg" viewBox="0 0 132 139" width="132" height="139"><defs>
<clipPath id="clip_1">
<path transform="matrix(1,0,0,-1,0,2623.16)" d="M0 2623.16H2938.83V0H0Z" />
</clipPath>
<clipPath id="clip_2">
<path transform="matrix(1,0,0,-1,0,2623.16)" d="M0 2623.16H2938.83V0H0Z" />
</clipPath>
<clipPath id="clip_3">
<path transform="matrix(1,0,0,-1,0,2623.16)" d="M0 2623.16H2938.83V0H0Z" />
</clipPath>
</defs>
<g transform="translate(-2517 -611)"><g clip-path="url(#clip_3)"><path transform="matrix(1,0,0,-1,2530.49,652.3)" d="M0 0-.016-54.55C-.018-59.83 .43-64.73 1.56-69.71 4.24-81.56 16.35-83.3 27.03-83.38L55.14-83.6C57.87-83.62 59.92-84.94 60.29-87.49 60.6-89.72 58.93-92.64 56.05-92.72 44.36-93.05 32.84-92.8 21.14-92.12 7.77-91.36-3.86-86.02-7.21-72.07-8.55-66.49-9.08-61.05-9.09-55.14L-9.09-.301C-9.1 14.72-6.36 30.16 9.89 34.81 15.53 36.43 21.11 37.16 27.05 37.16L72.58 37.15C87.05 37.15 102.06 33.52 106.42 18.02 108.94 9.07 109.02-6.62 108.65-16.12 108.55-18.52 105.97-20.3 103.96-20.14 101.81-19.98 99.75-18.06 99.71-15.6L99.39 3.91C99.22 13.87 96.99 23.66 86.33 26.29 81.17 27.57 75.96 28.11 70.48 28.11L29.75 28.12C23.9 28.12 18.3 27.63 12.83 26.18 7.04 24.65 2.99 20.53 1.63 14.73 .514 10 .002 5.39 0 0" />
<path transform="matrix(1,0,0,-1,2604.8,654.21)" d="M0 0-48.71-.076C-51.37-.08-53.11 2.1-53.23 4.32-53.37 6.74-51.52 9.05-48.67 9.05L-.895 9.09C1.76 9.09 3.7 7.62 4.1 5.3 4.46 3.19 3.08 .005 0 0" />
<path transform="matrix(1,0,0,-1,2586.24,684.48)" d="M0 0-30.18 .003C-32.68 .003-34.35 1.86-34.65 4.04-34.92 6.06-33.49 8.92-30.81 8.91L1.12 8.84C3.61 8.83 4.79 5.76 4.53 3.97 4.22 1.83 2.51 0 0 0" />
<path transform="matrix(1,0,0,-1,2626.34,731.77)" d="M0 0C1.65-.585 2.96-1.39 4.87-1.72L3.14 5.98C-1.39 4.77-5.43 4.77-9.75 5.74-10.64 3.24-11.38 1.01-11.75-1.59-7.01-.288-5.24 2.12 0 0M9.85 27.65C9.85 35.15 3.77 41.23-3.73 41.23-11.23 41.23-17.31 35.15-17.31 27.65-17.31 20.16-11.23 14.08-3.73 14.08 3.77 14.08 9.85 20.16 9.85 27.65M-3.27-8.94C-9.07-8.53-16.39-16.44-21.18-11.44-22.51-10.05-23.22-7.9-22.56-5.57L-18.12 10.15C-28.31 18.61-29.11 33.43-20.53 42.9-11.87 52.44 3.12 52.77 12.2 43.8 21.42 34.69 21.24 19.84 11.47 10.8L15.37-6.44C15.85-8.57 14.88-10.39 13.71-11.58 9.27-16.13 2.31-9.35-3.27-8.94" />
</g></g></svg>