<svg xmlns="http://www.w3.org/2000/svg" viewBox="0 0 51 52" width="51" height="52"><defs>
<clipPath id="clip_1">
<path transform="matrix(1,0,0,-1,0,2623.16)" d="M0 2623.16H2938.83V0H0Z" />
</clipPath>
<clipPath id="clip_2">
<path transform="matrix(1,0,0,-1,0,2623.16)" d="M0 2623.16H2938.83V0H0Z" />
</clipPath>
<clipPath id="clip_3">
<path transform="matrix(1,0,0,-1,0,2623.16)" d="M0 2623.16H2938.83V0H0Z" />
</clipPath>
</defs>
<g transform="translate(-1466 -1833)"><g clip-path="url(#clip_1)"><path transform="matrix(1,0,0,-1,1485.11,1840.79)" d="M0 0-.644-2.57C-1.74-3.07-2.77-3.67-3.74-4.36L-6.29-3.63C-8.06-3.13-9.94-3.89-10.86-5.48L-13.73-10.46C-14.65-12.05-14.37-14.06-13.05-15.34L-11.15-17.17C-11.21-17.76-11.24-18.36-11.24-18.97-11.24-19.58-11.21-20.18-11.15-20.77L-13.05-22.6C-14.37-23.88-14.65-25.89-13.73-27.48L-10.86-32.46C-9.94-34.05-8.06-34.81-6.29-34.31L-3.74-33.58C-2.77-34.27-1.74-34.87-.644-35.37L0-37.94C.446-39.72 2.05-40.97 3.88-40.97H9.63C11.47-40.97 13.07-39.72 13.51-37.94L14.16-35.37C15.25-34.87 16.28-34.27 17.25-33.58L19.81-34.31C21.57-34.81 23.45-34.05 24.37-32.46L27.25-27.48C28.17-25.89 27.88-23.88 26.56-22.6L24.67-20.77C24.72-20.18 24.76-19.58 24.76-18.97 24.76-18.36 24.72-17.76 24.67-17.17L26.56-15.34C27.88-14.06 28.17-12.05 27.25-10.46L24.37-5.48C23.45-3.89 21.57-3.13 19.81-3.63L17.25-4.36C16.29-3.67 15.25-3.07 14.16-2.57L13.51 0C13.07 1.78 11.47 3.03 9.63 3.03H3.88C2.04 3.03 .444 1.78 0 0M-2.97-8.74-1.4-7.61C-.64-7.07 .168-6.6 1.01-6.22L2.77-5.42 3.88-.97H9.64L10.75-5.42 12.52-6.22C13.35-6.6 14.16-7.07 14.92-7.61L16.49-8.74 20.91-7.48 23.79-12.46 20.5-15.64 20.69-17.57C20.74-18.04 20.76-18.52 20.76-18.97 20.76-19.42 20.74-19.9 20.69-20.37L20.5-22.3 23.79-25.48 20.91-30.46 16.49-29.2 14.92-30.33C14.16-30.87 13.35-31.34 12.51-31.72L10.75-32.52 9.64-36.97H3.88L2.77-32.52 1-31.72C.166-31.34-.642-30.87-1.4-30.33L-2.97-29.2-7.39-30.46-10.27-25.48-6.98-22.3-7.17-20.37C-7.22-19.9-7.24-19.43-7.24-18.97-7.24-18.51-7.22-18.04-7.17-17.57L-6.98-15.64-10.27-12.46-7.4-7.48-2.97-8.74Z" />
<path transform="matrix(1,0,0,-1,1491.87,1855.76)" d="M0 0C2.21 0 4-1.79 4-4 4-6.21 2.21-8 0-8-2.21-8-4-6.21-4-4-4-1.79-2.21 0 0 0M0 4C-4.42 4-8 .418-8-4-8-8.42-4.42-12 0-12 4.42-12 8-8.42 8-4 8 .418 4.42 4 0 4" />
</g></g></svg>