<svg xmlns="http://www.w3.org/2000/svg" viewBox="0 0 44 44" width="44" height="44"><defs>
<clipPath id="clip_1">
<path transform="matrix(1,0,0,-1,0,2623.16)" d="M0 2623.16H2938.83V0H0Z" />
</clipPath>
<clipPath id="clip_2">
<path transform="matrix(1,0,0,-1,0,2623.16)" d="M0 2623.16H2938.83V0H0Z" />
</clipPath>
<clipPath id="clip_3">
<path transform="matrix(1,0,0,-1,0,2623.16)" d="M0 2623.16H2938.83V0H0Z" />
</clipPath>
</defs>
<g transform="translate(-1157 -1109)"><g clip-path="url(#clip_1)"><path transform="matrix(1,0,0,-1,1161.87,1149.76)" d="M0 0 28 18 0 36ZM4 28.67 20.6 18 4 7.33Z" />
<path transform="matrix(1,0,0,-1,0,2623.16)" d="M1193.87 1475.4H1197.87V1507.4H1193.87Z" />
</g></g></svg>