<svg xmlns="http://www.w3.org/2000/svg" viewBox="0 0 40 52" width="40" height="52"><defs>
<clipPath id="clip_1">
<path transform="matrix(1,0,0,-1,0,2623.16)" d="M0 2623.16H2938.83V0H0Z" />
</clipPath>
<clipPath id="clip_2">
<path transform="matrix(1,0,0,-1,0,2623.16)" d="M0 2623.16H2938.83V0H0Z" />
</clipPath>
<clipPath id="clip_3">
<path transform="matrix(1,0,0,-1,0,2623.16)" d="M0 2623.16H2938.83V0H0Z" />
</clipPath>
</defs>
<g transform="translate(-1095 -674)"><g clip-path="url(#clip_1)"><path transform="matrix(1,0,0,-1,1119.88,694.72)" d="M0 0H-16C-16 3.31-13.31 6-10 6H-6C-2.69 6 0 3.31 0 0M1 12H12V16H1C-3.26 16-6.93 13.55-8.76 10H-10C-15.51 10-20 5.51-20 0V-4H4V0C4 4.84 .534 8.89-4.05 9.8-2.78 11.15-.992 12 1 12" />
<path transform="matrix(1,0,0,-1,1105.88,706.72)" d="M0 0C1.1 0 2 .895 2 2 2 3.1 1.1 4 0 4-1.1 4-2 3.1-2 2-2 .895-1.1 0 0 0" />
<path transform="matrix(1,0,0,-1,1105.88,714.72)" d="M0 0C1.1 0 2 .895 2 2 2 3.1 1.1 4 0 4-1.1 4-2 3.1-2 2-2 .895-1.1 0 0 0" />
<path transform="matrix(1,0,0,-1,1105.88,722.72)" d="M0 0C1.1 0 2 .895 2 2 2 3.1 1.1 4 0 4-1.1 4-2 3.1-2 2-2 .895-1.1 0 0 0" />
<path transform="matrix(1,0,0,-1,1111.88,706.72)" d="M0 0C1.1 0 2 .895 2 2 2 3.1 1.1 4 0 4-1.1 4-2 3.1-2 2-2 .895-1.1 0 0 0" />
<path transform="matrix(1,0,0,-1,1111.88,714.72)" d="M0 0C1.1 0 2 .895 2 2 2 3.1 1.1 4 0 4-1.1 4-2 3.1-2 2-2 .895-1.1 0 0 0" />
<path transform="matrix(1,0,0,-1,1111.88,722.72)" d="M0 0C1.1 0 2 .895 2 2 2 3.1 1.1 4 0 4-1.1 4-2 3.1-2 2-2 .895-1.1 0 0 0" />
<path transform="matrix(1,0,0,-1,1117.88,706.72)" d="M0 0C1.1 0 2 .895 2 2 2 3.1 1.1 4 0 4-1.1 4-2 3.1-2 2-2 .895-1.1 0 0 0" />
<path transform="matrix(1,0,0,-1,1117.88,714.72)" d="M0 0C1.1 0 2 .895 2 2 2 3.1 1.1 4 0 4-1.1 4-2 3.1-2 2-2 .895-1.1 0 0 0" />
<path transform="matrix(1,0,0,-1,1117.88,722.72)" d="M0 0C1.1 0 2 .895 2 2 2 3.1 1.1 4 0 4-1.1 4-2 3.1-2 2-2 .895-1.1 0 0 0" />
</g></g></svg>