<svg xmlns="http://www.w3.org/2000/svg" viewBox="0 0 50 36" width="50" height="36"><defs>
<clipPath id="clip_1">
<path transform="matrix(1,0,0,-1,0,2623.16)" d="M0 2623.16H2938.83V0H0Z" />
</clipPath>
<clipPath id="clip_2">
<path transform="matrix(1,0,0,-1,0,2623.16)" d="M0 2623.16H2938.83V0H0Z" />
</clipPath>
<clipPath id="clip_3">
<path transform="matrix(1,0,0,-1,0,2623.16)" d="M0 2623.16H2938.83V0H0Z" />
</clipPath>
</defs>
<g transform="translate(-321 -2153)"><g clip-path="url(#clip_1)"><path transform="matrix(1,0,0,-1,366.35,2163.35)" d="M0 0-5.85 1.59C-5.85 1.59-6.47 5.59-10.47 5.59V-.414C-10.47-1.52-11.37-2.41-12.47-2.41H-32.47C-34.7-2.41-36.42-.588-36.47 1.64-36.5 2.72-37.39 3.59-38.47 3.59-39.58 3.59-40.47 2.69-40.47 1.59-40.47-2.13-37.92-5.24-34.47-6.13V-20.03C-34.47-21.35-33.41-22.41-32.09-22.41-31.11-22.41-30.24-21.82-29.87-20.91L-26.47-12.41H-18.47L-16.86-20.5C-16.64-21.61-15.66-22.41-14.52-22.41H-14.43C-13.29-22.41-12.31-21.61-12.09-20.5L-10.48-12.41-6.48-6.41H-1.33C-.758-6.41-.204-6.17 .176-5.74 .882-4.94 1.33-4.08 1.47-2.05 1.54-1.1 .908-.246-.004 0Z" />
</g></g></svg>