<svg xmlns="http://www.w3.org/2000/svg" viewBox="0 0 40 48" width="40" height="48"><defs>
<clipPath id="clip_1">
<path transform="matrix(1,0,0,-1,0,2623.16)" d="M0 2623.16H2938.83V0H0Z" />
</clipPath>
<clipPath id="clip_2">
<path transform="matrix(1,0,0,-1,0,2623.16)" d="M0 2623.16H2938.83V0H0Z" />
</clipPath>
<clipPath id="clip_3">
<path transform="matrix(1,0,0,-1,0,2623.16)" d="M0 2623.16H2938.83V0H0Z" />
</clipPath>
</defs>
<g transform="translate(-1159 -1419)"><g clip-path="url(#clip_1)"><path transform="matrix(1,0,0,-1,1183.87,1423.76)" d="M0 0H-4L-4-2.06C-3.98-7.46-4-14-7-14-7.9-14-10-14-10-10H-14C-14.41-10.51-20-17.67-20-25.2-20-33.91-13.42-40-4-40 5.42-40 12-33.91 12-25.2 12-9.17 0 0 0 0M-8-32C-8-29.51-6.76-26-4-26-1.24-26 0-29.51 0-32 0-34.77-1.23-36-4-36-6.77-36-8-34.77-8-32M3.87-33.66C3.95-33.13 4-32.58 4-32 4-26.62 .128-22-4-22-8.13-22-12-26.62-12-32-12-32.58-11.95-33.13-11.87-33.66-14.32-31.9-16-29.13-16-25.2-16-21.38-14.15-17.57-12.67-15.12-11.48-16.96-9.55-18-7-18-5.13-18-3.61-17.43-2.49-16.3-.606-14.41-.11-10.36 0-6 0-6 8-13.49 8-25.2 8-29.13 6.32-31.9 3.87-33.66" />
</g></g></svg>