<svg xmlns="http://www.w3.org/2000/svg" viewBox="0 0 40 50" width="40" height="50"><defs>
<clipPath id="clip_1">
<path transform="matrix(1,0,0,-1,0,2623.16)" d="M0 2623.16H2938.83V0H0Z" />
</clipPath>
<clipPath id="clip_2">
<path transform="matrix(1,0,0,-1,0,2623.16)" d="M0 2623.16H2938.83V0H0Z" />
</clipPath>
<clipPath id="clip_3">
<path transform="matrix(1,0,0,-1,0,2623.16)" d="M0 2623.16H2938.83V0H0Z" />
</clipPath>
</defs>
<g transform="translate(-951 -1729)"><g clip-path="url(#clip_1)"><path transform="matrix(1,0,0,-1,971.87,1767.76)" d="M0 0C2.21 0 4 1.79 4 4 4 6.21 2.21 8 0 8-2.21 8-4 6.21-4 4-4 1.79-2.21 0 0 0" />
<path transform="matrix(1,0,0,-1,979.87,1751.76)" d="M0 0H-16V6C-16 10.41-12.41 14-8 14-3.59 14 0 10.41 0 6 0 4.9 .896 4 2 4 3.1 4 4 4.9 4 6 4 12.62-1.38 18-8 18-14.62 18-20 12.62-20 6V-1.11C-22.38-2.5-24-5.05-24-8V-16C-24-20.42-20.42-24-16-24H0C4.42-24 8-20.42 8-16V-8C8-3.58 4.42 0 0 0M4-16C4-18.21 2.21-20 0-20H-16C-18.21-20-20-18.21-20-16V-8C-20-5.79-18.21-4-16-4H0C2.21-4 4-5.79 4-8Z" />
</g></g></svg>