<svg xmlns="http://www.w3.org/2000/svg" viewBox="0 0 52 40" width="52" height="40"><defs>
<clipPath id="clip_1">
<path transform="matrix(1,0,0,-1,0,2623.16)" d="M0 2623.16H2938.83V0H0Z" />
</clipPath>
<clipPath id="clip_2">
<path transform="matrix(1,0,0,-1,0,2623.16)" d="M0 2623.16H2938.83V0H0Z" />
</clipPath>
<clipPath id="clip_3">
<path transform="matrix(1,0,0,-1,0,2623.16)" d="M0 2623.16H2938.83V0H0Z" />
</clipPath>
</defs>
<g transform="translate(-2089 -1319)"><g clip-path="url(#clip_1)"><path transform="matrix(1,0,0,-1,0,2623.16)" d="M2093.87 1267.4H2137.87V1299.4H2093.87ZM2133.87 1271.4H2097.87V1295.4H2133.87Z" />
<path transform="matrix(1,0,0,-1,2126.87,1337.76)" d="M0 0C1.66 0 3 1.34 3 3 3 4.66 1.66 6 0 6-1.66 6-3 4.66-3 3-3 1.34-1.66 0 0 0" />
<path transform="matrix(1,0,0,-1,2121.87,1339.76)" d="M0 0-3.64-3.64-10 4-20-8H8Z" />
</g></g></svg>