<svg xmlns="http://www.w3.org/2000/svg" viewBox="0 0 40 44" width="40" height="44"><defs>
<clipPath id="clip_1">
<path transform="matrix(1,0,0,-1,0,2623.16)" d="M0 2623.16H2938.83V0H0Z" />
</clipPath>
<clipPath id="clip_2">
<path transform="matrix(1,0,0,-1,0,2623.16)" d="M0 2623.16H2938.83V0H0Z" />
</clipPath>
<clipPath id="clip_3">
<path transform="matrix(1,0,0,-1,0,2623.16)" d="M0 2623.16H2938.83V0H0Z" />
</clipPath>
</defs>
<g transform="translate(-743 -1941)"><g clip-path="url(#clip_1)"><path transform="matrix(1,0,0,-1,776.72,1966.95)" d="M0 0-.844 .422V8.76C-.844 15.12-5.6 20.55-11.67 21.13-15.05 21.46-18.42 20.34-20.91 18.07-23.41 15.8-24.84 12.56-24.84 9.19V.424L-25.69 .002C-27.64-.972-28.84-2.93-28.84-5.1-28.84-8.25-26.28-10.81-23.14-10.81H-16.84C-16.84-13.02-15.05-14.81-12.84-14.81-10.64-14.81-8.84-13.02-8.84-10.81H-2.55C.594-10.81 3.16-8.25 3.16-5.1 3.16-2.93 1.95-.974 0 .002ZM-2.55-6.81H-23.14C-24.08-6.81-24.85-6.05-24.85-5.11-24.85-4.46-24.48-3.87-23.9-3.58L-21.95-2.6C-21.27-2.27-20.84-1.57-20.84-.816V8.83C-20.84 11.1-20.05 13.35-18.42 14.92-16.9 16.39-14.94 17.18-12.85 17.18-12.59 17.18-12.32 17.17-12.05 17.14-8.01 16.76-4.84 13.07-4.84 8.75V-.818C-4.84-1.58-4.42-2.27-3.74-2.61L-1.79-3.58C-1.2-3.87-.842-4.46-.842-5.11-.842-6.05-1.61-6.82-2.55-6.82Z" fill-rule="evenodd" />
</g></g></svg>