<svg xmlns="http://www.w3.org/2000/svg" viewBox="0 0 52 42" width="52" height="42"><defs>
<clipPath id="clip_1">
<path transform="matrix(1,0,0,-1,0,2623.16)" d="M0 2623.16H2938.83V0H0Z" />
</clipPath>
<clipPath id="clip_2">
<path transform="matrix(1,0,0,-1,0,2623.16)" d="M0 2623.16H2938.83V0H0Z" />
</clipPath>
<clipPath id="clip_3">
<path transform="matrix(1,0,0,-1,0,2623.16)" d="M0 2623.16H2938.83V0H0Z" />
</clipPath>
</defs>
<g transform="translate(-2401 -2149)"><g clip-path="url(#clip_1)"><path transform="matrix(1,0,0,-1,2441.17,2155.76)" d="M0 0-1.69 1.28C-2.29 1.75-3.04 2-3.8 2-5.73 2-7.3 .434-7.3-1.5V-6C-7.3-7.1-8.2-8-9.3-8H-10.23L-12.53-4.55C-13.93-2.46-16.56-1.47-19.12-2.29-20.39-2.7-21.44-3.61-22.18-4.72L-24.37-8H-29.3C-30.71-8-35.3-8.72-35.3-18-35.3-19.1-34.4-20-33.3-20-32.19-20-31.3-19.1-31.3-18-31.3-13.88-30.26-12-29.3-12V-28C-29.3-30.21-27.51-32-25.3-32H-22.86C-21.02-32-19.42-30.75-18.98-28.97L-17.92-24.76C-17.81-24.31-17.41-24-16.95-24H-15.64C-15.18-24-14.78-24.31-14.67-24.76L-13.62-28.97C-13.17-30.75-11.57-32-9.74-32H-7.3C-5.09-32-3.3-30.21-3.3-28V-21.8C1.98-20.69 2.62-15.01 2.69-10H2.7C5.63-10 7.98-7.47 7.68-4.48 7.41-1.88 5.03 0 2.41 0ZM2.7-6H.7C-.404-6-1.3-6.91-1.3-8.01-1.3-15.5-1.88-18-5.29-18-6.4-18-7.3-18.9-7.3-20V-28H-9.74L-10.98-23.03C-11.43-21.25-13.03-20-14.86-20H-17.74C-19.57-20-21.17-21.25-21.62-23.03L-22.86-28H-25.3V-12H-22.23L-18.74-6.77C-18.06-5.74-16.54-5.74-15.85-6.77L-12.37-12H-9.3C-5.99-12-3.3-9.31-3.3-6V-2.51L-1.35-4H2.7C3.25-4 3.7-4.45 3.7-5 3.7-5.55 3.25-6 2.7-6" />
</g></g></svg>