<svg xmlns="http://www.w3.org/2000/svg" viewBox="0 0 40 47" width="40" height="47"><defs>
<clipPath id="clip_1">
<path transform="matrix(1,0,0,-1,0,2623.16)" d="M0 2623.16H2938.83V0H0Z" />
</clipPath>
<clipPath id="clip_2">
<path transform="matrix(1,0,0,-1,0,2623.16)" d="M0 2623.16H2938.83V0H0Z" />
</clipPath>
<clipPath id="clip_3">
<path transform="matrix(1,0,0,-1,0,2623.16)" d="M0 2623.16H2938.83V0H0Z" />
</clipPath>
</defs>
<g transform="translate(-951 -900)"><g clip-path="url(#clip_1)"><path transform="matrix(1,0,0,-1,965.87,929.76)" d="M0 0C1.1 0 2 .895 2 2 2 3.1 1.1 4 0 4-1.1 4-2 3.1-2 2-2 .895-1.1 0 0 0" />
<path transform="matrix(1,0,0,-1,977.87,929.76)" d="M0 0C1.1 0 2 .895 2 2 2 3.1 1.1 4 0 4-1.1 4-2 3.1-2 2-2 .895-1.1 0 0 0" />
<path transform="matrix(1,0,0,-1,965.84,938.9)" d="M0 0C1.94-.566 4-.862 6.04-.862 8.07-.862 10.13-.566 12.08 0L14.88-4.86H19.5L15.81 1.53C19.45 3.54 22.04 6.77 22.04 11.14 22.04 25.54 17.93 34.14 11.04 34.14H1.04C-5.85 34.14-9.96 25.54-9.96 11.14-9.96 6.77-7.37 3.53-3.74 1.53L-7.43-4.86H-2.81ZM8.04 30.14H11.04C13.82 30.14 16 26.75 17.14 21.14H8.04ZM1.04 30.14H4.04V21.14H-5.06C-3.92 26.75-1.75 30.14 1.04 30.14M-5.96 11.14C-5.96 13.28-5.86 15.29-5.67 17.14H17.75C17.94 15.29 18.04 13.28 18.04 11.14 18.04 5.31 10.68 3.14 6.04 3.14 1.4 3.14-5.96 5.31-5.96 11.14" />
</g></g></svg>