<svg xmlns="http://www.w3.org/2000/svg" viewBox="0 0 53 52" width="53" height="52"><defs>
<clipPath id="clip_1">
<path transform="matrix(1,0,0,-1,0,2623.16)" d="M0 2623.16H2938.83V0H0Z" />
</clipPath>
<clipPath id="clip_2">
<path transform="matrix(1,0,0,-1,0,2623.16)" d="M0 2623.16H2938.83V0H0Z" />
</clipPath>
<clipPath id="clip_3">
<path transform="matrix(1,0,0,-1,0,2623.16)" d="M0 2623.16H2938.83V0H0Z" />
</clipPath>
</defs>
<g transform="translate(-1673 -1105)"><g clip-path="url(#clip_1)"><path transform="matrix(1,0,0,-1,1693.87,1109.76)" d="M0 0-1.4-5.6C-2.5-6.1-3.53-6.7-4.5-7.39L-10.05-5.8-16.05-16.2-11.91-20.2C-11.97-20.79-12-21.39-12-22-12-22.61-11.97-23.21-11.91-23.8L-16.05-27.8-10.05-38.2-4.5-36.61C-3.53-37.3-2.5-37.9-1.4-38.4L0-44H12L13.4-38.4C14.5-37.9 15.53-37.3 16.49-36.61L22.05-38.2 28.05-27.8 23.91-23.8C23.97-23.21 24-22.61 24-22 24-21.39 23.97-20.79 23.91-20.2L28.05-16.2 22.05-5.8 16.49-7.39C15.53-6.7 14.5-6.1 13.4-5.6L12 0ZM-3.73-11.77-2.15-10.64C-1.4-10.1-.591-9.63 .247-9.25L2.01-8.45 3.13-4H8.88L9.99-8.45 11.76-9.25C12.6-9.63 13.4-10.1 14.16-10.64L15.73-11.77 20.16-10.51 23.03-15.49 19.74-18.67 19.93-20.6C19.98-21.07 20-21.55 20-22 20-22.45 19.98-22.93 19.93-23.4L19.74-25.33 23.03-28.51 20.15-33.49 15.73-32.23 14.16-33.36C13.4-33.9 12.59-34.37 11.76-34.75L9.99-35.55 8.88-40H3.12L2.01-35.55 .245-34.75C-.593-34.37-1.4-33.9-2.16-33.36L-3.73-32.23-8.15-33.49-11.03-28.51-7.74-25.33-7.93-23.4C-7.98-22.93-8-22.46-8-22-8-21.54-7.98-21.07-7.93-20.6L-7.74-18.67-11.03-15.49-8.15-10.51-3.73-11.77Z" />
<path transform="matrix(1,0,0,-1,1699.87,1127.76)" d="M0 0C2.21 0 4-1.79 4-4 4-6.21 2.21-8 0-8-2.21-8-4-6.21-4-4-4-1.79-2.21 0 0 0M0 4C-4.42 4-8 .418-8-4-8-8.42-4.42-12 0-12 4.42-12 8-8.42 8-4 8 .418 4.42 4 0 4" />
</g></g></svg>