<svg xmlns="http://www.w3.org/2000/svg" viewBox="0 0 52 46" width="52" height="46"><defs>
<clipPath id="clip_1">
<path transform="matrix(1,0,0,-1,0,2623.16)" d="M0 2623.16H2938.83V0H0Z" />
</clipPath>
<clipPath id="clip_2">
<path transform="matrix(1,0,0,-1,0,2623.16)" d="M0 2623.16H2938.83V0H0Z" />
</clipPath>
<clipPath id="clip_3">
<path transform="matrix(1,0,0,-1,0,2623.16)" d="M0 2623.16H2938.83V0H0Z" />
</clipPath>
</defs>
<g transform="translate(-945 -1940)"><g clip-path="url(#clip_1)"><path transform="matrix(1,0,0,-1,989.87,1947.76)" d="M0 0-2.83 2.83-12.27-6.6-12.81-5.78C-13.55-4.67-14.8-4-16.14-4H-27.19C-29.01-4-30.77-4.62-32.19-5.75L-37-9.6C-38.89-11.12-40-13.41-40-15.84V-20C-40-23.31-37.31-26-34-26H-33.63C-33.46-26.47-33.24-26.9-32.97-27.31L-37.83-32.17-35-35ZM-24.69-19.02C-25.64-18.38-26.77-18-28-18-30.61-18-32.81-19.67-33.63-22H-34C-35.1-22-36-21.1-36-20V-16C-36-14.74-35.41-13.56-34.4-12.8L-29.07-8.8C-28.37-8.28-27.53-8-26.67-8H-17.07C-16.4-8-15.78-8.33-15.41-8.89L-15.07-9.4Z" />
<path transform="matrix(1,0,0,-1,985.87,1957.76)" d="M0 0H-2V-4H0C2.21-4 4-5.79 4-8V-10C4-11.1 3.1-12 2-12H-2.37C-3.2-9.67-5.39-8-8-8-11.31-8-14-10.69-14-14-14-17.31-11.31-20-8-20-5.39-20-3.19-18.33-2.37-16H2C5.31-16 8-13.31 8-10V-8C8-3.59 4.41 0 0 0M-8-16C-9.1-16-10-15.1-10-14-10-12.9-9.1-12-8-12-6.9-12-6-12.9-6-14-6-15.1-6.9-16-8-16" />
</g></g></svg>