<svg xmlns="http://www.w3.org/2000/svg" viewBox="0 0 43 43" width="43" height="43"><defs>
<clipPath id="clip_1">
<path transform="matrix(1,0,0,-1,0,2623.16)" d="M0 2623.16H2938.83V0H0Z" />
</clipPath>
<clipPath id="clip_2">
<path transform="matrix(1,0,0,-1,0,2623.16)" d="M0 2623.16H2938.83V0H0Z" />
</clipPath>
<clipPath id="clip_3">
<path transform="matrix(1,0,0,-1,0,2623.16)" d="M0 2623.16H2938.83V0H0Z" />
</clipPath>
</defs>
<g transform="translate(-1781 -1837)"><g clip-path="url(#clip_1)"><path transform="matrix(1,0,0,-1,1819.87,1872.93)" d="M0 0-8.8 8.8C-6.56 11.79-5.46 15.7-6.26 19.88-7.3 25.41-11.76 29.88-17.3 30.92-27.13 32.75-35.58 24.3-33.75 14.47-32.71 8.93-28.25 4.48-22.71 3.43-18.53 2.64-14.62 3.73-11.63 5.97L-2.83-2.83C-2.05-3.61-.782-3.61-.002-2.83 .78-2.05 .782-.78 0 0M-20 7.17C-25.51 7.17-30 11.66-30 17.17-30 22.69-25.51 27.17-20 27.17-14.49 27.17-10 22.69-10 17.17-10 11.66-14.49 7.17-20 7.17" />
</g></g></svg>