<svg xmlns="http://www.w3.org/2000/svg" viewBox="0 0 40 46" width="40" height="46"><defs>
<clipPath id="clip_1">
<path transform="matrix(1,0,0,-1,0,2623.16)" d="M0 2623.16H2938.83V0H0Z" />
</clipPath>
<clipPath id="clip_2">
<path transform="matrix(1,0,0,-1,0,2623.16)" d="M0 2623.16H2938.83V0H0Z" />
</clipPath>
<clipPath id="clip_3">
<path transform="matrix(1,0,0,-1,0,2623.16)" d="M0 2623.16H2938.83V0H0Z" />
</clipPath>
</defs>
<g transform="translate(-431 -1939)"><g clip-path="url(#clip_1)"><path transform="matrix(1,0,0,-1,451.87,1959.76)" d="M0 0C-4.41 0-8 3.59-8 8-8 12.41-4.41 16 0 16 4.41 16 8 12.41 8 8 8 3.59 4.41 0 0 0M0 12C-2.21 12-4 10.21-4 8-4 5.79-2.21 4 0 4 2.21 4 4 5.79 4 8 4 10.21 2.21 12 0 12" />
<path transform="matrix(1,0,0,-1,451.87,1981.76)" d="M0 0C-7.73 0-16 2.73-16 6.8-16 14.08-8.82 20 0 20 8.82 20 16 14.08 16 6.8 16 2.73 7.73 0 0 0M-12 7.06C-11.17 6.12-6.74 4 0 4 6.74 4 11.17 6.12 12 7.06 11.81 12.02 6.5 16 0 16-6.5 16-11.81 12.02-12 7.06" />
</g></g></svg>