<svg xmlns="http://www.w3.org/2000/svg" viewBox="0 0 28 52" width="28" height="52"><defs>
<clipPath id="clip_1">
<path transform="matrix(1,0,0,-1,0,2623.16)" d="M0 2623.16H2938.83V0H0Z" />
</clipPath>
<clipPath id="clip_2">
<path transform="matrix(1,0,0,-1,0,2623.16)" d="M0 2623.16H2938.83V0H0Z" />
</clipPath>
<clipPath id="clip_3">
<path transform="matrix(1,0,0,-1,0,2623.16)" d="M0 2623.16H2938.83V0H0Z" />
</clipPath>
</defs>
<g transform="translate(-2621 -1625)"><g clip-path="url(#clip_1)"><path transform="matrix(1,0,0,-1,2641.87,1643.16)" d="M0 0V13.39H-12V0L-16-6V-30.61H4V-6ZM-4 7.39H-8V9.39H-4ZM0-26.61H-12V-7.21L-8-1.21V3.39H-4V-1.21L0-7.21Z" />
</g></g></svg>