<svg xmlns="http://www.w3.org/2000/svg" viewBox="0 0 52 52" width="52" height="52"><defs>
<clipPath id="clip_1">
<path transform="matrix(1,0,0,-1,0,2623.16)" d="M0 2623.16H2938.83V0H0Z" />
</clipPath>
<clipPath id="clip_2">
<path transform="matrix(1,0,0,-1,0,2623.16)" d="M0 2623.16H2938.83V0H0Z" />
</clipPath>
<clipPath id="clip_3">
<path transform="matrix(1,0,0,-1,0,2623.16)" d="M0 2623.16H2938.83V0H0Z" />
</clipPath>
</defs>
<g transform="translate(-2713 -2249)"><g clip-path="url(#clip_1)"><path transform="matrix(1,0,0,-1,2739.87,2269.98)" d="M0 0C3.19 0 5.78-2.59 5.78-5.78 5.78-8.96 3.19-11.56 0-11.56-3.19-11.56-5.78-8.96-5.78-5.78-5.78-2.59-3.19 0 0 0M0 4C-5.4 4-9.78-.378-9.78-5.78-9.78-11.18-5.4-15.56 0-15.56 5.4-15.56 9.78-11.18 9.78-5.78 9.78-.378 5.4 4 0 4" />
<path transform="matrix(1,0,0,-1,2739.87,2257.76)" d="M0 0C1.6 0 3.04-.854 3.85-2.28L5.39-4.99 8.39-4.16C8.79-4.05 9.21-4 9.62-4 10.8-4 11.91-4.45 12.73-5.27 13.86-6.4 14.27-8.03 13.84-9.61L13.01-12.61 15.72-14.15C17.15-14.96 18-16.4 18-18 18-19.6 17.15-21.04 15.72-21.85L13.01-23.39 13.84-26.39C14.27-27.98 13.86-29.6 12.73-30.73 11.9-31.55 10.8-32.01 9.62-32.01 9.21-32.01 8.79-31.95 8.39-31.84L5.39-31.01 3.85-33.72C3.04-35.15 1.6-36 0-36-1.6-36-3.04-35.15-3.85-33.72L-5.39-31.01-8.39-31.84C-8.79-31.95-9.21-32.01-9.62-32.01-10.8-32.01-11.9-31.55-12.73-30.73-13.86-29.6-14.27-27.98-13.84-26.39L-13.01-23.39-15.72-21.85C-17.15-21.04-18-19.6-18-18-18-16.4-17.15-14.96-15.72-14.15L-13.01-12.61-13.84-9.61C-14.27-8.03-13.86-6.4-12.73-5.27-11.9-4.45-10.8-4-9.62-4-9.21-4-8.79-4.05-8.39-4.16L-5.39-4.99-3.85-2.28C-3.04-.854-1.6 0 0 0M0 4C-3.15 4-5.87 2.25-7.33-.306-8.08-.1-8.85 .004-9.62 .004-11.77 .004-13.91-.802-15.56-2.44-17.79-4.67-18.47-7.83-17.69-10.67-20.25-12.13-22-14.85-22-18-22-21.15-20.25-23.87-17.69-25.33-18.47-28.17-17.79-31.32-15.56-33.56-13.91-35.2-11.77-36-9.62-36-8.85-36-8.08-35.9-7.33-35.69-5.87-38.25-3.15-40 .002-40 3.16-40 5.88-38.25 7.33-35.69 8.08-35.9 8.85-36 9.63-36 11.77-36 13.92-35.2 15.56-33.56 17.79-31.33 18.48-28.17 17.7-25.33 20.26-23.87 22-21.15 22-18 22-14.85 20.26-12.13 17.7-10.67 18.48-7.83 17.79-4.68 15.56-2.44 13.92-.802 11.77 .004 9.63 .004 8.85 .004 8.08-.1 7.33-.306 5.88 2.25 3.16 4 .004 4Z" />
</g></g></svg>