<svg xmlns="http://www.w3.org/2000/svg" viewBox="0 0 40 52" width="40" height="52"><defs>
<clipPath id="clip_1">
<path transform="matrix(1,0,0,-1,0,2623.16)" d="M0 2623.16H2938.83V0H0Z" />
</clipPath>
<clipPath id="clip_2">
<path transform="matrix(1,0,0,-1,0,2623.16)" d="M0 2623.16H2938.83V0H0Z" />
</clipPath>
<clipPath id="clip_3">
<path transform="matrix(1,0,0,-1,0,2623.16)" d="M0 2623.16H2938.83V0H0Z" />
</clipPath>
</defs>
<g transform="translate(-1469 -1105)"><g clip-path="url(#clip_1)"><path transform="matrix(1,0,0,-1,1494.87,1113.76)" d="M0 0H11V4H0C-4.26 4-7.93 1.55-9.76-2H-11C-16.51-2-21-6.49-21-12V-16H3V-12C3-7.16-.466-3.11-5.05-2.2-3.78-.854-1.99 0 0 0M-1-12H-17C-17-8.69-14.31-6-11-6H-7C-3.69-6-1-8.69-1-12" />
<path transform="matrix(1,0,0,-1,1479.87,1137.76)" d="M0 0C1.1 0 2 .895 2 2 2 3.1 1.1 4 0 4-1.1 4-2 3.1-2 2-2 .895-1.1 0 0 0" />
<path transform="matrix(1,0,0,-1,1479.87,1145.76)" d="M0 0C1.1 0 2 .895 2 2 2 3.1 1.1 4 0 4-1.1 4-2 3.1-2 2-2 .895-1.1 0 0 0" />
<path transform="matrix(1,0,0,-1,1479.87,1153.76)" d="M0 0C1.1 0 2 .895 2 2 2 3.1 1.1 4 0 4-1.1 4-2 3.1-2 2-2 .895-1.1 0 0 0" />
<path transform="matrix(1,0,0,-1,1485.87,1137.76)" d="M0 0C1.1 0 2 .895 2 2 2 3.1 1.1 4 0 4-1.1 4-2 3.1-2 2-2 .895-1.1 0 0 0" />
<path transform="matrix(1,0,0,-1,1485.87,1145.76)" d="M0 0C1.1 0 2 .895 2 2 2 3.1 1.1 4 0 4-1.1 4-2 3.1-2 2-2 .895-1.1 0 0 0" />
<path transform="matrix(1,0,0,-1,1485.87,1153.76)" d="M0 0C1.1 0 2 .895 2 2 2 3.1 1.1 4 0 4-1.1 4-2 3.1-2 2-2 .895-1.1 0 0 0" />
<path transform="matrix(1,0,0,-1,1491.87,1137.76)" d="M0 0C1.1 0 2 .895 2 2 2 3.1 1.1 4 0 4-1.1 4-2 3.1-2 2-2 .895-1.1 0 0 0" />
<path transform="matrix(1,0,0,-1,1491.87,1145.76)" d="M0 0C1.1 0 2 .895 2 2 2 3.1 1.1 4 0 4-1.1 4-2 3.1-2 2-2 .895-1.1 0 0 0" />
<path transform="matrix(1,0,0,-1,1491.87,1153.76)" d="M0 0C1.1 0 2 .895 2 2 2 3.1 1.1 4 0 4-1.1 4-2 3.1-2 2-2 .895-1.1 0 0 0" />
</g></g></svg>