<svg xmlns="http://www.w3.org/2000/svg" viewBox="0 0 40 48" width="40" height="48"><defs>
<clipPath id="clip_1">
<path transform="matrix(1,0,0,-1,0,2623.16)" d="M0 2623.16H2938.83V0H0Z" />
</clipPath>
<clipPath id="clip_2">
<path transform="matrix(1,0,0,-1,0,2623.16)" d="M0 2623.16H2938.83V0H0Z" />
</clipPath>
<clipPath id="clip_3">
<path transform="matrix(1,0,0,-1,0,2623.16)" d="M0 2623.16H2938.83V0H0Z" />
</clipPath>
</defs>
<g transform="translate(-1055 -899)"><g clip-path="url(#clip_1)"><path transform="matrix(1,0,0,-1,1085.87,903.76)" d="M0 0H-20C-23.31 0-26-2.69-26-6V-30C-26-32.93-23.88-35.37-21.09-35.89L-23.46-40H-18.84L-16.54-36H-3.46L-1.16-40H3.46L1.09-35.89C3.88-35.37 6-32.94 6-30V-6C6-2.69 3.31 0 0 0M-16-6H-4V-10H-16ZM-18-32C-19.1-32-20-31.1-20-30-20-28.9-19.1-28-18-28-16.9-28-16-28.9-16-30-16-31.1-16.9-32-18-32M-2-32C-3.1-32-4-31.1-4-30-4-28.9-3.1-28-2-28-.896-28 0-28.9 0-30 0-31.1-.896-32-2-32M2-24H-22V-14H2Z" />
</g></g></svg>