<svg xmlns="http://www.w3.org/2000/svg" viewBox="0 0 36 48" width="36" height="48"><defs>
<clipPath id="clip_1">
<path transform="matrix(1,0,0,-1,0,2623.16)" d="M0 2623.16H2938.83V0H0Z" />
</clipPath>
<clipPath id="clip_2">
<path transform="matrix(1,0,0,-1,0,2623.16)" d="M0 2623.16H2938.83V0H0Z" />
</clipPath>
<clipPath id="clip_3">
<path transform="matrix(1,0,0,-1,0,2623.16)" d="M0 2623.16H2938.83V0H0Z" />
</clipPath>
</defs>
<g transform="translate(-1577 -1523)"><g clip-path="url(#clip_1)"><path transform="matrix(1,0,0,-1,1609.87,1545.76)" d="M0 0H-14V18H-28V-12H-24V-22H-20V-12H-8V-22H-4V-12H0ZM-24 14H-18V-4H-4V-8H-24Z" />
</g></g></svg>