<svg xmlns="http://www.w3.org/2000/svg" viewBox="0 0 48 52" width="48" height="52"><defs>
<clipPath id="clip_1">
<path transform="matrix(1,0,0,-1,0,2623.16)" d="M0 2623.16H2938.83V0H0Z" />
</clipPath>
<clipPath id="clip_2">
<path transform="matrix(1,0,0,-1,0,2623.16)" d="M0 2623.16H2938.83V0H0Z" />
</clipPath>
<clipPath id="clip_3">
<path transform="matrix(1,0,0,-1,0,2623.16)" d="M0 2623.16H2938.83V0H0Z" />
</clipPath>
</defs>
<g transform="translate(-1571 -1313)"><g clip-path="url(#clip_1)"><path transform="matrix(1,0,0,-1,1589.87,1337.76)" d="M0 0C1.66 0 3 1.34 3 3 3 4.66 1.66 6 0 6-1.66 6-3 4.66-3 3-3 1.34-1.66 0 0 0" />
<path transform="matrix(1,0,0,-1,1601.87,1337.76)" d="M0 0C1.66 0 3 1.34 3 3 3 4.66 1.66 6 0 6-1.66 6-3 4.66-3 3-3 1.34-1.66 0 0 0" />
<path transform="matrix(1,0,0,-1,1615.87,1327.76)" d="M0 0V4H-18V10H-22V4H-40V0H-38V-30H-40V-34H0V-30H-2V0ZM-12-30V-22L-10-20V-12H-18V-20L-16-22V-30H-24V-22L-22-20V-12H-30V-20L-28-22V-30H-34V0H-6V-30Z" />
</g></g></svg>