<svg xmlns="http://www.w3.org/2000/svg" viewBox="0 0 44 53" width="44" height="53"><defs>
<clipPath id="clip_1">
<path transform="matrix(1,0,0,-1,0,2623.16)" d="M0 2623.16H2938.83V0H0Z" />
</clipPath>
<clipPath id="clip_2">
<path transform="matrix(1,0,0,-1,0,2623.16)" d="M0 2623.16H2938.83V0H0Z" />
</clipPath>
<clipPath id="clip_3">
<path transform="matrix(1,0,0,-1,0,2623.16)" d="M0 2623.16H2938.83V0H0Z" />
</clipPath>
</defs>
<g transform="translate(-2301 -2249)"><g clip-path="url(#clip_1)"><path transform="matrix(1,0,0,-1,2319.87,2265.76)" d="M0 0C3.31 0 6 2.69 6 6 6 9.31 3.31 12 0 12-3.31 12-6 9.31-6 6-6 2.69-3.31 0 0 0M0 8C1.1 8 2 7.1 2 6 2 4.9 1.1 4 0 4-1.1 4-2 4.9-2 6-2 7.1-1.1 8 0 8" />
<path transform="matrix(1,0,0,-1,2339.87,2289.76)" d="M0 0H-3.63L-4.79 6.68C-5.12 8.6-6.78 10-8.73 10H-22V19H-18V14C-18 12.9-17.1 12-16 12H-8C-6.9 12-6 12.9-6 14-6 15.1-6.9 16-8 16H-14V19C-14 21.21-15.79 23-18 23H-22C-24.21 23-26 21.21-26 19V15.3C-31.37 13.39-35 7.78-33.75 1.53-32.83-3.04-29.16-6.76-24.6-7.73-16.85-9.36-10-3.47-10 4H-14C-14-1.04-18.68-5-23.92-3.77-26.75-3.11-29.06-.83-29.75 1.99-30.68 5.76-28.91 9.19-26 10.89V8C-26 6.9-25.1 6-24 6H-9.49C-9 6-8.58 5.65-8.5 5.16L-7.28-2.32C-7.12-3.29-6.28-4-5.3-4H-.002C1.1-4 2-3.1 2-2 2-.894 1.1 .002-.002 .002Z" />
</g></g></svg>