<svg xmlns="http://www.w3.org/2000/svg" viewBox="0 0 40 48" width="40" height="48"><defs>
<clipPath id="clip_1">
<path transform="matrix(1,0,0,-1,0,2623.16)" d="M0 2623.16H2938.83V0H0Z" />
</clipPath>
<clipPath id="clip_2">
<path transform="matrix(1,0,0,-1,0,2623.16)" d="M0 2623.16H2938.83V0H0Z" />
</clipPath>
<clipPath id="clip_3">
<path transform="matrix(1,0,0,-1,0,2623.16)" d="M0 2623.16H2938.83V0H0Z" />
</clipPath>
</defs>
<g transform="translate(-2615 -2251)"><g clip-path="url(#clip_1)"><path transform="matrix(1,0,0,-1,2633.87,2265.76)" d="M0 0H-10C-12.21 0-14-1.79-14-4V-26C-14-28.21-12.21-30-10-30H6C8.21-30 10-28.21 10-26V-10ZM0-5.66 4.34-10H0ZM-10-25V-5C-10-4.45-9.55-4-9-4H-4V-12C-4-13.1-3.1-14-2-14H6V-25C6-25.55 5.55-26 5-26H-9C-9.55-26-10-25.55-10-25" />
<path transform="matrix(1,0,0,-1,2647.87,2255.76)" d="M0 0H-16C-18.21 0-20-1.79-20-4V-8H-16V-5C-16-4.45-15.55-4-15-4H-1C-.448-4 0-4.45 0-5V-26H-2V-30H0C2.21-30 4-28.21 4-26V-4C4-1.79 2.21 0 0 0" />
</g></g></svg>