<svg xmlns="http://www.w3.org/2000/svg" viewBox="0 0 32 53" width="32" height="53"><defs>
<clipPath id="clip_1">
<path transform="matrix(1,0,0,-1,0,2623.16)" d="M0 2623.16H2938.83V0H0Z" />
</clipPath>
<clipPath id="clip_2">
<path transform="matrix(1,0,0,-1,0,2623.16)" d="M0 2623.16H2938.83V0H0Z" />
</clipPath>
<clipPath id="clip_3">
<path transform="matrix(1,0,0,-1,0,2623.16)" d="M0 2623.16H2938.83V0H0Z" />
</clipPath>
</defs>
<g transform="translate(-2619 -1833)"><g clip-path="url(#clip_1)"><path transform="matrix(1,0,0,-1,2645.87,1859.65)" d="M0 0C1.23 1.26 2 2.98 2 4.88 2 8.4-.616 11.29-4 11.78V15.88H-16V11.78C-19.38 11.29-22 8.4-22 4.88-22 2.98-21.23 1.26-20 0V-10.23C-21.23-11.5-22-13.22-22-15.12-22-18.98-18.86-22.12-15-22.12H-5C-1.14-22.12 2-18.98 2-15.12 2-13.22 1.23-11.5 0-10.23ZM-16-2.12H-4V-8.12H-16ZM-15 7.88H-12V11.88H-8V7.88H-5C-3.35 7.88-2 6.54-2 4.88-2 3.23-3.35 1.88-5 1.88H-15C-16.65 1.88-18 3.23-18 4.88-18 6.54-16.65 7.88-15 7.88M-5-18.12H-15C-16.65-18.12-18-16.77-18-15.12-18-13.46-16.65-12.12-15-12.12H-5C-3.35-12.12-2-13.46-2-15.12-2-16.77-3.35-18.12-5-18.12" />
<path transform="matrix(1,0,0,-1,0,2623.16)" d="M2629.87 781.4H2641.87V785.4H2629.87Z" />
</g></g></svg>