<svg xmlns="http://www.w3.org/2000/svg" viewBox="0 0 36 40" width="36" height="40"><defs>
<clipPath id="clip_1">
<path transform="matrix(1,0,0,-1,0,2623.16)" d="M0 2623.16H2938.83V0H0Z" />
</clipPath>
<clipPath id="clip_2">
<path transform="matrix(1,0,0,-1,0,2623.16)" d="M0 2623.16H2938.83V0H0Z" />
</clipPath>
<clipPath id="clip_3">
<path transform="matrix(1,0,0,-1,0,2623.16)" d="M0 2623.16H2938.83V0H0Z" />
</clipPath>
</defs>
<g transform="translate(-745 -1321)"><g clip-path="url(#clip_1)"><path transform="matrix(1,0,0,-1,777.87,1329.76)" d="M0 0V4H-28V0L-16-14V-24H-22V-28H-6V-24H-12V-14ZM-5.25 0-6.96-2H-21.04L-22.75 0ZM-10.39-6-14-10.21-17.61-6Z" />
</g></g></svg>