<svg xmlns="http://www.w3.org/2000/svg" viewBox="0 0 44 40" width="44" height="40"><defs>
<clipPath id="clip_1">
<path transform="matrix(1,0,0,-1,0,2623.16)" d="M0 2623.16H2938.83V0H0Z" />
</clipPath>
<clipPath id="clip_2">
<path transform="matrix(1,0,0,-1,0,2623.16)" d="M0 2623.16H2938.83V0H0Z" />
</clipPath>
<clipPath id="clip_3">
<path transform="matrix(1,0,0,-1,0,2623.16)" d="M0 2623.16H2938.83V0H0Z" />
</clipPath>
</defs>
<g transform="translate(-1885 -1423)"><g clip-path="url(#clip_1)"><path transform="matrix(1,0,0,-1,1921.87,1448.13)" d="M0 0V20.37H-10V16.37H-4V.368H-26C-29.31 .368-32-2.32-32-5.63-32-8.95-29.31-11.63-26-11.63-22.69-11.63-20-8.95-20-5.63-20-4.93-20.14-4.26-20.37-3.63H-7.63C-7.86-4.26-8-4.93-8-5.63-8-8.95-5.32-11.63-2-11.63 1.31-11.63 4-8.95 4-5.63 4-3.02 2.33-.826 0 0M-24-5.63C-24-6.73-24.9-7.63-26-7.63-27.1-7.63-28-6.73-28-5.63-28-4.53-27.1-3.63-26-3.63-24.9-3.63-24-4.53-24-5.63M-2-7.63C-3.1-7.63-4-6.73-4-5.63-4-4.53-3.1-3.63-2-3.63-.898-3.63 0-4.53 0-5.63 0-6.73-.898-7.63-2-7.63" />
</g></g></svg>