<svg xmlns="http://www.w3.org/2000/svg" viewBox="0 0 50 36" width="50" height="36"><defs>
<clipPath id="clip_1">
<path transform="matrix(1,0,0,-1,0,2623.16)" d="M0 2623.16H2938.83V0H0Z" />
</clipPath>
<clipPath id="clip_2">
<path transform="matrix(1,0,0,-1,0,2623.16)" d="M0 2623.16H2938.83V0H0Z" />
</clipPath>
<clipPath id="clip_3">
<path transform="matrix(1,0,0,-1,0,2623.16)" d="M0 2623.16H2938.83V0H0Z" />
</clipPath>
</defs>
<g transform="translate(-2609 -1425)"><g clip-path="url(#clip_1)"><path transform="matrix(1,0,0,-1,2648.5,1433.76)" d="M0 0-.624 4H-2.62L-4.62-2-6.62-4H-26.62C-28.83-4-30.62-2.21-30.62 0H-34.62C-34.62-3.72-32.07-6.82-28.62-7.72V-24H-24.62L-20.62-14H-12.62L-10.62-24H-6.62L-4.62-14-.624-8H5.38L7.38-6V-2Z" />
</g></g></svg>