<svg xmlns="http://www.w3.org/2000/svg" viewBox="0 0 55 52" width="55" height="52"><defs>
<clipPath id="clip_1">
<path transform="matrix(1,0,0,-1,0,2623.16)" d="M0 2623.16H2938.83V0H0Z" />
</clipPath>
<clipPath id="clip_2">
<path transform="matrix(1,0,0,-1,0,2623.16)" d="M0 2623.16H2938.83V0H0Z" />
</clipPath>
<clipPath id="clip_3">
<path transform="matrix(1,0,0,-1,0,2623.16)" d="M0 2623.16H2938.83V0H0Z" />
</clipPath>
</defs>
<g transform="translate(-2192 -999)"><g clip-path="url(#clip_1)"><path transform="matrix(1,0,0,-1,2242.98,1020.26)" d="M0 0-15.67 2.71-23.1 16.78-30.52 2.71-46.2 0-35.11-11.41-37.37-27.15-23.1-20.13-8.82-27.15-11.09-11.41ZM-23.1-15.68V8.21L-18.3-.894-8.15-2.65-15.33-10.03-13.86-20.22-23.1-15.68Z" />
</g></g></svg>