<svg xmlns="http://www.w3.org/2000/svg" viewBox="0 0 44 44" width="44" height="44"><defs>
<clipPath id="clip_1">
<path transform="matrix(1,0,0,-1,0,2623.16)" d="M0 2623.16H2938.83V0H0Z" />
</clipPath>
<clipPath id="clip_2">
<path transform="matrix(1,0,0,-1,0,2623.16)" d="M0 2623.16H2938.83V0H0Z" />
</clipPath>
<clipPath id="clip_3">
<path transform="matrix(1,0,0,-1,0,2623.16)" d="M0 2623.16H2938.83V0H0Z" />
</clipPath>
</defs>
<g transform="translate(-741 -1837)"><g clip-path="url(#clip_1)"><path transform="matrix(1,0,0,-1,779.87,1857.76)" d="M0 0H-5.17L-2 3.17C-1.22 3.95-1.22 5.22-2 6-2.78 6.78-4.05 6.78-4.83 6L-10.83 0H-14V3.17L-8 9.17C-7.22 9.95-7.22 11.22-8 12-8.78 12.78-10.05 12.78-10.83 12L-14 8.83V14C-14 15.1-14.9 16-16 16-17.1 16-18 15.1-18 14V8.83L-21.17 12C-21.95 12.78-23.22 12.78-24 12-24.78 11.22-24.78 9.95-24 9.17L-18 3.17V0H-21.17L-27.17 6C-27.95 6.78-29.22 6.78-30 6-30.78 5.22-30.78 3.95-30 3.17L-26.83 0H-32C-33.1 0-34-.896-34-2-34-3.1-33.1-4-32-4H-26.83L-30-7.17C-30.78-7.95-30.78-9.22-30-10-29.22-10.78-27.95-10.78-27.17-10L-21.17-4H-18V-7.17L-24-13.17C-24.78-13.95-24.78-15.22-24-16-23.22-16.78-21.95-16.78-21.17-16L-18-12.83V-18C-18-19.1-17.1-20-16-20-14.9-20-14-19.1-14-18V-12.83L-10.83-16C-10.05-16.78-8.78-16.78-8-16-7.22-15.22-7.22-13.95-8-13.17L-14-7.17V-4H-10.83L-4.83-10C-4.05-10.78-2.78-10.78-2-10-1.22-9.22-1.22-7.95-2-7.17L-5.17-4H0C1.1-4 2-3.1 2-2 2-.896 1.1 0 0 0" />
</g></g></svg>