<svg xmlns="http://www.w3.org/2000/svg" viewBox="0 0 53 54" width="53" height="54"><defs>
<clipPath id="clip_1">
<path transform="matrix(1,0,0,-1,0,2623.16)" d="M0 2623.16H2938.83V0H0Z" />
</clipPath>
<clipPath id="clip_2">
<path transform="matrix(1,0,0,-1,0,2623.16)" d="M0 2623.16H2938.83V0H0Z" />
</clipPath>
<clipPath id="clip_3">
<path transform="matrix(1,0,0,-1,0,2623.16)" d="M0 2623.16H2938.83V0H0Z" />
</clipPath>
</defs>
<g transform="translate(-2193 -1105)"><g clip-path="url(#clip_1)"><path transform="matrix(1,0,0,-1,2216.85,1115.51)" d="M0 0C.912 1.57 2.42 1.74 3.02 1.74 3.62 1.74 5.13 1.57 6.04 0L16.39-17.7 18.12-16.69 20.99-5.75 17.12-4.73 15.98-9.07 9.48 2.01C8.04 4.5 5.53 5.74 3.02 5.74 .506 5.74-2 4.5-3.45 2.01L-5.65-1.78-2.2-3.79-.002-.002Z" />
<path transform="matrix(1,0,0,-1,2212.65,1122.75)" d="M0 0-1.73 1-12.67-1.9-11.64-5.76-7.31-4.61-13.75-15.72C-16.66-20.73-13.06-27.01-7.29-27.01H-2.78V-23.01H-7.29C-9.11-23.01-10.01-21.78-10.32-21.25-10.62-20.72-11.22-19.32-10.31-17.73L.002 0Z" />
<path transform="matrix(1,0,0,-1,2240.84,1138.47)" d="M0 0-2.2 3.78-5.65 1.78-3.45-2.01C-2.53-3.6-3.13-5-3.44-5.53-3.74-6.06-4.64-7.29-6.47-7.29H-26.97V-9.29L-18.97-17.29-16.14-14.46-19.32-11.29H-6.47C-.692-11.29 2.91-5.01 0 0" />
</g></g></svg>