<svg xmlns="http://www.w3.org/2000/svg" viewBox="0 0 40 52" width="40" height="52"><defs>
<clipPath id="clip_1">
<path transform="matrix(1,0,0,-1,0,2623.16)" d="M0 2623.16H2938.83V0H0Z" />
</clipPath>
<clipPath id="clip_2">
<path transform="matrix(1,0,0,-1,0,2623.16)" d="M0 2623.16H2938.83V0H0Z" />
</clipPath>
<clipPath id="clip_3">
<path transform="matrix(1,0,0,-1,0,2623.16)" d="M0 2623.16H2938.83V0H0Z" />
</clipPath>
</defs>
<g transform="translate(-1679 -2041)"><g clip-path="url(#clip_1)"><path transform="matrix(1,0,0,-1,1701.87,2053.76)" d="M0 0H3.93C4.2 0 4.45-.106 4.64-.292L8.17-3.83 11-1 7.17 2.83C6.42 3.58 5.41 4 4.35 4H.002C.002 6.21-1.79 8-4 8H-8C-10.21 8-12 6.21-12 4V0C-12-2.21-10.21-4-8-4V-6.18C-13.66-7.14-18-12.06-18-18V-32C-18-34.21-16.21-36-14-36H2C4.21-36 6-34.21 6-32V-18C6-12.07 1.67-7.14-4-6.18V-4C-1.79-4 0-2.21 0 0M2-18V-31C2-31.55 1.55-32 1-32H-13C-13.55-32-14-31.55-14-31V-18.35C-14-14.18-10.95-10.44-6.8-10.04-2.03-9.57 2-13.32 2-18M-5 0H-7C-7.55 0-8 .448-8 1V3C-8 3.55-7.55 4-7 4H-5C-4.45 4-4 3.55-4 3V1C-4 .448-4.45 0-5 0" />
<path transform="matrix(1,0,0,-1,1713.87,2065.76)" d="M0 0C1.1 0 2 .895 2 2 2 3.1 1.1 4 0 4-1.1 4-2 3.1-2 2-2 .895-1.1 0 0 0" />
<path transform="matrix(1,0,0,-1,1713.87,2073.76)" d="M0 0C1.1 0 2 .895 2 2 2 3.1 1.1 4 0 4-1.1 4-2 3.1-2 2-2 .895-1.1 0 0 0" />
<path transform="matrix(1,0,0,-1,1713.87,2081.76)" d="M0 0C1.1 0 2 .895 2 2 2 3.1 1.1 4 0 4-1.1 4-2 3.1-2 2-2 .895-1.1 0 0 0" />
<path transform="matrix(1,0,0,-1,1693.87,2069.76)" d="M0 0V-4H-4V-8H0V-12H4V-8H8V-4H4V0Z" />
</g></g></svg>