<svg xmlns="http://www.w3.org/2000/svg" viewBox="0 0 52 42" width="52" height="42"><defs>
<clipPath id="clip_1">
<path transform="matrix(1,0,0,-1,0,2623.16)" d="M0 2623.16H2938.83V0H0Z" />
</clipPath>
<clipPath id="clip_2">
<path transform="matrix(1,0,0,-1,0,2623.16)" d="M0 2623.16H2938.83V0H0Z" />
</clipPath>
<clipPath id="clip_3">
<path transform="matrix(1,0,0,-1,0,2623.16)" d="M0 2623.16H2938.83V0H0Z" />
</clipPath>
</defs>
<g transform="translate(-899 -294)"><g clip-path="url(#clip_1)"><path transform="matrix(1,0,0,-1,910.74,312.72)" d="M0 0 2.19 6H28.09L30.28 0ZM27.64-9C26.26-9 25.14-7.88 25.14-6.5 25.14-5.12 26.26-4 27.64-4 29.02-4 30.14-5.12 30.14-6.5 30.14-7.88 29.02-9 27.64-9M21.14-14H9.14V-10H21.14ZM2.64-9C1.26-9 .14-7.88 .14-6.5 .14-5.12 1.26-4 2.64-4 4.02-4 5.14-5.12 5.14-6.5 5.14-7.88 4.02-9 2.64-9M34.54 0 31.93 7.14C31.43 8.82 29.85 10 28.09 10H23.14C23.14 12.21 21.34 14 19.14 14H11.14C8.93 14 7.14 12.21 7.14 10H2.19C.428 10-1.15 8.82-1.61 7.25L-4.26 0H-6.86V-4H-4.86V-14C-4.86-15.47-4.05-16.75-2.86-17.44V-18C-2.86-19.11-1.97-20-.862-20H3.14C4.24-20 5.14-19.11 5.14-18H25.14C25.14-19.11 26.03-20 27.14-20H31.14C32.24-20 33.14-19.11 33.14-18V-17.44C34.33-16.75 35.14-15.47 35.14-14V-4H37.14V0Z" />
</g></g></svg>