<svg xmlns="http://www.w3.org/2000/svg" viewBox="0 0 40 48" width="40" height="48"><defs>
<clipPath id="clip_1">
<path transform="matrix(1,0,0,-1,0,2623.16)" d="M0 2623.16H2938.83V0H0Z" />
</clipPath>
<clipPath id="clip_2">
<path transform="matrix(1,0,0,-1,0,2623.16)" d="M0 2623.16H2938.83V0H0Z" />
</clipPath>
<clipPath id="clip_3">
<path transform="matrix(1,0,0,-1,0,2623.16)" d="M0 2623.16H2938.83V0H0Z" />
</clipPath>
</defs>
<g transform="translate(-431 -1627)"><g clip-path="url(#clip_1)"><path transform="matrix(1,0,0,-1,463.87,1635.76)" d="M0 0V-30.79L-12-20.79-24-30.79V0ZM-28 4V-36H-24L-12-26 0-36H4V4Z" />
</g></g></svg>