<svg xmlns="http://www.w3.org/2000/svg" viewBox="0 0 52 47" width="52" height="47"><defs>
<clipPath id="clip_1">
<path transform="matrix(1,0,0,-1,0,2623.16)" d="M0 2623.16H2938.83V0H0Z" />
</clipPath>
<clipPath id="clip_2">
<path transform="matrix(1,0,0,-1,0,2623.16)" d="M0 2623.16H2938.83V0H0Z" />
</clipPath>
<clipPath id="clip_3">
<path transform="matrix(1,0,0,-1,0,2623.16)" d="M0 2623.16H2938.83V0H0Z" />
</clipPath>
</defs>
<g transform="translate(-425 -2146)"><g clip-path="url(#clip_1)"><path transform="matrix(1,0,0,-1,465.27,2163.76)" d="M0 0-6.05 3.48-6.06 3.47C-6.42 3.79-6.88 4-7.39 4-8.5 4-9.39 3.1-9.39 2V-1.78L-27.39 12.95-27.66 8-13-4H-27.39C-29.62-4-31.34-2.17-31.39 .054-31.42 1.13-32.31 2-33.39 2-34.5 2-35.39 1.1-35.39 0-35.39-2.95-33.77-5.5-31.39-6.89V-22C-31.39-24.21-29.6-26-27.39-26H-24.95C-23.12-26-21.52-24.75-21.07-22.97L-20.02-18.76C-19.91-18.31-19.51-18-19.05-18H-17.74C-17.28-18-16.88-18.31-16.77-18.76L-15.71-22.97C-15.27-24.75-13.67-26-11.83-26H-9.39C-7.18-26-5.39-24.21-5.39-22V-12H2.61C6.31-12 9.24-8.63 8.49-4.8 7.94-1.96 5.27 0 2.37 0ZM2.6-8H-5.4V-1.51L-1.54-4H2.6C3.71-4 4.6-4.9 4.6-6 4.6-7.1 3.71-8 2.6-8M-9.4-22H-11.84L-13.84-14H-22.96L-24.96-22H-27.4V-8H-9.4Z" />
</g></g></svg>