<svg xmlns="http://www.w3.org/2000/svg" viewBox="0 0 53 47" width="53" height="47"><defs>
<clipPath id="clip_1">
<path transform="matrix(1,0,0,-1,0,2623.16)" d="M0 2623.16H2938.83V0H0Z" />
</clipPath>
<clipPath id="clip_2">
<path transform="matrix(1,0,0,-1,0,2623.16)" d="M0 2623.16H2938.83V0H0Z" />
</clipPath>
<clipPath id="clip_3">
<path transform="matrix(1,0,0,-1,0,2623.16)" d="M0 2623.16H2938.83V0H0Z" />
</clipPath>
</defs>
<g transform="translate(-899 -483)"><g clip-path="url(#clip_1)"><path transform="matrix(1,0,0,-1,929.88,522.72)" d="M0 0H-2.44L-4.44 8H-13.56L-15.56 0H-18V14H0ZM12 14H4V20.49L7.85 18H12C13.1 18 14 17.1 14 16 14 14.9 13.1 14 12 14M9.4 22 3.34 25.48 3.33 25.47C2.98 25.79 2.52 26 2 26 .9 26 .004 25.1 .004 24V20.22L-18 34.95-18.27 30-3.6 18H-18C-20.22 18-21.94 19.83-22 22.05-22.02 23.13-22.91 24-24 24-25.1 24-26 23.1-26 22-26 19.05-24.38 16.5-22 15.11V0C-22-2.21-20.21-4-18-4H-15.56C-13.72-4-12.12-2.75-11.68-.97L-10.62 3.24C-10.51 3.69-10.11 4-9.65 4H-8.34C-7.88 4-7.48 3.69-7.37 3.24L-6.31-.97C-5.87-2.75-4.27-4-2.43-4H.006C2.22-4 4.01-2.21 4.01 0V10H12.01C15.71 10 18.63 13.37 17.89 17.2 17.34 20.04 14.67 22 11.77 22Z" />
</g></g></svg>