<svg xmlns="http://www.w3.org/2000/svg" viewBox="0 0 44 52" width="44" height="52"><defs>
<clipPath id="clip_1">
<path transform="matrix(1,0,0,-1,0,2623.16)" d="M0 2623.16H2938.83V0H0Z" />
</clipPath>
<clipPath id="clip_2">
<path transform="matrix(1,0,0,-1,0,2623.16)" d="M0 2623.16H2938.83V0H0Z" />
</clipPath>
<clipPath id="clip_3">
<path transform="matrix(1,0,0,-1,0,2623.16)" d="M0 2623.16H2938.83V0H0Z" />
</clipPath>
</defs>
<g transform="translate(-807 -482)"><g clip-path="url(#clip_1)"><path transform="matrix(1,0,0,-1,839.88,494.72)" d="M0 0C2.21 0 4 1.79 4 4 4 6.21 2.21 8 0 8-2.21 8-4 6.21-4 4-4 1.79-2.21 0 0 0" />
<path transform="matrix(1,0,0,-1,835.88,530.72)" d="M0 0V14H-4V19.88L0 32H8L12 19.88V14H8V0Z" />
<path transform="matrix(1,0,0,-1,819.88,494.72)" d="M0 0C2.21 0 4 1.79 4 4 4 6.21 2.21 8 0 8-2.21 8-4 6.21-4 4-4 1.79-2.21 0 0 0" />
<path transform="matrix(1,0,0,-1,827.88,498.72)" d="M0 0H-16V-16H-12V-32H-4V-16H0Z" />
</g></g></svg>