<svg xmlns="http://www.w3.org/2000/svg" viewBox="0 0 36 52" width="36" height="52"><defs>
<clipPath id="clip_1">
<path transform="matrix(1,0,0,-1,0,2623.16)" d="M0 2623.16H2938.83V0H0Z" />
</clipPath>
<clipPath id="clip_2">
<path transform="matrix(1,0,0,-1,0,2623.16)" d="M0 2623.16H2938.83V0H0Z" />
</clipPath>
<clipPath id="clip_3">
<path transform="matrix(1,0,0,-1,0,2623.16)" d="M0 2623.16H2938.83V0H0Z" />
</clipPath>
</defs>
<g transform="translate(-329 -1001)"><g clip-path="url(#clip_1)"><path transform="matrix(1,0,0,-1,349.87,1017.76)" d="M0 0C3.31 0 6 2.69 6 6 6 9.31 3.31 12 0 12-3.31 12-6 9.31-6 6-6 2.69-3.31 0 0 0M0 8C1.1 8 2 7.1 2 6 2 4.9 1.1 4 0 4-1.1 4-2 4.9-2 6-2 7.1-1.1 8 0 8" />
<path transform="matrix(1,0,0,-1,361.87,1029.76)" d="M0 0V4H-4.01L-8 9.99V10H-20L-26 6-28-2H-23.88L-22.47 3.64-20.43 5-21.22-4.05-12.21-8.73-8.46-20H-4.24L-8.93-5.92-17.01-1.73-16.34 6H-12.35L-13.02-1.8-9.18-3.79-8.57 3.36-6.48 .002Z" />
<path transform="matrix(1,0,0,-1,337.87,1049.76)" d="M0 0H4.06L6.19 11.93 2.47 13.86Z" />
</g></g></svg>