<svg xmlns="http://www.w3.org/2000/svg" viewBox="0 0 53 40" width="53" height="40"><defs>
<clipPath id="clip_1">
<path transform="matrix(1,0,0,-1,0,2623.16)" d="M0 2623.16H2938.83V0H0Z" />
</clipPath>
<clipPath id="clip_2">
<path transform="matrix(1,0,0,-1,0,2623.16)" d="M0 2623.16H2938.83V0H0Z" />
</clipPath>
<clipPath id="clip_3">
<path transform="matrix(1,0,0,-1,0,2623.16)" d="M0 2623.16H2938.83V0H0Z" />
</clipPath>
</defs>
<g transform="translate(-633 -1527)"><g clip-path="url(#clip_1)"><path transform="matrix(1,0,0,-1,0,2623.16)" d="M637.87 1059.4H671.87V1063.4H637.87Z" />
<path transform="matrix(1,0,0,-1,681.15,1536.91)" d="M0 0C-1.55 2.86-5.1 3.94-7.98 2.48L-7.99 2.49-15.12-.662-27.28 5.14-34.49 1.53-26.14-6.82-27.68-7.65-33.27-6.86-40.53-10.48-31.9-18.86H-24.64L-2.42-8.13C.492-6.56 1.58-2.91 .004-.002ZM-4.32-4.61-25.56-14.86H-30.29L-33.86-11.39-32.94-10.93-26.95-11.81-19.52-7.78-27.9 .596-27.27 .908-15.22-5.08-6.23-1.1C-5.26-.57-4.04-.938-3.52-1.91-3-2.87-3.36-4.08-4.32-4.61Z" />
</g></g></svg>