<svg xmlns="http://www.w3.org/2000/svg" viewBox="0 0 40 47" width="40" height="47"><defs>
<clipPath id="clip_1">
<path transform="matrix(1,0,0,-1,0,2623.16)" d="M0 2623.16H2938.83V0H0Z" />
</clipPath>
<clipPath id="clip_2">
<path transform="matrix(1,0,0,-1,0,2623.16)" d="M0 2623.16H2938.83V0H0Z" />
</clipPath>
<clipPath id="clip_3">
<path transform="matrix(1,0,0,-1,0,2623.16)" d="M0 2623.16H2938.83V0H0Z" />
</clipPath>
</defs>
<g transform="translate(-617 -293)"><g clip-path="url(#clip_1)"><path transform="matrix(1,0,0,-1,645.88,324.72)" d="M0 0C-1.1 0-2 .896-2 2-2 3.1-1.1 4 0 4 1.1 4 2 3.1 2 2 2 .896 1.1 0 0 0M-14.95 10C-18 10-19.1 12.2-19.1 14-19.1 19.7-15.79 23-13 23H-3C-.214 23 3.1 19.7 3.1 14 3.1 12.2 2 10-1.05 10H-14.95ZM-16 0C-17.1 0-18 .896-18 2-18 3.1-17.1 4-16 4-14.9 4-14 3.1-14 2-14 .896-14.9 0-16 0M8 4C8 18.4 3.89 27-3 27H-13C-19.89 27-24 18.4-24 4-24-.366-21.41-3.6-17.78-5.61L-21.46-12H-16.84L-14.04-7.14C-12.1-7.7-10.03-8-8-8-5.97-8-3.9-7.7-1.96-7.14L.844-12H5.46L1.78-5.61C5.41-3.6 8-.364 8 4" />
</g></g></svg>