<svg xmlns="http://www.w3.org/2000/svg" viewBox="0 0 45 51" width="45" height="51"><defs>
<clipPath id="clip_1">
<path transform="matrix(1,0,0,-1,0,2623.16)" d="M0 2623.16H2938.83V0H0Z" />
</clipPath>
<clipPath id="clip_2">
<path transform="matrix(1,0,0,-1,0,2623.16)" d="M0 2623.16H2938.83V0H0Z" />
</clipPath>
<clipPath id="clip_3">
<path transform="matrix(1,0,0,-1,0,2623.16)" d="M0 2623.16H2938.83V0H0Z" />
</clipPath>
</defs>
<g transform="translate(-325 -2041)"><g clip-path="url(#clip_1)"><path transform="matrix(1,0,0,-1,347.87,2049.76)" d="M0 0C.624 0 1.26-.042 1.89-.124 8.24-.946 13.3-6.15 13.93-12.49 14.83-21.64 7.15-29.43 2.5-33.26 1.79-33.84 .938-34.15 .02-34.15-.912-34.15-1.83-33.82-2.55-33.22-6.83-29.69-14-22.5-14-14-14-6.28-7.72 0 0 0M0 4C-9.94 4-18-4.06-18-14-18-23.94-10.42-31.91-5.1-36.3-3.61-37.53-1.79-38.15 .02-38.15 1.8-38.15 3.58-37.55 5.04-36.35 10.7-31.69 18.97-22.92 17.91-12.1 17.1-3.93 10.55 2.79 2.41 3.84 1.59 3.95 .79 4 0 4" />
<path transform="matrix(1,0,0,-1,347.87,2059.76)" d="M0 0C2.21 0 4-1.79 4-4 4-6.21 2.21-8 0-8-2.21-8-4-6.21-4-4-4-1.79-2.21 0 0 0M0 4C-4.42 4-8 .418-8-4-8-8.42-4.42-12 0-12 4.42-12 8-8.42 8-4 8 .418 4.42 4 0 4" />
</g></g></svg>