<svg xmlns="http://www.w3.org/2000/svg" viewBox="0 0 52 42" width="52" height="42"><defs>
<clipPath id="clip_1">
<path transform="matrix(1,0,0,-1,0,2623.16)" d="M0 2623.16H2938.83V0H0Z" />
</clipPath>
<clipPath id="clip_2">
<path transform="matrix(1,0,0,-1,0,2623.16)" d="M0 2623.16H2938.83V0H0Z" />
</clipPath>
<clipPath id="clip_3">
<path transform="matrix(1,0,0,-1,0,2623.16)" d="M0 2623.16H2938.83V0H0Z" />
</clipPath>
</defs>
<g transform="translate(-1569 -1007)"><g clip-path="url(#clip_1)"><path transform="matrix(1,0,0,-1,1584.87,1033.76)" d="M0 0C1.66 0 3 2.69 3 6 3 9.31 1.66 12 0 12-1.66 12-3 9.31-3 6-3 2.69-1.66 0 0 0" />
<path transform="matrix(1,0,0,-1,0,2623.16)" d="M1601.87 1594.4H1605.87V1597.4H1601.87Z" />
<path transform="matrix(1,0,0,-1,1615.87,1039.76)" d="M0 0V12C0 20.82-5.38 28-12 28H-31C-37.17 28-42 20.97-42 12-42 3.03-37.17-4-31-4H-22.44C-21.34-5.22-19.77-6-18-6H2V-2C.896-2 0-1.1 0 0M-38 12C-38 18.5-34.79 24-31 24-27.21 24-24 18.5-24 12-24 5.5-27.21 0-31 0-34.79 0-38 5.5-38 12M-20 0V11H-16V14H-20.09C-20.42 18-21.73 21.5-23.67 24H-12C-8.12 24-4.78 19.59-4.13 14H-8V11H-4V0C-4-.704-3.86-1.37-3.63-2H-18C-19.1-2-20-1.1-20 0" />
</g></g></svg>