<svg xmlns="http://www.w3.org/2000/svg" viewBox="0 0 40 52" width="40" height="52"><defs>
<clipPath id="clip_1">
<path transform="matrix(1,0,0,-1,0,2623.16)" d="M0 2623.16H2938.83V0H0Z" />
</clipPath>
<clipPath id="clip_2">
<path transform="matrix(1,0,0,-1,0,2623.16)" d="M0 2623.16H2938.83V0H0Z" />
</clipPath>
<clipPath id="clip_3">
<path transform="matrix(1,0,0,-1,0,2623.16)" d="M0 2623.16H2938.83V0H0Z" />
</clipPath>
</defs>
<g transform="translate(-1385 -674)"><g clip-path="url(#clip_1)"><path transform="matrix(1,0,0,-1,1402.88,686.72)" d="M0 0H-2C-2.55 0-3 .448-3 1V3C-3 3.55-2.55 4-2 4H0C.55 4 1 3.55 1 3V1C1 .448 .55 0 0 0M7-18V-31C7-31.55 6.55-32 6-32H-8C-8.55-32-9-31.55-9-31V-18.35C-9-14.18-5.95-10.44-1.8-10.04 2.97-9.57 7-13.32 7-18M5 0H8.93C9.2 0 9.45-.106 9.64-.292L13.17-3.83 16-1 12.17 2.83C11.42 3.58 10.41 4 9.35 4H5C5 6.21 3.21 8 1 8H-3C-5.21 8-7 6.21-7 4V0C-7-2.21-5.21-4-3-4V-6.18C-8.66-7.14-13-12.06-13-18V-32C-13-34.21-11.21-36-9-36H7C9.21-36 11-34.21 11-32V-18C11-12.07 6.67-7.14 1-6.18V-4C3.21-4 5-2.21 5 0" />
<path transform="matrix(1,0,0,-1,1419.88,698.72)" d="M0 0C1.1 0 2 .895 2 2 2 3.1 1.1 4 0 4-1.1 4-2 3.1-2 2-2 .895-1.1 0 0 0" />
<path transform="matrix(1,0,0,-1,1419.88,706.72)" d="M0 0C1.1 0 2 .895 2 2 2 3.1 1.1 4 0 4-1.1 4-2 3.1-2 2-2 .895-1.1 0 0 0" />
<path transform="matrix(1,0,0,-1,1419.88,714.72)" d="M0 0C1.1 0 2 .895 2 2 2 3.1 1.1 4 0 4-1.1 4-2 3.1-2 2-2 .895-1.1 0 0 0" />
<path transform="matrix(1,0,0,-1,1399.88,702.72)" d="M0 0V-4H-4V-8H0V-12H4V-8H8V-4H4V0Z" />
</g></g></svg>