<svg xmlns="http://www.w3.org/2000/svg" viewBox="0 0 44 44" width="44" height="44"><defs>
<clipPath id="clip_1">
<path transform="matrix(1,0,0,-1,0,2623.16)" d="M0 2623.16H2938.83V0H0Z" />
</clipPath>
<clipPath id="clip_2">
<path transform="matrix(1,0,0,-1,0,2623.16)" d="M0 2623.16H2938.83V0H0Z" />
</clipPath>
<clipPath id="clip_3">
<path transform="matrix(1,0,0,-1,0,2623.16)" d="M0 2623.16H2938.83V0H0Z" />
</clipPath>
</defs>
<g transform="translate(-1053 -1837)"><g clip-path="url(#clip_1)"><path transform="matrix(1,0,0,-1,1065.87,1859.76)" d="M0 0C0-1.81 .966-3.37 2.4-4.25L20.4-17.25C21.16-17.72 22.05-18 23-18 25.76-18 28-15.76 28-13V13C28 15.76 25.76 18 23 18 22.04 18 21.16 17.72 20.4 17.25L2.4 4.25C.968 3.38 0 1.81 0 0M4 0C4 .36 4.2 .662 4.49 .838L22.49 13.84C22.64 13.93 22.81 14 23 14 23.55 14 24 13.55 24 13V-13C24-13.55 23.55-14 23-14 22.81-14 22.64-13.93 22.49-13.84L4.49-.838C4.2-.662 4-.36 4 0" />
<path transform="matrix(1,0,0,-1,1059.87,1843.76)" d="M0 0C1.1 0 2-.896 2-2V-30C2-31.1 1.1-32 0-32-1.1-32-2-31.1-2-30V-2C-2-.896-1.1 0 0 0" />
</g></g></svg>