<svg xmlns="http://www.w3.org/2000/svg" viewBox="0 0 44 44" width="44" height="44"><defs>
<clipPath id="clip_1">
<path transform="matrix(1,0,0,-1,0,2623.16)" d="M0 2623.16H2938.83V0H0Z" />
</clipPath>
<clipPath id="clip_2">
<path transform="matrix(1,0,0,-1,0,2623.16)" d="M0 2623.16H2938.83V0H0Z" />
</clipPath>
<clipPath id="clip_3">
<path transform="matrix(1,0,0,-1,0,2623.16)" d="M0 2623.16H2938.83V0H0Z" />
</clipPath>
</defs>
<g transform="translate(-1383 -582)"><g clip-path="url(#clip_1)"><path transform="matrix(1,0,0,-1,1407.88,617.52)" d="M0 0-9.28 8.8H-16V16.8H-9.28L0 25.6ZM-10.72 20.8H-20V4.8H-10.72L0-5.2H4V30.8H0Z" />
<path transform="matrix(1,0,0,-1,1420.36,596.24)" d="M0 0-2.82-2.83C-1.31-4.34-.48-6.35-.48-8.48-.48-10.62-1.31-12.63-2.82-14.14L0-16.97C2.27-14.7 3.52-11.69 3.52-8.48 3.52-5.28 2.27-2.27 0 0" />
</g></g></svg>