<svg xmlns="http://www.w3.org/2000/svg" viewBox="0 0 53 54" width="53" height="54"><defs>
<clipPath id="clip_1">
<path transform="matrix(1,0,0,-1,0,2623.16)" d="M0 2623.16H2938.83V0H0Z" />
</clipPath>
<clipPath id="clip_2">
<path transform="matrix(1,0,0,-1,0,2623.16)" d="M0 2623.16H2938.83V0H0Z" />
</clipPath>
<clipPath id="clip_3">
<path transform="matrix(1,0,0,-1,0,2623.16)" d="M0 2623.16H2938.83V0H0Z" />
</clipPath>
</defs>
<g transform="translate(-1985 -1833)"><g clip-path="url(#clip_1)"><path transform="matrix(1,0,0,-1,2018.34,1841.49)" d="M0 0C-1.44 2.49-3.95 3.73-6.47 3.73-8.98 3.73-11.49 2.49-12.93 0L-14.13-2.07C-14.69-3.02-14.36-4.24-13.41-4.8-12.46-5.35-11.24-5.03-10.68-4.07L-9.49-2.01C-8.58-.442-7.07-.272-6.47-.272-5.86-.272-4.36-.442-3.45-2.01L5.89-17.99C6.79-19.52 9.1-19.21 9.55-17.48L11.41-10.41C11.69-9.34 11.05-8.25 9.98-7.97 8.91-7.69 7.82-8.33 7.54-9.39L6.91-11.8Z" />
<path transform="matrix(1,0,0,-1,2026.34,1877.76)" d="M0 0C5.79 0 9.41 6.28 6.5 11.29L5.31 13.35C4.75 14.3 3.53 14.63 2.58 14.07 1.62 13.52 1.3 12.3 1.85 11.34L3.06 9.28C3.98 7.69 3.37 6.29 3.07 5.76 2.76 5.23 1.86 4 .036 4H-18.47C-20.25 4-21.14 1.85-19.88 .586L-14.71-4.59C-13.93-5.37-12.66-5.37-11.88-4.59-11.1-3.8-11.1-2.54-11.88-1.76L-13.64 0Z" />
<path transform="matrix(1,0,0,-1,2003.64,1852.49)" d="M0 0C.896 1.54-.518 3.39-2.24 2.94L-9.31 1.07C-10.38 .784-11.02-.312-10.73-1.38-10.45-2.45-9.36-3.08-8.29-2.8L-5.88-2.17-12.76-14.02C-15.66-19.01-12.05-25.27-6.28-25.27H-3.77C-2.67-25.27-1.77-24.38-1.77-23.27-1.77-22.17-2.67-21.27-3.77-21.27H-6.28C-8.1-21.27-9-20.04-9.31-19.51-9.61-18.98-10.21-17.58-9.3-16L.002-.004Z" />
</g></g></svg>