<svg xmlns="http://www.w3.org/2000/svg" viewBox="0 0 37 52" width="37" height="52"><defs>
<clipPath id="clip_1">
<path transform="matrix(1,0,0,-1,0,2623.16)" d="M0 2623.16H2938.83V0H0Z" />
</clipPath>
<clipPath id="clip_2">
<path transform="matrix(1,0,0,-1,0,2623.16)" d="M0 2623.16H2938.83V0H0Z" />
</clipPath>
<clipPath id="clip_3">
<path transform="matrix(1,0,0,-1,0,2623.16)" d="M0 2623.16H2938.83V0H0Z" />
</clipPath>
</defs>
<g transform="translate(-641 -2249)"><g clip-path="url(#clip_1)"><path transform="matrix(1,0,0,-1,663,2275.76)" d="M0 0 10.16 8.46C10.61 8.84 10.88 9.41 10.88 10 10.88 10.59 10.61 11.16 10.16 11.54L-1.84 21.54C-2.44 22.04-3.27 22.12-3.97 21.8-4.67 21.47-5.12 20.74-5.12 19.97V4.27L-13.84 11.54C-14.69 12.25-15.95 12.13-16.66 11.28-17.37 10.43-17.25 9.17-16.4 8.46L-6.25 .002-16.4-8.46C-17.25-9.17-17.36-10.43-16.66-11.28-16.26-11.75-15.69-12-15.12-12-14.67-12-14.21-11.84-13.84-11.53L-5.12-4.27V-20C-5.12-20.77-4.67-21.48-3.97-21.81-3.7-21.93-3.41-22-3.12-22-2.66-22-2.21-21.84-1.84-21.54L10.16-11.54C10.62-11.16 10.88-10.59 10.88-10 10.88-9.4 10.62-8.84 10.16-8.46L.004 .002ZM-1.12 15.73 5.75 10-1.12 4.27ZM-1.12-15.73V-4.27L5.75-10Z" />
</g></g></svg>