<svg xmlns="http://www.w3.org/2000/svg" viewBox="0 0 48 42" width="48" height="42"><defs>
<clipPath id="clip_1">
<path transform="matrix(1,0,0,-1,0,2623.16)" d="M0 2623.16H2938.83V0H0Z" />
</clipPath>
<clipPath id="clip_2">
<path transform="matrix(1,0,0,-1,0,2623.16)" d="M0 2623.16H2938.83V0H0Z" />
</clipPath>
<clipPath id="clip_3">
<path transform="matrix(1,0,0,-1,0,2623.16)" d="M0 2623.16H2938.83V0H0Z" />
</clipPath>
</defs>
<g transform="translate(-2301 -2149)"><g clip-path="url(#clip_1)"><path transform="matrix(1,0,0,-1,2342.87,2155.76)" d="M0 0H-5C-5 1.1-5.9 2-7 2-8.1 2-9 1.1-9 0V-2L-11-8H-15L-17.89-3.66C-18.58-2.62-19.75-2-21-2-22.25-2-23.42-2.62-24.11-3.66L-27-8H-31C-32.41-8-37-8.72-37-18-37-19.1-36.1-20-35-20-33.9-20-33-19.1-33-18-33-13.88-31.96-12-31-12V-29.8C-31-31.02-30.02-32-28.8-32-27.75-32-26.85-31.26-26.65-30.23L-25-22H-17L-15.35-30.23C-15.15-31.26-14.25-32-13.2-32-11.98-32-11-31.02-11-29.8V-20C-5-20-2.61-14-2.61-6H0C1.66-6 3-4.66 3-3 3-1.34 1.66 0 0 0" />
</g></g></svg>