<svg xmlns="http://www.w3.org/2000/svg" viewBox="0 0 52 42" width="52" height="42"><defs>
<clipPath id="clip_1">
<path transform="matrix(1,0,0,-1,0,2623.16)" d="M0 2623.16H2938.83V0H0Z" />
</clipPath>
<clipPath id="clip_2">
<path transform="matrix(1,0,0,-1,0,2623.16)" d="M0 2623.16H2938.83V0H0Z" />
</clipPath>
<clipPath id="clip_3">
<path transform="matrix(1,0,0,-1,0,2623.16)" d="M0 2623.16H2938.83V0H0Z" />
</clipPath>
</defs>
<g transform="translate(-1361 -901)"><g clip-path="url(#clip_1)"><path transform="matrix(1,0,0,-1,1407.27,919.76)" d="M0 0-2.61 7.14C-3.11 8.82-4.69 10-6.45 10H-11.4C-11.4 12.21-13.19 14-15.4 14H-23.4C-25.6 14-27.4 12.21-27.4 10H-32.35C-34.11 10-35.69 8.82-36.15 7.25L-38.8 0H-41.4V-4H-39.4V-14C-39.4-15.47-38.59-16.75-37.4-17.44V-18C-37.4-19.11-36.5-20-35.4-20H-31.4C-30.29-20-29.4-19.11-29.4-18H-9.4C-9.4-19.11-8.5-20-7.4-20H-3.4C-2.29-20-1.4-19.11-1.4-18V-17.44C-.208-16.75 .602-15.47 .602-14V-4H2.6V0ZM-31.9-9C-33.28-9-34.4-7.88-34.4-6.5-34.4-5.12-33.28-4-31.9-4-30.52-4-29.4-5.12-29.4-6.5-29.4-7.88-30.52-9-31.9-9M-13.4-14H-25.4V-10H-13.4ZM-6.9-9C-8.28-9-9.4-7.88-9.4-6.5-9.4-5.12-8.28-4-6.9-4-5.52-4-4.4-5.12-4.4-6.5-4.4-7.88-5.52-9-6.9-9M-34.54 0-32.35 6H-6.44L-4.25 0Z" />
</g></g></svg>