<svg xmlns="http://www.w3.org/2000/svg" viewBox="0 0 49 46" width="49" height="46"><defs>
<clipPath id="clip_1">
<path transform="matrix(1,0,0,-1,0,2623.16)" d="M0 2623.16H2938.83V0H0Z" />
</clipPath>
<clipPath id="clip_2">
<path transform="matrix(1,0,0,-1,0,2623.16)" d="M0 2623.16H2938.83V0H0Z" />
</clipPath>
<clipPath id="clip_3">
<path transform="matrix(1,0,0,-1,0,2623.16)" d="M0 2623.16H2938.83V0H0Z" />
</clipPath>
</defs>
<g transform="translate(-2507 -1110)"><g clip-path="url(#clip_1)"><path transform="matrix(1,0,0,-1,2531.87,1135.76)" d="M0 0C2.21 0 4 1.79 4 4 4 6.21 2.21 8 0 8-2.21 8-4 6.21-4 4-4 1.79-2.21 0 0 0" />
<path transform="matrix(1,0,0,-1,2541.87,1114.45)" d="M0 0-7.01-12.13C-5.21-13.17-3.99-15.09-3.99-17.31H10.01C10.01-9.9 5.98-3.46 0 .002Z" />
<path transform="matrix(1,0,0,-1,2531.87,1137.76)" d="M0 0C-1.09 0-2.1 .316-2.99 .828L-9.99-11.31C-7.05-13.01-3.64-14 0-14 3.64-14 7.05-13.01 9.99-11.31L2.99 .828C2.1 .316 1.09 0 0 0" />
<path transform="matrix(1,0,0,-1,2528.89,1126.59)" d="M0 0-7.01 12.13C-12.98 8.68-17.01 2.23-17.01-5.17H-3.01C-3.01-2.96-1.79-1.04 0-.002Z" />
</g></g></svg>