<svg xmlns="http://www.w3.org/2000/svg" viewBox="0 0 52 52" width="52" height="52"><defs>
<clipPath id="clip_1">
<path transform="matrix(1,0,0,-1,0,2623.16)" d="M0 2623.16H2938.83V0H0Z" />
</clipPath>
<clipPath id="clip_2">
<path transform="matrix(1,0,0,-1,0,2623.16)" d="M0 2623.16H2938.83V0H0Z" />
</clipPath>
<clipPath id="clip_3">
<path transform="matrix(1,0,0,-1,0,2623.16)" d="M0 2623.16H2938.83V0H0Z" />
</clipPath>
</defs>
<g transform="translate(-1985 -1313)"><g clip-path="url(#clip_1)"><path transform="matrix(1,0,0,-1,0,2623.16)" d="M2009.87 1279.4H2013.87V1293.4H2009.87Z" />
<path transform="matrix(1,0,0,-1,0,2623.16)" d="M2009.87 1273.4H2013.87V1277.4H2009.87Z" />
<path transform="matrix(1,0,0,-1,2011.87,1317.76)" d="M0 0C-12.15 0-22-9.85-22-22-22-34.15-12.15-44 0-44 12.15-44 22-34.15 22-22 22-9.85 12.15 0 0 0M0-40C-9.93-40-18-31.93-18-22-18-12.07-9.93-4 0-4 9.93-4 18-12.07 18-22 18-31.93 9.93-40 0-40" />
</g></g></svg>