<svg xmlns="http://www.w3.org/2000/svg" viewBox="0 0 36 47" width="36" height="47"><defs>
<clipPath id="clip_1">
<path transform="matrix(1,0,0,-1,0,2623.16)" d="M0 2623.16H2938.83V0H0Z" />
</clipPath>
<clipPath id="clip_2">
<path transform="matrix(1,0,0,-1,0,2623.16)" d="M0 2623.16H2938.83V0H0Z" />
</clipPath>
<clipPath id="clip_3">
<path transform="matrix(1,0,0,-1,0,2623.16)" d="M0 2623.16H2938.83V0H0Z" />
</clipPath>
</defs>
<g transform="translate(-953 -1421)"><g clip-path="url(#clip_1)"><path transform="matrix(1,0,0,-1,968.21,1427.34)" d="M0 0C-4.06-4.43-10.08-12.52-10.33-21.83-10.52-29.28-5.18-35.7 2.24-36.35 10.92-37.11 17.66-30.86 17.66-22.42 17.66-12.9 11.53-4.59 7.38-.058 5.39 2.11 1.99 2.17 0 0M3.66-32.42C-2.13-32.42-6.34-28.21-6.34-22.42-6.34-13.91-.336-6.17 2.93-2.64 3.33-2.2 4-2.2 4.4-2.64 7.66-6.17 13.66-13.91 13.66-22.42 13.66-28.21 9.46-32.41 3.66-32.42" />
</g></g></svg>