<svg xmlns="http://www.w3.org/2000/svg" viewBox="0 0 48 51" width="48" height="51"><defs>
<clipPath id="clip_1">
<path transform="matrix(1,0,0,-1,0,2623.16)" d="M0 2623.16H2938.83V0H0Z" />
</clipPath>
<clipPath id="clip_2">
<path transform="matrix(1,0,0,-1,0,2623.16)" d="M0 2623.16H2938.83V0H0Z" />
</clipPath>
<clipPath id="clip_3">
<path transform="matrix(1,0,0,-1,0,2623.16)" d="M0 2623.16H2938.83V0H0Z" />
</clipPath>
</defs>
<g transform="translate(-2299 -1107)"><g clip-path="url(#clip_1)"><path transform="matrix(1,0,0,-1,2343.04,1138.74)" d="M0 0-1.91 3.28-5.35 1.24-3.46-2.02C-2.93-2.92-3.28-3.72-3.45-4.02-3.62-4.32-4.14-5.02-5.18-5.02H-17.52L-13.86-1.36-16.69 1.47-25.18-7.02-16.69-15.51-13.86-12.68-17.52-9.02H-5.18C-.554-9.02 2.33-4-.002-.002Z" />
<path transform="matrix(1,0,0,-1,2322.14,1116.75)" d="M0 0C.522 .896 1.38 .992 1.73 .992 2.07 .992 2.93 .896 3.46 0L9.67-10.66 4.66-9.34 3.65-13.21 15.26-16.27 18.31-4.66 14.45-3.64 13.13-8.65 6.91 2.02C5.75 4 3.74 4.99 1.73 4.99-.284 4.99-2.3 4-3.45 2.02L-5.47-1.44-2.01-3.45 .002 .002Z" />
<path transform="matrix(1,0,0,-1,2314.26,1130.28)" d="M0 0 1.32-5.01 5.19-3.99 2.13 7.62-9.48 4.56-8.46 .692-3.45 2.01-9.56-8.46C-11.89-12.46-9-17.48-4.38-17.48H-.384V-13.48H-4.38C-5.42-13.48-5.94-12.78-6.11-12.48-6.28-12.18-6.63-11.38-6.1-10.48L.002-.002Z" />
</g></g></svg>