<svg xmlns="http://www.w3.org/2000/svg" viewBox="0 0 53 47" width="53" height="47"><defs>
<clipPath id="clip_1">
<path transform="matrix(1,0,0,-1,0,2623.16)" d="M0 2623.16H2938.83V0H0Z" />
</clipPath>
<clipPath id="clip_2">
<path transform="matrix(1,0,0,-1,0,2623.16)" d="M0 2623.16H2938.83V0H0Z" />
</clipPath>
<clipPath id="clip_3">
<path transform="matrix(1,0,0,-1,0,2623.16)" d="M0 2623.16H2938.83V0H0Z" />
</clipPath>
</defs>
<g transform="translate(-1361 -2045)"><g clip-path="url(#clip_1)"><path transform="matrix(1,0,0,-1,1387.87,2087.76)" d="M0 0C-3.63 0-21.68 8.58-22 25.55-22.12 32.13-17.01 37.71-10.6 37.99-6.16 38.16-2.36 36.26 0 32.79 2.36 36.26 6.18 38.16 10.6 37.99 17.01 37.71 22.12 32.13 22 25.55 21.68 8.58 3.63 0 0 0M-10 34C-10.14 34-10.29 34-10.43 33.99-14.69 33.81-18.08 30.05-18 25.62-17.72 10.91-1.37 4.15 .064 4 1.37 4.15 17.72 10.91 18 25.62 18.08 30.05 14.69 33.81 10.43 33.99 5.37 34.19 3.23 30.57 2.68 29.45 2.17 28.42 1.14 27.78 0 27.78-1.14 27.78-2.17 28.42-2.68 29.45-3.21 30.54-5.29 34-10 34Z" />
</g></g></svg>