<svg xmlns="http://www.w3.org/2000/svg" viewBox="0 0 52 42" width="52" height="42"><defs>
<clipPath id="clip_1">
<path transform="matrix(1,0,0,-1,0,2623.16)" d="M0 2623.16H2938.83V0H0Z" />
</clipPath>
<clipPath id="clip_2">
<path transform="matrix(1,0,0,-1,0,2623.16)" d="M0 2623.16H2938.83V0H0Z" />
</clipPath>
<clipPath id="clip_3">
<path transform="matrix(1,0,0,-1,0,2623.16)" d="M0 2623.16H2938.83V0H0Z" />
</clipPath>
</defs>
<g transform="translate(-841 -1525)"><g clip-path="url(#clip_1)"><path transform="matrix(1,0,0,-1,873.88,1549.52)" d="M0 0-8.59-8.59-13.17-4-16-6.83-8.59-14.24 2.83-2.83Z" />
<path transform="matrix(1,0,0,-1,879.88,1561.76)" d="M0 0H-2V4H0C3.31 4 6 6.69 6 10 6 13.31 3.31 16 0 16H-4V18C-4 23.51-8.49 28-14 28-19.51 28-24 23.51-24 18L-23.95 16.18-25.49 15.78C-28.15 15.1-30 12.72-30 10-30 6.69-27.31 4-24 4V0C-29.52 0-34 4.49-34 10-34 14.03-31.58 17.6-27.96 19.16-27.36 26.34-21.33 32-14 32-6.96 32-1.12 26.78-.144 20H-.002C5.51 20 10 15.51 10 10 10 4.49 5.51 0 0 0" />
</g></g></svg>