<svg xmlns="http://www.w3.org/2000/svg" viewBox="0 0 44 40" width="44" height="40"><defs>
<clipPath id="clip_1">
<path transform="matrix(1,0,0,-1,0,2623.16)" d="M0 2623.16H2938.83V0H0Z" />
</clipPath>
<clipPath id="clip_2">
<path transform="matrix(1,0,0,-1,0,2623.16)" d="M0 2623.16H2938.83V0H0Z" />
</clipPath>
<clipPath id="clip_3">
<path transform="matrix(1,0,0,-1,0,2623.16)" d="M0 2623.16H2938.83V0H0Z" />
</clipPath>
</defs>
<g transform="translate(-2613 -2047)"><g clip-path="url(#clip_1)"><path transform="matrix(1,0,0,-1,2651.87,2071.76)" d="M0 0C-1.1 0-2-.896-2-2V-4C-2-6.21-3.79-8-6-8H-26C-28.21-8-30-6.21-30-4V-2C-30-.896-30.9 0-32 0-33.1 0-34-.896-34-2V-4C-34-8.42-30.42-12-26-12H-6C-1.58-12 2-8.42 2-4V-2C2-.896 1.1 0 0 0" />
<path transform="matrix(1,0,0,-1,2648.37,2060.26)" d="M0 0C-.828 .828-2.17 .828-3 0L-10.5-7.5V6.5C-10.5 7.6-11.4 8.5-12.5 8.5-13.6 8.5-14.5 7.6-14.5 6.5V-7.5L-22 0C-22.83 .828-24.17 .828-25 0-25.83-.828-25.83-2.17-25-3L-13.91-14.09C-13.13-14.87-11.87-14.87-11.09-14.09L0-3C.828-2.17 .828-.828 0 0" />
</g></g></svg>