<svg xmlns="http://www.w3.org/2000/svg" viewBox="0 0 48 46" width="48" height="46"><defs>
<clipPath id="clip_1">
<path transform="matrix(1,0,0,-1,0,2623.16)" d="M0 2623.16H2938.83V0H0Z" />
</clipPath>
<clipPath id="clip_2">
<path transform="matrix(1,0,0,-1,0,2623.16)" d="M0 2623.16H2938.83V0H0Z" />
</clipPath>
<clipPath id="clip_3">
<path transform="matrix(1,0,0,-1,0,2623.16)" d="M0 2623.16H2938.83V0H0Z" />
</clipPath>
</defs>
<g transform="translate(-2299 -1731)"><g clip-path="url(#clip_1)"><path transform="matrix(1,0,0,-1,2323.87,1741.59)" d="M0 0 4.59-8.65 14.3-10.31 7.43-17.32 8.84-27 .002-22.68ZM0 5.83C-.822 5.83-1.64 5.42-2.09 4.58L-7.21-5.07-18.04-6.93C-19.91-7.25-20.65-9.52-19.33-10.87L-11.67-18.69-13.24-29.49C-13.45-30.97-12.26-32.17-10.9-32.17-10.56-32.17-10.2-32.09-9.86-31.92L-.002-27.11 9.86-31.92C10.2-32.09 10.55-32.17 10.9-32.17 12.25-32.17 13.45-30.97 13.23-29.49L11.67-18.69 19.33-10.87C20.65-9.52 19.91-7.25 18.04-6.93L7.21-5.07 2.08 4.58C1.64 5.42 .818 5.83-.004 5.83Z" />
</g></g></svg>