<svg xmlns="http://www.w3.org/2000/svg" viewBox="0 0 48 48" width="48" height="48"><defs>
<clipPath id="clip_1">
<path transform="matrix(1,0,0,-1,0,2623.16)" d="M0 2623.16H2938.83V0H0Z" />
</clipPath>
<clipPath id="clip_2">
<path transform="matrix(1,0,0,-1,0,2623.16)" d="M0 2623.16H2938.83V0H0Z" />
</clipPath>
<clipPath id="clip_3">
<path transform="matrix(1,0,0,-1,0,2623.16)" d="M0 2623.16H2938.83V0H0Z" />
</clipPath>
</defs>
<g transform="translate(-1365 -1939)"><g clip-path="url(#clip_1)"><path transform="matrix(1,0,0,-1,1395.35,1948.74)" d="M0 0 1.65-3.64C3.13-2.97 4.06-1.47 4 .15 3.94 1.77 2.9 3.2 1.37 3.76ZM9.84-19.65 13.67-20.8C14.14-19.25 13.62-17.56 12.35-16.54 11.09-15.51 9.33-15.36 7.9-16.15ZM4.53-17.02C.659-17.02-2.47-13.88-2.47-10.02H-10.47C-10.47-18.3-3.76-25.02 4.53-25.02ZM-2.47-10.02C-2.47-7.19-.792-4.75 1.65-3.64L-1.65 3.64C-6.84 1.3-10.47-3.92-10.47-10.02ZM1.37 3.76C-.746 4.53-3.05 4.98-5.47 4.98V-3.02C-4.05-3.02-2.67-3.28-1.37-3.76ZM-5.47 4.98C-16.52 4.98-25.47-3.97-25.47-15.02H-17.47C-17.47-8.39-12.1-3.02-5.47-3.02ZM-25.47-15.02C-25.47-26.06-16.52-35.02-5.47-35.02V-27.02C-12.1-27.02-17.47-21.64-17.47-15.02ZM-5.47-35.02C3.57-35.02 11.19-29.02 13.67-20.8L6.01-18.49C4.52-23.43-.063-27.02-5.47-27.02ZM7.9-16.15C6.9-16.7 5.76-17.02 4.53-17.02V-25.02C7.15-25.02 9.63-24.34 11.78-23.15Z" />
</g></g></svg>