<svg xmlns="http://www.w3.org/2000/svg" viewBox="0 0 40 47" width="40" height="47"><defs>
<clipPath id="clip_1">
<path transform="matrix(1,0,0,-1,0,2623.16)" d="M0 2623.16H2938.83V0H0Z" />
</clipPath>
<clipPath id="clip_2">
<path transform="matrix(1,0,0,-1,0,2623.16)" d="M0 2623.16H2938.83V0H0Z" />
</clipPath>
<clipPath id="clip_3">
<path transform="matrix(1,0,0,-1,0,2623.16)" d="M0 2623.16H2938.83V0H0Z" />
</clipPath>
</defs>
<g transform="translate(-847 -900)"><g clip-path="url(#clip_1)"><path transform="matrix(1,0,0,-1,883.87,927.76)" d="M0 0C0 14.4-4.11 23-11 23H-21C-27.89 23-32 14.4-32 0-32-4.37-29.41-7.6-25.78-9.61L-29.46-16H-24.84L-22.04-11.14C-20.1-11.7-18.03-12-16-12-13.97-12-11.9-11.7-9.96-11.14L-7.16-16H-2.54L-6.22-9.61C-2.59-7.6 0-4.36 0 0M-24-4C-25.1-4-26-3.1-26-2-26-.896-25.1 0-24 0-22.9 0-22-.896-22-2-22-3.1-22.9-4-24-4M-22.95 6C-26 6-27.1 8.2-27.1 10-27.1 15.7-23.79 19-21 19H-11C-8.21 19-4.9 15.7-4.9 10-4.9 8.2-6 6-9.05 6H-22.95ZM-8-4C-9.1-4-10-3.1-10-2-10-.896-9.1 0-8 0-6.9 0-6-.896-6-2-6-3.1-6.9-4-8-4" />
</g></g></svg>