<svg xmlns="http://www.w3.org/2000/svg" viewBox="0 0 48 44" width="48" height="44"><defs>
<clipPath id="clip_1">
<path transform="matrix(1,0,0,-1,0,2623.16)" d="M0 2623.16H2938.83V0H0Z" />
</clipPath>
<clipPath id="clip_2">
<path transform="matrix(1,0,0,-1,0,2623.16)" d="M0 2623.16H2938.83V0H0Z" />
</clipPath>
<clipPath id="clip_3">
<path transform="matrix(1,0,0,-1,0,2623.16)" d="M0 2623.16H2938.83V0H0Z" />
</clipPath>
</defs>
<g transform="translate(-709 -774)"><g clip-path="url(#clip_1)"><path transform="matrix(1,0,0,-1,721.88,810.72)" d="M0 0C-2.21 0-4 1.79-4 4-4 6.21-2.21 8 0 8 2.21 8 4 6.21 4 4 4 1.79 2.21 0 0 0M0 12C-4.42 12-8 8.42-8 4-8-.418-4.42-4 0-4 4.42-4 8-.418 8 4 8 8.42 4.42 12 0 12" />
<path transform="matrix(1,0,0,-1,745.88,810.72)" d="M0 0C-2.21 0-4 1.79-4 4-4 6.21-2.21 8 0 8 2.21 8 4 6.21 4 4 4 1.79 2.21 0 0 0M0 12C-4.42 12-8 8.42-8 4-8-.418-4.42-4 0-4 4.42-4 8-.418 8 4 8 8.42 4.42 12 0 12" />
<path transform="matrix(1,0,0,-1,743.88,786.72)" d="M0 0C2.21 0 4 1.79 4 4 4 6.21 2.21 8 0 8-2.21 8-4 6.21-4 4-4 1.79-2.21 0 0 0" />
<path transform="matrix(1,0,0,-1,743.88,796.72)" d="M0 0H6V4H2L-6 12H-10L-22 6V2L-12-5.3V-12H-8L-8-3.06-14.55 1.72-6.02 5.99Z" />
</g></g></svg>