<svg xmlns="http://www.w3.org/2000/svg" viewBox="0 0 52 36" width="52" height="36"><defs>
<clipPath id="clip_1">
<path transform="matrix(1,0,0,-1,0,2623.16)" d="M0 2623.16H2938.83V0H0Z" />
</clipPath>
<clipPath id="clip_2">
<path transform="matrix(1,0,0,-1,0,2623.16)" d="M0 2623.16H2938.83V0H0Z" />
</clipPath>
<clipPath id="clip_3">
<path transform="matrix(1,0,0,-1,0,2623.16)" d="M0 2623.16H2938.83V0H0Z" />
</clipPath>
</defs>
<g transform="translate(-945 -2259)"><g clip-path="url(#clip_1)"><path transform="matrix(1,0,0,-1,989.87,2275.76)" d="M0 0V4C0 5.1-.896 6-2 6H-28V8C-28 10.21-29.79 12-32 12H-36C-38.21 12-40 10.21-40 8V-8C-40-10.21-38.21-12-36-12V-14C-36-15.1-35.1-16-34-16-32.9-16-32-15.1-32-14V-12H-4V-14C-4-15.1-3.1-16-2-16-.896-16 0-15.1 0-14V-12C2.21-12 4-10.21 4-8V-4C4-1.79 2.21 0 0 0M-20 2H-4V0H-20ZM-28 2H-24V0H-27.5C-27.78 0-28 .224-28 .5ZM0-7C0-7.55-.448-8-1-8H-35C-35.55-8-36-7.55-36-7V7C-36 7.55-35.55 8-35 8H-33C-32.45 8-32 7.55-32 7V-2C-32-3.1-31.1-4-30-4H-1C-.448-4 0-4.45 0-5Z" />
</g></g></svg>