<svg xmlns="http://www.w3.org/2000/svg" viewBox="0 0 52 48" width="52" height="48"><defs>
<clipPath id="clip_1">
<path transform="matrix(1,0,0,-1,0,2623.16)" d="M0 2623.16H2938.83V0H0Z" />
</clipPath>
<clipPath id="clip_2">
<path transform="matrix(1,0,0,-1,0,2623.16)" d="M0 2623.16H2938.83V0H0Z" />
</clipPath>
<clipPath id="clip_3">
<path transform="matrix(1,0,0,-1,0,2623.16)" d="M0 2623.16H2938.83V0H0Z" />
</clipPath>
</defs>
<g transform="translate(-1283 -486)"><g clip-path="url(#clip_1)"><path transform="matrix(1,0,0,-1,1321.88,502.72)" d="M0 0H-.14C-1.11 6.78-6.96 12-14 12-21.33 12-27.36 6.34-27.95-.842-31.58-2.4-34-5.97-34-10-34-15.51-29.51-20-24-20V-16C-27.31-16-30-13.31-30-10-30-7.28-28.14-4.9-25.49-4.22L-23.95-3.82-24-2C-24 3.51-19.51 8-14 8-8.48 8-4 3.51-4-2V-4H0C3.31-4 6-6.69 6-10 6-13.31 3.31-16 0-16H-2V-20H0C5.52-20 10-15.51 10-10 10-4.49 5.51 0 0 0" />
<path transform="matrix(1,0,0,-1,1305.88,510.72)" d="M0 0-4-10V-12H2L0-20H2L10-10V-8H6L10 0Z" />
</g></g></svg>