<svg xmlns="http://www.w3.org/2000/svg" viewBox="0 0 48 38" width="48" height="38"><defs>
<clipPath id="clip_1">
<path transform="matrix(1,0,0,-1,0,2623.16)" d="M0 2623.16H2938.83V0H0Z" />
</clipPath>
<clipPath id="clip_2">
<path transform="matrix(1,0,0,-1,0,2623.16)" d="M0 2623.16H2938.83V0H0Z" />
</clipPath>
<clipPath id="clip_3">
<path transform="matrix(1,0,0,-1,0,2623.16)" d="M0 2623.16H2938.83V0H0Z" />
</clipPath>
</defs>
<g transform="translate(-739 -1631)"><g clip-path="url(#clip_1)"><path transform="matrix(1,0,0,-1,777.87,1650.04)" d="M0 0V14.28H-10V10.28H-4V6.28H-26V2.28H-16V-4.12L-17.6-5.72H-18.28C-19.18-2.27-22.28 .282-26 .282-30.42 .282-34-3.3-34-7.72-34-12.14-30.42-15.72-26-15.72-22.28-15.72-19.17-13.16-18.28-9.72H-16L-12-5.72V2.28H-4V0C-7.44-.892-10-3.99-10-7.72-10-12.14-6.42-15.72-2-15.72 2.42-15.72 6-12.14 6-7.72 6-3.99 3.44-.894 0 0M-26-11.72C-28.21-11.72-30-9.92-30-7.72-30-5.51-28.21-3.72-26-3.72-23.79-3.72-22-5.51-22-7.72-22-9.92-23.79-11.72-26-11.72M-2-11.72C-4.21-11.72-6-9.92-6-7.72-6-5.51-4.21-3.72-2-3.72 .206-3.72 2-5.51 2-7.72 2-9.92 .206-11.72-2-11.72" />
</g></g></svg>