<svg xmlns="http://www.w3.org/2000/svg" viewBox="0 0 46 46" width="46" height="46"><defs>
<clipPath id="clip_1">
<path transform="matrix(1,0,0,-1,0,2623.16)" d="M0 2623.16H2938.83V0H0Z" />
</clipPath>
<clipPath id="clip_2">
<path transform="matrix(1,0,0,-1,0,2623.16)" d="M0 2623.16H2938.83V0H0Z" />
</clipPath>
<clipPath id="clip_3">
<path transform="matrix(1,0,0,-1,0,2623.16)" d="M0 2623.16H2938.83V0H0Z" />
</clipPath>
</defs>
<g transform="translate(-1677 -1941)"><g clip-path="url(#clip_1)"><path transform="matrix(1,0,0,-1,1686.86,1964.76)" d="M0 0H10C11.1 0 12-.896 12-2V-12C12-13.1 11.1-14 10-14 8.9-14 8-13.1 8-12V-6.83L-2.17-17C-2.95-17.78-4.22-17.78-5-17-5.78-16.22-5.78-14.95-5-14.17L5.17-4H0C-1.1-4-2-3.1-2-2-2-.896-1.1 0 0 0" />
<path transform="matrix(1,0,0,-1,1700.86,1950.76)" d="M0 0V-10C0-11.1 .896-12 2-12H12C13.1-12 14-11.1 14-10 14-8.9 13.1-8 12-8H6.83L17 2.17C17.78 2.95 17.78 4.22 17 5 16.22 5.78 14.95 5.78 14.17 5L4-5.17V0C4 1.1 3.1 2 2 2 .896 2 0 1.1 0 0" />
</g></g></svg>