<svg xmlns="http://www.w3.org/2000/svg" viewBox="0 0 48 44" width="48" height="44"><defs>
<clipPath id="clip_1">
<path transform="matrix(1,0,0,-1,0,2623.16)" d="M0 2623.16H2938.83V0H0Z" />
</clipPath>
<clipPath id="clip_2">
<path transform="matrix(1,0,0,-1,0,2623.16)" d="M0 2623.16H2938.83V0H0Z" />
</clipPath>
<clipPath id="clip_3">
<path transform="matrix(1,0,0,-1,0,2623.16)" d="M0 2623.16H2938.83V0H0Z" />
</clipPath>
</defs>
<g transform="translate(-323 -1319)"><g clip-path="url(#clip_1)"><path transform="matrix(1,0,0,-1,363.87,1349.76)" d="M0 0H-5.33L-12-5V0H-32V22H0ZM-36 26V-4H-16V-10H-12L-4-4H4V26Z" />
</g></g></svg>