<svg xmlns="http://www.w3.org/2000/svg" viewBox="0 0 52 44" width="52" height="44"><defs>
<clipPath id="clip_1">
<path transform="matrix(1,0,0,-1,0,2623.16)" d="M0 2623.16H2938.83V0H0Z" />
</clipPath>
<clipPath id="clip_2">
<path transform="matrix(1,0,0,-1,0,2623.16)" d="M0 2623.16H2938.83V0H0Z" />
</clipPath>
<clipPath id="clip_3">
<path transform="matrix(1,0,0,-1,0,2623.16)" d="M0 2623.16H2938.83V0H0Z" />
</clipPath>
</defs>
<g transform="translate(-1361 -1315)"><g clip-path="url(#clip_1)"><path transform="matrix(1,0,0,-1,0,2623.16)" d="M1391.87 1297.4H1395.87V1303.4H1391.87Z" />
<path transform="matrix(1,0,0,-1,1403.77,1323.03)" d="M0 0-4.24-4.24-1.41-7.07 2.83-2.83Z" />
<path transform="matrix(1,0,0,-1,1401.3,1342.48)" d="M0 0C-.254 .728-.588 1.41-.996 2.05-.028 3.37 .576 4.96 .576 6.72 .576 11.13-3.01 14.72-7.42 14.72-9.34 14.72-11.08 14.03-12.46 12.9-13.06 13.3-13.7 13.64-14.37 13.91L-13.08 15.2-17.32 19.44-20.15 16.62-18.24 14.7C-18.3 14.7-18.36 14.72-18.42 14.72-23.71 14.72-28.11 11.04-29.15 5.97-32.9 4.47-35.42 .84-35.42-3.28-35.42-8.8-30.94-13.28-25.42-13.28H-9.42C-4.17-13.28 .108-9.19 .5-4.04L2.48-6.01 5.3-3.18 1.06 1.06 .002-.002ZM-3.42 6.72C-3.42 6.09-3.58 5.5-3.84 4.97-5.03 5.77-6.38 6.36-7.85 6.6-8.2 7.88-8.78 9.06-9.53 10.1-8.92 10.49-8.2 10.72-7.42 10.72-5.22 10.72-3.42 8.92-3.42 6.72M-9.42-9.28H-25.42C-28.73-9.28-31.42-6.59-31.42-3.28-31.42-.534-29.55 1.85-26.87 2.52L-25.48 2.86-25.36 4.29C-25.05 7.96-22.07 10.72-18.42 10.72-14.88 10.72-11.91 8.04-11.51 4.5L-11.31 2.72H-9.42C-6.12 2.72-3.42 .026-3.42-3.28-3.42-6.59-6.12-9.28-9.42-9.28" />
<path transform="matrix(1,0,0,-1,0,2623.16)" d="M1403.87 1285.4H1409.87V1289.4H1403.87Z" />
</g></g></svg>