<svg xmlns="http://www.w3.org/2000/svg" viewBox="0 0 43 45" width="43" height="45"><defs>
<clipPath id="clip_1">
<path transform="matrix(1,0,0,-1,0,2623.16)" d="M0 2623.16H2938.83V0H0Z" />
</clipPath>
<clipPath id="clip_2">
<path transform="matrix(1,0,0,-1,0,2623.16)" d="M0 2623.16H2938.83V0H0Z" />
</clipPath>
<clipPath id="clip_3">
<path transform="matrix(1,0,0,-1,0,2623.16)" d="M0 2623.16H2938.83V0H0Z" />
</clipPath>
</defs>
<g transform="translate(-1573 -1212)"><g clip-path="url(#clip_1)"><path transform="matrix(1,0,0,-1,1603.88,1231.76)" d="M0 0V-9.24L4-11.24V-14H-14V-18H-12C-12-20.21-10.21-22-8-22-5.79-22-4-20.21-4-18H8V-8.76L4-6.76V0Z" />
<path transform="matrix(1,0,0,-1,1611.88,1219.76)" d="M0 0-2.83 2.83-7.36-1.69C-9.54 .58-12.61 2-16 2-22.62 2-28-3.38-28-10V-18.76L-32-20.76V-26.33L-34.83-29.17-32-32ZM-24-10C-24-5.59-20.41-2-16-2-13.71-2-11.65-2.98-10.2-4.53L-24-18.33Z" />
</g></g></svg>