<svg xmlns="http://www.w3.org/2000/svg" viewBox="0 0 49 40" width="49" height="40"><defs>
<clipPath id="clip_1">
<path transform="matrix(1,0,0,-1,0,2623.16)" d="M0 2623.16H2938.83V0H0Z" />
</clipPath>
<clipPath id="clip_2">
<path transform="matrix(1,0,0,-1,0,2623.16)" d="M0 2623.16H2938.83V0H0Z" />
</clipPath>
<clipPath id="clip_3">
<path transform="matrix(1,0,0,-1,0,2623.16)" d="M0 2623.16H2938.83V0H0Z" />
</clipPath>
</defs>
<g transform="translate(-1881 -2151)"><g clip-path="url(#clip_1)"><path transform="matrix(1,0,0,-1,1903.87,2187.76)" d="M0 0C1.1 0 2 .895 2 2 2 3.1 1.1 4 0 4-1.1 4-2 3.1-2 2-2 .895-1.1 0 0 0M14 0C15.11 0 16 .895 16 2 16 3.1 15.11 4 14 4 12.89 4 12 3.1 12 2 12 .895 12.89 0 14 0" />
<path transform="matrix(1,0,0,-1,1922.75,2161.76)" d="M0 0H-24.76L-25.5 2.97C-25.94 4.75-27.54 6-29.38 6H-34.88C-35.98 6-36.88 5.1-36.88 4-36.88 2.9-35.98 2-34.88 2H-30.16C-29.7 2-29.3 1.69-29.19 1.24L-24.13-18.97C-23.69-20.75-22.09-22-20.25-22H-2.88C-1.77-22-.876-21.1-.876-20-.876-18.9-1.77-18-2.88-18H-19.22C-19.83-18-20.36-17.59-20.5-17L-20.75-16H-2C-.162-16 1.44-14.75 1.88-12.97L3.88-4.97C4.51-2.45 2.6 0 0 0M-.31-5.24-1.81-11.24C-1.92-11.69-2.32-12-2.78-12H-21.76L-23.75-4H-1.28C-.632-4-.154-4.61-.312-5.24Z" />
</g></g></svg>