<svg xmlns="http://www.w3.org/2000/svg" viewBox="0 0 36 52" width="36" height="52"><defs>
<clipPath id="clip_1">
<path transform="matrix(1,0,0,-1,0,2623.16)" d="M0 2623.16H2938.83V0H0Z" />
</clipPath>
<clipPath id="clip_2">
<path transform="matrix(1,0,0,-1,0,2623.16)" d="M0 2623.16H2938.83V0H0Z" />
</clipPath>
<clipPath id="clip_3">
<path transform="matrix(1,0,0,-1,0,2623.16)" d="M0 2623.16H2938.83V0H0Z" />
</clipPath>
</defs>
<g transform="translate(-849 -1001)"><g clip-path="url(#clip_1)"><path transform="matrix(1,0,0,-1,879.12,1009.76)" d="M0 0-3.62-3.62-11.24 4-18.82-3.57-22.38 0H-25.24V-14C-25.24-21.04-20.02-26.86-13.24-27.84V-40H-9.24V-27.84C-2.47-26.86 2.76-21.04 2.76-14V0ZM-11.24-1.66-6.45-6.45-11.2-11.2-15.99-6.4ZM-11.24-24C-16.76-24-21.24-19.51-21.24-14V-6.8L-5.73-22.34C-7.31-23.39-9.21-24-11.24-24M-1.24-14C-1.24-16.04-1.85-17.93-2.9-19.51L-8.37-14.03-1.24-6.9V-14Z" />
</g></g></svg>