<svg xmlns="http://www.w3.org/2000/svg" viewBox="0 0 52 42" width="52" height="42"><defs>
<clipPath id="clip_1">
<path transform="matrix(1,0,0,-1,0,2623.16)" d="M0 2623.16H2938.83V0H0Z" />
</clipPath>
<clipPath id="clip_2">
<path transform="matrix(1,0,0,-1,0,2623.16)" d="M0 2623.16H2938.83V0H0Z" />
</clipPath>
<clipPath id="clip_3">
<path transform="matrix(1,0,0,-1,0,2623.16)" d="M0 2623.16H2938.83V0H0Z" />
</clipPath>
</defs>
<g transform="translate(-2089 -1629)"><g clip-path="url(#clip_1)"><path transform="matrix(1,0,0,-1,0,2623.16)" d="M2103.87 955.4H2137.87V959.4H2103.87Z" />
<path transform="matrix(1,0,0,-1,2127.89,1659.76)" d="M0 0C-.404 0-.81 .042-1.22 .124L-1.31 .144-34.01 8V22H-26.05L-23.08 17.33-18.01 16.4V26H-9.48L-5.93 13.95 1.35 11.84C4.43 11.22 6.53 8.04 5.86 4.8 5.54 3.23 4.63 1.88 3.29 .996 2.3 .342 1.16 0 0 0M-.376 4.04C.138 3.95 .658 4.05 1.09 4.33 1.53 4.63 1.84 5.08 1.95 5.6 2.17 6.68 1.47 7.74 .388 7.96L-9.27 10.75-12.01 22H-14.01V12L-25.52 13.71-28.01 18H-30.01V11.12Z" />
</g></g></svg>