<svg xmlns="http://www.w3.org/2000/svg" viewBox="0 0 52 40" width="52" height="40"><defs>
<clipPath id="clip_1">
<path transform="matrix(1,0,0,-1,0,2623.16)" d="M0 2623.16H2938.83V0H0Z" />
</clipPath>
<clipPath id="clip_2">
<path transform="matrix(1,0,0,-1,0,2623.16)" d="M0 2623.16H2938.83V0H0Z" />
</clipPath>
<clipPath id="clip_3">
<path transform="matrix(1,0,0,-1,0,2623.16)" d="M0 2623.16H2938.83V0H0Z" />
</clipPath>
</defs>
<g transform="translate(-611 -680)"><g clip-path="url(#clip_1)"><path transform="matrix(1,0,0,-1,0,2623.16)" d="M649.88 1910.44H615.88V1906.44H649.88Z" />
<path transform="matrix(1,0,0,-1,659.48,690.98)" d="M0 0C-.96 1.99-3.35 2.82-5.34 1.86L-14.15-2.39-29.6 6.26-33.65 4.17-23.29-6.6-28.76-9.43-32.43-8.15-35.12-9.5-29.01-17.74-1.86-5.34C.126-4.38 .96-1.99 0 .002Z" />
</g></g></svg>