<?xml version='1.0' encoding='utf-8'?>
<svg xmlns="http://www.w3.org/2000/svg" xmlns:ns1="http://www.inkscape.org/namespaces/inkscape" version="1.1" width="1920" height="1080" viewBox="0 0 1920 1080">
<defs>
<clipPath id="clip_1">
<path transform="matrix(1,0,0,-1,0,1080)" d="M0 995.58H1650.04V1080H0Z" />
</clipPath>
<clipPath id="clip_2">
<path transform="matrix(1,0,0,-1,0,1080)" d="M0 1080H1920V0H0Z" />
</clipPath>
<clipPath id="clip_3">
<path transform="matrix(1,0,0,-1,0,1080)" d="M0 1080H1920V0H0Z" />
</clipPath>
<clipPath id="clip_4">
<path transform="matrix(1,0,0,-1,0,1080)" d="M0 1080H1920V0H0Z" />
</clipPath>
<clipPath id="clip_5">
<path transform="matrix(1,0,0,-1,0,1080)" d="M0 1080H1920V0H0Z" />
</clipPath>
<clipPath id="clip_6">
<path transform="matrix(1,0,0,-1,0,1080)" d="M0 1080H1920V0H0Z" />
</clipPath>
<clipPath id="clip_7">
<path transform="matrix(1,0,0,-1,0,1080)" d="M0 1080H1920V0H0Z" />
</clipPath>
<clipPath id="clip_8">
<path transform="matrix(1,0,0,-1,0,1080)" d="M0 1080H1920V0H0Z" />
</clipPath>
</defs>
<g>
<g ns1:groupmode="layer" ns1:label="Layer 1">
</g>
<g ns1:groupmode="layer" ns1:label="Layer 2">
<g clip-path="url(#clip_1)">
<g ns1:groupmode="layer" ns1:label="Page18">
</g>
<g ns1:groupmode="layer" ns1:label="Page17">
</g>
<g ns1:groupmode="layer" ns1:label="Page 16">
</g>
<g ns1:groupmode="layer" ns1:label="Page 15">
</g>
<g ns1:groupmode="layer" ns1:label="Page 14">
</g>
<g ns1:groupmode="layer" ns1:label="Page 13">
</g>
<g ns1:groupmode="layer" ns1:label="Page 12">
</g>
</g>
</g>
<g ns1:groupmode="layer" ns1:label="Page 11">
<path transform="matrix(1,0,0,-1,0,1080)" d="M0 0H1920V1080H0Z" fill="#f2f2f2" />
<text xml:space="preserve" transform="matrix(1 0 -0 1 0 1080)" font-size="20" font-family="ProximaNova-Semibold" font-weight="bold"><tspan y="-56.8125" x="72.728 87.624 99.304 111.126 122.806 134.826 139.966 151.78202 166.26203 180.89003 186.11002 197.95203 209.26004 223.74005 237.99405 243.20806">©2026 SUN.STUDIO</tspan></text>
<text xml:space="preserve" transform="matrix(1 0 -0 1 0 1080)" font-size="20" font-family="ProximaNova-Regular"><tspan y="-56.8125" x="258.508 263.668 276.924 286.90605 297.10606 302.26606 314.46208 319.24208 333.68009 347.78208 359.00407 370.72407 375.88407 388.04408 399.42408 411.19007 422.57008 434.52207 447.77809 459.15809"> ALL RIGHTS RESERVED</tspan></text>
<text xml:space="preserve" transform="matrix(1 0 -0 1 0 1080)" font-size="20" font-family="ProximaNova-Semibold" font-weight="bold"><tspan y="-56.8125" x="1823.6079 1831.028">14</tspan></text>
<g clip-path="url(#clip_2)">
<path transform="matrix(1,0,0,-1,1650.75,121.37)" d="M0 0V-8.33C0-8.69 .31-8.98 .693-8.98H8.02C8.4-8.98 8.71-8.69 8.71-8.33V2.58C8.71 3.08 8.29 3.22 7.94 3.06 5.5 2 2.59 1.18 .644 .697 .26 .601 0 .32 0 0" />
<path transform="matrix(1,0,0,-1,1671.14,119.35)" d="M0 0C-.828-.775-2.05-1.72-3.5-1.72-4.89-1.72-5.96-.4-6.6 .4-6.81 .66-7.37 .498-7.37 .046V-10.34C-7.37-10.71-7.06-11-6.67-11H.655C1.04-11 1.35-10.71 1.35-10.34V.163C1.35 .669 .844 .812 .577 .576 .391 .412 .156 .146 0 0" />
<path transform="matrix(1,0,0,-1,1684.6,98.44)" d="M0 0C-1.73-3.26-4.65-6.98-7.4-9.16-7.66-9.37-7.81-9.73-7.81-10.03V-31.25C-7.81-31.65-7.5-31.91-7.12-31.91H.214C.597-31.91 .907-31.66 .907-31.25V-.178C.902 .301 .232 .437 0 0" />
<path transform="matrix(1,0,0,-1,1674.89,97.29)" d="M0 0C-1.83 .073-3.25 1.61-3.17 3.44-3.1 5.27-1.56 6.69 .265 6.62 2.09 6.54 3.51 5 3.44 3.18 3.37 1.35 1.83-.073 0 0M6.35 11.04C.214 10.99-6.8 7.28-11.02 2.96-14.49 2.96-20.89 1.97-23.19-.92-23.67-1.52-23.48-2.32-22.78-2.63-22.12-2.92-18.26-3.8-18.11-3.98-18.47-4.71-18.46-5.05-17.99-5.7-17.94-5.78-17.88-5.85-17.82-5.93-17.62-5.91-17.41-5.89-17.2-5.89H-17.11C-14.76-5.92-12.7-7.28-11.72-9.44-11.19-10.61-11.05-11.87-11.27-13.06-11.03-13.34-10.8-13.62-10.58-13.91-10.11-14.42-9.57-14.3-8.99-14.1-8.57-15.55-8.58-17.56-8.07-18.94-7.8-19.68-7.01-19.85-6.36-19.46-5.98-19.23-5.03-18.07-4.73-17.66-2.64-14.85-1.74-11.21-1.38-7.77 3.37-4.06 7.8 2.59 8.47 8.7 8.7 10.8 8.47 11.06 6.35 11.04" fill="#ff5533" />
<path transform="matrix(1,0,0,-1,1657.76,104.63)" d="M0 0C-3.46 .045-4.62-3.22-5.72-5.88-6.17-6.96-7.09-9.07-7.26-10.13-7.34-10.62-7.15-11.06-6.74-11.31-6.22-11.62-5.83-11.39-5.29-11.26-3.22-10.76 2.1-9.13 3.42-7.58 5.91-4.66 3.87-.05 0 0" fill="#ff5533" />
<path transform="matrix(1,0,0,-1,1710.21,94.59)" d="M0 0H-3.61V-4.4H0C1.34-4.4 2.34-3.54 2.34-2.2 2.34-.884 1.34 0 0 0M-7-13.02V2.92H.454C3.92 2.92 5.81 .573 5.81-2.22 5.81-5 3.9-7.31 .454-7.31H-3.61V-13.02Z" />
<path transform="matrix(1,0,0,-1,1720.04,100.76)" d="M0 0H5.69C5.62 1.1 4.85 2.56 2.84 2.56 .956 2.56 .143 1.15 0 0M2.84 4.97C6.29 4.97 8.63 2.39 8.63-1.39V-2.06H.047C.239-3.51 1.41-4.73 3.37-4.73 4.45-4.73 5.71-4.3 6.45-3.58L7.79-5.54C6.62-6.62 4.83-7.14 3.04-7.14-.478-7.14-3.13-4.78-3.13-1.07-3.13 2.27-.669 4.97 2.84 4.97" />
<path transform="matrix(1,0,0,-1,1730.86,107.61)" d="M0 0V11.54H3.04V9.96C3.85 10.99 5.28 11.8 6.71 11.8V8.84C6.5 8.89 6.21 8.91 5.88 8.91 4.88 8.91 3.54 8.36 3.04 7.62V0Z" />
<path transform="matrix(1,0,0,-1,1743.2,98.72)" d="M0 0V-8.89H-3.06V0H-4.97V2.65H-3.06V3.27C-3.06 5.78-1.43 7.29 .836 7.29 1.7 7.29 2.48 7.1 3.04 6.81L2.41 4.66C2.15 4.83 1.79 4.9 1.43 4.9 .573 4.9 0 4.33 0 3.23V2.65H2.34V0Z" />
<path transform="matrix(1,0,0,-1,1755.6,101.83)" d="M0 0C0 1.79-1.07 3.35-2.96 3.35-4.85 3.35-5.9 1.79-5.9 0-5.9-1.82-4.85-3.37-2.96-3.37-1.07-3.37 0-1.82 0 0M-9.06 0C-9.06 3.27-6.76 6.05-2.96 6.05 .86 6.05 3.15 3.27 3.15 0 3.15-3.3 .86-6.07-2.96-6.07-6.76-6.07-9.06-3.3-9.06 0" />
<path transform="matrix(1,0,0,-1,1761,107.61)" d="M0 0V11.54H3.04V9.96C3.85 10.99 5.28 11.8 6.71 11.8V8.84C6.5 8.89 6.21 8.91 5.88 8.91 4.88 8.91 3.54 8.36 3.04 7.62V0Z" />
<path transform="matrix(1,0,0,-1,1783.92,107.61)" d="M0 0V7.29C0 8.36-.478 9.13-1.72 9.13-2.8 9.13-3.68 8.41-4.11 7.79V0H-7.17V7.29C-7.17 8.36-7.65 9.13-8.89 9.13-9.94 9.13-10.82 8.41-11.28 7.77V0H-14.31V11.54H-11.28V10.04C-10.8 10.73-9.27 11.83-7.5 11.83-5.81 11.83-4.73 11.04-4.3 9.73-3.63 10.78-2.1 11.83-.335 11.83 1.79 11.83 3.06 10.71 3.06 8.34V0Z" />
<path transform="matrix(1,0,0,-1,1796.9,103.41)" d="M0 0C-.501 .669-1.46 1-2.44 1-3.63 1-4.61 .358-4.61-.741-4.61-1.82-3.63-2.44-2.44-2.44-1.46-2.44-.501-2.1 0-1.43ZM0-4.21V-3.01C-.788-3.94-2.15-4.49-3.66-4.49-5.5-4.49-7.67-3.25-7.67-.669-7.67 2.03-5.5 3.01-3.66 3.01-2.13 3.01-.764 2.53 0 1.6V3.2C0 4.37-1 5.14-2.53 5.14-3.78 5.14-4.92 4.68-5.9 3.78L-7.05 5.81C-5.64 7.05-3.82 7.62-2.01 7.62 .622 7.62 3.04 6.57 3.04 3.25V-4.21Z" />
<path transform="matrix(1,0,0,-1,1810.74,107.61)" d="M0 0V6.98C0 8.58-.836 9.13-2.13 9.13-3.32 9.13-4.25 8.46-4.76 7.77V0H-7.79V11.54H-4.76V10.04C-4.01 10.92-2.6 11.83-.717 11.83 1.82 11.83 3.04 10.39 3.04 8.15V0Z" />
<path transform="matrix(1,0,0,-1,1822.16,95.78)" d="M0 0C2.37 0 3.8-1.03 4.56-2.1L2.58-3.94C2.03-3.15 1.19-2.7 .143-2.7-1.7-2.7-2.99-4.04-2.99-6.05-2.99-8.05-1.7-9.41 .143-9.41 1.19-9.41 2.03-8.94 2.58-8.17L4.56-10.01C3.8-11.09 2.37-12.12 0-12.12-3.56-12.12-6.12-9.61-6.12-6.05-6.12-2.51-3.56 0 0 0" />
<path transform="matrix(1,0,0,-1,1831.1,100.76)" d="M0 0H5.69C5.62 1.1 4.85 2.56 2.84 2.56 .956 2.56 .144 1.15 0 0M2.84 4.97C6.29 4.97 8.63 2.39 8.63-1.39V-2.06H.047C.239-3.51 1.41-4.73 3.37-4.73 4.45-4.73 5.71-4.3 6.45-3.58L7.79-5.54C6.62-6.62 4.83-7.14 3.04-7.14-.478-7.14-3.13-4.78-3.13-1.07-3.13 2.27-.669 4.97 2.84 4.97" />
<path transform="matrix(1,0,0,-1,1710.17,117.2)" d="M0 0H-3.56V-4.4H0C1.36-4.4 2.39-3.54 2.39-2.2 2.39-.86 1.36 0 0 0M2.06-13.02-1.07-7.31H-3.56V-13.02H-6.95V2.92H.502C3.82 2.92 5.86 .741 5.86-2.22 5.86-5.04 4.09-6.55 2.37-6.95L5.95-13.02Z" />
<path transform="matrix(1,0,0,-1,1720.18,123.36)" d="M0 0H5.69C5.62 1.1 4.85 2.56 2.84 2.56 .956 2.56 .144 1.15 0 0M2.84 4.97C6.29 4.97 8.63 2.39 8.63-1.39V-2.06H.047C.239-3.51 1.41-4.73 3.37-4.73 4.45-4.73 5.71-4.3 6.45-3.58L7.79-5.54C6.62-6.62 4.83-7.14 3.04-7.14-.478-7.14-3.13-4.78-3.13-1.07-3.13 2.27-.669 4.97 2.84 4.97" />
<path transform="matrix(1,0,0,-1,1733.99,130.22)" d="M0 0-4.64 11.54H-1.39L1.62 3.51 4.64 11.54H7.91L3.27 0Z" />
<path transform="matrix(1,0,0,-1,0,1080)" d="M1743.27 961.32H1746.3V949.78H1743.27ZM1742.96 964.83C1742.96 965.84 1743.79 966.65 1744.77 966.65 1745.78 966.65 1746.59 965.84 1746.59 964.83 1746.59 963.83 1745.78 963.02 1744.77 963.02 1743.79 963.02 1742.96 963.83 1742.96 964.83" />
<path transform="matrix(1,0,0,-1,1751.7,123.36)" d="M0 0H5.69C5.62 1.1 4.85 2.56 2.84 2.56 .956 2.56 .144 1.15 0 0M2.84 4.97C6.29 4.97 8.63 2.39 8.63-1.39V-2.06H.047C.239-3.51 1.41-4.73 3.37-4.73 4.45-4.73 5.71-4.3 6.45-3.58L7.79-5.54C6.62-6.62 4.83-7.14 3.04-7.14-.478-7.14-3.13-4.78-3.13-1.07-3.13 2.27-.669 4.97 2.84 4.97" />
<path transform="matrix(1,0,0,-1,1772.66,130.22)" d="M0 0-2.44 7.86-4.88 0H-8.12L-11.64 11.54H-8.48L-6.33 3.78-3.8 11.54H-1.1L1.43 3.78 3.58 11.54H6.74L3.23 0Z" />
<path transform="matrix(1,0,0,-1,1786.65,130.22)" d="M0 0V2.68C6.52 7.48 8.44 9.13 8.44 11.09 8.44 12.47 7.17 13.17 5.83 13.17 4.04 13.17 2.65 12.45 1.58 11.33L-.358 13.57C1.2 15.37 3.56 16.18 5.78 16.18 9.18 16.18 11.88 14.27 11.88 11.09 11.88 8.36 9.63 6 5.35 2.99H12V0Z" />
<path transform="matrix(1,0,0,-1,1807.27,117.06)" d="M0 0C-2.29 0-3.15-2.27-3.15-5.21-3.15-8.15-2.29-10.44 0-10.44 2.27-10.44 3.13-8.15 3.13-5.21 3.13-2.27 2.27 0 0 0M0 3.01C4.54 3.01 6.6-1.1 6.6-5.21 6.6-9.32 4.54-13.45 0-13.45-4.56-13.45-6.6-9.32-6.6-5.21-6.6-1.1-4.56 3.01 0 3.01" />
<path transform="matrix(1,0,0,-1,1815.8,130.22)" d="M0 0V2.68C6.52 7.48 8.44 9.13 8.44 11.09 8.44 12.47 7.17 13.17 5.83 13.17 4.04 13.17 2.65 12.45 1.58 11.33L-.359 13.57C1.2 15.37 3.56 16.18 5.78 16.18 9.18 16.18 11.88 14.27 11.88 11.09 11.88 8.36 9.63 6 5.35 2.99H12V0Z" />
<path transform="matrix(1,0,0,-1,1832.06,125.83)" d="M0 0C1.1-1.12 2.58-1.72 4.25-1.72 6.14-1.72 7.22-.645 7.22 .669 7.22 2.13 6.17 3.11 4.35 3.11 3.04 3.11 1.96 2.7 1 1.79L-1.36 2.44V11.54H9.58V8.63H1.96V4.64C2.8 5.38 4.09 5.95 5.54 5.95 8.24 5.95 10.66 4.04 10.66 .812 10.66-2.56 8.12-4.68 4.28-4.68 1.5-4.68-.502-3.78-1.86-2.29Z" />
<path transform="matrix(1,0,0,-1,98.34,96.89)" d="M0 0C.288 7.21 6.36 12.82 13.56 12.53 15.48 12.46 17.28 11.97 18.89 11.17 23.33 8.94 26.3 4.26 26.08-1.03 25.8-8.24 19.72-13.85 12.52-13.57 7.91-13.38 3.95-10.82 1.77-7.12 .554-5.03-.104-2.59 0 0M28.7-13.49C30.3-11.56 31.52-9.33 32.3-6.95 32.89-5.17 33.22-3.3 33.3-1.42 33.67 7.85 27.76 15.91 19.37 18.66 17.62 19.23 15.78 19.57 13.85 19.65 13.43 19.67-2.25 19.66-9.08 19.65-9.99 19.65-10.42 18.6-9.9 17.95-9.85 17.89-4.87 14.13-4.81 14.06-4.31 13.41-4.75 12.39-5.65 12.38L-22.29 12.38C-22.79 12.38-23.15 12.06-23.28 11.67-23.41 11.28-23.32 10.81-22.93 10.51L-9.7 .398C-8.9-.211-9.34-1.49-10.35-1.47-11.11-1.47-16.36-1.45-16.46-1.48-17.2-1.66-17.51-2.67-16.95-3.27-7.3-13.79 .69-18.76 8.14-20.3 12.11-21.29 16.37-21.05 20.2-19.6 23.36-18.44 26.02-16.53 28.09-14.2 28.3-13.97 28.5-13.73 28.7-13.49" fill="#ff5533" />
<path transform="matrix(1,0,0,-1,111.73,95.37)" d="M0 0C.049 1.34 1.18 2.39 2.52 2.34 3.86 2.3 4.91 1.17 4.86-.176 4.81-1.52 3.69-2.57 2.34-2.52 .999-2.47-.049-1.34 0 0M7.25-2.06C7.42 2.09 4.2 5.58 .053 5.74-4.09 5.91-7.58 2.68-7.75-1.46-7.91-5.61-4.69-9.1-.547-9.26 3.6-9.43 7.09-6.2 7.25-2.06" fill="#ff5533" />
<path transform="matrix(1,0,0,-1,144.34,84)" d="M0 0C-1.95 .369-3.03 .685-3.03 1.61-3.03 2.37-2.45 2.98-.948 2.98 .605 2.98 2.53 2.37 4 1.16L6.48 4.4C4.61 6 2.16 6.84-.658 6.84-5.16 6.84-7.66 4.29-7.66 1.34-7.66-2.82-3.61-3.55-.711-4.13 1.16-4.53 2.29-4.92 2.29-5.92 2.29-6.77 1.34-7.42-.21-7.42-2.61-7.42-4.55-6.37-5.82-5.11L-8.21-8.5C-6.45-10.19-3.98-11.29-.421-11.29 4.29-11.29 6.9-8.95 6.9-5.42 6.9-1.45 2.9-.605 0 0" fill="#ff5533" />
<path transform="matrix(1,0,0,-1,160.91,95.36)" d="M0 0C5.66 0 8.17 4.02 8.17 8.39V17.88H3.49V7.9C3.49 5.82 2.4 4 0 4-2.43 4-3.52 5.82-3.52 7.9V17.88H-8.2V8.36C-8.2 4.04-5.66 0 0 0" fill="#ff5533" />
<path transform="matrix(1,0,0,-1,180.62,117.41)" d="M0 0C5.66 0 8.17 4.02 8.17 8.39V17.88H3.49V7.9C3.49 5.82 2.4 4 0 4-2.43 4-3.52 5.82-3.52 7.9V17.88H-8.2V8.36C-8.2 4.04-5.66 0 0 0" fill="#ff5533" />
<path transform="matrix(1,0,0,-1,177.1,84.49)" d="M0 0 7.67-10.7H11.69V7.01H7.02V-3.19L-.284 7.01H-4.68V-10.7H0Z" fill="#ff5533" />
<path transform="matrix(1,0,0,-1,144.34,106.21)" d="M0 0C-1.95 .368-3.03 .685-3.03 1.61-3.03 2.37-2.45 2.98-.948 2.98 .605 2.98 2.53 2.37 4 1.16L6.48 4.4C4.61 6 2.16 6.84-.658 6.84-5.16 6.84-7.66 4.29-7.66 1.34-7.66-2.82-3.61-3.55-.711-4.13 1.16-4.53 2.29-4.92 2.29-5.92 2.29-6.77 1.34-7.42-.21-7.42-2.61-7.42-4.55-6.37-5.82-5.11L-8.21-8.5C-6.45-10.19-3.98-11.29-.421-11.29 4.29-11.29 6.9-8.95 6.9-5.42 6.9-1.45 2.9-.605 0 0" fill="#ff5533" />
<path transform="matrix(1,0,0,-1,152.71,103.54)" d="M0 0H6.01V-13.7H10.69V0H16.37V4.01H0Z" fill="#ff5533" />
<path transform="matrix(1,0,0,-1,199.33,113.23)" d="M0 0H-2.85V9.69H.026C3.25 9.69 4.88 7.58 4.88 4.86 4.88 2.24 3.09 0 0 0M-.095 13.7H-7.53V-4.01H-.069C5.48-4.01 9.49-.637 9.49 4.86 9.49 10.35 5.48 13.7-.095 13.7" fill="#ff5533" />
<path transform="matrix(1,0,0,-1,0,1080)" d="M211.51 962.76H216.19V980.46H211.51Z" fill="#ff5533" />
<path transform="matrix(1,0,0,-1,194.27,95.27)" d="M0 0C1.4 0 2.53 1.13 2.53 2.53 2.53 3.93 1.4 5.06 0 5.06-1.4 5.06-2.53 3.93-2.53 2.53-2.53 1.13-1.4 0 0 0" fill="#ff5533" />
<path transform="matrix(1,0,0,-1,227.84,113.26)" d="M0 0C-2.68 0-4.86 2.17-4.86 4.86-4.86 7.54-2.68 9.71 0 9.71 2.68 9.71 4.85 7.54 4.85 4.86 4.85 2.17 2.68 0 0 0M0 13.96C-5.03 13.96-9.11 9.88-9.11 4.86-9.11-.174-5.03-4.25 0-4.25 5.03-4.25 9.11-.174 9.11 4.86 9.11 9.88 5.03 13.96 0 13.96" fill="#ff5533" />
<path transform="matrix(1,0,0,-1,1635.69,654.16)" d="M0 0H-611.52C-626.98 0-639.52 12.54-639.52 28V197.51C-639.52 212.98-626.98 225.51-611.52 225.51H0C15.46 225.51 28 212.98 28 197.51V28C28 12.54 15.46 0 0 0" fill="#ffffff" />
</g>
<text fill="#ff5533" xml:space="preserve" transform="matrix(1 0 -0 .99619176 0 1080)" font-size="92.54363" font-family="ProximaNova-Black" font-weight="bold"><tspan y="-511.72517" x="1026.6925 1084.6248">5.</tspan></text>
<text fill="#2c2c2c" xml:space="preserve" transform="matrix(1 0 -0 1 0 1080)" font-size="28.8656" font-family="ProximaNova-Bold" font-weight="bold"><tspan y="-609.5684" x="1148.5147 1167.9672 1184.3744 1200.9057 1216.268 1232.9811 1240.3707 1257.0695 1264.3724 1271.7621 1281.5187 1291.5957 1306.9667 1323.5355 1330.9252 1347.3901 1363.7107 1371.0137 1378.4033 1390.2007 1397.3969">Chuẩn bị trao đổi 1:1</tspan><tspan y="-579.1441" x="1148.5147 1162.7512 1179.2046 1186.5076 1193.8972 1216.0342 1232.5654 1247.9537 1264.6669 1272.0565 1279.3018">với Quản lý</tspan></text>
<text fill="#2c2c2c" xml:space="preserve" transform="matrix(1 0 -0 1 0 1080)" font-size="19" font-family="ProximaNova-Regular"><tspan y="-542.2432" x="1148.3408 1166.3339 1179.0905 1189.5025 1199.9714 1204.8734 1215.6312 1226.4802 1236.8998 1247.8058 1252.7078 1258.3546 1268.7914 1279.5645 1289.9822 1300.8882 1305.7902 1316.1775 1326.6047 1336.5873 1342.1734 1347.0753 1351.3104 1355.4961 1364.7947 1375.2827 1380.1847 1385.8316 1392.0769 1402.0062 1412.8743 1417.7763 1428.534 1439.3318 1443.6068 1448.5088 1454.8473 1459.1641 1465.6051 1470.5071 1479.5835 1490.48 1494.755 1499.657 1514.3003 1524.7409 1534.7064 1545.1754 1550.0774 1554.4398">-Chủ động thống nhất lịch trao đổi 1:1 với Quản lý</tspan><tspan y="-521.2482" x="1148.3408 1166.3339 1179.9017 1189.8654 1205.2174 1210.1194 1220.9855 1230.9473 1241.8153 1246.7173 1252.3641 1262.8009 1273.6974 1277.9724 1282.8744 1287.081 1297.4817 1308.3821 1318.7998 1329.7058 1334.6078 1345.5025 1355.8803 1366.3493 1371.2512 1381.6898 1392.5883 1403.4943 1408.3963 1419.154 1429.8511 1434.753 1440.3999 1446.6433 1456.5726 1467.4407 1472.3427 1483.1005 1493.8982 1498.1732 1503.0752 1513.9299 1523.7186 1533.0287 1537.9307 1548.7778 1559.2468 1564.1488 1573.208 1583.506">-Đảm bảo thời lượng phù hợp để trao đổi đầy đủ về:</tspan><tspan y="-500.25325" x="1167.2838 1185.2769 1196.027 1206.6557 1212.2417 1217.1437 1227.968 1238.4086 1248.4216 1253.3236 1263.7014 1273.6649 1289.017 1293.919 1304.6615 1315.7081 1326.4052">•Kết quả năm 2025</tspan><tspan y="-479.25825" x="1167.2838 1185.2769 1198.8561 1208.7837 1219.1691 1229.6571 1234.5591 1243.9774 1248.2525 1253.1544 1265.3334 1270.2354 1279.6517 1289.5223 1298.8209 1309.309 1314.2109 1318.3948 1328.3223 1343.6743 1348.5763 1357.9946 1362.1803 1372.8773">•Hành vi &amp; cách làm việc</tspan><tspan y="-458.26325" x="1167.2838 1185.2769 1198.8562 1203.0742 1213.4596 1223.9457 1228.8477 1239.2597 1249.6583 1260.5587 1270.9707 1281.8767 1286.7787 1297.6734 1308.0682 1318.0243 1323.6104 1328.5123 1334.1592 1340.3722 1344.556 1355.2131 1365.6821 1370.5841 1380.9638 1390.9198 1406.2719 1411.1738 1421.9183 1432.9631 1443.7057">•Định hướng phát triển năm 2026</tspan></text>
<g clip-path="url(#clip_3)">
<path transform="matrix(1,0,0,-1,1662.92,473.06)" d="M0 0C.072-.072 .132-.148 .193-.225 .298-.108 .369 .042 .369 .225V18.58C.369 32.63-11.03 44.03-25.08 44.03H-43.65C-43.77 44.03-43.88 43.99-43.98 43.94-43.85 43.85-43.73 43.76-43.62 43.64Z" fill="#e6e6e6" />
<path transform="matrix(1,0,0,-1,1663.12,473.28)" d="M0 0C-.062 .076-.121 .152-.193 .225L-43.81 43.87C-43.93 43.98-44.05 44.08-44.17 44.16-45.82 45.33-48.24 44.19-48.24 42.03V6.74C-48.24 .704-43.24-4.2-37.09-4.2H-2.03C.181-4.2 1.33-1.65 0 0" fill="#ff5533" />
<path transform="matrix(1,0,0,-1,1616.69,617.73)" stroke-width="3" stroke-linecap="round" stroke-linejoin="round" fill="none" stroke="#2c2c2c" d="M0 0V-19.48H19.48" />
<path transform="matrix(1,0,0,-1,1636.17,617.73)" stroke-width="3" stroke-linecap="round" stroke-linejoin="round" fill="none" stroke="#2c2c2c" d="M0 0-19.48-19.48" />
<path transform="matrix(1,0,0,-1,1634.12,942.26)" d="M0 0H-611.52C-626.98 0-639.52 12.54-639.52 28V251.63C-639.52 267.1-626.98 279.63-611.52 279.63H0C15.46 279.63 28 267.1 28 251.63V28C28 12.54 15.46 0 0 0" fill="#ffffff" />
</g>
<text fill="#ff5533" xml:space="preserve" transform="matrix(1 0 -0 .99619176 0 1080)" font-size="92.54363" font-family="ProximaNova-Black" font-weight="bold"><tspan y="-247.65604" x="1025.1339 1082.9738">6.</tspan></text>
<text fill="#2c2c2c" xml:space="preserve" transform="matrix(1 0 -0 1 0 1080)" font-size="28.8656" font-family="ProximaNova-Bold" font-weight="bold"><tspan y="-358.9502" x="1148.3408 1162.7564 1172.8362 1188.2072 1204.776 1212.1657 1228.6306 1244.9484 1252.2514 1259.641 1276.08 1283.0741 1298.7971 1315.5103 1322.8999 1336.3801 1352.9114 1368.294 1378.0505 1385.4402 1404.0874">Trao đổi hiệu suất &amp; </tspan><tspan y="-328.52586" x="1148.3408 1165.3543 1172.3975 1188.8162 1205.5582 1212.9479 1229.3754 1245.6122 1262.0973 1278.6084 1295.4948 1302.8844 1319.6582 1336.1492 1351.5115 1361.2681 1368.6577 1378.4143 1388.422 1395.4161 1411.1882">định hướng phát triển</tspan></text>
<text fill="#2c2c2c" xml:space="preserve" transform="matrix(1 0 -0 1 0 1080)" font-size="19" font-family="ProximaNova-Regular"><tspan y="-289.0098" x="1148.3418 1166.3348 1177.0299 1187.4609 1198.234 1208.646 1219.552 1224.454 1234.8394 1245.2704 1255.253 1260.8391 1265.7411 1276.1265 1286.5575 1296.5136 1306.9826 1311.8845 1323.0641 1327.2821 1337.6675 1348.1555 1353.0575 1362.1167 1372.8137 1377.7157 1394.5554 1408.1841 1419.1907">-Thống nhất nhận định về WHAT</tspan><tspan y="-268.0148" x="1148.3418 1166.3348 1179.0914 1189.4901 1193.6321 1203.645 1208.547 1217.2946 1227.9916 1232.8936 1242.139 1252.1521 1257.0541 1262.7009 1273.13 1283.0936 1293.9617 1298.8637 1303.0361 1313.4767 1323.4423 1333.9113 1338.8132 1347.8706 1358.5676 1363.4696 1377.045 1391.2761">-Chia sẻ và thảo luận về HOW</tspan><tspan y="-247.0198" x="1148.3418 1166.3348 1179.823 1190.2179 1200.1455 1210.6145 1215.5165 1224.933 1229.0845 1239.7074 1250.1764 1255.0784 1264.3219 1274.335 1279.2369 1293.8803 1304.3226 1314.2882 1324.7572 1329.6592 1334.0216 1343.3317 1348.2337 1357.4885 1367.8834 1378.3012 1389.2072 1394.1091 1399.756 1410.1946 1420.9677 1431.3854 1442.2914 1447.1934 1457.5787 1468.0078 1477.9904 1483.8045">-Nhân viên và Quản lý cùng thống nhất:</tspan><tspan y="-226.02481" x="1169.9828 1187.9758 1201.6996 1205.8853 1216.5424 1231.8944 1236.7964 1252.1085 1262.0703 1272.4557 1282.9437 1287.8457 1297.2964 1307.2599 1317.7289 1322.6309 1333.5255 1343.9204 1353.8688 1359.4548 1364.3568 1374.7346 1385.31">•Điểm mạnh cần phát huy</tspan><tspan y="-205.02982" x="1169.9828 1187.9758 1201.555 1211.4827 1221.868 1232.3561 1237.258 1246.6764 1250.9514 1255.8534 1265.3041 1275.2677 1285.7367 1290.6387 1300.0894 1310.0244 1314.2994 1319.2014 1324.8483 1335.247 1339.4346 1350.0917">•Hành vi cần cải thiện</tspan><tspan y="-184.03482" x="1169.9828 1187.9758 1197.2402 1203.3164 1214.1674 1224.5851 1235.4911 1240.3931 1246.0115 1255.9408 1271.2929 1276.1948 1287.0895 1297.4844 1307.4328 1313.0188 1317.9208 1323.5676 1329.7807 1333.9663 1344.6234 1355.0924 1359.9944 1369.293 1379.6974 1390.5654 1395.4674 1405.8452 1415.8087 1431.1608 1436.0628 1441.7096 1445.8934 1456.5011 1467.4071 1472.3091 1477.9559 1488.3604 1499.0213">•Trọng tâm phát triển cho năm tiếp theo</tspan></text>
<g clip-path="url(#clip_4)">
<path transform="matrix(1,0,0,-1,1661.36,707.03)" d="M0 0C.072-.072 .132-.148 .193-.225 .297-.108 .369 .042 .369 .225V18.58C.369 32.63-11.03 44.03-25.08 44.03H-43.65C-43.77 44.03-43.88 43.99-43.98 43.94-43.85 43.85-43.73 43.76-43.62 43.64Z" fill="#e6e6e6" />
<path transform="matrix(1,0,0,-1,1661.55,707.26)" d="M0 0C-.061 .076-.121 .153-.193 .225L-43.81 43.87C-43.93 43.98-44.05 44.08-44.17 44.16-45.82 45.33-48.24 44.19-48.24 42.03V6.74C-48.24 .704-43.24-4.2-37.09-4.2H-2.03C.182-4.2 1.33-1.65 0 0" fill="#ff5533" />
<path transform="matrix(1,0,0,-1,1634.12,423.07)" d="M0 0H-611.52C-626.98 0-639.52 12.54-639.52 28V147.9C-639.52 163.36-626.98 175.9-611.52 175.9H0C15.46 175.9 28 163.36 28 147.9V28C28 12.54 15.46 0 0 0" fill="#ffffff" />
</g>
<text fill="#ff5533" xml:space="preserve" transform="matrix(1 0 -0 .99619176 0 1080)" font-size="92.54363" font-family="ProximaNova-Black" font-weight="bold"><tspan y="-716.5472" x="1025.1329 1083.9907">4.</tspan></text>
<text fill="#2c2c2c" xml:space="preserve" transform="matrix(1 0 -0 1 0 1080)" font-size="28.8656" font-family="ProximaNova-Bold" font-weight="bold"><tspan y="-771.2988" x="1152.0791 1172.0109 1187.4021 1204.2885 1211.6781 1228.0968 1244.6079 1259.9905 1269.7471 1277.1367 1293.8615 1309.2295 1325.6482 1342.3903 1349.7799 1366.3978 1373.3717 1389.0458 1396.4354 1406.192 1416.2719 1432.0266 1448.7398 1456.1294 1472.6377 1488.6004 1495.99 1505.7466 1522.2577 1538.5177 1555.0288">Cập nhật đánh giá trên hệ thống</tspan></text>
<text fill="#2c2c2c" xml:space="preserve" transform="matrix(1 0 -0 1 0 1080)" font-size="19" font-family="ProximaNova-Regular"><tspan y="-732.583" x="1152.0791 1170.0722 1183.1213 1193.0774 1203.9834 1208.8854 1219.2708 1229.7018 1239.6845 1245.2686 1250.1705 1261.449 1271.405 1277.0519 1281.2415 1291.6535">-Cập nhật Rating</tspan><tspan y="-711.588" x="1152.0791 1170.0722 1183.64 1193.6036 1208.9557 1213.8577 1224.7238 1234.6856 1245.5536 1250.4556 1256.1024 1266.505 1277.3218 1287.7395 1298.6455 1303.5475 1309.1943 1313.382 1323.851 1328.7529 1339.1707 1350.052 1359.9928 1370.4618 1375.3638 1386.2527 1397.1055 1407.5421 1411.9121 1416.8141 1425.9246 1436.7926 1441.6946 1452.593 1462.5565 1473.0255 1477.9275 1487.2261 1497.6362 1508.4149 1518.8307 1529.7367 1534.6387 1543.9279 1554.3969 1559.2988 1564.9457 1575.3825">-Đảm bảo thông tin ngắn gọn, có dẫn chứng cụ thể</tspan></text>
<g clip-path="url(#clip_5)">
<path transform="matrix(1,0,0,-1,1661.36,291.58)" d="M0 0C.072-.072 .132-.148 .193-.225 .297-.108 .369 .042 .369 .225V18.58C.369 32.63-11.03 44.03-25.08 44.03H-43.65C-43.77 44.03-43.88 43.99-43.98 43.94-43.85 43.85-43.73 43.76-43.62 43.64Z" fill="#e6e6e6" />
<path transform="matrix(1,0,0,-1,1661.55,291.81)" d="M0 0C-.061 .076-.121 .153-.193 .225L-43.81 43.87C-43.93 43.98-44.05 44.08-44.17 44.16-45.82 45.33-48.24 44.19-48.24 42.03V6.74C-48.24 .704-43.24-4.2-37.09-4.2H-2.03C.182-4.2 1.33-1.65 0 0" fill="#ff5533" />
<path transform="matrix(1,0,0,-1,1615.12,384.57)" stroke-width="3" stroke-linecap="round" stroke-linejoin="round" fill="none" stroke="#2c2c2c" d="M0 0V-19.48H19.48" />
<path transform="matrix(1,0,0,-1,1634.61,384.57)" stroke-width="3" stroke-linecap="round" stroke-linejoin="round" fill="none" stroke="#2c2c2c" d="M0 0-19.48-19.48" />
<path transform="matrix(1,0,0,-1,899.89,654.16)" d="M0 0H-596.51C-611.98 0-624.51 12.54-624.51 28V197.51C-624.51 212.98-611.98 225.51-596.51 225.51H0C15.46 225.51 28 212.98 28 197.51V28C28 12.54 15.46 0 0 0" fill="#ffffff" />
</g>
<text fill="#ff5533" xml:space="preserve" transform="matrix(1 0 -0 .99619176 0 1080)" font-size="92.54363" font-family="ProximaNova-Black" font-weight="bold"><tspan y="-509.7303" x="310.39646 367.1257">2.</tspan></text>
<text fill="#2c2c2c" xml:space="preserve" transform="matrix(1 0 -0 1 0 1080)" font-size="28.8656" font-family="ProximaNova-Bold" font-weight="bold"><tspan y="-603.3779" x="403.1504 424.0895 440.5804 455.95133 472.66453 480.0541 494.82176 501.79283 517.54769 534.26089 541.65048 551.306 568.0192 575.4088 592.13357 607.5016 623.92037 640.6624 648.052 664.6699 671.64389 687.3179 694.70748 703.3671 710.7567 737.1485 758.23196 775.67257">Nhân viên tự đánh giá - WHAT</tspan></text>
<text fill="#2c2c2c" xml:space="preserve" transform="matrix(1 0 -0 1 0 1080)" font-size="19" font-family="ProximaNova-Regular"><tspan y="-562.0605" x="403.1504 421.1434 430.9683 441.8192 452.2369 463.1429 468.04493 478.48353 489.38383 500.28984 505.19184 513.93948 524.80746 529.7094 533.90847 538.0942 548.7171 559.1557 563.5257 568.4277 579.29568 589.2574 599.677 610.583 615.485 624.7836 635.1937 645.9705 656.38827 667.29428 672.1962 676.39529 680.5468 691.16976 701.63876 706.5407 717.3631 727.7713 737.6988 748.1678 753.06979 763.8276 774.4391 784.9081 789.81008 799.07449 809.70309 815.28909">-Tổng hợp số liệu, bằng chứng liên quan đến kết </tspan><tspan y="-541.0655" x="421.1434 431.96583 442.4082 452.4212 457.3232 466.73963 476.61015 486.01515 490.91716 506.21214 516.66409 526.0691 530.97109 536.61788 540.7694 551.36007 561.82907 566.731 577.57247 587.58547 592.4874 603.36306 613.34567 618.93167 623.8336 630.077 640.09 644.992 654.2355 664.2485 669.15048 684.44546 694.94296 704.34799 709.24996 714.8682 724.7387 734.14376 739.0457 749.8035 760.6544 771.0702 781.9762 786.8782 792.5307 802.4943 813.3623 818.2643 824.5096 834.5226">quả các mục tiêu đã đặt ra và mức tác động tạo ra </tspan><tspan y="-520.0705" x="421.1434 430.442 440.84449 451.7125 456.6145 461.9155 472.5004 482.4279 497.9452 503.56919 508.4712 519.3449 529.8139 534.7159 544.6244 555.2359 560.1037 569.21237 580.02908 590.4468 601.3528 606.25479 612.35379">cho team/ dự án/công ty</tspan><tspan y="-499.0755" x="403.1504 421.1434 434.6315 445.053 449.2349 459.7039 464.6059 468.822 478.75709 483.03208 487.93409 503.22908 513.7247 523.1297 528.0317 538.7895 549.6575 554.55947 564.9619 575.7292 585.65859 596.12759 601.02957 606.67636 617.06936 626.9987 637.3841 647.8721 652.77407 661.8827 672.6994 683.1171 694.02316 698.9251 708.3434 712.5272 723.22427 732.6293 737.53128 746.7767 756.7897 761.69168 771.1081 780.9786 790.3836 795.2856 806.43099 810.6167 821.2719 836.6239">-Nhìn lại mức độ hoàn thành công việc và các điểm </tspan><tspan y="-478.0805" x="421.1434 430.594 440.5576 451.02659 455.9286 465.37919 475.31428 479.58927 484.49128 490.13807 500.53108 504.71107 515.36819">cần cải thiện</tspan><tspan y="-457.0855" x="403.1504 421.1434 433.3091 443.1777 452.5827 457.4847 468.66435 472.88804 483.2715 493.75953 498.66154 508.07984 517.9484 527.35348 532.25546 542.9904 553.4594 558.3614 564.0082 568.1597 578.78268 589.25167 594.1536 605.0482 615.4431 625.3896 630.9756 635.87759 641.52249 647.73739 651.9231 662.5783 673.0473 677.9493 687.2498 697.6523 708.52029 713.42227 723.80007 733.7618 749.1138 754.01577 759.66256 763.84829 774.4541 785.3601 790.2621 795.9089 806.31326 816.9722">-Xác định các ưu tiên phát triển cho năm tiếp theo</tspan></text>
<g clip-path="url(#clip_6)">
<path transform="matrix(1,0,0,-1,927.53,473.06)" d="M0 0C.072-.072 .132-.149 .193-.225 .297-.108 .368 .042 .368 .225V18.58C.368 32.63-11.03 44.03-25.08 44.03H-43.65C-43.77 44.03-43.88 43.99-43.98 43.94-43.85 43.85-43.73 43.76-43.62 43.64Z" fill="#e6e6e6" />
<path transform="matrix(1,0,0,-1,927.72,473.28)" d="M0 0C-.061 .076-.121 .152-.193 .225L-43.81 43.87C-43.93 43.98-44.05 44.08-44.17 44.16-45.82 45.33-48.24 44.19-48.24 42.03V6.74C-48.24 .704-43.24-4.2-37.09-4.2H-2.03C.182-4.2 1.33-1.65 0 0" fill="#ff5533" />
<path transform="matrix(1,0,0,-1,881.28,617.73)" stroke-width="3" stroke-linecap="round" stroke-linejoin="round" fill="none" stroke="#2c2c2c" d="M0 0V-19.48H19.48" />
<path transform="matrix(1,0,0,-1,900.76,617.73)" stroke-width="3" stroke-linecap="round" stroke-linejoin="round" fill="none" stroke="#2c2c2c" d="M0 0-19.48-19.48" />
<path transform="matrix(1,0,0,-1,898.33,420.87)" d="M0 0H-596.51C-611.98 0-624.51 12.54-624.51 28V145.69C-624.51 161.16-611.98 173.69-596.51 173.69H0C15.46 173.69 28 161.16 28 145.69V28C28 12.54 15.46 0 0 0" fill="#ffffff" />
</g>
<text fill="#ff5533" xml:space="preserve" transform="matrix(1 0 -0 .99619176 0 1080)" font-size="92.54363" font-family="ProximaNova-Black" font-weight="bold"><tspan y="-720.12728" x="308.83799 353.53657">1.</tspan></text>
<text fill="#2c2c2c" xml:space="preserve" transform="matrix(1 0 -0 1 0 1080)" font-size="28.8656" font-family="ProximaNova-Bold" font-weight="bold"><tspan y="-717.3848" x="401.5879 417.90565 434.39656 450.25529 466.82704 474.21665 490.9327 507.23313 514.53329 521.92288 528.96609 535.95156 549.9947 566.7367 574.1263 590.8395 606.196 622.61477 639.35678 646.74636 663.36428 670.34976">Theo dõi lịch đánh giá</tspan></text>
<g clip-path="url(#clip_7)">
<path transform="matrix(1,0,0,-1,925.96,291.58)" d="M0 0C.072-.072 .132-.148 .193-.225 .297-.108 .369 .042 .369 .225V18.58C.369 32.63-11.03 44.03-25.08 44.03H-43.65C-43.77 44.03-43.88 43.99-43.98 43.94-43.85 43.85-43.73 43.76-43.62 43.64Z" fill="#e6e6e6" />
<path transform="matrix(1,0,0,-1,926.15,291.81)" d="M0 0C-.061 .076-.121 .153-.193 .225L-43.81 43.87C-43.93 43.98-44.05 44.08-44.17 44.16-45.82 45.33-48.24 44.19-48.24 42.03V6.74C-48.24 .704-43.24-4.2-37.09-4.2H-2.03C.182-4.2 1.33-1.65 0 0" fill="#ff5533" />
<path transform="matrix(1,0,0,-1,879.72,384.54)" stroke-width="3" stroke-linecap="round" stroke-linejoin="round" fill="none" stroke="#2c2c2c" d="M0 0V-19.48H19.48" />
<path transform="matrix(1,0,0,-1,899.2,384.54)" stroke-width="3" stroke-linecap="round" stroke-linejoin="round" fill="none" stroke="#2c2c2c" d="M0 0-19.48-19.48" />
<path transform="matrix(1,0,0,-1,898.13,942.26)" d="M0 0H-596.51C-611.98 0-624.51 12.54-624.51 28V251.63C-624.51 267.1-611.98 279.63-596.51 279.63H0C15.46 279.63 28 267.1 28 251.63V28C28 12.54 15.46 0 0 0" fill="#ffffff" />
</g>
<text fill="#ff5533" xml:space="preserve" transform="matrix(1 0 -0 .99619176 0 1080)" font-size="92.54363" font-family="ProximaNova-Black" font-weight="bold"><tspan y="-250.26357" x="308.63856 365.73799">3.</tspan></text>
<text fill="#2c2c2c" xml:space="preserve" transform="matrix(1 0 -0 1 0 1080)" font-size="28.8656" font-family="ProximaNova-Bold" font-weight="bold"><tspan y="-354.1436" x="401.3887 422.32783 438.81877 454.18968 470.90287 478.29246 493.0601 500.03117 515.786 532.4992 539.8888 549.5444 566.25759 573.64718 590.3719 605.7399 622.1587 638.90078 646.29037 662.90829 669.8822 685.5562 692.9458 701.60549 708.99508 730.11318 751.67868">Nhân viên tự đánh giá - HOW</tspan></text>
<text fill="#2c2c2c" xml:space="preserve" transform="matrix(1 0 -0 1 0 1080)" font-size="19" font-family="ProximaNova-Regular"><tspan y="-314.5654" x="401.3887 419.3817 429.2465 439.71549 444.6175 455.4589 465.3674 475.7528 486.2408 491.14283 501.98045 506.12245 516.13546 521.0374 536.3324 546.8299 556.2349 561.1369 571.8947 582.7627 587.6647 593.3096 603.74819 614.4452 619.34719 629.74777 633.93539 644.59249 655.06149 659.96347 669.36849 679.23898 688.644 693.54598 703.92568 713.8893 724.307 735.213 740.115 744.3197 754.8172 764.2222 769.1242 778.4152 788.8576 798.8706 803.7726 813.1035 823.54598 832.56906 843.2148 847.4898">-Tự đánh giá mức độ thể hiện các năng lực của Level </tspan><tspan y="-293.5704" x="419.3817 430.4511 439.7174 450.62913 461.29005 471.17005 476.78834 486.74433 492.38923 496.5426 507.3536">Expectation</tspan><tspan y="-272.5754" x="401.3887 419.3817 432.8698 443.29133 447.4732 457.9422 462.8442 467.0603 476.9954 481.2704 486.1724 495.5888 505.45933 514.8643 519.7663 530.1612 540.0887 550.47598 560.9639 565.8659 576.6237 587.4746 597.89236 608.8344 613.2044 618.1064 628.93069 639.50796 648.56527 659.19387 664.77987 669.6818 680.86148 685.0852 695.4687 705.95669 710.85867 720.10409 730.11709 735.01907 744.4355 754.30599 763.6046 774.0926 778.99459 789.88919 800.32778 811.08938 815.3644 820.26638 830.70309 841.60336 852.50936">-Nhìn lại các hành động, quyết định và cách phối hợp </tspan><tspan y="-251.58042" x="419.3817 425.0285 431.07054 441.88154 452.29353 463.19953 468.10154 477.2101 488.02113 498.4331 509.3391 514.2411 523.65939 527.8451 538.5402">trong công việc</tspan><tspan y="-230.58542" x="420.33174 438.32475 448.11543 458.87895 463.15394 468.05595 478.89735 488.91035 493.81236 499.45915 509.89775 520.5947 525.4967 535.8954 540.083 550.7401 561.2091 566.1111 576.9525 581.09268 591.10568 596.0076 601.6544 607.90359 612.1786 617.08059 627.42416 637.18069 646.49069 651.39266 661.7761 672.1881 682.6571 687.5591 693.2059 703.6445 714.3415 719.24349 729.58706 739.5164 750.3844 755.2864 760.9313 766.97329 777.79 788.2077 799.1137 804.0157 809.6606 820.0726 830.57009 839.9751 844.8771 850.2123 860.2614">•Tôi đã thể hiện giá trị này như thế nào trong thực tế?</tspan><tspan y="-209.59043" x="420.33174 438.32475 452.04844 456.1866 466.8095 477.2785 482.1805 493.0219 497.2969 502.1989 513.0384 517.1823 527.5772 538.4832 543.3852 548.6976 559.46298 563.738 568.63998 577.7486 588.6166 593.51858 599.16348 609.60208 620.2991 625.20108 629.3849 639.3143 654.66629 659.56826 664.91488 675.684 681.27 686.172 696.6087 707.51089 717.04129">•Điều gì giúp tôi có thể làm tốt hơn?</tspan></text>
<g clip-path="url(#clip_8)">
<path transform="matrix(1,0,0,-1,925.76,707.03)" d="M0 0C.072-.072 .132-.148 .193-.225 .297-.108 .368 .042 .368 .225V18.58C.368 32.63-11.03 44.03-25.08 44.03H-43.65C-43.77 44.03-43.88 43.99-43.98 43.94-43.85 43.85-43.73 43.76-43.62 43.64Z" fill="#e6e6e6" />
<path transform="matrix(1,0,0,-1,925.96,707.26)" d="M0 0C-.061 .076-.121 .153-.193 .225L-43.81 43.87C-43.93 43.98-44.05 44.08-44.17 44.16-45.82 45.33-48.24 44.19-48.24 42.03V6.74C-48.24 .704-43.24-4.2-37.09-4.2H-2.03C.181-4.2 1.33-1.65 0 0" fill="#ff5533" />
<path transform="matrix(1,0,0,-1,879.52,905.87)" stroke-width="3" stroke-linecap="round" stroke-linejoin="round" fill="none" stroke="#2c2c2c" d="M0 0V-19.48H19.48" />
<path transform="matrix(1,0,0,-1,899,905.87)" stroke-width="3" stroke-linecap="round" stroke-linejoin="round" fill="none" stroke="#2c2c2c" d="M0 0-19.48-19.48" />
</g>
<text fill="#1a1a1a" xml:space="preserve" transform="matrix(1 0 -0 1 0 1080)" font-size="36" font-family="ProximaNova-Bold" font-weight="bold"><tspan y="-888.917" x="511.9854 535.8534 560.4774 586.72146 595.93746 620.4174 645.04147 671.28549 680.50149 705.23348 731.54946 756.56948 781.1935 807.4375 816.6535 840.5215 850.3855 859.6015 885.8455 912.1615 938.3695 964.6135 990.5335 999.7495 1025.6696 1035.5336 1044.7495 1069.4816 1095.7976 1123.3377 1132.5536 1157.1776 1167.0416 1188.0297 1212.7617 1221.9777 1247.4622 1272.0862 1298.3302 1324.6463 1333.8622 1359.7822 1369.6463 1391.6063">BẠN CẦN CHUẨN BỊ NHỮNG GÌ CHO VIỆC ĐÁNH GIÁ?</tspan></text>
</g>
<g ns1:groupmode="layer" ns1:label="Page 10">
</g>
<g ns1:groupmode="layer" ns1:label="Page 9">
</g>
<g ns1:groupmode="layer" ns1:label="Page7">
</g>
<g ns1:groupmode="layer" ns1:label="Page 8">
</g>
<g ns1:groupmode="layer" ns1:label="7">
</g>
<g ns1:groupmode="layer" ns1:label="Layer 31">
</g>
<g ns1:groupmode="layer" ns1:label="8">
</g>
<g ns1:groupmode="layer" ns1:label="Page 5">
</g>
<g ns1:groupmode="layer" ns1:label="Page 3">
</g>
<g ns1:groupmode="layer" ns1:label="Page 2">
</g>
<g ns1:groupmode="layer" ns1:label="Page 1">
</g>
<g ns1:groupmode="layer" ns1:label="bleed">
</g>
<g ns1:groupmode="layer" ns1:label="Layer 8">
</g>
</g>
</svg>