<?xml version='1.0' encoding='utf-8'?>
<svg xmlns="http://www.w3.org/2000/svg" xmlns:ns1="http://www.inkscape.org/namespaces/inkscape" version="1.1" width="1920" height="1080" viewBox="0 0 1920 1080">
<defs>
<clipPath id="clip_1">
<path transform="matrix(1,0,0,-1,0,1080)" d="M0 1080H1920V0H0Z" />
</clipPath>
<clipPath id="clip_2">
<path transform="matrix(1,0,0,-1,0,1080)" d="M0 1080H1920V0H0Z" />
</clipPath>
<clipPath id="clip_3">
<path transform="matrix(1,0,0,-1,0,1080)" d="M0 1080H1920V0H0Z" />
</clipPath>
<clipPath id="clip_4">
<path transform="matrix(1,0,0,-1,0,1080)" d="M0 1080H1920V0H0Z" />
</clipPath>
<clipPath id="clip_5">
<path transform="matrix(1,0,0,-1,0,1080)" d="M0 1080H1920V0H0Z" />
</clipPath>
<clipPath id="clip_6">
<path transform="matrix(1,0,0,-1,0,1080)" d="M0 1080H1920V0H0Z" />
</clipPath>
<clipPath id="clip_7">
<path transform="matrix(1,0,0,-1,0,1080)" d="M0 1080H1920V0H0Z" />
</clipPath>
</defs>
<g>
<g ns1:groupmode="layer" ns1:label="Layer 1">
<text xml:space="preserve" transform="matrix(1 0 -0 1 0 1080)" font-size="20" font-family="ProximaNova-Bold" font-weight="bold"><tspan y="-991.2163" x="72.3472 84.267208 98.88121 113.64321 118.915218 131.78122 137.28722 149.33922 161.20922 174.06922 179.18921 191.06922 203.0572 214.93721">SUN.RISER 2026</tspan></text>
<text xml:space="preserve" transform="matrix(1 0 -0 1 0 1080)" font-size="20" font-family="ProximaNova-Regular"><tspan y="-74.99628" x="72.3472 87.187198 98.4852 110.1012 121.3992 133.21921 138.37921 150.01322 164.11322 178.46923 183.27123 195.01723 206.26924 220.37125 234.39125 239.21125 254.51125 259.67124 272.92726 282.90928 293.10929 298.2693 310.4653 315.2453 329.68333 343.78733 355.0093 366.7293 371.8893 384.04933 395.42933 407.19334 418.57334 430.52534 443.78135 455.16136">©2026 SUN.STUDIO ALL RIGHTS RESERVED</tspan></text>
<text xml:space="preserve" transform="matrix(1 0 -0 1 0 1080)" font-size="20" font-family="ProximaNova-Semibold" font-weight="bold"><tspan y="-74.99628" x="1832.3672">8</tspan></text>
<g clip-path="url(#clip_1)">
<path transform="matrix(1,0,0,-1,1823.4202,75)" d="M0 0H-173.985C-185.501 0-194.836-9.335-194.836-20.85V-20.851C-194.836-32.366-185.501-41.701-173.985-41.701H0C11.515-41.701 20.85-32.366 20.85-20.851V-20.85C20.85-9.335 11.515 0 0 0M0-1C10.946-1 19.85-9.905 19.85-20.851 19.85-31.796 10.946-40.701 0-40.701H-173.985C-184.931-40.701-193.836-31.796-193.836-20.85-193.836-9.905-184.931-1-173.985-1Z" fill="#444454" />
</g>
<text xml:space="preserve" transform="matrix(1 0 -0 1 0 1080)" font-size="20" font-family="ProximaNova-Regular"><tspan y="-976.8037" x="1650.9546 1665.3306 1677.9006 1691.0607 1696.2207 1710.2207 1721.6007 1732.2947 1745.5507 1757.5247 1768.7787 1785.1047 1796.4848 1810.5088">HRA DEPARTMENT</tspan></text>
<text xml:space="preserve" transform="matrix(1 0 -0 1 0 1080)" font-size="55" font-family="ProximaNova-Extrabld"><tspan y="-900.457" x="72.9766 120.7881 157.15412 197.79912 211.87912 249.16362 285.40315 326.04814 340.1281 371.06565 406.55717 446.51466 484.57466 498.65464 535.8127 574.4887 612.8237 626.90377 663.62728 703.5848 745.3628 761.4228 775.5028 809.8723 850.1873 891.8773 932.1373 971.90237 985.98239 1020.9239 1058.8079">MẪU CẤU TRÚC CỦA BUỔI PHỎNG VẤN</tspan></text>
<g clip-path="url(#clip_2)">
<path transform="matrix(1,0,0,-1,788.2072,575.0867)" d="M0 0C-9.87 0-17.899 8.029-17.899 17.898V130.43C-17.899 140.299-9.87 148.328 0 148.328H1033.26C1043.129 148.328 1051.159 140.299 1051.159 130.43V17.898C1051.159 8.029 1043.129 0 1033.26 0Z" fill="#f3f9ff" />
<path transform="matrix(1,0,0,-1,1821.4673,424.75813)" d="M0 0H-1033.26C-1044.25 0-1053.159-8.909-1053.159-19.899V-132.43C-1053.159-143.42-1044.25-152.329-1033.26-152.329H0C10.99-152.329 19.899-143.42 19.899-132.43V-19.899C19.899-8.909 10.99 0 0 0M0-4C8.767-4 15.899-11.132 15.899-19.899V-132.43C15.899-141.197 8.767-148.329 0-148.329H-1033.26C-1042.027-148.329-1049.159-141.197-1049.159-132.43V-19.899C-1049.159-11.132-1042.027-4-1033.26-4Z" fill="#ffffff" />
<path transform="matrix(1,0,0,-1,1820.921,420.75819)" d="M0 0H-1033.26C-1044.25 0-1053.159 8.909-1053.159 19.899V50.497C-1053.159 61.486-1044.25 70.396-1033.26 70.396H0C10.99 70.396 19.899 61.486 19.899 50.497V19.899C19.899 8.909 10.99 0 0 0" fill="#ffd200" />
<path transform="matrix(1,0,0,-1,1820.921,420.75819)" stroke-width="2" stroke-linecap="butt" stroke-miterlimit="10" stroke-linejoin="miter" fill="none" stroke="#f3f9ff" d="M0 0H-1033.26C-1044.25 0-1053.159 8.909-1053.159 19.899V50.497C-1053.159 61.486-1044.25 70.396-1033.26 70.396H0C10.99 70.396 19.899 61.486 19.899 50.497V19.899C19.899 8.909 10.99 0 0 0Z" />
<path transform="matrix(1,0,0,-1,788.2072,728.3386)" d="M0 0C-9.87 0-17.899 8.029-17.899 17.898V130.43C-17.899 140.299-9.87 148.328 0 148.328H1033.26C1043.129 148.328 1051.159 140.299 1051.159 130.43V17.898C1051.159 8.029 1043.129 0 1033.26 0Z" fill="#f3f9ff" />
<path transform="matrix(1,0,0,-1,1821.4673,578.0103)" d="M0 0H-1033.26C-1044.25 0-1053.159-8.909-1053.159-19.899V-132.43C-1053.159-143.42-1044.25-152.329-1033.26-152.329H0C10.99-152.329 19.899-143.42 19.899-132.43V-19.899C19.899-8.909 10.99 0 0 0M0-4C8.767-4 15.899-11.132 15.899-19.899V-132.43C15.899-141.197 8.767-148.329 0-148.329H-1033.26C-1042.027-148.329-1049.159-141.197-1049.159-132.43V-19.899C-1049.159-11.132-1042.027-4-1033.26-4Z" fill="#ffffff" />
</g>
<text fill="#1a1a1a" xml:space="preserve" transform="matrix(1 0 -0 1 0 1080)" font-size="26" font-family="ProximaNova-ExtrabldIt" font-style="italic"><tspan y="-685.5791" x="1167.0547 1185.1637 1200.3737 1214.5333 1227.3461 1241.3576 1248.1176 1254.9114 1267.2744 1276.6344 1283.2904 1296.0824 1311.3054 1326.2788 1332.9348 1355.7472 1370.9988 1386.2088 1401.4395 1416.5714 1430.6947">Checklist cho Manager</tspan></text>
<g clip-path="url(#clip_3)">
<path transform="matrix(1,0,0,-1,98.2809,575.0867)" d="M0 0C-9.87 0-17.899 8.029-17.899 17.898V130.43C-17.899 140.299-9.87 148.328 0 148.328H650.128C659.998 148.328 668.027 140.299 668.027 130.43V17.898C668.027 8.029 659.998 0 650.128 0Z" fill="#f3f9ff" />
<path transform="matrix(1,0,0,-1,748.4094,424.75813)" d="M0 0H-650.129C-661.118 0-670.028-8.909-670.028-19.899V-132.43C-670.028-143.42-661.118-152.329-650.129-152.329H0C10.99-152.329 19.899-143.42 19.899-132.43V-19.899C19.899-8.909 10.99 0 0 0M0-4C8.767-4 15.899-11.132 15.899-19.899V-132.43C15.899-141.197 8.767-148.329 0-148.329H-650.129C-658.895-148.329-666.028-141.197-666.028-132.43V-19.899C-666.028-11.132-658.895-4-650.129-4Z" fill="#ffffff" />
<path transform="matrix(1,0,0,-1,98.2838,420.25849)" d="M0 0C-10.7 0-19.402 8.702-19.402 19.399V49.997C-19.402 60.693-10.7 69.396-.003 69.396H650.125C660.822 69.396 669.524 60.693 669.524 49.997V19.399C669.524 8.802 660.873-3.998 650.128-4Z" fill="#1a1a1a" />
<path transform="matrix(1,0,0,-1,748.4094,350.3625)" d="M0 0H-650.129C-661.119 0-670.028-8.909-670.028-19.899V-50.497C-670.028-61.487-661.119-70.396-650.129-70.396L0-74.396C10.99-74.396 19.899-61.487 19.899-50.497V-19.899C19.899-8.909 10.99 0 0 0M0-1C10.421-1 18.899-9.478 18.899-19.899V-50.497C18.899-60.868 10.469-73.396 .006-73.396L-650.129-69.396C-660.55-69.396-669.028-60.917-669.028-50.497V-19.899C-669.028-9.478-660.55-1-650.129-1Z" fill="#f3f9ff" />
</g>
<text xml:space="preserve" transform="matrix(1 0 -0 1 0 1080)" font-size="22" font-family="ProximaNova-BoldIt" font-weight="bold" font-style="italic"><tspan y="-573.2187" x="157.7607 166.8203 172.4523 178.0843 197.7171 210.5189 218.1551 237.07732 243.84232 256.4901 269.3161 274.9481 281.5481 287.18009 292.81208 303.88029 316.58088 329.20887 334.84086 346.46565 359.04527 371.57646 384.11207 396.98207 402.61405 414.23664 426.84046 432.40647 438.03846 448.70625 461.30125 466.86726 472.49925 491.0584 503.407 509.039 514.671 522.217 534.7966 547.39376 560.15597 565.7219 571.35397 589.96597 602.76779">1. Warm-up -  Tạo không khí cởi mở, thoải mái</tspan></text>
<g clip-path="url(#clip_4)">
<path transform="matrix(1,0,0,-1,98.2809,728.3386)" d="M0 0C-9.87 0-17.899 8.029-17.899 17.898V130.43C-17.899 140.299-9.87 148.328 0 148.328H650.128C659.998 148.328 668.027 140.299 668.027 130.43V17.898C668.027 8.029 659.998 0 650.128 0Z" fill="#f3f9ff" />
<path transform="matrix(1,0,0,-1,748.4094,578.0103)" d="M0 0H-650.129C-661.118 0-670.028-8.909-670.028-19.899V-132.43C-670.028-143.42-661.118-152.329-650.129-152.329H0C10.99-152.329 19.899-143.42 19.899-132.43V-19.899C19.899-8.909 10.99 0 0 0M0-4C8.767-4 15.899-11.132 15.899-19.899V-132.43C15.899-141.197 8.767-148.329 0-148.329H-650.129C-658.895-148.329-666.028-141.197-666.028-132.43V-19.899C-666.028-11.132-658.895-4-650.129-4Z" fill="#ffffff" />
</g>
<text fill="#ffffff" xml:space="preserve" transform="matrix(1 0 -0 1 0 1080)" font-size="26" font-family="ProximaNova-ExtrabldIt" font-style="italic"><tspan y="-686.0889" x="364.187 381.971 397.129 412.521 419.177 428.7112 438.0868 453.3306">Cấu trúc</tspan></text>
<text xml:space="preserve" transform="matrix(1 0 -0 1 0 1080)" font-size="18" font-family="ProximaNova-Medium"><tspan y="-609.3301" x="868.6587 880.7601 890.7339 900.2217 910.5177 915.1617 925.1841 935.4117 939.5517 943.8357 948.4797 954.02188 963.5402 973.83627 978.4802 987.8258 997.8176 1008.056 1018.06948 1028.4555 1033.0995 1042.4432 1052.4188 1056.6128 1061.2568 1066.7649 1076.7566 1086.986 1096.4684 1100.6624 1105.3064 1119.9872 1129.4247">Chào hỏi, tạo không khí thoải mái</tspan><tspan y="-573.3301" x="868.6587 881.5827 885.68136 895.97738 900.1714 904.81539 910.32339 920.2792 924.37777 934.37857 944.44058 949.08456 957.77316 967.85317 972.49716 982.83456 992.3295 1002.39157 1007.0355 1012.5435 1022.51736 1031.9818 1042.0438 1046.6879 1055.5565 1065.1326 1069.7766 1078.6453 1088.0972 1092.2911 1096.9352 1102.4432 1108.34 1118.636 1123.28 1128.7881 1134.6848 1144.9232 1154.9348 1165.3208 1169.9649 1180.3023 1190.3463 1200.574 1204.768 1209.412 1219.7692 1229.7915 1240.0606 1250.074 1260.46 1265.104 1274.0033 1283.475">Giới thiệu về bản thân và vai trò trong buổi phỏng vấn</tspan><tspan y="-537.3301" x="868.6587 881.5827 885.68136 895.97738 900.1714 904.81539 910.32339 920.2792 924.37777 934.37857 944.44058 949.08456 963.7725 973.8165 982.7445 987.3885 997.8087 1001.8695 1010.6679 1020.7479 1025.392 1035.7294 1045.7734 1056.0011 1060.1951 1064.8391 1075.1963 1085.2186 1095.4877 1105.5011 1115.8871 1120.5311 1129.4304 1138.9021">Giới thiệu mục đích buổi phỏng vấn</tspan></text>
<g clip-path="url(#clip_5)">
<path transform="matrix(1,0,0,-1,0,1080)" d="M859.858 624.027H844.11V608.279H859.858ZM858.858 609.28H845.11V623.028H858.858Z" />
<path transform="matrix(1,0,0,-1,0,1080)" d="M859.858 587.439H844.11V571.69107H859.858ZM858.858 572.691H845.11V586.43899H858.858Z" />
<path transform="matrix(1,0,0,-1,0,1080)" d="M859.858 551.227H844.11V535.479H859.858ZM858.858 536.479H845.11V550.227H858.858Z" />
</g>
<text xml:space="preserve" transform="matrix(1 0 -0 1 0 1080)" font-size="18" font-family="ProximaNova-Medium"><tspan y="-456.4756" x="868.6582 878.85879 888.829 898.891 903.535 912.48818 921.9526 932.0146 936.65859 946.94558 956.959 967.345 971.98898 981.0015 985.0696 995.0704 1005.1324 1009.77639 1020.09036 1024.1889 1034.4849 1038.6788 1043.3229 1048.8309 1058.7849 1062.8834 1072.8842 1082.9462 1087.5902 1097.9276 1107.4226 1117.4846 1122.1287 1127.6367 1137.6105 1147.075 1157.137 1161.781 1166.4214 1176.4456 1186.7416 1195.6696 1200.3136 1209.2129 1218.6846 1228.7466 1233.0307 1237.6747 1247.8987 1258.1677 1268.1812 1278.5671 1283.2112 1287.3187 1297.3717 1306.2997 1310.9437 1321.2307 1331.2442 1341.6301 1346.2742 1351.6022 1361.7398 1370.4284 1380.4616 1390.5236 1394.8076 1399.4517 1408.7954 1412.9011 1422.8677 1432.9476 1437.5917 1447.6051 1457.9028 1467.8587 1471.9572 1481.9885 1496.8547 1501.6104 1511.9406 1522.0026 1526.6466 1536.0877 1546.1497 1550.7937 1554.8887 1558.9567 1568.9574 1579.0194 1583.6635 1593.954 1603.9494 1613.4138 1623.4758 1627.7778 1631.925 1636.0723 1640.0071 1644.723 1649.3671 1654.8751 1660.7719 1671.0103 1681.0219 1691.4078 1696.0519 1703.0215 1713.1068 1723.7449 1728.3889 1738.7461 1748.6964 1758.7584">Yêu cầu ứng viên giới thiệu bản thân (học vấn, động lực ứng tuyển, kinh nghiệm/dự án liên quan,...) trong 1–2 phút</tspan><tspan y="-420.4756" x="868.6582 881.58047 891.0916 896.5996 901.2436 910.1716 919.60537 929.66738 934.31137 944.33377 954.56137 958.7554 963.39938 972.74496 982.71878 992.17056 996.3645 1001.0085 1006.5165 1016.4903 1025.9494 1034.8773 1039.5214 1045.0294 1055.0194 1065.022 1079.782 1084.426 1089.9341 1099.9276 1110.166 1120.1776 1130.5636 1135.2077 1140.7157 1144.8214 1154.8834 1159.5275 1164.8052 1175.0742 1185.0877 1195.4736 1200.1177 1210.4082 1220.4036 1229.8825 1235.3905 1240.0346 1248.7232 1258.8031 1263.4472 1273.7341 1283.7476 1294.1336 1298.7776 1307.7885 1311.8565 1321.859 1331.921 1336.5651 1340.8652 1350.8787 1360.8236 1370.8856 1375.5297 1384.4811 1393.9761 1403.6061">Đặt câu hỏi khai thác thêm thông tin tổng quát về ứng viên (nếu cần)</tspan><tspan y="-384.4756" x="868.6582 881.6578 891.6136 895.8076 900.4516 909.2518 919.204 929.266 933.91 944.5102 948.6088 958.64028 973.40029 978.04428 986.99746 996.49246 1006.55447 1011.1984 1021.55026 1031.038 1041.334 1045.978 1054.3497 1063.7836 1073.8456 1078.4896 1082.7916 1092.805 1102.7482 1112.8102 1117.4542 1126.0942 1135.9817">Ghi chú điểm cần đào sâu (nếu có)</tspan></text>
<g clip-path="url(#clip_6)">
<path transform="matrix(1,0,0,-1,0,1080)" d="M859.858 471.173H844.11V455.42503H859.858ZM858.858 456.426H845.11V470.17399H858.858Z" />
<path transform="matrix(1,0,0,-1,0,1080)" d="M859.858 434.585H844.11V418.837H859.858ZM858.858 419.837H845.11V433.585H858.858Z" />
<path transform="matrix(1,0,0,-1,0,1080)" d="M859.858 398.373H844.11V382.625H859.858ZM858.858 383.625H845.11V397.373H858.858Z" />
<path transform="matrix(1,0,0,-1,788.2072,934.1638)" d="M0 0C-9.87 0-17.899 8.029-17.899 17.899V183.926C-17.899 193.796-9.87 201.825 0 201.825H1033.26C1043.129 201.825 1051.159 193.796 1051.159 183.926V17.899C1051.159 8.029 1043.129 0 1033.26 0Z" fill="#f3f9ff" />
<path transform="matrix(1,0,0,-1,1821.4673,730.3391)" d="M0 0H-1033.26C-1044.25 0-1053.159-8.909-1053.159-19.899V-185.926C-1053.159-196.916-1044.25-205.824-1033.26-205.824H0C10.99-205.824 19.899-196.916 19.899-185.926V-19.899C19.899-8.909 10.99 0 0 0M0-4C8.767-4 15.899-11.132 15.899-19.899V-185.926C15.899-194.692 8.767-201.824 0-201.824H-1033.26C-1042.027-201.824-1049.159-194.692-1049.159-185.926V-19.899C-1049.159-11.132-1042.027-4-1033.26-4Z" fill="#ffffff" />
<path transform="matrix(1,0,0,-1,98.2809,934.1638)" d="M0 0C-9.87 0-17.899 8.029-17.899 17.899V183.926C-17.899 193.796-9.87 201.825 0 201.825H650.128C659.998 201.825 668.027 193.796 668.027 183.926V17.899C668.027 8.029 659.998 0 650.128 0Z" fill="#f3f9ff" />
<path transform="matrix(1,0,0,-1,748.4094,730.3391)" d="M0 0H-650.129C-661.118 0-670.028-8.909-670.028-19.899V-185.926C-670.028-196.916-661.118-205.824-650.129-205.824H0C10.99-205.824 19.899-196.916 19.899-185.926V-19.899C19.899-8.909 10.99 0 0 0M0-4C8.767-4 15.899-11.132 15.899-19.899V-185.926C15.899-194.692 8.767-201.824 0-201.824H-650.129C-658.895-201.824-666.028-194.692-666.028-185.926V-19.899C-666.028-11.132-658.895-4-650.129-4Z" fill="#ffffff" />
</g>
<text xml:space="preserve" transform="matrix(1 0 -0 1 0 1080)" font-size="22" font-family="ProximaNova-BoldIt" font-weight="bold" font-style="italic"><tspan y="-434.2393" x="157.7607 171.1433 176.7753 182.4073 199.1911 210.18669 222.1789 230.54329 241.79409 247.18848 259.1037 276.0217 281.6537 288.2537 293.88569 309.76087 322.55827 341.30226 346.93424 359.79765 372.54884 379.98484 385.61683 393.1606 405.74024 418.27143 430.80705 443.67704 449.30903 456.855 462.29783 475.03584 480.66783 491.4984 503.96803 516.6158 529.15139 542.02139 547.6534 558.682 571.57406 577.20608 584.58926 597.0808 609.6164 622.4864 628.1184 640.7794 653.44039 666.2444 678.98239">2. Overview - Nắm bắt thông tin chung và tổng quan </tspan><tspan y="-407.8393" x="157.7607 170.3007 182.8759 193.85391 199.48592 210.47492 223.26792 235.85192 242.0207 252.72812 265.2593 277.79493 290.66493 296.2969 307.5477 312.9003 324.94749 336.12348 343.1965 354.8125 360.25529 372.8393 385.59928 391.23127 403.76689 416.5467 429.15269 434.50749 446.51948 465.26347 470.89546 481.52586 494.14949 507.04148 512.67349 525.45547 537.991 550.8588 556.49087 567.74166 573.13607 585.1305">học vấn/công việc/kinh nghiệm của ứng viên</tspan><tspan y="-253.9493" x="157.7607 170.8529 176.48491 182.11692 197.93932 210.02613 222.04033 235.33054 242.36835 255.15915 260.62397 271.61958 283.78559 289.41758 296.01759 301.64958 317.92298 330.66319 343.29118 348.92317 359.31596 372.00776 384.74577 390.37776 401.33378 413.49977 419.13175 429.96235 442.43196 455.10176 466.09736 478.08958 490.82759 496.45957 515.05618 527.58956 540.3275 545.95956 552.24057 565.43838 576.72439">3. Deep-dive - Đào sâu về chuyên môn (Kỹ </tspan><tspan y="-227.54929" x="157.7607 170.3029 183.06511 195.60071 208.34091 215.34131 229.1793 234.62212 247.20612 259.9639 265.5959 278.1315 290.91133 303.5173 308.8721 320.8841 339.50929 346.5097 360.34773 365.7025 377.7343 390.47233 396.1043 403.65034 416.0913 428.7567 439.11213">năng/Kinh nghiệm/Kiến thức)</tspan></text>
<text xml:space="preserve" transform="matrix(1 0 -0 1 0 1080)" font-size="18" font-family="ProximaNova-Medium"><tspan y="-294.6924" x="868.6582 880.7596 890.782 901.051 911.11306 915.757 925.93966 936.5488 946.7188 951.3628 960.7066 964.81246 974.77908 984.8591 989.50308 999.51828 1009.8142 1019.77 1023.8686 1033.9 1048.7662 1054.3355 1064.338 1073.284 1077.9281 1087.9235 1097.4185 1107.4319 1117.9331 1123.5023 1132.8461 1136.9446 1146.8877 1156.9497 1161.5938 1167.1018 1177.0846 1187.1376 1196.0656 1200.7096 1209.4972 1219.5592 1224.2033 1229.7113 1239.7337 1249.8136 1254.4577 1263.4108 1272.9058 1282.9678 1287.6118 1296.9556 1301.0541 1311.0855 1325.8455 1330.4895 1339.2897 1349.2706 1359.5576 1369.571 1379.957 1384.6011 1394.8881 1404.9015 1415.2875 1419.9315 1428.9442 1433.0122 1443.013">Chọn 2–3 kinh nghiệm/kỹ năng/kiến thức cụ thể cần kiểm chứng ứng viên</tspan><tspan y="-258.6924" x="868.6582 881.58047 891.0916 896.5996 901.2436 910.1716 919.60537 929.66738 934.31137 944.33377 954.56137 958.7554 963.39938 972.26797 981.84396 986.4879 995.8335 1005.8073 1015.2591 1019.4531 1024.0972 1034.4544 1044.4281 1054.0042 1058.6482 1064.1563 1074.148 1084.2045 1094.5005 1099.1445 1110.3999 1120.1001 1129.4403 1140.359 1152.5918 1163.7824 1174.9064 1179.5504 1189.7726 1199.8526 1204.4966 1214.5189 1224.7466 1228.9406 1233.5846 1239.4832 1249.7792 1254.4232 1263.2919 1272.7438 1276.9378 1281.5818 1287.0899 1292.9866 1303.2826 1307.9266 1313.4347 1323.4391 1332.9503 1338.7554 1343.0394 1347.6835 1356.6115 1366.0706 1374.8707 1384.9507 1389.5947 1399.5505 1403.649 1413.6498 1423.7118 1428.3558 1433.7559 1438.3999 1442.5003 1451.9647 1466.7391 1471.0232 1475.6672 1484.6168 1494.6301 1500.1382 1504.7822 1515.0728 1525.0988 1534.6298 1538.9138 1543.5579 1553.8648 1563.3167 1567.5106 1572.1547 1582.177 1592.473">Đặt câu hỏi và khai phá theo S–T–A–R để hỏi rõ vai trò thật, cách hiểu - làm, kết quả, bài học</tspan><tspan y="-222.69242" x="868.6582 881.6002 891.89627 896.0902 900.7342 915.4636 925.75967 930.4036 935.9116 939.9976 949.96426 960.04428 964.68826 974.6387 984.6827 994.8869 1004.9003 1015.3133 1019.5973 1024.2413 1034.6094 1044.9054 1049.0994 1053.7434 1062.6895 1067.3335 1077.3469 1087.29 1097.352 1101.9961 1110.9492 1120.4442 1130.5062 1135.1503 1145.1168 1155.1013 1165.3883 1175.4017 1185.7877 1190.4318 1199.7774 1209.769 1220.0075 1230.0209 1240.4069 1245.0509 1253.8097 1263.7835 1273.7969 1284.1829 1288.8269 1297.7765 1307.25 1317.636 1322.28 1332.6318 1342.0729 1352.4589 1357.1029 1366.5458">Gợi mở tình huống, gợi ý nếu cần nhưng không cung cấp đáp án</tspan><tspan y="-186.69242" x="868.6582 881.6578 891.6136 895.8076 900.4516 909.2518 919.204 929.266 933.91 948.57278 952.6785 962.64517 972.72518 977.36917 986.1693 996.1503 1006.4373 1016.45077 1026.8368 1031.4808 1040.3495 1049.9255 1054.5696 1064.9214 1074.3624 1084.329 1094.4089 1099.053 1109.367 1113.4529">Ghi chú minh chứng và đánh giá</tspan></text>
<g clip-path="url(#clip_7)">
<path transform="matrix(1,0,0,-1,0,1080)" d="M859.858 309.388H844.11V293.64H859.858ZM858.858 294.641H845.11V308.38899H858.858Z" />
<path transform="matrix(1,0,0,-1,0,1080)" d="M859.858 272.8H844.11V257.052H859.858ZM858.858 258.052H845.11V271.8H858.858Z" />
<path transform="matrix(1,0,0,-1,0,1080)" d="M859.858 236.589H844.11V220.841H859.858ZM858.858 221.84H845.11V235.588H858.858Z" />
<path transform="matrix(1,0,0,-1,0,1080)" d="M859.858 201.772H844.11V186.024H859.858ZM858.858 187.024H845.11V200.772H858.858Z" />
</g>
<text fill="#ff5533" xml:space="preserve" transform="matrix(1 0 -0 1 0 1080)" font-size="28" font-family="ProximaNova-BoldIt" font-weight="bold" font-style="italic"><tspan y="-845.7549" x="78.6069 98.906909 115.12731 131.07611 146.56012 153.72812 170.62052 187.26372 208.45972 215.62772 224.02771 231.19571 246.88971 262.7909 269.6565 276.47453 292.19093 313.72294 322.29374 338.34056 354.66456 361.83256 378.32734 394.97053">Nghe 80% - Follow-up 20%</tspan></text>
</g>
<g ns1:groupmode="layer" ns1:label="Layer 2">
</g>
</g>
</svg>