<?xml version='1.0' encoding='utf-8'?>
<svg xmlns="http://www.w3.org/2000/svg" xmlns:ns1="http://www.inkscape.org/namespaces/inkscape" version="1.1" width="1920" height="1080" viewBox="0 0 1920 1080">
<defs>
<clipPath id="clip_1">
<path transform="matrix(1,0,0,-1,0,1080)" d="M0 1080H1920V0H0Z" />
</clipPath>
<clipPath id="clip_2">
<path transform="matrix(1,0,0,-1,0,1080)" d="M0 1080H1920V0H0Z" />
</clipPath>
</defs>
<g>
<g ns1:groupmode="layer" ns1:label="Layer 1">
</g>
<g ns1:groupmode="layer" ns1:label="Layer 2">
</g>
<g ns1:groupmode="layer" ns1:label="Page18">
</g>
<g ns1:groupmode="layer" ns1:label="Page17">
<path transform="matrix(1,0,0,-1,0,1080)" d="M0 0H1920V1080H0Z" fill="#f2f2f2" />
<text xml:space="preserve" transform="matrix(1 0 -0 1 0 1080)" font-size="20" font-family="ProximaNova-Semibold" font-weight="bold"><tspan y="-67.9043" x="75.0928 89.9888 101.6688 113.4908 125.1708 137.1908 142.3308 154.1468 168.62682 183.25482 188.47481 200.31682 211.62483 226.10485 240.35884 245.57285">©2026 SUN.STUDIO</tspan></text>
<text xml:space="preserve" transform="matrix(1 0 -0 1 0 1080)" font-size="20" font-family="ProximaNova-Regular"><tspan y="-67.9043" x="260.8728 266.0328 279.28883 289.27085 299.47087 304.63087 316.82688 321.60688 336.0449 350.14689 361.36888 373.08888 378.24888 390.40888 401.78889 413.55488 424.93489 436.88688 450.14289 461.5229"> ALL RIGHTS RESERVED</tspan></text>
<text xml:space="preserve" transform="matrix(1 0 -0 1 0 1080)" font-size="20" font-family="ProximaNova-Semibold" font-weight="bold"><tspan y="-67.9043" x="1825.3728 1833.0928">18</tspan></text>
<g clip-path="url(#clip_1)">
<path transform="matrix(1,0,0,-1,1653.11,110.28)" d="M0 0V-8.33C0-8.69 .31-8.98 .693-8.98H8.02C8.4-8.98 8.71-8.69 8.71-8.33V2.58C8.71 3.08 8.29 3.22 7.94 3.06 5.5 2 2.59 1.18 .644 .697 .26 .601 0 .32 0 0" />
<path transform="matrix(1,0,0,-1,1673.5,108.26)" d="M0 0C-.828-.775-2.05-1.72-3.5-1.72-4.89-1.72-5.96-.4-6.6 .4-6.81 .66-7.37 .498-7.37 .046V-10.34C-7.37-10.71-7.06-11-6.67-11H.655C1.04-11 1.35-10.71 1.35-10.34V.163C1.35 .669 .844 .812 .577 .576 .391 .412 .156 .146 0 0" />
<path transform="matrix(1,0,0,-1,1686.96,87.35)" d="M0 0C-1.73-3.26-4.65-6.98-7.4-9.16-7.66-9.37-7.81-9.73-7.81-10.03V-31.25C-7.81-31.65-7.5-31.91-7.12-31.91H.214C.597-31.91 .907-31.66 .907-31.25V-.178C.902 .301 .232 .438 0 0" />
<path transform="matrix(1,0,0,-1,1677.26,86.19)" d="M0 0C-1.83 .073-3.25 1.61-3.17 3.44-3.1 5.27-1.56 6.69 .265 6.62 2.09 6.54 3.51 5 3.44 3.18 3.37 1.35 1.83-.073 0 0M6.35 11.04C.214 10.99-6.8 7.28-11.02 2.96-14.49 2.96-20.89 1.97-23.19-.92-23.67-1.52-23.48-2.32-22.78-2.63-22.12-2.92-18.26-3.8-18.11-3.98-18.47-4.71-18.46-5.05-17.99-5.7-17.94-5.78-17.88-5.85-17.82-5.93-17.62-5.91-17.41-5.89-17.2-5.89H-17.11C-14.76-5.92-12.7-7.28-11.72-9.44-11.19-10.61-11.05-11.87-11.27-13.06-11.03-13.34-10.8-13.62-10.58-13.91-10.11-14.42-9.57-14.3-8.99-14.1-8.57-15.55-8.58-17.56-8.07-18.94-7.8-19.68-7.01-19.85-6.36-19.46-5.98-19.23-5.03-18.07-4.73-17.66-2.64-14.85-1.74-11.21-1.38-7.77 3.37-4.06 7.8 2.59 8.47 8.7 8.7 10.8 8.47 11.06 6.35 11.04" fill="#ff5533" />
<path transform="matrix(1,0,0,-1,1660.13,93.54)" d="M0 0C-3.46 .045-4.62-3.22-5.72-5.88-6.17-6.96-7.09-9.07-7.26-10.13-7.34-10.62-7.15-11.06-6.74-11.31-6.22-11.62-5.83-11.39-5.29-11.26-3.22-10.76 2.1-9.13 3.42-7.58 5.91-4.66 3.87-.05 0 0" fill="#ff5533" />
<path transform="matrix(1,0,0,-1,1712.58,83.5)" d="M0 0H-3.61V-4.4H0C1.34-4.4 2.34-3.54 2.34-2.2 2.34-.884 1.34 0 0 0M-7-13.02V2.92H.454C3.92 2.92 5.81 .573 5.81-2.22 5.81-5 3.9-7.31 .454-7.31H-3.61V-13.02Z" />
<path transform="matrix(1,0,0,-1,1722.4,89.66)" d="M0 0H5.69C5.62 1.1 4.85 2.56 2.84 2.56 .956 2.56 .143 1.15 0 0M2.84 4.97C6.29 4.97 8.63 2.39 8.63-1.39V-2.06H.047C.239-3.51 1.41-4.73 3.37-4.73 4.45-4.73 5.71-4.3 6.45-3.58L7.79-5.54C6.62-6.62 4.83-7.14 3.04-7.14-.478-7.14-3.13-4.78-3.13-1.07-3.13 2.27-.669 4.97 2.84 4.97" />
<path transform="matrix(1,0,0,-1,1733.23,96.52)" d="M0 0V11.54H3.04V9.96C3.85 10.99 5.28 11.8 6.71 11.8V8.84C6.5 8.89 6.21 8.91 5.88 8.91 4.88 8.91 3.54 8.36 3.04 7.62V0Z" />
<path transform="matrix(1,0,0,-1,1745.56,87.63)" d="M0 0V-8.89H-3.06V0H-4.97V2.65H-3.06V3.27C-3.06 5.78-1.43 7.29 .836 7.29 1.7 7.29 2.48 7.1 3.04 6.81L2.41 4.66C2.15 4.83 1.79 4.9 1.43 4.9 .573 4.9 0 4.33 0 3.23V2.65H2.34V0Z" />
<path transform="matrix(1,0,0,-1,1757.97,90.74)" d="M0 0C0 1.79-1.07 3.35-2.96 3.35-4.85 3.35-5.9 1.79-5.9 0-5.9-1.82-4.85-3.37-2.96-3.37-1.07-3.37 0-1.82 0 0M-9.06 0C-9.06 3.27-6.76 6.05-2.96 6.05 .86 6.05 3.15 3.27 3.15 0 3.15-3.3 .86-6.07-2.96-6.07-6.76-6.07-9.06-3.3-9.06 0" />
<path transform="matrix(1,0,0,-1,1763.37,96.52)" d="M0 0V11.54H3.04V9.96C3.85 10.99 5.28 11.8 6.71 11.8V8.84C6.5 8.89 6.21 8.91 5.88 8.91 4.88 8.91 3.54 8.36 3.04 7.62V0Z" />
<path transform="matrix(1,0,0,-1,1786.29,96.52)" d="M0 0V7.29C0 8.36-.478 9.13-1.72 9.13-2.8 9.13-3.68 8.41-4.11 7.79V0H-7.17V7.29C-7.17 8.36-7.65 9.13-8.89 9.13-9.94 9.13-10.82 8.41-11.28 7.77V0H-14.31V11.54H-11.28V10.04C-10.8 10.73-9.27 11.83-7.5 11.83-5.81 11.83-4.73 11.04-4.3 9.73-3.63 10.78-2.1 11.83-.335 11.83 1.79 11.83 3.06 10.71 3.06 8.34V0Z" />
<path transform="matrix(1,0,0,-1,1799.27,92.32)" d="M0 0C-.501 .669-1.46 1-2.44 1-3.63 1-4.61 .358-4.61-.741-4.61-1.82-3.63-2.44-2.44-2.44-1.46-2.44-.501-2.1 0-1.43ZM0-4.21V-3.01C-.788-3.94-2.15-4.49-3.66-4.49-5.5-4.49-7.67-3.25-7.67-.669-7.67 2.03-5.5 3.01-3.66 3.01-2.13 3.01-.764 2.53 0 1.6V3.2C0 4.37-1 5.14-2.53 5.14-3.78 5.14-4.92 4.68-5.9 3.78L-7.05 5.81C-5.64 7.05-3.82 7.62-2.01 7.62 .622 7.62 3.04 6.57 3.04 3.25V-4.21Z" />
<path transform="matrix(1,0,0,-1,1813.1,96.52)" d="M0 0V6.98C0 8.58-.836 9.13-2.13 9.13-3.32 9.13-4.25 8.46-4.76 7.77V0H-7.79V11.54H-4.76V10.04C-4.01 10.92-2.6 11.83-.717 11.83 1.82 11.83 3.04 10.39 3.04 8.15V0Z" />
<path transform="matrix(1,0,0,-1,1824.53,84.69)" d="M0 0C2.37 0 3.8-1.03 4.56-2.1L2.58-3.94C2.03-3.15 1.19-2.7 .143-2.7-1.7-2.7-2.99-4.04-2.99-6.05-2.99-8.05-1.7-9.41 .143-9.41 1.19-9.41 2.03-8.94 2.58-8.17L4.56-10.01C3.8-11.09 2.37-12.12 0-12.12-3.56-12.12-6.12-9.61-6.12-6.05-6.12-2.51-3.56 0 0 0" />
<path transform="matrix(1,0,0,-1,1833.47,89.66)" d="M0 0H5.69C5.62 1.1 4.85 2.56 2.84 2.56 .956 2.56 .144 1.15 0 0M2.84 4.97C6.29 4.97 8.63 2.39 8.63-1.39V-2.06H.047C.239-3.51 1.41-4.73 3.37-4.73 4.45-4.73 5.71-4.3 6.45-3.58L7.79-5.54C6.62-6.62 4.83-7.14 3.04-7.14-.478-7.14-3.13-4.78-3.13-1.07-3.13 2.27-.669 4.97 2.84 4.97" />
<path transform="matrix(1,0,0,-1,1712.53,106.11)" d="M0 0H-3.56V-4.4H0C1.36-4.4 2.39-3.54 2.39-2.2 2.39-.86 1.36 0 0 0M2.06-13.02-1.07-7.31H-3.56V-13.02H-6.95V2.92H.502C3.82 2.92 5.86 .741 5.86-2.22 5.86-5.04 4.09-6.55 2.37-6.95L5.95-13.02Z" />
<path transform="matrix(1,0,0,-1,1722.55,112.27)" d="M0 0H5.69C5.62 1.1 4.85 2.56 2.84 2.56 .956 2.56 .144 1.15 0 0M2.84 4.97C6.29 4.97 8.63 2.39 8.63-1.39V-2.06H.047C.239-3.51 1.41-4.73 3.37-4.73 4.45-4.73 5.71-4.3 6.45-3.58L7.79-5.54C6.62-6.62 4.83-7.14 3.04-7.14-.478-7.14-3.13-4.78-3.13-1.07-3.13 2.27-.669 4.97 2.84 4.97" />
<path transform="matrix(1,0,0,-1,1736.36,119.13)" d="M0 0-4.64 11.54H-1.39L1.62 3.51 4.64 11.54H7.91L3.27 0Z" />
<path transform="matrix(1,0,0,-1,0,1080)" d="M1745.63 972.41H1748.67V960.87H1745.63ZM1745.32 975.92C1745.32 976.93 1746.16 977.74 1747.14 977.74 1748.14 977.74 1748.96 976.93 1748.96 975.92 1748.96 974.92 1748.14 974.11 1747.14 974.11 1746.16 974.11 1745.32 974.92 1745.32 975.92" />
<path transform="matrix(1,0,0,-1,1754.07,112.27)" d="M0 0H5.69C5.62 1.1 4.85 2.56 2.84 2.56 .956 2.56 .144 1.15 0 0M2.84 4.97C6.29 4.97 8.63 2.39 8.63-1.39V-2.06H.047C.239-3.51 1.41-4.73 3.37-4.73 4.45-4.73 5.71-4.3 6.45-3.58L7.79-5.54C6.62-6.62 4.83-7.14 3.04-7.14-.478-7.14-3.13-4.78-3.13-1.07-3.13 2.27-.669 4.97 2.84 4.97" />
<path transform="matrix(1,0,0,-1,1775.03,119.13)" d="M0 0-2.44 7.86-4.88 0H-8.12L-11.64 11.54H-8.48L-6.33 3.78-3.8 11.54H-1.1L1.43 3.78 3.58 11.54H6.74L3.23 0Z" />
<path transform="matrix(1,0,0,-1,1789.01,119.13)" d="M0 0V2.68C6.52 7.48 8.44 9.13 8.44 11.09 8.44 12.47 7.17 13.17 5.83 13.17 4.04 13.17 2.65 12.45 1.58 11.33L-.358 13.57C1.2 15.37 3.56 16.18 5.78 16.18 9.18 16.18 11.88 14.27 11.88 11.09 11.88 8.36 9.63 6 5.35 2.99H12V0Z" />
<path transform="matrix(1,0,0,-1,1809.64,105.96)" d="M0 0C-2.29 0-3.15-2.27-3.15-5.21-3.15-8.15-2.29-10.44 0-10.44 2.27-10.44 3.13-8.15 3.13-5.21 3.13-2.27 2.27 0 0 0M0 3.01C4.54 3.01 6.6-1.1 6.6-5.21 6.6-9.32 4.54-13.45 0-13.45-4.56-13.45-6.6-9.32-6.6-5.21-6.6-1.1-4.56 3.01 0 3.01" />
<path transform="matrix(1,0,0,-1,1818.17,119.13)" d="M0 0V2.68C6.52 7.48 8.44 9.13 8.44 11.09 8.44 12.47 7.17 13.17 5.83 13.17 4.04 13.17 2.65 12.45 1.58 11.33L-.359 13.57C1.2 15.37 3.56 16.18 5.78 16.18 9.18 16.18 11.88 14.27 11.88 11.09 11.88 8.36 9.63 6 5.35 2.99H12V0Z" />
<path transform="matrix(1,0,0,-1,1834.42,114.73)" d="M0 0C1.1-1.12 2.58-1.72 4.25-1.72 6.14-1.72 7.22-.645 7.22 .669 7.22 2.13 6.17 3.11 4.35 3.11 3.04 3.11 1.96 2.7 1 1.79L-1.36 2.44V11.54H9.58V8.63H1.96V4.64C2.8 5.38 4.09 5.95 5.54 5.95 8.24 5.95 10.66 4.04 10.66 .812 10.66-2.56 8.12-4.68 4.28-4.68 1.5-4.68-.502-3.78-1.86-2.29Z" />
<path transform="matrix(1,0,0,-1,98.34,96.89)" d="M0 0C.288 7.21 6.36 12.82 13.56 12.53 15.48 12.46 17.28 11.97 18.89 11.17 23.33 8.94 26.3 4.26 26.08-1.03 25.8-8.24 19.72-13.85 12.52-13.57 7.91-13.38 3.95-10.82 1.77-7.12 .554-5.03-.104-2.59 0 0M28.7-13.49C30.3-11.56 31.52-9.33 32.3-6.95 32.89-5.17 33.22-3.3 33.3-1.42 33.67 7.85 27.76 15.91 19.37 18.66 17.62 19.23 15.78 19.57 13.85 19.65 13.43 19.67-2.25 19.66-9.08 19.65-9.99 19.65-10.42 18.6-9.9 17.95-9.85 17.89-4.87 14.13-4.81 14.06-4.31 13.41-4.75 12.39-5.65 12.38L-22.29 12.38C-22.79 12.38-23.15 12.06-23.28 11.67-23.41 11.28-23.32 10.81-22.93 10.51L-9.7 .398C-8.9-.211-9.34-1.49-10.35-1.47-11.11-1.47-16.36-1.45-16.46-1.48-17.2-1.66-17.51-2.67-16.95-3.27-7.3-13.79 .69-18.76 8.14-20.3 12.11-21.29 16.37-21.05 20.2-19.6 23.36-18.44 26.02-16.53 28.09-14.2 28.3-13.97 28.5-13.73 28.7-13.49" fill="#ff5533" />
<path transform="matrix(1,0,0,-1,111.73,95.37)" d="M0 0C.049 1.34 1.18 2.39 2.52 2.34 3.86 2.3 4.91 1.17 4.86-.176 4.81-1.52 3.69-2.57 2.34-2.52 .999-2.47-.049-1.34 0 0M7.25-2.06C7.42 2.09 4.2 5.58 .053 5.74-4.09 5.91-7.58 2.68-7.75-1.46-7.91-5.61-4.69-9.1-.547-9.26 3.6-9.43 7.09-6.2 7.25-2.06" fill="#ff5533" />
<path transform="matrix(1,0,0,-1,144.34,84)" d="M0 0C-1.95 .369-3.03 .685-3.03 1.61-3.03 2.37-2.45 2.98-.948 2.98 .605 2.98 2.53 2.37 4 1.16L6.48 4.4C4.61 6 2.16 6.84-.658 6.84-5.16 6.84-7.66 4.29-7.66 1.34-7.66-2.82-3.61-3.55-.711-4.13 1.16-4.53 2.29-4.92 2.29-5.92 2.29-6.77 1.34-7.42-.21-7.42-2.61-7.42-4.55-6.37-5.82-5.11L-8.21-8.5C-6.45-10.19-3.98-11.29-.421-11.29 4.29-11.29 6.9-8.95 6.9-5.42 6.9-1.45 2.9-.605 0 0" fill="#ff5533" />
<path transform="matrix(1,0,0,-1,160.91,95.36)" d="M0 0C5.66 0 8.17 4.02 8.17 8.39V17.88H3.49V7.9C3.49 5.82 2.4 4 0 4-2.43 4-3.52 5.82-3.52 7.9V17.88H-8.2V8.36C-8.2 4.04-5.66 0 0 0" fill="#ff5533" />
<path transform="matrix(1,0,0,-1,180.62,117.41)" d="M0 0C5.66 0 8.17 4.02 8.17 8.39V17.88H3.49V7.9C3.49 5.82 2.4 4 0 4-2.43 4-3.52 5.82-3.52 7.9V17.88H-8.2V8.36C-8.2 4.04-5.66 0 0 0" fill="#ff5533" />
<path transform="matrix(1,0,0,-1,177.1,84.49)" d="M0 0 7.67-10.7H11.69V7.01H7.02V-3.19L-.284 7.01H-4.68V-10.7H0Z" fill="#ff5533" />
<path transform="matrix(1,0,0,-1,144.34,106.21)" d="M0 0C-1.95 .368-3.03 .685-3.03 1.61-3.03 2.37-2.45 2.98-.948 2.98 .605 2.98 2.53 2.37 4 1.16L6.48 4.4C4.61 6 2.16 6.84-.658 6.84-5.16 6.84-7.66 4.29-7.66 1.34-7.66-2.82-3.61-3.55-.711-4.13 1.16-4.53 2.29-4.92 2.29-5.92 2.29-6.77 1.34-7.42-.21-7.42-2.61-7.42-4.55-6.37-5.82-5.11L-8.21-8.5C-6.45-10.19-3.98-11.29-.421-11.29 4.29-11.29 6.9-8.95 6.9-5.42 6.9-1.45 2.9-.605 0 0" fill="#ff5533" />
<path transform="matrix(1,0,0,-1,152.71,103.54)" d="M0 0H6.01V-13.7H10.69V0H16.37V4.01H0Z" fill="#ff5533" />
<path transform="matrix(1,0,0,-1,199.33,113.23)" d="M0 0H-2.85V9.69H.026C3.25 9.69 4.88 7.58 4.88 4.86 4.88 2.24 3.09 0 0 0M-.095 13.7H-7.53V-4.01H-.069C5.48-4.01 9.49-.637 9.49 4.86 9.49 10.35 5.48 13.7-.095 13.7" fill="#ff5533" />
<path transform="matrix(1,0,0,-1,0,1080)" d="M211.51 962.76H216.19V980.46H211.51Z" fill="#ff5533" />
<path transform="matrix(1,0,0,-1,194.27,95.27)" d="M0 0C1.4 0 2.53 1.13 2.53 2.53 2.53 3.93 1.4 5.06 0 5.06-1.4 5.06-2.53 3.93-2.53 2.53-2.53 1.13-1.4 0 0 0" fill="#ff5533" />
<path transform="matrix(1,0,0,-1,227.84,113.26)" d="M0 0C-2.68 0-4.86 2.17-4.86 4.86-4.86 7.54-2.68 9.71 0 9.71 2.68 9.71 4.85 7.54 4.85 4.86 4.85 2.17 2.68 0 0 0M0 13.96C-5.03 13.96-9.11 9.88-9.11 4.86-9.11-.174-5.03-4.25 0-4.25 5.03-4.25 9.11-.174 9.11 4.86 9.11 9.88 5.03 13.96 0 13.96" fill="#ff5533" />
<path transform="matrix(1,0,0,-1,1744.15,998.25)" d="M0 0C11.93-.042 21.63 9.61 21.64 21.54L22.57 746.21C22.63 768.68 4.43 790.8-18.04 790.8H-197.52C-205.51 790.8-507.49 792.82-507.49 792.82-507.49 792.82-515.06 829.72-520.34 839.33-525.62 848.94-535.12 848.94-541.45 848.94H-849.58C-860.05 848.94-864.27 846.32-868.49 838.46-872.71 830.6-889.6 791.9-889.6 791.9V24.62C-889.6 12.74-879.99 3.09-868.11 3.05Z" fill="#97e342" />
<path transform="matrix(1,0,0,-1,1725.17,362.76)" d="M0 0H-829.53C-845.44 0-858.34 12.9-858.34 28.81V115.37C-858.34 131.28-845.44 144.18-829.53 144.18H0C15.91 144.18 28.81 131.28 28.81 115.37V28.81C28.81 12.9 15.91 0 0 0" fill="#ffffff" />
<path transform="matrix(1,0,0,-1,1725.17,518.07)" d="M0 0H-829.53C-845.44 0-858.34 12.9-858.34 28.81V115.37C-858.34 131.28-845.44 144.18-829.53 144.18H0C15.91 144.18 28.81 131.28 28.81 115.37V28.81C28.81 12.9 15.91 0 0 0" fill="#ffffff" />
<path transform="matrix(1,0,0,-1,1725.17,673.37)" d="M0 0H-829.53C-845.44 0-858.34 12.9-858.34 28.81V115.37C-858.34 131.28-845.44 144.18-829.53 144.18H0C15.91 144.18 28.81 131.28 28.81 115.37V28.81C28.81 12.9 15.91 0 0 0" fill="#ffffff" />
<path transform="matrix(1,0,0,-1,1725.17,828.68)" d="M0 0H-829.53C-845.44 0-858.34 12.9-858.34 28.81V115.37C-858.34 131.28-845.44 144.18-829.53 144.18H0C15.91 144.18 28.81 131.28 28.81 115.37V28.81C28.81 12.9 15.91 0 0 0" fill="#ffffff" />
<path transform="matrix(1,0,0,-1,1725.17,983.99)" d="M0 0H-829.53C-845.44 0-858.34 12.9-858.34 28.81V115.37C-858.34 131.28-845.44 144.18-829.53 144.18H0C15.91 144.18 28.81 131.28 28.81 115.37V28.81C28.81 12.9 15.91 0 0 0" fill="#ffffff" />
</g>
<text fill="#333333" xml:space="preserve" transform="matrix(1 0 -0 1 0 1080)" font-size="32" font-family="ProximaNova-Bold" font-weight="bold"><tspan y="-338.7051" x="277.0635 293.6171 310.62193 337.88594 346.0779 361.16593 378.17713 396.54515 404.73713 422.96113 440.65715 448.84913 467.24275 485.22035 503.43476 519.4028 527.5948 538.38198 556.66036 573.69076 591.96597 610.6859 618.8779 634.41397 652.5963 670.8875 685.01876 699.6107">Làm sao để được thăng chức? </tspan></text>
<text fill="#97e342" xml:space="preserve" transform="matrix(1 0 -0 1 0 1080)" font-size="112.1178" font-family="ProximaNova-Bold" font-weight="bold"><tspan y="-597.2549" x="149.918 219.99163">2.</tspan></text>
<text fill="#333333" xml:space="preserve" transform="matrix(1 0 -0 1 0 1080)" font-size="24" font-family="ProximaNova-Semibold" font-weight="bold"><tspan y="-360.7891" x="899.5947 915.9099 921.4995 934.8363 946.7643 952.9323 960.5019 973.9875 986.6907 1000.1763 1014.09628 1020.2643 1031.9667 1045.409 1058.9019 1070.8298 1076.9978 1088.1818 1101.5498 1107.7178 1121.5491 1134.8955 1148.609 1160.537 1166.705 1178.5825 1191.2545 1204.8626 1211.0305 1224.4537 1237.9417 1250.6737 1262.6017 1268.7697 1280.6929 1293.5569 1299.7249 1313.4601 1327.1161 1338.7874 1352.0498 1359.7058 1365.8738 1379.9978 1385.6378 1399.061 1412.693 1418.861 1432.7905 1446.5089 1452.293 1458.4609 1473.929 1492.3034 1509.3434 1515.5114 1529.2969 1542.8593 1555.7233 1561.8912 1569.4608 1577.5056 1590.7393 1604.3473 1610.5153 1624.2241 1637.5922 1643.7601 1655.4818 1668.9867 1681.6947 1689.3507 1695.5187 1707.1947 1720.6996 1733.5636">Việc thăng chức sẽ được cân nhắc và quyết định bởi BOD dựa trên đề xuất của </tspan><tspan y="-331.9891" x="899.5947 918.03396 931.5387 944.2395 957.8475 964.0155 969.8235 980.6451 986.5251 992.6931 1006.3731 1019.0739 1039.0659 1045.2339 1059.0482 1071.7826 1085.5346 1091.7025 1105.5098 1118.1818 1132.1018 1138.2698 1152.0651 1165.5531 1179.4732 1185.6411 1197.5211 1210.2244 1222.1524 1228.3203 1235.8899 1241.4531 1254.6436 1268.2516 1274.4196 1286.122 1299.5691 1304.9164">Quản lý, đảm bảo đáp ứng các tiêu chí:</tspan><tspan y="-303.18913" x="919.58676 937.58676 952.33718 965.01638 972.58596 978.19717 991.6851 1005.6051 1011.77316 1033.4308 1050.8164 1065.0316 1078.8796 1085.0476 1097.0956 1103.2636 1120.678 1138.6588 1160.3308 1166.4988 1173.9148 1187.5228 1193.6908 1213.5195 1227.0123 1238.9403 1245.1083 1257.2451 1270.5916 1284.6675 1292.3235 1298.4915 1311.905 1323.977 1330.145 1341.8283 1355.489 1368.977 1382.8971 1389.0651 1396.6347 1404.7202 1418.4722 1424.6401 1430.3067 1443.5403">•Rating WHAT + HOW từ mức vượt kỳ vọng trở lên</tspan><tspan y="-274.38914" x="919.58676 937.58676 951.8139 964.5147 978.1227 984.2907 995.5203 1008.1923 1021.6803 1035.6004 1041.7683 1055.1915 1068.6771 1081.3779 1094.986 1101.1539 1108.7235 1122.1659 1135.7739 1141.9419 1149.5092 1162.9683 1175.6715 1187.3739 1201.0059 1207.1738 1219.0995 1231.9635 1238.1315 1251.9387 1264.6107 1278.5308 1284.6987 1298.494 1311.982 1325.9021 1332.0701 1343.7101 1356.903 1370.511 1376.679 1388.5878 1401.2478 1414.8558 1421.0238 1432.5126 1446.1445 1459.6301 1473.5502 1479.7182 1491.8286 1497.4182 1510.755 1522.683 1528.851 1540.527 1554.0319 1566.8959 1573.0639 1584.9727 1597.6183 1611.5383 1617.7063 1631.3983 1645.1503 1651.3182 1658.8903 1664.4799 1677.6535 1691.5735 1697.7415 1705.3087 1718.7822 1732.0902">•Sẵn sàng nhận thử thách và đáp ứng yêu cầu công việc của cấp độ tiếp theo</tspan></text>
<text fill="#333333" xml:space="preserve" transform="matrix(1 0 -0 1 0 1080)" font-size="32" font-family="ProximaNova-Bold" font-weight="bold"><tspan y="-631.6729" x="277.0635 300.4875 308.2315 325.63633 344.16435 352.35633 370.84593 378.94194 387.1339 404.1643 422.33393 440.89393 449.0859 467.2683 485.24275 503.49235 521.76437 540.4844 548.6764 566.9004 584.2284 602.7564 610.9484 627.1596 644.7052 655.5212 663.7132 682.0748 700.3757">Điều gì ảnh hưởng đến kết quả</tspan><tspan y="-593.2729" x="277.0635 295.57554 312.58357 330.75956 349.31956 357.51155 375.90516 383.60435 400.98036 409.17234 424.66035 442.96113 460.3371 468.52909 479.03147 497.06986 504.90025">đánh giá của tôi?</tspan></text>
<text fill="#97e342" xml:space="preserve" transform="matrix(1 0 -0 1 0 1080)" font-size="112.1178" font-family="ProximaNova-Bold" font-weight="bold"><tspan y="-449.6807" x="150 218.61609">3.</tspan></text>
<text fill="#333333" xml:space="preserve" transform="matrix(1 0 -0 1 0 1080)" font-size="24" font-family="ProximaNova-Semibold" font-weight="bold"><tspan y="-629.332" x="899.5947 913.61557 926.8779 934.53396 940.70199 954.43716 967.9419 980.8059 986.97396 1000.80276 1014.1515 1027.8627 1039.7907 1045.9586 1057.3298 1070.5635 1090.5554 1096.7234 1108.0946 1121.3307 1128.9867 1135.1547 1148.9426 1162.505 1175.369 1181.537 1189.1066 1197.1514 1210.385 1223.993 1230.161 1244.441 1250.609 1262.2778 1275.4514 1289.0595 1295.2274 1302.521 1316.273 1322.4409 1334.1433 1347.5905 1353.2113 1366.6321 1379.8753 1385.7553 1391.9232 1405.9441 1419.2066 1426.8626 1433.0305 1446.7658 1460.2682 1473.1322 1479.3002 1490.7865 1504.4185 1517.9065 1531.8265 1537.9945 1550.105 1555.6946 1569.0314 1580.9594 1587.1273 1594.2986 1615.9562 1633.3418 1647.557 1661.7578 1667.9282 1673.8082">Kết quả được xem xét dựa trên 2 yếu tố chính: Kết quả công việc (WHAT), </tspan><tspan y="-600.532" x="899.5947 916.08999 928.78598 940.48837 954.12039 960.2884 974.1028 986.79879 1000.4068 1006.5748 1012.19088 1024.8628 1044.8547 1051.0227 1063.1332 1068.7228 1082.0596 1093.9876 1100.1555 1106.7628 1124.1771 1142.158 1164.4396 1170.8956">Cách bạn làm việc (HOW).</tspan></text>
<g clip-path="url(#clip_2)">
<path transform="matrix(1,0,0,-1,625.98,579.18)" stroke-width="2" stroke-linecap="butt" stroke-miterlimit="10" stroke-linejoin="miter" fill="none" stroke="#ff5533" d="M0 0V0" />
</g>
<text fill="#333333" xml:space="preserve" transform="matrix(1 0 -0 1 0 1080)" font-size="32" font-family="ProximaNova-Bold" font-weight="bold"><tspan y="-491.0889" x="277.0635 300.3083 317.3131 335.48274 354.04273 362.2347 380.62834 388.32756 405.70356 413.89555 429.3579 447.66194 465.60435 473.70036 481.89234 500.13877 517.1692 544.43319 552.6252 567.902 586.26998 594.462 602.2156 609.91799 627.35159 645.8796 654.0716 672.4332 690.70846 707.7132 726.2412 734.4332 752.65408 769.98208 788.5101">Đánh giá cuối năm có liên quan đến </tspan><tspan y="-452.6889" x="277.0635 295.6299 313.88273 330.88435 341.70036 349.89234 360.67955 371.7419 379.46675 396.92597 415.45399 423.64598 441.92118 460.29557 478.46516 496.16117 504.35316 522.62838 541.0028 559.198 566.9228 584.38198 603.1019 611.29397 626.782 645.0828 662.4588 670.6508 681.1564 699.19479 707.2908 715.4828 732.42678 750.67959 768.8107 787.08596 804.1995">phát triển nghề nghiệp của tôi không?</tspan></text>
<text fill="#97e342" xml:space="preserve" transform="matrix(1 0 -0 1 0 1080)" font-size="112.1178" font-family="ProximaNova-Bold" font-weight="bold"><tspan y="-300.7119" x="150 219.73728">4.</tspan></text>
<text fill="#333333" xml:space="preserve" transform="matrix(1 0 -0 1 0 1080)" font-size="24" font-family="ProximaNova-Semibold" font-weight="bold"><tspan y="-496.4248" x="899.5947 915.9315 929.2083 935.0883 941.25637 958.63479 971.30679 984.7299 998.36196 1004.52999 1018.2891 1023.8883 1036.7523 1042.9203 1054.5675 1068.0819 1081.6419 1087.4259 1093.5939 1107.0556 1119.7588 1139.7507 1145.9187 1159.6755 1165.234 1178.6669 1192.5869 1198.7549 1212.5692 1225.27 1238.878 1245.046 1256.9717 1269.8357 1276.0037 1289.7389 1303.2413 1315.9446 1329.5526 1335.7206 1341.5287 1353.6007 1359.7687 1373.1919 1386.651 1392.2383 1405.8463 1412.0143 1420.071 1433.823 1439.991 1454.0886 1459.6782 1472.9407 1492.9326 1499.1006 1518.975 1531.6758 1545.099 1558.6614 1564.5414 1570.7094 1584.8046 1590.3942 1603.6566 1623.6486 1629.8165 1641.7254 1654.4262 1668.0342 1674.2022 1686.1133 1698.7853 1704.5693">Có. Đánh giá cuối năm giúp bạn và quản lý nhìn rõ điểm mạnh, điểm cần cải </tspan><tspan y="-467.62483" x="899.5947 907.1643 920.6043 926.2011 939.4635 953.0715 959.2395 971.1651 984.0291 990.19717 997.7667 1011.25479 1023.98678 1037.7388 1043.9067 1049.482 1062.9869 1075.6878 1089.2958 1095.4638 1107.1373 1120.5054 1126.6734 1140.7974 1146.4374 1159.8606 1173.4926 1179.6605 1193.1029 1206.4494 1220.1845 1233.6725 1247.5925 1253.7605 1267.2485 1280.9957 1294.3565 1307.7245 1313.8925 1327.3805 1341.1277 1354.5676 1360.1644 1373.4244 1387.3445 1393.5125 1406.9765 1419.6773 1439.6692 1445.8372 1459.8268 1473.982 1487.9717 1502.3788">thiện và thảo luận về định hướng nghề nghiệp năm 2026.</tspan></text>
<text fill="#333333" xml:space="preserve" transform="matrix(1 0 -0 1 0 1080)" font-size="32" font-family="ProximaNova-Bold" font-weight="bold"><tspan y="-189.8408" x="277.0635 293.8827 311.9211 320.01713 328.2091 343.4891 361.85713 370.0491 388.44593 406.42036 424.63798 440.60597 448.79795 464.10993 481.54676 508.81077 517.00277 533.2139 550.7595 561.5755 569.7675 588.126 606.4268 623.8028 631.9948 650.50686 667.51486 685.68447 704.24447 712.43649 730.8301 738.5293">Tôi có được xem kết quả đánh giá</tspan><tspan y="-151.4408" x="277.0635 292.55149 310.8523 328.2283 336.4203 363.38349 371.1019 389.2683 407.8283 416.0203 434.3883 442.5803 461.0923 478.0171 494.9387">của mình ở đâu?</tspan></text>
<text fill="#97e342" xml:space="preserve" transform="matrix(1 0 -0 1 0 1080)" font-size="112.1178" font-family="ProximaNova-Bold" font-weight="bold"><tspan y="-152.083" x="150 220.97057">5.</tspan></text>
<text fill="#333333" xml:space="preserve" transform="matrix(1 0 -0 1 0 1080)" font-size="24" font-family="ProximaNova-Semibold" font-weight="bold"><tspan y="-182.8271" x="899.5947 915.9315 929.2083 935.0883 941.25637 959.69558 973.2003 985.9011 999.5091 1005.6771 1011.4851 1023.5571 1029.7251 1037.2947 1045.4403 1058.9331 1070.8611 1077.029 1084.6011 1090.1884 1103.3644 1117.2844 1123.4524 1134.6364 1148.0044 1154.1724 1161.742 1169.9115 1182.6171 1196.369 1202.537 1216.229 1229.825 1235.609 1241.777 1253.7962 1267.0586 1274.7146 1280.8826 1294.6178 1308.1227 1320.9867 1327.1547 1338.8379 1352.5538 1358.3379 1364.5059 1378.3202 1391.021 1404.629 1410.797 1418.3666 1426.4282 1440.0578 1453.5458 1467.4658 1473.6338 1487.4458 1500.9602 1514.5562 1520.3402 1526.5082 1535.6282 1541.4194 1550.5394 1556.7074 1564.2747 1572.3339 1585.9658 1599.4539 1613.3739 1619.5419 1627.1091 1640.6091 1654.3275 1660.1116">Có. Quản lý trực tiếp sẽ trao đổi kết quả với bạn trong buổi 1:1 trong thời </tspan><tspan y="-154.0271" x="899.5947 913.35397 918.9459 931.6179 945.2235">gian </tspan></text>
<text fill="#333333" xml:space="preserve" transform="matrix(1 0 -0 1 0 1080)" font-size="24" font-family="ProximaNova-Extrabld"><tspan y="-154.0271" x="951.39157 966.24758 980.55636 988.1788 1002.6748 1017.2836 1025.4413 1039.8893 1054.3853 1068.8333 1083.6412 1089.7853 1104.0149 1110.1589 1120.9782 1135.299 1142.9213 1157.4172 1172.0237 1180.1836 1194.6316 1209.13 1223.578">05/02/2026 – 10/02/2026</tspan></text>
<text fill="#333333" xml:space="preserve" transform="matrix(1 0 -0 1 0 1080)" font-size="24" font-family="ProximaNova-Semibold" font-weight="bold"><tspan y="-154.0271" x="1238.1627">.</tspan></text>
<text fill="#f2f2f2" xml:space="preserve" transform="matrix(1 0 -0 1 0 1080)" font-size="48" font-family="ProximaNova-Black" font-weight="bold"><tspan y="-878.2393" x="899.5952 934.136 947.04318 973.14077 986.58078 998.8208 1027.0928 1053.2767">Giải đáp</tspan></text>
<text fill="#1a1a1a" xml:space="preserve" transform="matrix(1 0 -0 1 0 1080)" font-size="48" font-family="ProximaNova-Black" font-weight="bold"><tspan y="-878.2393" x="169.2752 202.56801 228.608 257.69599 269.93598 298.54399 325.66398">Câu hỏi</tspan></text>
</g>
<g ns1:groupmode="layer" ns1:label="Page 16">
</g>
<g ns1:groupmode="layer" ns1:label="Page 15">
</g>
<g ns1:groupmode="layer" ns1:label="Page 14">
</g>
<g ns1:groupmode="layer" ns1:label="Page 13">
</g>
<g ns1:groupmode="layer" ns1:label="Page 12">
</g>
<g ns1:groupmode="layer" ns1:label="Page 11">
</g>
<g ns1:groupmode="layer" ns1:label="Page 10">
</g>
<g ns1:groupmode="layer" ns1:label="Page 9">
</g>
<g ns1:groupmode="layer" ns1:label="Page7">
</g>
<g ns1:groupmode="layer" ns1:label="Page 8">
</g>
<g ns1:groupmode="layer" ns1:label="7">
</g>
<g ns1:groupmode="layer" ns1:label="Layer 31">
</g>
<g ns1:groupmode="layer" ns1:label="8">
</g>
<g ns1:groupmode="layer" ns1:label="Page 5">
</g>
<g ns1:groupmode="layer" ns1:label="Page 3">
</g>
<g ns1:groupmode="layer" ns1:label="Page 2">
<text fill="#333333" xml:space="preserve" transform="matrix(1 0 -0 1 0 1080)" font-size="32" font-family="ProximaNova-Bold" font-weight="bold"><tspan y="-782.9697" x="277.0645 300.3093 317.31413 335.48374 354.04374 362.23573 380.62934 388.32856 405.70457 413.89656 429.35893 447.65974 465.60215 473.69816 481.89015 500.13658 517.167 544.43099 552.623 571.0198 588.9942 607.2118 623.1798 631.3718 642.159 649.9254 668.09506 686.655">Đánh giá cuối năm được tính </tspan><tspan y="-744.5697" x="277.0645 287.8517 299.0133 317.14454 335.41975 354.13975 362.33174 379.27253 397.52534 415.65974 432.69013 450.96534 469.68534 477.87733 488.66453 506.94294 525.1541 533.2501 541.44216 559.8357 567.5349 584.5397 603.0677 611.2597 629.4805 646.4917 663.11569">trong khoảng thời gian nào?</tspan></text>
<text fill="#97e342" xml:space="preserve" transform="matrix(1 0 -0 1 0 1080)" font-size="112.1178" font-family="ProximaNova-Bold" font-weight="bold"><tspan y="-745.6025" x="149.918 198.80136">1.</tspan></text>
<text fill="#333333" xml:space="preserve" transform="matrix(1 0 -0 1 0 1080)" font-size="24" font-family="ProximaNova-Semibold" font-weight="bold"><tspan y="-797.3848" x="899.5947 916.97317 929.64517 943.0683 956.7003 962.86837 976.6275 982.2267 995.0907 1001.2587 1015.04678 1028.6091 1041.4732 1047.6411 1055.2107 1063.2555 1076.4891 1090.0972 1096.2651 1108.2843 1121.5492 1129.2052 1135.3732 1149.1084 1162.6133 1175.4773 1181.6453 1187.2614 1199.9334 1219.9253 1226.0933 1238.2037 1243.7933 1257.1301 1269.0581 1275.2261 1282.6445 1296.2526">Đánh giá dựa trên kết quả làm việc từ </tspan></text>
<text fill="#333333" xml:space="preserve" transform="matrix(1 0 -0 1 0 1080)" font-size="24" font-family="ProximaNova-Extrabld"><tspan y="-797.3848" x="1302.4205 1317.4829 1327.9805 1336.1405 1350.598 1365.0917 1379.5564 1394.3645 1400.5086 1414.4334 1427.4414 1441.6735 1447.8175 1458.2743 1472.8806 1481.0407 1495.4982 1509.9942 1524.4566">01/2025 đến 12/2025</tspan></text>
<text fill="#333333" xml:space="preserve" transform="matrix(1 0 -0 1 0 1080)" font-size="24" font-family="ProximaNova-Semibold" font-weight="bold"><tspan y="-797.3848" x="1539.2667 1545.4347 1551.8187 1559.3883 1567.5363 1581.1443 1587.3123 1607.1986 1620.8234 1628.4794 1634.6473 1645.8193 1659.5713"> (trừ một số </tspan><tspan y="-768.58486" x="899.5947 907.1643 915.3123 928.7499 942.4851 955.9707 969.8907 976.0587 989.5587 1003.29397 1017.2139 1023.38198 1037.1412 1049.8733 1061.8013 1067.9692 1081.7669 1087.3589 1100.6213 1108.2774 1114.4453 1122.0149 1135.4861 1148.7941 1162.546 1168.714 1180.4164 1193.8635 1199.4819 1212.9027 1226.5347 1232.7026 1243.9323 1256.6355 1268.3379 1281.9699 1288.1378 1299.6266 1313.2586 1326.7442 1340.6642 1346.8322 1355.0282 1366.9827 1373.441">trường hợp đặc biệt theo chính sách công ty).</tspan></text>
</g>
<g ns1:groupmode="layer" ns1:label="Page 1">
</g>
<g ns1:groupmode="layer" ns1:label="bleed">
</g>
<g ns1:groupmode="layer" ns1:label="Layer 8">
</g>
</g>
</svg>