<?xml version='1.0' encoding='utf-8'?>
<svg xmlns="http://www.w3.org/2000/svg" xmlns:ns1="http://www.inkscape.org/namespaces/inkscape" version="1.1" width="1920" height="1080" viewBox="0 0 1920 1080">
<defs>
<clipPath id="clip_1">
<path transform="matrix(1,0,0,-1,0,1080)" d="M0 1080H1920V0H0Z" />
</clipPath>
<clipPath id="clip_2">
<path transform="matrix(1,0,0,-1,0,1080)" d="M0 1080H1920V0H0Z" />
</clipPath>
</defs>
<g>
<g ns1:groupmode="layer" ns1:label="Layer 1">
<text xml:space="preserve" transform="matrix(1 0 -0 1 0 1080)" font-size="20" font-family="ProximaNova-Bold" font-weight="bold"><tspan y="-991.2163" x="72.3477 84.26771 98.881717 113.643718 118.91572 131.78173 137.28772 149.33972 161.20973 174.06974 179.18973 191.06974 203.05773 214.93773">SUN.RISER 2026</tspan></text>
<text xml:space="preserve" transform="matrix(1 0 -0 1 0 1080)" font-size="20" font-family="ProximaNova-Regular"><tspan y="-74.99628" x="72.3477 87.1877 98.4857 110.1017 121.399707 133.21971 138.37972 150.01372 164.11373 178.46973 183.27173 195.01773 206.26973 220.37174 234.39174 239.21173 254.51174 259.67173 272.92774 282.90977 293.10978 298.26979 310.4658 315.2458 329.6838 343.7878 355.0098 366.7298 371.8898 384.0498 395.4298 407.19383 418.57383 430.52583 443.78184 455.16184">©2026 SUN.STUDIO ALL RIGHTS RESERVED</tspan></text>
<text xml:space="preserve" transform="matrix(1 0 -0 1 0 1080)" font-size="20" font-family="ProximaNova-Semibold" font-weight="bold"><tspan y="-74.99628" x="1832.2477">6</tspan></text>
<g clip-path="url(#clip_1)">
<path transform="matrix(1,0,0,-1,1823.42,75)" d="M0 0H-173.985C-185.5 0-194.835-9.335-194.835-20.85-194.835-32.366-185.5-41.701-173.985-41.701H0C11.516-41.701 20.851-32.366 20.851-20.85 20.851-9.335 11.516 0 0 0M0-1C10.946-1 19.851-9.905 19.851-20.85 19.851-31.796 10.946-40.701 0-40.701H-173.985C-184.931-40.701-193.835-31.796-193.835-20.85-193.835-9.905-184.931-1-173.985-1Z" fill="#444454" />
</g>
<text xml:space="preserve" transform="matrix(1 0 -0 1 0 1080)" font-size="20" font-family="ProximaNova-Regular"><tspan y="-976.8037" x="1650.9551 1665.331 1677.9011 1691.0612 1696.2212 1710.2212 1721.6012 1732.2952 1745.5512 1757.5252 1768.7792 1785.1052 1796.4852 1810.5093">HRA DEPARTMENT</tspan></text>
<text xml:space="preserve" transform="matrix(1 0 -0 1 0 1080)" font-size="55" font-family="ProximaNova-Extrabld"><tspan y="-900.457" x="75.6465 106.5895 122.29751 162.7335 203.48851 217.56851 257.9165 297.874 339.3495 379.6095 419.3745 433.4545 472.20204 510.0805 545.4455 559.5255 600.484 640.744 680.50906 694.58908 732.4676 748.1701 780.7136 821.41366">TÌNH HUỐNG GẶP ỨNG VIÊN </tspan><tspan y="-840.45199" x="75.6465 102.3655 137.791 178.106 220.23601 234.31601 274.9995 316.6895 343.8045 357.88453 393.31004 433.79554 449.85554 463.93556 498.31056 538.62557 580.31558 620.57559 660.3406 674.4206 709.3621 747.25717">“KHÓ ĐỠ” KHI PHỎNG VẤN</tspan></text>
<g clip-path="url(#clip_2)">
<path transform="matrix(1,0,0,-1,1246.9113,450.40333)" d="M0 0V-323.959C0-351.271-22.14-373.411-49.452-373.411-85.05-373.411-113.907-402.269-113.907-437.866-113.907-465.178-136.047-487.318-163.359-487.318H-523.605C-551.339-487.318-573.823-464.835-573.823-437.101V0C-573.823 27.734-551.339 50.217-523.605 50.217H-50.218C-22.483 50.217 0 27.734 0 0" fill="#00de96" />
<path transform="matrix(1,0,0,-1,1246.9113,450.40333)" stroke-width="2" stroke-linecap="butt" stroke-miterlimit="10" stroke-linejoin="miter" fill="none" stroke="#000000" d="M0 0V-323.959C0-351.271-22.14-373.411-49.452-373.411-85.05-373.411-113.907-402.269-113.907-437.866-113.907-465.178-136.047-487.318-163.359-487.318H-523.605C-551.339-487.318-573.823-464.835-573.823-437.101V0C-573.823 27.734-551.339 50.217-523.605 50.217H-50.218C-22.483 50.217 0 27.734 0 0Z" />
<path transform="matrix(1,0,0,-1,1197.462,838.8236)" d="M0 0C-27.31 0-49.449-22.139-49.449-49.449-49.449-76.759-27.31-98.898 0-98.898 27.31-98.898 49.449-76.759 49.449-49.449 49.449-22.139 27.31 0 0 0M0-3C25.612-3 46.449-23.837 46.449-49.449 46.449-75.061 25.612-95.898 0-95.898-25.612-95.898-46.449-75.061-46.449-49.449-46.449-23.837-25.612-3 0-3" fill="#333333" />
<path transform="matrix(1,0,0,-1,1176.5568,867.4564)" stroke-width="3" stroke-linecap="round" stroke-linejoin="round" fill="none" stroke="#333333" d="M0 0H41.648V-41.648" />
<path transform="matrix(1,0,0,-1,1176.5568,909.1042)" stroke-width="3" stroke-linecap="round" stroke-linejoin="round" fill="none" stroke="#333333" d="M0 0 41.648 41.648" />
<path transform="matrix(1,0,0,-1,1846.7277,450.40333)" d="M0 0V-323.959C0-351.271-22.14-373.411-49.452-373.411-85.05-373.411-113.907-402.269-113.907-437.866-113.907-465.178-136.047-487.318-163.359-487.318H-523.605C-551.339-487.318-573.823-464.835-573.823-437.101V0C-573.823 27.734-551.339 50.217-523.605 50.217H-50.217C-22.483 50.217 0 27.734 0 0" fill="#ff81b7" />
<path transform="matrix(1,0,0,-1,1846.7277,450.40333)" stroke-width="2" stroke-linecap="butt" stroke-miterlimit="10" stroke-linejoin="miter" fill="none" stroke="#000000" d="M0 0V-323.959C0-351.271-22.14-373.411-49.452-373.411-85.05-373.411-113.907-402.269-113.907-437.866-113.907-465.178-136.047-487.318-163.359-487.318H-523.605C-551.339-487.318-573.823-464.835-573.823-437.101V0C-573.823 27.734-551.339 50.217-523.605 50.217H-50.217C-22.483 50.217 0 27.734 0 0Z" />
<path transform="matrix(1,0,0,-1,1797.2785,838.8236)" d="M0 0C-27.31 0-49.449-22.139-49.449-49.449-49.449-76.759-27.31-98.898 0-98.898 27.31-98.898 49.449-76.759 49.449-49.449 49.449-22.139 27.31 0 0 0M0-3C25.612-3 46.449-23.837 46.449-49.449 46.449-75.061 25.612-95.898 0-95.898-25.612-95.898-46.449-75.061-46.449-49.449-46.449-23.837-25.612-3 0-3" fill="#333333" />
<path transform="matrix(1,0,0,-1,1776.3732,867.4564)" stroke-width="3" stroke-linecap="round" stroke-linejoin="round" fill="none" stroke="#333333" d="M0 0H41.648V-41.648" />
<path transform="matrix(1,0,0,-1,1776.3732,909.1042)" stroke-width="3" stroke-linecap="round" stroke-linejoin="round" fill="none" stroke="#333333" d="M0 0 41.648 41.648" />
<path transform="matrix(1,0,0,-1,647.0949,450.40333)" d="M0 0V-323.959C0-351.271-22.14-373.411-49.452-373.411-85.05-373.411-113.907-402.269-113.907-437.866-113.907-465.178-136.048-487.318-163.359-487.318H-523.605C-551.339-487.318-573.823-464.835-573.823-437.101V0C-573.823 27.734-551.339 50.217-523.605 50.217H-50.218C-22.483 50.217 0 27.734 0 0" fill="#eec9ff" />
<path transform="matrix(1,0,0,-1,647.0949,450.40333)" stroke-width="2" stroke-linecap="butt" stroke-miterlimit="10" stroke-linejoin="miter" fill="none" stroke="#000000" d="M0 0V-323.959C0-351.271-22.14-373.411-49.452-373.411-85.05-373.411-113.907-402.269-113.907-437.866-113.907-465.178-136.048-487.318-163.359-487.318H-523.605C-551.339-487.318-573.823-464.835-573.823-437.101V0C-573.823 27.734-551.339 50.217-523.605 50.217H-50.218C-22.483 50.217 0 27.734 0 0Z" />
<path transform="matrix(1,0,0,-1,597.6459,838.8236)" d="M0 0C-27.31 0-49.449-22.139-49.449-49.449-49.449-76.759-27.31-98.898 0-98.898 27.31-98.898 49.449-76.759 49.449-49.449 49.449-22.139 27.31 0 0 0M0-3C25.612-3 46.449-23.837 46.449-49.449 46.449-75.061 25.612-95.898 0-95.898-25.612-95.898-46.449-75.061-46.449-49.449-46.449-23.837-25.612-3 0-3" fill="#333333" />
<path transform="matrix(1,0,0,-1,576.7404,867.4564)" stroke-width="3" stroke-linecap="round" stroke-linejoin="round" fill="none" stroke="#333333" d="M0 0H41.648V-41.648" />
<path transform="matrix(1,0,0,-1,576.7404,909.1042)" stroke-width="3" stroke-linecap="round" stroke-linejoin="round" fill="none" stroke="#333333" d="M0 0 41.648 41.648" />
</g>
<text xml:space="preserve" transform="matrix(1 0 -0 1 0 1080)" font-size="56" font-family="ProximaNova-Extrabld"><tspan y="-549.8477" x="119.3916 160.1036 191.5756 206.4716 220.8076 253.1924 268.0884 282.4244 314.94923 345.0212 378.06123 392.39723 424.94444 454.15403 717.6956 753.4796 785.0468 817.7228 849.3628 869.5228 883.8588 916.50686 948.19729 976.19729">Hỏi gì đáp nấyRobot học </tspan><tspan y="-482.6477" x="717.6956 737.64846 770.05007 802.58609 834.2765 862.2765 876.6125 909.09249 939.01327">thuộc bài</tspan><tspan y="-549.8477" x="1316.3916 1359.0524 1386.9011 1417.0459 1436.9987 1454.6499 1481.2276 1512.8115 1545.2523 1579.1995 1611.6234 1641.7738 1674.0802">Over-conﬁdent</tspan></text>
<text xml:space="preserve" transform="matrix(1 0 -0 1 0 1080)" font-size="36" font-family="ProximaNova-BoldIt" font-weight="bold" font-style="italic"><tspan y="-262.876" x="119.3916 135.6456 161.5944 182.69042 191.90642 209.28722 227.89922">“Dạ có”</tspan><tspan y="-219.67601" x="119.3916 135.6456 161.5944 182.69042 191.90642 212.71083 221.35083 240.79084 252.90843">“Dạ biết”</tspan><tspan y="-358.204" x="718.1436 734.3976 755.2596 785.9316 795.1476 815.6208 836.01119 856.6752 865.8912 874.75436 893.22238 902.43838 914.664 934.9284 955.5348 973.326 992.784 1004.952 1014.168 1038.3348 1061.7565 1086.1465">“Em nhớ lý thuyết ABC”</tspan><tspan y="-315.004" x="718.1436 734.3976 755.2596 785.9316 795.1476 803.99276 824.8115 855.4835 864.6995 876.9252 897.35519 917.022 937.686 946.902 967.548 987.7872 1008.17758 1026.1416 1035.3576 1050.1284 1059.3444 1068.5603 1090.3475 1099.5635">“Em làm theo bước 1, 2, </tspan><tspan y="-271.804" x="718.1436 739.4412 748.6572 757.8732 779.36526 788.58126 800.8069 821.2405 840.9073 861.5713 870.7873 891.0157 911.2513 931.7425 952.11489 973.17489 982.39089 1003.0909 1023.90609 1043.1301">3, 4 theo hướng dẫn”</tspan><tspan y="-228.60399" x="718.1436 734.3976 755.2596 785.9316 795.1476 815.52359 836.30636 856.7183 865.82638 875.04238 883.884 904.65957 913.40756 922.1555 927.6383">“Em nghĩ là...”</tspan><tspan y="-351.616" x="1316.3916 1332.1416 1349.8969 1369.5852 1390.4039 1421.0759 1430.2919 1449.7787 1480.4507 1489.6666 1510.5178 1531.6138 1540.8297 1549.6749 1570.4937 1601.1657 1610.3816 1623.0752 1643.7572 1655.9252">“Team em đã làm rất </tspan><tspan y="-308.416" x="1316.3916 1336.8648 1357.356 1365.9924 1385.4108 1406.2548 1415.4707 1436.1095 1456.9535 1466.1694 1486.9918 1507.8358 1517.0518 1529.2774 1549.7505 1570.5692 1591.0424 1611.9224 1621.1383 1638.519 1658.8914 1679.2673 1699.251">nhiều dự án thành công”</tspan><tspan y="-265.21598" x="1316.3916 1332.6024 1357.0681 1377.7609 1395.3505 1416.2305 1425.4464 1442.7048 1463.2356 1484.3316 1493.5475 1513.0343 1543.7063 1552.9223 1561.7675 1582.8634 1592.0794 1604.0349 1624.2777 1636.4457">“Cách của em là tốt </tspan><tspan y="-222.01598" x="1316.3916 1336.8756 1357.2876 1377.9696 1390.1376 1399.3535 1412.029 1432.333 1440.6167">nhất rồi”</tspan></text>
</g>
<g ns1:groupmode="layer" ns1:label="Layer 2">
</g>
</g>
</svg>