<?xml version='1.0' encoding='utf-8'?>
<svg xmlns="http://www.w3.org/2000/svg" xmlns:ns1="http://www.inkscape.org/namespaces/inkscape" version="1.1" width="1920" height="1080" viewBox="0 0 1920 1080">
<defs>
<clipPath id="clip_1">
<path transform="matrix(1,0,0,-1,0,1080)" d="M0 1080H1920V0H0Z" />
</clipPath>
<clipPath id="clip_2">
<path transform="matrix(1,0,0,-1,0,1080)" d="M0 1080H1920V0H0Z" />
</clipPath>
</defs>
<g>
<g ns1:groupmode="layer" ns1:label="Layer 1">
</g>
<g ns1:groupmode="layer" ns1:label="Layer 2">
</g>
<g ns1:groupmode="layer" ns1:label="Page18">
<path transform="matrix(1,0,0,-1,0,1080)" d="M0 0H1920V1080H0Z" fill="#f2f2f2" />
<text xml:space="preserve" transform="matrix(1 0 -0 1 0 1080)" font-size="20" font-family="ProximaNova-Semibold" font-weight="bold"><tspan y="-67.9043" x="75.0928 89.9888 101.6688 113.4908 125.1708 137.1908 142.3308 154.1468 168.62682 183.25482 188.47481 200.31682 211.62483 226.10485 240.35884 245.57285">©2026 SUN.STUDIO</tspan></text>
<text xml:space="preserve" transform="matrix(1 0 -0 1 0 1080)" font-size="20" font-family="ProximaNova-Regular"><tspan y="-67.9043" x="260.8728 266.0328 279.28883 289.27085 299.47087 304.63087 316.82688 321.60688 336.0449 350.14689 361.36888 373.08888 378.24888 390.40888 401.78889 413.55488 424.93489 436.88688 450.14289 461.5229"> ALL RIGHTS RESERVED</tspan></text>
<text xml:space="preserve" transform="matrix(1 0 -0 1 0 1080)" font-size="20" font-family="ProximaNova-Semibold" font-weight="bold"><tspan y="-67.9043" x="1825.3128 1832.9528">19</tspan></text>
<g clip-path="url(#clip_1)">
<path transform="matrix(1,0,0,-1,1653.11,110.28)" d="M0 0V-8.33C0-8.69 .31-8.98 .693-8.98H8.02C8.4-8.98 8.71-8.69 8.71-8.33V2.58C8.71 3.08 8.29 3.22 7.94 3.06 5.5 2 2.59 1.18 .644 .697 .26 .601 0 .32 0 0" />
<path transform="matrix(1,0,0,-1,1673.5,108.26)" d="M0 0C-.828-.775-2.05-1.72-3.5-1.72-4.89-1.72-5.96-.4-6.6 .4-6.81 .66-7.37 .498-7.37 .046V-10.34C-7.37-10.71-7.06-11-6.67-11H.655C1.04-11 1.35-10.71 1.35-10.34V.163C1.35 .669 .844 .812 .577 .576 .391 .412 .156 .146 0 0" />
<path transform="matrix(1,0,0,-1,1686.96,87.35)" d="M0 0C-1.73-3.26-4.65-6.98-7.4-9.16-7.66-9.37-7.81-9.73-7.81-10.03V-31.25C-7.81-31.65-7.5-31.91-7.12-31.91H.214C.597-31.91 .907-31.66 .907-31.25V-.178C.902 .301 .232 .438 0 0" />
<path transform="matrix(1,0,0,-1,1677.26,86.19)" d="M0 0C-1.83 .073-3.25 1.61-3.17 3.44-3.1 5.27-1.56 6.69 .265 6.62 2.09 6.54 3.51 5 3.44 3.18 3.37 1.35 1.83-.073 0 0M6.35 11.04C.214 10.99-6.8 7.28-11.02 2.96-14.49 2.96-20.89 1.97-23.19-.92-23.67-1.52-23.48-2.32-22.78-2.63-22.12-2.92-18.26-3.8-18.11-3.98-18.47-4.71-18.46-5.05-17.99-5.7-17.94-5.78-17.88-5.85-17.82-5.93-17.62-5.91-17.41-5.89-17.2-5.89H-17.11C-14.76-5.92-12.7-7.28-11.72-9.44-11.19-10.61-11.05-11.87-11.27-13.06-11.03-13.34-10.8-13.62-10.58-13.91-10.11-14.42-9.57-14.3-8.99-14.1-8.57-15.55-8.58-17.56-8.07-18.94-7.8-19.68-7.01-19.85-6.36-19.46-5.98-19.23-5.03-18.07-4.73-17.66-2.64-14.85-1.74-11.21-1.38-7.77 3.37-4.06 7.8 2.59 8.47 8.7 8.7 10.8 8.47 11.06 6.35 11.04" fill="#ff5533" />
<path transform="matrix(1,0,0,-1,1660.13,93.54)" d="M0 0C-3.46 .045-4.62-3.22-5.72-5.88-6.17-6.96-7.09-9.07-7.26-10.13-7.34-10.62-7.15-11.06-6.74-11.31-6.22-11.62-5.83-11.39-5.29-11.26-3.22-10.76 2.1-9.13 3.42-7.58 5.91-4.66 3.87-.05 0 0" fill="#ff5533" />
<path transform="matrix(1,0,0,-1,1712.58,83.5)" d="M0 0H-3.61V-4.4H0C1.34-4.4 2.34-3.54 2.34-2.2 2.34-.884 1.34 0 0 0M-7-13.02V2.92H.454C3.92 2.92 5.81 .573 5.81-2.22 5.81-5 3.9-7.31 .454-7.31H-3.61V-13.02Z" />
<path transform="matrix(1,0,0,-1,1722.4,89.66)" d="M0 0H5.69C5.62 1.1 4.85 2.56 2.84 2.56 .956 2.56 .143 1.15 0 0M2.84 4.97C6.29 4.97 8.63 2.39 8.63-1.39V-2.06H.047C.239-3.51 1.41-4.73 3.37-4.73 4.45-4.73 5.71-4.3 6.45-3.58L7.79-5.54C6.62-6.62 4.83-7.14 3.04-7.14-.478-7.14-3.13-4.78-3.13-1.07-3.13 2.27-.669 4.97 2.84 4.97" />
<path transform="matrix(1,0,0,-1,1733.23,96.52)" d="M0 0V11.54H3.04V9.96C3.85 10.99 5.28 11.8 6.71 11.8V8.84C6.5 8.89 6.21 8.91 5.88 8.91 4.88 8.91 3.54 8.36 3.04 7.62V0Z" />
<path transform="matrix(1,0,0,-1,1745.56,87.63)" d="M0 0V-8.89H-3.06V0H-4.97V2.65H-3.06V3.27C-3.06 5.78-1.43 7.29 .836 7.29 1.7 7.29 2.48 7.1 3.04 6.81L2.41 4.66C2.15 4.83 1.79 4.9 1.43 4.9 .573 4.9 0 4.33 0 3.23V2.65H2.34V0Z" />
<path transform="matrix(1,0,0,-1,1757.97,90.74)" d="M0 0C0 1.79-1.07 3.35-2.96 3.35-4.85 3.35-5.9 1.79-5.9 0-5.9-1.82-4.85-3.37-2.96-3.37-1.07-3.37 0-1.82 0 0M-9.06 0C-9.06 3.27-6.76 6.05-2.96 6.05 .86 6.05 3.15 3.27 3.15 0 3.15-3.3 .86-6.07-2.96-6.07-6.76-6.07-9.06-3.3-9.06 0" />
<path transform="matrix(1,0,0,-1,1763.37,96.52)" d="M0 0V11.54H3.04V9.96C3.85 10.99 5.28 11.8 6.71 11.8V8.84C6.5 8.89 6.21 8.91 5.88 8.91 4.88 8.91 3.54 8.36 3.04 7.62V0Z" />
<path transform="matrix(1,0,0,-1,1786.29,96.52)" d="M0 0V7.29C0 8.36-.478 9.13-1.72 9.13-2.8 9.13-3.68 8.41-4.11 7.79V0H-7.17V7.29C-7.17 8.36-7.65 9.13-8.89 9.13-9.94 9.13-10.82 8.41-11.28 7.77V0H-14.31V11.54H-11.28V10.04C-10.8 10.73-9.27 11.83-7.5 11.83-5.81 11.83-4.73 11.04-4.3 9.73-3.63 10.78-2.1 11.83-.335 11.83 1.79 11.83 3.06 10.71 3.06 8.34V0Z" />
<path transform="matrix(1,0,0,-1,1799.27,92.32)" d="M0 0C-.501 .669-1.46 1-2.44 1-3.63 1-4.61 .358-4.61-.741-4.61-1.82-3.63-2.44-2.44-2.44-1.46-2.44-.501-2.1 0-1.43ZM0-4.21V-3.01C-.788-3.94-2.15-4.49-3.66-4.49-5.5-4.49-7.67-3.25-7.67-.669-7.67 2.03-5.5 3.01-3.66 3.01-2.13 3.01-.764 2.53 0 1.6V3.2C0 4.37-1 5.14-2.53 5.14-3.78 5.14-4.92 4.68-5.9 3.78L-7.05 5.81C-5.64 7.05-3.82 7.62-2.01 7.62 .622 7.62 3.04 6.57 3.04 3.25V-4.21Z" />
<path transform="matrix(1,0,0,-1,1813.1,96.52)" d="M0 0V6.98C0 8.58-.836 9.13-2.13 9.13-3.32 9.13-4.25 8.46-4.76 7.77V0H-7.79V11.54H-4.76V10.04C-4.01 10.92-2.6 11.83-.717 11.83 1.82 11.83 3.04 10.39 3.04 8.15V0Z" />
<path transform="matrix(1,0,0,-1,1824.53,84.69)" d="M0 0C2.37 0 3.8-1.03 4.56-2.1L2.58-3.94C2.03-3.15 1.19-2.7 .143-2.7-1.7-2.7-2.99-4.04-2.99-6.05-2.99-8.05-1.7-9.41 .143-9.41 1.19-9.41 2.03-8.94 2.58-8.17L4.56-10.01C3.8-11.09 2.37-12.12 0-12.12-3.56-12.12-6.12-9.61-6.12-6.05-6.12-2.51-3.56 0 0 0" />
<path transform="matrix(1,0,0,-1,1833.47,89.66)" d="M0 0H5.69C5.62 1.1 4.85 2.56 2.84 2.56 .956 2.56 .144 1.15 0 0M2.84 4.97C6.29 4.97 8.63 2.39 8.63-1.39V-2.06H.047C.239-3.51 1.41-4.73 3.37-4.73 4.45-4.73 5.71-4.3 6.45-3.58L7.79-5.54C6.62-6.62 4.83-7.14 3.04-7.14-.478-7.14-3.13-4.78-3.13-1.07-3.13 2.27-.669 4.97 2.84 4.97" />
<path transform="matrix(1,0,0,-1,1712.53,106.11)" d="M0 0H-3.56V-4.4H0C1.36-4.4 2.39-3.54 2.39-2.2 2.39-.86 1.36 0 0 0M2.06-13.02-1.07-7.31H-3.56V-13.02H-6.95V2.92H.502C3.82 2.92 5.86 .741 5.86-2.22 5.86-5.04 4.09-6.55 2.37-6.95L5.95-13.02Z" />
<path transform="matrix(1,0,0,-1,1722.55,112.27)" d="M0 0H5.69C5.62 1.1 4.85 2.56 2.84 2.56 .956 2.56 .144 1.15 0 0M2.84 4.97C6.29 4.97 8.63 2.39 8.63-1.39V-2.06H.047C.239-3.51 1.41-4.73 3.37-4.73 4.45-4.73 5.71-4.3 6.45-3.58L7.79-5.54C6.62-6.62 4.83-7.14 3.04-7.14-.478-7.14-3.13-4.78-3.13-1.07-3.13 2.27-.669 4.97 2.84 4.97" />
<path transform="matrix(1,0,0,-1,1736.36,119.13)" d="M0 0-4.64 11.54H-1.39L1.62 3.51 4.64 11.54H7.91L3.27 0Z" />
<path transform="matrix(1,0,0,-1,0,1080)" d="M1745.63 972.41H1748.67V960.87H1745.63ZM1745.32 975.92C1745.32 976.93 1746.16 977.74 1747.14 977.74 1748.14 977.74 1748.96 976.93 1748.96 975.92 1748.96 974.92 1748.14 974.11 1747.14 974.11 1746.16 974.11 1745.32 974.92 1745.32 975.92" />
<path transform="matrix(1,0,0,-1,1754.07,112.27)" d="M0 0H5.69C5.62 1.1 4.85 2.56 2.84 2.56 .956 2.56 .144 1.15 0 0M2.84 4.97C6.29 4.97 8.63 2.39 8.63-1.39V-2.06H.047C.239-3.51 1.41-4.73 3.37-4.73 4.45-4.73 5.71-4.3 6.45-3.58L7.79-5.54C6.62-6.62 4.83-7.14 3.04-7.14-.478-7.14-3.13-4.78-3.13-1.07-3.13 2.27-.669 4.97 2.84 4.97" />
<path transform="matrix(1,0,0,-1,1775.03,119.13)" d="M0 0-2.44 7.86-4.88 0H-8.12L-11.64 11.54H-8.48L-6.33 3.78-3.8 11.54H-1.1L1.43 3.78 3.58 11.54H6.74L3.23 0Z" />
<path transform="matrix(1,0,0,-1,1789.01,119.13)" d="M0 0V2.68C6.52 7.48 8.44 9.13 8.44 11.09 8.44 12.47 7.17 13.17 5.83 13.17 4.04 13.17 2.65 12.45 1.58 11.33L-.358 13.57C1.2 15.37 3.56 16.18 5.78 16.18 9.18 16.18 11.88 14.27 11.88 11.09 11.88 8.36 9.63 6 5.35 2.99H12V0Z" />
<path transform="matrix(1,0,0,-1,1809.64,105.96)" d="M0 0C-2.29 0-3.15-2.27-3.15-5.21-3.15-8.15-2.29-10.44 0-10.44 2.27-10.44 3.13-8.15 3.13-5.21 3.13-2.27 2.27 0 0 0M0 3.01C4.54 3.01 6.6-1.1 6.6-5.21 6.6-9.32 4.54-13.45 0-13.45-4.56-13.45-6.6-9.32-6.6-5.21-6.6-1.1-4.56 3.01 0 3.01" />
<path transform="matrix(1,0,0,-1,1818.17,119.13)" d="M0 0V2.68C6.52 7.48 8.44 9.13 8.44 11.09 8.44 12.47 7.17 13.17 5.83 13.17 4.04 13.17 2.65 12.45 1.58 11.33L-.359 13.57C1.2 15.37 3.56 16.18 5.78 16.18 9.18 16.18 11.88 14.27 11.88 11.09 11.88 8.36 9.63 6 5.35 2.99H12V0Z" />
<path transform="matrix(1,0,0,-1,1834.42,114.73)" d="M0 0C1.1-1.12 2.58-1.72 4.25-1.72 6.14-1.72 7.22-.645 7.22 .669 7.22 2.13 6.17 3.11 4.35 3.11 3.04 3.11 1.96 2.7 1 1.79L-1.36 2.44V11.54H9.58V8.63H1.96V4.64C2.8 5.38 4.09 5.95 5.54 5.95 8.24 5.95 10.66 4.04 10.66 .812 10.66-2.56 8.12-4.68 4.28-4.68 1.5-4.68-.502-3.78-1.86-2.29Z" />
<path transform="matrix(1,0,0,-1,98.34,96.89)" d="M0 0C.288 7.21 6.36 12.82 13.56 12.53 15.48 12.46 17.28 11.97 18.89 11.17 23.33 8.94 26.3 4.26 26.08-1.03 25.8-8.24 19.72-13.85 12.52-13.57 7.91-13.38 3.95-10.82 1.77-7.12 .554-5.03-.104-2.59 0 0M28.7-13.49C30.3-11.56 31.52-9.33 32.3-6.95 32.89-5.17 33.22-3.3 33.3-1.42 33.67 7.85 27.76 15.91 19.37 18.66 17.62 19.23 15.78 19.57 13.85 19.65 13.43 19.67-2.25 19.66-9.08 19.65-9.99 19.65-10.42 18.6-9.9 17.95-9.85 17.89-4.87 14.13-4.81 14.06-4.31 13.41-4.75 12.39-5.65 12.38L-22.29 12.38C-22.79 12.38-23.15 12.06-23.28 11.67-23.41 11.28-23.32 10.81-22.93 10.51L-9.7 .398C-8.9-.211-9.34-1.49-10.35-1.47-11.11-1.47-16.36-1.45-16.46-1.48-17.2-1.66-17.51-2.67-16.95-3.27-7.3-13.79 .69-18.76 8.14-20.3 12.11-21.29 16.37-21.05 20.2-19.6 23.36-18.44 26.02-16.53 28.09-14.2 28.3-13.97 28.5-13.73 28.7-13.49" fill="#ff5533" />
<path transform="matrix(1,0,0,-1,111.73,95.37)" d="M0 0C.049 1.34 1.18 2.39 2.52 2.34 3.86 2.3 4.91 1.17 4.86-.176 4.81-1.52 3.69-2.57 2.34-2.52 .999-2.47-.049-1.34 0 0M7.25-2.06C7.42 2.09 4.2 5.58 .053 5.74-4.09 5.91-7.58 2.68-7.75-1.46-7.91-5.61-4.69-9.1-.547-9.26 3.6-9.43 7.09-6.2 7.25-2.06" fill="#ff5533" />
<path transform="matrix(1,0,0,-1,144.34,84)" d="M0 0C-1.95 .369-3.03 .685-3.03 1.61-3.03 2.37-2.45 2.98-.948 2.98 .605 2.98 2.53 2.37 4 1.16L6.48 4.4C4.61 6 2.16 6.84-.658 6.84-5.16 6.84-7.66 4.29-7.66 1.34-7.66-2.82-3.61-3.55-.711-4.13 1.16-4.53 2.29-4.92 2.29-5.92 2.29-6.77 1.34-7.42-.21-7.42-2.61-7.42-4.55-6.37-5.82-5.11L-8.21-8.5C-6.45-10.19-3.98-11.29-.421-11.29 4.29-11.29 6.9-8.95 6.9-5.42 6.9-1.45 2.9-.605 0 0" fill="#ff5533" />
<path transform="matrix(1,0,0,-1,160.91,95.36)" d="M0 0C5.66 0 8.17 4.02 8.17 8.39V17.88H3.49V7.9C3.49 5.82 2.4 4 0 4-2.43 4-3.52 5.82-3.52 7.9V17.88H-8.2V8.36C-8.2 4.04-5.66 0 0 0" fill="#ff5533" />
<path transform="matrix(1,0,0,-1,180.62,117.41)" d="M0 0C5.66 0 8.17 4.02 8.17 8.39V17.88H3.49V7.9C3.49 5.82 2.4 4 0 4-2.43 4-3.52 5.82-3.52 7.9V17.88H-8.2V8.36C-8.2 4.04-5.66 0 0 0" fill="#ff5533" />
<path transform="matrix(1,0,0,-1,177.1,84.49)" d="M0 0 7.67-10.7H11.69V7.01H7.02V-3.19L-.284 7.01H-4.68V-10.7H0Z" fill="#ff5533" />
<path transform="matrix(1,0,0,-1,144.34,106.21)" d="M0 0C-1.95 .368-3.03 .685-3.03 1.61-3.03 2.37-2.45 2.98-.948 2.98 .605 2.98 2.53 2.37 4 1.16L6.48 4.4C4.61 6 2.16 6.84-.658 6.84-5.16 6.84-7.66 4.29-7.66 1.34-7.66-2.82-3.61-3.55-.711-4.13 1.16-4.53 2.29-4.92 2.29-5.92 2.29-6.77 1.34-7.42-.21-7.42-2.61-7.42-4.55-6.37-5.82-5.11L-8.21-8.5C-6.45-10.19-3.98-11.29-.421-11.29 4.29-11.29 6.9-8.95 6.9-5.42 6.9-1.45 2.9-.605 0 0" fill="#ff5533" />
<path transform="matrix(1,0,0,-1,152.71,103.54)" d="M0 0H6.01V-13.7H10.69V0H16.37V4.01H0Z" fill="#ff5533" />
<path transform="matrix(1,0,0,-1,199.33,113.23)" d="M0 0H-2.85V9.69H.026C3.25 9.69 4.88 7.58 4.88 4.86 4.88 2.24 3.09 0 0 0M-.095 13.7H-7.53V-4.01H-.069C5.48-4.01 9.49-.637 9.49 4.86 9.49 10.35 5.48 13.7-.095 13.7" fill="#ff5533" />
<path transform="matrix(1,0,0,-1,0,1080)" d="M211.51 962.76H216.19V980.46H211.51Z" fill="#ff5533" />
<path transform="matrix(1,0,0,-1,194.27,95.27)" d="M0 0C1.4 0 2.53 1.13 2.53 2.53 2.53 3.93 1.4 5.06 0 5.06-1.4 5.06-2.53 3.93-2.53 2.53-2.53 1.13-1.4 0 0 0" fill="#ff5533" />
<path transform="matrix(1,0,0,-1,227.84,113.26)" d="M0 0C-2.68 0-4.86 2.17-4.86 4.86-4.86 7.54-2.68 9.71 0 9.71 2.68 9.71 4.85 7.54 4.85 4.86 4.85 2.17 2.68 0 0 0M0 13.96C-5.03 13.96-9.11 9.88-9.11 4.86-9.11-.174-5.03-4.25 0-4.25 5.03-4.25 9.11-.174 9.11 4.86 9.11 9.88 5.03 13.96 0 13.96" fill="#ff5533" />
<path transform="matrix(1,0,0,-1,1766.08,998.25)" d="M0 0C11.93-.042 21.63 9.61 21.64 21.54L22.57 746.21C22.63 768.68 4.43 790.8-18.04 790.8H-197.52C-205.51 790.8-507.49 792.82-507.49 792.82-507.49 792.82-515.06 829.72-520.34 839.33-525.62 848.94-535.12 848.94-541.45 848.94H-849.58C-860.05 848.94-864.27 846.32-868.49 838.46-872.71 830.6-889.6 791.9-889.6 791.9V24.62C-889.6 12.74-879.99 3.09-868.11 3.05Z" fill="#97e342" />
<path transform="matrix(1,0,0,-1,1747.1,362.76)" d="M0 0H-829.53C-845.44 0-858.34 12.9-858.34 28.81V115.37C-858.34 131.28-845.44 144.18-829.53 144.18H0C15.91 144.18 28.81 131.28 28.81 115.37V28.81C28.81 12.9 15.91 0 0 0" fill="#ffffff" />
<path transform="matrix(1,0,0,-1,1747.1,518.07)" d="M0 0H-829.53C-845.44 0-858.34 12.9-858.34 28.81V115.37C-858.34 131.28-845.44 144.18-829.53 144.18H0C15.91 144.18 28.81 131.28 28.81 115.37V28.81C28.81 12.9 15.91 0 0 0" fill="#ffffff" />
<path transform="matrix(1,0,0,-1,1747.1,673.37)" d="M0 0H-829.53C-845.44 0-858.34 12.9-858.34 28.81V115.37C-858.34 131.28-845.44 144.18-829.53 144.18H0C15.91 144.18 28.81 131.28 28.81 115.37V28.81C28.81 12.9 15.91 0 0 0" fill="#ffffff" />
<path transform="matrix(1,0,0,-1,1747.1,828.68)" d="M0 0H-829.53C-845.44 0-858.34 12.9-858.34 28.81V115.37C-858.34 131.28-845.44 144.18-829.53 144.18H0C15.91 144.18 28.81 131.28 28.81 115.37V28.81C28.81 12.9 15.91 0 0 0" fill="#ffffff" />
<path transform="matrix(1,0,0,-1,1747.1,983.99)" d="M0 0H-829.53C-845.44 0-858.34 12.9-858.34 28.81V115.37C-858.34 131.28-845.44 144.18-829.53 144.18H0C15.91 144.18 28.81 131.28 28.81 115.37V28.81C28.81 12.9 15.91 0 0 0" fill="#ffffff" />
</g>
<text fill="#333333" xml:space="preserve" transform="matrix(1 0 -0 1 0 1080)" font-size="32" font-family="ProximaNova-Bold" font-weight="bold"><tspan y="-636.0498" x="304.6641 323.7649 341.31053 352.12654 360.3185 378.6801 396.98094 414.35694 422.54893 441.0609 458.0689 476.23533 494.79533 502.9873 521.38088 529.0801 546.45608 554.6481 570.1361 588.43698 605.8129 614.00497 624.5105 642.54568 650.64169 658.8337 674.1137 692.4817">Kết quả đánh giá của tôi có </tspan><tspan y="-597.6498" x="304.6641 323.0609 341.03535 359.25297 375.22096 383.41294 401.80656 409.51216 428.04017 436.23216 454.73777 471.77137 490.13938 498.33137 525.36178 542.3889 553.2049 561.3969 578.3409 596.59048 614.72488 633.00009 650.1105">được giữ bảo mật không?</tspan></text>
<text fill="#97e342" xml:space="preserve" transform="matrix(1 0 -0 1 0 1080)" font-size="112.1178" font-family="ProximaNova-Bold" font-weight="bold"><tspan y="-597.2549" x="149.918 203.28607">7.</tspan></text>
<text fill="#333333" xml:space="preserve" transform="matrix(1 0 -0 1 0 1080)" font-size="24" font-family="ProximaNova-Semibold" font-weight="bold"><tspan y="-644.918" x="921.5244 937.8612 951.138 957.018 963.18606 977.20687 990.46926 998.12527 1004.2933 1018.02847 1031.5309 1044.3949 1050.5629 1064.3701 1077.0421 1090.4653 1104.0973 1110.2653 1124.0245 1129.6238 1142.4878 1148.6558 1160.3582 1173.815 1179.599 1185.767 1199.5983 1212.9472 1226.6583 1238.5863 1244.7543 1256.4542 1269.8966 1275.4934 1288.3574 1294.5254 1305.7094 1319.0774 1325.2454 1332.8126 1346.2861 1359.5918 1373.3438 1379.5117 1392.9973 1406.7326 1420.391 1432.0335 1445.2671 1458.8751 1465.0431 1472.6775 1485.4096 1497.3375 1503.5055 1515.4119 1528.1151 1541.7232 1547.8911 1561.6887 1567.2783 1580.5408 1588.588 1594.468 1600.636 1614.4192 1627.1272 1640.8792 1647.0471 1660.7512 1674.4096 1694.0391 1699.9191">Có. Kết quả đánh giá chỉ được chia sẻ theo nguyên tắc cần biết, bao gồm: </tspan><tspan y="-616.11807" x="921.5244 937.66439 951.1116 956.73 970.15316 983.78518 989.9532 1003.76766 1016.46847 1030.0068 1035.8869 1042.0548 1060.494 1073.9989 1086.6997 1100.3078 1106.4757 1112.2814 1124.3534 1130.5214 1138.091 1146.2366 1159.7318 1171.6598 1177.8278 1185.3998 1190.9894 1204.163 1217.7374 1223.6174 1229.7854 1247.0535 1260.5103 1273.1847 1286.7927 1292.9607 1304.1159 1317.7239 1323.8919 1329.503 1335.064 1348.3 1361.9081 1368.076 1381.8113 1395.2874 1407.9594 1421.4978">Chính bạn, Quản lý trực tiếp, Nhân sự liên quan.</tspan></text>
<text fill="#333333" xml:space="preserve" transform="matrix(1 0 -0 1 0 1080)" font-size="32" font-family="ProximaNova-Bold" font-weight="bold"><tspan y="-504.2393" x="304.6631 327.86949 345.1911 363.71913 371.9111 382.4135 400.45195 408.54795 416.73994 435.13676 453.11119 471.3256 487.29359 495.48558 510.82316 528.14797 546.8679 555.05996 562.8519 580.9831 597.9783 606.0743">Nếu tôi được xếp loại </tspan><tspan y="-465.8393" x="304.6631 318.89668 340.97349 358.00389 376.5319 384.72389 400.55747 417.55268 425.64869 433.84068 444.62788 462.82307 470.54789 488.01029 505.3671 520.0551 528.24716 539.0343 557.2423 565.3383 573.53036 588.81039 606.9415 625.21676 643.93679 652.1288 663.51119 679.9272 688.1192 703.1336 720.8296 729.0216 747.3 765.66799 773.86 784.64718 795.83438 814.20236">“Cần cải thiện” thì công ty sẽ hỗ trợ </tspan><tspan y="-427.4393" x="304.6631 315.4503 333.7287 351.42469 359.61668 377.83747 394.84867 411.48866">thế nào?</tspan></text>
<text fill="#97e342" xml:space="preserve" transform="matrix(1 0 -0 1 0 1080)" font-size="112.1178" font-family="ProximaNova-Bold" font-weight="bold"><tspan y="-449.6807" x="150 220.74634">8.</tspan></text>
<text fill="#333333" xml:space="preserve" transform="matrix(1 0 -0 1 0 1080)" font-size="24" font-family="ProximaNova-Semibold" font-weight="bold"><tspan y="-481.4258" x="921.5244 937.8612 951.4932 964.9812 978.9012 985.0692 993.2628 1005.33486 1011.50289 1022.6869 1036.0549 1042.2229 1056.0973 1069.5973 1083.1548 1088.9389 1095.1068 1108.6068 1122.3419 1136.262 1142.4299 1154.0772 1167.5123 1180.9979 1194.918 1201.0859 1214.9003 1227.6011 1241.2091 1247.3771 1259.3027 1272.1668 1278.3347 1292.07 1305.5724 1318.2732 1331.8812 1338.0492 1343.8573 1355.9293 1362.0973 1375.7893 1388.5982 1394.4782 1400.6461 1416.1981 1428.9014 1440.8294 1446.9973 1461.1213 1466.7614 1480.1846 1493.8165 1499.9845 1508.0437 1521.7957 1527.9636 1542.0588 1547.6484 1560.9109 1580.9028 1587.0708 1598.9796 1611.6804 1625.2885 1631.4564 1643.3652 1656.0397 1661.8237 1667.9917 1675.5613 1689.0037 1694.5982 1707.8606 1721.4686">Công ty sẽ phối hợp cùng bạn và quản lý để: Xác định rõ điểm cần cải thiện </tspan><tspan y="-452.62583" x="921.5244 933.45 946.314 952.48208 968.03408 980.4469 992.5189 998.68698 1012.475 1026.2678 1039.7559 1053.6759 1059.8439 1071.863 1085.2311 1091.399 1104.8703 1118.4926 1131.2269 1142.9293 1156.5613 1162.7293 1176.2293 1189.9812 1196.1492 1203.7188 1211.8043 1225.5563 1231.7243 1245.5986 1259.0122 1272.6203 1278.7882 1292.2858 1306.0209 1319.5953">và Xây dựng kế hoạch hỗ trợ phù hợp.</tspan></text>
<g clip-path="url(#clip_2)">
<path transform="matrix(1,0,0,-1,625.98,579.18)" stroke-width="2" stroke-linecap="butt" stroke-miterlimit="10" stroke-linejoin="miter" fill="none" stroke="#ff5533" d="M0 0V0" />
</g>
<text fill="#333333" xml:space="preserve" transform="matrix(1 0 -0 1 0 1080)" font-size="32" font-family="ProximaNova-Bold" font-weight="bold"><tspan y="-338.876" x="304.6631 323.7639 341.3095 352.12553 360.3175 378.6791 396.97993 414.35594 422.5479 441.0599 458.0679 476.23753 494.79753 502.9895 521.38308 529.0823 546.45828 554.65029 569.9303 588.2983 596.4903 614.8871 632.8615 651.0791 667.0471">Kết quả đánh giá có được </tspan><tspan y="-300.476" x="304.6631 312.39109 330.8839 349.41194 357.6039 365.41835 382.41355 390.50956 398.70155 415.64234 433.89515 452.02638 470.30158 487.41517">lưu lại không?</tspan></text>
<text fill="#97e342" xml:space="preserve" transform="matrix(1 0 -0 1 0 1080)" font-size="112.1178" font-family="ProximaNova-Bold" font-weight="bold"><tspan y="-300.7119" x="150 218.61609">9.</tspan></text>
<text fill="#333333" xml:space="preserve" transform="matrix(1 0 -0 1 0 1080)" font-size="24" font-family="ProximaNova-Semibold" font-weight="bold"><tspan y="-331.4561" x="921.5244 937.8612 951.138 957.018 963.18606 977.20687 990.46926 998.12527 1004.2933 1018.02847 1031.5309 1044.3949 1050.5629 1064.3701 1077.0421 1090.4653 1104.0973 1110.2653 1124.0245 1129.6238 1142.4878 1148.6558 1154.2598 1168.019 1181.6271 1187.795 1201.2183 1214.6654 1228.2734 1234.4414 1254.3278 1267.9501 1275.6061 1281.774 1295.6484 1309.098 1321.7988 1335.4069 1341.5748 1349.1421 1357.2037 1370.8357 1384.3213 1398.2413 1404.4093 1417.8253 1431.5773 1437.7453 1448.9172 1462.6692 1468.8372 1482.7116 1496.1683 1508.85 1516.506 1522.674 1530.2435 1538.3651 1543.9547 1557.2172 1570.8252 1576.9932 1590.4572 1603.158 1616.646 1630.566 1636.734 1642.338 1655.8285 1667.9053 1673.7853 1679.9533 1693.7125 1699.2686 1712.7037 1726.6238">Có. Kết quả đánh giá lưu như một phần trong hồ sơ phát triển năng lực, giúp </tspan><tspan y="-302.6561" x="921.5244 929.094 942.5652 955.8708 969.6228 975.79086 989.61489 1003.1797 1008.9637 1015.1317 1022.70376 1028.2933 1041.4669 1055.075 1061.2429 1068.8125 1076.9318 1082.519 1095.9423 1109.5742 1115.7422 1129.6166 1143.0757 1155.7549 1163.4109 1169.5789 1177.1461 1185.2702 1190.8598 1204.1222 1217.7302 1223.8982 1235.8239 1248.6879 1254.8558 1268.9799 1274.6199 1288.0407 1301.6726 1307.8406 1321.283 1334.6318 1348.367 1361.855 1375.775 1381.943 1395.431 1409.1782 1422.5366 1435.9047 1442.0726 1455.5582 1469.3054 1482.7478 1488.3423 1501.6047 1515.5248 1521.6928 1527.3112 1539.94 1553.548 1559.716 1573.528 1586.1736 1591.8568">theo dõi tiến trình phát triển và định hướng nghề nghiệp lâu dài.</tspan></text>
<text fill="#333333" xml:space="preserve" transform="matrix(1 0 -0 1 0 1080)" font-size="32" font-family="ProximaNova-Bold" font-weight="bold"><tspan y="-176.1514" x="304.6641 321.48329 339.5185 347.6145 355.8065 371.0865 389.2177 407.74574 415.9377 426.7249 445.00334 462.04014 478.00813 486.2001 513.2305 530.26736 546.23538 554.42739 565.2178 583.42257 591.51858 599.7106 614.9906 633.3586 641.5506 652.341 670.6162 688.3122 696.5042 714.7826 732.84658 740.94259 749.1346 766.1042 773.9346">Tôi còn thắc mắc thì có thể hỏi ai?</tspan></text>
<text fill="#97e342" xml:space="preserve" transform="matrix(1 0 -0 1 0 1080)" font-size="112.1178" font-family="ProximaNova-Bold" font-weight="bold"><tspan y="-152.083" x="150 198.88336 268.84489">10.</tspan></text>
<text fill="#333333" xml:space="preserve" transform="matrix(1 0 -0 1 0 1080)" font-size="24" font-family="ProximaNova-Semibold" font-weight="bold"><tspan y="-187.0547" x="921.5244 937.2636 949.9644 963.5724 969.7404 981.2292 994.9812 1001.14926 1008.71646 1022.21646 1035.5845 1041.7525 1047.3637 1052.9269 1066.1581 1079.7661 1085.9341 1099.4341 1112.2429 1118.1229">Bạn có thể liên hệ: </tspan><tspan y="-158.2547" x="921.5244 939.5244 956.7924 970.23489 983.84286 990.01089 1008.4501 1022.1348 1034.2716 1047.6948 1061.3268 1067.4948 1074.1188 1080.2868 1094.1611 1107.6035 1121.2116 1127.3795 1134.9491 1143.1187 1155.8242 1167.5266 1181.1586 1187.3265 1199.2066 1211.9098 1223.8378 1230.0057 1237.2561 1250.5042 1263.1762 1283.1681 1289.336 1303.2201 1316.7057 1330.465 1336.0786 1349.5234 1362.8314 1376.0651 1384.1867 1389.7979 1403.2859 1417.1796 1423.0596 1429.2276 1445.0747 1456.5659 1468.0523 1481.6434 1495.0786 1508.5523 1516.1243 1521.7355 1535.2211 1549.1411 1555.3091 1570.7411 1576.909 1594.398 1609.218 1615.842">-Như Quỳnh ( phụ trách các team Engineering, Accounting &amp; HR) </tspan><tspan y="-129.4547" x="921.5244 939.5244 956.526 962.1156 975.33718 988.9451 995.11318 1012.3788 1025.8212 1031.3844 1044.618 1058.2261 1064.394 1071.0181 1077.186 1091.0604 1104.5028 1118.1109 1124.2788 1131.8484 1140.018 1152.7235 1164.4259 1178.0579 1184.2258 1196.1058 1208.8091 1220.737 1226.905 1234.1531 1247.4011 1260.0756 1280.0675 1286.2355 1300.5612 1308.6251 1322.3483 1336.105 1349.593 1361.9627 1369.6187 1375.7866 1391.2186 1397.3866 1417.4674 1430.1394 1438.2587 1450.2492 1463.4852 1471.0573 1476.6685 1490.1565 1503.527">-Diệu Nhiên ( phụ trách các team Product &amp; Marketing)</tspan></text>
<text fill="#333333" xml:space="preserve" transform="matrix(1 0 -0 1 0 1080)" font-size="32" font-family="ProximaNova-Bold" font-weight="bold"><tspan y="-782.9697" x="304.665 327.8714 345.19624 363.72425 371.91624 382.42185 400.45707 408.55308 416.74507 433.68907 451.94187 470.0699 488.3483 507.0683 515.2603 533.49716 551.6571 569.92916 588.6492 596.8412 613.2572 621.4492 637.2028 655.414 663.51 671.702 687.9132 705.45559 716.27157 724.46359 742.8252 761.12606 778.502">Nếu tôi không đồng ý với kết quả </tspan><tspan y="-744.5697" x="304.665 323.17704 340.18507 358.36106 376.92106 385.11305 403.50666 411.20585 428.58186 436.77384 447.55784 465.76585 473.86503 482.057 497.145 514.169 530.79299">đánh giá thì sao?</tspan></text>
<text fill="#97e342" xml:space="preserve" transform="matrix(1 0 -0 1 0 1080)" font-size="112.1178" font-family="ProximaNova-Bold" font-weight="bold"><tspan y="-745.6025" x="149.918 220.88857">6.</tspan></text>
<text fill="#333333" xml:space="preserve" transform="matrix(1 0 -0 1 0 1080)" font-size="24" font-family="ProximaNova-Semibold" font-weight="bold"><tspan y="-823.7402" x="921.5254 937.2646 949.9654 963.57339 969.7414 981.65017 994.35098 1007.9589 1014.12698 1027.9125 1040.618 1054.37 1060.538 1072.2092 1085.5773 1091.7453 1107.1845 1120.9364 1127.1044 1141.4324 1154.9203 1167.6211 1181.2291 1187.3971 1204.778 1217.45 1230.8732 1244.5051 1250.6731 1266.8131 1280.2603 1285.8787 1299.2994 1312.9314 1319.0994 1334.5314 1340.6994 1357.9674 1371.4265 1384.0985 1397.7066 1403.8745 1418.1161 1431.7241 1437.8921 1451.5818 1464.9498 1471.1178 1484.9491 1498.298 1512.0092 1523.9371 1530.1051 1535.7212 1548.3932 1568.3851 1574.5531 1582.6099 1595.8866">Bạn cần báo về Bộ Phận Hành Chính &amp; Nhân Sự để được làm rõ.</tspan><tspan y="-794.9402" x="921.5254 938.9038 951.5758 964.99899 978.631 984.799 998.55819 1004.15737 1017.02139 1023.1894 1034.8367 1048.3535 1061.911 1067.6951 1073.863 1087.3247 1100.0255 1120.0175 1126.1854 1131.8038 1144.6679 1150.8358 1162.3534 1176.1054 1182.2733 1195.7733 1209.3668 1215.1509 1221.3189 1235.0109 1248.3789 1254.5469 1268.006 1280.6516 1286.4357 1292.6036 1306.5044 1319.738 1333.3461 1339.514 1347.0813 1355.2533 1367.9566 1381.7085 1387.8765 1401.5685 1415.1644 1420.8501 1426.7301 1432.8981 1445.4645 1458.9332 1472.5652 1486.0532 1499.9733 1506.1412 1520.0156 1533.5036 1546.178 1551.962 1558.13 1571.8652 1585.5237 1597.195 1610.4574 1618.1134 1624.2814 1638.4078 1644.0455 1657.4688 1671.1007 1677.2687 1697.155 1710.7774 1718.4334">Đánh giá cuối năm là cơ hội để hai bên trao đổi, không phải quyết định một </tspan><tspan y="-766.1402" x="921.5254 933.2278 946.6702 952.21188 965.4334 978.9934 984.8734 991.04147 1005.0598 1018.3222 1025.9782 1032.1461 1045.8814 1059.3862 1072.2503 1078.4182 1090.0654 1103.5823 1117.1398 1122.9238 1129.0918 1140.739 1154.1719 1167.6599 1181.58 1187.7479 1198.9296 1212.2976 1218.4656 1232.2969 1245.6458 1259.3545 1271.2825 1277.4505 1285.62 1298.484 1304.652 1315.7952 1329.3887 1342.0679 1349.7239 1355.8919 1369.6438 1375.8118 1387.7206 1400.3662 1414.2863 1420.4542 1431.943 1445.575 1459.063 1472.983 1479.151 1487.3446 1499.4166 1505.5846 1519.2766 1532.6447 1538.8126 1552.4951 1565.1935 1585.1854 1591.3534 1605.1677 1617.9021 1631.654">chiều. Kết quả cuối cùng sẽ được rà soát ở cấp công ty để đảm bảo </tspan><tspan y="-737.3402" x="921.5254 929.09506 934.71347 948.1366 961.7686 967.9366 979.42538 993.0574 1006.54537 1020.46536 1026.6333 1040.4573 1053.1581 1066.6461 1080.5158">tính công bằng.</tspan></text>
<text fill="#f2f2f2" xml:space="preserve" transform="matrix(1 0 -0 1 0 1080)" font-size="48" font-family="ProximaNova-Black" font-weight="bold"><tspan y="-878.2393" x="899.5952 934.136 947.04318 973.14077 986.58078 998.8208 1027.0928 1053.2767">Giải đáp</tspan></text>
<text fill="#1a1a1a" xml:space="preserve" transform="matrix(1 0 -0 1 0 1080)" font-size="48" font-family="ProximaNova-Black" font-weight="bold"><tspan y="-878.2393" x="169.2752 202.56801 228.608 257.69599 269.93598 298.54399 325.66398">Câu hỏi</tspan></text>
</g>
<g ns1:groupmode="layer" ns1:label="Page17">
</g>
<g ns1:groupmode="layer" ns1:label="Page 16">
</g>
<g ns1:groupmode="layer" ns1:label="Page 15">
</g>
<g ns1:groupmode="layer" ns1:label="Page 14">
</g>
<g ns1:groupmode="layer" ns1:label="Page 13">
</g>
<g ns1:groupmode="layer" ns1:label="Page 12">
</g>
<g ns1:groupmode="layer" ns1:label="Page 11">
</g>
<g ns1:groupmode="layer" ns1:label="Page 10">
</g>
<g ns1:groupmode="layer" ns1:label="Page 9">
</g>
<g ns1:groupmode="layer" ns1:label="Page7">
</g>
<g ns1:groupmode="layer" ns1:label="Page 8">
</g>
<g ns1:groupmode="layer" ns1:label="7">
</g>
<g ns1:groupmode="layer" ns1:label="Layer 31">
</g>
<g ns1:groupmode="layer" ns1:label="8">
</g>
<g ns1:groupmode="layer" ns1:label="Page 5">
</g>
<g ns1:groupmode="layer" ns1:label="Page 3">
</g>
<g ns1:groupmode="layer" ns1:label="Page 2">
</g>
<g ns1:groupmode="layer" ns1:label="Page 1">
</g>
<g ns1:groupmode="layer" ns1:label="bleed">
</g>
<g ns1:groupmode="layer" ns1:label="Layer 8">
</g>
</g>
</svg>