<?xml version='1.0' encoding='utf-8'?>
<svg xmlns="http://www.w3.org/2000/svg" xmlns:ns1="http://www.inkscape.org/namespaces/inkscape" version="1.1" width="960" height="540" viewBox="0 0 960 540">
<defs>
<clipPath id="clip_1">
<path transform="matrix(1,0,0,-1,0,540)" d="M0 540H960V0H0Z" />
</clipPath>
<clipPath id="clip_2">
<path transform="matrix(1,0,0,-1,0,540)" d="M0 540H960V0H0Z" />
</clipPath>
<clipPath id="clip_3">
<path transform="matrix(1,0,0,-1,0,540)" d="M0 540H960V0H0Z" />
</clipPath>
</defs>
<g>
<g ns1:groupmode="layer" ns1:label="Layer 1">
<g clip-path="url(#clip_1)">
<path transform="matrix(1,0,0,-1,842,30)" stroke-width="1" stroke-linecap="butt" stroke-miterlimit="10" stroke-linejoin="miter" fill="none" stroke="#000000" d="M0 0V0C0 4.74 3.84 8.58 8.58 8.58H66.65C71.39 8.58 75.23 4.74 75.23 0 75.23-4.74 71.39-8.58 66.65-8.58H8.58C3.84-8.58 0-4.74 0 0Z" />
</g>
<g clip-path="url(#clip_2)">
<path transform="matrix(1,0,0,-1,718.65,30)" d="M0 0V0C0 4.74 3.84 8.58 8.58 8.58H104.14C108.88 8.58 112.72 4.74 112.72 0 112.72-4.74 108.88-8.58 104.14-8.58H8.58C3.84-8.58 0-4.74 0 0" />
</g>
<g clip-path="url(#clip_3)">
<path transform="matrix(1,0,0,-1,50,453.46)" stroke-width="5" stroke-linecap="butt" stroke-linejoin="round" fill="none" stroke="#ff5533" d="M0 0H36.54V-36.54" />
<path transform="matrix(1,0,0,-1,50,490)" stroke-width="5" stroke-linecap="butt" stroke-linejoin="round" fill="none" stroke="#ff5533" d="M0 0 36.54 36.54" />
</g>
</g>
</g>
</svg>