<?xml version='1.0' encoding='utf-8'?>
<svg xmlns="http://www.w3.org/2000/svg" xmlns:ns1="http://www.inkscape.org/namespaces/inkscape" version="1.1" width="1622.07" height="607.959" viewBox="0 0 1622.07 607.959">
<defs>
<clipPath id="clip_1">
<path transform="matrix(1,0,0,-1,0,2623.16)" d="M0 2623.16H2938.83V0H0Z" />
</clipPath>
<clipPath id="clip_2">
<path transform="matrix(1,0,0,-1,0,2623.16)" d="M0 2623.16H2938.83V0H0Z" />
</clipPath>
<clipPath id="clip_3">
<path transform="matrix(1,0,0,-1,0,2623.16)" d="M0 2623.16H2938.83V0H0Z" />
</clipPath>
<clipPath id="clip_4">
<path transform="matrix(1,0,0,-1,0,2623.16)" d="M0 2623.16H2938.83V0H0Z" />
</clipPath>
<clipPath id="clip_5">
<path transform="matrix(1,0,0,-1,0,2623.16)" d="M0 2623.16H2938.83V0H0Z" />
</clipPath>
<clipPath id="clip_6">
<path transform="matrix(1,0,0,-1,0,2623.16)" d="M0 2623.16H2938.83V0H0Z" />
</clipPath>
<clipPath id="clip_7">
<path transform="matrix(1,0,0,-1,0,2623.16)" d="M0 2623.16H2938.83V0H0Z" />
</clipPath>
<clipPath id="clip_8">
<path transform="matrix(1,0,0,-1,0,2623.16)" d="M0 2623.16H2938.83V0H0Z" />
</clipPath>
<clipPath id="clip_9">
<path transform="matrix(1,0,0,-1,0,2623.16)" d="M0 2623.16H2938.83V0H0Z" />
</clipPath>
<clipPath id="clip_10">
<path transform="matrix(1,0,0,-1,0,2623.16)" d="M0 2623.16H2938.83V0H0Z" />
</clipPath>
<clipPath id="clip_11">
<path transform="matrix(1,0,0,-1,0,2623.16)" d="M0 2623.16H2938.83V0H0Z" />
</clipPath>
<clipPath id="clip_12">
<path transform="matrix(1,0,0,-1,0,2623.16)" d="M0 2623.16H2938.83V0H0Z" />
</clipPath>
<clipPath id="clip_13">
<path transform="matrix(1,0,0,-1,0,2623.16)" d="M0 2623.16H2938.83V0H0Z" />
</clipPath>
<clipPath id="clip_14">
<path transform="matrix(1,0,0,-1,0,2623.16)" d="M0 2623.16H2938.83V0H0Z" />
</clipPath>
<clipPath id="clip_15">
<path transform="matrix(1,0,0,-1,0,2623.16)" d="M0 2623.16H2938.83V0H0Z" />
</clipPath>
<clipPath id="clip_16">
<path transform="matrix(1,0,0,-1,0,2623.16)" d="M0 2623.16H2938.83V0H0Z" />
</clipPath>
<clipPath id="clip_17">
<path transform="matrix(1,0,0,-1,0,2623.16)" d="M0 2623.16H2938.83V0H0Z" />
</clipPath>
<clipPath id="clip_18">
<path transform="matrix(1,0,0,-1,0,2623.16)" d="M641.36-260.83H2197.89V1295.69H641.36Z" />
</clipPath>
<clipPath id="clip_19">
<path transform="matrix(1,0,0,-1,0,2623.16)" d="M858.48-43.71H1980.77V1078.57H858.48Z" />
</clipPath>
<clipPath id="clip_20">
<path transform="matrix(1,0,0,-1,0,2623.16)" d="M641.36-260.83H2197.89V1295.69H641.36Z" />
</clipPath>
</defs>
<g transform="translate(-620.52 -1730.09)"><g>
<g ns1:groupmode="layer" ns1:label="Layer 1">
<g clip-path="url(#clip_1)">
<path transform="matrix(1,0,0,-1,1836.32,467.94)" d="M0 0C-12.55 0-22.77 10.21-22.77 22.77V76.23C-22.77 88.79-12.55 99 0 99H676.3C688.85 99 699.06 88.79 699.06 76.23V22.77C699.06 10.21 688.85 0 676.3 0Z" fill="#ff5533" />
<path transform="matrix(1,0,0,-1,2512.62,366.93)" d="M0 0H-676.29C-689.98 0-701.06-11.09-701.06-24.77V-78.23C-701.06-91.91-689.98-103-676.29-103H0C13.68-103 24.77-91.91 24.77-78.23V-24.77C24.77-11.09 13.68 0 0 0M0-4C11.45-4 20.77-13.32 20.77-24.77V-78.23C20.77-89.69 11.45-99 0-99H-676.29C-687.75-99-697.06-89.69-697.06-78.23V-24.77C-697.06-13.32-687.75-4-676.29-4Z" fill="#ffffff" />
<path transform="matrix(1,0,0,-1,1839.52,576.66)" d="M0 0C-12.68 0-23 10.32-23 23V81.73C-23 94.41-12.68 104.73 0 104.73H675.84C688.52 104.73 698.84 94.41 698.84 81.73V23C698.84 10.32 688.52 0 675.84 0Z" fill="#f3f9ff" />
<path transform="matrix(1,0,0,-1,2515.37,469.94)" d="M0 0H-675.84C-689.65 0-700.84-11.19-700.84-25V-83.73C-700.84-97.53-689.65-108.73-675.84-108.73H0C13.8-108.73 25-97.53 25-83.73V-25C25-11.19 13.8 0 0 0M0-4C11.58-4 21-13.42 21-25V-83.73C21-95.31 11.58-104.73 0-104.73H-675.84C-687.42-104.73-696.84-95.31-696.84-83.73V-25C-696.84-13.42-687.42-4-675.84-4Z" fill="#ffffff" />
<path transform="matrix(1,0,0,-1,1197.24,467.94)" d="M0 0C-12.55 0-22.77 10.21-22.77 22.77V76.23C-22.77 88.79-12.55 99 0 99H586.93C599.49 99 609.7 88.79 609.7 76.23V22.77C609.7 10.21 599.49 0 586.93 0Z" fill="#ff5533" />
<path transform="matrix(1,0,0,-1,1784.18,366.93)" d="M0 0H-586.93C-600.61 0-611.7-11.09-611.7-24.77V-78.23C-611.7-91.91-600.61-103-586.93-103H0C13.68-103 24.77-91.91 24.77-78.23V-24.77C24.77-11.09 13.68 0 0 0M0-4C11.45-4 20.77-13.32 20.77-24.77V-78.23C20.77-89.69 11.45-99 0-99H-586.93C-598.39-99-607.7-89.69-607.7-78.23V-24.77C-607.7-13.32-598.39-4-586.93-4Z" fill="#ffffff" />
<path transform="matrix(1,0,0,-1,1200.08,576.66)" d="M0 0C-12.68 0-23 10.32-23 23V81.73C-23 94.41-12.68 104.73 0 104.73H586.48C599.16 104.73 609.48 94.41 609.48 81.73V23C609.48 10.32 599.16 0 586.48 0Z" fill="#f3f9ff" />
<path transform="matrix(1,0,0,-1,1786.56,469.94)" d="M0 0H-586.48C-600.28 0-611.48-11.19-611.48-25V-83.73C-611.48-97.53-600.28-108.73-586.48-108.73H0C13.8-108.73 25-97.53 25-83.73V-25C25-11.19 13.8 0 0 0M0-4C11.58-4 21-13.42 21-25V-83.73C21-95.31 11.58-104.73 0-104.73H-586.48C-598.06-104.73-607.48-95.31-607.48-83.73V-25C-607.48-13.42-598.06-4-586.48-4Z" fill="#ffffff" />
<path transform="matrix(1,0,0,-1,459.51,467.94)" d="M0 0C-12.55 0-22.77 10.21-22.77 22.77V76.23C-22.77 88.79-12.55 99 0 99H306.21C318.76 99 328.98 88.79 328.98 76.23V22.77C328.98 10.21 318.76 0 306.21 0Z" fill="#ff5533" />
<path transform="matrix(1,0,0,-1,765.72,366.93)" d="M0 0H-306.21C-319.88 0-330.98-11.09-330.98-24.77V-78.23C-330.98-91.91-319.88-103-306.21-103H0C13.68-103 24.77-91.91 24.77-78.23V-24.77C24.77-11.09 13.68 0 0 0M0-4C11.45-4 20.77-13.32 20.77-24.77V-78.23C20.77-89.69 11.45-99 0-99H-306.21C-317.66-99-326.98-89.69-326.98-78.23V-24.77C-326.98-13.32-317.66-4-306.21-4Z" fill="#ffffff" />
<path transform="matrix(1,0,0,-1,461.18,576.66)" d="M0 0C-12.68 0-23 10.32-23 23V81.73C-23 94.41-12.68 104.73 0 104.73H302.86C315.54 104.73 325.86 94.41 325.86 81.73V23C325.86 10.32 315.54 0 302.86 0Z" fill="#f3f9ff" />
<path transform="matrix(1,0,0,-1,764.04,469.94)" d="M0 0H-302.86C-316.67 0-327.86-11.19-327.86-25V-83.73C-327.86-97.53-316.67-108.73-302.86-108.73H0C13.8-108.73 25-97.53 25-83.73V-25C25-11.19 13.8 0 0 0M0-4C11.58-4 21-13.42 21-25V-83.73C21-95.31 11.58-104.73 0-104.73H-302.86C-314.44-104.73-323.86-95.31-323.86-83.73V-25C-323.86-13.42-314.44-4-302.86-4Z" fill="#ffffff" />
<path transform="matrix(1,0,0,-1,813.81,467.94)" d="M0 0C-12.55 0-22.77 10.21-22.77 22.77V76.23C-22.77 88.79-12.55 99 0 99H333.9C346.45 99 356.67 88.79 356.67 76.23V22.77C356.67 10.21 346.45 0 333.9 0Z" fill="#ff5533" />
<path transform="matrix(1,0,0,-1,1147.71,366.93)" d="M0 0H-333.9C-347.58 0-358.67-11.09-358.67-24.77V-78.23C-358.67-91.91-347.58-103-333.9-103H0C13.68-103 24.77-91.91 24.77-78.23V-24.77C24.77-11.09 13.68 0 0 0M0-4C11.45-4 20.77-13.32 20.77-24.77V-78.23C20.77-89.69 11.45-99 0-99H-333.9C-345.35-99-354.67-89.69-354.67-78.23V-24.77C-354.67-13.32-345.35-4-333.9-4Z" fill="#ffffff" />
<path transform="matrix(1,0,0,-1,814.04,576.66)" d="M0 0C-12.68 0-23 10.32-23 23V81.73C-23 94.41-12.68 104.73 0 104.73H333.44C346.12 104.73 356.44 94.41 356.44 81.73V23C356.44 10.32 346.12 0 333.44 0Z" fill="#f3f9ff" />
<path transform="matrix(1,0,0,-1,1147.48,469.94)" d="M0 0H-333.44C-347.25 0-358.44-11.19-358.44-25V-83.73C-358.44-97.53-347.25-108.73-333.44-108.73H0C13.8-108.73 25-97.53 25-83.73V-25C25-11.19 13.8 0 0 0M0-4C11.58-4 21-13.42 21-25V-83.73C21-95.31 11.58-104.73 0-104.73H-333.44C-345.02-104.73-354.44-95.31-354.44-83.73V-25C-354.44-13.42-345.02-4-333.44-4Z" fill="#ffffff" />
</g>
<g clip-path="url(#clip_2)">
<path transform="matrix(1,0,0,-1,1839.52,685.39)" d="M0 0C-12.68 0-23 10.32-23 23V81.73C-23 94.41-12.68 104.73 0 104.73H675.84C688.52 104.73 698.84 94.41 698.84 81.73V23C698.84 10.32 688.52 0 675.84 0Z" fill="#f3f9ff" />
<path transform="matrix(1,0,0,-1,2515.37,578.66)" d="M0 0H-675.84C-689.65 0-700.84-11.19-700.84-25V-83.73C-700.84-97.53-689.65-108.73-675.84-108.73H0C13.8-108.73 25-97.53 25-83.73V-25C25-11.19 13.8 0 0 0M0-4C11.58-4 21-13.42 21-25V-83.73C21-95.31 11.58-104.73 0-104.73H-675.84C-687.42-104.73-696.84-95.31-696.84-83.73V-25C-696.84-13.42-687.42-4-675.84-4Z" fill="#ffffff" />
<path transform="matrix(1,0,0,-1,1200.08,685.39)" d="M0 0C-12.68 0-23 10.32-23 23V81.73C-23 94.41-12.68 104.73 0 104.73H586.48C599.16 104.73 609.48 94.41 609.48 81.73V23C609.48 10.32 599.16 0 586.48 0Z" fill="#f3f9ff" />
<path transform="matrix(1,0,0,-1,1786.56,578.66)" d="M0 0H-586.48C-600.28 0-611.48-11.19-611.48-25V-83.73C-611.48-97.53-600.28-108.73-586.48-108.73H0C13.8-108.73 25-97.53 25-83.73V-25C25-11.19 13.8 0 0 0M0-4C11.58-4 21-13.42 21-25V-83.73C21-95.31 11.58-104.73 0-104.73H-586.48C-598.06-104.73-607.48-95.31-607.48-83.73V-25C-607.48-13.42-598.06-4-586.48-4Z" fill="#ffffff" />
<path transform="matrix(1,0,0,-1,461.18,685.39)" d="M0 0C-12.68 0-23 10.32-23 23V81.73C-23 94.41-12.68 104.73 0 104.73H302.86C315.54 104.73 325.86 94.41 325.86 81.73V23C325.86 10.32 315.54 0 302.86 0Z" fill="#f3f9ff" />
<path transform="matrix(1,0,0,-1,764.04,578.66)" d="M0 0H-302.86C-316.67 0-327.86-11.19-327.86-25V-83.73C-327.86-97.53-316.67-108.73-302.86-108.73H0C13.8-108.73 25-97.53 25-83.73V-25C25-11.19 13.8 0 0 0M0-4C11.58-4 21-13.42 21-25V-83.73C21-95.31 11.58-104.73 0-104.73H-302.86C-314.44-104.73-323.86-95.31-323.86-83.73V-25C-323.86-13.42-314.44-4-302.86-4Z" fill="#ffffff" />
<path transform="matrix(1,0,0,-1,814.04,685.39)" d="M0 0C-12.68 0-23 10.32-23 23V81.73C-23 94.41-12.68 104.73 0 104.73H333.44C346.12 104.73 356.44 94.41 356.44 81.73V23C356.44 10.32 346.12 0 333.44 0Z" fill="#f3f9ff" />
<path transform="matrix(1,0,0,-1,1147.48,578.66)" d="M0 0H-333.44C-347.25 0-358.44-11.19-358.44-25V-83.73C-358.44-97.53-347.25-108.73-333.44-108.73H0C13.8-108.73 25-97.53 25-83.73V-25C25-11.19 13.8 0 0 0M0-4C11.58-4 21-13.42 21-25V-83.73C21-95.31 11.58-104.73 0-104.73H-333.44C-345.02-104.73-354.44-95.31-354.44-83.73V-25C-354.44-13.42-345.02-4-333.44-4Z" fill="#ffffff" />
<path transform="matrix(1,0,0,-1,814.04,1046.36)" d="M0 0C-12.68 0-23 10.31-23 23V333.97C-23 346.65-12.68 356.97 0 356.97H333.44C346.12 356.97 356.44 346.65 356.44 333.97V23C356.44 10.31 346.12 0 333.44 0Z" fill="#f3f9ff" />
<path transform="matrix(1,0,0,-1,1147.48,687.39)" d="M0 0H-333.44C-347.25 0-358.44-11.19-358.44-25V-335.97C-358.44-349.78-347.25-360.97-333.44-360.97H0C13.8-360.97 25-349.78 25-335.97V-25C25-11.19 13.8 0 0 0M0-4C11.58-4 21-13.42 21-25V-335.97C21-347.55 11.58-356.97 0-356.97H-333.44C-345.02-356.97-354.44-347.55-354.44-335.97V-25C-354.44-13.42-345.02-4-333.44-4Z" fill="#ffffff" />
</g>
<g clip-path="url(#clip_3)">
<path transform="matrix(1,0,0,-1,1839.52,1046.36)" d="M0 0C-12.68 0-23 10.31-23 23V333.97C-23 346.65-12.68 356.97 0 356.97H675.84C688.52 356.97 698.84 346.65 698.84 333.97V23C698.84 10.31 688.52 0 675.84 0Z" fill="#f3f9ff" />
<path transform="matrix(1,0,0,-1,2515.37,687.39)" d="M0 0H-675.84C-689.65 0-700.84-11.19-700.84-25V-335.97C-700.84-349.78-689.65-360.97-675.84-360.97H0C13.8-360.97 25-349.78 25-335.97V-25C25-11.19 13.8 0 0 0M0-4C11.58-4 21-13.42 21-25V-335.97C21-347.55 11.58-356.97 0-356.97H-675.84C-687.42-356.97-696.84-347.55-696.84-335.97V-25C-696.84-13.42-687.42-4-675.84-4Z" fill="#ffffff" />
<path transform="matrix(1,0,0,-1,1200.08,794.12)" d="M0 0C-12.68 0-23 10.32-23 23V81.73C-23 94.41-12.68 104.73 0 104.73H586.48C599.16 104.73 609.48 94.41 609.48 81.73V23C609.48 10.32 599.16 0 586.48 0Z" fill="#f3f9ff" />
<path transform="matrix(1,0,0,-1,1786.56,687.39)" d="M0 0H-586.48C-600.28 0-611.48-11.19-611.48-25V-83.73C-611.48-97.53-600.28-108.73-586.48-108.73H0C13.8-108.73 25-97.53 25-83.73V-25C25-11.19 13.8 0 0 0M0-4C11.58-4 21-13.42 21-25V-83.73C21-95.31 11.58-104.73 0-104.73H-586.48C-598.06-104.73-607.48-95.31-607.48-83.73V-25C-607.48-13.42-598.06-4-586.48-4Z" fill="#ffffff" />
<path transform="matrix(1,0,0,-1,461.18,794.12)" d="M0 0C-12.68 0-23 10.32-23 23V81.73C-23 94.41-12.68 104.73 0 104.73H302.86C315.54 104.73 325.86 94.41 325.86 81.73V23C325.86 10.32 315.54 0 302.86 0Z" fill="#f3f9ff" />
<path transform="matrix(1,0,0,-1,764.04,687.39)" d="M0 0H-302.86C-316.67 0-327.86-11.19-327.86-25V-83.73C-327.86-97.53-316.67-108.73-302.86-108.73H0C13.8-108.73 25-97.53 25-83.73V-25C25-11.19 13.8 0 0 0M0-4C11.58-4 21-13.42 21-25V-83.73C21-95.31 11.58-104.73 0-104.73H-302.86C-314.44-104.73-323.86-95.31-323.86-83.73V-25C-323.86-13.42-314.44-4-302.86-4Z" fill="#ffffff" />
</g>
<g clip-path="url(#clip_4)">
<path transform="matrix(1,0,0,-1,1200.08,934.66)" d="M0 0C-12.68 0-23 10.32-23 23V113.55C-23 126.23-12.68 136.54 0 136.54H586.48C599.16 136.54 609.48 126.23 609.48 113.55V23C609.48 10.32 599.16 0 586.48 0Z" fill="#f3f9ff" />
<path transform="matrix(1,0,0,-1,1786.56,796.12)" d="M0 0H-586.48C-600.28 0-611.48-11.19-611.48-25V-115.55C-611.48-129.35-600.28-140.54-586.48-140.54H0C13.8-140.54 25-129.35 25-115.55V-25C25-11.19 13.8 0 0 0M0-4C11.58-4 21-13.42 21-25V-115.55C21-127.12 11.58-136.54 0-136.54H-586.48C-598.06-136.54-607.48-127.12-607.48-115.55V-25C-607.48-13.42-598.06-4-586.48-4Z" fill="#ffffff" />
<path transform="matrix(1,0,0,-1,461.18,934.66)" d="M0 0C-12.68 0-23 10.32-23 23V113.55C-23 126.23-12.68 136.54 0 136.54H302.86C315.54 136.54 325.86 126.23 325.86 113.55V23C325.86 10.32 315.54 0 302.86 0Z" fill="#f3f9ff" />
<path transform="matrix(1,0,0,-1,764.04,796.12)" d="M0 0H-302.86C-316.67 0-327.86-11.19-327.86-25V-115.55C-327.86-129.35-316.67-140.54-302.86-140.54H0C13.8-140.54 25-129.35 25-115.55V-25C25-11.19 13.8 0 0 0M0-4C11.58-4 21-13.42 21-25V-115.55C21-127.12 11.58-136.54 0-136.54H-302.86C-314.44-136.54-323.86-127.12-323.86-115.55V-25C-323.86-13.42-314.44-4-302.86-4Z" fill="#ffffff" />
</g>
<g clip-path="url(#clip_5)">
<path transform="matrix(1,0,0,-1,1200.08,1046.36)" d="M0 0C-12.68 0-23 10.31-23 23V84.7C-23 97.39-12.68 107.7 0 107.7H586.48C599.16 107.7 609.48 97.39 609.48 84.7V23C609.48 10.31 599.16 0 586.48 0Z" fill="#f3f9ff" />
<path transform="matrix(1,0,0,-1,1786.56,936.66)" d="M0 0H-586.48C-600.28 0-611.48-11.19-611.48-25V-86.71C-611.48-100.51-600.28-111.7-586.48-111.7H0C13.8-111.7 25-100.51 25-86.71V-25C25-11.19 13.8 0 0 0M0-4C11.58-4 21-13.42 21-25V-86.71C21-98.28 11.58-107.7 0-107.7H-586.48C-598.06-107.7-607.48-98.28-607.48-86.71V-25C-607.48-13.42-598.06-4-586.48-4Z" fill="#ffffff" />
<path transform="matrix(1,0,0,-1,461.18,1045.11)" d="M0 0C-12.68 0-23 10.32-23 23V81.73C-23 94.41-12.68 104.73 0 104.73H302.86C315.54 104.73 325.86 94.41 325.86 81.73V23C325.86 10.32 315.54 0 302.86 0Z" fill="#f3f9ff" />
<path transform="matrix(1,0,0,-1,764.04,938.39)" d="M0 0H-302.86C-316.67 0-327.86-11.19-327.86-25V-83.73C-327.86-97.53-316.67-108.73-302.86-108.73H0C13.8-108.73 25-97.53 25-83.73V-25C25-11.19 13.8 0 0 0M0-4C11.58-4 21-13.42 21-25V-83.73C21-95.31 11.58-104.73 0-104.73H-302.86C-314.44-104.73-323.86-95.31-323.86-83.73V-25C-323.86-13.42-314.44-4-302.86-4Z" fill="#ffffff" />
</g>
<g clip-path="url(#clip_6)">
<path transform="matrix(1,0,0,-1,1839.52,1156.22)" d="M0 0C-12.68 0-23 10.32-23 23V81.73C-23 94.41-12.68 104.73 0 104.73H675.84C688.52 104.73 698.84 94.41 698.84 81.73V23C698.84 10.32 688.52 0 675.84 0Z" fill="#f3f9ff" />
<path transform="matrix(1,0,0,-1,2515.37,1049.49)" d="M0 0H-675.84C-689.65 0-700.84-11.19-700.84-25V-83.73C-700.84-97.53-689.65-108.73-675.84-108.73H0C13.8-108.73 25-97.53 25-83.73V-25C25-11.19 13.8 0 0 0M0-4C11.58-4 21-13.42 21-25V-83.73C21-95.31 11.58-104.73 0-104.73H-675.84C-687.42-104.73-696.84-95.31-696.84-83.73V-25C-696.84-13.42-687.42-4-675.84-4Z" fill="#ffffff" />
<path transform="matrix(1,0,0,-1,1200.08,1156.22)" d="M0 0C-12.68 0-23 10.32-23 23V81.73C-23 94.41-12.68 104.73 0 104.73H586.48C599.16 104.73 609.48 94.41 609.48 81.73V23C609.48 10.32 599.16 0 586.48 0Z" fill="#f3f9ff" />
<path transform="matrix(1,0,0,-1,1786.56,1049.49)" d="M0 0H-586.48C-600.28 0-611.48-11.19-611.48-25V-83.73C-611.48-97.53-600.28-108.73-586.48-108.73H0C13.8-108.73 25-97.53 25-83.73V-25C25-11.19 13.8 0 0 0M0-4C11.58-4 21-13.42 21-25V-83.73C21-95.31 11.58-104.73 0-104.73H-586.48C-598.06-104.73-607.48-95.31-607.48-83.73V-25C-607.48-13.42-598.06-4-586.48-4Z" fill="#ffffff" />
<path transform="matrix(1,0,0,-1,461.18,1156.22)" d="M0 0C-12.68 0-23 10.32-23 23V81.73C-23 94.41-12.68 104.73 0 104.73H302.86C315.54 104.73 325.86 94.41 325.86 81.73V23C325.86 10.32 315.54 0 302.86 0Z" fill="#f3f9ff" />
<path transform="matrix(1,0,0,-1,764.04,1049.49)" d="M0 0H-302.86C-316.67 0-327.86-11.19-327.86-25V-83.73C-327.86-97.53-316.67-108.73-302.86-108.73H0C13.8-108.73 25-97.53 25-83.73V-25C25-11.19 13.8 0 0 0M0-4C11.58-4 21-13.42 21-25V-83.73C21-95.31 11.58-104.73 0-104.73H-302.86C-314.44-104.73-323.86-95.31-323.86-83.73V-25C-323.86-13.42-314.44-4-302.86-4Z" fill="#ffffff" />
<path transform="matrix(1,0,0,-1,814.04,1156.22)" d="M0 0C-12.68 0-23 10.32-23 23V81.73C-23 94.41-12.68 104.73 0 104.73H333.44C346.12 104.73 356.44 94.41 356.44 81.73V23C356.44 10.32 346.12 0 333.44 0Z" fill="#f3f9ff" />
<path transform="matrix(1,0,0,-1,1147.48,1049.49)" d="M0 0H-333.44C-347.25 0-358.44-11.19-358.44-25V-83.73C-358.44-97.53-347.25-108.73-333.44-108.73H0C13.8-108.73 25-97.53 25-83.73V-25C25-11.19 13.8 0 0 0M0-4C11.58-4 21-13.42 21-25V-83.73C21-95.31 11.58-104.73 0-104.73H-333.44C-345.02-104.73-354.44-95.31-354.44-83.73V-25C-354.44-13.42-345.02-4-333.44-4Z" fill="#ffffff" />
</g>
<g clip-path="url(#clip_7)">
<path transform="matrix(1,0,0,-1,1839.52,1263.24)" d="M0 0C-12.68 0-23 10.32-23 23V81.73C-23 94.41-12.68 104.73 0 104.73H675.84C688.52 104.73 698.84 94.41 698.84 81.73V23C698.84 10.32 688.52 0 675.84 0Z" fill="#f3f9ff" />
<path transform="matrix(1,0,0,-1,2515.37,1156.51)" d="M0 0H-675.84C-689.65 0-700.84-11.19-700.84-25V-83.73C-700.84-97.53-689.65-108.73-675.84-108.73H0C13.8-108.73 25-97.53 25-83.73V-25C25-11.19 13.8 0 0 0M0-4C11.58-4 21-13.42 21-25V-83.73C21-95.31 11.58-104.73 0-104.73H-675.84C-687.42-104.73-696.84-95.31-696.84-83.73V-25C-696.84-13.42-687.42-4-675.84-4Z" fill="#ffffff" />
<path transform="matrix(1,0,0,-1,1200.08,1263.24)" d="M0 0C-12.68 0-23 10.32-23 23V81.73C-23 94.41-12.68 104.73 0 104.73H586.48C599.16 104.73 609.48 94.41 609.48 81.73V23C609.48 10.32 599.16 0 586.48 0Z" fill="#f3f9ff" />
<path transform="matrix(1,0,0,-1,1786.56,1156.51)" d="M0 0H-586.48C-600.28 0-611.48-11.19-611.48-25V-83.73C-611.48-97.53-600.28-108.73-586.48-108.73H0C13.8-108.73 25-97.53 25-83.73V-25C25-11.19 13.8 0 0 0M0-4C11.58-4 21-13.42 21-25V-83.73C21-95.31 11.58-104.73 0-104.73H-586.48C-598.06-104.73-607.48-95.31-607.48-83.73V-25C-607.48-13.42-598.06-4-586.48-4Z" fill="#ffffff" />
<path transform="matrix(1,0,0,-1,461.18,1263.24)" d="M0 0C-12.68 0-23 10.32-23 23V81.73C-23 94.41-12.68 104.73 0 104.73H302.86C315.54 104.73 325.86 94.41 325.86 81.73V23C325.86 10.32 315.54 0 302.86 0Z" fill="#f3f9ff" />
<path transform="matrix(1,0,0,-1,764.04,1156.51)" d="M0 0H-302.86C-316.67 0-327.86-11.19-327.86-25V-83.73C-327.86-97.53-316.67-108.73-302.86-108.73H0C13.8-108.73 25-97.53 25-83.73V-25C25-11.19 13.8 0 0 0M0-4C11.58-4 21-13.42 21-25V-83.73C21-95.31 11.58-104.73 0-104.73H-302.86C-314.44-104.73-323.86-95.31-323.86-83.73V-25C-323.86-13.42-314.44-4-302.86-4Z" fill="#ffffff" />
<path transform="matrix(1,0,0,-1,814.04,1263.24)" d="M0 0C-12.68 0-23 10.32-23 23V81.73C-23 94.41-12.68 104.73 0 104.73H333.44C346.12 104.73 356.44 94.41 356.44 81.73V23C356.44 10.32 346.12 0 333.44 0Z" fill="#f3f9ff" />
<path transform="matrix(1,0,0,-1,1147.48,1156.51)" d="M0 0H-333.44C-347.25 0-358.44-11.19-358.44-25V-83.73C-358.44-97.53-347.25-108.73-333.44-108.73H0C13.8-108.73 25-97.53 25-83.73V-25C25-11.19 13.8 0 0 0M0-4C11.58-4 21-13.42 21-25V-83.73C21-95.31 11.58-104.73 0-104.73H-333.44C-345.02-104.73-354.44-95.31-354.44-83.73V-25C-354.44-13.42-345.02-4-333.44-4Z" fill="#ffffff" />
</g>
<g clip-path="url(#clip_8)">
<path transform="matrix(1,0,0,-1,1838.24,1372.01)" d="M0 0C-12.68 0-23 10.32-23 23V81.73C-23 94.41-12.68 104.73 0 104.73H675.84C688.52 104.73 698.84 94.41 698.84 81.73V23C698.84 10.32 688.52 0 675.84 0Z" fill="#f3f9ff" />
<path transform="matrix(1,0,0,-1,2514.08,1265.28)" d="M0 0H-675.84C-689.65 0-700.84-11.19-700.84-25V-83.73C-700.84-97.53-689.65-108.73-675.84-108.73H0C13.8-108.73 25-97.53 25-83.73V-25C25-11.19 13.8 0 0 0M0-4C11.58-4 21-13.42 21-25V-83.73C21-95.31 11.58-104.73 0-104.73H-675.84C-687.42-104.73-696.84-95.31-696.84-83.73V-25C-696.84-13.42-687.42-4-675.84-4Z" fill="#ffffff" />
<path transform="matrix(1,0,0,-1,1198.63,1372.01)" d="M0 0C-12.68 0-23 10.32-23 23V81.73C-23 94.41-12.68 104.73 0 104.73H586.48C599.16 104.73 609.48 94.41 609.48 81.73V23C609.48 10.32 599.16 0 586.48 0Z" fill="#f3f9ff" />
<path transform="matrix(1,0,0,-1,1785.11,1265.28)" d="M0 0H-586.48C-600.28 0-611.48-11.19-611.48-25V-83.73C-611.48-97.53-600.28-108.73-586.48-108.73H0C13.8-108.73 25-97.53 25-83.73V-25C25-11.19 13.8 0 0 0M0-4C11.58-4 21-13.42 21-25V-83.73C21-95.31 11.58-104.73 0-104.73H-586.48C-598.06-104.73-607.48-95.31-607.48-83.73V-25C-607.48-13.42-598.06-4-586.48-4Z" fill="#ffffff" />
<path transform="matrix(1,0,0,-1,459.74,1372.01)" d="M0 0C-12.68 0-23 10.32-23 23V81.73C-23 94.41-12.68 104.73 0 104.73H302.86C315.54 104.73 325.86 94.41 325.86 81.73V23C325.86 10.32 315.54 0 302.86 0Z" fill="#f3f9ff" />
<path transform="matrix(1,0,0,-1,762.6,1265.28)" d="M0 0H-302.86C-316.67 0-327.86-11.19-327.86-25V-83.73C-327.86-97.53-316.67-108.73-302.86-108.73H0C13.8-108.73 25-97.53 25-83.73V-25C25-11.19 13.8 0 0 0M0-4C11.58-4 21-13.42 21-25V-83.73C21-95.31 11.58-104.73 0-104.73H-302.86C-314.44-104.73-323.86-95.31-323.86-83.73V-25C-323.86-13.42-314.44-4-302.86-4Z" fill="#ffffff" />
<path transform="matrix(1,0,0,-1,812.59,1372.01)" d="M0 0C-12.68 0-23 10.32-23 23V81.73C-23 94.41-12.68 104.73 0 104.73H333.44C346.12 104.73 356.44 94.41 356.44 81.73V23C356.44 10.32 346.12 0 333.44 0Z" fill="#f3f9ff" />
<path transform="matrix(1,0,0,-1,1146.03,1265.28)" d="M0 0H-333.44C-347.25 0-358.44-11.19-358.44-25V-83.73C-358.44-97.53-347.25-108.73-333.44-108.73H0C13.8-108.73 25-97.53 25-83.73V-25C25-11.19 13.8 0 0 0M0-4C11.58-4 21-13.42 21-25V-83.73C21-95.31 11.58-104.73 0-104.73H-333.44C-345.02-104.73-354.44-95.31-354.44-83.73V-25C-354.44-13.42-345.02-4-333.44-4Z" fill="#ffffff" />
</g>
<g clip-path="url(#clip_9)">
<path transform="matrix(1,0,0,-1,0,2623.16)" d="M1878.24 2121.18H1860.21V2103.15H1878.24ZM1877.24 2104.15H1861.21V2120.18H1877.24Z" />
<path transform="matrix(1,0,0,-1,0,2623.16)" d="M1878.24 2095.34H1860.21V2077.32H1878.24ZM1877.24 2078.32H1861.21V2094.34H1877.24Z" />
</g>
<g clip-path="url(#clip_10)">
<path transform="matrix(1,0,0,-1,0,2623.16)" d="M1878.24 2012.06H1860.21V1994.04H1878.24ZM1877.24 1995.04H1861.21V2011.06H1877.24Z" />
<path transform="matrix(1,0,0,-1,0,2623.16)" d="M1878.24 1986.23H1860.21V1968.21H1878.24ZM1877.24 1969.2H1861.21V1985.23H1877.24Z" />
</g>
<g clip-path="url(#clip_11)">
<path transform="matrix(1,0,0,-1,0,2623.16)" d="M1878.24 1826.89H1860.21V1808.87H1878.24ZM1877.24 1809.87H1861.21V1825.89H1877.24Z" />
<path transform="matrix(1,0,0,-1,0,2623.16)" d="M1878.24 1785.02H1860.21V1767H1878.24ZM1877.24 1768H1861.21V1784.02H1877.24Z" />
<path transform="matrix(1,0,0,-1,0,2623.16)" d="M1878.24 1743.58H1860.21V1725.55H1878.24ZM1877.24 1726.55H1861.21V1742.58H1877.24Z" />
<path transform="matrix(1,0,0,-1,0,2623.16)" d="M1878.24 1701.7H1860.21V1683.68H1878.24ZM1877.24 1684.68H1861.21V1700.7H1877.24Z" />
</g>
<g clip-path="url(#clip_12)">
<path transform="matrix(1,0,0,-1,0,2623.16)" d="M1878.24 1553.25H1860.21V1535.23H1878.24ZM1877.24 1536.23H1861.21V1552.25H1877.24Z" />
<path transform="matrix(1,0,0,-1,0,2623.16)" d="M1878.24 1528.88H1860.21V1510.86H1878.24ZM1877.24 1511.86H1861.21V1527.88H1877.24Z" />
<path transform="matrix(1,0,0,-1,0,2623.16)" d="M1878.24 1504.51H1860.21V1486.49H1878.24ZM1877.24 1487.49H1861.21V1503.51H1877.24Z" />
</g>
<g clip-path="url(#clip_13)">
<path transform="matrix(1,0,0,-1,0,2623.16)" d="M1878.24 1336.9H1860.21V1318.88H1878.24ZM1877.24 1319.88H1861.21V1335.9H1877.24Z" />
<path transform="matrix(1,0,0,-1,0,2623.16)" d="M1878.24 1312.53H1860.21V1294.51H1878.24ZM1877.24 1295.51H1861.21V1311.53H1877.24Z" />
<path transform="matrix(1,0,0,-1,0,2623.16)" d="M1878.24 1288.16H1860.21V1270.14H1878.24ZM1877.24 1271.14H1861.21V1287.16H1877.24Z" />
</g>
<g clip-path="url(#clip_14)">
<path transform="matrix(1,0,0,-1,0,2623.16)" d="M1878.24 1433.75H1860.21V1415.72H1878.24ZM1877.24 1416.72H1861.21V1432.75H1877.24Z" />
<path transform="matrix(1,0,0,-1,0,2623.16)" d="M1878.24 1408.57H1860.21V1390.55H1878.24ZM1877.24 1391.55H1861.21V1407.57H1877.24Z" />
</g>
<g clip-path="url(#clip_15)">
<path transform="matrix(1,0,0,-1,1717.58,1909.14)" d="M0 0H-488.44L-595.92-128.62H-107.09Z" fill="#3333ff" />
<path transform="matrix(1,0,0,-1,1659.11,2037.76)" d="M0 0H-26.97L23.78 60.73Z" fill="#3333ff" />
<path transform="matrix(1,0,0,-1,1183.1,1909.14)" d="M0 0H26.97L-23.78-60.73Z" fill="#3333ff" />
</g>
<g clip-path="url(#clip_16)">
<path transform="matrix(1,0,0,-1,1717.58,2154.48)" d="M0 0H-488.44L-595.92-128.62H-107.09Z" fill="#3333ff" />
<path transform="matrix(1,0,0,-1,1659.11,2283.11)" d="M0 0H-26.97L23.78 60.73Z" fill="#3333ff" />
<path transform="matrix(1,0,0,-1,1183.1,2154.48)" d="M0 0H26.97L-23.78-60.73Z" fill="#3333ff" />
</g>
<g clip-path="url(#clip_17)">
<g opacity=".199997">
<g clip-path="url(#clip_18)">
<path transform="matrix(1,0,0,-1,1786.4,2105.73)" stroke-width="1" stroke-linecap="butt" stroke-miterlimit="10" stroke-linejoin="miter" fill="none" stroke="#000000" d="M0 0C0-202.56-164.21-366.77-366.77-366.77-569.34-366.77-733.54-202.56-733.54 0-733.54 202.56-569.34 366.77-366.77 366.77-164.21 366.77 0 202.56 0 0Z" />
<g opacity=".600006">
<g clip-path="url(#clip_19)">
<path transform="matrix(1,0,0,-1,1980.27,2105.73)" stroke-width="1" stroke-linecap="butt" stroke-miterlimit="10" stroke-linejoin="miter" fill="none" stroke="#000000" d="M0 0C0-309.63-251.01-560.64-560.64-560.64-870.28-560.64-1121.28-309.63-1121.28 0-1121.28 309.63-870.28 560.64-560.64 560.64-251.01 560.64 0 309.63 0 0Z" />
</g>
</g>
<g opacity=".300003">
<g clip-path="url(#clip_20)">
<path transform="matrix(1,0,0,-1,2197.39,2105.73)" stroke-width="1" stroke-linecap="butt" stroke-miterlimit="10" stroke-linejoin="miter" fill="none" stroke="#000000" d="M0 0C0-429.55-348.22-777.76-777.76-777.76-1207.31-777.76-1555.53-429.55-1555.53 0-1555.53 429.55-1207.31 777.76-777.76 777.76-348.22 777.76 0 429.55 0 0Z" />
</g>
</g>
</g>
</g>
<path transform="matrix(1,0,0,-1,1457.35,2086.27)" d="M0 0H-28V28H-47.46V0H-75.46V-19.46H-47.46V-47.46H-28V-19.46H0Z" fill="#3333ff" />
<path transform="matrix(1,0,0,-1,0,2623.16)" d="M1429.35 517.43H1409.9V536.89H1429.35Z" fill="#9898ff" />
</g>
</g>
</g>
</g></svg>