<?xml version='1.0' encoding='utf-8'?>
<svg xmlns="http://www.w3.org/2000/svg" xmlns:ns1="http://www.inkscape.org/namespaces/inkscape" xmlns:xlink="http://www.w3.org/1999/xlink" version="1.1" width="1013.6" height="474" viewBox="0 0 1013.6 474">
<defs>
<clipPath id="clip_1">
<path transform="matrix(1,0,0,-1,0,2623.16)" d="M0 2623.16H2938.83V0H0Z" />
</clipPath>
<clipPath id="clip_2">
<path transform="matrix(1,0,0,-1,0,2623.16)" d="M0 2623.16H2938.83V0H0Z" />
</clipPath>
<clipPath id="clip_3">
<path transform="matrix(1,0,0,-1,0,2623.16)" d="M0 2623.16H2938.83V0H0Z" />
</clipPath>
<clipPath id="clip_4">
<path transform="matrix(1,0,0,-1,0,2623.16)" d="M0 2623.16H2938.83V0H0Z" />
</clipPath>
<clipPath id="clip_5">
<path transform="matrix(1,0,0,-1,0,2623.16)" d="M1455.8 690.23C1427.8 690.23 1405.11 667.53 1405.11 639.53V267.99C1405.11 240 1427.8 217.3 1455.8 217.3H2288.11C2316.11 217.3 2338.81 240 2338.81 267.99V639.53C2338.81 667.53 2316.11 690.23 2288.11 690.23Z" />
</clipPath>
<clipPath id="clip_6">
<path transform="matrix(1,0,0,-1,0,2623.16)" d="M1455.8 690.23C1427.8 690.23 1405.11 667.53 1405.11 639.53V267.99C1405.11 240 1427.8 217.3 1455.8 217.3H2288.11C2316.11 217.3 2338.81 240 2338.81 267.99V639.53C2338.81 667.53 2316.11 690.23 2288.11 690.23Z" />
</clipPath>
<clipPath id="clip_8">
<path transform="matrix(1,0,0,-1,0,2623.16)" d="M421.9 690.23C393.9 690.23 371.21 667.53 371.21 639.53V267.99C371.21 240 393.9 217.3 421.9 217.3H803.96C831.95 217.3 854.65 240 854.65 267.99V639.53C854.65 667.53 831.95 690.23 803.96 690.23Z" />
</clipPath>
<clipPath id="clip_9">
<path transform="matrix(1,0,0,-1,0,2623.16)" d="M939.95 690.23C911.95 690.23 889.25 667.53 889.25 639.53V267.99C889.25 240 911.95 217.3 939.95 217.3H1322.01C1350 217.3 1372.7 240 1372.7 267.99V639.53C1372.7 667.53 1350 690.23 1322.01 690.23Z" />
</clipPath>
<clipPath id="clip_10">
<path transform="matrix(1,0,0,-1,0,2623.16)" d="M0 2623.16H2938.83V0H0Z" />
</clipPath>
<clipPath id="clip_11">
<path transform="matrix(1,0,0,-1,0,2623.16)" d="M1045.42 950.73 1079.54 917.31 1049.17 903.66 1042.86 876.8 1178.32 810.3 1186.17 843.65 1156.23 873 1180.87 883.97 1187.21 910.94 1051.71 977.48Z" />
</clipPath>
<clipPath id="clip_12">
<path transform="matrix(1,0,0,-1,0,2623.16)" d="M0 2623.16H2938.83V0H0Z" />
</clipPath>
<clipPath id="clip_13">
<path transform="matrix(1,0,0,-1,0,2623.16)" d="M1174.06 937.3 1183.04 835.57 1319.97 902.8 1313.59 929.95 1282.89 943.74 1317.38 977.52 1311.02 1004.55Z" />
</clipPath>
<clipPath id="clip_14">
<path transform="matrix(1,0,0,-1,0,2623.16)" d="M0 2623.16H2938.83V0H0Z" />
</clipPath>
<clipPath id="clip_15">
<path transform="matrix(1,0,0,-1,0,2623.16)" d="M1213.44 897.74 1256.74 919.17 1210.25 919.91Z" />
</clipPath>
</defs>
<g transform="translate(-371 -594.2)"><g transform="translate(0 -1337.81)"><g>
<g ns1:groupmode="layer" ns1:label="Layer 1">
<text fill="#3232ff" xml:space="preserve" transform="matrix(1 0 -0 1 0 2623.16)" font-size="81.7765" font-family="KTAZVU+ArialMT"><tspan y="-2177.83" x="871.5615 919.8424 963.18399 979.53109 1020.4193 1043.1532 1059.5004 1100.3887 1123.1226 1168.5903 1191.3242 1231.82 1275.6195 1318.3478 1339.5934 1366.1953 1382.2808 1425.7041 1468.9393 1489.2036 1533.0604 1559.3598 1600.248 1622.9819 1662.0221 1677.944 1694.5283 1738.0171 1780.2628 1802.9967 1825.7306 1846.3383 1889.6716 1928.6791 1972.3069 2001.1167 2023.8506">This is a contributors slide. Insert </tspan><tspan y="-2096.0535" x="1166.6111 1204.5391 1248.126 1291.4185 1318.65 1341.3839 1361.5092 1405.0961 1448.4949 1516.6148">your team </tspan></text>
<text fill="#3232ff" xml:space="preserve" transform="matrix(1 0 -0 1 0 2623.16)" font-size="81.7765" font-family="NVORLO+Arial-BoldMT" font-weight="bold"><tspan y="-2096.0535" x="1539.3486 1588.1201 1632.2304 1662.602 1706.0254">here.</tspan></text>
<g clip-path="url(#clip_1)">
<path transform="matrix(1,0,0,-1,1183.16,957.88)" d="M0 0C0-117.85-95.54-213.38-213.38-213.38-331.24-213.38-426.77-117.85-426.77 0-426.77 117.85-331.24 213.38-213.38 213.38-95.54 213.38 0 117.85 0 0" fill="#999999" />
</g>
<text fill="#3232ff" xml:space="preserve" transform="matrix(1 0 -0 1 0 2623.16)" font-size="40.8882" font-family="NVORLO+Arial-BoldMT" font-weight="bold"><tspan y="-1365.4678" x="803.7959 830.05429 852.4201 866.08908 881.99868 892.99758 915.4861 938.2281 949.595 977.10458 988.46328 999.83016 1026.5956 1051.1367 1075.8251 1091.3626 1113.021">Patrick E. Shorey</tspan></text>
<text fill="#3232ff" xml:space="preserve" transform="matrix(1 0 -0 1 0 2623.16)" font-size="20.4441" font-family="KTAZVU+ArialMT"><tspan y="-1336.8457" x="871.9424 886.27578 897.5241 907.7809 914.4048 925.60818 936.6582 942.2476 946.7004 957.9528 969.1112 980.28396 984.8246 990.50808 996.10977 1007.3131 1018.5165 1025.2119 1036.3723 1047.5757 1051.967 1061.9213">Recreational therapist</tspan></text>
<g clip-path="url(#clip_2)">
<path transform="matrix(1,0,0,-1,1661.04,957.88)" d="M0 0C0-117.85-95.54-213.38-213.38-213.38-331.24-213.38-426.77-117.85-426.77 0-426.77 117.85-331.24 213.38-213.38 213.38-95.54 213.38 0 117.85 0 0" fill="#999999" />
</g>
<text fill="#3232ff" xml:space="preserve" transform="matrix(1 0 -0 1 0 2623.16)" font-size="40.8882" font-family="NVORLO+Arial-BoldMT" font-weight="bold"><tspan y="-1365.4678" x="1276.6885 1310.6094 1333.1019 1350.3118 1373.0538 1384.4208 1405.5396 1416.8983 1428.2653 1461.949 1473.05 1497.8529 1522.4226 1533.6178 1555.9019 1569.0679 1593.6539">Mary T. Middleton</tspan></text>
<text fill="#3232ff" xml:space="preserve" transform="matrix(1 0 -0 1 0 2623.16)" font-size="20.4441" font-family="KTAZVU+ArialMT"><tspan y="-1336.8457" x="1347.1826 1360.4837 1371.2638 1381.2365 1391.2725 1395.668 1406.0781 1417.2507 1421.7935 1427.4769 1444.3638 1455.3646 1460.7149 1471.9795 1483.2462 1489.911 1501.1777 1505.6039 1516.9319 1528.0923 1532.4878 1542.442">Physical meteorologist</tspan></text>
<g clip-path="url(#clip_3)">
<path transform="matrix(1,0,0,-1,2138.92,957.88)" d="M0 0C0-117.85-95.54-213.38-213.38-213.38-331.24-213.38-426.77-117.85-426.77 0-426.77 117.85-331.24 213.38-213.38 213.38-95.54 213.38 0 117.85 0 0" fill="#999999" />
</g>
<text fill="#3232ff" xml:space="preserve" transform="matrix(1 0 -0 1 0 2623.16)" font-size="40.8882" font-family="NVORLO+Arial-BoldMT" font-weight="bold"><tspan y="-1365.4678" x="1748.0967 1786.4662 1797.3015 1808.1369 1818.9722 1830.016 1852.5903 1888.9481 1900.315 1930.1797 1941.5383 1952.9052 1981.9725 2006.6322 2031.4718 2053.4615 2078.0435">William R. Hudson</tspan></text>
<text fill="#3232ff" xml:space="preserve" transform="matrix(1 0 -0 1 0 2623.16)" font-size="20.4441" font-family="KTAZVU+ArialMT"><tspan y="-1336.8457" x="1872.501 1884.8818 1889.2139 1906.1088 1917.3019 1926.8635 1938.0996 1949.303 1960.5595 1971.7628">Timekeeper</tspan><tspan y="-2028.8377" x="987.6394 998.712 1009.97879 1016.6026 1027.8059 1044.8358 1050.5193 1054.8513 1066.0444 1076.011 1087.1347 1104.1646 1109.848 1121.0596 1132.3263 1136.7525 1148.0172 1154.8251 1160.5086 1170.5446 1174.8787 1180.5621 1186.2456 1197.406 1214.301 1225.302 1230.8792 1236.5626 1242.2461 1252.6439 1263.8984 1275.0425 1285.101 1296.3513 1306.6061 1311.9563 1322.9552 1328.4424 1339.5763 1346.3842 1352.0676 1363.2179 1374.315 1378.647 1389.8483 1394.2417 1404.2798 1414.5448 1418.8749 1430.0762 1441.4431 1447.1266 1458.3688 1462.6641 1467.0003 1472.5753 1478.2588 1483.9423 1497.4395 1508.694 1520.0609 1525.7444 1535.8029 1547.0574 1558.4243 1564.1078 1569.458 1580.7023 1585.0261 1589.3399 1600.4921 1610.7141 1616.3976 1626.454 1637.7106 1649.0775 1654.761 1659.0951 1670.1921 1680.4142 1691.5645 1701.7865 1707.47 1724.3323 1735.8567 1745.9867 1750.3187 1767.132 1778.2842 1788.5062 1794.1897 1804.5896 1815.8441 1826.9882 1837.0466 1848.297 1858.5497 1863.8999 1874.9009 1880.386 1891.5219 1896.8087 1902.4922">Lorem ipsum dolor sit amet, consectetur adipiscing elit. Sed sed tellus sed lacus maximus consectetur. </tspan><tspan y="-2002.2604" x="1009.6577 1023.0384 1034.2417 1045.4348 1056.6382 1067.8007 1079.1676 1084.8511 1096.0217 1100.317 1104.7514 1115.8811 1127.0436 1138.204 1155.2339 1160.9174 1166.2676 1177.5098 1181.8357 1186.1494 1197.2997 1207.5217 1213.2052 1224.4188 1231.1143 1242.1622 1247.7394 1253.4229 1259.1063 1270.1073 1275.7908 1281.4743 1298.3366 1309.5072 1313.9027 1325.1694 1335.136 1346.2985 1357.4467 1368.5969 1379.9639 1385.6473 1389.9774 1401.1726 1411.1371 1422.2628 1439.2927 1444.9762 1455.1983 1466.3341 1473.1951 1483.1596 1494.3118 1504.5338 1510.2173 1514.6638 1525.6218 1531.3053 1536.9888 1550.6516 1555.039 1564.8174 1575.9799 1592.7931 1603.9453 1614.1674 1619.8508 1631.0236 1635.3168 1639.7532 1650.881 1662.0741 1673.073 1678.7565 1684.44 1695.6515 1702.3264 1713.583 1723.805 1729.4885 1739.2138 1750.4559 1754.9945 1760.678 1766.0588 1777.3256 1784.7672 1790.1481 1801.4129 1808.2207 1813.9042 1824.3041 1835.5565 1846.7578 1857.9387 1869.1318 1880.4988">Aenean aliquam tellus erat, et malesuada ipsum cursus id. Vivamus aliquet eros vel tortor congue </tspan><tspan y="-1975.6831" x="1351.0333 1362.0527 1368.284 1374.311 1378.7045 1388.9695 1393.3057 1398.7908 1409.9247 1416.7326 1422.416 1432.1412 1443.3855 1447.9262 1453.6096 1463.3328 1474.577 1479.1177 1484.8012 1489.0944 1493.4264 1504.6707 1515.8843 1522.5592 1533.3945">efficitur vel vel libero.</tspan></text>
<text xml:space="preserve" transform="matrix(1 0 -0 1 0 2623.16)" font-size="60" font-family="ProximaNova-Extrabld"><tspan y="-2424.8165" x="329.875 347.395 400.01499 439.91499 483.29499">IMAGE</tspan></text>
<text xml:space="preserve" transform="matrix(1 0 -0 1 0 2623.16)" font-size="39.5978" font-family="ProximaNova-Semibold" font-weight="bold"><tspan y="-2347.085" x="328.9141 352.83515 362.53663 372.71327 394.86033 423.46577 450.98625 481.46864 509.82066 538.2123 548.3889 576.1549 604.602 632.958 661.3496 671.52627 699.9654 722.81338 732.99 758.6731 768.92898 791.5948 820.0656 830.24227 852.38937 881.07 891.32589 901.5025 928.4052 953.66867 980.6743 990.85098 1017.58346 1044.0902 1072.4462 1100.8378 1111.0144 1137.2915 1167.4295 1195.2588 1217.4019 1240.4398 1268.2692 1291.1171 1301.2937 1328.153 1356.6594 1383.1661 1408.5325 1433.7959 1460.8689 1483.012 1506.0499">2. THƯỜNG DÙNG ĐỂ BIỂU THỊ CÁC DẠNG CONTENT CHARACTER</tspan><tspan y="-1189.0077" x="328.9141 352.83515 362.53663 372.71327 394.86033 423.46577 450.98625 481.46864 509.82066 538.2123 548.3889 576.1549 604.602 632.958 661.3496 671.52627 699.9654 722.81338 732.99 758.6731 768.92898 791.5948 820.0656 830.24227 852.38937 881.07 891.32589 901.5025 928.4052 953.66867 980.6743 990.85098 1017.58346 1044.0902 1072.4462 1100.8378 1111.0144 1137.2915 1167.4295 1195.2588 1217.4019 1240.4398 1268.2692 1291.1171 1301.2937 1329.9862 1340.2421 1368.804">2. THƯỜNG DÙNG ĐỂ BIỂU THỊ CÁC DẠNG CONTENT HÌNH</tspan></text>
<g clip-path="url(#clip_4)">
<path transform="matrix(1,0,0,-1,1402.13,2075.94)" d="M0 0C-9.06-.742-15.91-7.9-16.49-16.92-16.57-18.18-16.76-21.21-15.81-22.01-15.17-22.54-12.01-22.95-10.98-23.12-.48-24.76 10.54-24.84 21.08-23.49 22.9-23.26 26.13-22.94 27.77-22.39 29.71-21.74 29.3-18.49 29.18-16.75 28.54-7.56 21.36-.519 12.2 .063 8.71 .285 3.48 .285 0 0M4.83 36.38C-7.33 35.21-13.58 20.6-5.71 11.11 2.9 .711 19.67 5.3 21.7 18.58 23.23 28.54 14.85 37.35 4.83 36.38M18.79 4.32 23.41 1.99C31.3-2.83 35.24-11.45 34.57-20.65 34.01-28.38 25.6-28.4 19.6-29.06 9.83-30.14-.141-30.01-9.87-28.69-18.09-27.57-22.32-26.93-21.87-17.29-21.67-12.93-20.38-8.51-17.93-4.9-15.02-.59-10.92 2.38-6.09 4.23-17.41 12.41-17.25 29.67-5.88 37.81 3.59 44.59 16.68 42.46 23.39 32.97 29.81 23.89 27.98 10.7 18.79 4.32" fill="#ffffff" />
<path transform="matrix(1,0,0,-1,1442.52,2093.03)" d="M0 0C1.16 1.08 3.8 .651 4.58 1.45 5.24 2.12 4.9 5.25 4.74 6.26 3.91 11.48-.776 16.82-5.82 18.35-7.48 18.86-9.78 18.66-10.07 20.97-10.44 23.86-7.5 24.06-5.65 25.42 .241 29.74 .72 38.82-4.8 43.68-6.1 44.82-9.3 45.92-9.81 47.21-10.42 48.75-9.46 50.69-7.75 50.91-6.61 51.06-5.14 50.28-4.14 49.72 5.92 44.1 7.39 29.88-1.18 22.25 4.58 19.14 9.54 12.93 10.12 6.26 10.43 2.7 10.57-1.46 7.05-3.42 5.8-4.12 2.04-4.92 .73-4.43-.997-3.79-1.32-1.23 0 0" fill="#ffffff" />
<path transform="matrix(1,0,0,-1,1381.15,2042.15)" d="M0 0C3.01 .577 4.52-3.2 2.08-4.86 .726-5.79-.681-6.1-2.08-7.39-7.64-12.51-6.79-21.75-.491-25.83 1.3-26.99 3.86-27.24 3.35-30.08 2.95-32.3 .382-32.1-1.3-32.67-6.02-34.25-10.48-39.4-11.38-44.31-11.57-45.38-11.83-47.83-11.61-48.83-11.18-50.74-6.96-49.18-6.03-51.98-5.24-54.38-7.13-55.63-9.32-55.45-16.21-54.91-17.29-51.19-16.85-44.96-16.38-38.15-11.38-31.8-5.52-28.64-13.97-21.1-12.68-7.15-2.91-1.36-2.25-.977-.681-.131 0 0" fill="#ffffff" />
<path transform="matrix(1,0,0,-1,1414.99,2398.35)" d="M0 0C-.72-.112-1.91 0-2.71 0-2.75 0-3.24 .44-3.12-.073L3.17-15.26C3.77-16.28 4.13-15.46 4.51-14.83 5.73-12.79 6.66-10.26 7.96-8.3 8.58-7.38 9.21-6.94 10.34-6.78L19.13-9.3C19.62-9.36 19.8-9.03 19.67-8.59L13.61 6.26C13.4 6.46 12.92 5.61 12.69 5.41 11.55 4.41 9.81 3.58 8.28 3.55 7.74 3.54 7.29 3.74 6.77 3.73 3.98 3.7 2.71 .422 0 0M-10.32 0C-11.21-.047-12.13 0-13.02 0-14.76 0-16.77 2.81-18.4 3.41-19.77 3.92-20.11 3.52-21.3 3.55-22.84 3.58-24.58 4.41-25.71 5.41-25.94 5.61-26.42 6.46-26.64 6.26L-32.69-8.59C-32.82-9.03-32.65-9.36-32.15-9.3L-23.36-6.78C-22.23-6.94-21.6-7.38-20.99-8.3-19.68-10.26-18.75-12.79-17.53-14.83-17.16-15.46-16.79-16.28-16.19-15.26L-9.9-.073C-9.78 .439-10.26 .003-10.32 0M-36.22 23.4C-35.14 22.23-34.27 22.08-33.45 20.33-32.53 18.36-33.16 15.96-31.79 14.38-30.66 13.1-28.44 13-26.97 11.76-24.9 9.99-25.18 7.17-22.28 6.31-20.6 5.81-19.28 6.53-17.17 5.66-15.31 4.89-14.19 2.74-12.35 2.54-10.04 2.28-8.63 3.81-6.25 3.73-4.57 3.67-3.66 2.79-2.33 2.58 1.3 2.01 1.5 4.63 4.27 5.71 6.35 6.52 7.83 5.79 9.51 6.39 12.16 7.34 11.96 10.15 14.04 11.84 15.48 13.01 17.66 13.12 18.76 14.38 20.17 16 19.52 18.38 20.43 20.33 21.34 22.28 23 22.77 23.8 24.23 25.15 26.73 23.42 28.24 23.44 30.51 23.47 32.98 25.43 34.62 25.28 36.78 25.15 38.84 23.13 39.97 22.53 41.98 21.89 44.09 22.85 46.02 22.15 47.86 21.36 49.94 19.13 50.14 17.77 51.77 16.17 53.69 16.62 56.1 14.8 57.59 13.29 58.83 11.18 58.44 9.34 59.57 7.46 60.71 7.04 62.78 5.21 63.55 3.07 64.45 1.59 63.21-.629 63.47-3.06 63.75-4.33 65.85-6.6 65.8-8.71 65.76-10.03 63.74-12.39 63.47-14.65 63.21-16.18 64.5-18.35 63.51-20.04 62.73-20.5 60.75-22.25 59.63-24.17 58.41-26.28 58.85-27.82 57.59-29.64 56.1-29.2 53.69-30.8 51.77-32.32 49.94-35.11 49.76-35.43 46.93-35.63 45.17-34.97 43.92-35.55 41.98-36.18 39.9-38.24 38.82-38.32 36.62-38.38 34.8-37.02 33.6-36.66 31.83-36.15 29.25-37.54 27.86-37.29 25.62-37.21 24.85-36.73 23.96-36.22 23.4M4.48-18.27H2.96C2.23-17.94 1.69-17.54 1.2-16.9L-6.43 1.19C-6.72 1.27-6.95 .504-7.05 .282-9.41-4.96-11.25-11.08-13.81-16.13-14.33-17.16-14.89-17.81-15.98-18.27H-17.5C-17.73-18.03-18.08-18.02-18.34-17.84-19.98-16.7-21.65-11.89-22.88-10.03-23.1-9.7-23.34-9.25-23.8-9.33-25.81-9.97-27.82-10.69-29.85-11.25-31.4-11.67-32.58-12.3-34.07-11.24-35.19-10.43-35.55-8.96-35.1-7.69L-28.15 9.21C-28.25 10.19-31.29 10.95-32.17 11.47-33.78 12.43-34.93 14.14-35.24 16-35.37 16.74-35.29 17.7-35.47 18.48-35.97 20.56-38.31 21.34-39.28 23.47-40.92 27.07-38.34 29.16-39.36 32.01-40.06 33.98-41.05 34.58-40.82 37.1-40.55 40.07-38.27 41-37.88 43.12-37.46 45.32-38.57 46.81-37.32 49.33-35.93 52.15-32.93 52.09-31.97 54.8-31.35 56.54-31.41 57.72-29.93 59.19-27.66 61.48-24.6 60.48-22.83 62.4-21.34 64.01-21.24 65.23-18.74 66.09-16.48 66.87-15.84 66.18-13.85 65.98-11.28 65.72-10.66 67.35-8.63 68-3.79 69.54-2.65 65.63 .828 65.98 2.81 66.18 3.45 66.87 5.71 66.09 8.22 65.23 8.32 64.01 9.81 62.4 11.56 60.5 14.61 61.45 16.91 59.19 18.38 57.75 18.34 56.51 18.95 54.8 19.91 52.09 22.86 52.14 24.3 49.33 25.56 46.86 24.45 45.3 24.85 43.12 25.25 41 27.53 40.07 27.8 37.1 28.11 33.75 25.5 32.4 26.21 29.25 26.71 27.01 27.33 25.84 26.25 23.47 25.29 21.34 22.95 20.56 22.45 18.48 22.27 17.7 22.35 16.74 22.22 16 21.91 14.14 20.76 12.43 19.14 11.47 18.27 10.95 15.22 10.19 15.13 9.21L22.08-7.69C22.82-9.83 21.32-11.82 19.11-11.85L10.41-9.38C10.16-9.55 10.02-9.79 9.86-10.03 8.59-11.94 7-16.63 5.32-17.84 5.06-18.02 4.71-18.02 4.48-18.27" fill="#ffffff" />
<path transform="matrix(1,0,0,-1,1408.65,2348.96)" d="M0 0-.376-.215C-1.55-2.93-2.25-6.29-3.52-8.91-3.92-9.75-4.54-10.36-5.49-10.49L-15.39-10.82-7.63-17.01C-6.83-17.86-6.83-18.51-7.01-19.63L-9.64-28.75-1.41-23.37C-.384-22.76 .444-23 1.41-23.54L9.3-28.75 6.67-19.63C6.52-18.64 6.48-17.92 7.16-17.14L15.05-10.82 5.16-10.49C4.47-10.42 3.89-9.99 3.48-9.46ZM-.372 3.01C.54 3.08 1.46 2.62 1.9 1.81L5.58-7.87C6.34-7.89 7.11-8.09 7.86-8.12 10.27-8.25 13.29-7.98 15.63-8.3 17.68-8.58 18.61-10.97 17.18-12.52L9.16-18.89 11.84-28.67C12.02-31.23 9.99-32.18 7.83-30.98 5.19-29.52 2.64-27.13-.094-25.7L-8.73-31.27C-10.63-32.18-12.6-30.6-12.16-28.52L-9.49-18.89-17.42-12.61C-18.88-11.21-18.17-8.77-16.24-8.36-15.17-8.14-12.84-8.17-11.59-8.11-9.7-8.02-7.79-8.22-5.91-7.87L-2.32 1.73C-1.92 2.42-1.17 2.95-.372 3.01" fill="#ffffff" />
<path transform="matrix(1,0,0,-1,1405.74,2339.03)" d="M0 0C10.59 .894 20.57-4.21 25.38-13.75 26.32-15.62 27.95-20.19 27.91-22.19 27.88-23.46 26.19-23.93 25.59-23.02 25.25-22.49 24.87-19.69 24.6-18.76 18.4 2.96-13.08 2.85-19.16-18.89-19.42-19.81-19.76-22.49-20.11-23.02-20.68-23.89-22.32-23.49-22.42-22.32-22.56-20.85-21.28-16.98-20.68-15.51-17.3-7.26-8.98-.758 0 0" fill="#ffffff" />
<path transform="matrix(1,0,0,-1,1384.42,2365.9)" d="M0 0C1.68 .307 1.58-2.42 1.85-3.5 7.48-25.73 38.12-27.17 45.59-5.86 46.2-4.11 46.41-2.33 46.89-.559 47.6 .534 49.2-.189 49.24-1.23 49.29-2.63 48.19-6.18 47.65-7.58 39.05-30.04 5.95-28.35-.342-5.18-.552-4.41-1.2-1.74-1.11-1.11-1.05-.704-.399-.073 0 0" fill="#ffffff" />
<path transform="matrix(1,0,0,-1,1865.4,2362.73)" d="M0 0C-1.57 2.77-3.71 5.1-6.26 6.85-7.46 7.68-9.07 6.7-8.9 5.25-8.84 4.77-8.58 4.33-8.17 4.06-5.75 2.39-3.77 .104-2.44-2.65-.558-6.5-.261-10.95-1.41-15.08L-7.45-36.85C-10.01-46.05-19.57-51.46-28.77-48.91-33.22-47.67-36.93-44.77-39.21-40.75-41.39-36.88-42-32.43-40.95-28.14L-40.96-28.14-40.93-28.05C-40.93-28.03-40.93-28.02-40.92-28-40.92-28-40.92-28.01-40.92-28.01L-40.04-24.57-39.45-22.62C-39.45-22.62-39.44-22.62-39.44-22.63L-34.71-5.56C-33.47-1.11-30.57 2.6-26.55 4.88-23.61 6.54-20.33 7.29-17.04 7.09-15.91 7.03-15.03 8.11-15.34 9.2L-15.35 9.21C-15.55 9.93-16.19 10.44-16.93 10.48-20.84 10.7-24.73 9.8-28.21 7.83-33.03 5.11-36.49 .673-37.97-4.66L-42.24-20.02-42.24-20.05-42.29-20.22-42.77-21.96C-42.84-22.2-43.76-25.53-43.76-25.53L-44.02-26.43C-45.54-31.9-44.87-37.79-42-42.7-39.26-47.36-34.9-50.72-29.67-52.17-28.09-52.61-26.51-52.85-24.94-52.91-15.57-53.28-6.8-47.18-4.18-37.76L1.93-15.73C3.41-10.4 2.72-4.81 0 0" fill="#ffffff" />
<path transform="matrix(1,0,0,-1,1821.71,2383.85)" d="M0 0C.181 .454 .145 .963-.09 1.39-.976 3.01-1.62 4.8-1.95 6.71L-5.86 29.24C-7.5 38.65-1.17 47.63 8.23 49.26 9.24 49.44 10.24 49.52 11.23 49.52 15.26 49.52 19.17 48.11 22.37 45.43 25.55 42.77 27.59 38.99 28.3 34.91L28.87 31.63 29.38 28.72 29.39 28.61 29.38 28.62 29.89 25.76 32.17 12.64C32.96 8.08 31.93 3.49 29.27-.293 26.6-4.07 22.63-6.59 18.07-7.38 14.16-8.06 10.32-7.37 7.06-5.64 6.11-5.15 4.95-5.66 4.67-6.69 4.67-6.7 4.66-6.71 4.66-6.72 4.46-7.48 4.8-8.28 5.5-8.65 8.4-10.18 11.69-11.03 15.1-11.03 16.27-11.03 17.46-10.93 18.65-10.72 24.1-9.78 28.85-6.77 32.04-2.24 35.22 2.28 36.45 7.77 35.51 13.22L33.51 24.75 33.45 25.09C33.44 25.1 33.44 25.11 33.43 25.12L33.03 27.25 32.42 31 31.6 35.74C30.6 41.47 27.33 46.43 22.42 49.6 18.39 52.21 13.54 53.33 8.77 52.76-3.09 51.35-11.22 40.28-9.2 28.66L-5.29 6.13C-4.88 3.78-4.09 1.59-2.98-.385-2.32-1.57-.574-1.44-.073-.182Z" fill="#ffffff" />
</g>
<text fill="#ffffff" xml:space="preserve" transform="matrix(1 0 -0 1 0 2623.16)" font-size="66.7733" font-family="ProximaNova-ExtrabldIt" font-style="italic"><tspan y="-472.126" x="1452.7861 1486.0126 1521.9901 1560.5584 1598.953 1634.6167 1659.0022 1690.2521 1728.7936 1745.6338">Leadership</tspan><tspan y="-405.35273" x="1452.7861 1501.0098 1535.5851 1568.9718 1604.6288 1621.2554 1658.6217 1697.1699 1754.4614 1790.1251 1828.3395">Development</tspan></text>
<g clip-path="url(#clip_6)">
<g transform="matrix(.23616143,0,0,.2361614,1393.68,1854.85)">
<image id="image_7" width="4048" height="2530" xlink:href="../assets/image-02-4a6e46f998df.jpg" />
</g>
</g>
<g clip-path="url(#clip_8)">
<image x="371" y="1932" width="484" height="474" xlink:href="../assets/image-03-4c3d5f727fbc.png" />
</g>
<text fill="#ffffff" xml:space="preserve" transform="matrix(1 0 -0 1 0 2623.16)" font-size="60.0959" font-family="ProximaNova-ExtrabldIt" font-style="italic"><tspan y="-591.9199" x="407.6797 446.44154 478.3224 524.7645 559.56008 581.5552 616.3507 645.43716 660.82168">Rewards &amp;</tspan><tspan y="-531.82406" x="407.6797 446.44157 478.70707 507.49903 541.4172 576.14657 610.88198 625.8338 647.4503 662.53439 696.36837">Recognition</tspan></text>
<g clip-path="url(#clip_9)">
<image x="889" y="1932" width="484" height="474" xlink:href="../assets/image-04-05897b79da36.png" />
</g>
<text fill="#ffffff" xml:space="preserve" transform="matrix(1 0 -0 1 0 2623.16)" font-size="60.0959" font-family="ProximaNova-ExtrabldIt" font-style="italic"><tspan y="-591.9199" x="925.7266 960.9248 995.534 1030.2694 1065.0049 1099.518 1131.6994 1183.3578 1215.5392 1250.0162">Engagement</tspan></text>
<g clip-path="url(#clip_10)">
<path transform="matrix(1,0,0,-1,775.88,2341.53)" d="M0 0C.006 6.45 .844 12.61-1.17 18.65-1.79 20.51-5.41 21.3-7.49 21.3L-82.97 21.27C-92.86 21.27-89.38 8.2-89.81-.017ZM-78.75 87.99-68.19 34.37-21.72 34.43-1.24 139.87C-.996 144.41 3.36 159.93-4.52 158.99-9.06 158.45-13.26 157.14-17.54 155.38L-57.97 138.75C-69.87 133.86-81.52 126.21-81.38 112-81.62 103.96-80.16 96.44-78.75 87.99M-114.83-.273-102.98 .078C-102.82 11.86-104.56 30.59-88.45 33.34L-81.45 34.53-91.4 85.74C-95.4 106.3-98.19 127.84-79.23 141.51-73.41 145.7-67.42 148.94-60.72 151.67L-19.87 168.31C-15.48 170.09-11.03 171.14-6.38 171.74 3.91 173.08 12.15 166.12 12.85 155.78 13.3 149.27 12.49 143.18 11.21 136.54L-8.48 34.91C-6.91 33.77-5.12 33.88-3.43 33.69 14.72 31.63 12.96 13.22 13.12 .034 19.01-.795 29.39 2.44 30.11-5.82 30.41-9.1 28.09-12.89 23.84-12.89L-113.51-12.9C-117.25-12.9-119.57-10.14-119.97-7.2-120.35-4.3-118.67-.386-114.83-.273" fill="#ffffff" />
<path transform="matrix(1,0,0,-1,1293.46,2344.3)" d="M0 0C8.41 .433 14.11 6.62 14.41 14.7 14.76 24.18 14.79 33.41 14.38 42.85 14 51.36 7.57 57.13-.781 57.13L-27.48 57.14C-36.23 57.14-42.73 50.86-42.72 42.03L-42.67 14.71C-42.65 6.26-36.21 .272-27.89-.043-18.69-.391-9.62-.496 0 0M-70.7 .028C-62.39 .508-56.48 6.7-56.46 14.69L-56.41 42.14C-56.4 49.38-61.38 56.27-68.98 56.79-79.53 57.52-89.88 57.38-100.47 56.87-108.14 56.5-113.23 49.86-113.52 42.59-113.9 33.21-113.84 24.2-113.54 14.88-113.27 6.28-107.03 .198-98.45-.068-89.31-.352-80.3-.527-70.7 .028M1.22 71.22C9.39 71.63 14.24 78.71 14.46 86.07 14.73 95.4 14.76 104.23 14.42 113.44 14.11 121.99 8.06 127.75-.389 128.12-9.56 128.52-18.7 128.52-27.87 128.12-36.31 127.75-42.37 121.99-42.69 113.44-43.03 104.24-42.98 95.38-42.73 86.08-42.52 78.33-37.17 71.38-29.06 71.15-19.06 70.87-9.26 70.7 1.22 71.22M-69.59-13.22C-80.18-13.77-90.09-13.78-100.28-13.24-114.96-12.46-126.17-.786-126.77 13.82-127.18 23.97-127.2 33.59-126.75 43.64-126.08 58.55-114.49 69.85-99.7 70.42-89.75 70.8-80.45 70.87-70.53 70.42-62.51 70.06-55.2 66.9-49.98 60.91-48.34 61.17-46.45 62.96-46.4 64.57-52.02 69.56-55.48 76.52-55.88 84.22-56.4 94.21-56.25 103.85-55.98 113.78-55.55 129.34-43.67 140.97-28.15 141.45-18.69 141.75-9.57 141.75-.111 141.45 15.42 140.96 27.29 129.35 27.71 113.77 27.97 104.09 28.15 94.63 27.65 84.93 27.24 76.89 24.33 69.85 17.63 64.21 23.99 58.47 27.3 51.54 27.67 43.23 28.1 33.49 28.01 24.13 27.7 14.33 27.25-.307 16.29-12.35 1.44-13.21-9.25-13.83-19.72-13.79-30.37-13.16-38.09-12.7-44.37-8.87-49.6-3.23-54.99-9.34-61.51-12.81-69.59-13.22" fill="#ffffff" />
<path transform="matrix(1,0,0,-1,1186.21,2238.04)" d="M0 0C8.75 .368 15.05 6.13 15.38 14.74 15.74 24.22 15.78 33.34 15.36 42.95 15.06 49.73 10.48 56.14 3.39 56.84-7.69 57.92-18.61 57.92-29.69 56.84-36.78 56.14-41.36 49.73-41.67 42.94-42.09 33.35-42.03 24.2-41.68 14.74-41.35 5.77-34.59 .235-25.93-.03-17.4-.291-8.95-.376 0 0M1.15-13.25C-8.67-13.71-17.7-13.62-27.06-13.29-42.56-12.73-54.46-1.17-54.99 14.4-55.31 24.09-55.32 33.51-54.98 43.22-54.45 58.47-42.82 70.07-27.59 70.61-17.84 70.95-8.46 70.95 1.29 70.61 16.52 70.08 28.14 58.48 28.68 43.22 29.01 33.51 29.02 24.1 28.68 14.4 28.14-.849 16.72-12.53 1.15-13.25" fill="#ffffff" />
</g>
<text xml:space="preserve" transform="matrix(1 0 -0 1 0 2623.16)" font-size="89.031" font-family="ProximaNova-Extrabld"><tspan y="-997.5244" x="368.9746 449.45863 516.6058 574.30679">WORK</tspan><tspan y="-908.4934" x="368.9746 421.34266 486.15724 547.14346 572.2324 629.23898 696.36837 761.4945 838.8625 891.2305 954.37136">ENVIRONMENT</tspan><tspan y="-819.4624" x="368.9746 394.06358 471.43153 526.7109 583.71749 648.1047 709.0909 761.4589 838.82687 891.1949 954.3446">IMPROVEMENT</tspan></text>
<g clip-path="url(#clip_12)">
<path transform="matrix(1,0,0,-1,1066.02,1661.53)" d="M0 0 112.09-54.93 62.87-76.65 103.18-116.8-3.82-64.13 43.49-42.89Z" fill="#ffec06" />
</g>
<g clip-path="url(#clip_14)">
<path transform="matrix(1,0,0,-1,1296.56,1634.62)" d="M0 0-113.3-55.52-104.3-118.06 3.86-64.82-43.96-43.36Z" fill="#ffec06" />
</g>
<text fill="#3333ff" xml:space="preserve" transform="matrix(1 0 -0 1 0 2623.16)" font-size="40.064" font-family="ProximaNova-Bold" font-weight="bold"><tspan y="-756.043" x="368.3027 391.56385 425.24165 448.4387 458.11418 480.19746 499.80076 521.69577 543.85116 554.1075 577.569 597.4607 620.6578 642.40859 656.17459 665.7338 687.4846 710.2129 729.23129">Employee Experience</tspan></text>
</g>
</g>
</g></g></svg>