<?xml version='1.0' encoding='utf-8'?>
<svg xmlns="http://www.w3.org/2000/svg" version="1.1" width="1920" height="1080" viewBox="0 0 1920 1080">
<defs>
<clipPath id="clip_1">
<path transform="matrix(1,0,0,-1,0,1080)" d="M0 1080H1920V0H0Z" />
</clipPath>
<clipPath id="clip_2">
<path transform="matrix(1,0,0,-1,0,1080)" d="M0 1080H1920V0H0Z" />
</clipPath>
</defs>
<g>
<g clip-path="url(#clip_1)">
<path transform="matrix(1,0,0,-1,1822.7671,931.8696)" d="M0 0H-1723.216C-1733.037 0-1740.999 7.962-1740.999 17.783V79.651C-1740.999 89.473-1733.037 97.435-1723.216 97.435H0C9.822 97.435 17.783 89.473 17.783 79.651V17.783C17.783 7.962 9.822 0 0 0" fill="#3333ff" />
<path transform="matrix(1,0,0,-1,1822.7671,931.8696)" stroke-width="7" stroke-linecap="round" stroke-linejoin="round" fill="none" stroke="#ffffff" d="M0 0H-1723.216C-1733.037 0-1740.999 7.962-1740.999 17.783V79.651C-1740.999 89.473-1733.037 97.435-1723.216 97.435H0C9.822 97.435 17.783 89.473 17.783 79.651V17.783C17.783 7.962 9.822 0 0 0Z" />
<path transform="matrix(1,0,0,-1,1823.3331,305.95039)" d="M0 0H-337.377C-347.966 0-356.551 8.584-356.551 19.174V43.994C-356.551 54.583-347.966 63.168-337.377 63.168H0C10.589 63.168 19.174 54.583 19.174 43.994V19.174C19.174 8.584 10.589 0 0 0" fill="#fff140" />
<path transform="matrix(1,0,0,-1,1823.3331,305.95039)" stroke-width="7" stroke-linecap="butt" stroke-miterlimit="10" stroke-linejoin="miter" fill="none" stroke="#ffffff" d="M0 0H-337.377C-347.966 0-356.551 8.584-356.551 19.174V43.994C-356.551 54.583-347.966 63.168-337.377 63.168H0C10.589 63.168 19.174 54.583 19.174 43.994V19.174C19.174 8.584 10.589 0 0 0Z" />
<path transform="matrix(1,0,0,-1,1447.6087,305.95039)" d="M0 0H-611.087C-621.676 0-630.261 8.584-630.261 19.174V43.994C-630.261 54.583-621.676 63.168-611.087 63.168H0C10.589 63.168 19.174 54.583 19.174 43.994V19.174C19.174 8.584 10.589 0 0 0" fill="#fff140" />
<path transform="matrix(1,0,0,-1,1447.6087,305.95039)" stroke-width="7" stroke-linecap="butt" stroke-miterlimit="10" stroke-linejoin="miter" fill="none" stroke="#ffffff" d="M0 0H-611.087C-621.676 0-630.261 8.584-630.261 19.174V43.994C-630.261 54.583-621.676 63.168-611.087 63.168H0C10.589 63.168 19.174 54.583 19.174 43.994V19.174C19.174 8.584 10.589 0 0 0Z" />
<path transform="matrix(1,0,0,-1,798.1739,305.95039)" d="M0 0H-452.015C-462.604 0-471.189 8.584-471.189 19.174V43.994C-471.189 54.583-462.604 63.168-452.015 63.168H0C10.589 63.168 19.174 54.583 19.174 43.994V19.174C19.174 8.584 10.589 0 0 0" fill="#fff140" />
<path transform="matrix(1,0,0,-1,798.1739,305.95039)" stroke-width="7" stroke-linecap="butt" stroke-miterlimit="10" stroke-linejoin="miter" fill="none" stroke="#ffffff" d="M0 0H-452.015C-462.604 0-471.189 8.584-471.189 19.174V43.994C-471.189 54.583-462.604 63.168-452.015 63.168H0C10.589 63.168 19.174 54.583 19.174 43.994V19.174C19.174 8.584 10.589 0 0 0Z" />
</g>
<text xml:space="preserve" transform="matrix(1 0 -0 1 0 1080)" font-size="85" font-family="ProximaNova-Extrabld"><tspan y="-873.4219" x="77.167 141.75002 191.0585 235.59851 257.35853 287.38905 317.03706 338.09153 386.958 437.448 459.208 489.20454 538.088 559.1425 604.66006 635.26 657.02 678.3295 723.67709 773.8271 795.5871 868.4236 917.63009 960.13009 981.8901 1011.9291 1032.941 1078.2376 1128.5575 1150.3175 1200.5525 1250.8301 1301.0651">Quy trình thiết lập mục tiêu 2026</tspan></text>
<g clip-path="url(#clip_2)">
<path transform="matrix(1,0,0,-1,1821.8692,827.7826)" d="M0 0H-1719.463C-1730.861 0-1740.101 9.24-1740.101 20.638V413.542C-1740.101 424.94-1730.861 434.18-1719.463 434.18H0C11.398 434.18 20.638 424.94 20.638 413.542V20.638C20.638 9.24 11.398 0 0 0" fill="#f9f9f9" />
<path transform="matrix(1,0,0,-1,1821.8692,827.7826)" stroke-width="7" stroke-linecap="round" stroke-linejoin="round" fill="none" stroke="#ffffff" d="M0 0H-1719.463C-1730.861 0-1740.101 9.24-1740.101 20.638V413.542C-1740.101 424.94-1730.861 434.18-1719.463 434.18H0C11.398 434.18 20.638 424.94 20.638 413.542V20.638C20.638 9.24 11.398 0 0 0Z" />
<path transform="matrix(1,0,0,-1,1830.111,689.90396)" d="M0 0H-1735.817C-1741.582 0-1746.256 4.674-1746.256 10.44V130.598C-1746.256 136.363-1741.582 141.037-1735.817 141.037H0C5.766 141.037 10.44 136.363 10.44 130.598V10.44C10.44 4.674 5.766 0 0 0" fill="#ffffff" />
<path transform="matrix(1,0,0,-1,1823.3331,395.95039)" d="M0 0H-337.377C-347.966 0-356.551 8.584-356.551 19.174V70.826C-356.551 81.416-347.966 90-337.377 90H0C10.589 90 19.174 81.416 19.174 70.826V19.174C19.174 8.584 10.589 0 0 0" fill="#3333ff" />
<path transform="matrix(1,0,0,-1,1823.3331,395.95039)" stroke-width="7" stroke-linecap="round" stroke-linejoin="round" fill="none" stroke="#ffffff" d="M0 0H-337.377C-347.966 0-356.551 8.584-356.551 19.174V70.826C-356.551 81.416-347.966 90-337.377 90H0C10.589 90 19.174 81.416 19.174 70.826V19.174C19.174 8.584 10.589 0 0 0Z" />
<path transform="matrix(1,0,0,-1,1447.6087,395.95039)" d="M0 0H-611.087C-621.676 0-630.261 8.584-630.261 19.174V70.826C-630.261 81.416-621.676 90-611.087 90H0C10.589 90 19.174 81.416 19.174 70.826V19.174C19.174 8.584 10.589 0 0 0" fill="#3333ff" />
<path transform="matrix(1,0,0,-1,1447.6087,395.95039)" stroke-width="7" stroke-linecap="round" stroke-linejoin="round" fill="none" stroke="#ffffff" d="M0 0H-611.087C-621.676 0-630.261 8.584-630.261 19.174V70.826C-630.261 81.416-621.676 90-611.087 90H0C10.589 90 19.174 81.416 19.174 70.826V19.174C19.174 8.584 10.589 0 0 0Z" />
<path transform="matrix(1,0,0,-1,798.1739,395.95039)" d="M0 0H-452.015C-462.604 0-471.189 8.584-471.189 19.174V70.826C-471.189 81.416-462.604 90-452.015 90H0C10.589 90 19.174 81.416 19.174 70.826V19.174C19.174 8.584 10.589 0 0 0" fill="#3333ff" />
<path transform="matrix(1,0,0,-1,798.1739,395.95039)" stroke-width="7" stroke-linecap="round" stroke-linejoin="round" fill="none" stroke="#ffffff" d="M0 0H-452.015C-462.604 0-471.189 8.584-471.189 19.174V70.826C-471.189 81.416-462.604 90-452.015 90H0C10.589 90 19.174 81.416 19.174 70.826V19.174C19.174 8.584 10.589 0 0 0Z" />
</g>
<text fill="#fff140" xml:space="preserve" transform="matrix(1 0 -0 1 0 1080)" font-size="35" font-family="ProximaNova-Extrabld"><tspan y="-719.7129" x="438.8237 469.57823 490.13374 507.63374 516.59378 529.24276 538.20278 557.1553 577.87527 586.83529 603.63528 623.53976 644.1162 664.76626 673.72628 686.81979">Mục tiêu công ty</tspan></text>
<text xml:space="preserve" transform="matrix(1 0 -0 1 0 1080)" font-size="25" font-family="ProximaNova-BoldIt" font-weight="bold" font-style="italic"><tspan y="-797.6423" x="490.3428 511.7178 526.2478 535.2478 541.6478 556.84786 563.24789 570.74789 577.1479 598.5229 613.0529 622.0529 628.45297 638.193 653.193">Mar 5 - Mar 12 </tspan></text>
<text fill="#fff140" xml:space="preserve" transform="matrix(1 0 -0 1 0 1080)" font-size="35" font-family="ProximaNova-Extrabld"><tspan y="-719.7129" x="897.1177 927.8722 948.4277 965.9277 974.8877 987.5367 996.4967 1015.4492 1036.1692 1045.1292 1065.6356 1086.1876 1106.0922 1126.6687 1147.3187 1156.2787 1176.7677 1195.7307 1216.1217 1228.2317 1237.1917 1257.3971 1277.2387 1286.5487 1295.5087 1315.9347 1336.4867 1356.3912 1516.7927 1547.5471 1568.1026 1585.6026 1594.5625 1607.2114 1616.1715 1635.124 1655.844 1664.804 1682.122 1701.407 1710.367 1730.793 1751.3275 1770.2905">Mục tiêu phòng ban/ đội nhómMục tiêu cá nhân</tspan></text>
<text fill="#3333ff" xml:space="preserve" transform="matrix(1 0 -0 1 0 1080)" font-size="35" font-family="ProximaNova-BoldIt" font-weight="bold" font-style="italic"><tspan y="-600.7129" x="112.17273 134.95774 161.41423">BOD</tspan><tspan y="-475.44789" x="106.39773 123.67373 142.82224 163.09424 183.24724 202.20325 213.75325">Leader/</tspan><tspan y="-435.44288" x="106.39773 136.23174 156.47924 176.35924 196.56124 216.65123 235.62123">Manager</tspan><tspan y="-304.47288" x="104.332729 129.64823 149.56324 169.81073 190.07573 199.03572 216.81923 225.28923 244.24173">Nhân viên</tspan></text>
<text xml:space="preserve" transform="matrix(1 0 -0 1 0 1080)" font-size="25" font-family="ProximaNova-Medium"><tspan y="-645.4619" x="360.8838 378.8838 394.9463 408.02629 420.42628 426.87629 441.59379 447.28379 461.06629 475.06629 481.5163 501.8613 515.7563 528.1563 534.6063 542.20388 547.7964 561.58639 575.56137 582.01138 594.1714 607.9689 613.6814 627.4664 641.4664 647.9164 660.0664 673.9364 687.2364 693.6864 705.6264 719.7889 733.63638 748.06137 754.51138 762.7364 775.1614">•Xác định mục tiêu chính của công ty </tspan><tspan y="-615.4619" x="378.8838 386.4813 394.6113 408.77378 422.62379 437.04878 443.49879 457.3288 470.4563">trong năm</tspan><tspan y="-585.4619" x="360.8838 378.8838 393.5363 411.4113 429.54627 434.64878 451.59129 465.75379 479.52879 493.33879 507.24876 520.14627 527.96878 533.91879 540.3688 557.1213 570.89126 576.51626 589.8162 596.26626 607.8062 621.8037 628.2537 642.97128 648.66128 662.4363 676.4363 682.8863 696.6863 710.4613 724.7163 738.56637 752.99136">•SUN.Connect: Chia sẻ định hướng </tspan><tspan y="-555.4619" x="378.8838 391.04627 404.86875 419.16877 425.61878 432.84877 446.95628 460.03129 474.0063 480.4563 494.2413 508.0363 521.11129 535.08627 541.5362 553.9987 559.5987 573.4337 587.4087">cho toàn nhân viên </tspan><tspan y="-483.81193" x="856.7838 874.7838 891.5363 905.2963 919.3213 931.3288 945.2113 959.1863 965.6363 985.98129 999.8762 1012.27627 1018.72628 1026.3237 1031.9161 1045.7062 1059.6812 1066.1311 1078.0712 1092.2362 1106.0838 1120.5088 1126.9588 1135.1837 1147.6088 1154.0587 1161.6563 1175.4513 1188.5364 1202.3214 1216.3214 1222.7714 1243.1139 1257.0089 1269.4089 1275.8589 1283.4564 1289.0488 1302.8389 1316.8139 1323.2638 1335.4138 1349.2838 1362.5839">•Chuyển mục tiêu công ty thành mục tiêu của </tspan><tspan y="-453.81193" x="874.7838 882.0088 895.8038 908.8888">team</tspan><tspan y="-423.81193" x="856.7838 874.7838 892.8538 906.6288 920.8863 934.73379 949.15878 955.60879 969.9388 983.0688 997.04379 1003.4938 1017.27877 1031.0739 1044.1589 1058.1339 1064.5839 1077.0464 1082.6388 1096.4738 1110.4487 1116.8987 1128.7763 1141.6038 1154.0288 1160.4788 1174.7662 1189.0012 1202.8512 1217.2763 1223.7262 1244.0712 1257.9662 1270.3662 1276.8162 1284.4111 1290.0061 1303.7962 1317.7711 1324.2211 1336.5562 1349.8562 1356.3062 1370.0912 1383.8862 1396.9713">•Hướng dẫn nhân viên xây dựng mục tiêu cá nhân</tspan><tspan y="-483.41194" x="1497.0588 1515.0588 1532.9088 1546.7039 1559.789 1573.7639 1580.2139 1592.674 1598.2664 1612.1013 1626.0763 1632.5263 1644.7838 1658.0839 1664.5338 1685.1264 1698.2114 1711.9939 1725.1589 1739.4566 1753.2915 1761.7415 1768.1914 1779.7313 1793.7313">•Nhân viên và Manager sẽ </tspan><tspan y="-453.41194" x="1515.0588 1522.6564 1536.4963 1549.664 1563.964 1570.414 1576.0189 1589.8889 1603.0165 1616.9915 1623.4414 1632.3914 1638.2263 1647.2013 1653.6513 1667.7963 1681.7963 1688.2462 1695.8412 1709.7088 1723.8263 1737.6763 1752.1013 1758.5513 1772.3363 1786.1763 1799.3289 1806.9789">thảo luận 1:1 để thống nhất </tspan><tspan y="-423.41194" x="1515.0588 1535.4038 1549.2988 1561.6989 1568.1488 1575.7463 1581.3463 1595.1364">mục tiêu</tspan><tspan y="-338.81193" x="856.7839 874.7839 889.4764 903.62887 916.75888 930.7338 937.18386 944.7789 958.6214 971.7864 986.08639 992.5364 1012.88137 1026.7764 1039.1764 1045.6264 1053.2239 1058.8163 1072.6063 1086.5813 1093.0313 1105.3663 1118.6664 1125.1163 1138.9014 1152.6964 1165.7815 1179.7565 1186.2064 1200.4939 1214.4689 1227.7689 1234.2189 1241.8164 1249.9188 1263.7538 1277.7288 1284.1787 1296.4363 1309.5064 1315.3313 1321.7813 1329.3788 1337.5088 1351.8088 1358.2588 1370.5164 1383.8164">•Soạn thảo mục tiêu cá nhân dựa trên vai trò và </tspan><tspan y="-308.81193" x="874.7839 895.1289 909.0239 921.4239 927.87387 935.4713 941.0713 954.8613 968.8363 975.28628 982.51626 996.3113 1009.3863">mục tiêu team</tspan><tspan y="-278.81193" x="856.7839 874.7839 895.5439 909.43887 921.83889 928.2889 935.8864 941.47897 955.2664 969.2414 975.6914 988.0739 1001.2039 1015.1789 1021.6289 1028.9689 1042.7914 1055.8789 1069.8539 1076.3038 1083.9014 1097.7239 1111.6339 1125.934 1132.3839 1146.2339 1160.469 1174.494 1186.4591 1200.2941 1214.269 1220.719 1228.369 1241.494 1253.894 1260.344 1275.1615 1295.7891 1312.4891 1327.6716">•Mục tiêu cần tuân theo nguyên tắc SMART</tspan></text>
<text xml:space="preserve" transform="matrix(1 0 -0 1 0 1080)" font-size="25" font-family="ProximaNova-BoldIt" font-weight="bold" font-style="italic"><tspan y="-797.66189" x="1052.3839 1073.7589 1088.289 1097.289 1103.689 1113.394 1127.019 1133.4191 1140.9191 1147.3191 1168.6941 1183.2266 1192.2266 1198.6266 1213.154 1571.4089 1592.7839 1607.314 1616.314 1622.714 1637.429 1652.6289 1659.0289 1666.5289 1672.929 1689.9015 1704.3839 1713.3839 1719.7839">Mar 17 - Mar 25Mar 26 - Apr 6</tspan></text>
<text fill="#ffffff" xml:space="preserve" transform="matrix(1 0 -0 1 0 1080)" font-size="25" font-family="ProximaNova-Bold" font-weight="bold"><tspan y="-184.98688" x="280.70899 294.86897 309.13398 315.224 328.9765 337.4265 343.8265 349.97904 363.33406 377.95906 384.35905 405.44905 419.79154 432.26655 438.66654 447.09407 453.15907 466.78907 481.26408 487.66407 500.94908 515.2591 529.46908 543.794 558.419 564.81906 579.374 593.70156 607.02658 613.35159 619.7516 625.8866 639.4616 645.86166 660.1066 674.37667 680.4617 694.1517 715.45169 721.8517 734.6767 749.1517 755.5517 767.69918 782.0391 795.61416 802.01419 810.70919 816.7767 830.44918 844.7716 859.3966 865.79666 878.1941 891.7691 898.1691 912.4141 926.7241 940.05917 954.4091 960.80917 967.20919 981.7192 994.7417 1007.5667 1013.96676 1020.10177 1033.6768 1040.0768 1054.4718 1068.7968 1082.3717 1088.7717 1097.2442 1105.9367 1112.0166 1126.259 1140.759 1147.159 1155.6315 1164.3915 1177.7289 1192.0789 1198.4789 1212.7639 1226.924 1233.2489 1239.6489 1252.2914 1265.8663 1272.2664 1280.7388 1295.0663 1309.1763 1323.4988 1338.1238 1344.5238 1358.7662 1373.0938 1386.4462 1394.8961 1401.2962 1415.7136 1421.7811 1436.1187 1449.6936 1456.0936 1470.3386 1484.6487 1497.9837 1512.4586 1518.8587 1531.6712 1537.7387 1551.4111 1565.8861 1572.2861 1584.9286 1598.5036 1604.9036 1624.0985 1638.4385 1651.7909 1666.2659 1672.6659 1684.3634">Thiết lập mục tiêu không phải là nhiệm vụ của riêng cá nhân, đây là quá trình trao đổi và thống nhất giữa nhân viên và Quản Lý</tspan></text>
<text fill="#231f20" xml:space="preserve" transform="matrix(1 0 -0 1 0 1080)" font-size="20" font-family="ProximaNova-Semibold" font-weight="bold"><tspan y="-77.8594" x="1833.5864">5</tspan></text>
<text xml:space="preserve" transform="matrix(1 0 -0 1 0 1080)" font-size="20" font-family="ProximaNova-Semibold" font-weight="bold"><tspan y="-992.57937" x="74.406497 88.75849 103.50449 117.00649 127.3465 132.4865 144.4725 156.01251 167.75652 179.06252 184.34853 198.78452 213.12451 218.26451 229.9485 241.77051 253.4545">GOAL SETTING 2026</tspan><tspan y="-77.859378" x="75.04649 89.9425 101.6225 113.444499 125.1245 137.1445 142.2845 154.10051 168.58052 183.20853 188.42852 200.27053 211.57854 226.05855 240.31255 245.52655">©2026 SUN.STUDIO</tspan></text>
<text xml:space="preserve" transform="matrix(1 0 -0 1 0 1080)" font-size="20" font-family="ProximaNova-Regular"><tspan y="-77.859378" x="260.82649 265.98649 279.2425 289.22453 299.42454 304.58454 316.78056 321.56056 335.99858 350.10057 361.32255 373.04255 378.20256 390.36256 401.74256 413.50856 424.88856 436.84056 450.09657 461.47657"> ALL RIGHTS RESERVED</tspan></text>
</g>
</svg>