<?xml version='1.0' encoding='utf-8'?>
<svg xmlns="http://www.w3.org/2000/svg" xmlns:ns1="http://www.inkscape.org/namespaces/inkscape" version="1.1" width="2938.83" height="2623.16" viewBox="0 0 2938.83 2623.16">
<defs>
<clipPath id="clip_1">
<path transform="matrix(1,0,0,-1,0,2623.16)" d="M0 2623.157H2938.834V0H0Z" />
</clipPath>
<clipPath id="clip_2">
<path transform="matrix(1,0,0,-1,0,2623.16)" d="M0 2623.157H2938.834V0H0Z" />
</clipPath>
<clipPath id="clip_3">
<path transform="matrix(1,0,0,-1,0,2623.16)" d="M0 2623.157H2938.834V0H0Z" />
</clipPath>
<clipPath id="clip_4">
<path transform="matrix(1,0,0,-1,0,2623.16)" d="M0 2623.157H2938.834V0H0Z" />
</clipPath>
<clipPath id="clip_5">
<path transform="matrix(1,0,0,-1,0,2623.16)" d="M0 2623.157H2938.834V0H0Z" />
</clipPath>
<clipPath id="clip_6">
<path transform="matrix(1,0,0,-1,0,2623.16)" d="M0 2623.157H2938.834V0H0Z" />
</clipPath>
<clipPath id="clip_7">
<path transform="matrix(1,0,0,-1,0,2623.16)" d="M0 2623.157H2938.834V0H0Z" />
</clipPath>
<clipPath id="clip_8">
<path transform="matrix(1,0,0,-1,0,2623.16)" d="M0 2623.157H2938.834V0H0Z" />
</clipPath>
<clipPath id="clip_9">
<path transform="matrix(1,0,0,-1,0,2623.16)" d="M0 2623.157H2938.834V0H0Z" />
</clipPath>
<clipPath id="clip_10">
<path transform="matrix(1,0,0,-1,0,2623.16)" d="M0 2623.157H2938.834V0H0Z" />
</clipPath>
<clipPath id="clip_11">
<path transform="matrix(1,0,0,-1,0,2623.16)" d="M0 2623.157H2938.834V0H0Z" />
</clipPath>
<clipPath id="clip_12">
<path transform="matrix(1,0,0,-1,0,2623.16)" d="M0 2623.157H2938.834V0H0Z" />
</clipPath>
<clipPath id="clip_13">
<path transform="matrix(1,0,0,-1,0,2623.16)" d="M0 2623.157H2938.834V0H0Z" />
</clipPath>
<clipPath id="clip_14">
<path transform="matrix(1,0,0,-1,0,2623.16)" d="M0 2623.157H2938.834V0H0Z" />
</clipPath>
<clipPath id="clip_15">
<path transform="matrix(1,0,0,-1,0,2623.16)" d="M0 2623.157H2938.834V0H0Z" />
</clipPath>
<clipPath id="clip_16">
<path transform="matrix(1,0,0,-1,0,2623.16)" d="M0 2623.157H2938.834V0H0Z" />
</clipPath>
<clipPath id="clip_17">
<path transform="matrix(1,0,0,-1,0,2623.16)" d="M0 2623.157H2938.834V0H0Z" />
</clipPath>
<clipPath id="clip_18">
<path transform="matrix(1,0,0,-1,0,2623.16)" d="M641.363-260.832H2197.89V1295.69H641.363Z" />
</clipPath>
<clipPath id="clip_19">
<path transform="matrix(1,0,0,-1,0,2623.16)" d="M858.483-43.7116H1980.77V1078.57H858.483Z" />
</clipPath>
<clipPath id="clip_20">
<path transform="matrix(1,0,0,-1,0,2623.16)" d="M641.363-260.832H2197.89V1295.69H641.363Z" />
</clipPath>
</defs>
<g>
<g ns1:groupmode="layer" ns1:label="Layer 1">
<g clip-path="url(#clip_1)">
<path transform="matrix(1,0,0,-1,1836.3233,467.93824)" d="M0 0C-12.555 0-22.769 10.214-22.769 22.77V76.235C-22.769 88.79-12.555 99.004 0 99.004H676.296C688.851 99.004 699.064 88.79 699.064 76.235V22.77C699.064 10.214 688.851 0 676.296 0Z" fill="#ff5533" />
<path transform="matrix(1,0,0,-1,2512.6187,366.93434)" d="M0 0H-676.295C-689.975 0-701.064-11.09-701.064-24.769V-78.235C-701.064-91.914-689.975-103.004-676.295-103.004H0C13.68-103.004 24.769-91.914 24.769-78.235V-24.769C24.769-11.09 13.68 0 0 0M0-4C11.452-4 20.769-13.317 20.769-24.769V-78.235C20.769-89.687 11.452-99.004 0-99.004H-676.295C-687.747-99.004-697.064-89.687-697.064-78.235V-24.769C-697.064-13.317-687.747-4-676.295-4Z" fill="#ffffff" />
<path transform="matrix(1,0,0,-1,1839.5244,576.6638)" d="M0 0C-12.68 0-22.996 10.316-22.996 22.996V81.729C-22.996 94.409-12.68 104.726 0 104.726H675.841C688.521 104.726 698.837 94.409 698.837 81.729V22.996C698.837 10.316 688.521 0 675.841 0Z" fill="#f3f9ff" />
<path transform="matrix(1,0,0,-1,2515.3653,469.938)" d="M0 0H-675.841C-689.646 0-700.837-11.191-700.837-24.996V-83.73C-700.837-97.535-689.646-108.726-675.841-108.726H0C13.805-108.726 24.996-97.535 24.996-83.73V-24.996C24.996-11.191 13.805 0 0 0M0-4C11.577-4 20.996-13.419 20.996-24.996V-83.73C20.996-95.307 11.577-104.726 0-104.726H-675.841C-687.418-104.726-696.837-95.307-696.837-83.73V-24.996C-696.837-13.419-687.418-4-675.841-4Z" fill="#ffffff" />
<path transform="matrix(1,0,0,-1,1197.2442,467.93824)" d="M0 0C-12.555 0-22.769 10.215-22.769 22.77V76.235C-22.769 88.79-12.555 99.004 0 99.004H586.934C599.489 99.004 609.703 88.79 609.703 76.235V22.77C609.703 10.215 599.489 0 586.934 0Z" fill="#ff5533" />
<path transform="matrix(1,0,0,-1,1784.1782,366.93434)" d="M0 0H-586.934C-600.614 0-611.703-11.09-611.703-24.769V-78.235C-611.703-91.914-600.614-103.004-586.934-103.004H0C13.679-103.004 24.769-91.914 24.769-78.235V-24.769C24.769-11.09 13.679 0 0 0M0-4C11.452-4 20.769-13.317 20.769-24.769V-78.235C20.769-89.687 11.452-99.004 0-99.004H-586.934C-598.386-99.004-607.703-89.687-607.703-78.235V-24.769C-607.703-13.317-598.386-4-586.934-4Z" fill="#ffffff" />
<path transform="matrix(1,0,0,-1,1200.0791,576.6638)" d="M0 0C-12.68 0-22.996 10.316-22.996 22.996V81.729C-22.996 94.409-12.68 104.726 0 104.726H586.479C599.159 104.726 609.476 94.409 609.476 81.729V22.996C609.476 10.316 599.159 0 586.479 0Z" fill="#f3f9ff" />
<path transform="matrix(1,0,0,-1,1786.5586,469.938)" d="M0 0H-586.479C-600.285 0-611.476-11.191-611.476-24.996V-83.73C-611.476-97.535-600.285-108.726-586.479-108.726H0C13.805-108.726 24.996-97.535 24.996-83.73V-24.996C24.996-11.191 13.805 0 0 0M0-4C11.577-4 20.996-13.419 20.996-24.996V-83.73C20.996-95.307 11.577-104.726 0-104.726H-586.479C-598.057-104.726-607.476-95.307-607.476-83.73V-24.996C-607.476-13.419-598.057-4-586.479-4Z" fill="#ffffff" />
<path transform="matrix(1,0,0,-1,459.5107,467.93824)" d="M0 0C-12.555 0-22.77 10.215-22.77 22.77V76.235C-22.77 88.79-12.555 99.004 0 99.004H306.206C318.761 99.004 328.975 88.79 328.975 76.235V22.77C328.975 10.215 318.761 0 306.206 0Z" fill="#ff5533" />
<path transform="matrix(1,0,0,-1,765.7162,366.93434)" d="M0 0H-306.206C-319.885 0-330.975-11.09-330.975-24.769V-78.235C-330.975-91.914-319.885-103.004-306.206-103.004H0C13.68-103.004 24.769-91.914 24.769-78.235V-24.769C24.769-11.09 13.68 0 0 0M0-4C11.452-4 20.769-13.317 20.769-24.769V-78.235C20.769-89.687 11.452-99.004 0-99.004H-306.206C-317.658-99.004-326.975-89.687-326.975-78.235V-24.769C-326.975-13.317-317.658-4-306.206-4Z" fill="#ffffff" />
<path transform="matrix(1,0,0,-1,461.1835,576.6638)" d="M0 0C-12.68 0-22.996 10.316-22.996 22.996V81.729C-22.996 94.409-12.68 104.726 0 104.726H302.86C315.54 104.726 325.856 94.409 325.856 81.729V22.996C325.856 10.316 315.54 0 302.86 0Z" fill="#f3f9ff" />
<path transform="matrix(1,0,0,-1,764.0439,469.938)" d="M0 0H-302.861C-316.666 0-327.856-11.191-327.856-24.996V-83.73C-327.856-97.535-316.666-108.726-302.861-108.726H0C13.805-108.726 24.996-97.535 24.996-83.73V-24.996C24.996-11.191 13.805 0 0 0M0-4C11.577-4 20.996-13.419 20.996-24.996V-83.73C20.996-95.307 11.577-104.726 0-104.726H-302.861C-314.438-104.726-323.856-95.307-323.856-83.73V-24.996C-323.856-13.419-314.438-4-302.861-4Z" fill="#ffffff" />
<path transform="matrix(1,0,0,-1,813.8085,467.93824)" d="M0 0C-12.555 0-22.769 10.215-22.769 22.77V76.235C-22.769 88.79-12.555 99.004 0 99.004H333.898C346.453 99.004 356.667 88.79 356.667 76.235V22.77C356.667 10.215 346.453 0 333.898 0Z" fill="#ff5533" />
<path transform="matrix(1,0,0,-1,1147.7066,366.93434)" d="M0 0H-333.898C-347.578 0-358.667-11.09-358.667-24.769V-78.235C-358.667-91.914-347.578-103.004-333.898-103.004H0C13.679-103.004 24.769-91.914 24.769-78.235V-24.769C24.769-11.09 13.679 0 0 0M0-4C11.452-4 20.769-13.317 20.769-24.769V-78.235C20.769-89.687 11.452-99.004 0-99.004H-333.898C-345.35-99.004-354.667-89.687-354.667-78.235V-24.769C-354.667-13.317-345.35-4-333.898-4Z" fill="#ffffff" />
<path transform="matrix(1,0,0,-1,814.0361,576.6638)" d="M0 0C-12.68 0-22.996 10.316-22.996 22.996V81.729C-22.996 94.409-12.68 104.726 0 104.726H333.443C346.123 104.726 356.44 94.409 356.44 81.729V22.996C356.44 10.316 346.123 0 333.443 0Z" fill="#f3f9ff" />
<path transform="matrix(1,0,0,-1,1147.4795,469.938)" d="M0 0H-333.444C-347.249 0-358.44-11.191-358.44-24.996V-83.73C-358.44-97.535-347.249-108.726-333.444-108.726H0C13.805-108.726 24.996-97.535 24.996-83.73V-24.996C24.996-11.191 13.805 0 0 0M0-4C11.577-4 20.996-13.419 20.996-24.996V-83.73C20.996-95.307 11.577-104.726 0-104.726H-333.444C-345.021-104.726-354.44-95.307-354.44-83.73V-24.996C-354.44-13.419-345.021-4-333.444-4Z" fill="#ffffff" />
</g>
<text fill="#f9f9f9" xml:space="preserve" transform="matrix(1 0 -0 1 0 2623.16)" font-size="25.1786" font-family="ProximaNova-BoldIt" font-weight="bold" font-style="italic"><tspan y="-2194.957" x="2096.296 2113.4903 2127.852 2141.6627 2154.0255 2167.2945 2173.4859 2179.7327 2191.602 2200.1124 2206.558 2218.921 2233.2955 2247.7454 2254.1912 2273.5084 2287.933 2302.519 2317.0975 2323.5433 2329.8128 1339.2006 1360.7283 1375.357 1389.7315 1404.3275 1418.8455 1432.5427 1441.607 1448.0527 1462.402 1476.1016 1490.6799 1497.1256 1511.4573 1525.7311 1532.1013 1538.547 1546.8308 1553.2765 1561.8901 1570.8789 1585.4321 1599.8847 1606.3303 1620.7149 1634.9887 931.8612 953.33609 967.66018 980.22427 986.6699 995.281 1001.4321 1015.0538 559.4193 576.5911 591.1343 603.6984 610.14419 624.6521 638.8755 653.2021">Checklist cho Quản lýManager nên hỏi / trao đổiMục tiêuCác bước</tspan></text>
<text xml:space="preserve" transform="matrix(1 0 -0 1 0 2623.16)" font-size="20.6007" font-family="ProximaNova-SemiboldIt" font-weight="bold" font-style="italic"><tspan y="-2104.4727" x="479.166 486.99427 497.171 511.08885 522.8024 534.23379 540.5973 551.9215 562.54946 569.12106 574.4154 586.6316 591.92599 606.69668 611.5584 623.43679 628.40158 633.6959 640.1625 651.72976 656.58328 666.6426 678.34378 683.6381 698.43356 710.23776 722.13259 727.09738">1.Context – Giải thích Goal </tspan><tspan y="-2079.7518" x="497.171 507.13557 518.7172 530.6863 535.9807 542.3443 553.7571 565.654">của team</tspan><tspan y="-2094.0074" x="834.3633 849.17727 860.72189 872.6188 884.2994 889.59378 899.9374 904.7332 916.043 927.72366 933.018 944.58529 949.3626 960.5859 972.2665 977.56088 989.37539 1001.0807 1011.3192 1016.6136 1023.08016 1030.1483 1042.0452 1053.602 1065.3032 1070.5977 1080.6549 1092.0966 1103.6947 1115.2351">Nhân viên hiểu bức tranh chung</tspan></text>
<g clip-path="url(#clip_2)">
<path transform="matrix(1,0,0,-1,1839.5244,685.3894)" d="M0 0C-12.68 0-22.996 10.316-22.996 22.996V81.729C-22.996 94.409-12.68 104.726 0 104.726H675.841C688.521 104.726 698.837 94.409 698.837 81.729V22.996C698.837 10.316 688.521 0 675.841 0Z" fill="#f3f9ff" />
<path transform="matrix(1,0,0,-1,2515.3653,578.6638)" d="M0 0H-675.841C-689.646 0-700.837-11.191-700.837-24.996V-83.73C-700.837-97.535-689.646-108.726-675.841-108.726H0C13.805-108.726 24.996-97.535 24.996-83.73V-24.996C24.996-11.191 13.805 0 0 0M0-4C11.577-4 20.996-13.419 20.996-24.996V-83.73C20.996-95.307 11.577-104.726 0-104.726H-675.841C-687.418-104.726-696.837-95.307-696.837-83.73V-24.996C-696.837-13.419-687.418-4-675.841-4Z" fill="#ffffff" />
<path transform="matrix(1,0,0,-1,1200.0791,685.3894)" d="M0 0C-12.68 0-22.996 10.316-22.996 22.996V81.729C-22.996 94.409-12.68 104.726 0 104.726H586.479C599.159 104.726 609.476 94.409 609.476 81.729V22.996C609.476 10.316 599.159 0 586.479 0Z" fill="#f3f9ff" />
<path transform="matrix(1,0,0,-1,1786.5586,578.6638)" d="M0 0H-586.479C-600.285 0-611.476-11.191-611.476-24.996V-83.73C-611.476-97.535-600.285-108.726-586.479-108.726H0C13.805-108.726 24.996-97.535 24.996-83.73V-24.996C24.996-11.191 13.805 0 0 0M0-4C11.577-4 20.996-13.419 20.996-24.996V-83.73C20.996-95.307 11.577-104.726 0-104.726H-586.479C-598.057-104.726-607.476-95.307-607.476-83.73V-24.996C-607.476-13.419-598.057-4-586.479-4Z" fill="#ffffff" />
<path transform="matrix(1,0,0,-1,461.1835,685.3894)" d="M0 0C-12.68 0-22.996 10.316-22.996 22.996V81.729C-22.996 94.409-12.68 104.726 0 104.726H302.86C315.54 104.726 325.856 94.409 325.856 81.729V22.996C325.856 10.316 315.54 0 302.86 0Z" fill="#f3f9ff" />
<path transform="matrix(1,0,0,-1,764.0439,578.6638)" d="M0 0H-302.861C-316.666 0-327.856-11.191-327.856-24.996V-83.73C-327.856-97.535-316.666-108.726-302.861-108.726H0C13.805-108.726 24.996-97.535 24.996-83.73V-24.996C24.996-11.191 13.805 0 0 0M0-4C11.577-4 20.996-13.419 20.996-24.996V-83.73C20.996-95.307 11.577-104.726 0-104.726H-302.861C-314.438-104.726-323.856-95.307-323.856-83.73V-24.996C-323.856-13.419-314.438-4-302.861-4Z" fill="#ffffff" />
<path transform="matrix(1,0,0,-1,814.0361,685.3894)" d="M0 0C-12.68 0-22.996 10.316-22.996 22.996V81.729C-22.996 94.409-12.68 104.726 0 104.726H333.443C346.123 104.726 356.44 94.409 356.44 81.729V22.996C356.44 10.316 346.123 0 333.443 0Z" fill="#f3f9ff" />
<path transform="matrix(1,0,0,-1,1147.4795,578.6638)" d="M0 0H-333.444C-347.249 0-358.44-11.191-358.44-24.996V-83.73C-358.44-97.535-347.249-108.726-333.444-108.726H0C13.805-108.726 24.996-97.535 24.996-83.73V-24.996C24.996-11.191 13.805 0 0 0M0-4C11.577-4 20.996-13.419 20.996-24.996V-83.73C20.996-95.307 11.577-104.726 0-104.726H-333.444C-345.021-104.726-354.44-95.307-354.44-83.73V-24.996C-354.44-13.419-345.021-4-333.444-4Z" fill="#ffffff" />
<path transform="matrix(1,0,0,-1,814.0361,1046.3591)" d="M0 0C-12.68 0-22.996 10.315-22.996 22.995V333.974C-22.996 346.653-12.68 356.97 0 356.97H333.443C346.123 356.97 356.44 346.653 356.44 333.974V22.995C356.44 10.315 346.123 0 333.443 0Z" fill="#f3f9ff" />
<path transform="matrix(1,0,0,-1,1147.4795,687.38967)" d="M0 0H-333.444C-347.249 0-358.44-11.191-358.44-24.996V-335.974C-358.44-349.779-347.249-360.97-333.444-360.97H0C13.805-360.97 24.996-349.779 24.996-335.974V-24.996C24.996-11.191 13.805 0 0 0M0-4C11.577-4 20.996-13.419 20.996-24.996V-335.974C20.996-347.551 11.577-356.97 0-356.97H-333.444C-345.021-356.97-354.44-347.551-354.44-335.974V-24.996C-354.44-13.419-345.021-4-333.444-4Z" fill="#ffffff" />
</g>
<text xml:space="preserve" transform="matrix(1 0 -0 1 0 2623.16)" font-size="20.6007" font-family="ProximaNova-Medium"><tspan y="-2008.6777" x="1217.7266 1235.7316 1247.3297 1258.7507 1270.2439 1282.0275 1287.3424 1298.7737 1315.6663 1320.9812 1332.8184 1344.1549 1355.0054 1366.5211 1371.836 1383.2241 1394.0704 1405.854 1411.169 1417.4605 1424.1907 1435.8919 1447.3355 1459.222 1464.537 1474.4088 1486.1079 1497.5515 1509.4381 1514.753 1525.0534 1529.7277 1541.2538 1551.4717 1556.7866 1566.8295 1578.2875 1589.2471 1594.562 1611.3248 1615.9846 1627.3748 1638.9111 1644.2261 1655.0785 1666.4686 1678.005 1683.32 1694.7266 1706.1022 1717.8858 1729.3294 1741.216">•Theo em phần nào trong công việc của mình ảnh hưởng </tspan><tspan y="-1983.9569" x="1235.7316 1247.1217 1258.5015 1263.1963 1274.6276 1286.1433 1291.4583 1302.8484 1314.2838 1325.1527 1331.4566 1336.7715 1348.4541 1359.8174 1371.3331 1376.6481 1388.4625 1400.1184 1410.94 1415.7399 1421.0548 1427.0435 1438.4418 1449.2572 1465.2166">nhiều nhất đến goal team?</tspan><tspan y="-1959.2361" x="1217.7266 1235.7316 1247.4924 1264.385 1269.7001 1281.1438 1292.9067 1304.3423 1309.1423 1314.4574 1324.6795 1336.1253 1342.4291 1347.7442 1359.5071 1370.9652 1381.9248 1387.2399 1398.6321 1409.468 1421.2517 1426.5668 1436.6199 1448.0327 1459.7896 1471.2333 1483.12 1488.435 1505.204 1509.8804 1521.2726 1532.807 1538.1221 1554.891 1559.5509 1570.9431 1582.4796 1587.7947 1592.4711 1603.2864 1620.179 1625.494 1631.5176 1643.1983 1649.1271">•Em nghĩ kết quả nào chứng minh mình làm tốt?</tspan></text>
<text xml:space="preserve" transform="matrix(1 0 -0 1 0 2623.16)" font-size="20.6007" font-family="ProximaNova-SemiboldIt" font-weight="bold" font-style="italic"><tspan y="-1995.7405" x="479.1709 491.56016 496.60734 501.9017 515.8195 527.5331 538.9644 545.433 552.36306 557.2042 569.027 580.5943 587.06289 591.869 603.5826 615.2632 620.55758 632.77377 638.0681 651.02188 662.8487 673.0872 678.3816 690.4062 695.2288 706.78378 718.4849">2. Contribution – Xác định </tspan><tspan y="-1971.0197" x="479.1709 491.0946 502.75874 514.30337 526.2518 531.54617 543.3648 555.0887 566.9959 572.2903 582.2548 593.83657 605.80557 611.0999 622.65487 634.20156 646.0964 657.777 663.07138 673.415 678.2108 689.5227">đóng góp của nhân viên</tspan><tspan y="-1996.3173" x="825.73648 838.2534 843.15438 860.31478 865.60916 872.6752 884.64419 889.93856 900.06179 911.9566 916.9214 922.21578 928.6843 935.74008 947.54428 952.8386 962.8011 974.3849 986.3539 991.64828 1003.20529 1014.7499 1026.6467 1038.3273 1043.6217 1053.9653 1058.7611 1070.073 1081.7536 1087.048 1093.5166 1100.5724 1112.2819 1123.8244 1135.7727">Tìm ra vai trò của nhân viên trong </tspan><tspan y="-1971.5964" x="934.44638 946.26498 958.06918 969.96609 974.93087 980.2253 986.58889 998.00167 1009.8965">goal team</tspan></text>
<g clip-path="url(#clip_3)">
<path transform="matrix(1,0,0,-1,1839.5244,1046.3591)" d="M0 0C-12.68 0-22.996 10.315-22.996 22.995V333.974C-22.996 346.653-12.68 356.97 0 356.97H675.841C688.521 356.97 698.837 346.653 698.837 333.974V22.995C698.837 10.315 688.521 0 675.841 0Z" fill="#f3f9ff" />
<path transform="matrix(1,0,0,-1,2515.3653,687.38967)" d="M0 0H-675.841C-689.646 0-700.837-11.191-700.837-24.996V-335.974C-700.837-349.779-689.646-360.97-675.841-360.97H0C13.805-360.97 24.996-349.779 24.996-335.974V-24.996C24.996-11.191 13.805 0 0 0M0-4C11.577-4 20.996-13.419 20.996-24.996V-335.974C20.996-347.551 11.577-356.97 0-356.97H-675.841C-687.418-356.97-696.837-347.551-696.837-335.974V-24.996C-696.837-13.419-687.418-4-675.841-4Z" fill="#ffffff" />
<path transform="matrix(1,0,0,-1,1200.0791,794.11599)" d="M0 0C-12.68 0-22.996 10.316-22.996 22.996V81.73C-22.996 94.41-12.68 104.727 0 104.727H586.479C599.159 104.727 609.476 94.41 609.476 81.73V22.996C609.476 10.316 599.159 0 586.479 0Z" fill="#f3f9ff" />
<path transform="matrix(1,0,0,-1,1786.5586,687.38967)" d="M0 0H-586.479C-600.285 0-611.476-11.191-611.476-24.996V-83.73C-611.476-97.535-600.285-108.726-586.479-108.726H0C13.805-108.726 24.996-97.535 24.996-83.73V-24.996C24.996-11.191 13.805 0 0 0M0-4C11.577-4 20.996-13.419 20.996-24.996V-83.73C20.996-95.307 11.577-104.726 0-104.726H-586.479C-598.057-104.726-607.476-95.307-607.476-83.73V-24.996C-607.476-13.419-598.057-4-586.479-4Z" fill="#ffffff" />
<path transform="matrix(1,0,0,-1,461.1835,794.11599)" d="M0 0C-12.68 0-22.996 10.316-22.996 22.996V81.73C-22.996 94.41-12.68 104.727 0 104.727H302.86C315.54 104.727 325.856 94.41 325.856 81.73V22.996C325.856 10.316 315.54 0 302.86 0Z" fill="#f3f9ff" />
<path transform="matrix(1,0,0,-1,764.0439,687.38967)" d="M0 0H-302.861C-316.666 0-327.856-11.191-327.856-24.996V-83.73C-327.856-97.535-316.666-108.726-302.861-108.726H0C13.805-108.726 24.996-97.535 24.996-83.73V-24.996C24.996-11.191 13.805 0 0 0M0-4C11.577-4 20.996-13.419 20.996-24.996V-83.73C20.996-95.307 11.577-104.726 0-104.726H-302.861C-314.438-104.726-323.856-95.307-323.856-83.73V-24.996C-323.856-13.419-314.438-4-302.861-4Z" fill="#ffffff" />
</g>
<text xml:space="preserve" transform="matrix(1 0 -0 1 0 2623.16)" font-size="20.6007" font-family="ProximaNova-SemiboldIt" font-weight="bold" font-style="italic"><tspan y="-1887.0205" x="479.166 491.15766 496.20484 501.4992 516.1587 527.4273 538.62588 550.1499 561.6245 566.9189 579.1351 584.42947 598.3081 603.08547 614.3231 620.8947 626.1891 640.9845 652.7887 664.6856 669.6504 674.94479 688.2116 693.506 705.42556 716.484 726.8462">3. Deﬁne – Viết Goal &amp; Key </tspan><tspan y="-1862.2997" x="479.166 491.89723 503.21113 512.72866 524.32687 529.14749 535.78298 545.5065 550.80087 556.28067 568.5278 575.5835 587.295 592.0909 603.49337 613.9626 620.5342 625.82858 640.6219 652.4261 664.323 669.0509">Results (Project Goal)</tspan><tspan y="-1767.8248" x="816.66726 830.6922 842.1338 853.7629 863.85519 875.17117 886.85177 892.1461 902.5083 907.8027 914.1353 925.6532 937.478 949.0206 960.96908 966.2634 972.732 984.2766 996.1735 1007.7305 1019.4317 1024.7261 1036.5447 1048.3489 1060.2457 1065.2105 1070.5049 1082.4286 1094.2328 1099.5272 1111.3375 1122.8554 1134.6266">Chuyển ý tưởng thành goal đo được</tspan></text>
<g clip-path="url(#clip_4)">
<path transform="matrix(1,0,0,-1,1200.0791,934.65798)" d="M0 0C-12.68 0-22.996 10.316-22.996 22.996V113.547C-22.996 126.227-12.68 136.542 0 136.542H586.479C599.159 136.542 609.476 126.227 609.476 113.547V22.996C609.476 10.316 599.159 0 586.479 0Z" fill="#f3f9ff" />
<path transform="matrix(1,0,0,-1,1786.5586,796.1155)" d="M0 0H-586.479C-600.285 0-611.476-11.191-611.476-24.996V-115.546C-611.476-129.352-600.285-140.542-586.479-140.542H0C13.805-140.542 24.996-129.352 24.996-115.546V-24.996C24.996-11.191 13.805 0 0 0M0-4C11.577-4 20.996-13.419 20.996-24.996V-115.546C20.996-127.124 11.577-136.542 0-136.542H-586.479C-598.057-136.542-607.476-127.124-607.476-115.546V-24.996C-607.476-13.419-598.057-4-586.479-4Z" fill="#ffffff" />
<path transform="matrix(1,0,0,-1,461.1835,934.65798)" d="M0 0C-12.68 0-22.996 10.316-22.996 22.996V113.547C-22.996 126.227-12.68 136.542 0 136.542H302.86C315.54 136.542 325.856 126.227 325.856 113.547V22.996C325.856 10.316 315.54 0 302.86 0Z" fill="#f3f9ff" />
<path transform="matrix(1,0,0,-1,764.0439,796.1155)" d="M0 0H-302.861C-316.666 0-327.856-11.191-327.856-24.996V-115.546C-327.856-129.352-316.666-140.542-302.861-140.542H0C13.805-140.542 24.996-129.352 24.996-115.546V-24.996C24.996-11.191 13.805 0 0 0M0-4C11.577-4 20.996-13.419 20.996-24.996V-115.546C20.996-127.124 11.577-136.542 0-136.542H-302.861C-314.438-136.542-323.856-127.124-323.856-115.546V-24.996C-323.856-13.419-314.438-4-302.861-4Z" fill="#ffffff" />
</g>
<text xml:space="preserve" transform="matrix(1 0 -0 1 0 2623.16)" font-size="20.6007" font-family="ProximaNova-SemiboldIt" font-weight="bold" font-style="italic"><tspan y="-1762.3867" x="479.166 491.2874 496.3346 501.62898 516.28848 527.55709 538.7556 550.27969 561.7543 567.04867 579.26486 584.5592 598.43789 603.2152 614.45089 621.02249 626.31686 641.11227 652.91647 664.81338 669.77816 675.0725 688.33938 693.6337 705.5533 716.61386 726.976">4. Deﬁne – Viết Goal &amp; Key </tspan><tspan y="-1737.6659" x="479.166 491.89723 503.21113 512.72866 524.32687 529.14749 535.78298 545.5065 550.80087 556.28067 567.5863 579.1845 590.70858 601.1778 607.6464 612.4526 624.16409 635.6984 647.59536 652.5601 657.8545 672.6499 684.452 696.34896 701.07687">Results (Functional Goal)</tspan></text>
<g clip-path="url(#clip_5)">
<path transform="matrix(1,0,0,-1,1200.0791,1046.3591)" d="M0 0C-12.68 0-22.996 10.315-22.996 22.995V84.705C-22.996 97.385-12.68 107.701 0 107.701H586.479C599.159 107.701 609.476 97.385 609.476 84.705V22.995C609.476 10.315 599.159 0 586.479 0Z" fill="#f3f9ff" />
<path transform="matrix(1,0,0,-1,1786.5586,936.65798)" d="M0 0H-586.479C-600.285 0-611.476-11.191-611.476-24.996V-86.706C-611.476-100.511-600.285-111.702-586.479-111.702H0C13.805-111.702 24.996-100.511 24.996-86.706V-24.996C24.996-11.191 13.805 0 0 0M0-4C11.577-4 20.996-13.419 20.996-24.996V-86.706C20.996-98.283 11.577-107.702 0-107.702H-586.479C-598.057-107.702-607.476-98.283-607.476-86.706V-24.996C-607.476-13.419-598.057-4-586.479-4Z" fill="#ffffff" />
<path transform="matrix(1,0,0,-1,461.1835,1045.114)" d="M0 0C-12.68 0-22.996 10.316-22.996 22.996V81.73C-22.996 94.41-12.68 104.727 0 104.727H302.86C315.54 104.727 325.856 94.41 325.856 81.73V22.996C325.856 10.316 315.54 0 302.86 0Z" fill="#f3f9ff" />
<path transform="matrix(1,0,0,-1,764.0439,938.38796)" d="M0 0H-302.861C-316.666 0-327.856-11.191-327.856-24.996V-83.73C-327.856-97.535-316.666-108.726-302.861-108.726H0C13.805-108.726 24.996-97.535 24.996-83.73V-24.996C24.996-11.191 13.805 0 0 0M0-4C11.577-4 20.996-13.418 20.996-24.996V-83.73C20.996-95.307 11.577-104.726 0-104.726H-302.861C-314.438-104.726-323.856-95.307-323.856-83.73V-24.996C-323.856-13.418-314.438-4-302.861-4Z" fill="#ffffff" />
</g>
<text xml:space="preserve" transform="matrix(1 0 -0 1 0 2623.16)" font-size="20.6007" font-family="ProximaNova-SemiboldIt" font-weight="bold" font-style="italic"><tspan y="-1625.4346" x="479.166 491.6953 496.7425 502.03688 516.6943 527.96499 539.1615 550.6876 562.16226 567.4566 573.63687 578.9312 593.5886 604.63888 614.7476 626.0615 630.8636 642.538 654.3979 671.4244 682.73629 694.1676 700.7392 706.03359 720.829 732.6332 744.528">5. Deﬁne - Development Goal</tspan></text>
<g clip-path="url(#clip_6)">
<path transform="matrix(1,0,0,-1,1839.5244,1156.2166)" d="M0 0C-12.68 0-22.996 10.316-22.996 22.996V81.73C-22.996 94.41-12.68 104.727 0 104.727H675.841C688.521 104.727 698.837 94.41 698.837 81.73V22.996C698.837 10.316 688.521 0 675.841 0Z" fill="#f3f9ff" />
<path transform="matrix(1,0,0,-1,2515.3653,1049.4905)" d="M0 0H-675.841C-689.646 0-700.837-11.191-700.837-24.996V-83.729C-700.837-97.535-689.646-108.726-675.841-108.726H0C13.805-108.726 24.996-97.535 24.996-83.729V-24.996C24.996-11.191 13.805 0 0 0M0-4C11.577-4 20.996-13.418 20.996-24.996V-83.729C20.996-95.307 11.577-104.726 0-104.726H-675.841C-687.418-104.726-696.837-95.307-696.837-83.729V-24.996C-696.837-13.418-687.418-4-675.841-4Z" fill="#ffffff" />
<path transform="matrix(1,0,0,-1,1200.0791,1156.2166)" d="M0 0C-12.68 0-22.996 10.316-22.996 22.996V81.73C-22.996 94.41-12.68 104.727 0 104.727H586.479C599.159 104.727 609.476 94.41 609.476 81.73V22.996C609.476 10.316 599.159 0 586.479 0Z" fill="#f3f9ff" />
<path transform="matrix(1,0,0,-1,1786.5586,1049.4905)" d="M0 0H-586.479C-600.285 0-611.476-11.191-611.476-24.996V-83.729C-611.476-97.535-600.285-108.726-586.479-108.726H0C13.805-108.726 24.996-97.535 24.996-83.729V-24.996C24.996-11.191 13.805 0 0 0M0-4C11.577-4 20.996-13.418 20.996-24.996V-83.729C20.996-95.307 11.577-104.726 0-104.726H-586.479C-598.057-104.726-607.476-95.307-607.476-83.729V-24.996C-607.476-13.418-598.057-4-586.479-4Z" fill="#ffffff" />
<path transform="matrix(1,0,0,-1,461.1835,1156.2166)" d="M0 0C-12.68 0-22.996 10.316-22.996 22.996V81.73C-22.996 94.41-12.68 104.727 0 104.727H302.86C315.54 104.727 325.856 94.41 325.856 81.73V22.996C325.856 10.316 315.54 0 302.86 0Z" fill="#f3f9ff" />
<path transform="matrix(1,0,0,-1,764.0439,1049.4905)" d="M0 0H-302.861C-316.666 0-327.856-11.191-327.856-24.996V-83.729C-327.856-97.535-316.666-108.726-302.861-108.726H0C13.805-108.726 24.996-97.535 24.996-83.729V-24.996C24.996-11.191 13.805 0 0 0M0-4C11.577-4 20.996-13.418 20.996-24.996V-83.729C20.996-95.307 11.577-104.726 0-104.726H-302.861C-314.438-104.726-323.856-95.307-323.856-83.729V-24.996C-323.856-13.418-314.438-4-302.861-4Z" fill="#ffffff" />
<path transform="matrix(1,0,0,-1,814.0361,1156.2166)" d="M0 0C-12.68 0-22.996 10.316-22.996 22.996V81.73C-22.996 94.41-12.68 104.727 0 104.727H333.443C346.123 104.727 356.44 94.41 356.44 81.73V22.996C356.44 10.316 346.123 0 333.443 0Z" fill="#f3f9ff" />
<path transform="matrix(1,0,0,-1,1147.4795,1049.4905)" d="M0 0H-333.444C-347.249 0-358.44-11.191-358.44-24.996V-83.729C-358.44-97.535-347.249-108.726-333.444-108.726H0C13.805-108.726 24.996-97.535 24.996-83.729V-24.996C24.996-11.191 13.805 0 0 0M0-4C11.577-4 20.996-13.418 20.996-24.996V-83.729C20.996-95.307 11.577-104.726 0-104.726H-333.444C-345.021-104.726-354.44-95.307-354.44-83.729V-24.996C-354.44-13.418-345.021-4-333.444-4Z" fill="#ffffff" />
</g>
<text xml:space="preserve" transform="matrix(1 0 -0 1 0 2623.16)" font-size="20.6007" font-family="ProximaNova-SemiboldIt" font-weight="bold" font-style="italic"><tspan y="-1524.9209" x="479.166 491.68299 496.73014 502.0245 513.4785 524.89138 536.7759 546.3325 551.1737 563.0624 567.90359 572.74478 577.5756 584.52426 594.88638 600.1807 612.39486 617.6892 630.3195 635.09689 646.41287 663.57327 668.8676 675.33627 682.4002 694.3692 699.6636 706.1322 710.9734 722.5304 734.23159">6. Feasibility – Kiểm tra tính </tspan><tspan y="-1500.2001" x="479.166 489.87837 501.40446 513.3735 518.66787 525.1385 536.7037">khả thi</tspan><tspan y="-1514.4558" x="881.271 896.3136 908.19198 925.35238 930.6467 942.6054 954.42819 966.23239 971.52676 983.3454 995.1496 1007.0465 1012.0113 1017.30569 1023.77426 1035.2077 1046.913 1057.1515 1062.4459 1068.789">Đảm bảo goal thực tế</tspan></text>
<g clip-path="url(#clip_7)">
<path transform="matrix(1,0,0,-1,1839.5244,1263.2351)" d="M0 0C-12.68 0-22.996 10.316-22.996 22.996V81.73C-22.996 94.41-12.68 104.726 0 104.726H675.841C688.521 104.726 698.837 94.41 698.837 81.73V22.996C698.837 10.316 688.521 0 675.841 0Z" fill="#f3f9ff" />
<path transform="matrix(1,0,0,-1,2515.3653,1156.509)" d="M0 0H-675.841C-689.646 0-700.837-11.191-700.837-24.996V-83.73C-700.837-97.535-689.646-108.726-675.841-108.726H0C13.805-108.726 24.996-97.535 24.996-83.73V-24.996C24.996-11.191 13.805 0 0 0M0-4C11.577-4 20.996-13.419 20.996-24.996V-83.73C20.996-95.307 11.577-104.726 0-104.726H-675.841C-687.418-104.726-696.837-95.307-696.837-83.73V-24.996C-696.837-13.419-687.418-4-675.841-4Z" fill="#ffffff" />
<path transform="matrix(1,0,0,-1,1200.0791,1263.2351)" d="M0 0C-12.68 0-22.996 10.316-22.996 22.996V81.73C-22.996 94.41-12.68 104.726 0 104.726H586.479C599.159 104.726 609.476 94.41 609.476 81.73V22.996C609.476 10.316 599.159 0 586.479 0Z" fill="#f3f9ff" />
<path transform="matrix(1,0,0,-1,1786.5586,1156.509)" d="M0 0H-586.479C-600.285 0-611.476-11.191-611.476-24.996V-83.73C-611.476-97.535-600.285-108.726-586.479-108.726H0C13.805-108.726 24.996-97.535 24.996-83.73V-24.996C24.996-11.191 13.805 0 0 0M0-4C11.577-4 20.996-13.419 20.996-24.996V-83.73C20.996-95.307 11.577-104.726 0-104.726H-586.479C-598.057-104.726-607.476-95.307-607.476-83.73V-24.996C-607.476-13.419-598.057-4-586.479-4Z" fill="#ffffff" />
<path transform="matrix(1,0,0,-1,461.1835,1263.2351)" d="M0 0C-12.68 0-22.996 10.316-22.996 22.996V81.73C-22.996 94.41-12.68 104.726 0 104.726H302.86C315.54 104.726 325.856 94.41 325.856 81.73V22.996C325.856 10.316 315.54 0 302.86 0Z" fill="#f3f9ff" />
<path transform="matrix(1,0,0,-1,764.0439,1156.509)" d="M0 0H-302.861C-316.666 0-327.856-11.191-327.856-24.996V-83.73C-327.856-97.535-316.666-108.726-302.861-108.726H0C13.805-108.726 24.996-97.535 24.996-83.73V-24.996C24.996-11.191 13.805 0 0 0M0-4C11.577-4 20.996-13.419 20.996-24.996V-83.73C20.996-95.307 11.577-104.726 0-104.726H-302.861C-314.438-104.726-323.856-95.307-323.856-83.73V-24.996C-323.856-13.419-314.438-4-302.861-4Z" fill="#ffffff" />
<path transform="matrix(1,0,0,-1,814.0361,1263.2351)" d="M0 0C-12.68 0-22.996 10.316-22.996 22.996V81.73C-22.996 94.41-12.68 104.726 0 104.726H333.443C346.123 104.726 356.44 94.41 356.44 81.73V22.996C356.44 10.316 346.123 0 333.443 0Z" fill="#f3f9ff" />
<path transform="matrix(1,0,0,-1,1147.4795,1156.509)" d="M0 0H-333.444C-347.249 0-358.44-11.191-358.44-24.996V-83.73C-358.44-97.535-347.249-108.726-333.444-108.726H0C13.805-108.726 24.996-97.535 24.996-83.73V-24.996C24.996-11.191 13.805 0 0 0M0-4C11.577-4 20.996-13.419 20.996-24.996V-83.73C20.996-95.307 11.577-104.726 0-104.726H-333.444C-345.021-104.726-354.44-95.307-354.44-83.73V-24.996C-354.44-13.419-345.021-4-333.444-4Z" fill="#ffffff" />
</g>
<text xml:space="preserve" transform="matrix(1 0 -0 1 0 2623.16)" font-size="20.6007" font-family="ProximaNova-SemiboldIt" font-weight="bold" font-style="italic"><tspan y="-1405.6758" x="479.166 488.33329 493.38047 498.67485 516.64486 527.9567 532.8535 544.73397 556.17556 562.74716 568.0415 574.22177 579.5161 593.43399 605.3309 617.0115 622.30587 634.04 645.7494 650.7142 656.00857 662.9386 673.3008 678.59518 685.0617 692.0989 703.7939 715.33236">7. Weight - Cân đối tỷ trọng</tspan><tspan y="-1417.8713" x="822.12649 837.16909 849.0474 866.2078 871.5022 883.4609 895.28158 907.08578 912.3801 919.3102 929.67239 934.96676 941.4333 948.47048 960.1634 971.7039 983.65237 988.9467 998.96487 1010.7917 1021.0302 1026.3246 1038.1411 1049.9453 1061.8422 1066.8069 1072.1013 1082.1194 1094.0142 1105.6947 1110.9891 1122.7233 1134.4328 1139.3975">Đảm bảo tỷ trọng các goal cân đối </tspan><tspan y="-1393.1505" x="824.41317 834.5364 846.5054 851.79977 863.6596 875.1012 886.7818 892.0762 903.60226 915.38998 927.2972 932.59158 942.6859 954.51278 959.47756 964.7719 975.4843 987.0104 998.9794 1004.27377 1015.7875 1027.6658 1039.2062 1051.1546 1056.449 1062.8331 1074.66 1084.8986 1090.193 1101.9271 1113.6222 1125.1626">và phù hợp với khả năng tác động</tspan></text>
<g clip-path="url(#clip_8)">
<path transform="matrix(1,0,0,-1,1838.2383,1372.0056)" d="M0 0C-12.68 0-22.996 10.316-22.996 22.996V81.73C-22.996 94.41-12.68 104.727 0 104.727H675.841C688.521 104.727 698.837 94.41 698.837 81.73V22.996C698.837 10.316 688.521 0 675.841 0Z" fill="#f3f9ff" />
<path transform="matrix(1,0,0,-1,2514.079,1265.2796)" d="M0 0H-675.841C-689.646 0-700.837-11.191-700.837-24.996V-83.73C-700.837-97.535-689.646-108.726-675.841-108.726H0C13.805-108.726 24.996-97.535 24.996-83.73V-24.996C24.996-11.191 13.805 0 0 0M0-4C11.577-4 20.996-13.419 20.996-24.996V-83.73C20.996-95.307 11.577-104.726 0-104.726H-675.841C-687.418-104.726-696.837-95.307-696.837-83.73V-24.996C-696.837-13.419-687.418-4-675.841-4Z" fill="#ffffff" />
<path transform="matrix(1,0,0,-1,1198.6338,1372.0056)" d="M0 0C-12.68 0-22.996 10.316-22.996 22.996V81.73C-22.996 94.41-12.68 104.727 0 104.727H586.479C599.159 104.727 609.476 94.41 609.476 81.73V22.996C609.476 10.316 599.159 0 586.479 0Z" fill="#f3f9ff" />
<path transform="matrix(1,0,0,-1,1785.1128,1265.2796)" d="M0 0H-586.479C-600.284 0-611.476-11.191-611.476-24.996V-83.73C-611.476-97.535-600.284-108.726-586.479-108.726H0C13.805-108.726 24.996-97.535 24.996-83.73V-24.996C24.996-11.191 13.805 0 0 0M0-4C11.577-4 20.996-13.419 20.996-24.996V-83.73C20.996-95.307 11.577-104.726 0-104.726H-586.479C-598.057-104.726-607.476-95.307-607.476-83.73V-24.996C-607.476-13.419-598.057-4-586.479-4Z" fill="#ffffff" />
<path transform="matrix(1,0,0,-1,459.7372,1372.0056)" d="M0 0C-12.68 0-22.996 10.316-22.996 22.996V81.73C-22.996 94.41-12.68 104.727 0 104.727H302.86C315.54 104.727 325.856 94.41 325.856 81.73V22.996C325.856 10.316 315.54 0 302.86 0Z" fill="#f3f9ff" />
<path transform="matrix(1,0,0,-1,762.5981,1265.2796)" d="M0 0H-302.86C-316.666 0-327.856-11.191-327.856-24.996V-83.73C-327.856-97.535-316.666-108.726-302.86-108.726H0C13.805-108.726 24.996-97.535 24.996-83.73V-24.996C24.996-11.191 13.805 0 0 0M0-4C11.577-4 20.996-13.419 20.996-24.996V-83.73C20.996-95.307 11.577-104.726 0-104.726H-302.86C-314.437-104.726-323.856-95.307-323.856-83.73V-24.996C-323.856-13.419-314.437-4-302.86-4Z" fill="#ffffff" />
<path transform="matrix(1,0,0,-1,812.5898,1372.0056)" d="M0 0C-12.68 0-22.996 10.316-22.996 22.996V81.73C-22.996 94.41-12.68 104.727 0 104.727H333.443C346.123 104.727 356.44 94.41 356.44 81.73V22.996C356.44 10.316 346.123 0 333.443 0Z" fill="#f3f9ff" />
<path transform="matrix(1,0,0,-1,1146.0337,1265.2796)" d="M0 0H-333.444C-347.249 0-358.44-11.191-358.44-24.996V-83.73C-358.44-97.535-347.249-108.726-333.444-108.726H0C13.805-108.726 24.996-97.535 24.996-83.73V-24.996C24.996-11.191 13.805 0 0 0M0-4C11.577-4 20.996-13.419 20.996-24.996V-83.73C20.996-95.307 11.577-104.726 0-104.726H-333.444C-345.021-104.726-354.44-95.307-354.44-83.73V-24.996C-354.44-13.419-345.021-4-333.444-4Z" fill="#ffffff" />
</g>
<text xml:space="preserve" transform="matrix(1 0 -0 1 0 2623.16)" font-size="20.6007" font-family="ProximaNova-SemiboldIt" font-weight="bold" font-style="italic"><tspan y="-1309.1318" x="477.7217 490.24076 495.2879 500.58229 514.50839 526.2219 543.27938 560.3368 565.16769 571.6363 588.6607 599.9746 611.40597 617.97549 623.26986">8. Commitment –</tspan><tspan y="-1284.411" x="477.7217 492.78083 504.48204 516.0225 527.97097 533.2654 539.734 551.17568 562.75326 574.63168 586.31228 591.6067 603.4253 615.2295 627.1264">Đồng thuận goal</tspan><tspan y="-1310.1001" x="876.96328 891.8782 903.7751 908.73989 914.03427 926.00326 937.3151 948.9957 954.2901 960.75668 972.2827 983.9942 995.5347 1007.48318 1012.7775 1024.3345 1035.8606 1047.6998 1054.2715 1059.5659 1069.6891 1081.6581">Hai bên thống nhất và </tspan><tspan y="-1285.3793" x="898.1202 908.1383 920.0352 937.1956 942.49 952.8707 964.1084 970.68 975.97439 982.44296 993.8763 1005.5816 1015.8201 1021.1145 1032.6818 1037.459 1048.8141">cam kết thực hiện</tspan></text>
<text xml:space="preserve" transform="matrix(1 0 -0 1 0 2623.16)" font-size="20.6007" font-family="ProximaNova-Medium"><tspan y="-2104.3397" x="1888.2927 1903.0675 1907.7623 1918.6004 1923.4003 1928.7152 1935.0067 1946.405 1951.036 1961.0933 1972.6296 1977.9446 1989.759 2001.417 2012.2365 2017.0364 2022.3513 2032.3942 2043.8522 2054.8118 2060.1268 2066.1153 2077.5115 2088.3289 2105.2215 2110.1246 2115.4395 2127.2293 2131.8646 2143.263 2155.1497 2160.4647 2171.8548 2183.2552 2194.0704 2205.5863 2210.9012 2221.2015 2225.8409 2237.2723 2248.788 2254.103 2265.483 2270.1553 2281.5845 2293.1004 2298.4154 2308.7156 2313.5157 2318.8306 2328.3956 2339.2418 2351.0255 2356.3404 2368.155 2379.813 2390.6324 2395.4324 2400.7474 2412.5084 2423.9315 2434.7467 2446.2625 2451.5775 2457.8709 2464.6343 2476.3707 2487.8145">Giải thích goal của team, giúp nhân viên hiểu vì sao goal quan trọng</tspan><tspan y="-2079.6187" x="1888.2927 1903.0675 1907.7026 1919.101 1930.9876 1936.3025 1947.6946 1959.0929 1969.9104 1981.4262 1986.7411 1997.0414 2001.6807 2013.1119 2024.6277 2029.9426 2041.3224 2045.9946 2057.4239 2068.9398 2074.2547 2080.2432 2091.6417 2102.4569 2119.3494 2124.6644 2136.4932 2147.3106 2158.7545 2170.641 2175.956 2185.826 2197.6097 2202.9246 2210.8868 2216.354 2228.529 2233.844 2245.5679 2257.0838 2262.3988 2268.69 2273.3272 2284.7606 2296.2764 2301.5914 2311.6466 2323.0469 2327.7852 2339.1754 2350.7117">Giúp nhân viên hiểu team đang có 1-2 ưu tiên chính </tspan></text>
<g clip-path="url(#clip_9)">
<path transform="matrix(1,0,0,-1,0,2623.16)" d="M1878.236 2121.177H1860.213V2103.154H1878.236ZM1877.236 2104.153H1861.213V2120.176H1877.236Z" />
<path transform="matrix(1,0,0,-1,0,2623.16)" d="M1878.236 2095.343H1860.213V2077.32H1878.236ZM1877.236 2078.32H1861.213V2094.343H1877.236Z" />
</g>
<text xml:space="preserve" transform="matrix(1 0 -0 1 0 2623.16)" font-size="20.6007" font-family="ProximaNova-Medium"><tspan y="-1995.2422" x="1888.3067 1898.8583 1909.6819 1921.1255 1933.0121 1938.327 1949.7706 1961.5398 1972.9588 1984.4951 1989.81 2004.628 2016.389 2027.9769 2037.9044 2049.3709 2060.8868 2066.2017 2076.1395 2087.8758 2099.3197 2111.2064 2116.5213 2122.8126 2129.543 2141.2442 2152.6859 2164.5726 2169.8875 2179.7593 2191.4605 2202.9044 2214.791 2220.106 2230.4063 2235.0806 2246.6068 2256.8248 2262.1397 2272.1827 2283.6409 2294.6004 2299.9154 2311.3055 2322.7059 2333.521 2345.0369 2350.3519 2360.652 2365.2916 2376.723">Lắng nghe Nguyện vọng trong công việc của nhân viên</tspan><tspan y="-1970.5214" x="1888.3067 1898.8583 1909.6819 1921.1255 1933.0121 1938.327 1949.7706 1961.5398 1972.9588 1984.4951 1989.81 2004.6735 2016.3314 2027.1509 2031.9508 2037.2658 2049.0885 2060.872 2066.187 2077.5772 2088.9776 2099.7928 2111.3087 2116.6236 2126.9239 2131.5633 2142.9947 2154.5106 2159.8255 2171.4998 2183.0362 2188.351 2198.3385 2209.7967 2220.6656">Lắng nghe Goal do nhân viên đề xuất</tspan></text>
<g clip-path="url(#clip_10)">
<path transform="matrix(1,0,0,-1,0,2623.16)" d="M1878.236 2012.062H1860.213V1994.0391H1878.236ZM1877.236 1995.039H1861.213V2011.0619H1877.236Z" />
<path transform="matrix(1,0,0,-1,0,2623.16)" d="M1878.236 1986.228H1860.213V1968.2051H1878.236ZM1877.236 1969.205H1861.213V1985.2279H1877.236Z" />
</g>
<text xml:space="preserve" transform="matrix(1 0 -0 1 0 2623.16)" font-size="20.6007" font-family="ProximaNova-Medium"><tspan y="-1810.0742" x="1888.3067 1901.5714 1912.3806 1922.5985 1927.9135 1940.0658 1944.7813 1956.1714 1967.7078 1973.0227 1987.8861 1999.5441 2010.3635 2015.1635 2020.4784 2030.5192 2041.9793 2052.9388 2058.2537 2069.6439 2081.0443 2091.8594 2103.3753 2108.6903 2118.9906 2123.63 2135.0614 2146.5772 2151.892 2156.5645 2167.524 2172.8389 2184.507 2196.0003 2201.9786 2211.8504 2223.5516 2240.3616 2251.5889 2256.492 2261.807 2272.4864 2283.9073 2295.6065 2307.0523 2318.939 2324.254 2336.091 2347.5267 2358.3646 2363.1646 2368.4796 2374.7708 2385.623 2395.1488">Xác định Goal của nhân viên là outcome, không phải task</tspan><tspan y="-1768.8728" x="1888.3067 1902.5891 1914.1049 1919.4198 1925.7092 1930.3485 1941.7798 1953.2955 1958.6105 1970.8123 1977.1201 1989.3776 1994.6925 2006.507 2018.1649 2028.9844 2033.7843 2039.0993 2049.1524 2060.5528 2065.291 2076.6812 2088.2176 2093.5325 2103.4044 2115.188 2120.503 2126.7943 2137.6033 2147.8214 2153.1363 2164.8189 2176.5552 2187.9969 2199.8836 2205.1986 2215.2537 2226.654 2231.3924 2242.7825 2254.3189 2259.6339 2271.3165 2282.6798 2294.1956 2299.5106 2311.3253 2322.9832 2333.8026 2338.6026 2343.9176 2353.9708 2365.3465 2376.7449 2388.1888">Ưu tiên 3-5 goal chính có tác động chính đến goal chung</tspan><tspan y="-1727.6714" x="1888.3067 1905.3023 1916.9932 1921.7931 1927.108 1938.9246 1950.5805 1961.3999 1966.1998 1971.5148 1981.3866 1993.1702 1998.4851 2010.1184 2022.2439 2033.8833 2039.1983 2051.0147 2062.2359 2072.4744 2077.7894 2090.2364 2101.645 2111.1339 2122.5323 2127.3323 2133.9554">Mỗi goal có 2–3 Key Results</tspan><tspan y="-1686.47" x="1888.3067 1902.2946 1914.0781 1919.3931 1929.4483 1940.8651 1945.665 1950.98 1960.5057 1972.2893 1977.6043 1989.4558 2001.2394 2006.5543 2016.6857 2027.6453 2032.9602 2039.2517 2050.7078 2062.4813 2067.2813 2072.5963 2084.386 2089.044 2099.8656">Có chỉ số đo và thời gian</tspan></text>
<g clip-path="url(#clip_11)">
<path transform="matrix(1,0,0,-1,0,2623.16)" d="M1878.236 1826.894H1860.213V1808.8711H1878.236ZM1877.236 1809.871H1861.213V1825.8939H1877.236Z" />
<path transform="matrix(1,0,0,-1,0,2623.16)" d="M1878.236 1785.019H1860.213V1766.9961H1878.236ZM1877.236 1767.996H1861.213V1784.0189H1877.236Z" />
<path transform="matrix(1,0,0,-1,0,2623.16)" d="M1878.236 1743.575H1860.213V1725.552H1878.236ZM1877.236 1726.552H1861.213V1742.575H1877.236Z" />
<path transform="matrix(1,0,0,-1,0,2623.16)" d="M1878.236 1701.7H1860.213V1683.677H1878.236ZM1877.236 1684.677H1861.213V1700.7H1877.236Z" />
</g>
<text xml:space="preserve" transform="matrix(1 0 -0 1 0 2623.16)" font-size="20.6007" font-family="ProximaNova-Medium"><tspan y="-1887.1865" x="1217.7266 1235.7316 1247.4926 1264.3851 1269.7001 1279.918 1290.7704 1302.2861 1307.6011 1313.9255 1324.776 1336.6626 1341.9776 1348.269 1355.1044 1366.5027 1377.9463 1389.8329 1395.1478 1405.2813 1416.1255 1427.909 1433.224 1445.0282 1456.544 1461.8589 1472.6475 1484.1632 1489.4782 1500.8683 1511.7125 1522.5011 1531.9774">•Em cần tập trung vào dự án nào? </tspan><tspan y="-1862.4657" x="1217.7266 1235.7316 1250.3168 1261.8325 1267.1475 1277.936 1289.4518 1294.7667 1311.6119 1323.3832 1328.1831 1333.498 1344.9293 1361.8219 1367.1369 1377.3671 1388.2175 1399.7333 1405.0482 1411.3397 1422.7608 1434.2539 1446.0375 1451.3524 1460.9174 1471.7493 1478.0531 1483.368 1494.7931 1505.6436 1522.5361 1527.8511 1539.2412 1549.8444 1559.9181">•Dự án mới em cần theo sát năm nay?</tspan><tspan y="-1787.1907" x="1217.7266 1235.7316 1247.4926 1264.3851 1269.7001 1279.2361 1290.7725 1296.0874 1307.8132 1319.329 1324.6439 1330.9354 1335.5747 1347.006 1358.5217 1363.8367 1375.6511 1387.3091 1398.1286 1402.9285 1408.2434 1419.6336 1430.4778 1442.2614 1447.5763 1459.0324 1470.8159 1482.3317 1487.6466 1499.3292 1510.8656 1516.1806 1527.8425 1538.693 1555.5856 1560.9005 1572.717 1583.5963 1595.3799 1600.6948 1612.1159 1623.7717 1634.5872 1646.1029 1651.4179 1657.7094 1669.1098 1679.9252 1691.3153 1701.8876">•Em sẽ ưu tiên goal nào hơn để đảm bảo hoàn thành?</tspan><tspan y="-1762.4699" x="1217.7266 1235.7316 1247.5831 1259.0289 1265.3328 1270.6478 1282.4109 1293.869 1304.8286 1310.1437 1321.5359 1332.3718 1344.1555 1349.4706 1359.5258 1370.9386 1382.6954 1394.1392 1406.0258 1411.3408 1428.1098 1432.7861 1444.1784 1455.7149 1461.0299 1472.8466 1484.5066 1495.326 1500.1261 1505.4412 1517.2722 1528.2318 1533.5469 1545.347 1556.2139 1562.1427">•Kết quả nào chứng minh goal đã đạt?</tspan><tspan y="-1737.749" x="1217.7266 1235.7316 1249.565 1260.9365 1272.3348 1283.7764 1295.663 1300.9779 1307.2694 1318.229 1323.544 1333.082 1344.6184 1349.9334 1361.7849 1373.5685 1378.8834 1389.1076 1400.5532 1406.857 1412.172 1423.933 1435.391 1446.3506 1451.6655 1463.482 1474.3325 1485.7761 1497.6627 1502.9777 1513.0328 1524.4497 1529.2496 1534.5646 1544.0903 1555.8739 1561.1889 1572.579 1583.4232 1594.2118">•Chúng ta sẽ đo kết quả bằng chỉ số nào?</tspan><tspan y="-1713.0282" x="1217.7266 1235.7316 1248.3103 1259.6902 1264.4902 1269.8053 1281.1975 1292.0335 1303.8171 1309.1322 1320.9468 1332.6068 1343.4263 1348.2263 1353.5414 1365.4136 1376.7893 1388.5956 1398.8136 1404.1287 1414.0005 1425.6605 1430.4606 1435.7756 1440.452 1451.4116 1456.7267 1468.1395 1479.7996 1490.617 1502.1328 1507.4479 1513.7393 1525.1398 1535.9551 1547.3473 1557.9197">•Khi nào goal được coi là hoàn thành?</tspan><tspan y="-1537.3866" x="1217.7266 1235.7316 1249.7195 1261.503 1266.818 1277.4974 1288.9185 1300.702 1306.017 1316.6964 1328.1318 1338.9823 1350.498 1355.813 1367.2031 1378.0474 1389.8309 1395.1459 1405.9963 1417.3865 1428.9229 1434.2378 1445.6444 1457.02 1468.8036 1480.2472 1492.1338 1497.4487 1509.1293 1520.4926 1532.0083 1537.3233 1549.1377 1560.7957 1571.6151 1576.415 1581.73 1592.4074 1603.8305 1615.5296 1626.9732 1637.9636">•Có khó khăn nào ảnh hưởng đến goal không?</tspan><tspan y="-1512.6658" x="1217.7266 1235.7316 1247.4926 1264.3851 1269.7001 1279.918 1290.7704 1302.2861 1307.6011 1319.055 1330.8386 1336.1536 1342.4451 1349.2083 1360.9918 1366.3068 1378.1254 1382.9253 1388.2402 1394.3566 1405.8723 1411.1873 1427.0313 1438.4913 1449.3418 1460.8576 1466.1725 1471.0219 1481.1903">•Em cần hỗ trợ gì từ Quản lý?</tspan><tspan y="-1487.945" x="1217.7266 1235.7316 1250.595 1262.2529 1273.0724 1277.8723 1283.1873 1294.5753 1305.1806 1315.4191 1320.734 1330.6058 1342.3894 1347.7044 1358.3817 1369.8192 1380.7788 1386.0938 1392.3832 1403.763 1408.5629 1413.8778 1423.8156 1435.5868 1440.3867 1445.7017 1456.3811 1467.8372 1479.491 1484.2909 1489.6058 1494.2904 1505.666 1517.4496 1528.8932 1540.7798 1546.0947 1555.9666 1567.6677 1579.1093 1590.9959 1596.3108 1606.6111 1611.2854 1622.8218 1633.0397 1638.3546 1649.7324 1654.4067 1665.873 1677.3888 1682.7037 1689.0303 1699.8683 1704.6682 1709.9832 1720.6605 1732.0816 1743.7827 1755.2263 1766.2168">•Goal này có khả thi với khối lượng công việc hiện tại không?</tspan><tspan y="-1418.706" x="1217.7266 1235.7316 1250.595 1262.2529 1273.0724 1277.8723 1283.1873 1294.5753 1305.4216 1317.2052 1322.5202 1327.1945 1338.154 1343.469 1355.1948 1366.7106 1372.0255 1378.317 1382.9542 1394.3876 1405.9033 1411.2183 1421.2734 1432.6738 1437.412 1448.8021 1460.3385 1465.6535 1471.945 1478.6752 1490.3764 1501.82 1513.7066 1519.0215 1528.8933 1540.5945 1552.036 1563.9226 1569.2376 1579.5379 1584.2122 1595.7485 1605.9664 1611.2814 1622.6592 1627.3335 1638.7998 1650.3156 1655.6305 1661.957 1672.795 1677.595">•Goal nào là ưu tiên chính trong công việc hiện tại?</tspan><tspan y="-1393.9852" x="1217.7266 1235.7316 1250.595 1262.2529 1273.0724 1277.8723 1283.1873 1294.5753 1305.4216 1317.2052 1322.5202 1333.9308 1345.362 1356.8778 1362.1928 1372.2459 1383.6256 1388.2999 1399.6632 1416.5558 1421.8707 1433.2609 1444.6406 1449.3355 1460.7667 1472.2825 1477.5974 1483.8889 1495.345 1507.1183 1511.9182 1517.2332 1529.023 1533.6828 1544.5022 1556.018 1561.3329 1571.4663 1582.4259 1587.7409 1597.6127 1609.3139 1620.7575 1632.644 1637.959 1647.4827 1658.9675 1669.1854 1674.5004 1685.9564 1697.74 1708.3019">•Goal nào nên chiếm nhiều thời gian và công sức hơn?</tspan><tspan y="-1309.9343" x="1217.7266 1235.7316 1247.5831 1259.1195 1264.4345 1275.8555 1287.5464 1298.4277 1308.4808 1320.0172 1325.3322 1337.0148 1348.5512 1353.8661 1365.2953 1382.1879 1387.5028 1393.7943 1405.2009 1416.6879 1426.9058 1432.2207 1443.6026 1448.2748 1459.7411 1471.2568 1476.5718 1493.3655 1504.8441 1515.062 1520.377 1526.6705 1531.3078 1542.702 1554.2178 1559.5327 1570.9229 1582.3336 1593.8494 1599.1643 1605.4558 1616.9119 1628.4483 1633.7632 1645.1533 1655.9976 1666.7861">•Kế hoạch để em thực hiện mục tiêu như thế nào?</tspan><tspan y="-1285.2135" x="1217.7266 1235.7316 1249.565 1260.9365 1272.3348 1283.7764 1295.663 1300.9779 1307.2694 1318.229 1323.544 1333.082 1344.6184 1349.9334 1356.2228 1367.6438 1379.137 1390.9205 1396.2355 1408.0603 1419.7162 1424.5161 1429.831 1436.1226 1440.7969 1452.1602 1463.6759 1468.9909 1480.6735 1492.457 1497.772 1509.1621 1520.5729 1532.0886 1537.4036 1543.6972 1555.1532 1566.6896 1572.0045 1583.3947 1594.2389 1605.0275">•Chúng ta sẽ theo dõi tiến độ như thế nào?</tspan><tspan y="-1648.4863" x="1217.7266 1235.7316 1250.5126 1261.363 1272.8067 1284.6932 1290.0082 1294.6928 1306.1797 1316.3976 1321.7125 1328.0164 1333.3313 1345.3086 1355.5471 1360.862 1372.2852 1383.1376 1394.5812 1406.4678 1411.7827 1422.0006 1432.853 1444.3688 1449.6837 1461.0739 1471.9202 1483.7037 1489.0187 1499.2489 1510.0994 1521.6151 1526.93 1538.7301 1549.597 1555.9009 1561.2158 1578.0075 1589.4861 1599.704 1605.0189 1611.3104 1615.9497 1627.344 1638.8598 1644.1747 1654.3926 1665.2327 1670.0326 1675.3475 1681.639 1693.0188 1697.6931 1709.1594 1720.7617 1726.4826 1738.3197 1749.7201 1760.552 1766.8558">•Năng lực / Kỹ năng cần nào cần đặt mục tiêu cải thiện/phát </tspan><tspan y="-1623.7655" x="1235.7316 1242.0231 1248.8584 1253.5307 1264.997 1276.5127 1281.8276 1288.1192 1294.8494 1306.5505 1317.9942 1329.8807 1335.1957 1346.6207 1357.4712 1374.3638 1379.6787 1391.0668 1401.672 1411.9105 1417.2255 1428.906 1440.4424 1445.7573 1457.5945 1469.0011 1480.4797 1490.6976 1496.0126 1506.3479 1517.8637 1523.1786 1534.5996 1546.2576 1557.073 1568.5888 1573.9037 1580.1952 1591.5956 1602.4131 1613.8012 1625.3375 1630.6525 1647.4462 1658.9248 1669.1427 1674.4577 1680.7471 1685.3864 1696.7807 1708.2964 1713.6113 1723.4832 1735.1843 1746.6279 1758.5145">triển trong năm nay để phục vụ hoàn thành mục tiêu công </tspan><tspan y="-1599.0447" x="1235.7316 1246.0319 1250.7062 1262.2426 1271.5005 1280.9768">việc? </tspan><tspan y="-1537.3867" x="1888.3206 1903.184 1914.8419 1925.6614 1930.4613 1935.7763 1947.1643 1957.7695 1968.008 1973.323 1983.1948 1994.9784 2000.2933 2004.9635 2009.6028 2021.034 2032.5498 2037.8648 2049.6258 2061.0489 2071.8663 2083.382 2088.697 2100.3797 2111.743 2123.2589 2128.5738 2138.4456 2150.1468 2161.5906 2173.4774 2178.7923 2189.0926 2193.7669 2205.3033 2215.5213 2220.8363 2232.216 2236.8905 2248.3568 2259.8726 2265.1876 2271.5118 2282.3519 2287.1519 2292.4669 2302.5118 2313.9678 2324.9273 2330.2423 2341.6324 2353.0328 2363.848 2375.3638 2380.6788 2390.979 2395.6185 2407.0477">Goal này có liên quan đến công việc hiện tại của nhân viên</tspan><tspan y="-1512.6659" x="1888.3206 1903.184 1914.8419 1925.6614 1930.4613 1935.7763 1946.4536 1957.889 1968.8486 1974.1636 1980.4551 1991.8348 1996.6348 2001.9497 2011.8875 2023.6587 2028.4586 2033.7736 2040.0651 2051.5213 2063.2947 2068.0948 2073.4097 2085.2017 2089.8597 2100.6812 2112.197 2117.512 2127.6456 2138.605 2143.92 2155.3638 2167.1248 2178.5623 2190.2987 2201.8145 2207.1295 2211.814 2223.301">Goal khả thi với thời gian và nguồn lực</tspan><tspan y="-1487.9451" x="1888.3206 1900.9116 1912.3656 1917.1655 1922.4805 1929.2107 1940.9943 1946.3092 1956.3644 1967.7648 1972.5029 1983.8931 1995.4295 2000.7444 2012.5753 2023.5349 2028.8499 2040.722 2052.0977 2063.904 2074.122 2079.437 2089.2596 2100.0687 2110.2867 2115.6016 2127.752 2132.4696 2143.8597">Rủi ro chính đã được xác định</tspan></text>
<g clip-path="url(#clip_12)">
<path transform="matrix(1,0,0,-1,0,2623.16)" d="M1878.236 1553.252H1860.213V1535.229H1878.236ZM1877.236 1536.229H1861.213V1552.252H1877.236Z" />
<path transform="matrix(1,0,0,-1,0,2623.16)" d="M1878.236 1528.883H1860.213V1510.8601H1878.236ZM1877.236 1511.859H1861.213V1527.882H1877.236Z" />
<path transform="matrix(1,0,0,-1,0,2623.16)" d="M1878.236 1504.513H1860.213V1486.49H1878.236ZM1877.236 1487.49H1861.213V1503.513H1877.236Z" />
</g>
<text xml:space="preserve" transform="matrix(1 0 -0 1 0 2623.16)" font-size="20.6007" font-family="ProximaNova-Medium"><tspan y="-1321.0166" x="1888.3067 1904.1527 1915.6107 1926.4612 1937.9769 1943.2919 1948.1412 1958.3798 1963.6947 1975.0745 1979.7488 1991.178 2002.6937 2008.0087 2018.1421 2029.1017 2034.4166 2044.6118 2055.427 2072.3197 2077.6346 2087.8587 2099.3045 2105.6082 2110.923 2122.3792 2134.1629 2139.4779 2145.769 2152.5345 2164.318 2169.633 2181.0213 2192.4217 2203.239 2214.755 2220.0699 2230.37 2235.0096 2246.441">Quản lý hiểu và cam kết hỗ trợ nhân viên</tspan><tspan y="-1296.2958" x="1888.3067 1903.131 1913.934 1918.7339 1924.0488 1935.9396 1947.3709 1958.8866 1964.2015 1975.9501 1987.6863 1999.1299 2011.0165 2016.3314 2022.6209 2033.9945 2045.4525 2056.303 2067.8189 2073.1339 2084.9464 2096.6043 2107.4237">Hai bên đồng thuận goal</tspan><tspan y="-1271.575" x="1888.3067 1899.9048 1911.3609 1923.0208 1934.4644 1946.351 1951.6659 1963.056 1974.4915 1985.3604 1991.6642 1996.9791 2007.2033 2018.7396 2024.0546 2035.4756 2047.1685 2058.0477 2068.1029 2079.6392 2084.954 2091.2454 2098.0787 2102.753 2114.2174 2125.7332 2131.048 2141.7276 2153.128 2163.931 2168.731 2174.046 2187.2716 2192.5865 2197.2896 2201.9639 2212.019 2223.5555 2228.8704 2238.9256 2250.3446 2261.8377 2271.8929 2281.915 2288.3199 2293.0006 2304.5164 2309.8314 2316.1226 2320.7969 2332.1602 2343.676 2348.991 2360.6737">Thống nhất kế hoạch triển khai &amp; lịch check-in tiến độ</tspan></text>
<g clip-path="url(#clip_13)">
<path transform="matrix(1,0,0,-1,0,2623.16)" d="M1878.236 1336.898H1860.213V1318.875H1878.236ZM1877.236 1319.875H1861.213V1335.898H1877.236Z" />
<path transform="matrix(1,0,0,-1,0,2623.16)" d="M1878.236 1312.529H1860.213V1294.5061H1878.236ZM1877.236 1295.506H1861.213V1311.5289H1877.236Z" />
<path transform="matrix(1,0,0,-1,0,2623.16)" d="M1878.236 1288.159H1860.213V1270.1361H1878.236ZM1877.236 1271.136H1861.213V1287.1589H1877.236Z" />
</g>
<text xml:space="preserve" transform="matrix(1 0 -0 1 0 2623.16)" font-size="20.6007" font-family="ProximaNova-Medium"><tspan y="-1417.5635" x="1888.3067 1903.17 1914.828 1925.6475 1930.4474 1935.7623 1947.5995 1958.9978 1970.4393 1982.3259 1987.6409 1997.5786 2009.3519 2014.1519 2019.4668 2029.6023 2040.4033 2045.2033 2050.5184 2056.8096 2063.54 2075.3238 2080.6387 2090.6817 2102.1378 2113.0972 2118.412 2129.8004 2141.2008 2152.0159 2163.5318 2168.8468 2179.147 2183.7864 2195.2178 2206.7337 2212.0487 2222.2667 2233.117 2244.6329 2249.9478 2259.8197 2271.6033 2276.9183 2283.7535 2293.992 2299.307 2305.5982 2312.3636 2324.0999 2335.5438 2347.4305 2352.7454 2362.9407 2373.7847">Goal đúng với vai trò của nhân viên cần có tỷ trọng cao</tspan><tspan y="-1392.8427" x="1888.3067 1903.0814 1907.7763 1918.6307 1935.5233 1940.8383 1947.6757 1957.9142 1963.2291 1969.5186 1976.2838 1988.02 1999.4636 2011.3502 2016.6652 2026.8604 2037.6696 2047.8875 2053.2025 2065.017 2076.673 2087.4947 2092.2947 2097.6097 2107.4815 2119.2652 2124.58 2136.4173 2147.8238 2159.3397 2164.6546 2170.9459 2182.3175 2193.7962 2205.5614 2215.7794 2221.0943 2231.2257 2242.0718 2253.8555 2259.1705 2269.098 2280.4613 2291.977 2297.292 2303.3155 2315.099 2320.414 2332.3048 2343.736 2355.252 2360.567 2372.0108 2383.8255 2395.4815 2406.2864">Giảm tỷ trọng các goal có phụ thuộc vào yếu tố bên ngoài</tspan></text>
<g clip-path="url(#clip_14)">
<path transform="matrix(1,0,0,-1,0,2623.16)" d="M1878.236 1433.747H1860.213V1415.724H1878.236ZM1877.236 1416.724H1861.213V1432.747H1877.236Z" />
<path transform="matrix(1,0,0,-1,0,2623.16)" d="M1878.236 1408.574H1860.213V1390.551H1878.236ZM1877.236 1391.551H1861.213V1407.574H1877.236Z" />
</g>
<text xml:space="preserve" transform="matrix(1 0 -0 1 0 2623.16)" font-size="60" font-family="ProximaNova-Extrabld"><tspan y="-2424.8165" x="329.875 370.675 414.71498 456.53498 496.19499">BOARD</tspan></text>
<text xml:space="preserve" transform="matrix(1 0 -0 1 0 2623.16)" font-size="36" font-family="ProximaNova-Semibold" font-weight="bold"><tspan y="-2353.455" x="329.875 343.771 352.591 361.84303 382.01744 408.04545 433.10145 460.84666 486.66227 512.47427 521.72628 547.00546 572.8894 598.705 624.517 633.76907 659.6638 680.4358 689.6878 713.0698 722.4154 743.0578 768.9418 778.1938 798.36819 824.479 833.803 843.055 867.553 890.5678 915.1198 924.3718 948.7186 972.853 998.66867 1024.4806 1033.7326 1057.6618 1085.0974 1110.4379 1130.6122 1151.5929 1176.9297 1197.7017 1206.9536 1216.2056 1239.026 1263.1604 1288.9761">1. THƯỜNG DÙNG ĐỂ BIỂU THỊ CÁC DẠNG CONTENT  BẢNG</tspan></text>
<text fill="#2c2c2c" xml:space="preserve" transform="matrix(1 0 -0 1 0 2623.16)" font-size="20" font-family="ProximaNova-Semibold" font-weight="bold"><tspan y="-161.877" x="2298.2149 2309.8948">26</tspan></text>
<g clip-path="url(#clip_15)">
<path transform="matrix(1,0,0,-1,1717.5833,1909.1382)" d="M0 0H-488.437L-595.916-128.622H-107.095Z" fill="#3333ff" />
<path transform="matrix(1,0,0,-1,1659.1127,2037.7601)" d="M0 0H-26.966L23.782 60.731Z" fill="#3333ff" />
<path transform="matrix(1,0,0,-1,1183.0984,1909.1382)" d="M0 0H26.966L-23.782-60.73Z" fill="#3333ff" />
</g>
<text fill="#ffec06" xml:space="preserve" transform="matrix(1 0 -0 1 0 2623.16)" font-size="28" font-family="ProximaNova-ExtrabldIt" font-style="italic"><tspan y="-640.2612" x="1267.6644 1287.2813 1304.4817 1322.8217 1329.9896 1349.9116 1371.0685 1391.6653 1411.9093 1419.0773 1439.8645 1461.1725 1469.3485 1476.5165 1497.1133 1516.9541 1537.9541 1545.1221 1564.3076">XÂY DỰNG ĐỘI NGŨ AI</tspan></text>
<g clip-path="url(#clip_16)">
<path transform="matrix(1,0,0,-1,1717.5833,2154.4844)" d="M0 0H-488.437L-595.916-128.622H-107.095Z" fill="#3333ff" />
<path transform="matrix(1,0,0,-1,1659.1127,2283.1065)" d="M0 0H-26.966L23.782 60.73Z" fill="#3333ff" />
<path transform="matrix(1,0,0,-1,1183.0984,2154.4844)" d="M0 0H26.966L-23.782-60.731Z" fill="#3333ff" />
</g>
<text fill="#ffec06" xml:space="preserve" transform="matrix(1 0 -0 1 0 2623.16)" font-size="28" font-family="ProximaNova-ExtrabldIt" font-style="italic"><tspan y="-406.0493" x="1273.2832 1292.9 1310.1005 1328.4406 1335.6087 1355.5307 1376.6875 1397.2955 1417.5368 1424.7048 1445.4445 1461.9365 1469.1046 1484.849 1505.485 1526.821 1547.4291">XÂY DỰNG HỆ THỐNG</tspan><tspan y="-372.44929" x="1323.0392 1338.7976 1359.7976 1366.9657 1387.7501 1409.061 1429.6691 1449.9103 1457.0784 1477.7144 1498.3869">TỰ ĐỘNG HOÁ</tspan></text>
<g clip-path="url(#clip_17)">
<g opacity=".199997">
<g clip-path="url(#clip_18)">
<path transform="matrix(1,0,0,-1,1786.3978,2105.7296)" stroke-width="1" stroke-linecap="butt" stroke-miterlimit="10" stroke-linejoin="miter" fill="none" stroke="#000000" d="M0 0C0-202.563-164.21-366.772-366.772-366.772-569.335-366.772-733.545-202.563-733.545 0-733.545 202.563-569.335 366.772-366.772 366.772-164.21 366.772 0 202.563 0 0Z" />
<g opacity=".600006">
<g clip-path="url(#clip_19)">
<path transform="matrix(1,0,0,-1,1980.2675,2105.7296)" stroke-width="1" stroke-linecap="butt" stroke-miterlimit="10" stroke-linejoin="miter" fill="none" stroke="#000000" d="M0 0C0-309.634-251.008-560.642-560.642-560.642-870.276-560.642-1121.284-309.634-1121.284 0-1121.284 309.634-870.276 560.642-560.642 560.642-251.008 560.642 0 309.634 0 0Z" />
</g>
</g>
<g opacity=".300003">
<g clip-path="url(#clip_20)">
<path transform="matrix(1,0,0,-1,2197.388,2105.7296)" stroke-width="1" stroke-linecap="butt" stroke-miterlimit="10" stroke-linejoin="miter" fill="none" stroke="#000000" d="M0 0C0-429.546-348.216-777.763-777.763-777.763-1207.309-777.763-1555.525-429.546-1555.525 0-1555.525 429.546-1207.309 777.763-777.763 777.763-348.216 777.763 0 429.546 0 0Z" />
</g>
</g>
</g>
</g>
<path transform="matrix(1,0,0,-1,1457.3533,2086.2718)" d="M0 0H-27.999V27.999H-47.457V0H-75.456V-19.458H-47.457V-47.457H-27.999V-19.458H0Z" fill="#3333ff" />
<path transform="matrix(1,0,0,-1,0,2623.16)" d="M1429.354 517.43H1409.896V536.888H1429.354Z" fill="#9898ff" />
</g>
<text xml:space="preserve" transform="matrix(1 0 -0 1 0 2623.16)" font-size="28" font-family="ZXRVXQ+ProximaNova-Semibold" font-weight="bold"><tspan y="-743.4775" x="729.792 749.92398 764.62118 780.30398 796.54397 803.7399 817.6279 832.39517 848.57919 855.77517 869.6268 884.36318 898.2792 905.47518 918.86758 934.6736 950.3564 966.5964 973.79238 987.3948 1003.27078 1010.46676 1029.2968 1036.5487">Nâng cấp các công cụ AI </tspan><tspan y="-709.8775" x="729.792 745.8248 761.4152 777.0924 791.0084 798.2044 812.3332 828.20919 835.40518 848.79757 864.6036 880.2864 896.52639 903.72238 917.80636 924.3191 939.8479">phục vụ công việc</tspan><tspan y="-537.4815" x="624.344 643.1432 658.72518 665.18478 680.19277 687.38876 700.40878 716.00479 723.20077 739.33438 754.66439 767.9588 776.8908 784.0868 800.1196 809.6256 824.362 838.7736 847.5824 854.05599 867.4344 882.7644 895.9804 903.1764 917.0392">Chia sẻ best practices và</tspan><tspan y="-503.8815" x="624.344 640.05477 653.0355 668.63156 675.8275 689.67636 704.42398 717.4047 732.73477 745.95077 753.1467 761.9583 771.4083 787.21438 802.89437 819.13436 826.3303 840.18197 854.91836 868.83438 876.03036 884.51156 899.92837 914.62557">use cases trong các team</tspan><tspan y="-743.47756" x="1822.464 1842.5961 1857.2933 1872.9761 1889.2161 1896.4121 1910.2609 1924.9973 1941.0413 1948.2373 1957.0462 1963.559 1978.9058 1994.5885 2010.8285 2018.0245 2032.7218 2048.2843 2064.1883">Nâng cao tiếng anh </tspan><tspan y="-709.87759" x="1822.464 1838.3484 1853.9443 1861.1404 1869.9492 1876.462 1891.806 1907.99 1915.186 1929.0769 1943.8134 1959.6893 1966.8854 1980.4989 1996.4085 2003.1565 2010.3526 2029.1825">để tiếp cận với AI</tspan><tspan y="-537.48159" x="1899.968 1918.1065 1932.5629 1946.6469 1953.8429 1969.8364 1985.9141 2001.5968 2017.8368 2025.0328 2033.8445 2049.4349 2065.3109 2072.5069 2086.5909 2093.1038 2108.4786 2124.3546 2131.5506 2147.5836 2157.0335 2172.8394 2195.8695 2211.9613 2221.2432 2234.4593">Xây dựng thư viện prompts </tspan><tspan y="-503.88157" x="1899.968 1918 1925.196 1944.026 1951.278 1958.474 1979.1492 1994.9523 2004.4022 2019.8079 2034.995 2050.6024 2071.608 2084.824 2092.02 2107.9744 2123.5479 2139.2279 2155.4678 2162.6639 2176.2298 2191.7838 2207.3572 2223.04">&amp; AI workﬂows dùng chung</tspan><tspan y="-334.39759" x="1822.464 1837.1836 1853.2276 1860.4236 1873.9896 1889.5801 1905.3076 1919.2236 1926.4197 1947.095 1962.9009 1972.3508 1987.0789 2000.0568 2015.7228 2031.5287 2047.7127 2054.9088">Tổ chức workshop &amp;</tspan><tspan y="-300.79759" x="1822.464 1831.2756 1840.7844 1855.4481 1861.9218 1877.4757 1883.9465 1899.6293 1915.8693 1923.0653 1936.6649 1952.2609 1959.4569 1978.2869">training về AI</tspan><tspan y="-334.39759" x="870.464 887.7708 903.322 919.2036 932.8032 948.15 964.026 971.222 985.8576 1001.4256 1007.8376 1021.4176">Khuyến khích</tspan><tspan y="-300.79759" x="870.464 879.2756 894.86599 910.74197 917.9379 933.6179 949.5555 965.13748 971.6502 987.02786 1010.3518 1017.5478 1036.3778">thử nghiệm AI</tspan></text>
<text xml:space="preserve" transform="matrix(1 0 -0 1 0 2623.16)" font-size="36" font-family="ProximaNova-Semibold" font-weight="bold"><tspan y="-945.2793" x="329.875 351.6586 360.4786 369.73063 389.90504 415.93305 440.98905 468.73426 494.54988 520.3619 529.6139 554.89309 580.77706 606.59268 632.40469 641.6567 667.5515 688.3235 697.5755 720.9575 730.3031 750.9455 776.82949 786.0815 806.25588 832.3667 841.6907 850.9427 875.4407 898.4555 923.0075 932.2595 956.6063 980.7407 1006.55636 1032.3683 1041.6203 1065.5494 1092.9851 1118.3256 1138.4999 1159.4806 1184.821 1205.593 1214.845 1237.2369 1263.5818 1284.829 1307.761 1317.013 1344.3694 1369.0798 1393.2142 1419.217">2. THƯỜNG DÙNG ĐỂ BIỂU THỊ CÁC DẠNG CONTENT XOAY QUANH</tspan></text>
</g>
</g>
</svg>