<?xml version='1.0' encoding='utf-8'?>
<svg xmlns="http://www.w3.org/2000/svg" xmlns:ns1="http://www.inkscape.org/namespaces/inkscape" version="1.1" width="1920" height="1080" viewBox="0 0 1920 1080">
<defs>
<clipPath id="clip_1">
<path transform="matrix(1,0,0,-1,0,1080)" d="M0 1080H1920V0H0Z" />
</clipPath>
<clipPath id="clip_2">
<path transform="matrix(1,0,0,-1,0,1080)" d="M0 1080H1920V0H0Z" />
</clipPath>
<clipPath id="clip_3">
<path transform="matrix(1,0,0,-1,0,1080)" d="M0 1080H1920V0H0Z" />
</clipPath>
<clipPath id="clip_4">
<path transform="matrix(1,0,0,-1,0,1080)" d="M0 1080H1920V0H0Z" />
</clipPath>
<clipPath id="clip_5">
<path transform="matrix(1,0,0,-1,0,1080)" d="M0 1080H1920V0H0Z" />
</clipPath>
<clipPath id="clip_6">
<path transform="matrix(1,0,0,-1,0,1080)" d="M0 1080H1920V0H0Z" />
</clipPath>
<clipPath id="clip_7">
<path transform="matrix(1,0,0,-1,0,1080)" d="M0 1080H1920V0H0Z" />
</clipPath>
</defs>
<g>
<g ns1:groupmode="layer" ns1:label="Layer 1">
</g>
<g ns1:groupmode="layer" ns1:label="Layer 2">
</g>
<g ns1:groupmode="layer" ns1:label="Page18">
</g>
<g ns1:groupmode="layer" ns1:label="Page17">
</g>
<g ns1:groupmode="layer" ns1:label="Page 16">
</g>
<g ns1:groupmode="layer" ns1:label="Page 15">
</g>
<g ns1:groupmode="layer" ns1:label="Page 14">
</g>
<g ns1:groupmode="layer" ns1:label="Page 13">
</g>
<g ns1:groupmode="layer" ns1:label="Page 12">
</g>
<g ns1:groupmode="layer" ns1:label="Page 11">
</g>
<g ns1:groupmode="layer" ns1:label="Page 10">
</g>
<g ns1:groupmode="layer" ns1:label="Page 9">
</g>
<g ns1:groupmode="layer" ns1:label="Page7">
</g>
<g ns1:groupmode="layer" ns1:label="Page 8">
<path transform="matrix(1,0,0,-1,0,1080)" d="M1 0H1920V1080H1Z" fill="#f2f2f2" />
<g clip-path="url(#clip_1)">
<path transform="matrix(1,0,0,-1,1651.35,361.42)" d="M0 0H-1349.2C-1365.11 0-1378.01 12.9-1378.01 28.81V141.23C-1378.01 157.14-1365.11 170.04-1349.2 170.04H0C15.91 170.04 28.81 157.14 28.81 141.23V28.81C28.81 12.9 15.91 0 0 0" fill="#ffffff" />
<path transform="matrix(1,0,0,-1,438,352.16)" d="M0 0H-134.94C-145.8 0-154.61 8.81-154.61 19.67V132.77C-154.61 143.63-145.8 152.44-134.94 152.44H0C10.86 152.44 19.67 143.63 19.67 132.77V19.67C19.67 8.81 10.86 0 0 0" fill="#ff5533" />
<path transform="matrix(1,0,0,-1,1651.35,540.23)" d="M0 0H-1349.2C-1365.11 0-1378.01 12.9-1378.01 28.81V141.23C-1378.01 157.14-1365.11 170.04-1349.2 170.04H0C15.91 170.04 28.81 157.14 28.81 141.23V28.81C28.81 12.9 15.91 0 0 0" fill="#ffffff" />
<path transform="matrix(1,0,0,-1,1651.35,719.05)" d="M0 0H-1349.2C-1365.11 0-1378.01 12.9-1378.01 28.81V141.23C-1378.01 157.14-1365.11 170.04-1349.2 170.04H0C15.91 170.04 28.81 157.14 28.81 141.23V28.81C28.81 12.9 15.91 0 0 0" fill="#ffffff" />
<path transform="matrix(1,0,0,-1,438,530.98)" d="M0 0H-134.94C-145.8 0-154.61 8.81-154.61 19.67V132.77C-154.61 143.63-145.8 152.44-134.94 152.44H0C10.86 152.44 19.67 143.63 19.67 132.77V19.67C19.67 8.81 10.86 0 0 0" fill="#ff5533" />
<path transform="matrix(1,0,0,-1,438,710.25)" d="M0 0H-134.94C-145.8 0-154.61 8.81-154.61 19.67V132.77C-154.61 143.63-145.8 152.44-134.94 152.44H0C10.86 152.44 19.67 143.63 19.67 132.77V19.67C19.67 8.81 10.86 0 0 0" fill="#ff5533" />
<path transform="matrix(1,0,0,-1,837.71,353.08)" d="M0 0H-350.92C-361.5 0-370.06 8.57-370.06 19.14V134.21C-370.06 144.78-361.5 153.35-350.92 153.35H0C10.57 153.35 19.14 144.78 19.14 134.21V19.14C19.14 8.57 10.57 0 0 0" fill="#97e342" />
<path transform="matrix(1,0,0,-1,1652.98,712.31)" d="M0 0H-350.5C-361.07 0-369.64 8.57-369.64 19.14V134.21C-369.64 144.78-361.07 153.35-350.5 153.35H0C10.57 153.35 19.14 144.78 19.14 134.21V19.14C19.14 8.57 10.57 0 0 0" fill="#97e342" />
</g>
<text fill="#2c2c2c" xml:space="preserve" transform="matrix(1 0 -0 1 0 1080)" font-size="18.5578" font-family="ProximaNova-Semibold" font-weight="bold"><tspan y="-75.1084" x="75 88.82928 99.676319 110.65325 121.50029 132.65167 137.42102 148.39054 161.83196 175.4107 180.25801 191.24794 201.7461 215.18752 228.42108 233.26467">©2026 SUN.STUDIO</tspan></text>
<text fill="#2c2c2c" xml:space="preserve" transform="matrix(1 0 -0 1 0 1080)" font-size="18.5578" font-family="ProximaNova-Regular"><tspan y="-75.1084" x="247.45764 252.24556 264.55497 273.82646 283.29093 288.07884 299.40095 303.8548 317.2591 330.35536 340.77928 351.65415 356.44206 367.74375 378.3087 389.23368 399.8116 410.91288 423.2204 433.79835"> ALL RIGHTS RESERVED</tspan></text>
<g clip-path="url(#clip_2)">
<path transform="matrix(1,0,0,-1,1259.04,531.89)" d="M0 0H-375.74C-386.32 0-394.89 8.57-394.89 19.14V134.21C-394.89 144.78-386.32 153.35-375.74 153.35H0C10.57 153.35 19.14 144.78 19.14 134.21V19.14C19.14 8.57 10.57 0 0 0" fill="#97e342" />
</g>
<text fill="#2c2c2c" xml:space="preserve" transform="matrix(1 0 -0 1 0 1080)" font-size="20" font-family="ProximaNova-Semibold" font-weight="bold"><tspan y="-78.1621" x="1823.1533 1830.4933">12</tspan></text>
<text fill="#2c2c2c" xml:space="preserve" transform="matrix(1 0 -0 1 0 1080)" font-size="18.7307" font-family="ProximaNova-Regular"><tspan y="-819.2354" x="487.0303 505.03053 518.4286 529.04519 538.8376 549.1582 553.9907 559.5612 569.81259 579.605 589.8469 600.1863 605.0188 610.3964 620.71707 625.54959 636.2392 646.01107 656.253 666.59237 671.42489 682.1126 686.1978 696.0689 700.9014 706.13668 722.7377 736.17318 747.02389 757.7004 762.5329 774.5393 779.3718 792.75869 806.78799 823.9565 828.6017">-Hoàn thành tự đánh giá (WHAT &amp; HOW) </tspan><tspan y="-796.75857" x="505.03053 510.601 516.5424 527.0185 537.3372 542.16976 552.4623 563.0077 567.8402 573.4107 583.70327 594.32736 604.60116">trên hệ thống</tspan><tspan y="-774.2817" x="487.0303 505.03053 518.4286 529.04519 538.8376 549.1582 553.9907 559.565 569.408 574.91488 579.7474 585.3179 591.4803 601.7316 612.49996 621.7716 626.6041 632.95388 643.7764 649.4687">-Hoàn tất trước 19/1</tspan><tspan y="-670.85079" x="873.557 891.5572 902.1026 912.35397 922.14639 937.28079 942.1133 952.80288 956.88619 966.75729 971.5898 985.1789 995.84609 1001.9785 1011.6623 1020.28408 1030.5429 1041.21 1051.9614 1056.794 1066.9142 1077.3547 1087.1472 1093.3284 1098.1609 1108.7324 1119.0061 1129.7763 1134.6088 1145.6824 1155.9786 1165.2672 1169.3635 1179.6786 1193.5805">-Tham gia workshop Year End Review;</tspan><tspan y="-648.3739" x="873.557 891.5572 902.6326 912.9289 922.2156 926.312 936.6289 950.37728 955.2098 964.3447 974.8246 980.3314 985.16397 995.8367 1006.13296 1016.004 1020.83657 1031.0935 1035.2255 1045.6997 1056.0203 1060.8528 1069.4426 1079.7389 1089.5857 1095.0925 1099.925 1110.5173 1121.4074 1131.9528 1143.0039 1147.8364 1156.9939 1167.2902 1177.1613 1181.9938 1192.2376 1202.4869 1212.2794 1222.6 1227.4325 1236.7192 1240.8175 1251.2918">-Review kết quả hiệu suất 2025 của nhân viên</tspan><tspan y="-625.89706" x="873.557 891.5572 904.944 909.1097 919.34976 929.6891 934.5216 944.7879 955.03359 965.78128 976.05508 986.80648 991.639 1002.3904 1012.6417 1022.4529 1027.9597 1032.7922 1038.3628 1044.4934 1048.6198 1059.1277 1069.4483 1074.2808 1084.873 1095.7631 1106.3554">-Định hướng phát triển 2026</tspan><tspan y="-603.42019" x="873.557 891.5572 904.4233 914.24758 924.99899 929.8315 940.0734 950.35476 960.19778 965.7046 970.5371 979.67208 990.1519 995.65878 1000.4913 1011.164 1021.46029 1031.3313 1036.1638 1046.8534 1056.6271 1066.8671 1077.2064 1082.039 1092.7286 1096.8119 1106.683 1111.5155 1117.086 1123.0275 1133.5017 1143.8223 1148.6548 1158.9473 1169.4927 1174.3252 1179.8958 1190.1882 1200.8123 1211.0859 1221.8374 1226.6699">-Cập nhất kết quả đánh giá trên hệ thống  </tspan><tspan y="-580.9433" x="891.5572 897.1277 903.2901 913.53579 924.3059 933.57766 938.41018 949.0024 959.9973 965.2101 976.7163">trước 26/01</tspan><tspan y="-476.2949" x="1295.0352 1313.0354 1324.1577 1334.0288 1338.8613 1347.455 1358.0697 1367.8847 1373.3915 1378.224 1387.3422 1397.2133 1402.0458 1412.7879 1423.0486 1433.594 1438.4265 1449.118 1459.5491 1468.4818 1478.9617 1484.4685 1489.301 1498.4379 1508.9159 1514.4227 1519.2553 1529.9281 1540.2224 1550.0935 1554.926 1565.6156 1575.3875 1585.6294 1595.9688 1600.8013 1611.489 1615.5741 1625.4452">-Rà soát và phê duyệt kết quả đánh giá </tspan><tspan y="-453.81806" x="1313.0354 1323.6276 1334.5101 1345.0556">2025</tspan><tspan y="-431.34123" x="1295.0352 1313.0354 1324.6615 1335.1376 1350.272 1355.1045 1363.848 1374.2979 1379.8047 1384.6372 1395.6265 1399.7059 1410.182 1420.5026 1425.3351 1434.5076 1444.772 1448.9657 1459.2077 1469.547 1474.3795 1478.6539 1488.9276 1499.3195 1509.64 1514.4725 1523.4577 1533.7277">-Xem xét điều chỉnh (nếu có)</tspan><tspan y="-408.86439" x="1295.0352 1313.0354 1323.8993 1334.1637 1344.7072 1349.5397 1360.2349 1370.6642 1379.5969 1390.0786 1395.5855 1400.418 1409.5548 1420.0253 1425.5321 1430.3646 1441.0411 1451.3374 1461.2085 1466.041 1471.6115 1481.8759 1492.1216 1502.8693 1513.1431 1523.8926 1528.7251 1539.3173 1550.2073 1560.7527">-Phê duyệt kết quả thưởng 2025</tspan></text>
<text fill="#ffffff" xml:space="preserve" transform="matrix(1 0 -0 1 0 1080)" font-size="24.3001" font-family="ProximaNova-Extrabld"><tspan y="-810.1689" x="301.5713 312.1564 326.94059 334.6437 349.8896 360.75175 366.97257 374.2626 380.48344 391.36015 405.66804 413.37117 428.61705">12/01 - 19/01</tspan><tspan y="-630.20236" x="297.70759 312.33869 326.82884 334.53196 349.77784 360.63999 366.8608 374.15086 380.37168 395.00279 409.53425 417.23738 432.48326">20/01 - 26/01</tspan><tspan y="-443.9178" x="296.90568 311.31809 323.6285 331.33164 346.5775 357.43968 363.6605 370.95054 377.17137 392.25688 406.99974 414.70286 429.37525">27/01 - 04/02</tspan></text>
<text fill="#333333" xml:space="preserve" transform="matrix(1 0 -0 1 0 1080)" font-size="26.7582" font-family="ProximaNova-Bold" font-weight="bold"><tspan y="-899.9424" x="589.8809 609.4653 629.0255 647.3014 666.8081 673.6582 691.9341 699.3006 715.1388 1017.85159 1038.2467 1056.9132 1075.1784 1094.6852 1101.5353 1112.4259 1449.1135 1466.7205 1487.1718">NHÂN VIÊNQUẢN LÝBOD</tspan></text>
<g clip-path="url(#clip_3)">
<path transform="matrix(1,0,0,-1,1654.11,111.9)" d="M0 0V-8.33C0-8.69 .31-8.98 .693-8.98H8.02C8.4-8.98 8.71-8.69 8.71-8.33V2.58C8.71 3.08 8.29 3.22 7.94 3.06 5.5 2 2.59 1.18 .644 .697 .26 .601 0 .32 0 0" />
<path transform="matrix(1,0,0,-1,1674.5,109.89)" d="M0 0C-.828-.775-2.05-1.72-3.5-1.72-4.89-1.72-5.96-.4-6.6 .4-6.81 .66-7.37 .498-7.37 .046V-10.34C-7.37-10.71-7.06-11-6.67-11H.655C1.04-11 1.35-10.71 1.35-10.34V.163C1.35 .669 .844 .812 .577 .576 .391 .412 .156 .146 0 0" />
<path transform="matrix(1,0,0,-1,1687.96,88.98)" d="M0 0C-1.73-3.26-4.65-6.98-7.4-9.16-7.66-9.37-7.81-9.73-7.81-10.03V-31.25C-7.81-31.65-7.5-31.91-7.12-31.91H.214C.597-31.91 .907-31.66 .907-31.25V-.178C.902 .301 .232 .438 0 0" />
<path transform="matrix(1,0,0,-1,1678.26,87.82)" d="M0 0C-1.83 .072-3.25 1.61-3.17 3.44-3.1 5.27-1.56 6.69 .265 6.62 2.09 6.54 3.51 5 3.44 3.18 3.37 1.35 1.83-.073 0 0M6.35 11.04C.214 10.99-6.8 7.28-11.02 2.96-14.49 2.96-20.89 1.97-23.19-.92-23.67-1.52-23.48-2.32-22.78-2.63-22.12-2.92-18.26-3.8-18.11-3.98-18.47-4.71-18.46-5.05-17.99-5.7-17.94-5.78-17.88-5.85-17.82-5.93-17.62-5.91-17.41-5.89-17.2-5.89H-17.11C-14.76-5.92-12.7-7.28-11.72-9.44-11.19-10.61-11.05-11.87-11.27-13.06-11.03-13.34-10.8-13.62-10.58-13.91-10.11-14.42-9.57-14.3-8.99-14.1-8.57-15.55-8.58-17.56-8.07-18.94-7.8-19.68-7.01-19.85-6.36-19.46-5.98-19.23-5.03-18.07-4.73-17.66-2.64-14.85-1.74-11.21-1.38-7.77 3.37-4.06 7.8 2.59 8.47 8.7 8.7 10.8 8.47 11.06 6.35 11.04" fill="#ff5533" />
<path transform="matrix(1,0,0,-1,1661.13,95.16)" d="M0 0C-3.46 .045-4.62-3.22-5.72-5.88-6.17-6.96-7.09-9.07-7.26-10.13-7.34-10.62-7.15-11.06-6.74-11.31-6.22-11.62-5.83-11.39-5.29-11.26-3.22-10.76 2.1-9.13 3.42-7.58 5.91-4.66 3.87-.05 0 0" fill="#ff5533" />
<path transform="matrix(1,0,0,-1,1713.58,85.12)" d="M0 0H-3.61V-4.4H0C1.34-4.4 2.34-3.54 2.34-2.2 2.34-.884 1.34 0 0 0M-7-13.02V2.92H.454C3.92 2.92 5.81 .573 5.81-2.22 5.81-5 3.9-7.31 .454-7.31H-3.61V-13.02Z" />
<path transform="matrix(1,0,0,-1,1723.4,91.29)" d="M0 0H5.69C5.62 1.1 4.85 2.56 2.84 2.56 .956 2.56 .143 1.15 0 0M2.84 4.97C6.29 4.97 8.63 2.39 8.63-1.39V-2.06H.047C.239-3.51 1.41-4.73 3.37-4.73 4.45-4.73 5.71-4.3 6.45-3.58L7.79-5.54C6.62-6.62 4.83-7.14 3.04-7.14-.478-7.14-3.13-4.78-3.13-1.07-3.13 2.27-.669 4.97 2.84 4.97" />
<path transform="matrix(1,0,0,-1,1734.23,98.15)" d="M0 0V11.54H3.04V9.96C3.85 10.99 5.28 11.8 6.71 11.8V8.84C6.5 8.89 6.21 8.91 5.88 8.91 4.88 8.91 3.54 8.36 3.04 7.62V0Z" />
<path transform="matrix(1,0,0,-1,1746.56,89.26)" d="M0 0V-8.89H-3.06V0H-4.97V2.65H-3.06V3.27C-3.06 5.78-1.43 7.29 .836 7.29 1.7 7.29 2.48 7.1 3.04 6.81L2.41 4.66C2.15 4.83 1.79 4.9 1.43 4.9 .573 4.9 0 4.33 0 3.23V2.65H2.34V0Z" />
<path transform="matrix(1,0,0,-1,1758.97,92.36)" d="M0 0C0 1.79-1.07 3.35-2.96 3.35-4.85 3.35-5.9 1.79-5.9 0-5.9-1.82-4.85-3.37-2.96-3.37-1.07-3.37 0-1.82 0 0M-9.06 0C-9.06 3.27-6.76 6.05-2.96 6.05 .86 6.05 3.15 3.27 3.15 0 3.15-3.3 .86-6.07-2.96-6.07-6.76-6.07-9.06-3.3-9.06 0" />
<path transform="matrix(1,0,0,-1,1764.37,98.15)" d="M0 0V11.54H3.04V9.96C3.85 10.99 5.28 11.8 6.71 11.8V8.84C6.5 8.89 6.21 8.91 5.88 8.91 4.88 8.91 3.54 8.36 3.04 7.62V0Z" />
<path transform="matrix(1,0,0,-1,1787.29,98.15)" d="M0 0V7.29C0 8.36-.478 9.13-1.72 9.13-2.8 9.13-3.68 8.41-4.11 7.79V0H-7.17V7.29C-7.17 8.36-7.65 9.13-8.89 9.13-9.94 9.13-10.82 8.41-11.28 7.77V0H-14.31V11.54H-11.28V10.04C-10.8 10.73-9.27 11.83-7.5 11.83-5.81 11.83-4.73 11.04-4.3 9.73-3.63 10.78-2.1 11.83-.335 11.83 1.79 11.83 3.06 10.71 3.06 8.34V0Z" />
<path transform="matrix(1,0,0,-1,1800.27,93.94)" d="M0 0C-.501 .669-1.46 1-2.44 1-3.63 1-4.61 .358-4.61-.741-4.61-1.82-3.63-2.44-2.44-2.44-1.46-2.44-.501-2.1 0-1.43ZM0-4.21V-3.01C-.788-3.94-2.15-4.49-3.66-4.49-5.5-4.49-7.67-3.25-7.67-.669-7.67 2.03-5.5 3.01-3.66 3.01-2.13 3.01-.764 2.53 0 1.6V3.2C0 4.37-1 5.14-2.53 5.14-3.78 5.14-4.92 4.68-5.9 3.77L-7.05 5.81C-5.64 7.05-3.82 7.62-2.01 7.62 .622 7.62 3.04 6.57 3.04 3.25V-4.21Z" />
<path transform="matrix(1,0,0,-1,1814.1,98.15)" d="M0 0V6.98C0 8.58-.836 9.13-2.13 9.13-3.32 9.13-4.25 8.46-4.76 7.77V0H-7.79V11.54H-4.76V10.04C-4.01 10.92-2.6 11.83-.717 11.83 1.82 11.83 3.04 10.39 3.04 8.15V0Z" />
<path transform="matrix(1,0,0,-1,1825.53,86.32)" d="M0 0C2.37 0 3.8-1.03 4.56-2.1L2.58-3.94C2.03-3.15 1.19-2.7 .143-2.7-1.7-2.7-2.99-4.04-2.99-6.05-2.99-8.05-1.7-9.41 .143-9.41 1.19-9.41 2.03-8.94 2.58-8.17L4.56-10.01C3.8-11.09 2.37-12.12 0-12.12-3.56-12.12-6.12-9.61-6.12-6.05-6.12-2.51-3.56 0 0 0" />
<path transform="matrix(1,0,0,-1,1834.47,91.29)" d="M0 0H5.69C5.62 1.1 4.85 2.56 2.84 2.56 .956 2.56 .144 1.15 0 0M2.84 4.97C6.29 4.97 8.63 2.39 8.63-1.39V-2.06H.047C.239-3.51 1.41-4.73 3.37-4.73 4.45-4.73 5.71-4.3 6.45-3.58L7.79-5.54C6.62-6.62 4.83-7.14 3.04-7.14-.478-7.14-3.13-4.78-3.13-1.07-3.13 2.27-.669 4.97 2.84 4.97" />
<path transform="matrix(1,0,0,-1,1713.53,107.73)" d="M0 0H-3.56V-4.4H0C1.36-4.4 2.39-3.54 2.39-2.2 2.39-.86 1.36 0 0 0M2.06-13.02-1.07-7.31H-3.56V-13.02H-6.95V2.92H.502C3.82 2.92 5.86 .741 5.86-2.22 5.86-5.04 4.09-6.55 2.37-6.95L5.95-13.02Z" />
<path transform="matrix(1,0,0,-1,1723.55,113.9)" d="M0 0H5.69C5.62 1.1 4.85 2.56 2.84 2.56 .956 2.56 .144 1.15 0 0M2.84 4.97C6.29 4.97 8.63 2.39 8.63-1.39V-2.06H.047C.239-3.51 1.41-4.73 3.37-4.73 4.45-4.73 5.71-4.3 6.45-3.58L7.79-5.54C6.62-6.62 4.83-7.14 3.04-7.14-.478-7.14-3.13-4.78-3.13-1.07-3.13 2.27-.669 4.97 2.84 4.97" />
<path transform="matrix(1,0,0,-1,1737.36,120.76)" d="M0 0-4.64 11.54H-1.39L1.62 3.51 4.64 11.54H7.91L3.27 0Z" />
<path transform="matrix(1,0,0,-1,0,1080)" d="M1746.63 970.79H1749.67V959.24H1746.63ZM1746.32 974.3C1746.32 975.3 1747.16 976.12 1748.14 976.12 1749.14 976.12 1749.96 975.3 1749.96 974.3 1749.96 973.29 1749.14 972.48 1748.14 972.48 1747.16 972.48 1746.32 973.29 1746.32 974.3" />
<path transform="matrix(1,0,0,-1,1755.07,113.9)" d="M0 0H5.69C5.62 1.1 4.85 2.56 2.84 2.56 .956 2.56 .144 1.15 0 0M2.84 4.97C6.29 4.97 8.63 2.39 8.63-1.39V-2.06H.047C.239-3.51 1.41-4.73 3.37-4.73 4.45-4.73 5.71-4.3 6.45-3.58L7.79-5.54C6.62-6.62 4.83-7.14 3.04-7.14-.478-7.14-3.13-4.78-3.13-1.07-3.13 2.27-.669 4.97 2.84 4.97" />
<path transform="matrix(1,0,0,-1,1776.03,120.76)" d="M0 0-2.44 7.86-4.88 0H-8.12L-11.64 11.54H-8.48L-6.33 3.78-3.8 11.54H-1.1L1.43 3.78 3.58 11.54H6.74L3.23 0Z" />
<path transform="matrix(1,0,0,-1,1790.01,120.76)" d="M0 0V2.68C6.52 7.48 8.44 9.13 8.44 11.09 8.44 12.47 7.17 13.17 5.83 13.17 4.04 13.17 2.65 12.45 1.58 11.33L-.358 13.57C1.2 15.37 3.56 16.18 5.78 16.18 9.18 16.18 11.88 14.27 11.88 11.09 11.88 8.36 9.63 6 5.35 2.99H12V0Z" />
<path transform="matrix(1,0,0,-1,1810.64,107.59)" d="M0 0C-2.29 0-3.15-2.27-3.15-5.21-3.15-8.15-2.29-10.44 0-10.44 2.27-10.44 3.13-8.15 3.13-5.21 3.13-2.27 2.27 0 0 0M0 3.01C4.54 3.01 6.6-1.1 6.6-5.21 6.6-9.32 4.54-13.45 0-13.45-4.56-13.45-6.6-9.32-6.6-5.21-6.6-1.1-4.56 3.01 0 3.01" />
<path transform="matrix(1,0,0,-1,1819.17,120.76)" d="M0 0V2.68C6.52 7.48 8.44 9.13 8.44 11.09 8.44 12.47 7.17 13.17 5.83 13.17 4.04 13.17 2.65 12.45 1.58 11.33L-.359 13.57C1.2 15.37 3.56 16.18 5.78 16.18 9.18 16.18 11.88 14.27 11.88 11.09 11.88 8.36 9.63 6 5.35 2.99H12V0Z" />
<path transform="matrix(1,0,0,-1,1835.42,116.36)" d="M0 0C1.1-1.12 2.58-1.72 4.25-1.72 6.14-1.72 7.22-.645 7.22 .669 7.22 2.13 6.17 3.11 4.35 3.11 3.04 3.11 1.96 2.7 1 1.79L-1.36 2.44V11.54H9.58V8.63H1.96V4.64C2.8 5.38 4.09 5.95 5.54 5.95 8.24 5.95 10.66 4.04 10.66 .812 10.66-2.56 8.12-4.68 4.28-4.68 1.5-4.68-.502-3.78-1.86-2.29Z" />
<path transform="matrix(1,0,0,-1,1651.35,898.13)" d="M0 0H-1349.2C-1365.11 0-1378.01 12.9-1378.01 28.81V141.23C-1378.01 157.14-1365.11 170.04-1349.2 170.04H0C15.91 170.04 28.81 157.14 28.81 141.23V28.81C28.81 12.9 15.91 0 0 0" fill="#ffffff" />
<path transform="matrix(1,0,0,-1,438,889.33)" d="M0 0H-134.94C-145.8 0-154.61 8.81-154.61 19.67V132.77C-154.61 143.63-145.8 152.44-134.94 152.44H0C10.86 152.44 19.67 143.63 19.67 132.77V19.67C19.67 8.81 10.86 0 0 0" fill="#ff5533" />
</g>
<text fill="#ffffff" xml:space="preserve" transform="matrix(1 0 -0 1 0 1080)" font-size="24.3001" font-family="ProximaNova-Extrabld"><tspan y="-266.8936" x="296.0498 311.094 325.5744 333.27754 347.94993 362.7001 368.92094 376.21098 382.4318 393.38386 407.874 415.57713 430.2495">05/02 - 10/02</tspan></text>
<g clip-path="url(#clip_4)">
<path transform="matrix(1,0,0,-1,836.67,889.52)" d="M0 0H-348.83C-359.4 0-367.97 8.57-367.97 19.14V134.21C-367.97 144.78-359.4 153.35-348.83 153.35H0C10.57 153.35 19.14 144.78 19.14 134.21V19.14C19.14 8.57 10.57 0 0 0" fill="#97e342" />
</g>
<text fill="#2c2c2c" xml:space="preserve" transform="matrix(1 0 -0 1 0 1080)" font-size="18.7307" font-family="ProximaNova-Regular"><tspan y="-298.9658" x="487.0303 497.5757 507.82704 517.61947 532.75387 537.58639 548.27597 552.35928 562.23037 567.06289 572.63339 578.7939 588.5863 599.3003 604.1328 614.73818 625.3847 629.5991 634.43167 644.6867 648.8187 659.29489 669.6155 674.448 683.0379 693.3323 703.179 708.68588 713.5184 719.76699 724.0226 730.3723 735.20486 744.15628 754.8983 759.11276">Tham gia trao đổi hiệu suất 1:1 với </tspan><tspan y="-276.48896" x="487.0303 496.3844 500.5239 510.7696 521.7795 527.39877 532.23129 547.44619 557.2423 567.443 577.2672 587.97 598.4404 603.5745">Line- Manager.</tspan></text>
<g clip-path="url(#clip_5)">
<path transform="matrix(1,0,0,-1,1259.04,889.78)" d="M0 0H-375.74C-386.32 0-394.89 8.57-394.89 19.14V134.21C-394.89 144.78-386.32 153.35-375.74 153.35H0C10.57 153.35 19.14 144.78 19.14 134.21V19.14C19.14 8.57 10.57 0 0 0" fill="#97e342" />
</g>
<text fill="#2c2c2c" xml:space="preserve" transform="matrix(1 0 -0 1 0 1080)" font-size="18.7307" font-family="ProximaNova-Regular"><tspan y="-298.9648" x="882.957 900.95718 911.5025 921.7669 932.1175 941.3892 946.22177 956.48617 960.6256 971.13168 981.4523 986.2848 997.0081 1007.3137 1017.95278 1022.1653 1026.9978 1032.5682 1038.7288 1048.5249 1059.2389 1064.0714 1074.6768 1085.3158 1089.5303 1094.3628 1104.6272 1108.7667 1119.2372 1129.5579 1134.3904 1142.9804 1153.2766 1163.1215 1168.6283 1173.4608 1179.7094 1183.965 1190.3147 1195.1472 1204.0968 1214.8407 1219.0532">-Thực hiện buổi trao đổi hiệu suất 1:1 với </tspan><tspan y="-276.48799" x="900.95718 911.1991 921.44857 931.24288 941.5635 946.396 955.6846 959.781 970.25527 980.57589 985.4084 996.01376 1006.55917 1011.39169 1016.96218 1027.2229 1037.89 1048.1637 1058.9152 1063.7477 1074.4298 1084.1624 1094.8764 1099.7089 1108.8419 1119.3218 1124.8286 1129.6611 1140.334 1150.6303">nhân viên để thông báo kết quả</tspan><tspan y="-254.01114" x="882.957 900.95718 914.4863 918.56588 929.0438 939.36447 944.19699 953.3675 963.6319 967.8257 978.0676 988.407 993.2395 1002.37637 1012.92178 1017.7543 1028.015 1038.6635 1048.4877 1057.6582 1067.9976 1072.8301 1083.5816 1093.8329 1103.6459 1109.1527 1113.9852 1119.5558 1125.6845 1129.8126 1140.3206 1150.6411 1155.4736 1160.1452 1164.7286 1177.8401 1188.7638 1193.409 1198.2416 1203.8102 1209.7703 1220.4374 1230.711 1241.4625">-Điều chỉnh kế hoạch phát triển (IDP) trong </tspan><tspan y="-231.5343" x="900.95718 906.52767 916.8202 927.56228 931.7767 936.6092 947.29879 951.3821 961.1764 971.497 976.3295 981.60226 992.3443 996.5587 1001.39126 1005.6637 1015.9375 1026.3312 1036.6517 1041.4843 1050.8009 1060.6251 1070.5468 1075.192">thời gian tới (nếu cần) </tspan></text>
<text fill="#ffffff" xml:space="preserve" transform="matrix(1 0 -0 1 0 1080)" font-size="18.7307" font-family="ProximaNova-Semibold" font-weight="bold"><tspan y="-784.03378" x="323.43348 328.61814 342.11924 352.64588 362.56379 373.1841 377.99794 387.47566 391.84364 402.19984 412.82017">(Nhân viên </tspan><tspan y="-761.5569" x="321.6353 327.45494 338.07527 342.88908 353.6948 363.6127 374.12065 384.75968 389.5735 400.3399 404.7416 414.26994">tự đánh giá)</tspan><tspan y="-605.21176" x="295.22505 300.12498 314.54389 325.11177 335.05403 345.67247 350.48628 355.04719 364.46873 369.28254 380.08827 390.00617 400.5141 411.15126 415.96507 426.73149 431.13319 440.6615">(Quản lý đánh giá)</tspan><tspan y="-423.95478" x="294.64439 299.54435 312.31867 322.98768 333.54429 344.40809 349.22187 355.64277 365.0643 369.87809 380.6838 390.6017 401.10777 411.7468 416.56059 427.32698 431.72496 441.25325">(Công ty đánh giá)</tspan><tspan y="-244.49594" x="298.59657 304.0378 313.34135 319.74726 329.69328 340.42597 345.23976 355.9537 366.59275 371.10685 375.92063 385.33094 395.71339 401.68659 406.50038 417.2499 427.81965 437.3105">(Trao đổi kết quả)</tspan></text>
<text fill="#333333" xml:space="preserve" transform="matrix(1 0 -0 1 0 1080)" font-size="28.3296" font-family="ProximaNova-Bold" font-weight="bold"><tspan y="-128.5" x="417.0596 437.85353 456.06947 463.32185 477.1042 493.26057 500.11067 516.5135 523.76589 533.34127 543.2368 558.3223 572.1047 588.5358 595.7882 611.9021 628.03866 634.91146 650.39639 674.5332 681.7856 698.46609 705.35018 720.7869 737.18978 744.44216 760.9045 777.1118 793.0302 799.9512 807.20358 814.45596 830.7681 837.6126 852.6981 876.83499 884.08737 897.4731 912.553 922.12838 929.38076 943.6843 959.0673 966.3197 982.48458 997.5899 1021.72677 1028.9791 1045.3849 1060.493 1076.7543 1084.0066 1093.4658 1109.6675 1124.7529 1141.1558 1148.4081 1157.9835 1174.1088 1190.5116 1197.7639 1207.0901 1223.1502 1238.2328 1254.6356 1261.888 1278.4183 1294.6796 1301.9319 1318.2158 1334.5903 1349.1234 1356.3757 1365.9512 1375.773 1382.6372 1398.7511 1415.1823 1422.4346 1438.8516 1453.937 1470.0509 1486.482 1493.7344 1510.0466 1516.891 1532.1096">HR chịu trách nhiệm điều phối, giám sát và đảm bảo tuân thủ toàn bộ quy trình đánh giá.</tspan></text>
<g clip-path="url(#clip_6)">
<path transform="matrix(1,0,0,-1,98.34,96.89)" d="M0 0C.288 7.21 6.36 12.82 13.56 12.53 15.48 12.46 17.28 11.97 18.89 11.17 23.33 8.94 26.3 4.26 26.08-1.03 25.8-8.24 19.72-13.85 12.52-13.57 7.91-13.38 3.95-10.82 1.77-7.12 .554-5.03-.104-2.59 0 0M28.7-13.49C30.3-11.56 31.52-9.33 32.3-6.95 32.89-5.17 33.22-3.3 33.3-1.42 33.67 7.85 27.76 15.91 19.37 18.66 17.62 19.23 15.78 19.57 13.85 19.65 13.43 19.67-2.25 19.66-9.08 19.65-9.99 19.65-10.42 18.6-9.9 17.95-9.85 17.89-4.87 14.13-4.81 14.06-4.31 13.41-4.75 12.39-5.65 12.38L-22.29 12.38C-22.79 12.38-23.15 12.06-23.28 11.67-23.41 11.28-23.32 10.81-22.93 10.51L-9.7 .398C-8.9-.211-9.34-1.49-10.35-1.47-11.11-1.47-16.36-1.45-16.46-1.48-17.2-1.66-17.51-2.67-16.95-3.27-7.3-13.79 .69-18.76 8.14-20.3 12.11-21.29 16.37-21.05 20.2-19.6 23.36-18.44 26.02-16.53 28.09-14.2 28.3-13.97 28.5-13.73 28.7-13.49" fill="#ff5533" />
<path transform="matrix(1,0,0,-1,111.73,95.37)" d="M0 0C.049 1.34 1.18 2.39 2.52 2.34 3.86 2.3 4.91 1.17 4.86-.176 4.81-1.52 3.69-2.57 2.34-2.52 .999-2.47-.049-1.34 0 0M7.25-2.06C7.42 2.09 4.2 5.58 .053 5.74-4.09 5.91-7.58 2.68-7.75-1.46-7.91-5.61-4.69-9.1-.547-9.26 3.6-9.43 7.09-6.2 7.25-2.06" fill="#ff5533" />
<path transform="matrix(1,0,0,-1,144.34,84)" d="M0 0C-1.95 .369-3.03 .685-3.03 1.61-3.03 2.37-2.45 2.98-.948 2.98 .605 2.98 2.53 2.37 4 1.16L6.48 4.4C4.61 6 2.16 6.84-.658 6.84-5.16 6.84-7.66 4.29-7.66 1.34-7.66-2.82-3.61-3.55-.711-4.13 1.16-4.53 2.29-4.92 2.29-5.92 2.29-6.77 1.34-7.42-.21-7.42-2.61-7.42-4.55-6.37-5.82-5.11L-8.21-8.5C-6.45-10.19-3.98-11.29-.421-11.29 4.29-11.29 6.9-8.95 6.9-5.42 6.9-1.45 2.9-.605 0 0" fill="#ff5533" />
<path transform="matrix(1,0,0,-1,160.91,95.36)" d="M0 0C5.66 0 8.17 4.02 8.17 8.39V17.88H3.49V7.9C3.49 5.82 2.4 4 0 4-2.43 4-3.52 5.82-3.52 7.9V17.88H-8.2V8.36C-8.2 4.04-5.66 0 0 0" fill="#ff5533" />
<path transform="matrix(1,0,0,-1,180.62,117.41)" d="M0 0C5.66 0 8.17 4.02 8.17 8.39V17.88H3.49V7.9C3.49 5.82 2.4 4 0 4-2.43 4-3.52 5.82-3.52 7.9V17.88H-8.2V8.36C-8.2 4.04-5.66 0 0 0" fill="#ff5533" />
<path transform="matrix(1,0,0,-1,177.1,84.49)" d="M0 0 7.67-10.7H11.69V7.01H7.02V-3.19L-.284 7.01H-4.68V-10.7H0Z" fill="#ff5533" />
<path transform="matrix(1,0,0,-1,144.34,106.21)" d="M0 0C-1.95 .368-3.03 .685-3.03 1.61-3.03 2.37-2.45 2.98-.948 2.98 .605 2.98 2.53 2.37 4 1.16L6.48 4.4C4.61 6 2.16 6.84-.658 6.84-5.16 6.84-7.66 4.29-7.66 1.34-7.66-2.82-3.61-3.55-.711-4.13 1.16-4.53 2.29-4.92 2.29-5.92 2.29-6.77 1.34-7.42-.21-7.42-2.61-7.42-4.55-6.37-5.82-5.11L-8.21-8.5C-6.45-10.19-3.98-11.29-.421-11.29 4.29-11.29 6.9-8.95 6.9-5.42 6.9-1.45 2.9-.605 0 0" fill="#ff5533" />
<path transform="matrix(1,0,0,-1,152.71,103.54)" d="M0 0H6.01V-13.7H10.69V0H16.37V4.01H0Z" fill="#ff5533" />
<path transform="matrix(1,0,0,-1,199.33,113.23)" d="M0 0H-2.85V9.69H.026C3.25 9.69 4.88 7.58 4.88 4.86 4.88 2.24 3.09 0 0 0M-.095 13.7H-7.53V-4.01H-.069C5.48-4.01 9.49-.637 9.49 4.86 9.49 10.35 5.48 13.7-.095 13.7" fill="#ff5533" />
<path transform="matrix(1,0,0,-1,0,1080)" d="M211.51 962.76H216.19V980.46H211.51Z" fill="#ff5533" />
<path transform="matrix(1,0,0,-1,194.27,95.27)" d="M0 0C1.4 0 2.53 1.13 2.53 2.53 2.53 3.93 1.4 5.06 0 5.06-1.4 5.06-2.53 3.93-2.53 2.53-2.53 1.13-1.4 0 0 0" fill="#ff5533" />
<path transform="matrix(1,0,0,-1,227.84,113.26)" d="M0 0C-2.68 0-4.86 2.17-4.86 4.86-4.86 7.54-2.68 9.71 0 9.71 2.68 9.71 4.85 7.54 4.85 4.86 4.85 2.17 2.68 0 0 0M0 13.96C-5.03 13.96-9.11 9.88-9.11 4.86-9.11-.174-5.03-4.25 0-4.25 5.03-4.25 9.11-.174 9.11 4.86 9.11 9.88 5.03 13.96 0 13.96" fill="#ff5533" />
<g ns1:groupmode="layer" ns1:label="7">
</g>
<g ns1:groupmode="layer" ns1:label="Layer 31">
</g>
<g ns1:groupmode="layer" ns1:label="8">
</g>
<g ns1:groupmode="layer" ns1:label="Page 5">
</g>
<g ns1:groupmode="layer" ns1:label="Page 3">
</g>
<g ns1:groupmode="layer" ns1:label="Page 2">
</g>
<g ns1:groupmode="layer" ns1:label="Page 1">
</g>
</g>
</g>
<g ns1:groupmode="layer" ns1:label="bleed">
<g clip-path="url(#clip_7)">
<g ns1:groupmode="layer" ns1:label="Layer 8">
</g>
</g>
</g>
</g>
</svg>