<?xml version='1.0' encoding='utf-8'?>
<svg xmlns="http://www.w3.org/2000/svg" xmlns:ns2="http://www.inkscape.org/namespaces/inkscape" xmlns:xlink="http://www.w3.org/1999/xlink" version="1.1" width="1920" height="1080" viewBox="0 0 1920 1080">
<defs>
<clipPath id="clip_1">
<path transform="matrix(1,0,0,-1,0,1080)" d="M1465.77 413.48C1455.43 195.72 1623.58 10.8 1841.35 .453 1868.16-.821 1894.45 .609 1920 4.51V784.95C1906.5 787.01 1892.74 788.39 1878.8 789.05 1872.42 789.36 1866.08 789.5 1859.76 789.5 1650.36 789.5 1475.82 624.87 1465.77 413.48" />
</clipPath>
<g id="mask_2_contents">
<rect x="0" y="0" width="100%" height="100%" fill="white" />
<g>
<clipPath id="clip_3">
<path transform="matrix(1,0,0,-1,0,1080)" d="M-32768-32768H32767V32767H-32768Z" />
</clipPath>
<g clip-path="url(#clip_3)">
<image x="1455" y="290" width="465" height="790" xlink:href="../artifact/assets/image-01-5b89f6fd0815.png" />
</g>
</g>
</g>
<mask id="mask_2" mask-type="luminance">
<use xlink:href="#mask_2_contents" />
</mask>
<clipPath id="clip_4">
<path transform="matrix(1,0,0,-1,0,1080)" d="M0 0H1920V1080H0Z" />
</clipPath>
<g id="mask_5_contents">
<rect x="0" y="0" width="100%" height="100%" fill="white" />
<g>
<clipPath id="clip_6">
<path transform="matrix(1,0,0,-1,0,1080)" d="M1153.82 307.35H2137.71V1291.24H1153.82Z" />
</clipPath>
<g clip-path="url(#clip_6)">
<path transform="matrix(1,0,0,-1,0,1080)" d="M1153.83 1291.24H2137.71V307.35H1153.83Z" />
<g>
<clipPath id="clip_7">
<path transform="matrix(1,0,0,-1,0,1080)" d="M1153.82 307.35H2137.71V1291.24H1153.82Z" />
</clipPath>
<g clip-path="url(#clip_7)">
<clipPath id="clip_8">
<path transform="matrix(1,0,0,-1,0,1080)" d="M2137.71 799.3C2137.71 527.61 1917.46 307.35 1645.77 307.35 1374.08 307.35 1153.83 527.61 1153.83 799.3 1153.83 1070.99 1374.08 1291.24 1645.77 1291.24 1917.46 1291.24 2137.71 1070.99 2137.71 799.3" />
</clipPath>
<g clip-path="url(#clip_8)">
<image x="1153" y="0" width="767" height="773" xlink:href="../artifact/assets/image-02-cfb3c0d6a275.png" />
</g>
</g>
</g>
</g>
</g>
</g>
<mask id="mask_5" mask-type="luminance">
<use xlink:href="#mask_5_contents" />
</mask>
<clipPath id="clip_9">
<path transform="matrix(1,0,0,-1,0,1080)" d="M1153.82 307.35H2137.71V1291.24H1153.82Z" />
</clipPath>
<clipPath id="clip_10">
<path transform="matrix(1,0,0,-1,0,1080)" d="M2137.71 799.3C2137.71 527.61 1917.46 307.35 1645.77 307.35 1374.08 307.35 1153.83 527.61 1153.83 799.3 1153.83 1070.99 1374.08 1291.24 1645.77 1291.24 1917.46 1291.24 2137.71 1070.99 2137.71 799.3" />
</clipPath>
<clipPath id="clip_11">
<path transform="matrix(1,0,0,-1,0,1080)" d="M1525.33 1080C1504.7 1043.07 1492.09 1000.94 1489.95 955.82 1482.55 800 1602.87 667.68 1758.68 660.28 1817.66 657.48 1873.26 672.97 1920 701.76V1080Z" />
</clipPath>
<g id="mask_12_contents">
<rect x="0" y="0" width="100%" height="100%" fill="white" />
<g>
<clipPath id="clip_13">
<path transform="matrix(1,0,0,-1,0,1080)" d="M-32768-32768H32767V32767H-32768Z" />
</clipPath>
<g clip-path="url(#clip_13)">
<image x="1482" y="0" width="438" height="423" xlink:href="../artifact/assets/image-03-de656b6244ab.png" />
</g>
</g>
</g>
<mask id="mask_12" mask-type="luminance">
<use xlink:href="#mask_12_contents" />
</mask>
<clipPath id="clip_14">
<path transform="matrix(1,0,0,-1,0,1080)" d="M0 1080H1920V0H0Z" />
</clipPath>
</defs>
<g>
<g ns2:groupmode="layer" ns2:label="Layer 1">
<path transform="matrix(1,0,0,-1,0,1080)" d="M0 0H1920V1080H0Z" fill="#3333ff" />
<g clip-path="url(#clip_1)">
<g mask="url(#mask_2)">
<image x="1455" y="290" width="465" height="790" xlink:href="../artifact/assets/image-04-2c99614d55f3.png" />
</g>
</g>
<g clip-path="url(#clip_4)">
<g mask="url(#mask_5)">
<g>
<g clip-path="url(#clip_9)">
<g clip-path="url(#clip_10)">
<image x="1153" y="0" width="767" height="773" xlink:href="../artifact/assets/image-05-5c906942cf8d.png" />
</g>
</g>
</g>
</g>
</g>
<g clip-path="url(#clip_11)">
<g mask="url(#mask_12)">
<image x="1482" y="0" width="438" height="423" xlink:href="../artifact/assets/image-06-f8bd44c13670.png" />
</g>
</g>
<g clip-path="url(#clip_14)">
<path transform="matrix(1,0,0,-1,67.24,77.75)" d="M0 0C-9.51 0-17.25 7.74-17.25 17.25-17.25 26.75-9.51 34.49 0 34.49H146.08C155.59 34.49 163.33 26.75 163.33 17.25 163.33 7.74 155.59 0 146.08 0Z" fill="#ffffff" />
</g>
<text fill="#3333ff" xml:space="preserve" transform="matrix(1 0 -0 1 0 1080)" font-size="21" font-family="ProximaNova-Bold" font-weight="bold"><tspan y="-1012.5068" x="66.2891 78.7988 94.1393 109.633098 114.3791 128.50789 144.58969 159.9827 175.3757 187.5956 202.15489">SUN.CONNECT</tspan></text>
<text fill="#ffffff" xml:space="preserve" transform="matrix(1 0 -0 1 0 1080)" font-size="21" font-family="ProximaNova-Bold" font-weight="bold"><tspan y="-49.992799" x="49.9931 65.5688 78.0302 90.6113 103.0181 115.784 121.159999 133.676 149.0165 164.5103 170.2118 182.71732 194.62012 209.96062 225.06383 230.81572">©2025 SUN.STUDIO</tspan></text>
<text fill="#ffffff" xml:space="preserve" transform="matrix(1 0 -0 1 0 1080)" font-size="21" font-family="ProximaNova-Regular"><tspan y="-49.992799" x="246.8681 252.2861 266.1986 276.6734 287.3834 292.8014 305.6009 310.6199 325.7735 340.57429 352.35319 364.65919 370.07719 382.84519 394.7837 407.13169 419.0807 431.624 445.5365 457.4855"> ALL RIGHTS RESERVED</tspan></text>
<text fill="#3333ff" xml:space="preserve" transform="matrix(1 0 -0 1 0 1080)" font-size="21" font-family="ProximaNova-Bold" font-weight="bold"><tspan y="-1012.5068" x="1649.8152 1662.9003 1671.5313">01 </tspan></text>
<text fill="#3333ff" xml:space="preserve" transform="matrix(1 0 -0 1 0 1080)" font-size="21" font-family="ProximaNova-Regular"><tspan y="-1012.5068" x="1676.9072 1695.5027 1710.5492 1722.6914 1734.6614 1740.0794 1758.6748 1770.6238 1776.0418 1788.2092 1799.419 1813.3314 1828.3359 1843.3405 1855.2894">WHAT WE PLANNED</tspan></text>
<text fill="#ffffff" xml:space="preserve" transform="matrix(1 0 -0 1 0 1080)" font-size="21" font-family="ProximaNova-Regular"><tspan y="-49.992799" x="1844.9262 1857.5996">05</tspan></text>
<text fill="#ffffff" xml:space="preserve" transform="matrix(1 0 -0 1 0 1080)" font-size="170" font-family="ProximaNova-Bold" font-weight="bold"><tspan y="-606.6611" x="49.9995 206.05951 304.65953 396.9695 454.4295 497.9495 647.20956">What We</tspan><tspan y="-436.66108" x="49.9995 156.0795 199.08951 291.3995 389.82954 488.25953 582.26956 681.8895 725.40957 780.9996 878.5796 939.7796 983.2996 1085.2997 1190.6997 1292.6997">Planned for 2025</tspan></text>
<text fill="#ffffff" xml:space="preserve" transform="matrix(1 0 -0 1 0 1080)" font-size="55" font-family="ProximaNova-Semibold" font-weight="bold"><tspan y="-336.791" x="50 99.17551 129.54102 158.11351 175.65851 189.7935 237.29701 267.932 282.06703 314.15403 343.99705 361.54206 375.67707 417.28459 447.7711 465.3161 479.4511 495.5826 527.0976 541.2326 577.04867 603.37167 633.6876 645.94168 675.1412 701.3102">What We Set Out to Achieve</tspan></text>
</g>
</g>
</svg>