<?xml version='1.0' encoding='utf-8'?>
<svg xmlns="http://www.w3.org/2000/svg" xmlns:ns2="http://www.inkscape.org/namespaces/inkscape" xmlns:xlink="http://www.w3.org/1999/xlink" version="1.1" width="2938.83" height="2623.16" viewBox="0 0 2938.83 2623.16">
<defs>
<clipPath id="clip_1">
<path transform="matrix(1,0,0,-1,0,2623.16)" d="M0 2623.157H2938.834V0H0Z" />
</clipPath>
<clipPath id="clip_2">
<path transform="matrix(1,0,0,-1,0,2623.16)" d="M0 2623.157H2938.834V0H0Z" />
</clipPath>
<clipPath id="clip_3">
<path transform="matrix(1,0,0,-1,0,2623.16)" d="M0 2623.157H2938.834V0H0Z" />
</clipPath>
<clipPath id="clip_4">
<path transform="matrix(1,0,0,-1,0,2623.16)" d="M493.665 2172.819C468.68 2172.819 448.425 2153.189 448.425 2128.974V1741.332C448.425 1717.117 468.68 1697.487 493.665 1697.487H677.701C702.306 1697.487 722.252 1716.818 722.252 1740.663V1740.664C722.252 1771.744 748.249 1796.938 780.319 1796.938H780.32C804.924 1796.938 824.871 1816.269 824.871 1840.115V2128.974C824.871 2153.189 804.615 2172.819 779.63 2172.819Z" />
</clipPath>
<clipPath id="clip_5">
<path transform="matrix(1,0,0,-1,0,2623.16)" d="M0 2623.157H2938.834V0H0Z" />
</clipPath>
<clipPath id="clip_6">
<path transform="matrix(1,0,0,-1,0,2623.16)" d="M889.267 2172.819C864.281 2172.819 844.025 2153.189 844.025 2128.974V1741.332C844.025 1717.117 864.281 1697.487 889.267 1697.487H1073.301C1097.906 1697.487 1117.853 1716.818 1117.853 1740.663V1740.664C1117.853 1771.744 1143.85 1796.938 1175.92 1796.938 1200.525 1796.938 1220.471 1816.269 1220.471 1840.115V2128.974C1220.471 2153.189 1200.217 2172.819 1175.231 2172.819Z" />
</clipPath>
<clipPath id="clip_7">
<path transform="matrix(1,0,0,-1,0,2623.16)" d="M0 2623.157H2938.834V0H0Z" />
</clipPath>
<clipPath id="clip_8">
<path transform="matrix(1,0,0,-1,0,2623.16)" d="M1284.867 2172.819C1259.881 2172.819 1239.626 2153.189 1239.626 2128.974V1741.332C1239.626 1717.117 1259.881 1697.487 1284.867 1697.487H1468.903C1493.507 1697.487 1513.453 1716.818 1513.453 1740.663V1740.664C1513.453 1771.744 1539.451 1796.938 1571.521 1796.938 1596.126 1796.938 1616.072 1816.269 1616.072 1840.115V2128.974C1616.072 2153.189 1595.817 2172.819 1570.831 2172.819Z" />
</clipPath>
<clipPath id="clip_9">
<path transform="matrix(1,0,0,-1,0,2623.16)" d="M0 2623.157H2938.834V0H0Z" />
</clipPath>
<clipPath id="clip_10">
<path transform="matrix(1,0,0,-1,0,2623.16)" d="M1680.468 2172.819C1655.482 2172.819 1635.227 2153.189 1635.227 2128.974V1741.332C1635.227 1717.117 1655.482 1697.487 1680.468 1697.487H1864.503C1889.108 1697.487 1909.054 1716.818 1909.054 1740.663V1740.664C1909.054 1771.744 1935.052 1796.938 1967.122 1796.938 1991.727 1796.938 2011.673 1816.269 2011.673 1840.115V2128.974C2011.673 2153.189 1991.418 2172.819 1966.432 2172.819Z" />
</clipPath>
<clipPath id="clip_11">
<path transform="matrix(1,0,0,-1,0,2623.16)" d="M0 2623.157H2938.834V0H0Z" />
</clipPath>
<clipPath id="clip_12">
<path transform="matrix(1,0,0,-1,0,2623.16)" d="M2076.069 2172.819C2051.083 2172.819 2030.828 2153.189 2030.828 2128.974V1741.332C2030.828 1717.117 2051.083 1697.487 2076.069 1697.487H2260.103C2284.708 1697.487 2304.655 1716.818 2304.655 1740.663V1740.664C2304.655 1771.744 2330.653 1796.938 2362.722 1796.938 2387.327 1796.938 2407.273 1816.269 2407.273 1840.115V2128.974C2407.273 2153.189 2387.019 2172.819 2362.033 2172.819Z" />
</clipPath>
<clipPath id="clip_13">
<path transform="matrix(1,0,0,-1,0,2623.16)" d="M0 2623.157H2938.834V0H0Z" />
</clipPath>
<clipPath id="clip_14">
<path transform="matrix(1,0,0,-1,0,2623.16)" d="M0 2623.157H2938.834V0H0Z" />
</clipPath>
<clipPath id="clip_15">
<path transform="matrix(1,0,0,-1,0,2623.16)" d="M531.225 800.291C503.437 800.291 480.91 777.764 480.91 749.975V579.536C480.91 551.748 503.437 529.221 531.225 529.221H2204.667C2232.455 529.221 2254.982 551.748 2254.982 579.536V636.612C2254.982 663.978 2232.799 686.161 2205.434 686.161 2169.767 686.161 2140.853 715.075 2140.853 750.742 2140.853 778.107 2118.669 800.291 2091.305 800.291Z" />
</clipPath>
<clipPath id="clip_16">
<path transform="matrix(1,0,0,-1,0,2623.16)" d="M0 2623.157H2938.834V0H0Z" />
</clipPath>
<clipPath id="clip_17">
<path transform="matrix(1,0,0,-1,0,2623.16)" d="M1495.492 748.849H1399.696C1393.015 748.849 1387.598 743.431 1387.598 736.751V708.944C1387.598 702.263 1393.015 696.847 1399.696 696.847H1446.328L1344.471 594.989 1310.79 628.671C1310.771 628.69 1310.755 628.712 1310.735 628.731L1291.073 648.393C1288.71 650.756 1285.613 651.937 1282.516 651.937 1279.418 651.937 1276.321 650.756 1273.959 648.393L1254.297 628.731C1254.277 628.712 1254.262 628.69 1254.242 628.671L1189.167 564.691C1184.443 559.966 1184.443 552.307 1189.167 547.582L1208.83 527.92C1213.554 523.196 1221.214 523.196 1225.938 527.92L1282.516 583.403 1335.917 530.003C1340.641 525.278 1348.301 525.278 1353.025 530.003L1354.592 531.57 1483.394 660.371V613.148C1483.394 606.468 1488.811 601.052 1495.492 601.052H1523.299C1529.979 601.052 1535.396 606.468 1535.396 613.148V708.944 736.751C1535.396 743.431 1529.979 748.849 1523.299 748.849Z" />
</clipPath>
<g id="mask_18_contents">
<rect x="0" y="0" width="100%" height="100%" fill="white" />
<g>
<clipPath id="clip_19">
<path transform="matrix(1,0,0,-1,0,2623.16)" d="M-32768-32768H32767V32767H-32768Z" />
</clipPath>
<g clip-path="url(#clip_19)">
<image x="1184" y="1874" width="352" height="226" xlink:href="assets/image-01-fce0320ece37.png" />
</g>
</g>
</g>
<mask id="mask_18" mask-type="luminance">
<use xlink:href="#mask_18_contents" />
</mask>
<clipPath id="clip_20">
<path transform="matrix(1,0,0,-1,0,2623.16)" d="M531.225 501C503.437 501 480.91 478.473 480.91 450.685V280.246C480.91 252.458 503.437 229.93 531.225 229.93H2204.667C2232.455 229.93 2254.982 252.458 2254.982 280.246V337.323C2254.982 364.687 2232.799 386.871 2205.434 386.871 2169.767 386.871 2140.853 415.785 2140.853 451.452 2140.853 478.817 2118.669 501 2091.305 501Z" />
</clipPath>
<clipPath id="clip_21">
<path transform="matrix(1,0,0,-1,0,2623.16)" d="M0 2623.157H2938.834V0H0Z" />
</clipPath>
<clipPath id="clip_22">
<path transform="matrix(1,0,0,-1,0,2623.16)" d="M1495.492 434.11H1399.696C1393.015 434.11 1387.598 428.693 1387.598 422.012V394.206C1387.598 387.525 1393.015 382.108 1399.696 382.108H1446.328L1344.471 280.251 1310.79 313.933C1310.771 313.952 1310.755 313.973 1310.735 313.993L1291.073 333.654C1288.71 336.018 1285.613 337.198 1282.516 337.198 1279.418 337.198 1276.321 336.018 1273.959 333.654L1254.297 313.993C1254.277 313.973 1254.262 313.952 1254.242 313.933L1189.167 249.952C1184.443 245.228 1184.443 237.568 1189.167 232.843L1208.83 213.182C1213.554 208.457 1221.214 208.457 1225.938 213.182L1282.516 268.665 1335.917 215.264C1340.641 210.54 1348.301 210.54 1353.025 215.264L1354.592 216.831 1483.394 345.633V298.41C1483.394 291.729 1488.811 286.312 1495.492 286.312H1523.299C1529.979 286.312 1535.396 291.729 1535.396 298.41V394.206 422.012C1535.396 428.693 1529.979 434.11 1523.299 434.11Z" />
</clipPath>
<g id="mask_23_contents">
<rect x="0" y="0" width="100%" height="100%" fill="white" />
<g>
<clipPath id="clip_24">
<path transform="matrix(1,0,0,-1,0,2623.16)" d="M-32768-32768H32767V32767H-32768Z" />
</clipPath>
<g clip-path="url(#clip_24)">
<image x="1184" y="2189" width="352" height="226" xlink:href="assets/image-02-e57b119e21cd.png" />
</g>
</g>
</g>
<mask id="mask_23" mask-type="luminance">
<use xlink:href="#mask_23_contents" />
</mask>
</defs>
<g>
<g ns2:groupmode="layer" ns2:label="Layer 1">
<g clip-path="url(#clip_1)">
<path transform="matrix(1,0,0,-1,886.2095,1142.3679)" stroke-width="3" stroke-linecap="round" stroke-linejoin="round" fill="none" stroke="#3c3c4f" d="M0 0V-311.841C0-340.554-23.276-363.83-51.989-363.83-89.413-363.83-119.751-394.168-119.751-431.592-119.751-460.305-143.027-483.581-171.74-483.581H-386.499C-415.656-483.581-439.293-459.944-439.293-430.787V0C-439.293 29.157-415.656 52.794-386.499 52.794H-52.794C-23.637 52.794 0 29.157 0 0Z" />
<path transform="matrix(1,0,0,-1,781.5775,1573.9628)" stroke-width="3" stroke-linecap="round" stroke-linejoin="round" fill="none" stroke="#3c3c4f" d="M0 0C0 28.711 23.275 51.986 51.986 51.986 80.697 51.986 103.972 28.711 103.972 0 103.972-28.711 80.697-51.986 51.986-51.986 23.275-51.986 0-28.711 0 0Z" />
<path transform="matrix(1,0,0,-1,811.5855,1552.0787)" stroke-width="3" stroke-linecap="round" stroke-linejoin="round" fill="none" stroke="#3c3c4f" d="M0 0H43.784V-43.784" />
<path transform="matrix(1,0,0,-1,811.5855,1595.863)" stroke-width="3" stroke-linecap="round" stroke-linejoin="round" fill="none" stroke="#3c3c4f" d="M0 0 43.784 43.784" />
<path transform="matrix(1,0,0,-1,2246.913,1573.9628)" stroke-width="3" stroke-linecap="round" stroke-linejoin="round" fill="none" stroke="#3c3c4f" d="M0 0C0 28.711 23.275 51.986 51.986 51.986 80.697 51.986 103.972 28.711 103.972 0 103.972-28.711 80.697-51.986 51.986-51.986 23.275-51.986 0-28.711 0 0Z" />
<path transform="matrix(1,0,0,-1,2276.9212,1552.0787)" stroke-width="3" stroke-linecap="round" stroke-linejoin="round" fill="none" stroke="#3c3c4f" d="M0 0H43.784V-43.784" />
<path transform="matrix(1,0,0,-1,2276.9212,1595.863)" stroke-width="3" stroke-linecap="round" stroke-linejoin="round" fill="none" stroke="#3c3c4f" d="M0 0 43.784 43.784" />
<path transform="matrix(1,0,0,-1,1862.4397,1142.3679)" stroke-width="3" stroke-linecap="round" stroke-linejoin="round" fill="none" stroke="#3c3c4f" d="M0 0V-311.841C0-340.554-23.276-363.83-51.989-363.83-89.413-363.83-119.751-394.168-119.751-431.592-119.751-460.305-143.027-483.581-171.74-483.581H-386.499C-415.656-483.581-439.293-459.944-439.293-430.787V0C-439.293 29.157-415.656 52.794-386.499 52.794H-52.794C-23.637 52.794 0 29.157 0 0Z" />
<path transform="matrix(1,0,0,-1,1758.4679,1573.9628)" stroke-width="3" stroke-linecap="round" stroke-linejoin="round" fill="none" stroke="#3c3c4f" d="M0 0C0 28.711 23.275 51.986 51.986 51.986 80.697 51.986 103.972 28.711 103.972 0 103.972-28.711 80.697-51.986 51.986-51.986 23.275-51.986 0-28.711 0 0Z" />
<path transform="matrix(1,0,0,-1,1788.476,1552.0787)" stroke-width="3" stroke-linecap="round" stroke-linejoin="round" fill="none" stroke="#3c3c4f" d="M0 0H43.784V-43.784" />
<path transform="matrix(1,0,0,-1,1788.476,1595.863)" stroke-width="3" stroke-linecap="round" stroke-linejoin="round" fill="none" stroke="#3c3c4f" d="M0 0 43.784 43.784" />
<path transform="matrix(1,0,0,-1,1270.0227,1573.9628)" stroke-width="3" stroke-linecap="round" stroke-linejoin="round" fill="none" stroke="#3c3c4f" d="M0 0C0 28.711 23.275 51.986 51.986 51.986 80.697 51.986 103.972 28.711 103.972 0 103.972-28.711 80.697-51.986 51.986-51.986 23.275-51.986 0-28.711 0 0Z" />
<path transform="matrix(1,0,0,-1,1300.0308,1552.0787)" stroke-width="3" stroke-linecap="round" stroke-linejoin="round" fill="none" stroke="#3c3c4f" d="M0 0H43.784V-43.784" />
<path transform="matrix(1,0,0,-1,1300.0308,1595.863)" stroke-width="3" stroke-linecap="round" stroke-linejoin="round" fill="none" stroke="#3c3c4f" d="M0 0 43.784 43.784" />
</g>
<g clip-path="url(#clip_2)">
<path transform="matrix(1,0,0,-1,886.2095,1142.3679)" stroke-width="3" stroke-linecap="round" stroke-linejoin="round" fill="none" stroke="#3c3c4f" d="M0 0V-311.841C0-340.554-23.276-363.83-51.989-363.83-89.413-363.83-119.751-394.168-119.751-431.592-119.751-460.305-143.027-483.581-171.74-483.581H-386.499C-415.656-483.581-439.293-459.944-439.293-430.787V0C-439.293 29.157-415.656 52.794-386.499 52.794H-52.794C-23.637 52.794 0 29.157 0 0Z" />
<path transform="matrix(1,0,0,-1,781.5775,1573.9628)" stroke-width="3" stroke-linecap="round" stroke-linejoin="round" fill="none" stroke="#3c3c4f" d="M0 0C0 28.711 23.275 51.986 51.986 51.986 80.697 51.986 103.972 28.711 103.972 0 103.972-28.711 80.697-51.986 51.986-51.986 23.275-51.986 0-28.711 0 0Z" />
<path transform="matrix(1,0,0,-1,811.5855,1552.0787)" stroke-width="3" stroke-linecap="round" stroke-linejoin="round" fill="none" stroke="#3c3c4f" d="M0 0H43.784V-43.784" />
<path transform="matrix(1,0,0,-1,811.5855,1595.863)" stroke-width="3" stroke-linecap="round" stroke-linejoin="round" fill="none" stroke="#3c3c4f" d="M0 0 43.784 43.784" />
<path transform="matrix(1,0,0,-1,2350.8848,1142.3679)" stroke-width="3" stroke-linecap="round" stroke-linejoin="round" fill="none" stroke="#3c3c4f" d="M0 0V-311.841C0-340.554-23.276-363.83-51.989-363.83-89.413-363.83-119.75-394.168-119.75-431.592-119.75-460.305-143.027-483.581-171.74-483.581H-386.499C-415.656-483.581-439.293-459.944-439.293-430.787V0C-439.293 29.157-415.656 52.794-386.499 52.794H-52.794C-23.636 52.794 0 29.157 0 0Z" />
<path transform="matrix(1,0,0,-1,2246.913,1573.9628)" stroke-width="3" stroke-linecap="round" stroke-linejoin="round" fill="none" stroke="#3c3c4f" d="M0 0C0 28.711 23.275 51.986 51.986 51.986 80.697 51.986 103.972 28.711 103.972 0 103.972-28.711 80.697-51.986 51.986-51.986 23.275-51.986 0-28.711 0 0Z" />
<path transform="matrix(1,0,0,-1,2276.9212,1552.0787)" stroke-width="3" stroke-linecap="round" stroke-linejoin="round" fill="none" stroke="#3c3c4f" d="M0 0H43.784V-43.784" />
<path transform="matrix(1,0,0,-1,2276.9212,1595.863)" stroke-width="3" stroke-linecap="round" stroke-linejoin="round" fill="none" stroke="#3c3c4f" d="M0 0 43.784 43.784" />
<path transform="matrix(1,0,0,-1,1862.4397,1142.3679)" stroke-width="3" stroke-linecap="round" stroke-linejoin="round" fill="none" stroke="#3c3c4f" d="M0 0V-311.841C0-340.554-23.276-363.83-51.989-363.83-89.413-363.83-119.751-394.168-119.751-431.592-119.751-460.305-143.027-483.581-171.74-483.581H-386.499C-415.656-483.581-439.293-459.944-439.293-430.787V0C-439.293 29.157-415.656 52.794-386.499 52.794H-52.794C-23.637 52.794 0 29.157 0 0Z" />
<path transform="matrix(1,0,0,-1,1758.4679,1573.9628)" stroke-width="3" stroke-linecap="round" stroke-linejoin="round" fill="none" stroke="#3c3c4f" d="M0 0C0 28.711 23.275 51.986 51.986 51.986 80.697 51.986 103.972 28.711 103.972 0 103.972-28.711 80.697-51.986 51.986-51.986 23.275-51.986 0-28.711 0 0Z" />
<path transform="matrix(1,0,0,-1,1788.476,1552.0787)" stroke-width="3" stroke-linecap="round" stroke-linejoin="round" fill="none" stroke="#3c3c4f" d="M0 0H43.784V-43.784" />
<path transform="matrix(1,0,0,-1,1788.476,1595.863)" stroke-width="3" stroke-linecap="round" stroke-linejoin="round" fill="none" stroke="#3c3c4f" d="M0 0 43.784 43.784" />
<path transform="matrix(1,0,0,-1,1373.9945,1142.3679)" stroke-width="3" stroke-linecap="round" stroke-linejoin="round" fill="none" stroke="#3c3c4f" d="M0 0V-311.841C0-340.554-23.276-363.83-51.989-363.83-89.413-363.83-119.751-394.168-119.751-431.592-119.751-460.305-143.027-483.581-171.74-483.581H-386.499C-415.656-483.581-439.293-459.944-439.293-430.787V0C-439.293 29.157-415.656 52.794-386.499 52.794H-52.794C-23.637 52.794 0 29.157 0 0Z" />
<path transform="matrix(1,0,0,-1,1270.0227,1573.9628)" stroke-width="3" stroke-linecap="round" stroke-linejoin="round" fill="none" stroke="#3c3c4f" d="M0 0C0 28.711 23.275 51.986 51.986 51.986 80.697 51.986 103.972 28.711 103.972 0 103.972-28.711 80.697-51.986 51.986-51.986 23.275-51.986 0-28.711 0 0Z" />
<path transform="matrix(1,0,0,-1,1300.0308,1552.0787)" stroke-width="3" stroke-linecap="round" stroke-linejoin="round" fill="none" stroke="#3c3c4f" d="M0 0H43.784V-43.784" />
<path transform="matrix(1,0,0,-1,1300.0308,1595.863)" stroke-width="3" stroke-linecap="round" stroke-linejoin="round" fill="none" stroke="#3c3c4f" d="M0 0 43.784 43.784" />
</g>
<g clip-path="url(#clip_3)">
<path transform="matrix(1,0,0,-1,630.1714,1213.7935)" d="M0 0-1.304-7.175 5.808-2.969C10.238-.349 12.322-3.875 21.187-3.119 37.174-1.754 50.263 10.012 52.435 26.122 55.069 45.655 41.564 62.88 22.199 64.906 15.17 65.641 6.725 63.891 .874 59.95-.859 58.783-2.434 58.96-3.895 60.335-5.099 61.469-5.303 64.004-3.424 65.228 11.218 74.767 30.282 74.04 44.198 62.98 57.337 52.536 63.161 34.457 57.346 17.531 52.156 2.427 37.799-9.157 20.797-9.851 16.95-10.008 12.842-9.364 9.312-9.106L-4.964-16.991C-6.085-17.61-7.316-17.013-8.083-16.32-8.809-15.665-9.413-14.489-9.201-13.244L-7.068-.737-12.779 4.934C-14.001 6.148-14.484 8.073-13.443 9.547-12.657 10.659-10.581 11.665-9.198 10.777-7.421 9.635-5.484 6.607-2.247 4.16-.928 3.163 .4 2.2 0 0" fill="#3333ff" />
<path transform="matrix(1,0,0,-1,637.2546,1201.5431)" d="M0 0C-1.545-.409-2.842 1.246-3.316 2.124-3.968 3.33-3.64 5.463-2.158 6.129 1.601 7.82 5.286 9.363 8.573 12.128 6.867 13.967 5.207 15.999 4.031 18.385 3.236 19.997 4.488 21.702 5.728 22.434 9.463 24.637 11.231 18.256 13.533 16.847 15.464 19.213 16.752 21.642 18.055 24.544L-1.667 24.782C-3.62 24.806-5.113 26.919-4.997 28.281-4.811 30.479-3.224 31.694-1.03 31.65 2.871 31.57 6.632 31.539 10.476 31.682 10.016 34.083 10.06 35.553 11.767 36.827 12.863 37.645 15.051 37.894 16.304 36.273 17.273 35.021 17.161 33.249 17.301 31.62L29.444 31.571C30.874 31.566 31.716 30.278 32.123 29.225 32.573 28.058 32.296 26.48 31.05 25.587 29.388 24.396 27.249 24.689 25.158 24.614 23.823 19.908 21.448 15.838 18.402 12.216 21.497 9.67 24.687 8.207 27.997 6.642 29.697 5.838 30.764 4.527 30.492 2.827 30.258 1.363 28.767-.483 26.971 .005 22.066 1.337 17.817 4.121 13.616 7.339 9.437 4.361 5.207 1.377 0 0" fill="#3333ff" />
<path transform="matrix(1,0,0,-1,539.5882,1220.8562)" d="M0 0C-.259 5.809-3.451 8.168 1.199 11.352 3.251 12.757 4.769 14.454 6.25 16.321 7.515 17.915 10.215 17.611 11.298 16.315 12.726 14.607 12.327 12.872 10.883 11.277 9.342 9.577 8.065 7.779 5.853 6.633L7.917-5.717C8.201-7.416 7.759-8.598 6.621-9.453 3.04-12.146-6.001-2.76-10.549-2.267-14.081-1.84-18.243-3.113-22.176-2.848-31.434-2.223-39.93 1.103-46.984 7.352-56.41 15.704-61.554 28.146-60.73 40.668-59.787 55.007-51.432 67.258-39.885 73.714-26.506 81.194-10.853 80.425 1.605 72.701 3.22 71.7 3.384 69.723 2.766 68.44 2.274 67.42 .244 65.841-1.221 66.696-8.094 70.706-15.408 72.788-23.468 71.96-40.105 70.251-52.968 56.788-53.93 40.057-55.012 21.246-41.111 5.463-22.434 3.949-14.084 3.272-10.963 6.399-7.612 4.443Z" fill="#3333ff" />
<path transform="matrix(1,0,0,-1,505.8127,1175.2938)" d="M0 0C-.669-.386-.738-1.145-.354-1.632 .032-2.12 .64-2.257 1.196-1.872 1.869-1.405 1.538-1.006 1.307-.43 1.081 .133 .663 .382 0 0M8.603-5.743 8.48-21.194C8.468-22.694 6.573-24.248 5.114-24.248 3.611-24.247 1.758-22.69 1.741-21.202L1.602-8.532C-2.366-9.224-5.754-6.987-6.866-3.4-7.944 .075-6.58 3.975-3.585 5.645-.128 7.572 3.751 6.974 6.553 4.039 9.255 6.363 12.699 7.549 16.27 6.931 21.984 5.94 26.579 1.64 27.109-4.399 27.597-9.971 27.23-15.502 27.214-21.191 27.21-22.68 25.176-24.258 23.845-24.248 22.304-24.236 20.475-22.707 20.455-21.188L20.238-4.693C20.195-1.446 16.873 .338 14.042 .192 11.106 .04 8.631-2.281 8.603-5.743" fill="#3333ff" />
<path transform="matrix(1,0,0,-1,592.4324,1204.949)" d="M0 0C15.51 4.235 25.401 19.11 23.454 35.053 21.403 51.857 6.718 64.036-9.917 63.345-26.333 62.663-39.69 49.399-40.648 33.025-41.617 16.457-29.879 1.702-13.206-.779-11.66-1.009-10.199-1.115-9.427-2.664L-6.023-9.495C-3.478-5.343-3.778-1.032 0 0M-2.346-18.334C-2.913-19.672-3.829-20.506-4.864-20.736-5.935-20.974-7.69-20.584-8.343-19.355L-14.678-7.433C-35.052-4.24-49.633 14.926-47.243 35.502-44.802 56.505-25.789 72.048-4.924 70.019 14.151 68.164 29.101 52.905 30.346 33.718 31.532 15.443 20.176-1.039 2.787-6.22Z" fill="#3333ff" />
<path transform="matrix(1,0,0,-1,587.1732,1174.4356)" d="M0 0-2.936 7.151-5.746 .14ZM2.9-6.899-8.662-6.863C-10.305-9.965-11.414-18.198-16.071-16.051-17.283-15.492-18.615-13.696-17.935-12.009L-5.962 17.717C-5.474 18.928-4.281 19.633-3.295 19.744-2.463 19.837-.618 19.449-.149 18.301L11.969-11.317C12.765-13.263 11.978-15.111 10.451-15.931 8.651-16.898 6.553-16.055 5.75-14.044Z" fill="#3333ff" />
<path transform="matrix(1,0,0,-1,650.9318,1313.2938)" d="M0 0C.274 1.238 .29 2.339 1.196 3.011 2.056 3.65 3.105 4.088 4.52 3.848 7.635 3.318 11.606 5.002 11.733 8.665 11.954 15.045 11.937 21.373 11.725 27.677 11.609 31.1 8.32 32.799 5.367 32.135 4.805 32.009 4.109 32.458 4.039 31.941 3.87 30.689 5.318 22.422 4.729 20.546 4.128 18.635 2.2 17.886 .425 18.302-1.157 18.672-2.106 20.248-2.066 22.168-2.022 24.235-2.794 33.349-3.264 34.542-10.844 53.784-28.687 67.58-49.695 68.919-61.063 69.644-72.313 69.439-83.71 68.917-103.648 68.003-123.203 53.326-129.848 34.731-131.586 29.868-130.397 20.479-132.597 18.797-133.63 18.007-135.264 17.921-136.692 18.704-139.235 20.096-137.719 23.664-137.806 27.843-137.836 29.306-136.977 30.626-137.479 32.154-138.595 32.177-139.683 32.276-140.909 32.146-143.287 31.895-145.051 29.789-145.131 27.248-145.319 21.199-145.283 15.206-145.158 9.126-145.081 5.426-141.68 3.348-138.287 3.83-136.992 4.014-135.835 3.872-134.832 3.21-134.058 2.699-133.616 1.688-133.366 .435-130.769-12.612-120.513-22.343-107.271-24.495L-25.784-24.47C-12.756-22.341-2.789-12.579 0 0M-26.797-31.435-106.375-31.449C-122.566-29.619-135.523-18.474-139.677-2.837-145.467-2.946-151.439 1.103-151.52 7.048L-151.82 29.063C-150.259 35.966-144.363 40.106-137.367 39.077-136.798 38.994-136.133 39.163-135.554 39.219-134.942 39.279-135.116 40.246-134.789 40.874-131.07 48.029-126.675 54.498-120.687 59.901-109.816 69.707-96.313 75.45-81.571 76.005-71.548 76.382-61.83 76.38-51.831 76.008-28.192 75.128-7.543 60.878 2.122 39.429 2.773 38.83 4.353 39.146 5.425 39.201 11.109 39.491 17.666 35.762 18.106 29.422 18.624 21.956 18.568 14.476 18.141 6.944 17.808 1.07 11.881-2.95 6.443-2.814 1.964-18.38-10.379-29.51-26.797-31.435" fill="#3333ff" />
<path transform="matrix(1,0,0,-1,624.1125,1315.1301)" d="M0 0C3.035 .913 5.471 3.177 5.491 6.144L5.59 20.889C3.421 34.784-6.191 44.528-20.078 46.688L-59.925 46.595C-73.509 44.542-83.782 34.013-85.249 20.362L-85.324 6.179C-84.561 3.296-82.613 .072-79.174 .069ZM-.387-6.789-79.471-6.743C-86.676-6.739-91.702 .27-92.155 6.512-92.485 11.049-92.356 14.798-92.149 19.085-91.275 37.211-77.167 51.752-59.059 53.574L-20.26 53.554C-2.52 51.543 11.067 37.721 12.385 19.919 12.731 15.241 12.76 11.006 12.356 6.124 11.842-.066 6.714-6.794-.387-6.789" fill="#3333ff" />
<path transform="matrix(1,0,0,-1,606.1923,1284.7976)" d="M0 0C3.64 .919 6.895-1.406 7.727-4.523 8.64-7.943 6.4-11.542 3.191-12.336-.282-13.195-3.42-11.342-4.526-8.058-5.638-4.758-3.786-.956 0 0" fill="#3333ff" />
<path transform="matrix(1,0,0,-1,562.4681,1297.1528)" d="M0 0C-3.941-.861-7.208 1.492-7.932 5.009-8.612 8.313-6.334 11.71-2.916 12.432 .558 13.165 4.217 10.706 4.604 6.922 4.926 3.776 3.252 .711 0 0" fill="#3333ff" />
<path transform="matrix(1,0,0,-1,1169.4601,1307.4042)" d="M0 0C0 15.713-12.738 28.452-28.452 28.452-44.165 28.452-56.903 15.713-56.903 0-56.903-15.713-44.165-28.452-28.452-28.452-12.738-28.452 0-15.713 0 0M-2.005-23C-9.321-31.483-20.355-35.863-31.32-34.946-51.424-33.265-65.651-15.307-63.256 4.645-60.929 20.805-47.932 33.557-31.615 34.861-24.636 35.419-18.117 34.235-11.842 30.912-3.437 50.904-2.025 72.997-8.165 93.832-8.743 95.794-7.389 97.518-5.802 97.965-4.219 98.412-2.345 97.337-1.776 95.559-.044 90.144 1.244 84.676 1.61 78.971L2.071 71.777C2.26 68.825 2.546 66.193 2.041 63.24 1.744 61.495 2.022 59.704 1.811 57.89 .578 47.309-1.843 37.076-6.244 27.229L-.985 21.788C10.714 9.684 9.26-9.936-2.005-23" fill="#3333ff" />
<path transform="matrix(1,0,0,-1,1134.1763,1311.3914)" d="M0 0-7.95-7.62C-9.275-8.89-10.545-9.858-12.177-9.036-13.66-8.289-14.838-6.066-13.505-4.604-11.664-2.584-9.83-.617-7.722 1.07-3.029 4.826-1.555 9.453 2.843 5.724L6.877 2.304 15.594 11.206C13.335 10.93 11.885 11.55 11.157 12.948 10.601 14.016 11.142 16.612 12.917 16.956 16.336 17.618 20.013 17.003 23.655 17.195 25.236 17.278 26.356 15.737 26.241 14.252 25.965 10.716 26.631 7.191 25.982 3.924 25.628 2.146 23.368 1.612 22.319 2.012 20.467 2.717 20.045 4.121 20.238 6.563L12.88-.377C11.395-1.777 10.02-3.194 8.477-4.492 7.219-5.55 5.49-4.579 4.477-3.735Z" fill="#3333ff" />
<path transform="matrix(1,0,0,-1,1132.6288,1184.7178)" d="M0 0C-1.501-1.504-3.65-1.091-4.741 .233-5.923 1.667-5.882 3.53-4.386 5.004L16.64 25.736C17.706 26.665 20.012 25.625 20.563 24.835 21.248 23.854 22.056 22.105 20.815 20.861Z" fill="#3333ff" />
<path transform="matrix(1,0,0,-1,1168.9552,1172.1555)" d="M0 0C0 15.716-12.74 28.456-28.456 28.456-44.171 28.456-56.911 15.716-56.911 0-56.911-15.716-44.171-28.456-28.456-28.456-12.74-28.456 0-15.716 0 0M-63.537 .173C-63.807 4.459-61.775 12.844-58.85 17.382-78.318 26.231-100.204 27.912-120.892 22.57-122.662 22.113-124.097 23.554-124.611 24.724-125.118 25.877-124.541 28.314-122.849 28.804-116.496 30.641-109.876 31.691-103.127 31.93-99.072 32.697-95.381 32.273-91.283 32.029-78.718 31.279-66.647 28.356-55.1 22.9-46.637 32.067-36.42 35.98-23.936 34.803-8.121 32.619 4.349 20.204 6.337 4.426 8.79-15.032-5.242-32.828-24.886-34.892-43.804-36.879-62.07-23.131-63.266-4.137Z" fill="#3333ff" />
<path transform="matrix(1,0,0,-1,1149.0723,1177.7057)" d="M0 0C2.622 .753 5.188-.716 6.015-3.182 6.844-5.651 5.384-8.221 2.681-9.228 .43-10.067-2.236-8.572-3.23-6.057-4.126-3.789-2.595-.745 0 0" fill="#3333ff" />
<path transform="matrix(1,0,0,-1,1062.4097,1277.7615)" d="M0 0-5.667-2.305 8.395-27.213 8.583 1.262C8.597 3.312 10.506 4.537 12.049 4.408 13.886 4.254 15.272 2.996 15.276 .973L15.339-27.603 30-2.367C27.864-1.509 25.891-1.022 24.098-.02 23.03 .85 22.333 1.637 22.41 2.846 22.495 4.185 23.219 5.042 24.399 5.855L32.997 11.782 28.05 20.997 27.763 73.352C27.738 77.929 22.901 82.24 18.705 82.263L-13.963 82.442C-14.141 79.189-14.1 66.921-10.135 66.385L-6.747 65.927 14.382 65.769C16.031 65.757 16.691 63.542 16.602 62.273 16.51 60.98 15.191 59.537 13.557 59.533L-3.824 59.49-3.797 42.576C-3.795 40.87-2.803 39.705-1.462 38.937L5.531 34.932C8.036 33.498 10.231 33.286 12.928 34.266 14.678 34.902 16.37 33.08 16.545 31.714 16.823 29.554 15.663 28.216 13.627 27.576 10.74 26.669 7.687 26.426 4.793 27.912 1.13 29.792-2.408 31.793-5.951 34.088-8.597 35.802-10.359 39.107-10.412 42.305L-10.704 59.733C-19.363 61.028-19.902 70.248-20.625 77.049-20.938 79.993-20.724 82.796-20.8 85.839-20.845 87.652-19.357 89.282-17.386 89.263L18.927 88.912C27.704 88.828 34.549 80.722 34.593 72.084L34.835 24.244 45.509 20.62C50.83 18.813 57.818 13.938 59.091 8.127 59.402 6.708 58.175 5.207 57.222 4.948 51.612 3.423 54.867 8.84 45.786 13.283 43.507 14.399 41.104 15.006 38.537 16.013 38.513 14.304 42.837 10.644 39.633 8.39L32.968 3.7C34.828 2.983 39.359 .805 38.064-1.452L14.869-41.881C13.882-43.602 10.68-44.628 9.497-42.533L-12.829-3.037C-13.639-1.605-13.947-.384-13.131 1.112-12.5 2.268-10.998 2.58-9.05 3.327L-16.617 8.078C-17.579 8.682-18.093 9.681-18.248 10.547-18.532 12.137-16.458 14.238-15.257 15.863-22.237 14.121-27.378 11.24-28.41 3.494-28.638 1.779-30.662 .794-31.982 .973-33.725 1.208-35.042 2.856-34.827 4.796-33.934 12.849-28.144 18.772-20.532 21.11L-2.699 26.59C-.896 27.143 .643 25.314 .869 24.046 1.761 19.032-3.836 21.36-6.323 17.004-7.416 15.09-9.016 13.457-10.095 11.799-6.423 9.438-2.609 7.696 .856 5.201 2.585 3.956 1.879 .764 0 0" fill="#3333ff" />
<path transform="matrix(1,0,0,-1,1077.602,1261.6132)" d="M0 0C.259-2.311 .424-5.329-2.074-6.093-3.225-6.445-4.683-6.481-5.519-5.476-7.049-3.636-7.276-.547-6.003 1.385-5.125 2.719-3.674 3.291-2.384 2.99-1.068 2.682-.177 1.578 0 0" fill="#3333ff" />
<path transform="matrix(1,0,0,-1,1131.5307,1166.7764)" d="M0 0C-1.853-.577-3.688 .6-4.63 1.763-5.692 3.072-6.323 4.963-5.482 6.535-4.392 8.576-2.371 9.898-.26 9.561 1.933 9.211 3.685 7.405 3.836 5.121 3.975 3.026 2.462 .767 0 0" fill="#3333ff" />
<path transform="matrix(1,0,0,-1,1034.2179,1171.0615)" d="M0 0C0 15.713-12.738 28.451-28.451 28.451-44.165 28.451-56.903 15.713-56.903 0-56.903-15.713-44.165-28.451-28.451-28.451-12.738-28.451 0-15.713 0 0M-55.303-76.731C-55.142-83.376-53.178-89.286-52.074-95.427-51.836-96.749-53.709-97.978-54.591-98.358-55.655-98.817-57.742-98.082-58.221-96.715-60.451-90.357-61.197-83.909-62.091-77.199-62.066-71.556-62.435-66.117-61.979-60.458-60.982-48.087-57.679-36.359-52.459-25.452-66.694-12.105-67.064 9.933-54.142 23.857-41.138 37.869-19.352 38.884-5.092 26.17 9.087 13.529 10.717-8.446-2.029-22.946-13.388-36.157-32.51-38.702-47.127-29.682-52.358-40.701-54.85-52.094-55.615-63.885-56.154-72.183-55.449-70.669-55.303-76.731" fill="#3333ff" />
<path transform="matrix(1,0,0,-1,1017.3382,1177.086)" d="M0 0C.5-4.891-2.728-9.199-7.233-10.469-8.176-10.735-8.467-11.418-8.394-12.28-8.188-14.728-10.233-15.526-11.794-15.65-14.884-15.896-14.017-12.467-15.104-11.392-17.035-9.48-20.865-9.283-22.093-6.095-22.697-4.528-22.364-2.653-20.847-1.837-19.132-.915-17.719-1.284-16.238-2.948-13.988-5.478-8.306-5.494-6.864-2.122-5.673 .666-9.359 2.222-11.516 2.312-15.72 2.489-19.509 3.984-21.639 7.398-23.892 11.01-23.725 15.364-20.828 18.321-15.652 23.604-14.466 20.433-14.751 23.717-14.892 25.346-13.976 27-12.7 27.415-11.236 27.89-9.289 27.525-8.641 26.052-8.129 24.887-8.448 23.658-8.431 22.282-5.78 21.248-2.936 20.157-1.401 17.607-.525 16.152-1.358 14.565-2.415 13.689-3.355 12.909-5.463 12.684-6.484 13.72-8.05 15.309-9.469 15.738-11.848 15.764-14.096 15.788-17.111 14.207-16.341 11.453-15.875 9.789-13.424 8.913-11.821 8.916-6.258 8.925-.525 5.133 0 0" fill="#3333ff" />
<path transform="matrix(1,0,0,-1,1033.4528,1307.8984)" d="M0 0C0 15.713-12.738 28.452-28.452 28.452-44.165 28.452-56.903 15.713-56.903 0-56.903-15.713-44.165-28.452-28.452-28.452-12.738-28.452 0-15.713 0 0M63.274-21.855C65.055-21.367 66.953-22.308 67.381-23.628 67.974-25.457 67.507-27.387 65.555-28.007 59.263-30.006 52.857-30.846 46.236-31.593 28.601-32.395 14.227-30.519-2.288-23.201-13.884-36.508-33.748-39.056-48.423-28.812-58.967-21.452-64.697-9.176-63.341 3.757-62.085 15.739-54.377 26.597-43.015 31.855-37.755 34.289-32.519 35.26-26.576 34.958-8.715 34.048 5.614 19.747 6.508 1.857 6.859-5.165 5.394-11.69 1.631-17.798 21.553-26.025 42.51-27.546 63.274-21.855" fill="#3333ff" />
<path transform="matrix(1,0,0,-1,1004.9376,1317.0585)" d="M0 0C1.585 2.672 3.327 5.33 5.495 7.812 8.361 11.092 8.711 15.421 5.905 18.664 3.28 21.699-1.479 22.194-4.801 19.64-7.91 17.25-8.928 12.5-6.329 9.135-4.042 6.175-1.789 3.421 0 0M.341-11.907C-3.622-12.408-2.463-7.863-7.058-.953-8.379 1.034-9.761 2.76-11.241 4.647-16.088 10.83-15.061 19.76-9.092 24.646-3.153 29.507 5.484 28.936 10.753 23.114 15.944 17.378 15.488 8.944 10.222 3.126 7.113-.309 4.681-4.364 3.449-8.722 2.965-10.436 2.023-11.694 .341-11.907" fill="#3333ff" />
<path transform="matrix(1,0,0,-1,1629.0698,1196.7697)" d="M0 0-.053 36.231C-2.103 46.625-9.829 54.105-20.252 55.701L-145.131 55.698C-156.382 54.016-164.598 45.431-165.733 34.103L-165.822-.007ZM-145.949-123.41C-144.257-123.05-143.157-123.776-141.739-123.779L-76.881-123.905C-75.21-123.908-74.864-126.397-74.941-127.424-75.017-128.427-76.032-130.236-77.578-130.236L-145.153-130.222C-159.258-128.612-170.115-118.035-172.223-104.045L-172.322-66.451-172.282-63.736-172.209 36.306C-172.208 37.916-170.677 41.72-169.938 44.056-168.971 47.111-166.991 49.823-164.844 52.145-159.693 58.088-153.012 61.448-145.032 62.534L-20.778 62.529C-6.157 60.941 4.993 49.963 6.813 35.366L6.795-38.855C6.795-40.533 4.373-41.604 3.266-41.452 1.764-41.246 .09-39.892 .083-37.908L-.026-6.419-165.804-6.42-165.824-61.702-84.545-61.694C-82.817-62.177-81.678-63.46-81.572-65.014-81.491-66.198-82.717-68.507-84.545-68.508L-165.832-68.548-165.755-102.235C-164.475-113.045-156.765-121.497-145.949-123.41" fill="#3333ff" />
<path transform="matrix(1,0,0,-1,1648.9917,1291.2977)" d="M0 0C0 24.877-20.167 45.044-45.044 45.044-69.921 45.044-90.088 24.877-90.088 0-90.088-24.877-69.921-45.044-45.044-45.044-20.167-45.044 0-24.877 0 0M6.682 .011C6.682-28.55-16.471-51.703-45.032-51.703-73.593-51.703-96.746-28.55-96.746 .011-96.746 28.572-73.593 51.725-45.032 51.725-16.471 51.725 6.682 28.572 6.682 .011" fill="#3333ff" />
<path transform="matrix(1,0,0,-1,1546.6884,1227.1774)" d="M0 0-61.757 .054C-63.679 .056-64.97 1.584-65.365 2.918-65.766 4.274-64.736 6.797-62.755 6.797L.41 6.804C2.213 6.804 3.22 4.759 3.198 3.67 3.161 1.778 2.351 .724 0 0" fill="#3333ff" />
<path transform="matrix(1,0,0,-1,1602.4932,1222.4912)" d="M0 0-17.106 .025-17.241-11.477C-17.26-13.149-19.36-14.636-20.642-14.459-22.324-14.227-23.896-12.894-23.902-11.027L-23.952 3.021C-23.957 4.543-22.662 6.781-20.92 6.784L4.258 6.83C5.526 6.832 6.711 4.995 6.761 3.797 6.941-.514 6.94-4.608 6.767-8.912 6.703-10.502 4.844-11.745 3.608-11.822 1.954-11.924 .536-10.595 .018-8.925Z" fill="#3333ff" />
<path transform="matrix(1,0,0,-1,1537.8411,1288.4888)" d="M0 0-54.359 .125C-56.067 .129-56.857 2.894-56.528 4.011-56.057 5.61-54.64 6.496-52.703 6.495L-1.354 6.465C.429 6.464 1.651 5.435 2.026 3.984 2.407 2.514 1.675 1.1 0 0" fill="#3333ff" />
<path transform="matrix(1,0,0,-1,1511.2106,1303.2926)" d="M0 0-26.753-.057C-28.498-.061-29.772 1.925-29.951 3.106-30.158 4.474-29.063 6.62-27.311 6.621L.385 6.641C2.064 6.642 2.873 4.688 2.991 3.431 3.097 2.297 1.867 .004 0 0" fill="#3333ff" />
<path transform="matrix(1,0,0,-1,1510.884,1241.659)" d="M0 0-26.429 .014C-28.172 .015-29.445 1.97-29.625 3.171-29.831 4.553-28.736 6.674-26.986 6.679L.366 6.758C2.124 6.764 3.093 4.97 3.304 3.468 3.484 2.188 1.954-.001 0 0" fill="#3333ff" />
<path transform="matrix(1,0,0,-1,0,2623.16)" d="M1602.501 1462.811H1585.363V1445.6731H1602.501ZM1605.725 1438.788 1581.144 1438.825C1579.714 1439.377 1578.59 1440.714 1578.584 1442.362L1578.488 1466.139C1579.067 1467.404 1579.561 1469.176 1581.134 1469.181L1605.929 1469.26C1607.941 1469.266 1609.373 1467.8 1609.373 1465.814L1609.371 1442.246C1609.371 1440.216 1607.965 1438.784 1605.725 1438.788" fill="#3333ff" />
<path transform="matrix(1,0,0,-1,1546.6871,1165.4813)" d="M0 0-62.194 .063C-64.006 .065-65.246 2.118-65.423 3.259-65.626 4.571-64.574 6.804-62.755 6.804H.413C2.196 6.804 3.249 4.766 3.205 3.657 3.132 1.816 2.375 .712 0 0" fill="#3333ff" />
<path transform="matrix(1,0,0,-1,1511.6019,1179.8257)" d="M0 0-26.929-.222C-28.739-.237-30.505 1.931-30.333 3.548-30.102 5.716-28.015 6.66-26.079 6.653L-.469 6.555C1.204 6.549 2.215 4.899 2.566 3.729 2.89 2.651 1.753 .014 0 0" fill="#3333ff" />
<path transform="matrix(1,0,0,-1,1627.8607,1294.4729)" d="M0 0-24.483 .028C-25.886 .029-27.088 1.156-27.084 2.627L-26.978 38.507C-26.973 40.024-24.503 40.876-23.424 40.712-22.038 40.5-20.607 39.125-20.61 37.29L-20.657 6.448-.948 6.428C.585 6.427 1.68 5.117 1.983 3.98 2.387 2.469 1.557 1.064 0 0" fill="#3333ff" />
<path transform="matrix(1,0,0,-1,1987.0735,1284.6467)" d="M0 0C.325 2.823 .344 5.87-.01 8.471-.659 13.229-4.701 16.333-9.123 16.119-13.194 15.922-17.3 12.586-17.316 8.129L-17.344 .626C-17.363-4.204-13.465-7.736-9.145-7.979-4.572-8.236-.611-5.309 0 0M56.359 16.044C56.155 20.303 56.812 24.578 56.188 28.683 55.341 34.261 50.192 38.035 44.988 37.924 39.73 37.812 34.998 33.845 34.321 28.102 33.897 24.503 33.848 20.439 34.38 16.918 35.239 11.24 39.94 7.716 44.944 7.462 50.356 7.187 54.268 10.455 56.359 16.044M26.847-3.061C22.409-4.368 20.62-9.685 20.885-13.561 20.928-14.178 20.019-27.297 19.902-29.075L19.41-36.552 18.829-45.017C18.493-49.912 19.299-56.866 15.175-57.279 13.494-57.448 11.027-56.892 10.884-54.528 10.416-46.813 13.084-25.191 12.075-21.854 10.469-16.543 3.095-15.807-1.868-14.828-6.508-15.804-10.218-16.29-14.829-14.846-17.177-14.111-20.167-16.182-22.453-16.474-27.306-17.095-29.935-20.714-30.287-25.339L-30.736-31.233-31.26-37.62-31.775-44.008-32.293-49.862C-32.441-51.533-32.774-53.281-32.961-54.969-33.146-56.647-34.971-57.261-36.206-57.303-37.359-57.343-39.471-56.903-39.875-55.488-40.806-52.236-39.995-48.886-39.717-45.64L-39.213-39.755-38.708-33.372-38.156-27.015C-37.554-20.097-35.712-12.961-29.001-10.491L-22.406-8.064C-25.315-3.974-25.196 .364-25.375 4.904-25.753 14.491-19.673 23.036-9.694 23.857-1.703 24.514 5.776 18.691 7.349 10.6 7.867 7.937 8.38-5.729 4.97-8.285 8.159-9.15 10.791-9.933 13.366-11.622 13.389-3.218 18.894 3.39 26.899 5.22 28.333 5.548 29.602 5.728 30.983 6.639 25.933 11.694 25.827 20.658 26.386 27.468 27.159 36.879 33.763 44.404 43.393 45.615 49.308 46.359 55.265 43.655 59.057 39.706 63.507 35.07 64.538 29.257 64.45 22.967 64.367 17.011 64.156 11.318 59.658 6.306 63.865 5.281 67.224 4.378 70.457 2.122L81.892 18.655C82.942 20.173 84.006 21.472 85.65 22.266 78.44 27.73 76.435 37.049 80.85 44.775 82.272 47.264 84.911 48.871 87.008 50.69L87.236 55.332C87.462 59.92 91.58 63.831 95.803 65.715 98.518 75.326 107.429 78.216 116.339 77.027 122.234 76.241 127.392 76.107 132.144 71.625 141.346 62.945 141.567 49.347 133.329 39.304 133.939 30.475 127.718 22.671 118.829 21.546 111.911 20.67 106.136 25.126 103.122 31.02 101.389 34.41 101.451 37.883 100.4 41.26 99.957 42.684 96.52 43.484 97.806 46.063 100.593 51.652 105.089 47.343 109.758 49.744 113.494 51.664 115.617 55.377 116.652 59.294 117.049 60.796 118.692 61.198 119.775 61.268 121.208 61.36 122.789 60.848 123.416 59.359 124.439 56.927 123.284 54.742 122.348 52.536 119.911 46.791 115.188 42.811 108.994 41.465 108.224 37.057 109.979 32.991 113.661 30.256 116.043 28.487 119.438 29.213 121.969 30.739 124.487 32.257 125.579 35.124 125.658 38.556 125.939 50.702 128.81 48.61 130.175 50.105 133.168 53.383 131.561 59.478 129.261 63.071 126.858 66.825 122.428 69.561 117.533 69.002 115.664 68.789 114.616 68.638 112.72 69.368 110.087 70.38 106.746 68.881 105.204 66.787 107.783 66.402 108.118 64.171 107.73 62.171 106.808 57.413 100.068 61.993 95.975 56.335 91.247 49.798 99.881 47.681 90.83 43.684 85.92 41.516 84.638 34.811 88.025 30.862 93.243 24.779 96.344 27.764 101.376 27.116 102.999 26.906 104.019 24.621 103.921 23.343 103.437 17.028 93.585 20.808 89.177 14.462L69.42-13.985C68.706-15.014 68.868-17.671 69.445-18.685L84.252-44.713C85.508-46.919 87.809-47.952 89.967-46.606 92.059-45.301 92.145-42.978 90.947-40.748L80.725-21.717C78.394-17.378 78.736-12.793 81.908-8.926L92.584 4.087C94.006 5.819 96.004 5.418 97.366 4.695 98.761 3.954 100.348 1.447 99.148-.415 96.373-4.724 92.719-8.715 89.383-12.664 87.588-14.79 87.168-16.181 88.514-18.738L98.926-38.524C102.558-45.425 97.319-54.127 89.997-55.137 84.035-55.96 79.628-53.308 76.85-48.396L61.949-22.048C58.198-15.415 62.502-9.255 65.947-4.247 63.478-2.357 54.084-.037 51.293 .276 32.293-1.525 48.075 3.191 26.847-3.061" fill="#3333ff" />
<path transform="matrix(1,0,0,-1,2108.2086,1315.6267)" d="M0 0C.01-2.797-1.833-4.411-4.034-4.556-6.317-4.707-7.787-2.991-8.506-.504L-8.36 27.613C-8.346 30.16-6.404 31.558-4.536 31.73-2.388 31.928-.11 30.45-.1 27.873Z" fill="#3333ff" />
<path transform="matrix(1,0,0,-1,2108.2808,1274.675)" d="M0 0C-.105-2.121-.664-3.747-2.014-4.579-3.434-5.455-5.792-5.44-7.01-4.349-8.306-3.188-8.742-1.28-8.478 .595-8.133 3.044-6.465 5.026-4.084 4.886-1.646 4.742 .145 2.923 0 0" fill="#3333ff" />
<path transform="matrix(1,0,0,-1,2139.684,1185.4109)" d="M0 0C.885 .515 1.957 1.226 1.751 2.011 1.563 2.727 1.374 4.432 .58 3.918-.904 2.372-2.609 1-4.585 1.433-6.346 1.819-7.401 3.401-8.028 5.233L-12.312 17.76C-16.25 16.811-19.571 15.899-23.972 16.207L-17.282-3.968C-11.038-4.249-5.176-3.011 0 0M22.857 19.883 16.484 38.772C14.71 39.57 13.072 38.851 11.314 38.682 4.285 38.007-2.222 36.15-8.266 31.747L-1.689 12.395C5.668 17.072 13.803 18.93 22.857 19.883M28.081-77.19 54.337-44.37C55.839-42.492 56.29-40.65 55.353-38.813 54.619-37.372 50.795-35.587 49.288-37.365L26.279-64.506C22.776-68.637 19.22-71.467 13.73-72.841L-12.405-79.381C-14.808-79.983-17.114-79.112-17.622-76.971-18.146-74.768-17.647-72.211-14.974-71.528L14.15-64.083C16.899-63.38 18.411-60.937 20.122-58.9L41.015-34.021 37.561-23.981 25.558 11.528C19.314 11.446 13.981 10.195 8.221 8.497 9.521 3.082 12.915 1.112 9.231-2.841 1.988-10.614-9.066-12.522-19.312-12.576-22.313-12.592-23.743-10.851-24.641-8.167L-33.527 18.392C-33.907 19.528-33.856 21.337-33.194 22.238-32.616 23.024-31.385 24.17-29.909 24.16-24.847 24.126-19.897 24.222-14.991 25.688-16.418 31.635-19.448 33.171-14.383 37.358-6.425 43.936 3.565 46.58 13.927 47.302 15.278 48.806 16.321 50.799 18.598 50.36 20.894 49.919 21.806 48.904 22.626 46.46L41.131-8.715 47.922-28.958C52.974-27.352 58.167-29.232 61.229-33.088 64.653-37.402 65.38-43.318 61.984-47.763L56.509-54.933 66.053-82.651C66.867-85.017 66.812-87.159 64.62-88.458 63.038-89.396 59.757-89.459 58.946-87.11L50.433-62.449 34.291-82.702C31.983-85.598 28.565-87.276 25.007-88.274L-10.39-97.062C-9.817-98.316-9.521-99.699-8.864-100.859-5.652-106.536-6.294-113.016-10.652-117.938-12.176-119.66-12.73-121.683-12.495-124.139L-9.756-152.765C-9.537-155.053-11.388-156.751-13.301-157.034-14.787-157.254-17.617-156.005-17.837-153.88L-20.593-127.257C-22.376-110.033-11.85-114.165-15.982-104.864L-20.088-95.621C-21.125-93.287-19.626-90.691-17.112-90.075L23.693-80.078C25.342-79.674 26.912-78.65 28.081-77.19" fill="#3333ff" />
</g>
<g clip-path="url(#clip_4)">
<image x="448" y="450" width="377" height="476" xlink:href="assets/image-03-ea3e86de69f0.png" />
</g>
<g clip-path="url(#clip_5)">
<path transform="matrix(1,0,0,-1,735.9982,882.499)" stroke-width="3" stroke-linecap="butt" stroke-miterlimit="10" stroke-linejoin="miter" fill="none" stroke="#000000" d="M0 0C0 23.844 19.329 43.174 43.174 43.174 67.018 43.174 86.347 23.844 86.347 0 86.347-23.844 67.018-43.174 43.174-43.174 19.329-43.174 0-23.844 0 0Z" />
<path transform="matrix(1,0,0,-1,760.9194,864.3246)" stroke-width="3" stroke-linecap="butt" stroke-miterlimit="10" stroke-linejoin="miter" fill="none" stroke="#000000" d="M0 0H36.362V-36.362" />
<path transform="matrix(1,0,0,-1,760.9194,900.6869)" stroke-width="3" stroke-linecap="butt" stroke-miterlimit="10" stroke-linejoin="miter" fill="none" stroke="#000000" d="M0 0 36.362 36.362" />
</g>
<g clip-path="url(#clip_6)">
<image x="844" y="450" width="377" height="476" xlink:href="assets/image-04-cb7c8d090655.png" />
</g>
<g clip-path="url(#clip_7)">
<path transform="matrix(1,0,0,-1,1131.5989,882.499)" stroke-width="3" stroke-linecap="butt" stroke-miterlimit="10" stroke-linejoin="miter" fill="none" stroke="#000000" d="M0 0C0 23.844 19.329 43.174 43.174 43.174 67.018 43.174 86.347 23.844 86.347 0 86.347-23.844 67.018-43.174 43.174-43.174 19.329-43.174 0-23.844 0 0Z" />
<path transform="matrix(1,0,0,-1,1156.5202,864.3246)" stroke-width="3" stroke-linecap="butt" stroke-miterlimit="10" stroke-linejoin="miter" fill="none" stroke="#000000" d="M0 0H36.362V-36.362" />
<path transform="matrix(1,0,0,-1,1156.5202,900.6869)" stroke-width="3" stroke-linecap="butt" stroke-miterlimit="10" stroke-linejoin="miter" fill="none" stroke="#000000" d="M0 0 36.362 36.362" />
</g>
<g clip-path="url(#clip_8)">
<image x="1239" y="450" width="378" height="476" xlink:href="assets/image-05-fed3244d3355.png" />
</g>
<g clip-path="url(#clip_9)">
<path transform="matrix(1,0,0,-1,1527.1997,882.499)" stroke-width="3" stroke-linecap="butt" stroke-miterlimit="10" stroke-linejoin="miter" fill="none" stroke="#000000" d="M0 0C0 23.844 19.329 43.174 43.174 43.174 67.018 43.174 86.347 23.844 86.347 0 86.347-23.844 67.018-43.174 43.174-43.174 19.329-43.174 0-23.844 0 0Z" />
<path transform="matrix(1,0,0,-1,1552.121,864.3246)" stroke-width="3" stroke-linecap="butt" stroke-miterlimit="10" stroke-linejoin="miter" fill="none" stroke="#000000" d="M0 0H36.362V-36.362" />
<path transform="matrix(1,0,0,-1,1552.121,900.6869)" stroke-width="3" stroke-linecap="butt" stroke-miterlimit="10" stroke-linejoin="miter" fill="none" stroke="#000000" d="M0 0 36.362 36.362" />
</g>
<g clip-path="url(#clip_10)">
<image x="1635" y="450" width="377" height="476" xlink:href="assets/image-06-8214e1fbdb6a.png" />
</g>
<g clip-path="url(#clip_11)">
<path transform="matrix(1,0,0,-1,1922.8004,882.499)" stroke-width="3" stroke-linecap="butt" stroke-miterlimit="10" stroke-linejoin="miter" fill="none" stroke="#000000" d="M0 0C0 23.844 19.329 43.174 43.174 43.174 67.018 43.174 86.347 23.844 86.347 0 86.347-23.844 67.018-43.174 43.174-43.174 19.329-43.174 0-23.844 0 0Z" />
<path transform="matrix(1,0,0,-1,1947.7217,864.3246)" stroke-width="3" stroke-linecap="butt" stroke-miterlimit="10" stroke-linejoin="miter" fill="none" stroke="#000000" d="M0 0H36.362V-36.362" />
<path transform="matrix(1,0,0,-1,1947.7217,900.6869)" stroke-width="3" stroke-linecap="butt" stroke-miterlimit="10" stroke-linejoin="miter" fill="none" stroke="#000000" d="M0 0 36.362 36.362" />
</g>
<g clip-path="url(#clip_12)">
<image x="2030" y="450" width="378" height="476" xlink:href="assets/image-07-738ce3a7f9a3.png" />
</g>
<g clip-path="url(#clip_13)">
<path transform="matrix(1,0,0,-1,2318.4012,882.499)" stroke-width="3" stroke-linecap="butt" stroke-miterlimit="10" stroke-linejoin="miter" fill="none" stroke="#000000" d="M0 0C0 23.844 19.33 43.174 43.174 43.174 67.018 43.174 86.347 23.844 86.347 0 86.347-23.844 67.018-43.174 43.174-43.174 19.33-43.174 0-23.844 0 0Z" />
<path transform="matrix(1,0,0,-1,2343.3226,864.3246)" stroke-width="3" stroke-linecap="butt" stroke-miterlimit="10" stroke-linejoin="miter" fill="none" stroke="#000000" d="M0 0H36.362V-36.362" />
<path transform="matrix(1,0,0,-1,2343.3226,900.6869)" stroke-width="3" stroke-linecap="butt" stroke-miterlimit="10" stroke-linejoin="miter" fill="none" stroke="#000000" d="M0 0 36.362 36.362" />
</g>
<g clip-path="url(#clip_14)">
<path transform="matrix(1,0,0,-1,0,2623.16)" d="M974.455 1843.969H957.905V1814.156H974.455ZM984.14 1815.299C983.562 1802.401 968.473 1803.748 958.879 1804.49 952.854 1804.956 948.427 1809.244 948.182 1815.495 947.827 1824.55 947.897 1833.517 948.148 1842.623 948.316 1848.704 952.425 1853.349 958.512 1853.713 963.689 1854.021 968.814 1854.046 973.981 1853.693 979.872 1853.291 983.96 1848.783 984.168 1842.88 984.493 1833.646 984.552 1824.518 984.14 1815.299" fill="#030303" />
<path transform="matrix(1,0,0,-1,1004.3431,814.36746)" d="M0 0-.21 30.603-3.181 29.073C-5.452 27.903-8.1 28.962-9.28 30.992-10.457 33.018-10.298 36.057-8.041 37.588-4.445 40.027-1.035 42.502 2.741 44.699 4.21 45.553 6.245 45.179 7.685 44.311 8.771 43.657 9.808 41.993 9.806 40.025L9.771 .411C9.769-2.293 7.466-4.243 5.239-4.494 3.039-4.742 .02-2.982 0 0" fill="#050505" />
<path transform="matrix(1,0,0,-1,928.2318,814.3258)" d="M0 0-.141 30.968C-2.642 28.78-5.679 27.726-8.195 29.772-10.35 31.526-10.862 35.481-8.076 37.464-4.541 39.979-1.059 42.345 2.658 44.609 4.092 45.481 6.137 45.169 7.576 44.364 8.745 43.709 9.835 42.027 9.833 40.031L9.797 .338C9.794-2.408 7.487-4.366 5.107-4.532 2.992-4.68 .013-2.952 0 0" fill="#020202" />
<path transform="matrix(1,0,0,-1,0,2623.16)" d="M898.368 1843.969H881.818V1814.156H898.368ZM908.083 1815.492C907.617 1802.436 892.373 1803.638 882.595 1804.519 876.758 1805.046 872.398 1809.22 872.131 1815.3 871.727 1824.51 871.779 1833.649 872.104 1842.876 872.312 1848.778 876.398 1853.286 882.292 1853.692 887.47 1854.048 892.565 1854.02 897.776 1853.713 903.547 1853.373 907.799 1849.036 908.055 1843.191 908.463 1833.911 908.415 1824.755 908.083 1815.492" fill="#030303" />
<path transform="matrix(1,0,0,-1,1004.2893,880.35769)" d="M0 0-.182 30.613C-3.031 28.352-5.786 27.676-8.047 29.446-10.255 31.175-10.866 35.029-8.329 37.006-4.909 39.671-1.262 41.792 2.322 44.226 3.933 45.321 5.981 45.033 7.46 44.223 8.909 43.43 9.867 41.751 9.864 39.7L9.809 .05C9.805-2.646 7.391-4.56 5.223-4.704 2.659-4.874 .017-2.88 0 0" fill="#050505" />
<path transform="matrix(1,0,0,-1,881.9411,880.6113)" d="M0 0-.342 30.801C-3.362 28.306-6.624 27.854-8.807 30.401-10.662 32.565-10.388 36.114-7.61 37.941L2.451 44.558C3.999 45.576 5.886 45.276 7.23 44.59 8.836 43.77 9.81 42.091 9.807 39.949L9.749 .276C9.745-2.431 7.343-4.352 4.978-4.461 2.932-4.555 .032-2.893 0 0" fill="#050505" />
<path transform="matrix(1,0,0,-1,0,2623.16)" d="M928.137 1777.883H911.58706V1747.9191H928.137ZM937.835 1749.114C937.295 1736.02 921.842 1737.523 912.01 1738.375 906.171 1738.88 902.087 1743.406 901.868 1749.319 901.531 1758.453 901.541 1767.505 901.866 1776.62 902.079 1782.613 906.177 1786.946 912.012 1787.469 917.283 1787.941 922.266 1787.903 927.563 1787.493 933.325 1787.048 937.606 1782.824 937.84 1776.813 938.2 1767.558 938.218 1758.412 937.835 1749.114" fill="#040404" />
<path transform="matrix(1,0,0,-1,0,2623.16)" d="M974.455 1777.883H957.905V1747.9191H974.455ZM975.55 1738.672C969.76 1737.61 964.506 1737.958 959.063 1738.256 953.055 1738.584 948.449 1742.877 948.201 1749.139 947.835 1758.379 947.838 1767.571 948.202 1776.817 948.436 1782.783 952.713 1787.092 958.489 1787.479 964.33 1787.87 969.931 1788.163 975.678 1787.143 980.568 1786.276 983.882 1782.047 984.122 1777.026 984.567 1767.717 984.494 1758.618 984.166 1749.302 983.987 1744.234 980.83 1739.64 975.55 1738.672" fill="#040404" />
<path transform="matrix(1,0,0,-1,1354.1947,872.1699)" d="M0 0C6.859 2.14 12.573 5.121 17.521 9.799 19.889 12.037 22.697 15.217 22.908 18.741 23.866 34.775 17.552 50.374 6.148 61.307-11.619 78.342-38.588 78.716-56.778 62.087-68.729 51.162-75.359 35.166-74.385 18.754-74.167 15.072-71.179 11.817-68.684 9.507-63.686 4.88-57.852 1.98-51.242-.065-34.682-5.189-16.848-5.256 0 0M32.703 18.363C31.785 4.251 14.792-5.544 2.756-9.344-15.782-15.197-35.689-15.191-54.225-9.337-62.34-6.774-69.544-3.096-75.627 2.636-79.969 6.726-83.715 11.947-84.161 18.121-85.185 32.311-80.912 45.888-73.443 57.731L-73.445 84.87C-78.012 86.958-80.259 91.422-79.283 96.035-78.354 100.422-74.452 103.579-69.96 103.693-65.363 103.81-61.406 100.63-60.36 96.641-59.018 91.526-61.428 87.043-66.089 84.729L-65.716 67.116C-43.18 89.901-7.921 89.7 14.378 66.997L14.601 84.732C10.134 86.967 7.687 91.208 8.759 96.181 9.633 100.232 13.455 103.609 18.058 103.694 22.548 103.777 26.581 100.808 27.703 96.465 28.923 91.738 26.697 87.023 21.97 84.87L21.971 57.732C29.321 46.035 33.638 32.736 32.703 18.363" fill="#ffffff" />
<path transform="matrix(1,0,0,-1,1352.8988,845.4851)" d="M0 0C0 3.373-2.734 6.108-6.108 6.108-9.481 6.108-12.215 3.373-12.215 0-12.215-3.373-9.481-6.108-6.108-6.108-2.734-6.108 0-3.373 0 0M-36.666-.004C-36.666 3.372-39.403 6.11-42.779 6.11-46.156 6.11-48.893 3.372-48.893-.004-48.893-3.38-46.156-6.118-42.779-6.118-39.403-6.118-36.666-3.38-36.666-.004M5.813-11.675C-10.964-17.357-35.371-17.066-51.85-12.646-55.295-11.457-58.372-10.475-60.942-7.522-61.454 3.004-59.221 13.829-53.806 23.227-34.465 16.682-14.422 16.691 4.933 23.208 10.189 13.95 12.624 3.337 12.002-7.186 11.109-9.502 8.018-10.605 5.813-11.675" fill="#ffffff" />
<path transform="matrix(1,0,0,-1,577.0915,845.7539)" d="M0 0C3.682 .833 5.431 3.943 5.263 6.995 5.105 9.841 3.172 12.574-.116 13.086ZM-89.845 13.108C-93.586 12.277-95.296 9.19-95.108 6.135-94.934 3.306-92.985 .522-89.732 .049ZM-23.615-35.344-24.836-29.181C-25.753-24.552-22.558-21.293-18.038-20.563-10.47-19.341-8.941-14.197-8.569-6.937-8.072 2.741-8.215 12.201-8.457 21.865-8.64 29.222-10.037 36.027-18.321 37.019-21.188 37.363-24.082 37.795-27.118 37.796L-62.73 37.801C-65.75 37.801-68.688 37.328-71.512 37.024-76.804 36.454-80.047 32.967-80.787 27.766-81.934 19.71-81.929-3.521-80.76-11.577-79.978-16.967-76.405-20.348-70.857-20.888-62.981-21.655-55.021-21.638-46.98-21.576-37.692-21.505-36.885-27.405-29.148-32.925-27.443-34.141-25.731-35.235-23.615-35.344M-16.452 63.639C-16.452 64.362-17.037 64.947-17.76 64.947-18.482 64.947-19.067 64.362-19.067 63.639-19.067 62.917-18.482 62.332-17.76 62.332-17.037 62.332-16.452 62.917-16.452 63.639M-70.784 63.638C-70.784 64.36-71.369 64.945-72.091 64.945-72.813 64.945-73.398 64.36-73.398 63.638-73.398 62.916-72.813 62.331-72.091 62.331-71.369 62.331-70.784 62.916-70.784 63.638M-16.683-28.608C-15.063-33.927-13.718-42.363-20.514-43.525-29.175-45.006-36.982-37.706-42.289-31.82-43.76-30.189-45.244-29.694-47.487-29.717-55.762-29.802-63.854-29.935-71.95-28.983-80.617-27.963-87.018-22.491-88.571-13.889-88.907-12.03-89.034-10.15-89.645-8.357-97.611-7.575-103.268-1.013-103.286 6.562-103.304 14.198-97.646 20.598-89.654 21.483-88.953 31.985-87.219 40.787-76.234 44.274L-76.172 55.024C-80.192 57.11-82.198 61.298-81.397 65.486-80.56 69.861-76.802 72.89-72.62 73.11-67.997 73.352-64.147 70.421-62.991 66.401-61.678 61.839-63.665 57.374-67.875 55.084-68.088 51.988-68.062 49.131-67.885 45.839L-21.952 45.85C-21.799 49.114-21.754 51.986-21.971 55.086-26.051 57.32-28.035 61.534-26.973 65.989-26.002 70.058-22.245 73.149-17.735 73.125-13.425 73.102-9.576 70.231-8.54 65.885-7.515 61.586-9.538 57.173-13.667 55.021L-13.711 44.363C-2.697 40.692-.986 32.459-.178 21.478 7.801 20.598 13.455 14.199 13.436 6.562 13.417-1.011 7.771-7.591-.232-8.358L-1.568-15.178C-3.038-22.683-9.075-27.489-16.683-28.608" />
<path transform="matrix(1,0,0,-1,542.327,844.91128)" d="M0 0C2.093 1.915 4.628 2.196 6.375 .337 8.073-1.468 7.732-4.108 5.726-5.937-3.129-14.017-17.192-14.021-26.042-5.936-28.044-4.107-28.415-1.459-26.69 .349-24.974 2.149-22.402 1.927-20.462 .113-14.942-5.05-5.742-5.254 0 0" />
<path transform="matrix(1,0,0,-1,521.338,825.593)" d="M0 0C0-3.004-2.435-5.439-5.439-5.439-8.443-5.439-10.878-3.004-10.878 0-10.878 3.004-8.443 5.439-5.439 5.439-2.435 5.439 0 3.004 0 0" />
<path transform="matrix(1,0,0,-1,553.92,825.5929)" d="M0 0C0-3.004-2.435-5.439-5.439-5.439-8.443-5.439-10.878-3.004-10.878 0-10.878 3.004-8.443 5.439-5.439 5.439-2.435 5.439 0 3.004 0 0" />
<path transform="matrix(1,0,0,-1,1771.1476,869.9169)" d="M0 0C0 3.724-3.019 6.744-6.744 6.744-10.468 6.744-13.487 3.724-13.487 0-13.487-3.724-10.468-6.744-6.744-6.744-3.019-6.744 0-3.724 0 0M-43.245 .001C-43.245 3.726-46.265 6.745-49.99 6.745-53.715 6.745-56.734 3.726-56.734 .001-56.734-3.724-53.715-6.744-49.99-6.744-46.265-6.744-43.245-3.724-43.245 .001M-21.042 4.055C-19.486 9.253-15.935 12.682-10.896 14.292L-10.895 29.033C-16.097 30.599-19.465 34.368-21.099 39.243L-35.618 39.265C-37.298 34.195-40.878 30.505-45.935 28.958L-45.843 14.301C-40.734 12.736-37.213 9.064-35.643 4.046ZM.013 43.313C.013 47.043-3.011 50.067-6.741 50.067-10.471 50.067-13.495 47.043-13.495 43.313-13.495 39.582-10.471 36.558-6.741 36.558-3.011 36.558 .013 39.582 .013 43.313M-43.236 43.309C-43.236 47.038-46.26 50.061-49.989 50.061-53.718 50.061-56.741 47.038-56.741 43.309-56.741 39.579-53.718 36.556-49.989 36.556-46.26 36.556-43.236 39.579-43.236 43.309M-86.483 43.313C-86.483 47.043-89.506 50.067-93.236 50.067-96.966 50.067-99.99 47.043-99.99 43.313-99.99 39.583-96.966 36.559-93.236 36.559-89.506 36.559-86.483 39.583-86.483 43.313M-64.305 47.436C-62.609 52.734-58.956 56.072-54.054 57.657L-54.055 72.292C-59.152 73.781-62.683 77.515-64.289 82.479L-78.914 82.551C-80.511 77.362-84.198 73.899-89.188 72.17L-89.109 57.656C-84.124 56.02-80.525 52.545-78.928 47.472ZM-43.243 86.613C-43.243 90.338-46.262 93.357-49.987 93.357-53.711 93.357-56.73 90.338-56.73 86.613-56.73 82.889-53.711 79.87-49.987 79.87-46.262 79.87-43.243 82.889-43.243 86.613M-86.491 86.606C-86.491 90.33-89.51 93.349-93.234 93.349-96.958 93.349-99.978 90.33-99.978 86.606-99.978 82.882-96.958 79.862-93.234 79.862-89.51 79.862-86.491 82.882-86.491 86.606M-2.718 14.381C4.452 12.178 8.638 5.703 8.058-1.258 7.475-8.25 1.934-13.906-4.727-14.755-12.195-15.708-18.798-11.26-21.052-4.109L-35.707-4.171C-37.923-11.157-44.254-15.416-51.261-14.835-58.237-14.257-63.913-8.692-64.73-1.776-65.574 5.367-61.374 12.089-54.141 14.302L-54.041 28.941C-58.935 30.507-62.604 33.95-64.239 39.071L-78.945 39.132C-81.154 32.152-87.655 27.752-94.732 28.472-101.58 29.168-107.147 34.644-107.983 41.518-108.849 48.635-104.587 55.406-97.385 57.602L-97.239 72.165C-104.02 74.336-108.463 80.545-108.078 87.433-107.672 94.686-102.097 100.47-95.27 101.317-87.78 102.246-81.208 97.973-78.875 90.715L-64.289 90.737C-62.14 97.819-55.719 101.94-48.714 101.395-41.684 100.849-36.023 95.319-35.237 88.37-34.427 81.206-38.708 74.452-45.909 72.272L-45.925 57.653C-41.011 56.109-37.34 52.688-35.718 47.508L-21.049 47.496C-18.838 54.517-12.307 58.819-5.24 58.111 1.629 57.423 7.18 52.006 8.004 45.156 8.864 37.996 4.572 31.188-2.607 28.984Z" fill="#ffffff" />
<path transform="matrix(1,0,0,-1,0,2623.16)" d="M2091.285 1794.26H2077.3179V1746.732H2091.285ZM2147.104 1746.787 2147.071 1807.301C2146.774 1810.023 2146.773 1812.478 2145.238 1814.63 2143.111 1816.156 2140.387 1816.489 2137.691 1816.49L2109.067 1816.492C2106.368 1816.492 2103.656 1816.144 2101.518 1814.628 2099.981 1812.478 2099.986 1810.024 2099.683 1807.303L2099.677 1746.756ZM2155.504 1746.797 2169.434 1746.774 2169.4 1826.126C2169.399 1829.805 2167.85 1832.053 2164.718 1833.651L2133.258 1849.705 2133.176 1825.092C2137.15 1824.836 2140.719 1824.966 2144.318 1824.078 2153.564 1822.043 2155.441 1814.328 2155.449 1805.741ZM2068.992 1794.528C2069.02 1806.371 2084.249 1801.5 2091.267 1802.789 2091.18 1812.057 2091.888 1821.549 2101.975 1823.997 2105.188 1824.777 2108.462 1824.961 2111.866 1824.988L2124.663 1825.087 2124.932 1850.78C2124.961 1853.536 2126.258 1856.081 2128.169 1857.344 2130.402 1858.82 2133.506 1858.897 2136.108 1857.573L2168.917 1840.879C2174.548 1838.014 2177.717 1833.164 2177.728 1826.664L2177.865 1746.862C2181.028 1746.996 2183.039 1745.601 2183.334 1743.157 2183.588 1741.058 2182.054 1738.391 2179.286 1738.39L2067.973 1738.355C2065.172 1738.354 2063.373 1740.375 2063.394 1742.721 2063.419 1745.337 2065.554 1747.061 2068.879 1746.846Z" fill="#ffffff" />
<path transform="matrix(1,0,0,-1,2129.328,828.9254)" d="M0 0-11.651 .062C-14.128 .075-15.802 2.29-15.695 4.448-15.583 6.725-13.72 8.411-11.196 8.411H-.702C1.644 8.411 3.433 6.934 3.747 4.887 4.09 2.651 2.653 .518 0 0" fill="#ffffff" />
<path transform="matrix(1,0,0,-1,2129.3277,845.67459)" d="M0 0-11.651 .062C-14.128 .075-15.802 2.29-15.695 4.448-15.583 6.725-13.72 8.411-11.195 8.411H-.702C1.644 8.411 3.435 6.934 3.748 4.888 4.09 2.651 2.653 .518 0 0" fill="#ffffff" />
<path transform="matrix(1,0,0,-1,2129.328,862.4237)" d="M0 0-11.651 .062C-14.128 .075-15.802 2.29-15.695 4.448-15.583 6.725-13.72 8.411-11.196 8.411H-.702C1.644 8.411 3.433 6.934 3.747 4.887 4.09 2.651 2.653 .518 0 0" fill="#ffffff" />
</g>
<g clip-path="url(#clip_15)">
<image x="480" y="1822" width="1775" height="272" xlink:href="assets/image-08-ee957ab7fcaf.png" />
</g>
<g clip-path="url(#clip_16)">
<path transform="matrix(1,0,0,-1,2205.7313,1821.763)" d="M0 0C-27.363 0-49.545-22.182-49.545-49.546-49.545-76.909-27.363-99.091 0-99.091 27.363-99.091 49.546-76.909 49.546-49.546 49.546-22.182 27.363 0 0 0M0-3C25.666-3 46.546-23.88 46.546-49.546 46.546-75.211 25.666-96.091 0-96.091-25.665-96.091-46.545-75.211-46.545-49.546-46.545-23.88-25.665-3 0-3" fill="#333333" />
<path transform="matrix(1,0,0,-1,2184.867,1850.4439)" stroke-width="3" stroke-linecap="round" stroke-linejoin="round" fill="none" stroke="#333333" d="M0 0H41.729V-41.729" />
<path transform="matrix(1,0,0,-1,2184.867,1892.1729)" stroke-width="3" stroke-linecap="round" stroke-linejoin="round" fill="none" stroke="#333333" d="M0 0 41.729 41.729" />
</g>
<g clip-path="url(#clip_17)">
<g mask="url(#mask_18)">
<image x="1184" y="1874" width="352" height="226" xlink:href="assets/image-09-e62586df04a0.png" />
</g>
</g>
<g clip-path="url(#clip_20)">
<image x="480" y="2122" width="1775" height="272" xlink:href="assets/image-10-08be4d3f5db1.png" />
</g>
<g clip-path="url(#clip_21)">
<path transform="matrix(1,0,0,-1,2205.7313,2121.0533)" d="M0 0C-27.363 0-49.545-22.182-49.545-49.545-49.545-76.909-27.363-99.091 0-99.091 27.363-99.091 49.546-76.909 49.546-49.545 49.546-22.182 27.363 0 0 0M0-3C25.666-3 46.546-23.88 46.546-49.545 46.546-75.211 25.666-96.091 0-96.091-25.665-96.091-46.545-75.211-46.545-49.545-46.545-23.88-25.665-3 0-3" fill="#333333" />
<path transform="matrix(1,0,0,-1,2184.867,2149.7342)" stroke-width="3" stroke-linecap="round" stroke-linejoin="round" fill="none" stroke="#333333" d="M0 0H41.729V-41.729" />
<path transform="matrix(1,0,0,-1,2184.867,2191.4632)" stroke-width="3" stroke-linecap="round" stroke-linejoin="round" fill="none" stroke="#333333" d="M0 0 41.729 41.729" />
</g>
<g clip-path="url(#clip_22)">
<g mask="url(#mask_23)">
<image x="1184" y="2189" width="352" height="226" xlink:href="assets/image-11-d6ca73f970da.png" />
</g>
</g>
</g>
</g>
</svg>