<?xml version='1.0' encoding='utf-8'?>
<svg xmlns="http://www.w3.org/2000/svg" xmlns:ns1="http://www.inkscape.org/namespaces/inkscape" version="1.1" width="1920" height="1080" viewBox="0 0 1920 1080">
<defs>
<clipPath id="clip_1">
<path transform="matrix(1,0,0,-1,0,1080)" d="M1616.87 0H1920V694.5H1616.87Z" />
</clipPath>
<clipPath id="clip_2">
<path transform="matrix(1,0,0,-1,0,1080)" d="M0 1080H1920V0H0Z" />
</clipPath>
<clipPath id="clip_3">
<path transform="matrix(1,0,0,-1,0,1080)" d="M0 1080H1920V0H0Z" />
</clipPath>
<clipPath id="clip_4">
<path transform="matrix(1,0,0,-1,0,1080)" d="M0 1080H1920V0H0Z" />
</clipPath>
<clipPath id="clip_5">
<path transform="matrix(1,0,0,-1,0,1080)" d="M0 1080H1920V0H0Z" />
</clipPath>
</defs>
<g>
<g ns1:groupmode="layer" ns1:label="Layer 1">
</g>
<g ns1:groupmode="layer" ns1:label="Layer 2">
<g clip-path="url(#clip_1)">
<g ns1:groupmode="layer" ns1:label="Page18">
</g>
<g ns1:groupmode="layer" ns1:label="Page17">
</g>
<g ns1:groupmode="layer" ns1:label="Page 16">
</g>
<g ns1:groupmode="layer" ns1:label="Page 15">
</g>
<g ns1:groupmode="layer" ns1:label="Page 14">
</g>
<g ns1:groupmode="layer" ns1:label="Page 13">
</g>
<g ns1:groupmode="layer" ns1:label="Page 12">
</g>
<g ns1:groupmode="layer" ns1:label="Page 11">
</g>
<g ns1:groupmode="layer" ns1:label="Page 10">
</g>
<g ns1:groupmode="layer" ns1:label="Page 9">
</g>
<g ns1:groupmode="layer" ns1:label="Page7">
</g>
<g ns1:groupmode="layer" ns1:label="Page 8">
</g>
</g>
</g>
<g ns1:groupmode="layer" ns1:label="7">
<path transform="matrix(1,0,0,-1,0,1080)" d="M0 0H1920V1080H0Z" fill="#f2f2f2" />
<text xml:space="preserve" transform="matrix(1 0 -0 1 0 1080)" font-size="20" font-family="ProximaNova-Semibold" font-weight="bold"><tspan y="-72.209" x="76.708 91.604007 103.284008 115.106 126.786 138.806 143.946 155.76201 170.24202 184.87003 190.09001 201.93202 213.24004 227.72005 241.97405 247.18805">©2026 SUN.STUDIO</tspan></text>
<text xml:space="preserve" transform="matrix(1 0 -0 1 0 1080)" font-size="20" font-family="ProximaNova-Regular"><tspan y="-72.209" x="262.488 267.648 280.90403 290.88606 301.08607 306.24607 318.44209 323.22209 337.6601 351.7621 362.98408 374.70408 379.86408 392.02409 403.40409 415.17008 426.55009 438.50209 451.7581 463.1381"> ALL RIGHTS RESERVED</tspan></text>
<text xml:space="preserve" transform="matrix(1 0 -0 1 0 1080)" font-size="20" font-family="ProximaNova-Semibold" font-weight="bold"><tspan y="-72.209" x="1834.5881">9</tspan></text>
<g clip-path="url(#clip_2)">
<path transform="matrix(1,0,0,-1,1654.73,112.28)" d="M0 0V-8.33C0-8.69 .31-8.98 .693-8.98H8.02C8.4-8.98 8.71-8.69 8.71-8.33V2.58C8.71 3.08 8.29 3.22 7.94 3.06 5.5 2 2.59 1.18 .644 .697 .26 .601 0 .32 0 0" />
<path transform="matrix(1,0,0,-1,1675.12,110.27)" d="M0 0C-.828-.776-2.05-1.72-3.5-1.72-4.89-1.72-5.96-.4-6.6 .4-6.81 .66-7.37 .498-7.37 .046V-10.34C-7.37-10.71-7.06-11-6.67-11H.655C1.04-11 1.35-10.71 1.35-10.34V.163C1.35 .669 .844 .812 .577 .576 .391 .412 .156 .146 0 0" />
<path transform="matrix(1,0,0,-1,1688.58,89.36)" d="M0 0C-1.73-3.26-4.65-6.98-7.4-9.16-7.66-9.37-7.81-9.73-7.81-10.03V-31.25C-7.81-31.65-7.5-31.91-7.12-31.91H.214C.597-31.91 .907-31.66 .907-31.25V-.178C.902 .301 .232 .438 0 0" />
<path transform="matrix(1,0,0,-1,1678.87,88.2)" d="M0 0C-1.83 .072-3.25 1.61-3.17 3.44-3.1 5.27-1.56 6.69 .265 6.62 2.09 6.54 3.51 5 3.44 3.18 3.37 1.35 1.83-.073 0 0M6.35 11.04C.214 10.99-6.8 7.28-11.02 2.96-14.49 2.96-20.89 1.97-23.19-.92-23.67-1.52-23.48-2.32-22.78-2.63-22.12-2.92-18.26-3.8-18.11-3.98-18.47-4.71-18.46-5.05-17.99-5.7-17.94-5.78-17.88-5.85-17.82-5.93-17.62-5.91-17.41-5.89-17.2-5.89H-17.11C-14.76-5.92-12.7-7.28-11.72-9.44-11.19-10.61-11.05-11.87-11.27-13.06-11.03-13.34-10.8-13.62-10.58-13.91-10.11-14.42-9.57-14.3-8.99-14.1-8.57-15.55-8.58-17.56-8.07-18.94-7.8-19.68-7.01-19.85-6.36-19.46-5.98-19.23-5.03-18.07-4.73-17.66-2.64-14.85-1.74-11.21-1.38-7.77 3.37-4.06 7.8 2.59 8.47 8.7 8.7 10.8 8.47 11.06 6.35 11.04" fill="#ff5533" />
<path transform="matrix(1,0,0,-1,1661.74,95.54)" d="M0 0C-3.46 .045-4.62-3.22-5.72-5.88-6.17-6.96-7.09-9.07-7.26-10.13-7.34-10.62-7.15-11.06-6.74-11.31-6.22-11.62-5.83-11.39-5.29-11.26-3.22-10.76 2.1-9.13 3.42-7.58 5.91-4.66 3.87-.05 0 0" fill="#ff5533" />
<path transform="matrix(1,0,0,-1,1714.19,85.5)" d="M0 0H-3.61V-4.4H0C1.34-4.4 2.34-3.54 2.34-2.2 2.34-.884 1.34 0 0 0M-7-13.02V2.92H.454C3.92 2.92 5.81 .573 5.81-2.22 5.81-5 3.9-7.31 .454-7.31H-3.61V-13.02Z" />
<path transform="matrix(1,0,0,-1,1724.02,91.67)" d="M0 0H5.69C5.62 1.1 4.85 2.56 2.84 2.56 .956 2.56 .144 1.15 0 0M2.84 4.97C6.29 4.97 8.63 2.39 8.63-1.39V-2.06H.047C.239-3.51 1.41-4.73 3.37-4.73 4.45-4.73 5.71-4.3 6.45-3.58L7.79-5.54C6.62-6.62 4.83-7.14 3.04-7.14-.478-7.14-3.13-4.78-3.13-1.07-3.13 2.27-.669 4.97 2.84 4.97" />
<path transform="matrix(1,0,0,-1,1734.84,98.53)" d="M0 0V11.54H3.04V9.96C3.85 10.99 5.28 11.8 6.71 11.8V8.84C6.5 8.89 6.21 8.91 5.88 8.91 4.88 8.91 3.54 8.36 3.04 7.62V0Z" />
<path transform="matrix(1,0,0,-1,1747.18,89.64)" d="M0 0V-8.89H-3.06V0H-4.97V2.65H-3.06V3.27C-3.06 5.78-1.43 7.29 .836 7.29 1.7 7.29 2.48 7.1 3.04 6.81L2.41 4.66C2.15 4.83 1.79 4.9 1.43 4.9 .573 4.9 0 4.33 0 3.23V2.65H2.34V0Z" />
<path transform="matrix(1,0,0,-1,1759.58,92.74)" d="M0 0C0 1.79-1.07 3.35-2.96 3.35-4.85 3.35-5.9 1.79-5.9 0-5.9-1.82-4.85-3.37-2.96-3.37-1.07-3.37 0-1.82 0 0M-9.06 0C-9.06 3.27-6.76 6.05-2.96 6.05 .86 6.05 3.15 3.27 3.15 0 3.15-3.3 .86-6.07-2.96-6.07-6.76-6.07-9.06-3.3-9.06 0" />
<path transform="matrix(1,0,0,-1,1764.98,98.53)" d="M0 0V11.54H3.04V9.96C3.85 10.99 5.28 11.8 6.71 11.8V8.84C6.5 8.89 6.21 8.91 5.88 8.91 4.88 8.91 3.54 8.36 3.04 7.62V0Z" />
<path transform="matrix(1,0,0,-1,1787.9,98.53)" d="M0 0V7.29C0 8.36-.478 9.13-1.72 9.13-2.8 9.13-3.68 8.41-4.11 7.79V0H-7.17V7.29C-7.17 8.36-7.65 9.13-8.89 9.13-9.94 9.13-10.82 8.41-11.28 7.77V0H-14.31V11.54H-11.28V10.04C-10.8 10.73-9.27 11.83-7.5 11.83-5.81 11.83-4.73 11.04-4.3 9.73-3.63 10.78-2.1 11.83-.335 11.83 1.79 11.83 3.06 10.71 3.06 8.34V0Z" />
<path transform="matrix(1,0,0,-1,1800.88,94.32)" d="M0 0C-.501 .669-1.46 1-2.44 1-3.63 1-4.61 .358-4.61-.741-4.61-1.82-3.63-2.44-2.44-2.44-1.46-2.44-.501-2.1 0-1.43ZM0-4.21V-3.01C-.788-3.94-2.15-4.49-3.66-4.49-5.5-4.49-7.67-3.25-7.67-.669-7.67 2.03-5.5 3.01-3.66 3.01-2.13 3.01-.764 2.53 0 1.6V3.2C0 4.37-1 5.14-2.53 5.14-3.78 5.14-4.92 4.68-5.9 3.78L-7.05 5.81C-5.64 7.05-3.82 7.62-2.01 7.62 .621 7.62 3.04 6.57 3.04 3.25V-4.21Z" />
<path transform="matrix(1,0,0,-1,1814.72,98.53)" d="M0 0V6.98C0 8.58-.837 9.13-2.13 9.13-3.32 9.13-4.25 8.46-4.76 7.77V0H-7.79V11.54H-4.76V10.04C-4.01 10.92-2.6 11.83-.717 11.83 1.82 11.83 3.04 10.39 3.04 8.15V0Z" />
<path transform="matrix(1,0,0,-1,1826.14,86.7)" d="M0 0C2.37 0 3.8-1.03 4.56-2.1L2.58-3.94C2.03-3.15 1.19-2.7 .143-2.7-1.7-2.7-2.99-4.04-2.99-6.05-2.99-8.05-1.7-9.41 .143-9.41 1.19-9.41 2.03-8.94 2.58-8.17L4.56-10.01C3.8-11.09 2.37-12.12 0-12.12-3.56-12.12-6.12-9.61-6.12-6.05-6.12-2.51-3.56 0 0 0" />
<path transform="matrix(1,0,0,-1,1835.08,91.67)" d="M0 0H5.69C5.62 1.1 4.85 2.56 2.84 2.56 .956 2.56 .143 1.15 0 0M2.84 4.97C6.29 4.97 8.63 2.39 8.63-1.39V-2.06H.047C.239-3.51 1.41-4.73 3.37-4.73 4.45-4.73 5.71-4.3 6.45-3.58L7.79-5.54C6.62-6.62 4.83-7.14 3.04-7.14-.478-7.14-3.13-4.78-3.13-1.07-3.13 2.27-.669 4.97 2.84 4.97" />
<path transform="matrix(1,0,0,-1,1714.15,108.11)" d="M0 0H-3.56V-4.4H0C1.36-4.4 2.39-3.54 2.39-2.2 2.39-.86 1.36 0 0 0M2.06-13.02-1.07-7.31H-3.56V-13.02H-6.95V2.92H.502C3.82 2.92 5.86 .741 5.86-2.22 5.86-5.04 4.09-6.55 2.37-6.95L5.95-13.02Z" />
<path transform="matrix(1,0,0,-1,1724.16,114.28)" d="M0 0H5.69C5.62 1.1 4.85 2.56 2.84 2.56 .956 2.56 .143 1.15 0 0M2.84 4.97C6.29 4.97 8.63 2.39 8.63-1.39V-2.06H.047C.239-3.51 1.41-4.73 3.37-4.73 4.45-4.73 5.71-4.3 6.45-3.58L7.79-5.54C6.62-6.62 4.83-7.14 3.04-7.14-.478-7.14-3.13-4.78-3.13-1.07-3.13 2.27-.669 4.97 2.84 4.97" />
<path transform="matrix(1,0,0,-1,1737.97,121.13)" d="M0 0-4.64 11.54H-1.39L1.62 3.51 4.64 11.54H7.91L3.27 0Z" />
<path transform="matrix(1,0,0,-1,0,1080)" d="M1747.25 970.41H1750.28V958.87H1747.25ZM1746.94 973.92C1746.94 974.92 1747.77 975.74 1748.75 975.74 1749.76 975.74 1750.57 974.92 1750.57 973.92 1750.57 972.92 1749.76 972.1 1748.75 972.1 1747.77 972.1 1746.94 972.92 1746.94 973.92" />
<path transform="matrix(1,0,0,-1,1755.68,114.28)" d="M0 0H5.69C5.62 1.1 4.85 2.56 2.84 2.56 .956 2.56 .143 1.15 0 0M2.84 4.97C6.29 4.97 8.63 2.39 8.63-1.39V-2.06H.047C.239-3.51 1.41-4.73 3.37-4.73 4.45-4.73 5.71-4.3 6.45-3.58L7.79-5.54C6.62-6.62 4.83-7.14 3.04-7.14-.478-7.14-3.13-4.78-3.13-1.07-3.13 2.27-.669 4.97 2.84 4.97" />
<path transform="matrix(1,0,0,-1,1776.64,121.13)" d="M0 0-2.44 7.86-4.88 0H-8.12L-11.64 11.54H-8.48L-6.33 3.78-3.8 11.54H-1.1L1.43 3.78 3.58 11.54H6.74L3.23 0Z" />
<path transform="matrix(1,0,0,-1,1790.63,121.13)" d="M0 0V2.68C6.52 7.48 8.44 9.13 8.44 11.09 8.44 12.47 7.17 13.17 5.83 13.17 4.04 13.17 2.65 12.45 1.58 11.33L-.358 13.57C1.2 15.37 3.56 16.18 5.78 16.18 9.18 16.18 11.88 14.27 11.88 11.09 11.88 8.36 9.63 6 5.35 2.99H12V0Z" />
<path transform="matrix(1,0,0,-1,1811.25,107.97)" d="M0 0C-2.29 0-3.15-2.27-3.15-5.21-3.15-8.15-2.29-10.44 0-10.44 2.27-10.44 3.13-8.15 3.13-5.21 3.13-2.27 2.27 0 0 0M0 3.01C4.54 3.01 6.6-1.1 6.6-5.21 6.6-9.32 4.54-13.45 0-13.45-4.56-13.45-6.6-9.32-6.6-5.21-6.6-1.1-4.56 3.01 0 3.01" />
<path transform="matrix(1,0,0,-1,1819.78,121.13)" d="M0 0V2.68C6.52 7.48 8.44 9.13 8.44 11.09 8.44 12.47 7.17 13.17 5.83 13.17 4.04 13.17 2.65 12.45 1.58 11.33L-.358 13.57C1.2 15.37 3.56 16.18 5.78 16.18 9.18 16.18 11.88 14.27 11.88 11.09 11.88 8.36 9.63 6 5.35 2.99H12V0Z" />
<path transform="matrix(1,0,0,-1,1836.04,116.74)" d="M0 0C1.1-1.12 2.58-1.72 4.25-1.72 6.14-1.72 7.22-.645 7.22 .669 7.22 2.13 6.17 3.11 4.35 3.11 3.04 3.11 1.96 2.7 1 1.79L-1.36 2.44V11.54H9.58V8.63H1.96V4.64C2.8 5.38 4.09 5.95 5.54 5.95 8.24 5.95 10.66 4.04 10.66 .812 10.66-2.56 8.12-4.68 4.28-4.68 1.5-4.68-.502-3.78-1.86-2.29Z" />
<path transform="matrix(1,0,0,-1,98.34,96.89)" d="M0 0C.288 7.21 6.36 12.82 13.56 12.53 15.48 12.46 17.28 11.97 18.89 11.17 23.33 8.94 26.3 4.26 26.08-1.03 25.8-8.24 19.72-13.85 12.52-13.57 7.91-13.38 3.95-10.82 1.77-7.12 .554-5.03-.104-2.59 0 0M28.7-13.49C30.3-11.56 31.52-9.33 32.3-6.95 32.89-5.17 33.22-3.3 33.3-1.42 33.67 7.85 27.76 15.91 19.37 18.66 17.62 19.23 15.78 19.57 13.85 19.65 13.43 19.67-2.25 19.66-9.08 19.65-9.99 19.65-10.42 18.6-9.9 17.95-9.85 17.89-4.87 14.13-4.81 14.06-4.31 13.41-4.75 12.39-5.65 12.38L-22.29 12.38C-22.79 12.38-23.15 12.06-23.28 11.67-23.41 11.28-23.32 10.81-22.93 10.51L-9.7 .398C-8.9-.211-9.34-1.49-10.35-1.47-11.11-1.47-16.36-1.45-16.46-1.48-17.2-1.66-17.51-2.67-16.95-3.27-7.3-13.79 .69-18.76 8.14-20.3 12.11-21.29 16.37-21.05 20.2-19.6 23.36-18.44 26.02-16.53 28.09-14.2 28.3-13.97 28.5-13.73 28.7-13.49" fill="#ff5533" />
<path transform="matrix(1,0,0,-1,111.73,95.37)" d="M0 0C.049 1.34 1.18 2.39 2.52 2.34 3.86 2.3 4.91 1.17 4.86-.176 4.81-1.52 3.69-2.57 2.34-2.52 .999-2.47-.049-1.34 0 0M7.25-2.06C7.42 2.09 4.2 5.58 .053 5.74-4.09 5.91-7.58 2.68-7.75-1.46-7.91-5.61-4.69-9.1-.547-9.26 3.6-9.43 7.09-6.2 7.25-2.06" fill="#ff5533" />
<path transform="matrix(1,0,0,-1,144.34,84)" d="M0 0C-1.95 .369-3.03 .685-3.03 1.61-3.03 2.37-2.45 2.98-.948 2.98 .605 2.98 2.53 2.37 4 1.16L6.48 4.4C4.61 6 2.16 6.84-.658 6.84-5.16 6.84-7.66 4.29-7.66 1.34-7.66-2.82-3.61-3.55-.711-4.13 1.16-4.53 2.29-4.92 2.29-5.92 2.29-6.77 1.34-7.42-.21-7.42-2.61-7.42-4.55-6.37-5.82-5.11L-8.21-8.5C-6.45-10.19-3.98-11.29-.421-11.29 4.29-11.29 6.9-8.95 6.9-5.42 6.9-1.45 2.9-.605 0 0" fill="#ff5533" />
<path transform="matrix(1,0,0,-1,160.91,95.36)" d="M0 0C5.66 0 8.17 4.02 8.17 8.39V17.88H3.49V7.9C3.49 5.82 2.4 4 0 4-2.43 4-3.52 5.82-3.52 7.9V17.88H-8.2V8.36C-8.2 4.04-5.66 0 0 0" fill="#ff5533" />
<path transform="matrix(1,0,0,-1,180.62,117.41)" d="M0 0C5.66 0 8.17 4.02 8.17 8.39V17.88H3.49V7.9C3.49 5.82 2.4 4 0 4-2.43 4-3.52 5.82-3.52 7.9V17.88H-8.2V8.36C-8.2 4.04-5.66 0 0 0" fill="#ff5533" />
<path transform="matrix(1,0,0,-1,177.1,84.49)" d="M0 0 7.67-10.7H11.69V7.01H7.02V-3.19L-.284 7.01H-4.68V-10.7H0Z" fill="#ff5533" />
<path transform="matrix(1,0,0,-1,144.34,106.21)" d="M0 0C-1.95 .368-3.03 .685-3.03 1.61-3.03 2.37-2.45 2.98-.948 2.98 .605 2.98 2.53 2.37 4 1.16L6.48 4.4C4.61 6 2.16 6.84-.658 6.84-5.16 6.84-7.66 4.29-7.66 1.34-7.66-2.82-3.61-3.55-.711-4.13 1.16-4.53 2.29-4.92 2.29-5.92 2.29-6.77 1.34-7.42-.21-7.42-2.61-7.42-4.55-6.37-5.82-5.11L-8.21-8.5C-6.45-10.19-3.98-11.29-.421-11.29 4.29-11.29 6.9-8.95 6.9-5.42 6.9-1.45 2.9-.605 0 0" fill="#ff5533" />
<path transform="matrix(1,0,0,-1,152.71,103.54)" d="M0 0H6.01V-13.7H10.69V0H16.37V4.01H0Z" fill="#ff5533" />
<path transform="matrix(1,0,0,-1,199.33,113.23)" d="M0 0H-2.85V9.69H.026C3.25 9.69 4.88 7.58 4.88 4.86 4.88 2.24 3.09 0 0 0M-.095 13.7H-7.53V-4.01H-.069C5.48-4.01 9.49-.637 9.49 4.86 9.49 10.35 5.48 13.7-.095 13.7" fill="#ff5533" />
<path transform="matrix(1,0,0,-1,0,1080)" d="M211.51 962.76H216.19V980.46H211.51Z" fill="#ff5533" />
<path transform="matrix(1,0,0,-1,194.27,95.27)" d="M0 0C1.4 0 2.53 1.13 2.53 2.53 2.53 3.93 1.4 5.06 0 5.06-1.4 5.06-2.53 3.93-2.53 2.53-2.53 1.13-1.4 0 0 0" fill="#ff5533" />
<path transform="matrix(1,0,0,-1,227.84,113.26)" d="M0 0C-2.68 0-4.86 2.17-4.86 4.86-4.86 7.54-2.68 9.71 0 9.71 2.68 9.71 4.85 7.54 4.85 4.86 4.85 2.17 2.68 0 0 0M0 13.96C-5.03 13.96-9.11 9.88-9.11 4.86-9.11-.174-5.03-4.25 0-4.25 5.03-4.25 9.11-.174 9.11 4.86 9.11 9.88 5.03 13.96 0 13.96" fill="#ff5533" />
</g>
<text fill="#333333" xml:space="preserve" transform="matrix(1 0 -0 .99619188 0 1080)" font-size="60.229364" font-family="ProximaNova-Extrabld"><tspan y="-881.91317" x="272.98475 299.9073 316.16923 352.4273 367.84605 409.8259 427.41288 442.8316 479.08366 519.13619 565.27188 580.6906 619.4181 664.0481 706.02798 723.61489">1.3 VÌ SAO PHẢI </tspan><tspan y="-809.6379" x="272.98475 316.22944 358.20933 402.77906 447.40904 462.82774 506.37358 523.9605 565.94039 581.3591 622.5619 664.54177 679.96047 736.3352 780.96517 819.2108 854.6859 870.1046 909.4344 951.41427 966.83297 1011.46298 1056.3939 1112.7687">ĐÁNH GIÁ CẢ WHAT VÀ HOW?</tspan></text>
<text fill="#ff5533" xml:space="preserve" transform="matrix(1 0 -0 .99619188 0 1080)" font-size="80.30582" font-family="ProximaNova-Extrabld"><tspan y="-695.86679" x="371.45304 446.61927 506.12593 557.1201">WHAT</tspan></text>
<g clip-path="url(#clip_3)">
<path transform="matrix(1,0,0,-1,579.81,655.07)" d="M0 0H-180.51C-201.38 0-218.3 16.92-218.3 37.79V143.6C-218.3 164.47-201.38 181.39-180.51 181.39H0C20.87 181.39 37.79 164.47 37.79 143.6V37.79C37.79 16.92 20.87 0 0 0" fill="#ff5533" />
</g>
<text fill="#4d4d4d" xml:space="preserve" transform="matrix(1 0 -0 1 0 1080)" font-size="24" font-family="ProximaNova-Medium"><tspan y="-646.4072" x="278.4229 294.17173 307.0285 320.6845 327.11653 341.0797 353.95573 361.53974 367.97175 381.90855 394.75575 408.72373 415.15574 428.63896 442.11015 447.73335 461.22373 474.87974 481.31175 499.28776 505.71977 516.995 530.963 537.395 549.1863 563.1183 568.95028 575.38229 595.16067 608.74948 620.89346 627.32546 634.87106 640.4918 653.98226 666.56307">Bạn đạt bao nhiêu % so với mục tiêu?</tspan></text>
<text fill="#ffffff" xml:space="preserve" transform="matrix(1 0 -0 1 0 1080)" font-size="26" font-family="ProximaNova-Extrabld"><tspan y="-549.2441" x="400.6602 418.6522 433.6282 440.2842 452.73823 467.71424 474.37025 489.52046 504.75904 511.67503 518.331 533.5618 548.8862 563.0432 578.46127">Cơ sở ghi nhận </tspan><tspan y="-513.2341" x="415.97419 431.19978 446.04579 461.38838 476.72837 483.38438 498.59437 513.44039 528.7804 535.4364 548.8368 563.1628">đóng góp và </tspan><tspan y="-477.22407" x="408.59019 417.96058 432.9626 447.89179 463.2344 478.57444 485.23045 494.67106 509.91749 524.9195 539.8513 555.1939">tưởng thưởng</tspan></text>
<text fill="#3333ff" xml:space="preserve" transform="matrix(1 0 -0 .99619188 0 1080)" font-size="80.30582" font-family="ProximaNova-Extrabld"><tspan y="-695.86776" x="1170.7444 1230.251 1290.1592">HOW</tspan></text>
<text fill="#4d4d4d" xml:space="preserve" transform="matrix(1 0 -0 1 0 1080)" font-size="24" font-family="ProximaNova-Medium"><tspan y="-660.1357" x="984.7822 1000.531 1013.3878 1027.0438 1033.4758 1039.1375 1051.9535 1071.8735 1078.3056 1090.5215 1096.1831 1109.8272 1121.9712 1128.4032 1135.9464 1149.4657 1163.0714 1177.0394 1183.4714 1197.4778 1210.973 1224.521 1238.609 1245.041 1258.5842 1270.7522 1277.1842 1288.9754 1302.8641 1316.4121 1330.5001 1336.9321 1348.8434 1362.4107 1375.4187 1381.8507 1393.8723 1406.6716 1412.5037 1418.9357 1426.4812 1434.5404 1448.5084 1454.9404 1468.4236 1480.99 1493.158 1499.59 1511.5156 1525.0205 1538.6765 1550.4318 1561.7118">Bạn làm việc theo đúng kỳ vọng của vai trò này chưa? </tspan><tspan y="-631.3357" x="914.1502 930.6646 944.6326 951.06466 958.6102 972.1702 985.8502 992.2822 999.8278 1013.3206 1026.1414 1039.6245 1053.3046 1059.7366 1071.451 1085.2991 1098.847 1112.935 1119.3671 1133.4214 1146.9934 1160.6494 1167.0814 1179.3358 1193.2534 1206.8014 1220.8894 1227.3214 1239.343 1252.3511 1258.7831 1272.7896 1286.2824 1299.1176 1306.7015 1313.1336 1320.6791 1328.8607 1334.5176 1348.092 1361.748 1368.18 1373.8417 1386.617 1400.273 1406.705 1420.6705 1433.4699 1439.3019 1445.7339 1453.3179 1466.158 1471.99 1478.422 1492.7356 1510.1404 1527.7971 1534.0659 1548.4252 1562.1675 1579.5747 1596.7948 1603.078 1621.0516">Có thể thành công bền vững và phát triển lâu dài tại SUN.STUDIO?</tspan></text>
<g clip-path="url(#clip_4)">
<path transform="matrix(1,0,0,-1,1090.54,652.73)" d="M0 0H-180.51C-201.38 0-218.3 16.92-218.3 37.79V141.25C-218.3 162.12-201.38 179.04-180.51 179.04H0C20.87 179.04 37.79 162.12 37.79 141.25V37.79C37.79 16.92 20.87 0 0 0" fill="#3333ff" />
<path transform="matrix(1,0,0,-1,1368.14,652.73)" d="M0 0H-180.51C-201.38 0-218.3 16.92-218.3 37.79V141.25C-218.3 162.12-201.38 179.04-180.51 179.04H0C20.87 179.04 37.79 162.12 37.79 141.25V37.79C37.79 16.92 20.87 0 0 0" fill="#3333ff" />
<path transform="matrix(1,0,0,-1,1645.75,652.73)" d="M0 0H-180.51C-201.38 0-218.3 16.92-218.3 37.79V141.25C-218.3 162.12-201.38 179.04-180.51 179.04H0C20.87 179.04 37.79 162.12 37.79 141.25V37.79C37.79 16.92 20.87 0 0 0" fill="#3333ff" />
</g>
<text fill="#ffffff" xml:space="preserve" transform="matrix(1 0 -0 1 0 1080)" font-size="26" font-family="ProximaNova-Extrabld"><tspan y="-567.957" x="953.0957 972.3253 979.0515 993.1981 1008.59017 1015.24618 1024.8506 1039.8265">Hiểu rõ </tspan><tspan y="-543.959" x="952.1597 967.39578 974.12197 988.3153 1003.73336 1010.38937 1019.7493 1033.8466">hiện tại</tspan><tspan y="-567.957" x="1243.9838 1261.9757 1276.9517 1283.6077 1296.0617 1311.0376">Cơ sở </tspan><tspan y="-543.959" x="1216.5537 1225.9943 1241.3186 1255.4757 1270.8182 1286.1582 1292.8142 1302.2651 1308.9913 1323.0834">thăng tiến</tspan><tspan y="-567.957" x="1496.1577 1512.231 1526.479 1533.135 1548.4594 1563.2793 1577.4494 1590.1841 1605.6306">Kế hoạch </tspan><tspan y="-543.959" x="1492.9857 1508.2737 1523.5851 1537.6226 1546.9826 1553.6386 1563.0922 1572.46 1579.1862 1593.3822">phát triển</tspan></text>
<text fill="#ffffff" xml:space="preserve" transform="matrix(1 0 -0 1 0 1080)" font-size="18" font-family="ProximaNova-Regular"><tspan y="-492.5283" x="905.2061 916.8557 926.48037 936.57839 941.40237 951.8585 961.4525 971.50558 982.0176 986.84158 990.9887 1000.5827 1015.3067 1020.1307 1025.383 1035.769 1041.2411 1046.0651 1055.0093 1064.5745 1068.8045 1073.6284 1079.1635 1085.0729 1095.5488">Bạn đang làm tốt vai trò </tspan><tspan y="-470.92829" x="912.64016 922.68417 926.8332 937.1166 947.2146 952.03866 957.57907 967.17306 971.4031 976.2271 986.60238 996.84439 1006.9424 1011.7664 1026.4419 1036.5723 1045.6622 1050.4862 1060.4708 1070.0648 1079.6102">hiện tại đến mức nào?</tspan><tspan y="-492.5283" x="1203.5922 1214.736 1225.2407 1229.4707 1234.2947 1243.2407 1252.8059 1257.0359 1261.8599 1267.3949 1273.3043 1283.7803 1288.6043 1298.641 1302.7918 1313.0734 1323.1714 1327.9954 1333.5322 1343.1316 1347.2986 1351.6185">Với vai trò hiện tại, </tspan><tspan y="-470.92829" x="1161.8322 1172.3118 1181.9364 1192.0344 1196.8584 1202.3934 1212.468 1222.782 1227.606 1237.6409 1241.7916 1252.0733 1262.1713 1266.9953 1277.0285 1286.6206 1296.6448 1306.7608 1311.5847 1320.6928 1324.9227 1329.7467 1338.6909 1348.3569 1353.1809 1363.1979 1372.8225 1382.8792 1393.3911">bạn thể hiện hành vi và năng </tspan><tspan y="-449.32829" x="1165.3422 1169.511 1179.6414 1188.7313 1193.5553 1202.6615 1212.2537 1222.7296 1227.5536 1237.6282 1248.1401 1258.2382 1263.0621 1273.1799 1282.1799 1287.0039 1295.788 1306.2532 1316.308 1326.82 1331.6439 1341.0759 1351.1163 1361.5509 1371.6057 1381.3923">lực cao hơn kỳ vọng không?</tspan><tspan y="-492.5283" x="1445.3322 1456.9817 1466.6063 1476.7044 1481.5283 1490.6669 1500.2933 1510.3914 1515.2153 1525.7273 1535.7587 1545.3707 1550.8428 1555.6668 1561.2018 1567.2732 1571.4221 1581.7037 1591.8018 1596.6257 1602.1608 1612.2029 1622.452 1637.176 1642 1652.4544 1656.6843">Bạn cần phát triển thêm gì </tspan><tspan y="-470.92829" x="1449.7062 1460.0833 1470.3972 1475.2212 1485.7098 1495.3543 1500.8263 1505.6503 1509.8389 1519.9153 1528.6506 1538.9214 1543.1514 1547.9754 1558.0103 1562.161 1572.4426 1582.5407 1587.3646 1592.9033 1602.501 1606.731 1611.5549 1617.063 1621.887 1627.4202 1631.5691 1641.8075 1652.3195">để đạt level hiện tại / tiếp </tspan><tspan y="-449.32829" x="1529.0502 1534.5852 1544.6275 1554.9127 1564.4528">theo?</tspan></text>
<text fill="#4d4d4d" xml:space="preserve" transform="matrix(1 0 -0 1 0 1080)" font-size="18" font-family="ProximaNova-Bold" font-weight="bold"><tspan y="-369.15629" x="880.0781 893.4791 907.16458 923.8685 928.65658 939.3486 949.8768 959.7084 970.31039 975.0984 984.9156 995.388 1006.008 1010.796 1017.1104 1021.731 1032.2034 1042.8234 1047.6113 1058.0729 1068.6749 1073.4629 1084.3043 1088.9286 1099.4028 1110.0228">HOW phản ánh tính ổn định </tspan><tspan y="-347.55628" x="880.0781 889.3985 899.3525 904.1405 910.3127 920.6609 925.3949 930.1829 940.8317 951.4337 956.22177 966.7067 971.3057 981.3443 991.9463 996.7343 1007.31478 1017.85739 1027.8114 1032.5994 1038.912 1045.4424 1055.8932 1066.4214 1077.1314 1081.9193 1091.0597 1100.8805 1109.8733 1120.4933">và tối ưu hiệu quả trong cách </tspan><tspan y="-325.95628" x="880.0781 884.71316 894.52316 910.0391 914.8271 924.2663 928.8563 938.9903 948.2135">làm việc.</tspan><tspan y="-274.29627" x="880.0781 892.44418 902.92379 913.45376 924.16378 928.9518 944.40658 954.8934 961.15737 965.9454 975.3216 985.43759 991.70156 996.48959 1007.07 1017.6144 1027.5684 1032.3563 1049.0477 1062.429 1073.56 1082.7473">Cùng một kết quả WHAT:</tspan></text>
<text fill="#4d4d4d" xml:space="preserve" transform="matrix(1 0 -0 1 0 1080)" font-size="18" font-family="ProximaNova-Regular"><tspan y="-252.69626" x="880.0781 898.0781 910.4387 920.91476 925.7387 935.7935 946.2623 956.29739 966.8022 971.03219 975.85617 980.0051 989.59738 1004.32138 1009.1453 1019.6231 1029.6544 1039.7092 1050.2212 1055.0452 1064.1514 1073.686 1082.6806 1092.7731 1097.093 1101.917 1106.741 1111.565 1116.3889">•Có người làm đúng cách,     </tspan><tspan y="-231.09626" x="898.0781 906.89456 917.37057 922.1945 930.6635 940.76156 945.5855 949.7669 959.39157 969.90359 974.72756 978.90896 988.50656">có sự lặp lại</tspan><tspan y="-209.49625" x="880.0781 898.0781 910.4387 920.91476 925.7387 935.7935 946.2623 956.29739 966.8022 971.03219 975.85617 980.0051 989.59738 1004.32138 1009.1453 1019.6555 1029.6906 1040.2205 1049.3104 1054.1344 1060.4164 1065.2404 1069.3821 1079.0067 1089.1047">•Có người làm được 1 lần </tspan><tspan y="-187.89624" x="898.0781 908.10238 918.1518 928.54507 938.59988 949.1119 953.93588 960.04147 970.1125 974.34249 979.16647 985.07589 995.5519 1000.37588 1009.48208 1019.0743 1029.2227 1033.5426 1038.3666 1047.7986 1057.8407 1068.3167 1073.1406 1083.5968 1093.8029 1102.8029 1107.6268 1113.1619 1119.2351">nhưng rủi ro cao, khó duy trì</tspan></text>
<text fill="#4d4d4d" xml:space="preserve" transform="matrix(1 0 -0 1 0 1080)" font-size="18" font-family="ProximaNova-Bold" font-weight="bold"><tspan y="-366.76225" x="1166.3142 1179.7152 1193.4005 1210.1045 1214.8925 1225.5845 1236.0497 1246.6517 1251.4397 1261.9679 1272.4799 1283.1898 1287.9778 1294.0798 1298.8678 1308.3196 1318.6823 1329.4408 1335.7048 1340.4928 1349.8816 1359.7421 1368.8428 1378.9246 1383.6586">HOW phù hợp / vượt Level </tspan><tspan y="-345.16224" x="1166.3142 1177.1358 1186.3589 1197.0689 1207.1921 1216.6404 1222.9044 1232.7216 1239.0018 1243.5864 1254.0354 1264.6375 1269.4254 1274.0604 1284.0144 1288.8024 1297.6655 1308.1775 1312.9655 1321.6522 1332.1642 1336.9522 1347.61 1357.4415 1368.0436 1372.8316 1381.6821 1392.1941">Expectation là cơ sở bạn có </tspan><tspan y="-323.56224" x="1166.3142 1172.6287 1183.1587 1193.2927 1198.0807 1206.8305 1216.662 1227.264 1232.052 1240.7892 1250.6063 1261.1364 1271.8463 1276.6343 1285.6253 1296.1427 1306.6547 1311.4426 1320.763 1330.5603 1335.2943 1340.0823 1346.3967 1352.9254 1363.4374">thể sẵn sàng cho vai trò </tspan><tspan y="-301.96223" x="1166.3142 1170.9618 1181.4738 1192.0758 1196.8638 1207.3938 1217.9058 1228.4539">lớn hơn.</tspan><tspan y="-271.90223" x="1166.3142 1178.6802 1189.1598 1199.6898 1210.3998 1215.1878 1230.6426 1241.1294 1247.3934 1252.1814 1261.5576 1271.6737 1277.9378 1282.7257 1293.306 1303.8505 1313.8045 1318.5924 1335.2838 1348.665 1359.7962 1368.9834">Cùng một kết quả WHAT:</tspan></text>
<text fill="#4d4d4d" xml:space="preserve" transform="matrix(1 0 -0 1 0 1080)" font-size="18" font-family="ProximaNova-Regular"><tspan y="-250.30222" x="1166.3142 1184.3142 1196.6748 1207.1508 1211.9747 1222.0296 1232.4983 1242.5333 1253.0381 1257.2681 1262.092 1266.241 1275.8331 1290.5571 1295.3811 1300.9161 1306.8256 1317.2583 1327.3563 1332.1803 1341.1245 1350.6915">•Có người làm tròn vai</tspan><tspan y="-228.70221" x="1166.3142 1184.3142 1196.6748 1207.1508 1211.9747 1222.0296 1232.4983 1242.5333 1253.0381 1257.2681 1262.092 1272.5484 1282.2144 1287.0383 1295.9321 1306.0302 1310.8541 1315.1741 1324.1741 1328.998 1338.1061 1342.255 1352.569 1361.6589">•Có người đã xử lý việc </tspan><tspan y="-207.1022" x="1184.3142 1194.8262 1204.8755 1215.0059 1224.0958 1228.9198 1234.4585 1244.0831 1254.5951 1259.4191 1269.4937 1280.0056 1290.0802 1294.4002 1299.2241 1304.7645 1314.3892 1324.8651 1329.6891 1339.3137 1349.3379 1359.4539">phức tạp hơn, tạo ảnh </tspan><tspan y="-185.5022" x="1184.3142 1194.3635 1204.3949 1214.9069 1224.9689 1235.4808 1240.3048 1246.2448 1256.7098 1266.7719 1277.2857 1282.1096 1292.1896 1302.7015">hưởng rộng hơn</tspan></text>
<text fill="#4d4d4d" xml:space="preserve" transform="matrix(1 0 -0 1 0 1080)" font-size="18" font-family="ProximaNova-Bold" font-weight="bold"><tspan y="-366.7622" x="1434.0642 1447.4652 1461.1505 1477.8545 1482.6425 1493.239 1497.8092 1508.2888 1518.9988 1523.7868 1534.4446 1544.2744 1554.8765 1559.6644 1568.6788 1578.2728 1587.6868 1592.4747 1603.0858 1613.7725 1624.3025 1635.0125 1639.8004 1649.1785 1659.3125">HOW giúp bạn xây dựng kế </tspan><tspan y="-345.1622" x="1434.0642 1444.5817 1455.0397 1464.873 1473.8659 1484.4841 1489.2721 1499.9641 1510.4816 1520.297 1526.5609 1531.3489 1537.6614 1544.136 1548.7333 1558.8042 1569.3522">hoạch phát triển.</tspan><tspan y="-271.9022" x="1434.0642 1446.4302 1456.9098 1467.4417 1478.1516 1482.9396 1493.4155 1503.7782 1514.2902 1524.8202 1535.5302 1540.3181 1550.823 1560.8202 1571.4223 1576.2102 1591.6614 1602.1499 1608.414 1613.2019 1622.5781 1632.6942 1638.9583 1643.7462 1654.3284 1664.8693 1674.546">Cùng hướng đến một kết quả:</tspan></text>
<text fill="#4d4d4d" xml:space="preserve" transform="matrix(1 0 -0 1 0 1080)" font-size="18" font-family="ProximaNova-Regular"><tspan y="-250.30219" x="1434.0642 1452.0642 1464.4248 1474.9008 1479.7247 1489.7796 1500.2483 1510.2833 1520.7881 1525.0181 1529.842 1538.9806 1548.6052 1558.7033 1563.5272 1573.5839 1583.9968 1588.2268 1593.0508 1603.507 1613.5366 1623.5933 1634.1052 1638.9292 1649.0038 1659.4797 1668.5697">•Có người cần nội dung học </tspan><tspan y="-228.70218" x="1452.0642 1457.6029 1467.2276 1477.7395 1482.5635 1491.9955 1502.0376 1512.4703 1522.5252 1533.0371 1537.8611 1542.01 1551.6022 1561.7002 1566.5242 1581.1834 1590.7755 1600.8735 1605.6975 1614.4653 1624.7793">tập không lan man về </tspan><tspan y="-207.10218" x="1452.0642 1461.0642 1471.0902 1481.2963 1490.0317 1500.2809 1510.3789 1515.2029 1529.8711 1540.3038">chuyên môn</tspan><tspan y="-185.50217" x="1434.0642 1452.0642 1464.4248 1474.9008 1479.7247 1489.7796 1500.2483 1510.2833 1520.7881 1525.0181 1529.842 1538.9806 1548.6052 1558.7033 1563.5272 1572.6658 1582.2634 1586.4934 1591.3174 1596.8524 1606.8892 1611.0399 1621.3215 1631.4196 1636.2435 1646.2767 1655.8689 1665.8931 1676.009">•Có người cần cải thiện hành </tspan><tspan y="-163.90216" x="1452.0642 1461.1723 1465.4022 1470.2262 1480.2683 1490.6848 1500.3095 1509.3994 1514.2234 1523.6554 1533.721 1543.387 1548.2109 1558.2279 1567.8526 1577.9092 1588.4212 1593.2451 1603.7554 1613.38 1623.478 1628.302 1638.8123 1648.4585">vi hoặc khả năng dẫn dắt</tspan></text>
<g clip-path="url(#clip_5)">
<path transform="matrix(1,0,0,-1,1103.09,932.51)" stroke-width="1" stroke-linecap="butt" stroke-miterlimit="10" stroke-linejoin="miter" fill="none" stroke="#4d4d4d" d="M0 0H-205.72C-219.66 0-230.96 11.3-230.96 25.24V223.63C-230.96 237.57-219.66 248.87-205.72 248.87H0C13.94 248.87 25.24 237.57 25.24 223.63V25.24C25.24 11.3 13.94 0 0 0Z" />
<path transform="matrix(1,0,0,-1,1380.75,932.51)" stroke-width="1" stroke-linecap="butt" stroke-miterlimit="10" stroke-linejoin="miter" fill="none" stroke="#4d4d4d" d="M0 0H-205.72C-219.66 0-230.96 11.3-230.96 25.24V223.63C-230.96 237.57-219.66 248.87-205.72 248.87H0C13.94 248.87 25.24 237.57 25.24 223.63V25.24C25.24 11.3 13.94 0 0 0Z" />
<path transform="matrix(1,0,0,-1,1658.41,932.51)" stroke-width="1" stroke-linecap="butt" stroke-miterlimit="10" stroke-linejoin="miter" fill="none" stroke="#4d4d4d" d="M0 0H-205.72C-219.66 0-230.96 11.3-230.96 25.24V223.63C-230.96 237.57-219.66 248.87-205.72 248.87H0C13.94 248.87 25.24 237.57 25.24 223.63V25.24C25.24 11.3 13.94 0 0 0Z" />
<g ns1:groupmode="layer" ns1:label="Layer 31">
</g>
<g ns1:groupmode="layer" ns1:label="8">
</g>
<g ns1:groupmode="layer" ns1:label="Page 5">
</g>
<g ns1:groupmode="layer" ns1:label="Page 3">
</g>
<g ns1:groupmode="layer" ns1:label="Page 2">
</g>
<g ns1:groupmode="layer" ns1:label="Page 1">
</g>
</g>
</g>
<g ns1:groupmode="layer" ns1:label="bleed">
</g>
<g ns1:groupmode="layer" ns1:label="Layer 8">
</g>
</g>
</svg>