<?xml version='1.0' encoding='utf-8'?>
<svg xmlns="http://www.w3.org/2000/svg" xmlns:ns2="http://www.inkscape.org/namespaces/inkscape" xmlns:xlink="http://www.w3.org/1999/xlink" version="1.1" width="1920" height="1080" viewBox="0 0 1920 1080">
<defs>
<clipPath id="clip_1">
<path transform="matrix(1,0,0,-1,0,1080)" d="M0 1080H1920V0H0Z" />
</clipPath>
<clipPath id="clip_2">
<path transform="matrix(1,0,0,-1,0,1080)" d="M-11.48-7.9H1936.21V1088.82H-11.48Z" />
</clipPath>
<clipPath id="clip_3">
<path transform="matrix(1,0,0,-1,0,1080)" d="M200.91 691.43C184.76 691.43 171.67 678.34 171.67 662.19V486.07C171.67 469.92 184.76 456.83 200.91 456.83H872.69C888.84 456.83 901.93 469.92 901.93 486.07V662.19C901.93 678.34 888.84 691.43 872.69 691.43Z" />
</clipPath>
<mask id="mask_4">
<g transform="matrix(.43699698,0,0,.436997,56.78,387.91)">
<image id="image_5" width="1934" height="549" xlink:href="assets/image-01-6bb696c88927.jpg" />
</g>
</mask>
<clipPath id="clip_7">
<path transform="matrix(1,0,0,-1,0,1080)" d="M0 1080H1920V0H0Z" />
</clipPath>
<clipPath id="clip_8">
<path transform="matrix(1,0,0,-1,0,1080)" d="M1049.44 691.43C1033.3 691.43 1020.21 678.34 1020.21 662.19V486.07C1020.21 469.92 1033.3 456.83 1049.44 456.83H1721.22C1737.29 456.83 1750.34 469.8 1750.46 485.85V662.42C1750.34 678.46 1737.29 691.43 1721.22 691.43Z" />
</clipPath>
<mask id="mask_9">
<g transform="matrix(1.16,0,0,1.16,1020.2,377.78)">
<image id="image_10" width="632" height="240" xlink:href="assets/image-02-673f24e0e95f.jpg" />
</g>
</mask>
<clipPath id="clip_12">
<path transform="matrix(1,0,0,-1,0,1080)" d="M0 1080H1920V0H0Z" />
</clipPath>
</defs>
<g>
<g ns2:groupmode="layer" ns2:label="Layer 1">
</g>
<g ns2:groupmode="layer" ns2:label="Layer 2">
</g>
<g ns2:groupmode="layer" ns2:label="Page18">
</g>
<g ns2:groupmode="layer" ns2:label="Page17">
</g>
<g ns2:groupmode="layer" ns2:label="Page 16">
</g>
<g ns2:groupmode="layer" ns2:label="Page 15">
</g>
<g ns2:groupmode="layer" ns2:label="Page 14">
<g clip-path="url(#clip_1)">
<g opacity=".699997">
<g clip-path="url(#clip_2)">
<path transform="matrix(1,0,0,-1,0,1080)" d="M1936.21-7.9H-11.48V1088.82H1936.21Z" fill="#f2f2f2" />
</g>
</g>
<path transform="matrix(1,0,0,-1,869.17,866.04)" d="M0 0C-14.12 0-25.57 11.45-25.57 25.57-25.57 39.69-14.12 51.14 0 51.14 14.12 51.14 25.57 39.69 25.57 25.57 25.57 11.45 14.12 0 0 0M18.26 575.07H-684.74C-701.82 575.07-715.66 561.23-715.66 544.15V6.65C-715.66-10.43-701.82-24.28-684.74-24.28H18.26C35.34-24.28 49.18-10.43 49.18 6.65V544.15C49.18 561.23 35.34 575.07 18.26 575.07" fill="#b3b3b3" />
<path transform="matrix(1,0,0,-1,874.17,866.8)" d="M0 0C-14.26 0-25.83 11.56-25.83 25.83-25.83 40.09-14.26 51.65 0 51.65 14.26 51.65 25.83 40.09 25.83 25.83 25.83 11.56 14.26 0 0 0M18.44 580.83H-691.6C-708.85 580.83-722.83 566.85-722.83 549.6V6.71C-722.83-10.54-708.85-24.52-691.6-24.52H18.44C35.69-24.52 49.68-10.54 49.68 6.71V549.6C49.68 566.85 35.69 580.83 18.44 580.83" fill="#97e342" />
</g>
<g clip-path="url(#clip_3)">
<g mask="url(#mask_4)">
<g transform="matrix(.43699698,0,0,.436997,56.78,387.91)">
<image id="image_6" width="1934" height="549" xlink:href="assets/image-03-7e81d60d1077.jpg" />
</g>
</g>
</g>
<g clip-path="url(#clip_7)">
<path transform="matrix(1,0,0,-1,1717.71,866.04)" d="M0 0C-14.12 0-25.57 11.45-25.57 25.57-25.57 39.69-14.12 51.14 0 51.14 14.12 51.14 25.57 39.69 25.57 25.57 25.57 11.45 14.12 0 0 0M18.26 575.07H-684.74C-701.82 575.07-715.66 561.23-715.66 544.15V6.65C-715.66-10.43-701.82-24.28-684.74-24.28H18.26C35.34-24.28 49.18-10.43 49.18 6.65V544.15C49.18 561.23 35.34 575.07 18.26 575.07" fill="#b3b3b3" />
<path transform="matrix(1,0,0,-1,1722.7,866.8)" d="M0 0C-14.26 0-25.83 11.56-25.83 25.83-25.83 40.09-14.26 51.65 0 51.65 14.26 51.65 25.83 40.09 25.83 25.83 25.83 11.56 14.26 0 0 0M18.44 580.83H-691.6C-708.85 580.83-722.83 566.85-722.83 549.6V6.71C-722.83-10.54-708.85-24.52-691.6-24.52H18.44C35.69-24.52 49.68-10.54 49.68 6.71V549.6C49.68 566.85 35.69 580.83 18.44 580.83" fill="#97e342" />
<path transform="matrix(1,0,0,-1,1721.22,623.17)" d="M0 0H-671.78C-687.93 0-701.02 13.09-701.02 29.24V205.36C-701.02 221.51-687.93 234.6-671.78 234.6H0C16.15 234.6 29.24 221.51 29.24 205.36V29.24C29.24 13.09 16.15 0 0 0" fill="#ffffff" />
</g>
<g clip-path="url(#clip_8)">
<g mask="url(#mask_9)">
<g transform="matrix(1.16,0,0,1.16,1020.2,377.78)">
<image id="image_11" width="632" height="240" xlink:href="assets/image-04-d18eb79d4752.jpg" />
</g>
</g>
</g>
<g clip-path="url(#clip_12)">
<path transform="matrix(1,0,0,-1,1653.11,110.28)" d="M0 0V-8.33C0-8.69 .31-8.98 .693-8.98H8.02C8.4-8.98 8.71-8.69 8.71-8.33V2.58C8.71 3.08 8.29 3.22 7.94 3.06 5.5 2 2.59 1.18 .644 .697 .26 .601 0 .32 0 0" />
<path transform="matrix(1,0,0,-1,1673.5,108.26)" d="M0 0C-.828-.775-2.05-1.72-3.5-1.72-4.89-1.72-5.96-.4-6.6 .4-6.81 .66-7.37 .498-7.37 .046V-10.34C-7.37-10.71-7.06-11-6.67-11H.655C1.04-11 1.35-10.71 1.35-10.34V.163C1.35 .669 .844 .812 .577 .576 .391 .412 .156 .146 0 0" />
<path transform="matrix(1,0,0,-1,1686.96,87.35)" d="M0 0C-1.73-3.26-4.65-6.98-7.4-9.16-7.66-9.37-7.81-9.73-7.81-10.03V-31.25C-7.81-31.65-7.5-31.91-7.12-31.91H.214C.597-31.91 .907-31.66 .907-31.25V-.178C.902 .301 .232 .438 0 0" />
<path transform="matrix(1,0,0,-1,1677.26,86.19)" d="M0 0C-1.83 .073-3.25 1.61-3.17 3.44-3.1 5.27-1.56 6.69 .265 6.62 2.09 6.54 3.51 5 3.44 3.18 3.37 1.35 1.83-.073 0 0M6.35 11.04C.214 10.99-6.8 7.28-11.02 2.96-14.49 2.96-20.89 1.97-23.19-.92-23.67-1.52-23.48-2.32-22.78-2.63-22.12-2.92-18.26-3.8-18.11-3.98-18.47-4.71-18.46-5.05-17.99-5.7-17.94-5.78-17.88-5.85-17.82-5.93-17.62-5.91-17.41-5.89-17.2-5.89H-17.11C-14.76-5.92-12.7-7.28-11.72-9.44-11.19-10.61-11.05-11.87-11.27-13.06-11.03-13.34-10.8-13.62-10.58-13.91-10.11-14.42-9.57-14.3-8.99-14.1-8.57-15.55-8.58-17.56-8.07-18.94-7.8-19.68-7.01-19.85-6.36-19.46-5.98-19.23-5.03-18.07-4.73-17.66-2.64-14.85-1.74-11.21-1.38-7.77 3.37-4.06 7.8 2.59 8.47 8.7 8.7 10.8 8.47 11.06 6.35 11.04" fill="#ff5533" />
<path transform="matrix(1,0,0,-1,1660.13,93.54)" d="M0 0C-3.46 .045-4.62-3.22-5.72-5.88-6.17-6.96-7.09-9.07-7.26-10.13-7.34-10.62-7.15-11.06-6.74-11.31-6.22-11.62-5.83-11.39-5.29-11.26-3.22-10.76 2.1-9.13 3.42-7.58 5.91-4.66 3.87-.05 0 0" fill="#ff5533" />
<path transform="matrix(1,0,0,-1,1712.58,83.5)" d="M0 0H-3.61V-4.4H0C1.34-4.4 2.34-3.54 2.34-2.2 2.34-.884 1.34 0 0 0M-7-13.02V2.92H.454C3.92 2.92 5.81 .573 5.81-2.22 5.81-5 3.9-7.31 .454-7.31H-3.61V-13.02Z" />
<path transform="matrix(1,0,0,-1,1722.4,89.66)" d="M0 0H5.69C5.62 1.1 4.85 2.56 2.84 2.56 .956 2.56 .143 1.15 0 0M2.84 4.97C6.29 4.97 8.63 2.39 8.63-1.39V-2.06H.047C.239-3.51 1.41-4.73 3.37-4.73 4.45-4.73 5.71-4.3 6.45-3.58L7.79-5.54C6.62-6.62 4.83-7.14 3.04-7.14-.478-7.14-3.13-4.78-3.13-1.07-3.13 2.27-.669 4.97 2.84 4.97" />
<path transform="matrix(1,0,0,-1,1733.23,96.52)" d="M0 0V11.54H3.04V9.96C3.85 10.99 5.28 11.8 6.71 11.8V8.84C6.5 8.89 6.21 8.91 5.88 8.91 4.88 8.91 3.54 8.36 3.04 7.62V0Z" />
<path transform="matrix(1,0,0,-1,1745.56,87.63)" d="M0 0V-8.89H-3.06V0H-4.97V2.65H-3.06V3.27C-3.06 5.78-1.43 7.29 .836 7.29 1.7 7.29 2.48 7.1 3.04 6.81L2.41 4.66C2.15 4.83 1.79 4.9 1.43 4.9 .573 4.9 0 4.33 0 3.23V2.65H2.34V0Z" />
<path transform="matrix(1,0,0,-1,1757.97,90.74)" d="M0 0C0 1.79-1.07 3.35-2.96 3.35-4.85 3.35-5.9 1.79-5.9 0-5.9-1.82-4.85-3.37-2.96-3.37-1.07-3.37 0-1.82 0 0M-9.06 0C-9.06 3.27-6.76 6.05-2.96 6.05 .86 6.05 3.15 3.27 3.15 0 3.15-3.3 .86-6.07-2.96-6.07-6.76-6.07-9.06-3.3-9.06 0" />
<path transform="matrix(1,0,0,-1,1763.37,96.52)" d="M0 0V11.54H3.04V9.96C3.85 10.99 5.28 11.8 6.71 11.8V8.84C6.5 8.89 6.21 8.91 5.88 8.91 4.88 8.91 3.54 8.36 3.04 7.62V0Z" />
<path transform="matrix(1,0,0,-1,1786.29,96.52)" d="M0 0V7.29C0 8.36-.478 9.13-1.72 9.13-2.8 9.13-3.68 8.41-4.11 7.79V0H-7.17V7.29C-7.17 8.36-7.65 9.13-8.89 9.13-9.94 9.13-10.82 8.41-11.28 7.77V0H-14.31V11.54H-11.28V10.04C-10.8 10.73-9.27 11.83-7.5 11.83-5.81 11.83-4.73 11.04-4.3 9.73-3.63 10.78-2.1 11.83-.335 11.83 1.79 11.83 3.06 10.71 3.06 8.34V0Z" />
<path transform="matrix(1,0,0,-1,1799.27,92.32)" d="M0 0C-.501 .669-1.46 1-2.44 1-3.63 1-4.61 .358-4.61-.741-4.61-1.82-3.63-2.44-2.44-2.44-1.46-2.44-.501-2.1 0-1.43ZM0-4.21V-3.01C-.788-3.94-2.15-4.49-3.66-4.49-5.5-4.49-7.67-3.25-7.67-.669-7.67 2.03-5.5 3.01-3.66 3.01-2.13 3.01-.764 2.53 0 1.6V3.2C0 4.37-1 5.14-2.53 5.14-3.78 5.14-4.92 4.68-5.9 3.78L-7.05 5.81C-5.64 7.05-3.82 7.62-2.01 7.62 .622 7.62 3.04 6.57 3.04 3.25V-4.21Z" />
<path transform="matrix(1,0,0,-1,1813.1,96.52)" d="M0 0V6.98C0 8.58-.836 9.13-2.13 9.13-3.32 9.13-4.25 8.46-4.76 7.77V0H-7.79V11.54H-4.76V10.04C-4.01 10.92-2.6 11.83-.717 11.83 1.82 11.83 3.04 10.39 3.04 8.15V0Z" />
<path transform="matrix(1,0,0,-1,1824.53,84.69)" d="M0 0C2.37 0 3.8-1.03 4.56-2.1L2.58-3.94C2.03-3.15 1.19-2.7 .143-2.7-1.7-2.7-2.99-4.04-2.99-6.05-2.99-8.05-1.7-9.41 .143-9.41 1.19-9.41 2.03-8.94 2.58-8.17L4.56-10.01C3.8-11.09 2.37-12.12 0-12.12-3.56-12.12-6.12-9.61-6.12-6.05-6.12-2.51-3.56 0 0 0" />
<path transform="matrix(1,0,0,-1,1833.47,89.66)" d="M0 0H5.69C5.62 1.1 4.85 2.56 2.84 2.56 .956 2.56 .144 1.15 0 0M2.84 4.97C6.29 4.97 8.63 2.39 8.63-1.39V-2.06H.047C.239-3.51 1.41-4.73 3.37-4.73 4.45-4.73 5.71-4.3 6.45-3.58L7.79-5.54C6.62-6.62 4.83-7.14 3.04-7.14-.478-7.14-3.13-4.78-3.13-1.07-3.13 2.27-.669 4.97 2.84 4.97" />
<path transform="matrix(1,0,0,-1,1712.53,106.11)" d="M0 0H-3.56V-4.4H0C1.36-4.4 2.39-3.54 2.39-2.2 2.39-.86 1.36 0 0 0M2.06-13.02-1.07-7.31H-3.56V-13.02H-6.95V2.92H.502C3.82 2.92 5.86 .741 5.86-2.22 5.86-5.04 4.09-6.55 2.37-6.95L5.95-13.02Z" />
<path transform="matrix(1,0,0,-1,1722.55,112.27)" d="M0 0H5.69C5.62 1.1 4.85 2.56 2.84 2.56 .956 2.56 .144 1.15 0 0M2.84 4.97C6.29 4.97 8.63 2.39 8.63-1.39V-2.06H.047C.239-3.51 1.41-4.73 3.37-4.73 4.45-4.73 5.71-4.3 6.45-3.58L7.79-5.54C6.62-6.62 4.83-7.14 3.04-7.14-.478-7.14-3.13-4.78-3.13-1.07-3.13 2.27-.669 4.97 2.84 4.97" />
<path transform="matrix(1,0,0,-1,1736.36,119.13)" d="M0 0-4.64 11.54H-1.39L1.62 3.51 4.64 11.54H7.91L3.27 0Z" />
<path transform="matrix(1,0,0,-1,0,1080)" d="M1745.63 972.41H1748.67V960.87H1745.63ZM1745.32 975.92C1745.32 976.93 1746.16 977.74 1747.14 977.74 1748.14 977.74 1748.96 976.93 1748.96 975.92 1748.96 974.92 1748.14 974.11 1747.14 974.11 1746.16 974.11 1745.32 974.92 1745.32 975.92" />
<path transform="matrix(1,0,0,-1,1754.07,112.27)" d="M0 0H5.69C5.62 1.1 4.85 2.56 2.84 2.56 .956 2.56 .144 1.15 0 0M2.84 4.97C6.29 4.97 8.63 2.39 8.63-1.39V-2.06H.047C.239-3.51 1.41-4.73 3.37-4.73 4.45-4.73 5.71-4.3 6.45-3.58L7.79-5.54C6.62-6.62 4.83-7.14 3.04-7.14-.478-7.14-3.13-4.78-3.13-1.07-3.13 2.27-.669 4.97 2.84 4.97" />
<path transform="matrix(1,0,0,-1,1775.03,119.13)" d="M0 0-2.44 7.86-4.88 0H-8.12L-11.64 11.54H-8.48L-6.33 3.78-3.8 11.54H-1.1L1.43 3.78 3.58 11.54H6.74L3.23 0Z" />
<path transform="matrix(1,0,0,-1,1789.01,119.13)" d="M0 0V2.68C6.52 7.48 8.44 9.13 8.44 11.09 8.44 12.47 7.17 13.17 5.83 13.17 4.04 13.17 2.65 12.45 1.58 11.33L-.358 13.57C1.2 15.37 3.56 16.18 5.78 16.18 9.18 16.18 11.88 14.27 11.88 11.09 11.88 8.36 9.63 6 5.35 2.99H12V0Z" />
<path transform="matrix(1,0,0,-1,1809.64,105.96)" d="M0 0C-2.29 0-3.15-2.27-3.15-5.21-3.15-8.15-2.29-10.44 0-10.44 2.27-10.44 3.13-8.15 3.13-5.21 3.13-2.27 2.27 0 0 0M0 3.01C4.54 3.01 6.6-1.1 6.6-5.21 6.6-9.32 4.54-13.45 0-13.45-4.56-13.45-6.6-9.32-6.6-5.21-6.6-1.1-4.56 3.01 0 3.01" />
<path transform="matrix(1,0,0,-1,1818.17,119.13)" d="M0 0V2.68C6.52 7.48 8.44 9.13 8.44 11.09 8.44 12.47 7.17 13.17 5.83 13.17 4.04 13.17 2.65 12.45 1.58 11.33L-.359 13.57C1.2 15.37 3.56 16.18 5.78 16.18 9.18 16.18 11.88 14.27 11.88 11.09 11.88 8.36 9.63 6 5.35 2.99H12V0Z" />
<path transform="matrix(1,0,0,-1,1834.42,114.73)" d="M0 0C1.1-1.12 2.58-1.72 4.25-1.72 6.14-1.72 7.22-.645 7.22 .669 7.22 2.13 6.17 3.11 4.35 3.11 3.04 3.11 1.96 2.7 1 1.79L-1.36 2.44V11.54H9.58V8.63H1.96V4.64C2.8 5.38 4.09 5.95 5.54 5.95 8.24 5.95 10.66 4.04 10.66 .812 10.66-2.56 8.12-4.68 4.28-4.68 1.5-4.68-.502-3.78-1.86-2.29Z" />
<path transform="matrix(1,0,0,-1,98.34,96.89)" d="M0 0C.288 7.21 6.36 12.82 13.56 12.53 15.48 12.46 17.28 11.97 18.89 11.17 23.33 8.94 26.3 4.26 26.08-1.03 25.8-8.24 19.72-13.85 12.52-13.57 7.91-13.38 3.95-10.82 1.77-7.12 .554-5.03-.104-2.59 0 0M28.7-13.49C30.3-11.56 31.52-9.33 32.3-6.95 32.89-5.17 33.22-3.3 33.3-1.42 33.67 7.85 27.76 15.91 19.37 18.66 17.62 19.23 15.78 19.57 13.85 19.65 13.43 19.67-2.25 19.66-9.08 19.65-9.99 19.65-10.42 18.6-9.9 17.95-9.85 17.89-4.87 14.13-4.81 14.06-4.31 13.41-4.75 12.39-5.65 12.38L-22.29 12.38C-22.79 12.38-23.15 12.06-23.28 11.67-23.41 11.28-23.32 10.81-22.93 10.51L-9.7 .398C-8.9-.211-9.34-1.49-10.35-1.47-11.11-1.47-16.36-1.45-16.46-1.48-17.2-1.66-17.51-2.67-16.95-3.27-7.3-13.79 .69-18.76 8.14-20.3 12.11-21.29 16.37-21.05 20.2-19.6 23.36-18.44 26.02-16.53 28.09-14.2 28.3-13.97 28.5-13.73 28.7-13.49" fill="#ff5533" />
<path transform="matrix(1,0,0,-1,111.73,95.37)" d="M0 0C.049 1.34 1.18 2.39 2.52 2.34 3.86 2.3 4.91 1.17 4.86-.176 4.81-1.52 3.69-2.57 2.34-2.52 .999-2.47-.049-1.34 0 0M7.25-2.06C7.42 2.09 4.2 5.58 .053 5.74-4.09 5.91-7.58 2.68-7.75-1.46-7.91-5.61-4.69-9.1-.547-9.26 3.6-9.43 7.09-6.2 7.25-2.06" fill="#ff5533" />
<path transform="matrix(1,0,0,-1,144.34,84)" d="M0 0C-1.95 .369-3.03 .685-3.03 1.61-3.03 2.37-2.45 2.98-.948 2.98 .605 2.98 2.53 2.37 4 1.16L6.48 4.4C4.61 6 2.16 6.84-.658 6.84-5.16 6.84-7.66 4.29-7.66 1.34-7.66-2.82-3.61-3.55-.711-4.13 1.16-4.53 2.29-4.92 2.29-5.92 2.29-6.77 1.34-7.42-.21-7.42-2.61-7.42-4.55-6.37-5.82-5.11L-8.21-8.5C-6.45-10.19-3.98-11.29-.421-11.29 4.29-11.29 6.9-8.95 6.9-5.42 6.9-1.45 2.9-.605 0 0" fill="#ff5533" />
<path transform="matrix(1,0,0,-1,160.91,95.36)" d="M0 0C5.66 0 8.17 4.02 8.17 8.39V17.88H3.49V7.9C3.49 5.82 2.4 4 0 4-2.43 4-3.52 5.82-3.52 7.9V17.88H-8.2V8.36C-8.2 4.04-5.66 0 0 0" fill="#ff5533" />
<path transform="matrix(1,0,0,-1,180.62,117.41)" d="M0 0C5.66 0 8.17 4.02 8.17 8.39V17.88H3.49V7.9C3.49 5.82 2.4 4 0 4-2.43 4-3.52 5.82-3.52 7.9V17.88H-8.2V8.36C-8.2 4.04-5.66 0 0 0" fill="#ff5533" />
<path transform="matrix(1,0,0,-1,177.1,84.49)" d="M0 0 7.67-10.7H11.69V7.01H7.02V-3.19L-.284 7.01H-4.68V-10.7H0Z" fill="#ff5533" />
<path transform="matrix(1,0,0,-1,144.34,106.21)" d="M0 0C-1.95 .368-3.03 .685-3.03 1.61-3.03 2.37-2.45 2.98-.948 2.98 .605 2.98 2.53 2.37 4 1.16L6.48 4.4C4.61 6 2.16 6.84-.658 6.84-5.16 6.84-7.66 4.29-7.66 1.34-7.66-2.82-3.61-3.55-.711-4.13 1.16-4.53 2.29-4.92 2.29-5.92 2.29-6.77 1.34-7.42-.21-7.42-2.61-7.42-4.55-6.37-5.82-5.11L-8.21-8.5C-6.45-10.19-3.98-11.29-.421-11.29 4.29-11.29 6.9-8.95 6.9-5.42 6.9-1.45 2.9-.605 0 0" fill="#ff5533" />
<path transform="matrix(1,0,0,-1,152.71,103.54)" d="M0 0H6.01V-13.7H10.69V0H16.37V4.01H0Z" fill="#ff5533" />
<path transform="matrix(1,0,0,-1,199.33,113.23)" d="M0 0H-2.85V9.69H.026C3.25 9.69 4.88 7.58 4.88 4.86 4.88 2.24 3.09 0 0 0M-.095 13.7H-7.53V-4.01H-.069C5.48-4.01 9.49-.637 9.49 4.86 9.49 10.35 5.48 13.7-.095 13.7" fill="#ff5533" />
<path transform="matrix(1,0,0,-1,0,1080)" d="M211.51 962.76H216.19V980.46H211.51Z" fill="#ff5533" />
<path transform="matrix(1,0,0,-1,194.27,95.27)" d="M0 0C1.4 0 2.53 1.13 2.53 2.53 2.53 3.93 1.4 5.06 0 5.06-1.4 5.06-2.53 3.93-2.53 2.53-2.53 1.13-1.4 0 0 0" fill="#ff5533" />
<path transform="matrix(1,0,0,-1,227.84,113.26)" d="M0 0C-2.68 0-4.86 2.17-4.86 4.86-4.86 7.54-2.68 9.71 0 9.71 2.68 9.71 4.85 7.54 4.85 4.86 4.85 2.17 2.68 0 0 0M0 13.96C-5.03 13.96-9.11 9.88-9.11 4.86-9.11-.174-5.03-4.25 0-4.25 5.03-4.25 9.11-.174 9.11 4.86 9.11 9.88 5.03 13.96 0 13.96" fill="#ff5533" />
</g>
</g>
<g ns2:groupmode="layer" ns2:label="Page 13">
</g>
<g ns2:groupmode="layer" ns2:label="Page 12">
</g>
<g ns2:groupmode="layer" ns2:label="Page 11">
</g>
<g ns2:groupmode="layer" ns2:label="Page 10">
</g>
<g ns2:groupmode="layer" ns2:label="Page 9">
</g>
<g ns2:groupmode="layer" ns2:label="Page7">
</g>
<g ns2:groupmode="layer" ns2:label="Page 8">
</g>
<g ns2:groupmode="layer" ns2:label="7">
</g>
<g ns2:groupmode="layer" ns2:label="Layer 31">
</g>
<g ns2:groupmode="layer" ns2:label="8">
</g>
<g ns2:groupmode="layer" ns2:label="Page 5">
</g>
<g ns2:groupmode="layer" ns2:label="Page 3">
</g>
<g ns2:groupmode="layer" ns2:label="Page 2">
</g>
<g ns2:groupmode="layer" ns2:label="Page 1">
</g>
<g ns2:groupmode="layer" ns2:label="bleed">
</g>
<g ns2:groupmode="layer" ns2:label="Layer 8">
</g>
</g>
</svg>