<?xml version='1.0' encoding='utf-8'?>
<svg xmlns="http://www.w3.org/2000/svg" xmlns:ns1="http://www.inkscape.org/namespaces/inkscape" xmlns:xlink="http://www.w3.org/1999/xlink" version="1.1" width="2938.83" height="2623.16" viewBox="0 0 2938.83 2623.16">
<defs>
<clipPath id="clip_1">
<path transform="matrix(1,0,0,-1,0,2623.16)" d="M0 2623.157H2938.834V0H0Z" />
</clipPath>
<clipPath id="clip_2">
<path transform="matrix(1,0,0,-1,0,2623.16)" d="M0 2623.157H2938.834V0H0Z" />
</clipPath>
<clipPath id="clip_3">
<path transform="matrix(1,0,0,-1,0,2623.16)" d="M0 2623.157H2938.834V0H0Z" />
</clipPath>
<clipPath id="clip_4">
<path transform="matrix(1,0,0,-1,0,2623.16)" d="M0 2623.157H2938.834V0H0Z" />
</clipPath>
<clipPath id="clip_5">
<path transform="matrix(1,0,0,-1,0,2623.16)" d="M1455.8 690.228C1427.803 690.228 1405.107 667.532 1405.107 639.535V267.992C1405.107 239.995 1427.803 217.299 1455.8 217.299H2288.112C2316.109 217.299 2338.806 239.995 2338.806 267.992V639.535C2338.806 667.532 2316.109 690.228 2288.112 690.228Z" />
</clipPath>
<clipPath id="clip_6">
<path transform="matrix(1,0,0,-1,0,2623.16)" d="M1455.8 690.228C1427.803 690.228 1405.107 667.532 1405.107 639.535V267.992C1405.107 239.995 1427.803 217.299 1455.8 217.299H2288.112C2316.109 217.299 2338.806 239.995 2338.806 267.992V639.535C2338.806 667.532 2316.109 690.228 2288.112 690.228Z" />
</clipPath>
<clipPath id="clip_8">
<path transform="matrix(1,0,0,-1,0,2623.16)" d="M421.9 690.228C393.903 690.228 371.207 667.532 371.207 639.535V267.992C371.207 239.995 393.903 217.299 421.9 217.299H803.956C831.954 217.299 854.65 239.995 854.65 267.992V639.535C854.65 667.532 831.954 690.228 803.956 690.228Z" />
</clipPath>
<clipPath id="clip_9">
<path transform="matrix(1,0,0,-1,0,2623.16)" d="M939.947 690.228C911.95 690.228 889.254 667.532 889.254 639.535V267.992C889.254 239.995 911.95 217.299 939.947 217.299H1322.005C1350.002 217.299 1372.698 239.995 1372.698 267.992V639.535C1372.698 667.532 1350.002 690.228 1322.005 690.228Z" />
</clipPath>
<clipPath id="clip_10">
<path transform="matrix(1,0,0,-1,0,2623.16)" d="M0 2623.157H2938.834V0H0Z" />
</clipPath>
<clipPath id="clip_11">
<path transform="matrix(1,0,0,-1,0,2623.16)" d="M1045.423 950.726 1079.537 917.306 1049.172 903.66 1042.856 876.802 1178.324 810.296 1186.167 843.651 1156.228 872.997 1180.869 883.968 1187.212 910.94 1051.712 977.475Z" />
</clipPath>
<clipPath id="clip_12">
<path transform="matrix(1,0,0,-1,0,2623.16)" d="M0 2623.157H2938.834V0H0Z" />
</clipPath>
<clipPath id="clip_13">
<path transform="matrix(1,0,0,-1,0,2623.16)" d="M1174.059 937.304 1183.043 835.574 1319.971 902.797 1313.587 929.946 1282.894 943.738 1317.377 977.518 1311.019 1004.555Z" />
</clipPath>
<clipPath id="clip_14">
<path transform="matrix(1,0,0,-1,0,2623.16)" d="M0 2623.157H2938.834V0H0Z" />
</clipPath>
<clipPath id="clip_15">
<path transform="matrix(1,0,0,-1,0,2623.16)" d="M1213.441 897.738 1256.737 919.174 1210.25 919.912Z" />
</clipPath>
</defs>
<g>
<g ns1:groupmode="layer" ns1:label="Layer 1">
<text fill="#3232ff" xml:space="preserve" transform="matrix(1 0 -0 1 0 2623.16)" font-size="81.7765" font-family="KTAZVU+ArialMT"><tspan y="-2177.83" x="871.5615 919.8424 963.18399 979.53109 1020.4193 1043.1532 1059.5004 1100.3887 1123.1226 1168.5903 1191.3242 1231.82 1275.6195 1318.3478 1339.5934 1366.1953 1382.2808 1425.7041 1468.9393 1489.2036 1533.0604 1559.3598 1600.248 1622.9819 1662.0221 1677.944 1694.5283 1738.0171 1780.2628 1802.9967 1825.7306 1846.3383 1889.6716 1928.6791 1972.3069 2001.1167 2023.8506">This is a contributors slide. Insert </tspan><tspan y="-2096.0535" x="1166.6111 1204.5391 1248.126 1291.4185 1318.65 1341.3839 1361.5092 1405.0961 1448.4949 1516.6148">your team </tspan></text>
<text fill="#3232ff" xml:space="preserve" transform="matrix(1 0 -0 1 0 2623.16)" font-size="81.7765" font-family="NVORLO+Arial-BoldMT" font-weight="bold"><tspan y="-2096.0535" x="1539.3486 1588.1201 1632.2304 1662.602 1706.0254">here.</tspan></text>
<g clip-path="url(#clip_1)">
<path transform="matrix(1,0,0,-1,1183.1611,957.8816)" d="M0 0C0-117.85-95.536-213.385-213.385-213.385-331.235-213.385-426.771-117.85-426.771 0-426.771 117.85-331.235 213.385-213.385 213.385-95.536 213.385 0 117.85 0 0" fill="#999999" />
</g>
<text fill="#3232ff" xml:space="preserve" transform="matrix(1 0 -0 1 0 2623.16)" font-size="40.8882" font-family="NVORLO+Arial-BoldMT" font-weight="bold"><tspan y="-1365.4678" x="803.7959 830.05429 852.4201 866.08908 881.99868 892.99758 915.4861 938.2281 949.595 977.10458 988.46328 999.83016 1026.5956 1051.1367 1075.8251 1091.3626 1113.021">Patrick E. Shorey</tspan></text>
<text fill="#3232ff" xml:space="preserve" transform="matrix(1 0 -0 1 0 2623.16)" font-size="20.4441" font-family="KTAZVU+ArialMT"><tspan y="-1336.8457" x="871.9424 886.27578 897.5241 907.7809 914.4048 925.60818 936.6582 942.2476 946.7004 957.9528 969.1112 980.28396 984.8246 990.50808 996.10977 1007.3131 1018.5165 1025.2119 1036.3723 1047.5757 1051.967 1061.9213">Recreational therapist</tspan></text>
<g clip-path="url(#clip_2)">
<path transform="matrix(1,0,0,-1,1661.0425,957.8816)" d="M0 0C0-117.85-95.536-213.385-213.385-213.385-331.235-213.385-426.771-117.85-426.771 0-426.771 117.85-331.235 213.385-213.385 213.385-95.536 213.385 0 117.85 0 0" fill="#999999" />
</g>
<text fill="#3232ff" xml:space="preserve" transform="matrix(1 0 -0 1 0 2623.16)" font-size="40.8882" font-family="NVORLO+Arial-BoldMT" font-weight="bold"><tspan y="-1365.4678" x="1276.6885 1310.6094 1333.1019 1350.3118 1373.0538 1384.4208 1405.5396 1416.8983 1428.2653 1461.949 1473.05 1497.8529 1522.4226 1533.6178 1555.9019 1569.0679 1593.6539">Mary T. Middleton</tspan></text>
<text fill="#3232ff" xml:space="preserve" transform="matrix(1 0 -0 1 0 2623.16)" font-size="20.4441" font-family="KTAZVU+ArialMT"><tspan y="-1336.8457" x="1347.1826 1360.4837 1371.2638 1381.2365 1391.2725 1395.668 1406.0781 1417.2507 1421.7935 1427.4769 1444.3638 1455.3646 1460.7149 1471.9795 1483.2462 1489.911 1501.1777 1505.6039 1516.9319 1528.0923 1532.4878 1542.442">Physical meteorologist</tspan></text>
<g clip-path="url(#clip_3)">
<path transform="matrix(1,0,0,-1,2138.9239,957.8816)" d="M0 0C0-117.85-95.536-213.385-213.385-213.385-331.235-213.385-426.771-117.85-426.771 0-426.771 117.85-331.235 213.385-213.385 213.385-95.536 213.385 0 117.85 0 0" fill="#999999" />
</g>
<text fill="#3232ff" xml:space="preserve" transform="matrix(1 0 -0 1 0 2623.16)" font-size="40.8882" font-family="NVORLO+Arial-BoldMT" font-weight="bold"><tspan y="-1365.4678" x="1748.0967 1786.4662 1797.3015 1808.1369 1818.9722 1830.016 1852.5903 1888.9481 1900.315 1930.1797 1941.5383 1952.9052 1981.9725 2006.6322 2031.4718 2053.4615 2078.0435">William R. Hudson</tspan></text>
<text fill="#3232ff" xml:space="preserve" transform="matrix(1 0 -0 1 0 2623.16)" font-size="20.4441" font-family="KTAZVU+ArialMT"><tspan y="-1336.8457" x="1872.501 1884.8818 1889.2139 1906.1088 1917.3019 1926.8635 1938.0996 1949.303 1960.5595 1971.7628">Timekeeper</tspan><tspan y="-2028.8377" x="987.6394 998.712 1009.97879 1016.6026 1027.8059 1044.8358 1050.5193 1054.8513 1066.0444 1076.011 1087.1347 1104.1646 1109.848 1121.0596 1132.3263 1136.7525 1148.0172 1154.8251 1160.5086 1170.5446 1174.8787 1180.5621 1186.2456 1197.406 1214.301 1225.302 1230.8792 1236.5626 1242.2461 1252.6439 1263.8984 1275.0425 1285.101 1296.3513 1306.6061 1311.9563 1322.9552 1328.4424 1339.5763 1346.3842 1352.0676 1363.2179 1374.315 1378.647 1389.8483 1394.2417 1404.2798 1414.5448 1418.8749 1430.0762 1441.4431 1447.1266 1458.3688 1462.6641 1467.0003 1472.5753 1478.2588 1483.9423 1497.4395 1508.694 1520.0609 1525.7444 1535.8029 1547.0574 1558.4243 1564.1078 1569.458 1580.7023 1585.0261 1589.3399 1600.4921 1610.7141 1616.3976 1626.454 1637.7106 1649.0775 1654.761 1659.0951 1670.1921 1680.4142 1691.5645 1701.7865 1707.47 1724.3323 1735.8567 1745.9867 1750.3187 1767.132 1778.2842 1788.5062 1794.1897 1804.5896 1815.8441 1826.9882 1837.0466 1848.297 1858.5497 1863.8999 1874.9009 1880.386 1891.5219 1896.8087 1902.4922">Lorem ipsum dolor sit amet, consectetur adipiscing elit. Sed sed tellus sed lacus maximus consectetur. </tspan><tspan y="-2002.2604" x="1009.6577 1023.0384 1034.2417 1045.4348 1056.6382 1067.8007 1079.1676 1084.8511 1096.0217 1100.317 1104.7514 1115.8811 1127.0436 1138.204 1155.2339 1160.9174 1166.2676 1177.5098 1181.8357 1186.1494 1197.2997 1207.5217 1213.2052 1224.4188 1231.1143 1242.1622 1247.7394 1253.4229 1259.1063 1270.1073 1275.7908 1281.4743 1298.3366 1309.5072 1313.9027 1325.1694 1335.136 1346.2985 1357.4467 1368.5969 1379.9639 1385.6473 1389.9774 1401.1726 1411.1371 1422.2628 1439.2927 1444.9762 1455.1983 1466.3341 1473.1951 1483.1596 1494.3118 1504.5338 1510.2173 1514.6638 1525.6218 1531.3053 1536.9888 1550.6516 1555.039 1564.8174 1575.9799 1592.7931 1603.9453 1614.1674 1619.8508 1631.0236 1635.3168 1639.7532 1650.881 1662.0741 1673.073 1678.7565 1684.44 1695.6515 1702.3264 1713.583 1723.805 1729.4885 1739.2138 1750.4559 1754.9945 1760.678 1766.0588 1777.3256 1784.7672 1790.1481 1801.4129 1808.2207 1813.9042 1824.3041 1835.5565 1846.7578 1857.9387 1869.1318 1880.4988">Aenean aliquam tellus erat, et malesuada ipsum cursus id. Vivamus aliquet eros vel tortor congue </tspan><tspan y="-1975.6831" x="1351.0333 1362.0527 1368.284 1374.311 1378.7045 1388.9695 1393.3057 1398.7908 1409.9247 1416.7326 1422.416 1432.1412 1443.3855 1447.9262 1453.6096 1463.3328 1474.577 1479.1177 1484.8012 1489.0944 1493.4264 1504.6707 1515.8843 1522.5592 1533.3945">efficitur vel vel libero.</tspan></text>
<text xml:space="preserve" transform="matrix(1 0 -0 1 0 2623.16)" font-size="60" font-family="ProximaNova-Extrabld"><tspan y="-2424.8165" x="329.875 347.395 400.01499 439.91499 483.29499">IMAGE</tspan></text>
<text xml:space="preserve" transform="matrix(1 0 -0 1 0 2623.16)" font-size="39.5978" font-family="ProximaNova-Semibold" font-weight="bold"><tspan y="-2347.085" x="328.9141 352.83515 362.53663 372.71327 394.86033 423.46577 450.98625 481.46864 509.82066 538.2123 548.3889 576.1549 604.602 632.958 661.3496 671.52627 699.9654 722.81338 732.99 758.6731 768.92898 791.5948 820.0656 830.24227 852.38937 881.07 891.32589 901.5025 928.4052 953.66867 980.6743 990.85098 1017.58346 1044.0902 1072.4462 1100.8378 1111.0144 1137.2915 1167.4295 1195.2588 1217.4019 1240.4398 1268.2692 1291.1171 1301.2937 1328.153 1356.6594 1383.1661 1408.5325 1433.7959 1460.8689 1483.012 1506.0499">2. THƯỜNG DÙNG ĐỂ BIỂU THỊ CÁC DẠNG CONTENT CHARACTER</tspan><tspan y="-1189.0077" x="328.9141 352.83515 362.53663 372.71327 394.86033 423.46577 450.98625 481.46864 509.82066 538.2123 548.3889 576.1549 604.602 632.958 661.3496 671.52627 699.9654 722.81338 732.99 758.6731 768.92898 791.5948 820.0656 830.24227 852.38937 881.07 891.32589 901.5025 928.4052 953.66867 980.6743 990.85098 1017.58346 1044.0902 1072.4462 1100.8378 1111.0144 1137.2915 1167.4295 1195.2588 1217.4019 1240.4398 1268.2692 1291.1171 1301.2937 1329.9862 1340.2421 1368.804">2. THƯỜNG DÙNG ĐỂ BIỂU THỊ CÁC DẠNG CONTENT HÌNH</tspan></text>
<g clip-path="url(#clip_4)">
<path transform="matrix(1,0,0,-1,1402.1337,2075.942)" d="M0 0C-9.061-.742-15.912-7.897-16.491-16.921-16.572-18.182-16.763-21.208-15.808-22.008-15.167-22.543-12.006-22.955-10.977-23.117-.48-24.763 10.54-24.835 21.079-23.492 22.904-23.26 26.129-22.937 27.771-22.387 29.713-21.737 29.299-18.491 29.178-16.745 28.542-7.561 21.363-.519 12.203 .063 8.708 .285 3.479 .285 0 0M4.825 36.383C-7.329 35.214-13.576 20.598-5.712 11.106 2.901 .711 19.67 5.296 21.704 18.576 23.231 28.543 14.849 37.348 4.825 36.383M18.786 4.322 23.41 1.989C31.3-2.832 35.237-11.45 34.57-20.649 34.01-28.377 25.603-28.401 19.597-29.064 9.833-30.144-.141-30.012-9.867-28.69-18.091-27.571-22.324-26.931-21.874-17.293-21.671-12.934-20.377-8.509-17.934-4.898-15.019-.59-10.924 2.381-6.089 4.233-17.407 12.407-17.253 29.67-5.882 37.81 3.59 44.59 16.679 42.461 23.392 32.969 29.812 23.89 27.981 10.702 18.786 4.322" fill="#ffffff" />
<path transform="matrix(1,0,0,-1,1442.5161,2093.029)" d="M0 0C1.16 1.085 3.804 .651 4.583 1.45 5.239 2.122 4.904 5.247 4.742 6.264 3.909 11.476-.776 16.819-5.818 18.351-7.476 18.855-9.781 18.658-10.074 20.966-10.442 23.863-7.496 24.063-5.649 25.419 .241 29.742 .72 38.817-4.804 43.681-6.101 44.824-9.305 45.92-9.814 47.21-10.42 48.748-9.456 50.692-7.751 50.911-6.613 51.057-5.143 50.28-4.145 49.723 5.924 44.104 7.389 29.882-1.175 22.247 4.577 19.145 9.536 12.929 10.12 6.26 10.432 2.701 10.573-1.458 7.046-3.425 5.799-4.12 2.043-4.92 .73-4.43-.997-3.785-1.318-1.234 0 0" fill="#ffffff" />
<path transform="matrix(1,0,0,-1,1381.1461,2042.147)" d="M0 0C3.01 .577 4.517-3.197 2.079-4.863 .726-5.787-.681-6.097-2.08-7.386-7.642-12.513-6.795-21.747-.491-25.833 1.296-26.991 3.857-27.242 3.347-30.077 2.948-32.302 .382-32.103-1.301-32.667-6.02-34.247-10.481-39.402-11.377-44.31-11.573-45.384-11.827-47.828-11.605-48.828-11.18-50.74-6.962-49.179-6.034-51.98-5.237-54.382-7.127-55.627-9.322-55.454-16.213-54.91-17.285-51.192-16.851-44.961-16.376-38.154-11.379-31.797-5.523-28.635-13.975-21.103-12.681-7.152-2.906-1.363-2.253-.977-.681-.131 0 0" fill="#ffffff" />
<path transform="matrix(1,0,0,-1,1414.9905,2398.3465)" d="M0 0C-.72-.112-1.914 0-2.706 0-2.749 0-3.242 .44-3.119-.073L3.171-15.263C3.767-16.276 4.135-15.455 4.51-14.827 5.729-12.785 6.657-10.258 7.963-8.302 8.581-7.376 9.207-6.942 10.341-6.776L19.13-9.299C19.623-9.362 19.796-9.033 19.671-8.585L13.612 6.257C13.398 6.462 12.919 5.61 12.688 5.407 11.554 4.41 9.815 3.576 8.277 3.546 7.74 3.536 7.295 3.741 6.767 3.734 3.982 3.699 2.71 .422 0 0M-10.317 0C-11.209-.047-12.127 0-13.023 0-14.755 0-16.767 2.813-18.403 3.414-19.773 3.917-20.112 3.523-21.3 3.546-22.838 3.576-24.577 4.41-25.711 5.407-25.942 5.61-26.421 6.462-26.635 6.257L-32.694-8.585C-32.819-9.033-32.646-9.362-32.153-9.299L-23.364-6.776C-22.23-6.942-21.604-7.376-20.986-8.302-19.679-10.258-18.751-12.785-17.533-14.827-17.158-15.455-16.79-16.276-16.194-15.263L-9.904-.073C-9.781 .439-10.262 .003-10.317 0M-36.218 23.399C-35.143 22.228-34.265 22.081-33.452 20.33-32.535 18.355-33.161 15.961-31.786 14.385-30.663 13.098-28.439 13.001-26.974 11.756-24.899 9.993-25.177 7.169-22.277 6.306-20.599 5.806-19.282 6.532-17.17 5.662-15.308 4.895-14.191 2.74-12.347 2.537-10.039 2.283-8.633 3.805-6.25 3.729-4.571 3.675-3.662 2.788-2.327 2.577 1.298 2.006 1.503 4.628 4.269 5.71 6.35 6.524 7.825 5.791 9.506 6.392 12.161 7.34 11.965 10.147 14.042 11.835 15.481 13.005 17.658 13.118 18.763 14.385 20.174 16.002 19.519 18.376 20.429 20.33 21.337 22.28 23.003 22.77 23.797 24.235 25.15 26.734 23.418 28.241 23.442 30.509 23.468 32.984 25.43 34.619 25.284 36.781 25.146 38.837 23.133 39.969 22.527 41.977 21.889 44.095 22.854 46.025 22.152 47.86 21.359 49.935 19.127 50.142 17.773 51.767 16.173 53.686 16.622 56.097 14.8 57.589 13.289 58.825 11.184 58.442 9.335 59.566 7.458 60.707 7.043 62.78 5.205 63.553 3.073 64.451 1.59 63.212-.629 63.469-3.055 63.751-4.326 65.846-6.599 65.801-8.709 65.76-10.028 63.744-12.393 63.469-14.651 63.208-16.179 64.498-18.35 63.506-20.039 62.734-20.504 60.749-22.254 59.631-24.17 58.406-26.279 58.852-27.823 57.589-29.645 56.097-29.196 53.686-30.795 51.767-32.318 49.94-35.11 49.761-35.432 46.933-35.633 45.174-34.965 43.92-35.55 41.977-36.177 39.896-38.24 38.821-38.318 36.617-38.382 34.8-37.015 33.601-36.662 31.834-36.147 29.252-37.539 27.859-37.293 25.622-37.208 24.849-36.735 23.963-36.218 23.399M4.482-18.266H2.96C2.233-17.936 1.69-17.536 1.195-16.902L-6.429 1.185C-6.716 1.268-6.948 .504-7.048 .282-9.415-4.961-11.252-11.08-13.808-16.127-14.329-17.155-14.892-17.809-15.982-18.266H-17.505C-17.731-18.027-18.076-18.024-18.345-17.836-19.978-16.697-21.647-11.888-22.884-10.03-23.103-9.702-23.338-9.248-23.802-9.328-25.81-9.973-27.816-10.694-29.851-11.246-31.4-11.667-32.581-12.298-34.068-11.236-35.189-10.434-35.55-8.964-35.103-7.686L-28.154 9.21C-28.246 10.193-31.292 10.946-32.167 11.468-33.784 12.432-34.929 14.145-35.245 16-35.372 16.74-35.289 17.702-35.474 18.477-35.972 20.558-38.31 21.345-39.276 23.47-40.916 27.074-38.341 29.16-39.359 32.012-40.062 33.982-41.053 34.582-40.822 37.103-40.551 40.069-38.273 41.004-37.876 43.119-37.464 45.319-38.569 46.807-37.322 49.33-35.927 52.151-32.931 52.09-31.969 54.801-31.354 56.538-31.408 57.715-29.934 59.193-27.658 61.475-24.604 60.48-22.828 62.404-21.342 64.014-21.24 65.232-18.736 66.091-16.475 66.866-15.838 66.179-13.851 65.978-11.284 65.718-10.661 67.351-8.634 67.997-3.786 69.543-2.645 65.626 .828 65.978 2.815 66.179 3.452 66.866 5.713 66.091 8.218 65.232 8.319 64.014 9.806 62.404 11.559 60.504 14.609 61.451 16.911 59.192 18.378 57.753 18.341 56.508 18.947 54.801 19.909 52.088 22.865 52.14 24.298 49.329 25.558 46.861 24.446 45.297 24.854 43.119 25.25 41.004 27.528 40.069 27.8 37.103 28.107 33.748 25.502 32.396 26.209 29.253 26.714 27.009 27.333 25.843 26.253 23.47 25.287 21.345 22.95 20.558 22.452 18.477 22.266 17.702 22.349 16.74 22.223 16 21.906 14.145 20.761 12.432 19.144 11.468 18.269 10.946 15.224 10.193 15.132 9.21L22.08-7.686C22.82-9.828 21.316-11.818 19.111-11.853L10.407-9.38C10.161-9.547 10.021-9.791 9.861-10.03 8.588-11.943 6.998-16.628 5.322-17.836 5.062-18.024 4.709-18.024 4.482-18.266" fill="#ffffff" />
<path transform="matrix(1,0,0,-1,1408.6458,2348.9622)" d="M0 0-.376-.215C-1.55-2.926-2.255-6.288-3.517-8.911-3.919-9.746-4.537-10.362-5.49-10.489L-15.388-10.825-7.626-17.014C-6.827-17.863-6.834-18.51-7.008-19.627L-9.638-28.749-1.405-23.369C-.384-22.757 .444-23 1.411-23.537L9.304-28.749 6.674-19.627C6.521-18.642 6.478-17.922 7.164-17.14L15.055-10.825 5.157-10.489C4.468-10.417 3.888-9.986 3.481-9.459ZM-.372 3.009C.54 3.08 1.459 2.615 1.895 1.809L5.581-7.867C6.337-7.888 7.114-8.085 7.86-8.125 10.269-8.254 13.293-7.984 15.632-8.302 17.679-8.58 18.61-10.97 17.177-12.523L9.159-18.888 11.839-28.668C12.015-31.225 9.99-32.176 7.835-30.982 5.188-29.515 2.636-27.133-.094-25.702L-8.729-31.265C-10.628-32.178-12.595-30.598-12.156-28.515L-9.493-18.888-17.424-12.606C-18.875-11.208-18.173-8.768-16.243-8.362-15.172-8.137-12.841-8.168-11.59-8.111-9.696-8.024-7.794-8.224-5.914-7.867L-2.323 1.734C-1.923 2.418-1.167 2.948-.372 3.009" fill="#ffffff" />
<path transform="matrix(1,0,0,-1,1405.7393,2339.0343)" d="M0 0C10.589 .894 20.565-4.21 25.382-13.753 26.325-15.622 27.955-20.186 27.909-22.194 27.88-23.465 26.188-23.926 25.59-23.017 25.245-22.492 24.868-19.694 24.602-18.762 18.403 2.964-13.076 2.853-19.162-18.892-19.417-19.806-19.763-22.488-20.11-23.017-20.684-23.889-22.317-23.487-22.423-22.32-22.556-20.854-21.28-16.983-20.679-15.514-17.304-7.262-8.977-.758 0 0" fill="#ffffff" />
<path transform="matrix(1,0,0,-1,1384.419,2365.9005)" d="M0 0C1.682 .307 1.576-2.416 1.85-3.496 7.484-25.731 38.122-27.173 45.585-5.855 46.195-4.113 46.407-2.328 46.886-.559 47.604 .534 49.199-.189 49.237-1.233 49.287-2.632 48.188-6.178 47.651-7.582 39.052-30.035 5.952-28.35-.342-5.18-.552-4.406-1.199-1.74-1.108-1.108-1.051-.704-.399-.073 0 0" fill="#ffffff" />
<path transform="matrix(1,0,0,-1,1865.3973,2362.7254)" d="M0 0C-1.568 2.773-3.707 5.096-6.256 6.851-7.456 7.676-9.07 6.698-8.898 5.252-8.841 4.768-8.576 4.333-8.174 4.056-5.753 2.387-3.775 .104-2.436-2.646-.558-6.504-.261-10.945-1.409-15.08L-7.451-36.853C-10.005-46.053-19.569-51.46-28.765-48.907-33.222-47.671-36.93-44.772-39.207-40.747-41.391-36.884-41.999-32.429-40.953-28.138L-40.956-28.136-40.933-28.048C-40.929-28.034-40.927-28.019-40.923-28.005-40.923-28.005-40.923-28.006-40.922-28.006L-40.039-24.571-39.447-22.623C-39.445-22.624-39.443-22.625-39.441-22.626L-34.706-5.562C-33.469-1.106-30.571 2.603-26.545 4.88-23.61 6.54-20.33 7.288-17.041 7.092-15.909 7.025-15.034 8.109-15.343 9.2L-15.346 9.212C-15.548 9.932-16.187 10.441-16.934 10.482-20.838 10.697-24.728 9.801-28.214 7.83-33.028 5.107-36.493 .673-37.972-4.656L-42.236-20.021-42.244-20.049-42.291-20.219-42.773-21.957C-42.84-22.196-43.764-25.526-43.764-25.526L-44.015-26.429C-45.536-31.904-44.867-37.793-41.996-42.695-39.261-47.363-34.897-50.723-29.672-52.173-28.095-52.611-26.509-52.853-24.94-52.914-15.566-53.279-6.8-47.183-4.185-37.759L1.929-15.728C3.407-10.399 2.723-4.814 0 0" fill="#ffffff" />
<path transform="matrix(1,0,0,-1,1821.708,2383.8516)" d="M0 0C.181 .454 .145 .963-.09 1.392-.976 3.011-1.618 4.796-1.951 6.713L-5.862 29.239C-7.495 38.646-1.172 47.628 8.235 49.261 9.236 49.435 10.238 49.521 11.234 49.521 15.262 49.521 19.173 48.114 22.369 45.434 25.546 42.769 27.592 38.995 28.302 34.909L28.871 31.629 29.375 28.724 29.394 28.614 29.375 28.621 29.89 25.761 32.169 12.638C32.96 8.081 31.93 3.489 29.267-.293 26.604-4.074 22.628-6.593 18.072-7.384 14.161-8.062 10.325-7.365 7.059-5.644 6.114-5.146 4.948-5.657 4.67-6.689 4.667-6.701 4.664-6.712 4.661-6.724 4.457-7.484 4.805-8.282 5.501-8.649 8.405-10.177 11.685-11.031 15.099-11.031 16.271-11.031 17.458-10.931 18.651-10.723 24.1-9.777 28.854-6.766 32.038-2.244 35.222 2.278 36.454 7.769 35.508 13.218L33.505 24.752 33.447 25.086C33.444 25.1 33.438 25.111 33.434 25.124L33.026 27.251 32.42 30.998 31.596 35.744C30.602 41.469 27.328 46.427 22.418 49.602 18.39 52.208 13.536 53.332 8.772 52.764-3.087 51.351-11.219 40.276-9.202 28.659L-5.29 6.133C-4.881 3.78-4.086 1.59-2.983-.385-2.322-1.57-.574-1.443-.073-.182Z" fill="#ffffff" />
</g>
<g clip-path="url(#clip_5)">
<image x="1405" y="1932" width="934" height="474" xlink:href="../artifact/assets/image-01-853567b0925e.png" />
</g>
<text fill="#ffffff" xml:space="preserve" transform="matrix(1 0 -0 1 0 2623.16)" font-size="66.7733" font-family="ProximaNova-ExtrabldIt" font-style="italic"><tspan y="-472.126" x="1452.7861 1486.0126 1521.9901 1560.5584 1598.953 1634.6167 1659.0022 1690.2521 1728.7936 1745.6338">Leadership</tspan><tspan y="-405.35273" x="1452.7861 1501.0098 1535.5851 1568.9718 1604.6288 1621.2554 1658.6217 1697.1699 1754.4614 1790.1251 1828.3395">Development</tspan></text>
<g clip-path="url(#clip_6)">
<g transform="matrix(.23616143,0,0,.2361614,1393.6821,1854.8467)">
<image id="image_7" width="4048" height="2530" xlink:href="../artifact/assets/image-02-4a6e46f998df.png" />
</g>
</g>
<g clip-path="url(#clip_8)">
<image x="371" y="1932" width="484" height="474" xlink:href="../artifact/assets/image-03-4c3d5f727fbc.png" />
</g>
<text fill="#ffffff" xml:space="preserve" transform="matrix(1 0 -0 1 0 2623.16)" font-size="60.0959" font-family="ProximaNova-ExtrabldIt" font-style="italic"><tspan y="-591.9199" x="407.6797 446.44154 478.3224 524.7645 559.56008 581.5552 616.3507 645.43716 660.82168">Rewards &amp;</tspan><tspan y="-531.82406" x="407.6797 446.44157 478.70707 507.49903 541.4172 576.14657 610.88198 625.8338 647.4503 662.53439 696.36837">Recognition</tspan></text>
<g clip-path="url(#clip_9)">
<image x="889" y="1932" width="484" height="474" xlink:href="../artifact/assets/image-04-05897b79da36.png" />
</g>
<text fill="#ffffff" xml:space="preserve" transform="matrix(1 0 -0 1 0 2623.16)" font-size="60.0959" font-family="ProximaNova-ExtrabldIt" font-style="italic"><tspan y="-591.9199" x="925.7266 960.9248 995.534 1030.2694 1065.0049 1099.518 1131.6994 1183.3578 1215.5392 1250.0162">Engagement</tspan></text>
<g clip-path="url(#clip_10)">
<path transform="matrix(1,0,0,-1,775.8821,2341.5313)" d="M0 0C.006 6.453 .844 12.605-1.169 18.654-1.787 20.512-5.406 21.301-7.494 21.3L-82.969 21.275C-92.863 21.272-89.375 8.196-89.815-.017ZM-78.746 87.989-68.194 34.368-21.722 34.431-1.244 139.874C-.996 144.411 3.362 159.927-4.518 158.991-9.062 158.452-13.262 157.143-17.535 155.385L-57.965 138.755C-69.866 133.86-81.518 126.206-81.378 111.997-81.622 103.961-80.163 96.439-78.746 87.989M-114.829-.273-102.983 .078C-102.822 11.864-104.562 30.585-88.449 33.336L-81.454 34.531-91.403 85.742C-95.396 106.298-98.195 127.844-79.232 141.51-73.413 145.704-67.421 148.945-60.72 151.674L-19.869 168.307C-15.479 170.095-11.027 171.139-6.38 171.742 3.908 173.078 12.149 166.116 12.853 155.785 13.297 149.269 12.494 143.18 11.208 136.543L-8.48 34.914C-6.913 33.767-5.124 33.879-3.431 33.687 14.723 31.626 12.961 13.218 13.125 .034 19.007-.795 29.386 2.437 30.115-5.817 30.405-9.099 28.088-12.887 23.841-12.887L-113.506-12.898C-117.253-12.898-119.574-10.145-119.967-7.197-120.353-4.304-118.675-.386-114.829-.273" fill="#ffffff" />
<path transform="matrix(1,0,0,-1,1293.4623,2344.2989)" d="M0 0C8.406 .433 14.109 6.62 14.406 14.704 14.755 24.179 14.795 33.408 14.377 42.853 14 51.356 7.572 57.134-.781 57.135L-27.475 57.137C-36.233 57.137-42.735 50.856-42.718 42.026L-42.667 14.712C-42.651 6.262-36.208 .272-27.889-.043-18.686-.391-9.62-.496 0 0M-70.701 .028C-62.387 .508-56.476 6.699-56.462 14.694L-56.415 42.139C-56.402 49.385-61.383 56.269-68.979 56.791-79.525 57.516-89.883 57.376-100.474 56.867-108.143 56.498-113.234 49.859-113.524 42.595-113.9 33.206-113.844 24.2-113.543 14.88-113.266 6.284-107.034 .198-98.455-.068-89.311-.352-80.296-.527-70.701 .028M1.219 71.222C9.395 71.629 14.241 78.708 14.455 86.069 14.727 95.4 14.757 104.23 14.421 113.438 14.11 121.99 8.058 127.748-.389 128.117-9.556 128.518-18.705 128.52-27.871 128.117-36.315 127.745-42.368 121.991-42.685 113.44-43.026 104.242-42.976 95.382-42.725 86.077-42.516 78.325-37.169 71.38-29.064 71.15-19.063 70.866-9.257 70.702 1.219 71.222M-69.594-13.225C-80.177-13.768-90.091-13.782-100.28-13.239-114.958-12.457-126.165-.786-126.766 13.82-127.184 23.971-127.199 33.591-126.747 43.642-126.077 58.546-114.486 69.847-99.7 70.417-89.746 70.801-80.447 70.866-70.53 70.423-62.513 70.065-55.199 66.9-49.984 60.909-48.34 61.168-46.449 62.959-46.401 64.568-52.015 69.561-55.483 76.517-55.88 84.225-56.395 94.207-56.247 103.847-55.975 113.78-55.551 129.337-43.668 140.968-28.151 141.451-18.687 141.746-9.573 141.747-.111 141.45 15.42 140.963 27.294 129.353 27.709 113.772 27.967 104.09 28.15 94.631 27.654 84.932 27.242 76.894 24.329 69.848 17.63 64.207 23.99 58.474 27.299 51.539 27.668 43.23 28.101 33.488 28.006 24.129 27.704 14.33 27.251-.307 16.294-12.351 1.436-13.209-9.254-13.826-19.723-13.789-30.37-13.157-38.091-12.699-44.366-8.869-49.604-3.226-54.992-9.339-61.509-12.81-69.594-13.225" fill="#ffffff" />
<path transform="matrix(1,0,0,-1,1186.2106,2238.0406)" d="M0 0C8.753 .368 15.046 6.13 15.375 14.739 15.736 24.217 15.781 33.344 15.359 42.945 15.059 49.734 10.479 56.142 3.391 56.835-7.692 57.921-18.611 57.924-29.694 56.835-36.779 56.139-41.364 49.732-41.666 42.944-42.092 33.354-42.03 24.202-41.681 14.738-41.35 5.77-34.593 .235-25.925-.03-17.397-.291-8.953-.376 0 0M1.154-13.254C-8.668-13.709-17.696-13.619-27.061-13.286-42.564-12.735-54.458-1.171-54.986 14.398-55.315 24.091-55.32 33.513-54.984 43.221-54.455 58.473-42.817 70.069-27.587 70.608-17.845 70.954-8.458 70.946 1.286 70.609 16.522 70.081 28.145 58.482 28.676 43.217 29.013 33.511 29.019 24.096 28.678 14.402 28.141-.849 16.722-12.531 1.154-13.254" fill="#ffffff" />
</g>
<text xml:space="preserve" transform="matrix(1 0 -0 1 0 2623.16)" font-size="89.031" font-family="ProximaNova-Extrabld"><tspan y="-997.5244" x="368.9746 449.45863 516.6058 574.30679">WORK</tspan><tspan y="-908.4934" x="368.9746 421.34266 486.15724 547.14346 572.2324 629.23898 696.36837 761.4945 838.8625 891.2305 954.37136">ENVIRONMENT</tspan><tspan y="-819.4624" x="368.9746 394.06358 471.43153 526.7109 583.71749 648.1047 709.0909 761.4589 838.82687 891.1949 954.3446">IMPROVEMENT</tspan></text>
<g clip-path="url(#clip_11)">
<image x="1042" y="1645" width="146" height="168" xlink:href="../artifact/assets/image-05-73f522c3f724.png" />
</g>
<g clip-path="url(#clip_12)">
<path transform="matrix(1,0,0,-1,1066.015,1661.5264)" d="M0 0 112.091-54.927 62.874-76.652 103.184-116.8-3.822-64.131 43.492-42.894Z" fill="#ffec06" />
</g>
<g clip-path="url(#clip_13)">
<image x="1174" y="1618" width="146" height="170" xlink:href="../artifact/assets/image-06-1b619d8e7138.png" />
</g>
<g clip-path="url(#clip_14)">
<path transform="matrix(1,0,0,-1,1296.5624,1634.6168)" d="M0 0-113.3-55.519-104.297-118.059 3.864-64.822-43.96-43.356Z" fill="#ffec06" />
</g>
<g clip-path="url(#clip_15)">
<image x="1210" y="1703" width="47" height="23" xlink:href="../artifact/assets/image-07-127df30793b2.png" />
</g>
<text fill="#3333ff" xml:space="preserve" transform="matrix(1 0 -0 1 0 2623.16)" font-size="40.064" font-family="ProximaNova-Bold" font-weight="bold"><tspan y="-756.043" x="368.3027 391.56385 425.24165 448.4387 458.11418 480.19746 499.80076 521.69577 543.85116 554.1075 577.569 597.4607 620.6578 642.40859 656.17459 665.7338 687.4846 710.2129 729.23129">Employee Experience</tspan></text>
</g>
</g>
</svg>