<?xml version='1.0' encoding='utf-8'?>
<svg xmlns="http://www.w3.org/2000/svg" xmlns:ns1="http://www.inkscape.org/namespaces/inkscape" version="1.1" width="1920" height="1080" viewBox="0 0 1920 1080">
<defs>
<clipPath id="clip_1">
<path transform="matrix(1,0,0,-1,0,1080)" d="M0 1080H1920V0H0Z" />
</clipPath>
<clipPath id="clip_2">
<path transform="matrix(1,0,0,-1,0,1080)" d="M0 1080H1920V0H0Z" />
</clipPath>
<clipPath id="clip_3">
<path transform="matrix(1,0,0,-1,0,1080)" d="M0 1080H1920V0H0Z" />
</clipPath>
<clipPath id="clip_4">
<path transform="matrix(1,0,0,-1,0,1080)" d="M0 1080H1920V0H0Z" />
</clipPath>
<clipPath id="clip_5">
<path transform="matrix(1,0,0,-1,0,1080)" d="M0 1080H1920V0H0Z" />
</clipPath>
<clipPath id="clip_6">
<path transform="matrix(1,0,0,-1,0,1080)" d="M0 1080H1920V0H0Z" />
</clipPath>
<clipPath id="clip_7">
<path transform="matrix(1,0,0,-1,0,1080)" d="M0 1080H1920V0H0Z" />
</clipPath>
</defs>
<g>
<g ns1:groupmode="layer" ns1:label="Layer 1">
<text xml:space="preserve" transform="matrix(1 0 -0 1 0 1080)" font-size="20" font-family="ProximaNova-Bold" font-weight="bold"><tspan y="-991.2163" x="72.3477 84.26771 98.881717 113.643718 118.91572 131.78173 137.28772 149.33972 161.20973 174.06974 179.18973 191.06974 203.05773 214.93773">SUN.RISER 2026</tspan></text>
<text xml:space="preserve" transform="matrix(1 0 -0 1 0 1080)" font-size="20" font-family="ProximaNova-Regular"><tspan y="-74.99628" x="72.3477 87.1877 98.4857 110.1017 121.399707 133.21971 138.37972 150.01372 164.11373 178.46973 183.27173 195.01773 206.26973 220.37174 234.39174 239.21173 254.51174 259.67173 272.92774 282.90977 293.10978 298.26979 310.4658 315.2458 329.6838 343.7878 355.0098 366.7298 371.8898 384.0498 395.4298 407.19383 418.57383 430.52583 443.78184 455.16184">©2026 SUN.STUDIO ALL RIGHTS RESERVED</tspan></text>
<text xml:space="preserve" transform="matrix(1 0 -0 1 0 1080)" font-size="20" font-family="ProximaNova-Semibold" font-weight="bold"><tspan y="-74.99628" x="1832.2477">9</tspan></text>
<g clip-path="url(#clip_1)">
<path transform="matrix(1,0,0,-1,1823.42,75)" d="M0 0H-173.985C-185.501 0-194.836-9.335-194.836-20.85V-20.851C-194.836-32.366-185.501-41.701-173.985-41.701H0C11.515-41.701 20.851-32.366 20.851-20.851V-20.85C20.851-9.335 11.515 0 0 0M0-1C10.946-1 19.851-9.905 19.851-20.851 19.851-31.796 10.946-40.701 0-40.701H-173.985C-184.931-40.701-193.836-31.796-193.836-20.85-193.836-9.905-184.931-1-173.985-1Z" fill="#444454" />
</g>
<text xml:space="preserve" transform="matrix(1 0 -0 1 0 1080)" font-size="20" font-family="ProximaNova-Regular"><tspan y="-976.8037" x="1650.9551 1665.331 1677.9011 1691.0612 1696.2212 1710.2212 1721.6012 1732.2952 1745.5512 1757.5252 1768.7792 1785.1052 1796.4852 1810.5093">HRA DEPARTMENT</tspan></text>
<text xml:space="preserve" transform="matrix(1 0 -0 1 0 1080)" font-size="55" font-family="ProximaNova-Extrabld"><tspan y="-900.457" x="72.9771 120.7886 157.1546 197.7996 211.87961 249.16411 285.40364 326.0486 340.1286 371.06614 406.55766 446.51515 484.57514 498.65513 535.8132 574.4892 612.8242 626.90426 663.62777 703.58529 745.3633 761.4233 775.5033 809.8728 850.1878 891.8778 932.1378 971.90286 985.98287 1020.9244 1058.8084">MẪU CẤU TRÚC CỦA BUỔI PHỎNG VẤN</tspan></text>
<g clip-path="url(#clip_2)">
<path transform="matrix(1,0,0,-1,788.2076,668.3728)" d="M0 0C-9.87 0-17.899 8.029-17.899 17.898V223.716C-17.899 233.585-9.87 241.614 0 241.614H1033.26C1043.129 241.614 1051.158 233.585 1051.158 223.716V17.898C1051.158 8.029 1043.129 0 1033.26 0Z" fill="#f3f9ff" />
<path transform="matrix(1,0,0,-1,1821.4674,424.75813)" d="M0 0H-1033.26C-1044.25 0-1053.159-8.909-1053.159-19.899V-225.716C-1053.159-236.706-1044.25-245.615-1033.26-245.615H0C10.99-245.615 19.899-236.706 19.899-225.716V-19.899C19.899-8.909 10.99 0 0 0M0-4C8.767-4 15.899-11.132 15.899-19.899V-225.716C15.899-234.483 8.767-241.615 0-241.615H-1033.26C-1042.027-241.615-1049.159-234.483-1049.159-225.716V-19.899C-1049.159-11.132-1042.027-4-1033.26-4Z" fill="#ffffff" />
<path transform="matrix(1,0,0,-1,1820.921,420.75819)" d="M0 0H-1033.26C-1044.25 0-1053.159 8.909-1053.159 19.899V50.497C-1053.159 61.486-1044.25 70.396-1033.26 70.396H0C10.99 70.396 19.899 61.486 19.899 50.497V19.899C19.899 8.909 10.99 0 0 0" fill="#ffd200" />
<path transform="matrix(1,0,0,-1,1820.921,420.75819)" stroke-width="2" stroke-linecap="butt" stroke-miterlimit="10" stroke-linejoin="miter" fill="none" stroke="#f3f9ff" d="M0 0H-1033.26C-1044.25 0-1053.159 8.909-1053.159 19.899V50.497C-1053.159 61.486-1044.25 70.396-1033.26 70.396H0C10.99 70.396 19.899 61.486 19.899 50.497V19.899C19.899 8.909 10.99 0 0 0Z" />
<path transform="matrix(1,0,0,-1,788.2076,798.00466)" d="M0 0C-9.87 0-17.899 8.029-17.899 17.899V106.244C-17.899 116.113-9.87 124.143 0 124.143H1033.26C1043.129 124.143 1051.158 116.113 1051.158 106.244V17.899C1051.158 8.029 1043.129 0 1033.26 0Z" fill="#f3f9ff" />
<path transform="matrix(1,0,0,-1,1821.4674,671.8618)" d="M0 0H-1033.26C-1044.25 0-1053.159-8.909-1053.159-19.899V-108.244C-1053.159-119.234-1044.25-128.143-1033.26-128.143H0C10.99-128.143 19.899-119.234 19.899-108.244V-19.899C19.899-8.909 10.99 0 0 0M0-4C8.767-4 15.899-11.132 15.899-19.899V-108.244C15.899-117.011 8.767-124.143 0-124.143H-1033.26C-1042.027-124.143-1049.159-117.011-1049.159-108.244V-19.899C-1049.159-11.132-1042.027-4-1033.26-4Z" fill="#ffffff" />
</g>
<text fill="#1a1a1a" xml:space="preserve" transform="matrix(1 0 -0 1 0 1080)" font-size="26" font-family="ProximaNova-ExtrabldIt" font-style="italic"><tspan y="-685.5791" x="1167.0552 1185.1642 1200.3742 1214.5338 1227.3466 1241.358 1248.118 1254.9119 1267.2749 1276.6349 1283.2909 1296.0829 1311.3059 1326.2793 1332.9353 1355.7477 1370.9993 1386.2092 1401.44 1416.5719 1430.6952">Checklist cho Manager</tspan></text>
<g clip-path="url(#clip_3)">
<path transform="matrix(1,0,0,-1,98.2809,668.3728)" d="M0 0C-9.87 0-17.899 8.029-17.899 17.898V223.716C-17.899 233.585-9.87 241.614 0 241.614H650.129C659.998 241.614 668.027 233.585 668.027 223.716V17.898C668.027 8.029 659.998 0 650.129 0Z" fill="#f3f9ff" />
<path transform="matrix(1,0,0,-1,748.4094,424.75813)" d="M0 0H-650.129C-661.119 0-670.028-8.909-670.028-19.899V-225.716C-670.028-236.706-661.119-245.615-650.129-245.615H0C10.99-245.615 19.899-236.706 19.899-225.716V-19.899C19.899-8.909 10.99 0 0 0M0-4C8.767-4 15.899-11.132 15.899-19.899V-225.716C15.899-234.483 8.767-241.615 0-241.615H-650.129C-658.895-241.615-666.028-234.483-666.028-225.716V-19.899C-666.028-11.132-658.895-4-650.129-4Z" fill="#ffffff" />
<path transform="matrix(1,0,0,-1,98.2838,420.25849)" d="M0 0C-10.7 0-19.402 8.702-19.402 19.399V49.997C-19.402 60.693-10.7 69.396-.003 69.396H650.126C660.822 69.396 669.524 60.693 669.524 49.997V19.399C669.524 8.802 660.873-3.998 650.129-4Z" fill="#1a1a1a" />
<path transform="matrix(1,0,0,-1,748.4094,350.3625)" d="M0 0H-650.129C-661.119 0-670.028-8.909-670.028-19.899V-50.497C-670.028-61.487-661.119-70.396-650.129-70.396L0-74.396C10.99-74.396 19.899-61.487 19.899-50.497V-19.899C19.899-8.909 10.99 0 0 0M0-1C10.421-1 18.899-9.478 18.899-19.899V-50.497C18.899-60.868 10.469-73.396 .006-73.396L-650.129-69.396C-660.55-69.396-669.028-60.917-669.028-50.497V-19.899C-669.028-9.478-660.55-1-650.129-1Z" fill="#f3f9ff" />
</g>
<text xml:space="preserve" transform="matrix(1 0 -0 1 0 1080)" font-size="22" font-family="ProximaNova-BoldIt" font-weight="bold" font-style="italic"><tspan y="-537.4629" x="153.0654 166.3996 172.0316 177.6636 193.48601 205.57282 217.58922 230.87723 237.91504 250.70584 256.17066 267.16627 279.33229 284.96427 291.56428 297.19627 313.46968 326.20988 338.83787 344.46986 354.86265 367.55665 380.29466 385.92665 402.13844 414.63 427.16563 440.0356 445.6676 451.00044 463.66584 474.83964 481.84004 500.57084 513.10208 525.63766 538.5076 544.13967 562.6241 575.17068 587.68869 600.42666 606.05868 617.0873 629.9793">4. Deep-dive - Đào sâu Động lực/Mong muốn và </tspan><tspan y="-511.0629" x="153.0654 169.2772 181.90522 187.53722 200.29943 212.76902 225.50702 231.13903 243.67902 256.307 269.133 274.76499 285.732 298.327 303.893 309.525 320.514 333.27403 346.01203 351.644 364.22364 376.85163 389.74363 395.3756 402.75883 415.3868 421.0188 431.8494 444.2904 456.9558">Độ phù hợp với văn hoá tổ chức</tspan></text>
<g clip-path="url(#clip_4)">
<path transform="matrix(1,0,0,-1,98.2809,798.00466)" d="M0 0C-9.87 0-17.899 8.029-17.899 17.899V106.244C-17.899 116.113-9.87 124.143 0 124.143H650.129C659.998 124.143 668.027 116.113 668.027 106.244V17.899C668.027 8.029 659.998 0 650.129 0Z" fill="#f3f9ff" />
<path transform="matrix(1,0,0,-1,748.4094,671.8618)" d="M0 0H-650.129C-661.119 0-670.028-8.909-670.028-19.899V-108.244C-670.028-119.234-661.119-128.143-650.129-128.143H0C10.99-128.143 19.899-119.234 19.899-108.244V-19.899C19.899-8.909 10.99 0 0 0M0-4C8.767-4 15.899-11.132 15.899-19.899V-108.244C15.899-117.011 8.767-124.143 0-124.143H-650.129C-658.895-124.143-666.028-117.011-666.028-108.244V-19.899C-666.028-11.132-658.895-4-650.129-4Z" fill="#ffffff" />
</g>
<text fill="#ffffff" xml:space="preserve" transform="matrix(1 0 -0 1 0 1080)" font-size="26" font-family="ProximaNova-ExtrabldIt" font-style="italic"><tspan y="-686.0889" x="364.1875 381.9715 397.1295 412.52149 419.1775 428.7117 438.08729 453.3311">Cấu trúc</tspan></text>
<text xml:space="preserve" transform="matrix(1 0 -0 1 0 1080)" font-size="18" font-family="ProximaNova-Medium"><tspan y="-610.3301" x="868.6592 876.89059 885.83657 890.4805 900.8269 911.1229 915.7669 926.0539 936.0673 946.4533 951.0973 956.42349 966.5611 975.2533 985.2829 995.0677 999.3517 1003.99569 1017.2095 1021.40347 1026.0475 1034.4192 1043.907 1054.203 1058.847 1069.1845 1078.6795 1088.7415 1093.3855 1102.1857 1112.208 1122.477 1132.5391 1137.1831 1145.8231 1156.0615 1166.075 1176.4609 1181.105 1187.0613 1195.6348 1201.2688 1210.312 1214.506 1219.15 1224.6581 1230.6449 1234.8389 1239.4829 1249.4478 1258.7268 1267.5432">Lý do ứng tuyển: Vì sao bạn chọn công ty/vị trí này?</tspan><tspan y="-574.3301" x="868.6592 879.44839 888.39437 893.0383 901.73776 912.0068 922.0202 932.4062 937.0502 945.6901 955.9285 965.9401 976.3261 980.9701 989.98269 994.08126 1004.16128 1013.08926 1017.3732 1022.0172 1033.6795 1043.1744 1053.2365 1057.8805 1072.5794 1082.8142 1092.8276 1103.2136 1107.8577 1118.0817 1128.3777 1132.5717 1137.2157 1147.8178 1151.9325 1161.9369 1171.9989 1176.643 1186.9822 1191.1762 1195.8202 1206.1162 1210.7603 1219.4003 1229.6387 1239.6521 1250.0381 1254.6821 1263.6948 1267.7933 1277.8733 1287.0803 1291.863 1302.087 1312.3129 1316.5068 1321.1509 1331.1661 1341.4855 1351.6932 1356.4489 1366.7394 1376.7654 1386.2604 1396.3224 1400.9664 1405.218 1413.7932 1418.8081 1433.507 1443.704 1447.898 1452.542 1458.05 1464.0692 1474.025 1484.321 1494.3345 1504.7205 1509.3645 1513.4649 1522.9293 1537.6893 1542.3334 1551.3461 1555.4446 1565.5245 1573.6317">Kỳ vọng công việc: Bạn mong đợi điều gì ở công việc/đội ngũ/quản lý/môi trường làm việc?</tspan><tspan y="-538.3301" x="868.6592 883.5776 893.6306 902.5586 907.2026 917.4266 927.7226 932.3666 941.16677 951.14779 961.2098 965.85379 976.07778 986.3468 996.3602 1006.7462 1011.3902 1021.4144 1031.7105 1040.6384 1045.2825 1055.3067 1065.5325 1069.4655 1073.7495 1078.3936 1091.242 1100.7369 1110.799 1115.443 1125.7948 1135.0739 1144.0199 1148.664 1159.0014 1168.4963 1178.5584 1183.2024 1191.8406 1202.1366 1206.7807 1212.1393 1222.2013 1226.8453 1236.8677 1247.1637 1256.0917 1260.7357 1270.7095 1279.9885 1288.9346 1293.5786 1302.53 1312.0125 1316.2064 1320.8505 1326.3585 1336.3143 1340.4129 1350.4442 1360.5062 1365.1503 1375.7505 1379.8671 1389.8696 1399.9317 1404.5757 1414.9166 1418.9342">Mức độ chủ động học hỏi: Gần đây bạn có tự học hay cải thiện điều gì?</tspan><tspan y="-502.33009" x="868.6592 881.594 885.73037 895.69699 905.777 910.42098 920.402 930.3578 940.6538 950.66726 961.0532 965.6972 975.71066 986.0084 995.97866 1006.05868 1010.70266 1020.71609 1031.0138 1040.9696 1045.0664 1055.0996 1065.1238 1069.4078 1074.0519 1089.0352 1099.0792 1108.0072 1112.6513 1118.1593 1122.2273 1132.1975 1142.2595 1146.9036 1153.8732 1163.9585 1174.5964 1179.2405 1189.2359 1198.7308 1213.4909 1218.1349 1223.4126 1233.7086 1237.9026 1242.5466 1251.3342 1261.3602 1270.9363 1275.5803 1285.9177 1295.4146 1305.4766 1310.1206 1314.2191 1323.7952 1328.4392 1338.7802 1342.7977 1351.0778 1355.7218 1367.384 1376.879 1386.941 1391.5851 1397.0932 1407.0975 1416.4089 1425.355 1429.999 1440.5884 1453.4944 1466.5858 1471.1362 1481.7562 1491.9172 1504.8233 1517.5888 1522.1554 1535.9254 1540.5695 1549.2095 1559.5055 1564.1495 1569.6576 1579.6799 1589.7599 1594.4039 1604.7557 1614.1968 1624.5828 1629.2268 1639.512 1649.5254 1659.9114 1664.5554 1679.2434 1689.2875 1698.2155 1702.8595 1708.3676 1712.4356 1722.4058 1732.4678">Định hướng nghề nghiệp: Mục tiêu 1–2 năm tới của bạn là gì? Bạn thấy SUN.STUDIO có thể đáp ứng mục tiêu </tspan><tspan y="-478.3361" x="868.6592 878.63119 887.9102 896.85629 901.5003 911.4723 921.4623 931.5243 936.16836 941.6764 951.6988 961.7806 966.4246 976.3966 985.8826 995.3272">này như thế nào?</tspan><tspan y="-442.3361" x="868.6592 881.6588 891.6128 895.80679 900.45077 909.2509 919.2031 929.26516 933.9091 938.04019 947.5225 951.71658 956.36056 966.3631 975.3091 979.95309 988.65249 998.9215 1008.93496 1019.3209 1023.9649 1032.7526 1042.7786 1052.3546 1056.9987 1067.2875 1077.3009 1087.6869 1092.3309 1101.3418 1105.4098 1115.4105">Ghi chú lại kỳ vọng của ứng viên</tspan></text>
<g clip-path="url(#clip_5)">
<path transform="matrix(1,0,0,-1,0,1080)" d="M859.859 625.027H844.111V609.279H859.859ZM858.859 610.28H845.111V624.028H858.859Z" />
<path transform="matrix(1,0,0,-1,0,1080)" d="M859.859 588.439H844.111V572.69107H859.859ZM858.859 573.691H845.111V587.43899H858.859Z" />
<path transform="matrix(1,0,0,-1,0,1080)" d="M859.859 552.227H844.111V536.479H859.859ZM858.859 537.479H845.111V551.227H858.859Z" />
<path transform="matrix(1,0,0,-1,0,1080)" d="M859.859 516.729H844.111V500.98103H859.859ZM858.859 501.981H845.111V515.729H858.859Z" />
<path transform="matrix(1,0,0,-1,0,1080)" d="M859.859 454.55H844.111V438.802H859.859ZM858.859 439.802H845.111V453.55H858.859Z" />
</g>
<text xml:space="preserve" transform="matrix(1 0 -0 1 0 1080)" font-size="18" font-family="ProximaNova-Medium"><tspan y="-354.5605" x="867.877 880.7614 890.989 895.183 899.82699 910.11398 920.1274 930.51339 935.15737 944.16818 948.2362 958.23886 968.02188 972.30587 976.9498 984.49368 996.1595 1005.6545 1015.7165 1020.3605 1029.0005 1039.2965 1043.9406 1052.8685 1062.3024 1072.3644 1077.0084 1087.0308 1097.2584 1101.4524 1106.0964 1116.0613 1125.5491 1135.8451 1140.4891 1150.8176 1160.2821 1170.2487 1180.3286 1184.9727 1193.7728 1203.7645 1214.0606 1218.7046 1223.9517 1233.9273 1243.3917 1258.1517 1262.7958 1272.1414 1282.133 1292.3715 1302.3849 1312.004 1320.698">Hỏi ứng viên: “Bạn có câu hỏi nào dành cho team không?”</tspan><tspan y="-318.5605" x="867.877 876.77987 882.835 892.411 897.055 901.23287 911.5289 915.7229 920.3669 930.3803 940.7303 950.2019 960.2639 964.9079 975.2759 985.5449 995.60696 999.8909 1004.5349 1010.0429 1020.0239 1030.0752 1039.0032 1043.6472 1048.9249 1058.6143 1062.8983 1067.5424 1077.5089 1087.5133 1097.0227 1102.5308 1107.1748 1117.4653 1127.4607 1136.9017 1146.9638 1151.6078 1160.3073 1170.6033 1174.7973 1179.4413 1184.9494 1194.941 1205.1795 1215.1929 1225.5789 1230.2229 1235.731 1239.8367 1249.8987 1254.5427 1263.3411 1273.3167 1277.4711 1287.4376 1297.5176 1302.1616 1307.6697 1317.692 1327.8963 1337.9097 1348.2957 1352.9397 1361.7291 1371.7551 1381.3312 1385.9752 1394.6152 1404.8536 1414.8671 1425.253 1429.8971 1435.8534">Trả lời ngắn gọn, thực tế, nhất quán với thông tin chính thống của công ty</tspan></text>
<g clip-path="url(#clip_6)">
<path transform="matrix(1,0,0,-1,0,1080)" d="M859.859 368.681H844.111V352.933H859.859ZM858.859 353.933H845.111V367.681H858.859Z" />
<path transform="matrix(1,0,0,-1,0,1080)" d="M859.859 332.47H844.111V316.72203H859.859ZM858.859 317.722H845.111V331.46998H858.859Z" />
<path transform="matrix(1,0,0,-1,788.2076,932.05349)" d="M0 0C-9.87 0-17.899 8.029-17.899 17.898V112.15C-17.899 122.02-9.87 130.049 0 130.049H1033.26C1043.129 130.049 1051.158 122.02 1051.158 112.15V17.898C1051.158 8.029 1043.129 0 1033.26 0Z" fill="#f3f9ff" />
<path transform="matrix(1,0,0,-1,1821.4674,800.00466)" d="M0 0H-1033.26C-1044.25 0-1053.159-8.909-1053.159-19.899V-114.15C-1053.159-125.14-1044.25-134.049-1033.26-134.049H0C10.99-134.049 19.899-125.14 19.899-114.15V-19.899C19.899-8.909 10.99 0 0 0M0-4C8.767-4 15.899-11.132 15.899-19.899V-114.15C15.899-122.917 8.767-130.049 0-130.049H-1033.26C-1042.027-130.049-1049.159-122.917-1049.159-114.15V-19.899C-1049.159-11.132-1042.027-4-1033.26-4Z" fill="#ffffff" />
<path transform="matrix(1,0,0,-1,98.2809,932.05349)" d="M0 0C-9.87 0-17.899 8.029-17.899 17.898V112.15C-17.899 122.02-9.87 130.049 0 130.049H650.129C659.998 130.049 668.027 122.02 668.027 112.15V17.898C668.027 8.029 659.998 0 650.129 0Z" fill="#f3f9ff" />
<path transform="matrix(1,0,0,-1,748.4094,800.00466)" d="M0 0H-650.129C-661.119 0-670.028-8.909-670.028-19.899V-114.15C-670.028-125.14-661.119-134.049-650.129-134.049H0C10.99-134.049 19.899-125.14 19.899-114.15V-19.899C19.899-8.909 10.99 0 0 0M0-4C8.767-4 15.899-11.132 15.899-19.899V-114.15C15.899-122.917 8.767-130.049 0-130.049H-650.129C-658.895-130.049-666.028-122.917-666.028-114.15V-19.899C-666.028-11.132-658.895-4-650.129-4Z" fill="#ffffff" />
</g>
<text xml:space="preserve" transform="matrix(1 0 -0 1 0 1080)" font-size="22" font-family="ProximaNova-BoldIt" font-weight="bold" font-style="italic"><tspan y="-351.7627" x="153.0654 166.63282 172.26482 177.89682 192.92282 205.72682 218.30643 231.09723 236.51363 249.28023 262.09965 269.51145 281.67744 287.30943 304.2076 316.7806 328.7728 339.1656 346.71159 352.11698 364.64817 377.25639 387.75038 393.38236 399.98237 405.61436 416.59458 429.39198 441.92539 454.79539 460.42738 472.96299 485.74278 498.31138 510.47737 516.1094 530.32138 535.95339 547.00399 554.83816 567.73019 573.3622 578.717 591.31198 596.8779 602.50997 613.30319 625.9972 638.73519 644.3672 656.9072 669.3988 674.9648">5. Candidate Questions - Lắng nghe &amp; Trả lời câu hỏi </tspan><tspan y="-325.3627" x="153.0654 163.6958 176.3194 189.2114 194.84339 207.62538 220.15879 233.02878 238.66077 249.91156 255.30156 267.29158">của ứng viên</tspan><tspan y="-207.9927" x="153.0654 166.5558 172.1878 177.81981 192.8634 198.2578 210.7934 221.1004 233.2664 238.8984 245.49842 251.13042 263.53623 276.11585 288.64704 301.18266 314.05265 319.68464 332.57664 345.31684 357.94483 363.5768 374.37 387.09919 398.07719 403.70918 416.40538 428.84858 441.39079 452.36878 458.00077 465.54676 470.90156 482.87397 495.69996 501.33195 508.87794 521.44656 533.5444 546.17239 551.8044 566.01638 571.6484 586.43679 599.199 617.943 623.575 636.17">6. Close - Thông báo các bước tiếp theo &amp; Cảm ơn</tspan></text>
<text fill="#ff5533" xml:space="preserve" transform="matrix(1 0 -0 1 0 1080)" font-size="28" font-family="ProximaNova-BoldIt" font-weight="bold" font-style="italic"><tspan y="-845.7549" x="78.6074 98.9074 115.1278 131.0766 146.56061 153.7286 170.621 187.2642 208.4602 215.6282 224.0282 231.1962 246.8902 262.79139 269.65699 276.475 292.1914 313.72343 322.29423 338.34104 354.66505 361.83305 378.32783 394.971">Nghe 80% - Follow-up 20%</tspan></text>
<text xml:space="preserve" transform="matrix(1 0 -0 1 0 1080)" font-size="18" font-family="ProximaNova-Medium"><tspan y="-225.8076" x="867.877 880.2628 889.7578 904.5178 909.1618 919.4578 929.51986 934.1638 944.4508 954.46426 964.8502 969.4942 978.5068 982.5748 992.57388">Cảm ơn ứng viên</tspan><tspan y="-189.8076" x="867.877 878.02548 888.0173 898.2557 908.2691 918.6551 923.2991 933.60586 943.0648 953.36087 958.0048 968.2954 978.4312 987.3772 992.0212 997.5292 1003.5159 1007.602 1017.5686 1027.6486 1032.2926 1037.6206 1047.7582 1056.4486 1066.48 1076.542 1081.186 1091.5162 1101.5206 1111.534 1121.92 1126.5641 1132.0722 1136.1707 1146.1138 1156.4998 1161.1438 1166.6519 1176.6436 1186.7001 1196.9961 1201.6401 1213.1962 1217.8402 1223.3483 1233.3706 1243.6666 1247.8606 1252.5046 1262.8186 1266.9046 1276.3709 1286.4329 1291.0769 1296.585 1306.575 1316.8134 1326.8286 1337.2146 1341.8587 1352.1637 1361.6228 1371.9188 1376.5629 1385.5125 1395.5276 1401.0357 1405.6797 1415.9702 1425.9962">Thông báo quy trình tuyển dụng tiếp theo &amp; thời gian thông báo kết quả</tspan></text>
<g clip-path="url(#clip_7)">
<path transform="matrix(1,0,0,-1,0,1080)" d="M859.859 239.929H844.111V224.181H859.859ZM858.859 225.181H845.111V238.929H858.859Z" />
<path transform="matrix(1,0,0,-1,0,1080)" d="M859.859 203.717H844.111V187.969H859.859ZM858.859 188.969H845.111V202.717H858.859Z" />
</g>
</g>
<g ns1:groupmode="layer" ns1:label="Layer 2">
</g>
</g>
</svg>