<?xml version='1.0' encoding='utf-8'?>
<svg xmlns="http://www.w3.org/2000/svg" xmlns:ns1="http://www.inkscape.org/namespaces/inkscape" version="1.1" width="2938.83" height="2623.16" viewBox="0 0 2938.83 2623.16">
<defs>
<clipPath id="clip_1">
<path transform="matrix(1,0,0,-1,0,2623.16)" d="M0 2623.157H2938.834V0H0Z" />
</clipPath>
<clipPath id="clip_2">
<path transform="matrix(1,0,0,-1,0,2623.16)" d="M0 2623.157H2938.834V0H0Z" />
</clipPath>
<clipPath id="clip_3">
<path transform="matrix(1,0,0,-1,0,2623.16)" d="M0 2623.157H2938.834V0H0Z" />
</clipPath>
<clipPath id="clip_4">
<path transform="matrix(1,0,0,-1,0,2623.16)" d="M0 2623.157H2938.834V0H0Z" />
</clipPath>
<clipPath id="clip_5">
<path transform="matrix(1,0,0,-1,0,2623.16)" d="M0 2623.157H2938.834V0H0Z" />
</clipPath>
<clipPath id="clip_6">
<path transform="matrix(1,0,0,-1,0,2623.16)" d="M0 2623.157H2938.834V0H0Z" />
</clipPath>
<clipPath id="clip_7">
<path transform="matrix(1,0,0,-1,0,2623.16)" d="M0 2623.157H2938.834V0H0Z" />
</clipPath>
<clipPath id="clip_8">
<path transform="matrix(1,0,0,-1,0,2623.16)" d="M0 2623.157H2938.834V0H0Z" />
</clipPath>
<clipPath id="clip_9">
<path transform="matrix(1,0,0,-1,0,2623.16)" d="M0 2623.157H2938.834V0H0Z" />
</clipPath>
<clipPath id="clip_10">
<path transform="matrix(1,0,0,-1,0,2623.16)" d="M0 2623.157H2938.834V0H0Z" />
</clipPath>
<clipPath id="clip_11">
<path transform="matrix(1,0,0,-1,0,2623.16)" d="M0 2623.157H2938.834V0H0Z" />
</clipPath>
<clipPath id="clip_12">
<path transform="matrix(1,0,0,-1,0,2623.16)" d="M0 2623.157H2938.834V0H0Z" />
</clipPath>
<clipPath id="clip_13">
<path transform="matrix(1,0,0,-1,0,2623.16)" d="M0 2623.157H2938.834V0H0Z" />
</clipPath>
<clipPath id="clip_14">
<path transform="matrix(1,0,0,-1,0,2623.16)" d="M0 2623.157H2938.834V0H0Z" />
</clipPath>
<clipPath id="clip_15">
<path transform="matrix(1,0,0,-1,0,2623.16)" d="M0 2623.157H2938.834V0H0Z" />
</clipPath>
<clipPath id="clip_16">
<path transform="matrix(1,0,0,-1,0,2623.16)" d="M0 2623.157H2938.834V0H0Z" />
</clipPath>
<clipPath id="clip_17">
<path transform="matrix(1,0,0,-1,0,2623.16)" d="M0 2623.157H2938.834V0H0Z" />
</clipPath>
<clipPath id="clip_18">
<path transform="matrix(1,0,0,-1,0,2623.16)" d="M641.363-260.832H2197.89V1295.69H641.363Z" />
</clipPath>
<clipPath id="clip_19">
<path transform="matrix(1,0,0,-1,0,2623.16)" d="M858.483-43.7116H1980.77V1078.57H858.483Z" />
</clipPath>
<clipPath id="clip_20">
<path transform="matrix(1,0,0,-1,0,2623.16)" d="M641.363-260.832H2197.89V1295.69H641.363Z" />
</clipPath>
</defs>
<g>
<g ns1:groupmode="layer" ns1:label="Layer 1">
<g clip-path="url(#clip_1)">
<path transform="matrix(1,0,0,-1,1836.3233,467.93824)" d="M0 0C-12.555 0-22.769 10.214-22.769 22.77V76.235C-22.769 88.79-12.555 99.004 0 99.004H676.296C688.851 99.004 699.064 88.79 699.064 76.235V22.77C699.064 10.214 688.851 0 676.296 0Z" fill="#ff5533" />
<path transform="matrix(1,0,0,-1,2512.6187,366.93434)" d="M0 0H-676.295C-689.975 0-701.064-11.09-701.064-24.769V-78.235C-701.064-91.914-689.975-103.004-676.295-103.004H0C13.68-103.004 24.769-91.914 24.769-78.235V-24.769C24.769-11.09 13.68 0 0 0M0-4C11.452-4 20.769-13.317 20.769-24.769V-78.235C20.769-89.687 11.452-99.004 0-99.004H-676.295C-687.747-99.004-697.064-89.687-697.064-78.235V-24.769C-697.064-13.317-687.747-4-676.295-4Z" fill="#ffffff" />
<path transform="matrix(1,0,0,-1,1839.5244,576.6638)" d="M0 0C-12.68 0-22.996 10.316-22.996 22.996V81.729C-22.996 94.409-12.68 104.726 0 104.726H675.841C688.521 104.726 698.837 94.409 698.837 81.729V22.996C698.837 10.316 688.521 0 675.841 0Z" fill="#f3f9ff" />
<path transform="matrix(1,0,0,-1,2515.3653,469.938)" d="M0 0H-675.841C-689.646 0-700.837-11.191-700.837-24.996V-83.73C-700.837-97.535-689.646-108.726-675.841-108.726H0C13.805-108.726 24.996-97.535 24.996-83.73V-24.996C24.996-11.191 13.805 0 0 0M0-4C11.577-4 20.996-13.419 20.996-24.996V-83.73C20.996-95.307 11.577-104.726 0-104.726H-675.841C-687.418-104.726-696.837-95.307-696.837-83.73V-24.996C-696.837-13.419-687.418-4-675.841-4Z" fill="#ffffff" />
<path transform="matrix(1,0,0,-1,1197.2442,467.93824)" d="M0 0C-12.555 0-22.769 10.215-22.769 22.77V76.235C-22.769 88.79-12.555 99.004 0 99.004H586.934C599.489 99.004 609.703 88.79 609.703 76.235V22.77C609.703 10.215 599.489 0 586.934 0Z" fill="#ff5533" />
<path transform="matrix(1,0,0,-1,1784.1782,366.93434)" d="M0 0H-586.934C-600.614 0-611.703-11.09-611.703-24.769V-78.235C-611.703-91.914-600.614-103.004-586.934-103.004H0C13.679-103.004 24.769-91.914 24.769-78.235V-24.769C24.769-11.09 13.679 0 0 0M0-4C11.452-4 20.769-13.317 20.769-24.769V-78.235C20.769-89.687 11.452-99.004 0-99.004H-586.934C-598.386-99.004-607.703-89.687-607.703-78.235V-24.769C-607.703-13.317-598.386-4-586.934-4Z" fill="#ffffff" />
<path transform="matrix(1,0,0,-1,1200.0791,576.6638)" d="M0 0C-12.68 0-22.996 10.316-22.996 22.996V81.729C-22.996 94.409-12.68 104.726 0 104.726H586.479C599.159 104.726 609.476 94.409 609.476 81.729V22.996C609.476 10.316 599.159 0 586.479 0Z" fill="#f3f9ff" />
<path transform="matrix(1,0,0,-1,1786.5586,469.938)" d="M0 0H-586.479C-600.285 0-611.476-11.191-611.476-24.996V-83.73C-611.476-97.535-600.285-108.726-586.479-108.726H0C13.805-108.726 24.996-97.535 24.996-83.73V-24.996C24.996-11.191 13.805 0 0 0M0-4C11.577-4 20.996-13.419 20.996-24.996V-83.73C20.996-95.307 11.577-104.726 0-104.726H-586.479C-598.057-104.726-607.476-95.307-607.476-83.73V-24.996C-607.476-13.419-598.057-4-586.479-4Z" fill="#ffffff" />
<path transform="matrix(1,0,0,-1,459.5107,467.93824)" d="M0 0C-12.555 0-22.77 10.215-22.77 22.77V76.235C-22.77 88.79-12.555 99.004 0 99.004H306.206C318.761 99.004 328.975 88.79 328.975 76.235V22.77C328.975 10.215 318.761 0 306.206 0Z" fill="#ff5533" />
<path transform="matrix(1,0,0,-1,765.7162,366.93434)" d="M0 0H-306.206C-319.885 0-330.975-11.09-330.975-24.769V-78.235C-330.975-91.914-319.885-103.004-306.206-103.004H0C13.68-103.004 24.769-91.914 24.769-78.235V-24.769C24.769-11.09 13.68 0 0 0M0-4C11.452-4 20.769-13.317 20.769-24.769V-78.235C20.769-89.687 11.452-99.004 0-99.004H-306.206C-317.658-99.004-326.975-89.687-326.975-78.235V-24.769C-326.975-13.317-317.658-4-306.206-4Z" fill="#ffffff" />
<path transform="matrix(1,0,0,-1,461.1835,576.6638)" d="M0 0C-12.68 0-22.996 10.316-22.996 22.996V81.729C-22.996 94.409-12.68 104.726 0 104.726H302.86C315.54 104.726 325.856 94.409 325.856 81.729V22.996C325.856 10.316 315.54 0 302.86 0Z" fill="#f3f9ff" />
<path transform="matrix(1,0,0,-1,764.0439,469.938)" d="M0 0H-302.861C-316.666 0-327.856-11.191-327.856-24.996V-83.73C-327.856-97.535-316.666-108.726-302.861-108.726H0C13.805-108.726 24.996-97.535 24.996-83.73V-24.996C24.996-11.191 13.805 0 0 0M0-4C11.577-4 20.996-13.419 20.996-24.996V-83.73C20.996-95.307 11.577-104.726 0-104.726H-302.861C-314.438-104.726-323.856-95.307-323.856-83.73V-24.996C-323.856-13.419-314.438-4-302.861-4Z" fill="#ffffff" />
<path transform="matrix(1,0,0,-1,813.8085,467.93824)" d="M0 0C-12.555 0-22.769 10.215-22.769 22.77V76.235C-22.769 88.79-12.555 99.004 0 99.004H333.898C346.453 99.004 356.667 88.79 356.667 76.235V22.77C356.667 10.215 346.453 0 333.898 0Z" fill="#ff5533" />
<path transform="matrix(1,0,0,-1,1147.7066,366.93434)" d="M0 0H-333.898C-347.578 0-358.667-11.09-358.667-24.769V-78.235C-358.667-91.914-347.578-103.004-333.898-103.004H0C13.679-103.004 24.769-91.914 24.769-78.235V-24.769C24.769-11.09 13.679 0 0 0M0-4C11.452-4 20.769-13.317 20.769-24.769V-78.235C20.769-89.687 11.452-99.004 0-99.004H-333.898C-345.35-99.004-354.667-89.687-354.667-78.235V-24.769C-354.667-13.317-345.35-4-333.898-4Z" fill="#ffffff" />
<path transform="matrix(1,0,0,-1,814.0361,576.6638)" d="M0 0C-12.68 0-22.996 10.316-22.996 22.996V81.729C-22.996 94.409-12.68 104.726 0 104.726H333.443C346.123 104.726 356.44 94.409 356.44 81.729V22.996C356.44 10.316 346.123 0 333.443 0Z" fill="#f3f9ff" />
<path transform="matrix(1,0,0,-1,1147.4795,469.938)" d="M0 0H-333.444C-347.249 0-358.44-11.191-358.44-24.996V-83.73C-358.44-97.535-347.249-108.726-333.444-108.726H0C13.805-108.726 24.996-97.535 24.996-83.73V-24.996C24.996-11.191 13.805 0 0 0M0-4C11.577-4 20.996-13.419 20.996-24.996V-83.73C20.996-95.307 11.577-104.726 0-104.726H-333.444C-345.021-104.726-354.44-95.307-354.44-83.73V-24.996C-354.44-13.419-345.021-4-333.444-4Z" fill="#ffffff" />
</g>
<g clip-path="url(#clip_2)">
<path transform="matrix(1,0,0,-1,1839.5244,685.3894)" d="M0 0C-12.68 0-22.996 10.316-22.996 22.996V81.729C-22.996 94.409-12.68 104.726 0 104.726H675.841C688.521 104.726 698.837 94.409 698.837 81.729V22.996C698.837 10.316 688.521 0 675.841 0Z" fill="#f3f9ff" />
<path transform="matrix(1,0,0,-1,2515.3653,578.6638)" d="M0 0H-675.841C-689.646 0-700.837-11.191-700.837-24.996V-83.73C-700.837-97.535-689.646-108.726-675.841-108.726H0C13.805-108.726 24.996-97.535 24.996-83.73V-24.996C24.996-11.191 13.805 0 0 0M0-4C11.577-4 20.996-13.419 20.996-24.996V-83.73C20.996-95.307 11.577-104.726 0-104.726H-675.841C-687.418-104.726-696.837-95.307-696.837-83.73V-24.996C-696.837-13.419-687.418-4-675.841-4Z" fill="#ffffff" />
<path transform="matrix(1,0,0,-1,1200.0791,685.3894)" d="M0 0C-12.68 0-22.996 10.316-22.996 22.996V81.729C-22.996 94.409-12.68 104.726 0 104.726H586.479C599.159 104.726 609.476 94.409 609.476 81.729V22.996C609.476 10.316 599.159 0 586.479 0Z" fill="#f3f9ff" />
<path transform="matrix(1,0,0,-1,1786.5586,578.6638)" d="M0 0H-586.479C-600.285 0-611.476-11.191-611.476-24.996V-83.73C-611.476-97.535-600.285-108.726-586.479-108.726H0C13.805-108.726 24.996-97.535 24.996-83.73V-24.996C24.996-11.191 13.805 0 0 0M0-4C11.577-4 20.996-13.419 20.996-24.996V-83.73C20.996-95.307 11.577-104.726 0-104.726H-586.479C-598.057-104.726-607.476-95.307-607.476-83.73V-24.996C-607.476-13.419-598.057-4-586.479-4Z" fill="#ffffff" />
<path transform="matrix(1,0,0,-1,461.1835,685.3894)" d="M0 0C-12.68 0-22.996 10.316-22.996 22.996V81.729C-22.996 94.409-12.68 104.726 0 104.726H302.86C315.54 104.726 325.856 94.409 325.856 81.729V22.996C325.856 10.316 315.54 0 302.86 0Z" fill="#f3f9ff" />
<path transform="matrix(1,0,0,-1,764.0439,578.6638)" d="M0 0H-302.861C-316.666 0-327.856-11.191-327.856-24.996V-83.73C-327.856-97.535-316.666-108.726-302.861-108.726H0C13.805-108.726 24.996-97.535 24.996-83.73V-24.996C24.996-11.191 13.805 0 0 0M0-4C11.577-4 20.996-13.419 20.996-24.996V-83.73C20.996-95.307 11.577-104.726 0-104.726H-302.861C-314.438-104.726-323.856-95.307-323.856-83.73V-24.996C-323.856-13.419-314.438-4-302.861-4Z" fill="#ffffff" />
<path transform="matrix(1,0,0,-1,814.0361,685.3894)" d="M0 0C-12.68 0-22.996 10.316-22.996 22.996V81.729C-22.996 94.409-12.68 104.726 0 104.726H333.443C346.123 104.726 356.44 94.409 356.44 81.729V22.996C356.44 10.316 346.123 0 333.443 0Z" fill="#f3f9ff" />
<path transform="matrix(1,0,0,-1,1147.4795,578.6638)" d="M0 0H-333.444C-347.249 0-358.44-11.191-358.44-24.996V-83.73C-358.44-97.535-347.249-108.726-333.444-108.726H0C13.805-108.726 24.996-97.535 24.996-83.73V-24.996C24.996-11.191 13.805 0 0 0M0-4C11.577-4 20.996-13.419 20.996-24.996V-83.73C20.996-95.307 11.577-104.726 0-104.726H-333.444C-345.021-104.726-354.44-95.307-354.44-83.73V-24.996C-354.44-13.419-345.021-4-333.444-4Z" fill="#ffffff" />
<path transform="matrix(1,0,0,-1,814.0361,1046.3591)" d="M0 0C-12.68 0-22.996 10.315-22.996 22.995V333.974C-22.996 346.653-12.68 356.97 0 356.97H333.443C346.123 356.97 356.44 346.653 356.44 333.974V22.995C356.44 10.315 346.123 0 333.443 0Z" fill="#f3f9ff" />
<path transform="matrix(1,0,0,-1,1147.4795,687.38967)" d="M0 0H-333.444C-347.249 0-358.44-11.191-358.44-24.996V-335.974C-358.44-349.779-347.249-360.97-333.444-360.97H0C13.805-360.97 24.996-349.779 24.996-335.974V-24.996C24.996-11.191 13.805 0 0 0M0-4C11.577-4 20.996-13.419 20.996-24.996V-335.974C20.996-347.551 11.577-356.97 0-356.97H-333.444C-345.021-356.97-354.44-347.551-354.44-335.974V-24.996C-354.44-13.419-345.021-4-333.444-4Z" fill="#ffffff" />
</g>
<g clip-path="url(#clip_3)">
<path transform="matrix(1,0,0,-1,1839.5244,1046.3591)" d="M0 0C-12.68 0-22.996 10.315-22.996 22.995V333.974C-22.996 346.653-12.68 356.97 0 356.97H675.841C688.521 356.97 698.837 346.653 698.837 333.974V22.995C698.837 10.315 688.521 0 675.841 0Z" fill="#f3f9ff" />
<path transform="matrix(1,0,0,-1,2515.3653,687.38967)" d="M0 0H-675.841C-689.646 0-700.837-11.191-700.837-24.996V-335.974C-700.837-349.779-689.646-360.97-675.841-360.97H0C13.805-360.97 24.996-349.779 24.996-335.974V-24.996C24.996-11.191 13.805 0 0 0M0-4C11.577-4 20.996-13.419 20.996-24.996V-335.974C20.996-347.551 11.577-356.97 0-356.97H-675.841C-687.418-356.97-696.837-347.551-696.837-335.974V-24.996C-696.837-13.419-687.418-4-675.841-4Z" fill="#ffffff" />
<path transform="matrix(1,0,0,-1,1200.0791,794.11599)" d="M0 0C-12.68 0-22.996 10.316-22.996 22.996V81.73C-22.996 94.41-12.68 104.727 0 104.727H586.479C599.159 104.727 609.476 94.41 609.476 81.73V22.996C609.476 10.316 599.159 0 586.479 0Z" fill="#f3f9ff" />
<path transform="matrix(1,0,0,-1,1786.5586,687.38967)" d="M0 0H-586.479C-600.285 0-611.476-11.191-611.476-24.996V-83.73C-611.476-97.535-600.285-108.726-586.479-108.726H0C13.805-108.726 24.996-97.535 24.996-83.73V-24.996C24.996-11.191 13.805 0 0 0M0-4C11.577-4 20.996-13.419 20.996-24.996V-83.73C20.996-95.307 11.577-104.726 0-104.726H-586.479C-598.057-104.726-607.476-95.307-607.476-83.73V-24.996C-607.476-13.419-598.057-4-586.479-4Z" fill="#ffffff" />
<path transform="matrix(1,0,0,-1,461.1835,794.11599)" d="M0 0C-12.68 0-22.996 10.316-22.996 22.996V81.73C-22.996 94.41-12.68 104.727 0 104.727H302.86C315.54 104.727 325.856 94.41 325.856 81.73V22.996C325.856 10.316 315.54 0 302.86 0Z" fill="#f3f9ff" />
<path transform="matrix(1,0,0,-1,764.0439,687.38967)" d="M0 0H-302.861C-316.666 0-327.856-11.191-327.856-24.996V-83.73C-327.856-97.535-316.666-108.726-302.861-108.726H0C13.805-108.726 24.996-97.535 24.996-83.73V-24.996C24.996-11.191 13.805 0 0 0M0-4C11.577-4 20.996-13.419 20.996-24.996V-83.73C20.996-95.307 11.577-104.726 0-104.726H-302.861C-314.438-104.726-323.856-95.307-323.856-83.73V-24.996C-323.856-13.419-314.438-4-302.861-4Z" fill="#ffffff" />
</g>
<g clip-path="url(#clip_4)">
<path transform="matrix(1,0,0,-1,1200.0791,934.65798)" d="M0 0C-12.68 0-22.996 10.316-22.996 22.996V113.547C-22.996 126.227-12.68 136.542 0 136.542H586.479C599.159 136.542 609.476 126.227 609.476 113.547V22.996C609.476 10.316 599.159 0 586.479 0Z" fill="#f3f9ff" />
<path transform="matrix(1,0,0,-1,1786.5586,796.1155)" d="M0 0H-586.479C-600.285 0-611.476-11.191-611.476-24.996V-115.546C-611.476-129.352-600.285-140.542-586.479-140.542H0C13.805-140.542 24.996-129.352 24.996-115.546V-24.996C24.996-11.191 13.805 0 0 0M0-4C11.577-4 20.996-13.419 20.996-24.996V-115.546C20.996-127.124 11.577-136.542 0-136.542H-586.479C-598.057-136.542-607.476-127.124-607.476-115.546V-24.996C-607.476-13.419-598.057-4-586.479-4Z" fill="#ffffff" />
<path transform="matrix(1,0,0,-1,461.1835,934.65798)" d="M0 0C-12.68 0-22.996 10.316-22.996 22.996V113.547C-22.996 126.227-12.68 136.542 0 136.542H302.86C315.54 136.542 325.856 126.227 325.856 113.547V22.996C325.856 10.316 315.54 0 302.86 0Z" fill="#f3f9ff" />
<path transform="matrix(1,0,0,-1,764.0439,796.1155)" d="M0 0H-302.861C-316.666 0-327.856-11.191-327.856-24.996V-115.546C-327.856-129.352-316.666-140.542-302.861-140.542H0C13.805-140.542 24.996-129.352 24.996-115.546V-24.996C24.996-11.191 13.805 0 0 0M0-4C11.577-4 20.996-13.419 20.996-24.996V-115.546C20.996-127.124 11.577-136.542 0-136.542H-302.861C-314.438-136.542-323.856-127.124-323.856-115.546V-24.996C-323.856-13.419-314.438-4-302.861-4Z" fill="#ffffff" />
</g>
<g clip-path="url(#clip_5)">
<path transform="matrix(1,0,0,-1,1200.0791,1046.3591)" d="M0 0C-12.68 0-22.996 10.315-22.996 22.995V84.705C-22.996 97.385-12.68 107.701 0 107.701H586.479C599.159 107.701 609.476 97.385 609.476 84.705V22.995C609.476 10.315 599.159 0 586.479 0Z" fill="#f3f9ff" />
<path transform="matrix(1,0,0,-1,1786.5586,936.65798)" d="M0 0H-586.479C-600.285 0-611.476-11.191-611.476-24.996V-86.706C-611.476-100.511-600.285-111.702-586.479-111.702H0C13.805-111.702 24.996-100.511 24.996-86.706V-24.996C24.996-11.191 13.805 0 0 0M0-4C11.577-4 20.996-13.419 20.996-24.996V-86.706C20.996-98.283 11.577-107.702 0-107.702H-586.479C-598.057-107.702-607.476-98.283-607.476-86.706V-24.996C-607.476-13.419-598.057-4-586.479-4Z" fill="#ffffff" />
<path transform="matrix(1,0,0,-1,461.1835,1045.114)" d="M0 0C-12.68 0-22.996 10.316-22.996 22.996V81.73C-22.996 94.41-12.68 104.727 0 104.727H302.86C315.54 104.727 325.856 94.41 325.856 81.73V22.996C325.856 10.316 315.54 0 302.86 0Z" fill="#f3f9ff" />
<path transform="matrix(1,0,0,-1,764.0439,938.38796)" d="M0 0H-302.861C-316.666 0-327.856-11.191-327.856-24.996V-83.73C-327.856-97.535-316.666-108.726-302.861-108.726H0C13.805-108.726 24.996-97.535 24.996-83.73V-24.996C24.996-11.191 13.805 0 0 0M0-4C11.577-4 20.996-13.418 20.996-24.996V-83.73C20.996-95.307 11.577-104.726 0-104.726H-302.861C-314.438-104.726-323.856-95.307-323.856-83.73V-24.996C-323.856-13.418-314.438-4-302.861-4Z" fill="#ffffff" />
</g>
<g clip-path="url(#clip_6)">
<path transform="matrix(1,0,0,-1,1839.5244,1156.2166)" d="M0 0C-12.68 0-22.996 10.316-22.996 22.996V81.73C-22.996 94.41-12.68 104.727 0 104.727H675.841C688.521 104.727 698.837 94.41 698.837 81.73V22.996C698.837 10.316 688.521 0 675.841 0Z" fill="#f3f9ff" />
<path transform="matrix(1,0,0,-1,2515.3653,1049.4905)" d="M0 0H-675.841C-689.646 0-700.837-11.191-700.837-24.996V-83.729C-700.837-97.535-689.646-108.726-675.841-108.726H0C13.805-108.726 24.996-97.535 24.996-83.729V-24.996C24.996-11.191 13.805 0 0 0M0-4C11.577-4 20.996-13.418 20.996-24.996V-83.729C20.996-95.307 11.577-104.726 0-104.726H-675.841C-687.418-104.726-696.837-95.307-696.837-83.729V-24.996C-696.837-13.418-687.418-4-675.841-4Z" fill="#ffffff" />
<path transform="matrix(1,0,0,-1,1200.0791,1156.2166)" d="M0 0C-12.68 0-22.996 10.316-22.996 22.996V81.73C-22.996 94.41-12.68 104.727 0 104.727H586.479C599.159 104.727 609.476 94.41 609.476 81.73V22.996C609.476 10.316 599.159 0 586.479 0Z" fill="#f3f9ff" />
<path transform="matrix(1,0,0,-1,1786.5586,1049.4905)" d="M0 0H-586.479C-600.285 0-611.476-11.191-611.476-24.996V-83.729C-611.476-97.535-600.285-108.726-586.479-108.726H0C13.805-108.726 24.996-97.535 24.996-83.729V-24.996C24.996-11.191 13.805 0 0 0M0-4C11.577-4 20.996-13.418 20.996-24.996V-83.729C20.996-95.307 11.577-104.726 0-104.726H-586.479C-598.057-104.726-607.476-95.307-607.476-83.729V-24.996C-607.476-13.418-598.057-4-586.479-4Z" fill="#ffffff" />
<path transform="matrix(1,0,0,-1,461.1835,1156.2166)" d="M0 0C-12.68 0-22.996 10.316-22.996 22.996V81.73C-22.996 94.41-12.68 104.727 0 104.727H302.86C315.54 104.727 325.856 94.41 325.856 81.73V22.996C325.856 10.316 315.54 0 302.86 0Z" fill="#f3f9ff" />
<path transform="matrix(1,0,0,-1,764.0439,1049.4905)" d="M0 0H-302.861C-316.666 0-327.856-11.191-327.856-24.996V-83.729C-327.856-97.535-316.666-108.726-302.861-108.726H0C13.805-108.726 24.996-97.535 24.996-83.729V-24.996C24.996-11.191 13.805 0 0 0M0-4C11.577-4 20.996-13.418 20.996-24.996V-83.729C20.996-95.307 11.577-104.726 0-104.726H-302.861C-314.438-104.726-323.856-95.307-323.856-83.729V-24.996C-323.856-13.418-314.438-4-302.861-4Z" fill="#ffffff" />
<path transform="matrix(1,0,0,-1,814.0361,1156.2166)" d="M0 0C-12.68 0-22.996 10.316-22.996 22.996V81.73C-22.996 94.41-12.68 104.727 0 104.727H333.443C346.123 104.727 356.44 94.41 356.44 81.73V22.996C356.44 10.316 346.123 0 333.443 0Z" fill="#f3f9ff" />
<path transform="matrix(1,0,0,-1,1147.4795,1049.4905)" d="M0 0H-333.444C-347.249 0-358.44-11.191-358.44-24.996V-83.729C-358.44-97.535-347.249-108.726-333.444-108.726H0C13.805-108.726 24.996-97.535 24.996-83.729V-24.996C24.996-11.191 13.805 0 0 0M0-4C11.577-4 20.996-13.418 20.996-24.996V-83.729C20.996-95.307 11.577-104.726 0-104.726H-333.444C-345.021-104.726-354.44-95.307-354.44-83.729V-24.996C-354.44-13.418-345.021-4-333.444-4Z" fill="#ffffff" />
</g>
<g clip-path="url(#clip_7)">
<path transform="matrix(1,0,0,-1,1839.5244,1263.2351)" d="M0 0C-12.68 0-22.996 10.316-22.996 22.996V81.73C-22.996 94.41-12.68 104.726 0 104.726H675.841C688.521 104.726 698.837 94.41 698.837 81.73V22.996C698.837 10.316 688.521 0 675.841 0Z" fill="#f3f9ff" />
<path transform="matrix(1,0,0,-1,2515.3653,1156.509)" d="M0 0H-675.841C-689.646 0-700.837-11.191-700.837-24.996V-83.73C-700.837-97.535-689.646-108.726-675.841-108.726H0C13.805-108.726 24.996-97.535 24.996-83.73V-24.996C24.996-11.191 13.805 0 0 0M0-4C11.577-4 20.996-13.419 20.996-24.996V-83.73C20.996-95.307 11.577-104.726 0-104.726H-675.841C-687.418-104.726-696.837-95.307-696.837-83.73V-24.996C-696.837-13.419-687.418-4-675.841-4Z" fill="#ffffff" />
<path transform="matrix(1,0,0,-1,1200.0791,1263.2351)" d="M0 0C-12.68 0-22.996 10.316-22.996 22.996V81.73C-22.996 94.41-12.68 104.726 0 104.726H586.479C599.159 104.726 609.476 94.41 609.476 81.73V22.996C609.476 10.316 599.159 0 586.479 0Z" fill="#f3f9ff" />
<path transform="matrix(1,0,0,-1,1786.5586,1156.509)" d="M0 0H-586.479C-600.285 0-611.476-11.191-611.476-24.996V-83.73C-611.476-97.535-600.285-108.726-586.479-108.726H0C13.805-108.726 24.996-97.535 24.996-83.73V-24.996C24.996-11.191 13.805 0 0 0M0-4C11.577-4 20.996-13.419 20.996-24.996V-83.73C20.996-95.307 11.577-104.726 0-104.726H-586.479C-598.057-104.726-607.476-95.307-607.476-83.73V-24.996C-607.476-13.419-598.057-4-586.479-4Z" fill="#ffffff" />
<path transform="matrix(1,0,0,-1,461.1835,1263.2351)" d="M0 0C-12.68 0-22.996 10.316-22.996 22.996V81.73C-22.996 94.41-12.68 104.726 0 104.726H302.86C315.54 104.726 325.856 94.41 325.856 81.73V22.996C325.856 10.316 315.54 0 302.86 0Z" fill="#f3f9ff" />
<path transform="matrix(1,0,0,-1,764.0439,1156.509)" d="M0 0H-302.861C-316.666 0-327.856-11.191-327.856-24.996V-83.73C-327.856-97.535-316.666-108.726-302.861-108.726H0C13.805-108.726 24.996-97.535 24.996-83.73V-24.996C24.996-11.191 13.805 0 0 0M0-4C11.577-4 20.996-13.419 20.996-24.996V-83.73C20.996-95.307 11.577-104.726 0-104.726H-302.861C-314.438-104.726-323.856-95.307-323.856-83.73V-24.996C-323.856-13.419-314.438-4-302.861-4Z" fill="#ffffff" />
<path transform="matrix(1,0,0,-1,814.0361,1263.2351)" d="M0 0C-12.68 0-22.996 10.316-22.996 22.996V81.73C-22.996 94.41-12.68 104.726 0 104.726H333.443C346.123 104.726 356.44 94.41 356.44 81.73V22.996C356.44 10.316 346.123 0 333.443 0Z" fill="#f3f9ff" />
<path transform="matrix(1,0,0,-1,1147.4795,1156.509)" d="M0 0H-333.444C-347.249 0-358.44-11.191-358.44-24.996V-83.73C-358.44-97.535-347.249-108.726-333.444-108.726H0C13.805-108.726 24.996-97.535 24.996-83.73V-24.996C24.996-11.191 13.805 0 0 0M0-4C11.577-4 20.996-13.419 20.996-24.996V-83.73C20.996-95.307 11.577-104.726 0-104.726H-333.444C-345.021-104.726-354.44-95.307-354.44-83.73V-24.996C-354.44-13.419-345.021-4-333.444-4Z" fill="#ffffff" />
</g>
<g clip-path="url(#clip_8)">
<path transform="matrix(1,0,0,-1,1838.2383,1372.0056)" d="M0 0C-12.68 0-22.996 10.316-22.996 22.996V81.73C-22.996 94.41-12.68 104.727 0 104.727H675.841C688.521 104.727 698.837 94.41 698.837 81.73V22.996C698.837 10.316 688.521 0 675.841 0Z" fill="#f3f9ff" />
<path transform="matrix(1,0,0,-1,2514.079,1265.2796)" d="M0 0H-675.841C-689.646 0-700.837-11.191-700.837-24.996V-83.73C-700.837-97.535-689.646-108.726-675.841-108.726H0C13.805-108.726 24.996-97.535 24.996-83.73V-24.996C24.996-11.191 13.805 0 0 0M0-4C11.577-4 20.996-13.419 20.996-24.996V-83.73C20.996-95.307 11.577-104.726 0-104.726H-675.841C-687.418-104.726-696.837-95.307-696.837-83.73V-24.996C-696.837-13.419-687.418-4-675.841-4Z" fill="#ffffff" />
<path transform="matrix(1,0,0,-1,1198.6338,1372.0056)" d="M0 0C-12.68 0-22.996 10.316-22.996 22.996V81.73C-22.996 94.41-12.68 104.727 0 104.727H586.479C599.159 104.727 609.476 94.41 609.476 81.73V22.996C609.476 10.316 599.159 0 586.479 0Z" fill="#f3f9ff" />
<path transform="matrix(1,0,0,-1,1785.1128,1265.2796)" d="M0 0H-586.479C-600.284 0-611.476-11.191-611.476-24.996V-83.73C-611.476-97.535-600.284-108.726-586.479-108.726H0C13.805-108.726 24.996-97.535 24.996-83.73V-24.996C24.996-11.191 13.805 0 0 0M0-4C11.577-4 20.996-13.419 20.996-24.996V-83.73C20.996-95.307 11.577-104.726 0-104.726H-586.479C-598.057-104.726-607.476-95.307-607.476-83.73V-24.996C-607.476-13.419-598.057-4-586.479-4Z" fill="#ffffff" />
<path transform="matrix(1,0,0,-1,459.7372,1372.0056)" d="M0 0C-12.68 0-22.996 10.316-22.996 22.996V81.73C-22.996 94.41-12.68 104.727 0 104.727H302.86C315.54 104.727 325.856 94.41 325.856 81.73V22.996C325.856 10.316 315.54 0 302.86 0Z" fill="#f3f9ff" />
<path transform="matrix(1,0,0,-1,762.5981,1265.2796)" d="M0 0H-302.86C-316.666 0-327.856-11.191-327.856-24.996V-83.73C-327.856-97.535-316.666-108.726-302.86-108.726H0C13.805-108.726 24.996-97.535 24.996-83.73V-24.996C24.996-11.191 13.805 0 0 0M0-4C11.577-4 20.996-13.419 20.996-24.996V-83.73C20.996-95.307 11.577-104.726 0-104.726H-302.86C-314.437-104.726-323.856-95.307-323.856-83.73V-24.996C-323.856-13.419-314.437-4-302.86-4Z" fill="#ffffff" />
<path transform="matrix(1,0,0,-1,812.5898,1372.0056)" d="M0 0C-12.68 0-22.996 10.316-22.996 22.996V81.73C-22.996 94.41-12.68 104.727 0 104.727H333.443C346.123 104.727 356.44 94.41 356.44 81.73V22.996C356.44 10.316 346.123 0 333.443 0Z" fill="#f3f9ff" />
<path transform="matrix(1,0,0,-1,1146.0337,1265.2796)" d="M0 0H-333.444C-347.249 0-358.44-11.191-358.44-24.996V-83.73C-358.44-97.535-347.249-108.726-333.444-108.726H0C13.805-108.726 24.996-97.535 24.996-83.73V-24.996C24.996-11.191 13.805 0 0 0M0-4C11.577-4 20.996-13.419 20.996-24.996V-83.73C20.996-95.307 11.577-104.726 0-104.726H-333.444C-345.021-104.726-354.44-95.307-354.44-83.73V-24.996C-354.44-13.419-345.021-4-333.444-4Z" fill="#ffffff" />
</g>
<g clip-path="url(#clip_9)">
<path transform="matrix(1,0,0,-1,0,2623.16)" d="M1878.236 2121.177H1860.213V2103.154H1878.236ZM1877.236 2104.153H1861.213V2120.176H1877.236Z" />
<path transform="matrix(1,0,0,-1,0,2623.16)" d="M1878.236 2095.343H1860.213V2077.32H1878.236ZM1877.236 2078.32H1861.213V2094.343H1877.236Z" />
</g>
<g clip-path="url(#clip_10)">
<path transform="matrix(1,0,0,-1,0,2623.16)" d="M1878.236 2012.062H1860.213V1994.0391H1878.236ZM1877.236 1995.039H1861.213V2011.0619H1877.236Z" />
<path transform="matrix(1,0,0,-1,0,2623.16)" d="M1878.236 1986.228H1860.213V1968.2051H1878.236ZM1877.236 1969.205H1861.213V1985.2279H1877.236Z" />
</g>
<g clip-path="url(#clip_11)">
<path transform="matrix(1,0,0,-1,0,2623.16)" d="M1878.236 1826.894H1860.213V1808.8711H1878.236ZM1877.236 1809.871H1861.213V1825.8939H1877.236Z" />
<path transform="matrix(1,0,0,-1,0,2623.16)" d="M1878.236 1785.019H1860.213V1766.9961H1878.236ZM1877.236 1767.996H1861.213V1784.0189H1877.236Z" />
<path transform="matrix(1,0,0,-1,0,2623.16)" d="M1878.236 1743.575H1860.213V1725.552H1878.236ZM1877.236 1726.552H1861.213V1742.575H1877.236Z" />
<path transform="matrix(1,0,0,-1,0,2623.16)" d="M1878.236 1701.7H1860.213V1683.677H1878.236ZM1877.236 1684.677H1861.213V1700.7H1877.236Z" />
</g>
<g clip-path="url(#clip_12)">
<path transform="matrix(1,0,0,-1,0,2623.16)" d="M1878.236 1553.252H1860.213V1535.229H1878.236ZM1877.236 1536.229H1861.213V1552.252H1877.236Z" />
<path transform="matrix(1,0,0,-1,0,2623.16)" d="M1878.236 1528.883H1860.213V1510.8601H1878.236ZM1877.236 1511.859H1861.213V1527.882H1877.236Z" />
<path transform="matrix(1,0,0,-1,0,2623.16)" d="M1878.236 1504.513H1860.213V1486.49H1878.236ZM1877.236 1487.49H1861.213V1503.513H1877.236Z" />
</g>
<g clip-path="url(#clip_13)">
<path transform="matrix(1,0,0,-1,0,2623.16)" d="M1878.236 1336.898H1860.213V1318.875H1878.236ZM1877.236 1319.875H1861.213V1335.898H1877.236Z" />
<path transform="matrix(1,0,0,-1,0,2623.16)" d="M1878.236 1312.529H1860.213V1294.5061H1878.236ZM1877.236 1295.506H1861.213V1311.5289H1877.236Z" />
<path transform="matrix(1,0,0,-1,0,2623.16)" d="M1878.236 1288.159H1860.213V1270.1361H1878.236ZM1877.236 1271.136H1861.213V1287.1589H1877.236Z" />
</g>
<g clip-path="url(#clip_14)">
<path transform="matrix(1,0,0,-1,0,2623.16)" d="M1878.236 1433.747H1860.213V1415.724H1878.236ZM1877.236 1416.724H1861.213V1432.747H1877.236Z" />
<path transform="matrix(1,0,0,-1,0,2623.16)" d="M1878.236 1408.574H1860.213V1390.551H1878.236ZM1877.236 1391.551H1861.213V1407.574H1877.236Z" />
</g>
<g clip-path="url(#clip_15)">
<path transform="matrix(1,0,0,-1,1717.5833,1909.1382)" d="M0 0H-488.437L-595.916-128.622H-107.095Z" fill="#3333ff" />
<path transform="matrix(1,0,0,-1,1659.1127,2037.7601)" d="M0 0H-26.966L23.782 60.731Z" fill="#3333ff" />
<path transform="matrix(1,0,0,-1,1183.0984,1909.1382)" d="M0 0H26.966L-23.782-60.73Z" fill="#3333ff" />
</g>
<g clip-path="url(#clip_16)">
<path transform="matrix(1,0,0,-1,1717.5833,2154.4844)" d="M0 0H-488.437L-595.916-128.622H-107.095Z" fill="#3333ff" />
<path transform="matrix(1,0,0,-1,1659.1127,2283.1065)" d="M0 0H-26.966L23.782 60.73Z" fill="#3333ff" />
<path transform="matrix(1,0,0,-1,1183.0984,2154.4844)" d="M0 0H26.966L-23.782-60.731Z" fill="#3333ff" />
</g>
<g clip-path="url(#clip_17)">
<g opacity=".199997">
<g clip-path="url(#clip_18)">
<path transform="matrix(1,0,0,-1,1786.3978,2105.7296)" stroke-width="1" stroke-linecap="butt" stroke-miterlimit="10" stroke-linejoin="miter" fill="none" stroke="#000000" d="M0 0C0-202.563-164.21-366.772-366.772-366.772-569.335-366.772-733.545-202.563-733.545 0-733.545 202.563-569.335 366.772-366.772 366.772-164.21 366.772 0 202.563 0 0Z" />
<g opacity=".600006">
<g clip-path="url(#clip_19)">
<path transform="matrix(1,0,0,-1,1980.2675,2105.7296)" stroke-width="1" stroke-linecap="butt" stroke-miterlimit="10" stroke-linejoin="miter" fill="none" stroke="#000000" d="M0 0C0-309.634-251.008-560.642-560.642-560.642-870.276-560.642-1121.284-309.634-1121.284 0-1121.284 309.634-870.276 560.642-560.642 560.642-251.008 560.642 0 309.634 0 0Z" />
</g>
</g>
<g opacity=".300003">
<g clip-path="url(#clip_20)">
<path transform="matrix(1,0,0,-1,2197.388,2105.7296)" stroke-width="1" stroke-linecap="butt" stroke-miterlimit="10" stroke-linejoin="miter" fill="none" stroke="#000000" d="M0 0C0-429.546-348.216-777.763-777.763-777.763-1207.309-777.763-1555.525-429.546-1555.525 0-1555.525 429.546-1207.309 777.763-777.763 777.763-348.216 777.763 0 429.546 0 0Z" />
</g>
</g>
</g>
</g>
<path transform="matrix(1,0,0,-1,1457.3533,2086.2718)" d="M0 0H-27.999V27.999H-47.457V0H-75.456V-19.458H-47.457V-47.457H-27.999V-19.458H0Z" fill="#3333ff" />
<path transform="matrix(1,0,0,-1,0,2623.16)" d="M1429.354 517.43H1409.896V536.888H1429.354Z" fill="#9898ff" />
</g>
</g>
</g>
</svg>