<?xml version='1.0' encoding='utf-8'?>
<svg xmlns="http://www.w3.org/2000/svg" xmlns:ns1="http://www.inkscape.org/namespaces/inkscape" version="1.1" width="960" height="540" viewBox="0 0 960 540">
<defs>
<clipPath id="clip_1">
<path transform="matrix(1,0,0,-1,0,540)" d="M0 540H960V0H0Z" />
</clipPath>
<clipPath id="clip_2">
<path transform="matrix(1,0,0,-1,0,540)" d="M960 1200H0V1740H960Z" />
</clipPath>
<clipPath id="clip_3">
<path transform="matrix(1,0,0,-1,0,540)" d="M-1194.72-204.72H1356.97V2346.97H-1194.72Z" />
</clipPath>
<clipPath id="clip_4">
<path transform="matrix(1,0,0,-1,0,540)" d="M81.13-204.72C252.89-204.72 420.08-170.84 578.07-104.03 730.12-39.71 866.46 52.14 983.29 168.97 1100.12 285.8 1191.96 422.13 1256.28 574.19 1323.09 732.16 1356.97 899.35 1356.97 1071.12 1356.97 1242.89 1323.09 1410.09 1256.28 1568.07 1191.96 1720.13 1100.11 1856.47 983.27 1973.3 866.45 2090.12 730.11 2181.96 578.07 2246.27 420.09 2313.09 252.9 2346.97 81.13 2346.97-90.64 2346.97-257.84 2313.09-415.82 2246.27-567.87 2181.96-704.2 2090.12-821.03 1973.29-937.87 1856.46-1029.71 1720.12-1094.03 1568.06-1160.84 1410.1-1194.72 1242.9-1194.72 1071.12-1194.72 899.36-1160.84 732.16-1094.03 574.18-1029.71 422.13-937.86 285.79-821.04 168.97-704.2 52.13-567.86-39.72-415.8-104.03-257.85-170.84-90.65-204.72 81.13-204.72" />
</clipPath>
<clipPath id="clip_5">
<path transform="matrix(1,0,0,-1,0,540)" d="M81.12 2184.78C-68.99 2184.78-214.96 2155.13-352.65 2096.89-485.38 2040.74-604.42 1960.52-706.34 1858.6-808.26 1756.68-888.49 1637.64-944.64 1504.9-1002.88 1367.22-1032.53 1221.24-1032.53 1071.12-1032.53 921.01-1002.88 775.04-944.64 637.35-888.49 504.61-808.26 385.57-706.35 283.66-604.42 181.73-485.38 101.5-352.64 45.36-214.97-12.88-69-42.53 81.12-42.53 231.23-42.53 377.2-12.88 514.89 45.36 647.64 101.5 766.68 181.74 868.6 283.65 970.51 385.57 1050.74 504.61 1106.89 637.36 1165.13 775.04 1194.78 921.01 1194.78 1071.12 1194.78 1221.24 1165.13 1367.21 1106.89 1504.9 1050.74 1637.64 970.51 1756.69 868.59 1858.6 766.67 1960.52 647.63 2040.74 514.9 2096.89 377.21 2155.13 231.24 2184.78 81.12 2184.78" />
</clipPath>
<clipPath id="clip_6">
<path transform="matrix(1,0,0,-1,0,540)" d="M81.12 2022.58C-47.33 2022.58-172.08 1997.17-289.48 1947.51-402.9 1899.53-504.64 1830.92-591.65 1743.92-678.66 1656.91-747.27 1555.16-795.26 1441.73-844.92 1324.34-870.33 1199.59-870.33 1071.12-870.33 942.67-844.92 817.92-795.26 700.52-747.28 587.1-678.67 485.35-591.67 398.35-504.65 311.34-402.9 242.72-289.47 194.74-172.09 145.08-47.34 119.67 81.12 119.67 209.58 119.67 334.32 145.08 451.72 194.74 565.15 242.72 666.9 311.33 753.9 398.34 840.91 485.34 909.53 587.1 957.51 700.53 1007.17 817.92 1032.58 942.66 1032.58 1071.12 1032.58 1199.58 1007.17 1324.33 957.51 1441.72 909.53 1555.15 840.91 1656.9 753.91 1743.91 666.9 1830.91 565.15 1899.53 451.73 1947.51 334.33 1997.17 209.58 2022.58 81.12 2022.58" />
</clipPath>
<clipPath id="clip_7">
<path transform="matrix(1,0,0,-1,0,540)" d="M81.12 1860.39C-25.68 1860.39-129.2 1839.21-226.31 1798.12-320.41 1758.31-404.86 1701.32-476.96 1629.23-549.06 1557.13-606.06 1472.68-645.87 1378.56-686.96 1281.45-708.14 1177.93-708.14 1071.12-708.14 964.33-686.96 860.8-645.88 763.7-606.06 669.59-549.07 585.13-476.98 513.04-404.88 440.94-320.42 383.94-226.3 344.12-129.2 303.04-25.68 281.86 81.12 281.86 187.92 281.86 291.44 303.04 388.55 344.12 482.66 383.94 567.12 440.93 639.21 513.02 711.31 585.12 768.31 669.58 808.12 763.69 849.21 860.8 870.39 964.32 870.39 1071.12 870.39 1177.92 849.21 1281.45 808.12 1378.56 768.31 1472.67 711.32 1557.12 639.22 1629.21 567.13 1701.31 482.67 1758.31 388.56 1798.12 291.45 1839.2 187.93 1860.39 81.12 1860.39" />
</clipPath>
<clipPath id="clip_8">
<path transform="matrix(1,0,0,-1,0,540)" d="M81.12 1698.19C-4.02 1698.19-86.32 1681.24-163.14 1648.74-237.93 1617.1-305.08 1571.72-362.26 1514.55-419.45 1457.36-464.84 1390.19-496.49 1315.39-528.99 1238.58-545.95 1156.27-545.95 1071.12-545.95 985.98-528.99 903.68-496.49 826.87-464.85 752.07-419.47 684.92-362.3 627.74-305.11 570.54-237.94 525.16-163.14 493.51-86.32 461.01-4.02 444.06 81.12 444.06 166.27 444.06 248.56 461 325.38 493.51 400.18 525.15 467.34 570.53 524.52 627.71 581.71 684.89 627.09 752.06 658.74 826.86 691.24 903.68 708.19 985.98 708.19 1071.12 708.19 1156.27 691.24 1238.57 658.74 1315.38 627.1 1390.18 581.72 1457.34 524.54 1514.52 467.35 1571.71 400.19 1617.09 325.39 1648.74 248.57 1681.24 166.27 1698.19 81.12 1698.19" />
</clipPath>
<clipPath id="clip_9">
<path transform="matrix(1,0,0,-1,0,540)" d="M-60 1200H-1020V1740H-60Z" />
</clipPath>
<clipPath id="clip_10">
<path transform="matrix(1,0,0,-1,0,540)" d="M-2214.72-204.72H336.97V2346.97H-2214.72Z" />
</clipPath>
<clipPath id="clip_11">
<path transform="matrix(1,0,0,-1,0,540)" d="M-938.88-204.72C-767.11-204.72-599.91-170.84-441.94-104.03-289.88-39.71-153.54 52.14-36.71 168.97 80.12 285.8 171.96 422.13 236.28 574.19 303.09 732.16 336.97 899.35 336.97 1071.12 336.97 1242.89 303.09 1410.09 236.28 1568.07 171.96 1720.13 80.11 1856.47-36.73 1973.3-153.56 2090.12-289.89 2181.96-441.93 2246.27-599.91 2313.09-767.1 2346.97-938.88 2346.97-1110.64 2346.97-1277.84 2313.09-1435.82 2246.27-1587.87 2181.96-1724.2 2090.12-1841.03 1973.29-1957.87 1856.46-2049.71 1720.12-2114.03 1568.06-2180.84 1410.1-2214.72 1242.9-2214.72 1071.12-2214.72 899.36-2180.84 732.16-2114.03 574.18-2049.71 422.13-1957.86 285.79-1841.04 168.97-1724.19 52.13-1587.86-39.72-1435.8-104.03-1277.85-170.84-1110.65-204.72-938.88-204.72" />
</clipPath>
<clipPath id="clip_12">
<path transform="matrix(1,0,0,-1,0,540)" d="M-938.88 2184.78C-1088.99 2184.78-1234.96 2155.13-1372.65 2096.89-1505.38 2040.74-1624.42 1960.52-1726.34 1858.6-1828.26 1756.68-1908.49 1637.64-1964.64 1504.9-2022.88 1367.22-2052.53 1221.24-2052.53 1071.12-2052.53 921.01-2022.88 775.04-1964.64 637.35-1908.49 504.61-1828.26 385.57-1726.35 283.66-1624.42 181.73-1505.38 101.5-1372.64 45.36-1234.97-12.88-1089-42.53-938.88-42.53-788.77-42.53-642.8-12.88-505.11 45.36-372.36 101.5-253.32 181.74-151.4 283.65-49.49 385.57 30.75 504.61 86.89 637.36 145.13 775.04 174.78 921.01 174.78 1071.12 174.78 1221.24 145.13 1367.21 86.89 1504.9 30.74 1637.64-49.49 1756.69-151.41 1858.6-253.33 1960.52-372.37 2040.74-505.1 2096.89-642.79 2155.13-788.76 2184.78-938.88 2184.78" />
</clipPath>
<clipPath id="clip_13">
<path transform="matrix(1,0,0,-1,0,540)" d="M-938.88 2022.58C-1067.33 2022.58-1192.08 1997.17-1309.48 1947.51-1422.9 1899.53-1524.64 1830.92-1611.65 1743.92-1698.66 1656.91-1767.28 1555.16-1815.26 1441.73-1864.92 1324.34-1890.33 1199.59-1890.33 1071.12-1890.33 942.67-1864.92 817.92-1815.26 700.52-1767.28 587.1-1698.67 485.35-1611.67 398.35-1524.65 311.34-1422.9 242.72-1309.47 194.74-1192.09 145.08-1067.34 119.67-938.88 119.67-810.42 119.67-685.68 145.08-568.28 194.74-454.85 242.72-353.1 311.33-266.1 398.34-179.09 485.34-110.47 587.1-62.49 700.53-12.83 817.92 12.58 942.66 12.58 1071.12 12.58 1199.58-12.83 1324.33-62.49 1441.72-110.47 1555.15-179.09 1656.9-266.09 1743.91-353.1 1830.91-454.85 1899.53-568.27 1947.51-685.67 1997.17-810.42 2022.58-938.88 2022.58" />
</clipPath>
<clipPath id="clip_14">
<path transform="matrix(1,0,0,-1,0,540)" d="M0 540H960V0H0Z" />
</clipPath>
<clipPath id="clip_15">
<path transform="matrix(1,0,0,-1,0,540)" d="M-60 600H-1020V1140H-60Z" />
</clipPath>
<clipPath id="clip_16">
<path transform="matrix(1,0,0,-1,0,540)" d="M-938.88-804.72C-767.11-804.72-599.91-770.84-441.94-704.03-289.88-639.71-153.54-547.86-36.71-431.03 80.12-314.2 171.96-177.87 236.28-25.81 303.09 132.16 336.97 299.35 336.97 471.12 336.97 642.89 303.09 810.09 236.28 968.07 171.96 1120.13 80.11 1256.47-36.73 1373.3-153.56 1490.12-289.89 1581.96-441.93 1646.27-599.91 1713.09-767.1 1746.97-938.88 1746.97-1110.64 1746.97-1277.84 1713.09-1435.82 1646.27-1587.87 1581.96-1724.2 1490.12-1841.03 1373.29-1957.87 1256.46-2049.71 1120.12-2114.03 968.06-2180.84 810.1-2214.72 642.9-2214.72 471.12-2214.72 299.36-2180.84 132.16-2114.03-25.82-2049.71-177.87-1957.86-314.21-1841.04-431.03-1724.19-547.87-1587.86-639.72-1435.8-704.03-1277.85-770.84-1110.65-804.72-938.88-804.72" />
</clipPath>
<clipPath id="clip_17">
<path transform="matrix(1,0,0,-1,0,540)" d="M0 540H960V0H0Z" />
</clipPath>
<clipPath id="clip_18">
<path transform="matrix(1,0,0,-1,0,540)" d="M-60 600H-1020V1140H-60Z" />
</clipPath>
<clipPath id="clip_19">
<path transform="matrix(1,0,0,-1,0,540)" d="M-938.88 1584.78C-1088.99 1584.78-1234.96 1555.13-1372.65 1496.89-1505.38 1440.74-1624.42 1360.52-1726.34 1258.6-1828.26 1156.68-1908.49 1037.64-1964.64 904.9-2022.88 767.22-2052.53 621.24-2052.53 471.12-2052.53 321.01-2022.88 175.04-1964.64 37.35-1908.49-95.39-1828.26-214.43-1726.35-316.34-1624.42-418.27-1505.38-498.5-1372.64-554.64-1234.97-612.88-1089-642.53-938.88-642.53-788.77-642.53-642.8-612.88-505.11-554.64-372.36-498.5-253.32-418.26-151.4-316.35-49.49-214.43 30.75-95.39 86.89 37.36 145.13 175.04 174.78 321.01 174.78 471.12 174.78 621.24 145.13 767.21 86.89 904.9 30.74 1037.64-49.49 1156.69-151.41 1258.6-253.33 1360.52-372.37 1440.74-505.1 1496.89-642.79 1555.13-788.76 1584.78-938.88 1584.78" />
</clipPath>
<clipPath id="clip_20">
<path transform="matrix(1,0,0,-1,0,540)" d="M0 540H960V0H0Z" />
</clipPath>
<clipPath id="clip_21">
<path transform="matrix(1,0,0,-1,0,540)" d="M-60 600H-1020V1140H-60Z" />
</clipPath>
<clipPath id="clip_22">
<path transform="matrix(1,0,0,-1,0,540)" d="M-938.88 1422.58C-1067.33 1422.58-1192.08 1397.17-1309.48 1347.51-1422.9 1299.53-1524.64 1230.92-1611.65 1143.92-1698.66 1056.91-1767.28 955.16-1815.26 841.73-1864.92 724.34-1890.33 599.59-1890.33 471.12-1890.33 342.67-1864.92 217.92-1815.26 100.52-1767.28-12.9-1698.67-114.65-1611.67-201.65-1524.65-288.66-1422.9-357.28-1309.47-405.26-1192.09-454.92-1067.34-480.33-938.88-480.33-810.42-480.33-685.68-454.92-568.28-405.26-454.85-357.28-353.1-288.67-266.1-201.66-179.09-114.66-110.47-12.9-62.49 100.53-12.83 217.92 12.58 342.66 12.58 471.12 12.58 599.58-12.83 724.33-62.49 841.73-110.47 955.15-179.09 1056.9-266.09 1143.91-353.1 1230.91-454.85 1299.53-568.27 1347.51-685.67 1397.17-810.42 1422.58-938.88 1422.58" />
</clipPath>
<clipPath id="clip_23">
<path transform="matrix(1,0,0,-1,0,540)" d="M0 540H960V0H0Z" />
</clipPath>
<clipPath id="clip_24">
<path transform="matrix(1,0,0,-1,0,540)" d="M-60 600H-1020V1140H-60Z" />
</clipPath>
<clipPath id="clip_25">
<path transform="matrix(1,0,0,-1,0,540)" d="M-2214.72-804.72H336.97V1746.97H-2214.72Z" />
</clipPath>
<clipPath id="clip_26">
<path transform="matrix(1,0,0,-1,0,540)" d="M-938.88-804.72C-767.11-804.72-599.91-770.84-441.94-704.03-289.88-639.71-153.54-547.86-36.71-431.03 80.12-314.2 171.96-177.87 236.28-25.81 303.09 132.16 336.97 299.35 336.97 471.12 336.97 642.89 303.09 810.09 236.28 968.07 171.96 1120.13 80.11 1256.47-36.73 1373.3-153.56 1490.12-289.89 1581.96-441.93 1646.27-599.91 1713.09-767.1 1746.97-938.88 1746.97-1110.64 1746.97-1277.84 1713.09-1435.82 1646.27-1587.87 1581.96-1724.2 1490.12-1841.03 1373.29-1957.87 1256.46-2049.71 1120.12-2114.03 968.06-2180.84 810.1-2214.72 642.9-2214.72 471.12-2214.72 299.36-2180.84 132.16-2114.03-25.82-2049.71-177.87-1957.86-314.21-1841.04-431.03-1724.19-547.87-1587.86-639.72-1435.8-704.03-1277.85-770.84-1110.65-804.72-938.88-804.72" />
</clipPath>
<clipPath id="clip_27">
<path transform="matrix(1,0,0,-1,0,540)" d="M-938.88 1584.78C-1088.99 1584.78-1234.96 1555.13-1372.65 1496.89-1505.38 1440.74-1624.42 1360.52-1726.34 1258.6-1828.26 1156.68-1908.49 1037.64-1964.64 904.9-2022.88 767.22-2052.53 621.24-2052.53 471.12-2052.53 321.01-2022.88 175.04-1964.64 37.35-1908.49-95.39-1828.26-214.43-1726.35-316.34-1624.42-418.27-1505.38-498.5-1372.64-554.64-1234.97-612.88-1089-642.53-938.88-642.53-788.77-642.53-642.8-612.88-505.11-554.64-372.36-498.5-253.32-418.26-151.4-316.35-49.49-214.43 30.75-95.39 86.89 37.36 145.13 175.04 174.78 321.01 174.78 471.12 174.78 621.24 145.13 767.21 86.89 904.9 30.74 1037.64-49.49 1156.69-151.41 1258.6-253.33 1360.52-372.37 1440.74-505.1 1496.89-642.79 1555.13-788.76 1584.78-938.88 1584.78" />
</clipPath>
<clipPath id="clip_28">
<path transform="matrix(1,0,0,-1,0,540)" d="M-938.88 1422.58C-1067.33 1422.58-1192.08 1397.17-1309.48 1347.51-1422.9 1299.53-1524.64 1230.92-1611.65 1143.92-1698.66 1056.91-1767.28 955.16-1815.26 841.73-1864.92 724.34-1890.33 599.59-1890.33 471.12-1890.33 342.67-1864.92 217.92-1815.26 100.52-1767.28-12.9-1698.67-114.65-1611.67-201.65-1524.65-288.66-1422.9-357.28-1309.47-405.26-1192.09-454.92-1067.34-480.33-938.88-480.33-810.42-480.33-685.68-454.92-568.28-405.26-454.85-357.28-353.1-288.67-266.1-201.66-179.09-114.66-110.47-12.9-62.49 100.53-12.83 217.92 12.58 342.66 12.58 471.12 12.58 599.58-12.83 724.33-62.49 841.73-110.47 955.15-179.09 1056.9-266.09 1143.91-353.1 1230.91-454.85 1299.53-568.27 1347.51-685.67 1397.17-810.42 1422.58-938.88 1422.58" />
</clipPath>
<clipPath id="clip_29">
<path transform="matrix(1,0,0,-1,0,540)" d="M0 540H960V0H0Z" />
</clipPath>
<clipPath id="clip_30">
<path transform="matrix(1,0,0,-1,0,540)" d="M0 540H960V0H0Z" />
</clipPath>
</defs>
<g>
<g ns1:groupmode="layer" ns1:label="Layer 1">
<g clip-path="url(#clip_1)">
<g clip-path="url(#clip_2)">
<g opacity=".300003">
<g clip-path="url(#clip_3)">
<g clip-path="url(#clip_4)">
</g>
<g clip-path="url(#clip_5)">
</g>
<g clip-path="url(#clip_6)">
</g>
<g clip-path="url(#clip_7)">
</g>
<g clip-path="url(#clip_8)">
</g>
</g>
</g>
</g>
<g clip-path="url(#clip_9)">
<g opacity=".300003">
<g clip-path="url(#clip_10)">
<g clip-path="url(#clip_11)">
</g>
<g clip-path="url(#clip_12)">
</g>
<g clip-path="url(#clip_13)">
</g>
</g>
</g>
</g>
</g>
<g clip-path="url(#clip_14)">
<g clip-path="url(#clip_15)">
<g clip-path="url(#clip_16)">
</g>
</g>
</g>
<g clip-path="url(#clip_17)">
<g clip-path="url(#clip_18)">
<g clip-path="url(#clip_19)">
</g>
</g>
</g>
<g clip-path="url(#clip_20)">
<g clip-path="url(#clip_21)">
<g clip-path="url(#clip_22)">
</g>
</g>
</g>
<g clip-path="url(#clip_23)">
<g clip-path="url(#clip_24)">
<g opacity=".300003" style="mix-blend-mode:color-burn">
<g clip-path="url(#clip_25)">
<g clip-path="url(#clip_26)">
</g>
<g clip-path="url(#clip_27)">
</g>
<g clip-path="url(#clip_28)">
</g>
</g>
</g>
</g>
<path transform="matrix(1,0,0,-1,718.65,30)" d="M0 0V0C0 4.74 3.84 8.58 8.58 8.58H104.14C108.88 8.58 112.72 4.74 112.72 0 112.72-4.74 108.88-8.58 104.14-8.58H8.58C3.84-8.58 0-4.74 0 0" fill="#ff5533" />
</g>
<g clip-path="url(#clip_29)">
<path transform="matrix(1,0,0,-1,718.65,30)" d="M0 0V0C0 4.74 3.84 8.58 8.58 8.58H104.14C108.88 8.58 112.72 4.74 112.72 0 112.72-4.74 108.88-8.58 104.14-8.58H8.58C3.84-8.58 0-4.74 0 0" fill="#ff5533" />
</g>
<g clip-path="url(#clip_30)">
<path transform="matrix(1,0,0,-1,320,293.48)" d="M0 0C0-74.56-60.44-135-135-135-209.56-135-270-74.56-270 0-270 74.56-209.56 135-135 135-60.44 135 0 74.56 0 0" fill="#cbcbff" />
<path transform="matrix(1,0,0,-1,185,419.73)" d="M0 0C-69.7 0-126.25 56.55-126.25 126.25-126.25 195.96-69.7 252.5 0 252.5 69.7 252.5 126.25 195.96 126.25 126.25 126.25 56.55 69.7 0 0 0" fill="#a5a5ff" />
<path transform="matrix(1,0,0,-1,185,410.98)" d="M0 0C-64.85 0-117.5 52.65-117.5 117.5-117.5 182.35-64.85 235 0 235 64.85 235 117.5 182.35 117.5 117.5 117.5 52.65 64.85 0 0 0" fill="#7f7fff" />
<path transform="matrix(1,0,0,-1,185,402.23)" d="M0 0C-59.99 0-108.75 48.76-108.75 108.75-108.75 168.75-59.99 217.5 0 217.5 59.99 217.5 108.75 168.75 108.75 108.75 108.75 48.76 59.99 0 0 0" fill="#5959ff" />
<path transform="matrix(1,0,0,-1,185,393.48)" d="M0 0C-55.14 0-100 44.86-100 100-100 155.14-55.14 200 0 200 55.14 200 100 155.14 100 100 100 44.86 55.14 0 0 0" fill="#3333ff" />
<path transform="matrix(1,0,0,-1,615,293.48)" d="M0 0C0-74.56-60.44-135-135-135-209.56-135-270-74.56-270 0-270 74.56-209.56 135-135 135-60.44 135 0 74.56 0 0" fill="#ffd0c9" />
<path transform="matrix(1,0,0,-1,480,419.73)" d="M0 0C-69.7 0-126.25 56.55-126.25 126.25-126.25 195.96-69.7 252.5 0 252.5 69.7 252.5 126.25 195.96 126.25 126.25 126.25 56.55 69.7 0 0 0" fill="#ffb1a4" />
<path transform="matrix(1,0,0,-1,480,410.98)" d="M0 0C-64.85 0-117.5 52.65-117.5 117.5-117.5 182.35-64.85 235 0 235 64.85 235 117.5 182.35 117.5 117.5 117.5 52.65 64.85 0 0 0" fill="#ff937e" />
<path transform="matrix(1,0,0,-1,480,402.23)" d="M0 0C-59.99 0-108.75 48.76-108.75 108.75-108.75 168.75-59.99 217.5 0 217.5 59.99 217.5 108.75 168.75 108.75 108.75 108.75 48.76 59.99 0 0 0" fill="#ff7459" />
<path transform="matrix(1,0,0,-1,480,393.48)" d="M0 0C-55.14 0-100 44.86-100 100-100 155.14-55.14 200 0 200 55.14 200 100 155.14 100 100 100 44.86 55.14 0 0 0" fill="#ff5533" />
<path transform="matrix(1,0,0,-1,910,293.48)" d="M0 0C0-74.56-60.44-135-135-135-209.56-135-270-74.56-270 0-270 74.56-209.56 135-135 135-60.44 135 0 74.56 0 0" fill="#f2ffdb" />
<path transform="matrix(1,0,0,-1,775,419.73)" d="M0 0C-69.7 0-126.25 56.55-126.25 126.25-126.25 195.96-69.7 252.5 0 252.5 69.7 252.5 126.25 195.96 126.25 126.25 126.25 56.55 69.7 0 0 0" fill="#e5ffb7" />
<path transform="matrix(1,0,0,-1,775,410.98)" d="M0 0C-64.85 0-117.5 52.65-117.5 117.5-117.5 182.35-64.85 235 0 235 64.85 235 117.5 182.35 117.5 117.5 117.5 52.65 64.85 0 0 0" fill="#d9ff94" />
<path transform="matrix(1,0,0,-1,775,402.23)" d="M0 0C-59.99 0-108.75 48.76-108.75 108.75-108.75 168.75-59.99 217.5 0 217.5 59.99 217.5 108.75 168.75 108.75 108.75 108.75 48.76 59.99 0 0 0" fill="#ccff71" />
<path transform="matrix(1,0,0,-1,775,393.48)" d="M0 0C-55.14 0-100 44.86-100 100-100 155.14-55.14 200 0 200 55.14 200 100 155.14 100 100 100 44.86 55.14 0 0 0" fill="#bfff4d" />
</g>
</g>
</g>
</svg>