<?xml version='1.0' encoding='utf-8'?>
<svg xmlns="http://www.w3.org/2000/svg" xmlns:ns1="http://www.inkscape.org/namespaces/inkscape" version="1.1" width="960" height="540" viewBox="0 0 960 540">
<defs>
<clipPath id="clip_1">
<path transform="matrix(1,0,0,-1,0,540)" d="M0 540H960V0H0Z" />
</clipPath>
<clipPath id="clip_2">
<path transform="matrix(1,0,0,-1,0,540)" d="M1980 1200H1020V1740H1980Z" />
</clipPath>
<clipPath id="clip_3">
<path transform="matrix(1,0,0,-1,0,540)" d="M-174.72-204.72H2376.97V2346.97H-174.72Z" />
</clipPath>
<clipPath id="clip_4">
<path transform="matrix(1,0,0,-1,0,540)" d="M1101.12-204.72C1272.89-204.72 1440.09-170.84 1598.07-104.03 1750.12-39.71 1886.46 52.14 2003.29 168.97 2120.12 285.8 2211.96 422.13 2276.28 574.19 2343.09 732.16 2376.97 899.35 2376.97 1071.12 2376.97 1242.89 2343.09 1410.09 2276.28 1568.07 2211.96 1720.13 2120.11 1856.47 2003.27 1973.3 1886.44 2090.12 1750.11 2181.96 1598.07 2246.27 1440.09 2313.09 1272.9 2346.97 1101.12 2346.97 929.36 2346.97 762.16 2313.09 604.18 2246.27 452.13 2181.96 315.8 2090.12 198.97 1973.29 82.14 1856.46-9.71 1720.12-74.03 1568.06-140.84 1410.1-174.72 1242.9-174.72 1071.12-174.72 899.36-140.84 732.16-74.03 574.18-9.71 422.13 82.14 285.79 198.96 168.97 315.81 52.13 452.14-39.72 604.2-104.03 762.15-170.84 929.35-204.72 1101.12-204.72" />
</clipPath>
<clipPath id="clip_5">
<path transform="matrix(1,0,0,-1,0,540)" d="M1101.12 2184.78C951.01 2184.78 805.04 2155.13 667.35 2096.89 534.62 2040.74 415.58 1960.52 313.66 1858.6 211.74 1756.68 131.51 1637.64 75.36 1504.9 17.12 1367.22-12.53 1221.24-12.53 1071.12-12.53 921.01 17.12 775.04 75.36 637.35 131.51 504.61 211.74 385.57 313.65 283.66 415.58 181.73 534.62 101.5 667.36 45.36 805.03-12.88 951-42.53 1101.12-42.53 1251.23-42.53 1397.2-12.88 1534.89 45.36 1667.64 101.5 1786.68 181.74 1888.6 283.65 1990.51 385.57 2070.74 504.61 2126.89 637.36 2185.13 775.04 2214.78 921.01 2214.78 1071.12 2214.78 1221.24 2185.13 1367.21 2126.89 1504.9 2070.74 1637.64 1990.51 1756.69 1888.59 1858.6 1786.67 1960.52 1667.63 2040.74 1534.9 2096.89 1397.21 2155.13 1251.24 2184.78 1101.12 2184.78" />
</clipPath>
<clipPath id="clip_6">
<path transform="matrix(1,0,0,-1,0,540)" d="M1101.12 2022.58C972.67 2022.58 847.92 1997.17 730.52 1947.51 617.1 1899.53 515.36 1830.92 428.35 1743.92 341.34 1656.91 272.73 1555.16 224.74 1441.73 175.08 1324.34 149.67 1199.59 149.67 1071.12 149.67 942.67 175.08 817.92 224.74 700.52 272.72 587.1 341.33 485.35 428.33 398.35 515.35 311.34 617.1 242.72 730.53 194.74 847.91 145.08 972.66 119.67 1101.12 119.67 1229.58 119.67 1354.32 145.08 1471.72 194.74 1585.15 242.72 1686.9 311.33 1773.9 398.34 1860.91 485.34 1929.53 587.1 1977.51 700.53 2027.17 817.92 2052.58 942.66 2052.58 1071.12 2052.58 1199.58 2027.17 1324.33 1977.51 1441.72 1929.53 1555.15 1860.91 1656.9 1773.91 1743.91 1686.9 1830.91 1585.15 1899.53 1471.73 1947.51 1354.33 1997.17 1229.58 2022.58 1101.12 2022.58" />
</clipPath>
<clipPath id="clip_7">
<path transform="matrix(1,0,0,-1,0,540)" d="M1101.12 1860.39C994.33 1860.39 890.8 1839.21 793.69 1798.12 699.59 1758.31 615.14 1701.32 543.04 1629.23 470.94 1557.13 413.94 1472.68 374.13 1378.56 333.05 1281.45 311.86 1177.93 311.86 1071.12 311.86 964.33 333.04 860.8 374.12 763.7 413.94 669.59 470.93 585.13 543.02 513.04 615.12 440.94 699.58 383.94 793.7 344.12 890.8 303.04 994.32 281.86 1101.12 281.86 1207.92 281.86 1311.44 303.04 1408.55 344.12 1502.66 383.94 1587.12 440.93 1659.21 513.02 1731.31 585.12 1788.31 669.58 1828.12 763.69 1869.21 860.8 1890.39 964.32 1890.39 1071.12 1890.39 1177.92 1869.21 1281.45 1828.12 1378.56 1788.31 1472.67 1731.32 1557.12 1659.22 1629.21 1587.13 1701.31 1502.67 1758.31 1408.56 1798.12 1311.45 1839.2 1207.93 1860.39 1101.12 1860.39" />
</clipPath>
<clipPath id="clip_8">
<path transform="matrix(1,0,0,-1,0,540)" d="M1101.12 1698.19C1015.98 1698.19 933.68 1681.24 856.86 1648.74 782.07 1617.1 714.92 1571.72 657.74 1514.55 600.55 1457.36 555.16 1390.19 523.51 1315.39 491.01 1238.58 474.06 1156.27 474.06 1071.12 474.06 985.98 491.01 903.68 523.51 826.87 555.15 752.07 600.53 684.92 657.7 627.74 714.89 570.54 782.06 525.16 856.86 493.51 933.68 461.01 1015.98 444.06 1101.12 444.06 1186.27 444.06 1268.56 461 1345.38 493.51 1420.18 525.15 1487.34 570.53 1544.52 627.71 1601.7 684.89 1647.09 752.06 1678.74 826.86 1711.24 903.68 1728.19 985.98 1728.19 1071.12 1728.19 1156.27 1711.24 1238.57 1678.74 1315.38 1647.1 1390.18 1601.72 1457.34 1544.54 1514.52 1487.35 1571.71 1420.19 1617.09 1345.39 1648.74 1268.57 1681.24 1186.27 1698.19 1101.12 1698.19" />
</clipPath>
<clipPath id="clip_9">
<path transform="matrix(1,0,0,-1,0,540)" d="M960 1200H0V1740H960Z" />
</clipPath>
<clipPath id="clip_10">
<path transform="matrix(1,0,0,-1,0,540)" d="M-1194.72-204.72H1356.97V2346.97H-1194.72Z" />
</clipPath>
<clipPath id="clip_11">
<path transform="matrix(1,0,0,-1,0,540)" d="M81.13-204.72C252.89-204.72 420.08-170.84 578.07-104.03 730.12-39.71 866.46 52.14 983.29 168.97 1100.12 285.8 1191.96 422.13 1256.28 574.19 1323.09 732.16 1356.97 899.35 1356.97 1071.12 1356.97 1242.89 1323.09 1410.09 1256.28 1568.07 1191.96 1720.13 1100.11 1856.47 983.27 1973.3 866.45 2090.12 730.11 2181.96 578.07 2246.27 420.09 2313.09 252.9 2346.97 81.13 2346.97-90.64 2346.97-257.84 2313.09-415.82 2246.27-567.87 2181.96-704.2 2090.12-821.03 1973.29-937.87 1856.46-1029.71 1720.12-1094.03 1568.06-1160.84 1410.1-1194.72 1242.9-1194.72 1071.12-1194.72 899.36-1160.84 732.16-1094.03 574.18-1029.71 422.13-937.86 285.79-821.04 168.97-704.2 52.13-567.86-39.72-415.8-104.03-257.85-170.84-90.65-204.72 81.13-204.72" />
</clipPath>
<clipPath id="clip_12">
<path transform="matrix(1,0,0,-1,0,540)" d="M81.12 2184.78C-68.99 2184.78-214.96 2155.13-352.65 2096.89-485.38 2040.74-604.42 1960.52-706.34 1858.6-808.26 1756.68-888.49 1637.64-944.64 1504.9-1002.88 1367.22-1032.53 1221.24-1032.53 1071.12-1032.53 921.01-1002.88 775.04-944.64 637.35-888.49 504.61-808.26 385.57-706.35 283.66-604.42 181.73-485.38 101.5-352.64 45.36-214.97-12.88-69-42.53 81.12-42.53 231.23-42.53 377.2-12.88 514.89 45.36 647.64 101.5 766.68 181.74 868.6 283.65 970.51 385.57 1050.74 504.61 1106.89 637.36 1165.13 775.04 1194.78 921.01 1194.78 1071.12 1194.78 1221.24 1165.13 1367.21 1106.89 1504.9 1050.74 1637.64 970.51 1756.69 868.59 1858.6 766.67 1960.52 647.63 2040.74 514.9 2096.89 377.21 2155.13 231.24 2184.78 81.12 2184.78" />
</clipPath>
<clipPath id="clip_13">
<path transform="matrix(1,0,0,-1,0,540)" d="M81.12 2022.58C-47.33 2022.58-172.08 1997.17-289.48 1947.51-402.9 1899.53-504.64 1830.92-591.65 1743.92-678.66 1656.91-747.27 1555.16-795.26 1441.73-844.92 1324.34-870.33 1199.59-870.33 1071.12-870.33 942.67-844.92 817.92-795.26 700.52-747.28 587.1-678.67 485.35-591.67 398.35-504.65 311.34-402.9 242.72-289.47 194.74-172.09 145.08-47.34 119.67 81.12 119.67 209.58 119.67 334.32 145.08 451.72 194.74 565.15 242.72 666.9 311.33 753.9 398.34 840.91 485.34 909.53 587.1 957.51 700.53 1007.17 817.92 1032.58 942.66 1032.58 1071.12 1032.58 1199.58 1007.17 1324.33 957.51 1441.72 909.53 1555.15 840.91 1656.9 753.91 1743.91 666.9 1830.91 565.15 1899.53 451.73 1947.51 334.33 1997.17 209.58 2022.58 81.12 2022.58" />
</clipPath>
<clipPath id="clip_14">
<path transform="matrix(1,0,0,-1,0,540)" d="M81.12 1860.39C-25.68 1860.39-129.2 1839.21-226.31 1798.12-320.41 1758.31-404.86 1701.32-476.96 1629.23-549.06 1557.13-606.06 1472.68-645.87 1378.56-686.96 1281.45-708.14 1177.93-708.14 1071.12-708.14 964.33-686.96 860.8-645.88 763.7-606.06 669.59-549.07 585.13-476.98 513.04-404.88 440.94-320.42 383.94-226.3 344.12-129.2 303.04-25.68 281.86 81.12 281.86 187.92 281.86 291.44 303.04 388.55 344.12 482.66 383.94 567.12 440.93 639.21 513.02 711.31 585.12 768.31 669.58 808.12 763.69 849.21 860.8 870.39 964.32 870.39 1071.12 870.39 1177.92 849.21 1281.45 808.12 1378.56 768.31 1472.67 711.32 1557.12 639.22 1629.21 567.13 1701.31 482.67 1758.31 388.56 1798.12 291.45 1839.2 187.93 1860.39 81.12 1860.39" />
</clipPath>
<clipPath id="clip_15">
<path transform="matrix(1,0,0,-1,0,540)" d="M81.12 1698.19C-4.02 1698.19-86.32 1681.24-163.14 1648.74-237.93 1617.1-305.08 1571.72-362.26 1514.55-419.45 1457.36-464.84 1390.19-496.49 1315.39-528.99 1238.58-545.95 1156.27-545.95 1071.12-545.95 985.98-528.99 903.68-496.49 826.87-464.85 752.07-419.47 684.92-362.3 627.74-305.11 570.54-237.94 525.16-163.14 493.51-86.32 461.01-4.02 444.06 81.12 444.06 166.27 444.06 248.56 461 325.38 493.51 400.18 525.15 467.34 570.53 524.52 627.71 581.71 684.89 627.09 752.06 658.74 826.86 691.24 903.68 708.19 985.98 708.19 1071.12 708.19 1156.27 691.24 1238.57 658.74 1315.38 627.1 1390.18 581.72 1457.34 524.54 1514.52 467.35 1571.71 400.19 1617.09 325.39 1648.74 248.57 1681.24 166.27 1698.19 81.12 1698.19" />
</clipPath>
<clipPath id="clip_16">
<path transform="matrix(1,0,0,-1,0,540)" d="M0 540H960V0H0Z" />
</clipPath>
<clipPath id="clip_17">
<path transform="matrix(1,0,0,-1,0,540)" d="M960 600H0V1140H960Z" />
</clipPath>
<clipPath id="clip_18">
<path transform="matrix(1,0,0,-1,0,540)" d="M81.13-804.72C252.89-804.72 420.08-770.84 578.07-704.03 730.12-639.71 866.46-547.86 983.29-431.03 1100.12-314.2 1191.96-177.87 1256.28-25.81 1323.09 132.16 1356.97 299.35 1356.97 471.12 1356.97 642.89 1323.09 810.09 1256.28 968.07 1191.96 1120.13 1100.11 1256.47 983.27 1373.3 866.45 1490.12 730.11 1581.96 578.07 1646.27 420.09 1713.09 252.9 1746.97 81.13 1746.97-90.64 1746.97-257.84 1713.09-415.82 1646.27-567.87 1581.96-704.2 1490.12-821.03 1373.29-937.87 1256.46-1029.71 1120.12-1094.03 968.06-1160.84 810.1-1194.72 642.9-1194.72 471.12-1194.72 299.36-1160.84 132.16-1094.03-25.82-1029.71-177.87-937.86-314.21-821.04-431.03-704.2-547.87-567.86-639.72-415.8-704.03-257.85-770.84-90.65-804.72 81.13-804.72" />
</clipPath>
<clipPath id="clip_19">
<path transform="matrix(1,0,0,-1,0,540)" d="M0 540H960V0H0Z" />
</clipPath>
<clipPath id="clip_20">
<path transform="matrix(1,0,0,-1,0,540)" d="M960 600H0V1140H960Z" />
</clipPath>
<clipPath id="clip_21">
<path transform="matrix(1,0,0,-1,0,540)" d="M81.12 1584.78C-68.99 1584.78-214.96 1555.13-352.65 1496.89-485.38 1440.74-604.42 1360.52-706.34 1258.6-808.26 1156.68-888.49 1037.64-944.64 904.9-1002.88 767.22-1032.53 621.24-1032.53 471.12-1032.53 321.01-1002.88 175.04-944.64 37.35-888.49-95.39-808.26-214.43-706.35-316.34-604.42-418.27-485.38-498.5-352.64-554.64-214.97-612.88-69-642.53 81.12-642.53 231.23-642.53 377.2-612.88 514.89-554.64 647.64-498.5 766.68-418.26 868.6-316.35 970.51-214.43 1050.74-95.39 1106.89 37.36 1165.13 175.04 1194.78 321.01 1194.78 471.12 1194.78 621.24 1165.13 767.21 1106.89 904.9 1050.74 1037.64 970.51 1156.69 868.59 1258.6 766.67 1360.52 647.63 1440.74 514.9 1496.89 377.21 1555.13 231.24 1584.78 81.12 1584.78" />
</clipPath>
<clipPath id="clip_22">
<path transform="matrix(1,0,0,-1,0,540)" d="M0 540H960V0H0Z" />
</clipPath>
<clipPath id="clip_23">
<path transform="matrix(1,0,0,-1,0,540)" d="M960 600H0V1140H960Z" />
</clipPath>
<clipPath id="clip_24">
<path transform="matrix(1,0,0,-1,0,540)" d="M81.12 1422.58C-47.33 1422.58-172.08 1397.17-289.48 1347.51-402.9 1299.53-504.64 1230.92-591.65 1143.92-678.66 1056.91-747.27 955.16-795.26 841.73-844.92 724.34-870.33 599.59-870.33 471.12-870.33 342.67-844.92 217.92-795.26 100.52-747.28-12.9-678.67-114.65-591.67-201.65-504.65-288.66-402.9-357.28-289.47-405.26-172.09-454.92-47.34-480.33 81.12-480.33 209.58-480.33 334.32-454.92 451.72-405.26 565.15-357.28 666.9-288.67 753.9-201.66 840.91-114.66 909.53-12.9 957.51 100.53 1007.17 217.92 1032.58 342.66 1032.58 471.12 1032.58 599.58 1007.17 724.33 957.51 841.73 909.53 955.15 840.91 1056.9 753.91 1143.91 666.9 1230.91 565.15 1299.53 451.73 1347.51 334.33 1397.17 209.58 1422.58 81.12 1422.58" />
</clipPath>
<clipPath id="clip_25">
<path transform="matrix(1,0,0,-1,0,540)" d="M0 540H960V0H0Z" />
</clipPath>
<clipPath id="clip_26">
<path transform="matrix(1,0,0,-1,0,540)" d="M960 600H0V1140H960Z" />
</clipPath>
<clipPath id="clip_27">
<path transform="matrix(1,0,0,-1,0,540)" d="M81.12 1260.39C-25.68 1260.39-129.2 1239.21-226.31 1198.12-320.41 1158.31-404.86 1101.32-476.96 1029.23-549.06 957.13-606.06 872.68-645.87 778.56-686.96 681.46-708.14 577.93-708.14 471.12-708.14 364.32-686.96 260.8-645.88 163.69-606.06 69.58-549.07-14.87-476.98-86.96-404.88-159.06-320.42-216.06-226.3-255.88-129.2-296.96-25.68-318.14 81.12-318.14 187.92-318.14 291.44-296.96 388.55-255.88 482.66-216.06 567.12-159.07 639.21-86.98 711.31-14.88 768.31 69.58 808.12 163.69 849.21 260.8 870.39 364.32 870.39 471.12 870.39 577.92 849.21 681.45 808.12 778.55 768.31 872.67 711.32 957.12 639.22 1029.21 567.13 1101.31 482.67 1158.31 388.56 1198.12 291.45 1239.2 187.93 1260.39 81.12 1260.39" />
</clipPath>
<clipPath id="clip_28">
<path transform="matrix(1,0,0,-1,0,540)" d="M0 540H960V0H0Z" />
</clipPath>
<clipPath id="clip_29">
<path transform="matrix(1,0,0,-1,0,540)" d="M960 600H0V1140H960Z" />
</clipPath>
<clipPath id="clip_30">
<path transform="matrix(1,0,0,-1,0,540)" d="M81.12 1098.19C-4.02 1098.19-86.32 1081.24-163.14 1048.74-237.93 1017.1-305.08 971.72-362.26 914.55-419.45 857.36-464.84 790.2-496.49 715.39-528.99 638.58-545.95 556.27-545.95 471.12-545.95 385.98-528.99 303.68-496.49 226.87-464.85 152.07-419.47 84.92-362.3 27.74-305.11-29.46-237.94-74.84-163.14-106.49-86.32-138.99-4.02-155.94 81.12-155.94 166.27-155.94 248.56-139 325.38-106.49 400.18-74.85 467.34-29.47 524.52 27.71 581.71 84.89 627.09 152.06 658.74 226.86 691.24 303.68 708.19 385.98 708.19 471.12 708.19 556.27 691.24 638.57 658.74 715.38 627.1 790.18 581.72 857.34 524.54 914.52 467.35 971.71 400.19 1017.09 325.39 1048.74 248.57 1081.24 166.27 1098.19 81.12 1098.19" />
</clipPath>
<clipPath id="clip_31">
<path transform="matrix(1,0,0,-1,0,540)" d="M0 540H960V0H0Z" />
</clipPath>
<clipPath id="clip_32">
<path transform="matrix(1,0,0,-1,0,540)" d="M960 600H0V1140H960Z" />
</clipPath>
<clipPath id="clip_33">
<path transform="matrix(1,0,0,-1,0,540)" d="M81.12 936C17.64 936-43.44 923.28-99.97 899.36-155.44 875.88-205.3 842.12-247.57 799.86-289.85 757.59-323.62 707.71-347.11 652.23-371.03 595.69-383.75 534.62-383.75 471.12-383.75 407.64-371.03 346.56-347.11 290.04-323.63 234.56-289.87 184.7-247.61 142.43-205.33 100.15-155.46 66.38-99.97 42.89-43.44 18.97 17.63 6.25 81.12 6.25 144.61 6.25 205.68 18.97 262.21 42.89 317.69 66.37 367.56 100.13 409.82 142.39 452.1 184.67 485.87 234.54 509.36 290.03 533.28 346.56 546 407.63 546 471.12 546 534.61 533.28 595.68 509.36 652.21 485.88 707.69 452.12 757.56 409.85 799.83 367.58 842.1 317.71 875.87 262.23 899.35 205.69 923.28 144.62 936 81.12 936" />
</clipPath>
<clipPath id="clip_34">
<path transform="matrix(1,0,0,-1,0,540)" d="M0 540H960V0H0Z" />
</clipPath>
<clipPath id="clip_35">
<path transform="matrix(1,0,0,-1,0,540)" d="M960 600H0V1140H960Z" />
</clipPath>
<clipPath id="clip_36">
<path transform="matrix(1,0,0,-1,0,540)" d="M-221.56 471.12C-221.56 303.96-86.04 168.44 81.12 168.44 248.29 168.44 383.81 303.96 383.81 471.12 383.81 638.29 248.29 773.8 81.12 773.8-86.04 773.8-221.56 638.29-221.56 471.12" />
</clipPath>
<clipPath id="clip_37">
<path transform="matrix(1,0,0,-1,0,540)" d="M0 540H960V0H0Z" />
</clipPath>
<clipPath id="clip_38">
<path transform="matrix(1,0,0,-1,0,540)" d="M960 600H0V1140H960Z" />
</clipPath>
<clipPath id="clip_39">
<path transform="matrix(1,0,0,-1,0,540)" d="M-1194.72-804.72H1356.97V1746.97H-1194.72Z" />
</clipPath>
<clipPath id="clip_40">
<path transform="matrix(1,0,0,-1,0,540)" d="M81.13-804.72C252.89-804.72 420.08-770.84 578.07-704.03 730.12-639.71 866.46-547.86 983.29-431.03 1100.12-314.2 1191.96-177.87 1256.28-25.81 1323.09 132.16 1356.97 299.35 1356.97 471.12 1356.97 642.89 1323.09 810.09 1256.28 968.07 1191.96 1120.13 1100.11 1256.47 983.27 1373.3 866.45 1490.12 730.11 1581.96 578.07 1646.27 420.09 1713.09 252.9 1746.97 81.13 1746.97-90.64 1746.97-257.84 1713.09-415.82 1646.27-567.87 1581.96-704.2 1490.12-821.03 1373.29-937.87 1256.46-1029.71 1120.12-1094.03 968.06-1160.84 810.1-1194.72 642.9-1194.72 471.12-1194.72 299.36-1160.84 132.16-1094.03-25.82-1029.71-177.87-937.86-314.21-821.04-431.03-704.2-547.87-567.86-639.72-415.8-704.03-257.85-770.84-90.65-804.72 81.13-804.72" />
</clipPath>
<clipPath id="clip_41">
<path transform="matrix(1,0,0,-1,0,540)" d="M81.12 1584.78C-68.99 1584.78-214.96 1555.13-352.65 1496.89-485.38 1440.74-604.42 1360.52-706.34 1258.6-808.26 1156.68-888.49 1037.64-944.64 904.9-1002.88 767.22-1032.53 621.24-1032.53 471.12-1032.53 321.01-1002.88 175.04-944.64 37.35-888.49-95.39-808.26-214.43-706.35-316.34-604.42-418.27-485.38-498.5-352.64-554.64-214.97-612.88-69-642.53 81.12-642.53 231.23-642.53 377.2-612.88 514.89-554.64 647.64-498.5 766.68-418.26 868.6-316.35 970.51-214.43 1050.74-95.39 1106.89 37.36 1165.13 175.04 1194.78 321.01 1194.78 471.12 1194.78 621.24 1165.13 767.21 1106.89 904.9 1050.74 1037.64 970.51 1156.69 868.59 1258.6 766.67 1360.52 647.63 1440.74 514.9 1496.89 377.21 1555.13 231.24 1584.78 81.12 1584.78" />
</clipPath>
<clipPath id="clip_42">
<path transform="matrix(1,0,0,-1,0,540)" d="M81.12 1422.58C-47.33 1422.58-172.08 1397.17-289.48 1347.51-402.9 1299.53-504.64 1230.92-591.65 1143.92-678.66 1056.91-747.27 955.16-795.26 841.73-844.92 724.34-870.33 599.59-870.33 471.12-870.33 342.67-844.92 217.92-795.26 100.52-747.28-12.9-678.67-114.65-591.67-201.65-504.65-288.66-402.9-357.28-289.47-405.26-172.09-454.92-47.34-480.33 81.12-480.33 209.58-480.33 334.32-454.92 451.72-405.26 565.15-357.28 666.9-288.67 753.9-201.66 840.91-114.66 909.53-12.9 957.51 100.53 1007.17 217.92 1032.58 342.66 1032.58 471.12 1032.58 599.58 1007.17 724.33 957.51 841.73 909.53 955.15 840.91 1056.9 753.91 1143.91 666.9 1230.91 565.15 1299.53 451.73 1347.51 334.33 1397.17 209.58 1422.58 81.12 1422.58" />
</clipPath>
<clipPath id="clip_43">
<path transform="matrix(1,0,0,-1,0,540)" d="M81.12 1260.39C-25.68 1260.39-129.2 1239.21-226.31 1198.12-320.41 1158.31-404.86 1101.32-476.96 1029.23-549.06 957.13-606.06 872.68-645.87 778.56-686.96 681.46-708.14 577.93-708.14 471.12-708.14 364.32-686.96 260.8-645.88 163.69-606.06 69.58-549.07-14.87-476.98-86.96-404.88-159.06-320.42-216.06-226.3-255.88-129.2-296.96-25.68-318.14 81.12-318.14 187.92-318.14 291.44-296.96 388.55-255.88 482.66-216.06 567.12-159.07 639.21-86.98 711.31-14.88 768.31 69.58 808.12 163.69 849.21 260.8 870.39 364.32 870.39 471.12 870.39 577.92 849.21 681.45 808.12 778.55 768.31 872.67 711.32 957.12 639.22 1029.21 567.13 1101.31 482.67 1158.31 388.56 1198.12 291.45 1239.2 187.93 1260.39 81.12 1260.39" />
</clipPath>
<clipPath id="clip_44">
<path transform="matrix(1,0,0,-1,0,540)" d="M81.12 1098.19C-4.02 1098.19-86.32 1081.24-163.14 1048.74-237.93 1017.1-305.08 971.72-362.26 914.55-419.45 857.36-464.84 790.2-496.49 715.39-528.99 638.58-545.95 556.27-545.95 471.12-545.95 385.98-528.99 303.68-496.49 226.87-464.85 152.07-419.47 84.92-362.3 27.74-305.11-29.46-237.94-74.84-163.14-106.49-86.32-138.99-4.02-155.94 81.12-155.94 166.27-155.94 248.56-139 325.38-106.49 400.18-74.85 467.34-29.47 524.52 27.71 581.71 84.89 627.09 152.06 658.74 226.86 691.24 303.68 708.19 385.98 708.19 471.12 708.19 556.27 691.24 638.57 658.74 715.38 627.1 790.18 581.72 857.34 524.54 914.52 467.35 971.71 400.19 1017.09 325.39 1048.74 248.57 1081.24 166.27 1098.19 81.12 1098.19" />
</clipPath>
<clipPath id="clip_45">
<path transform="matrix(1,0,0,-1,0,540)" d="M81.12 936C17.64 936-43.44 923.28-99.97 899.36-155.44 875.88-205.3 842.12-247.57 799.86-289.85 757.59-323.62 707.71-347.11 652.23-371.03 595.69-383.75 534.62-383.75 471.12-383.75 407.64-371.03 346.56-347.11 290.04-323.63 234.56-289.87 184.7-247.61 142.43-205.33 100.15-155.46 66.38-99.97 42.89-43.44 18.97 17.63 6.25 81.12 6.25 144.61 6.25 205.68 18.97 262.21 42.89 317.69 66.37 367.56 100.13 409.82 142.39 452.1 184.67 485.87 234.54 509.36 290.03 533.28 346.56 546 407.63 546 471.12 546 534.61 533.28 595.68 509.36 652.21 485.88 707.69 452.12 757.56 409.85 799.83 367.58 842.1 317.71 875.87 262.23 899.35 205.69 923.28 144.62 936 81.12 936" />
</clipPath>
<clipPath id="clip_46">
<path transform="matrix(1,0,0,-1,0,540)" d="M-221.56 471.12C-221.56 303.96-86.04 168.44 81.12 168.44 248.29 168.44 383.81 303.96 383.81 471.12 383.81 638.29 248.29 773.8 81.12 773.8-86.04 773.8-221.56 638.29-221.56 471.12" />
</clipPath>
<clipPath id="clip_47">
<path transform="matrix(1,0,0,-1,0,540)" d="M0 540H960V0H0Z" />
</clipPath>
<clipPath id="clip_48">
<path transform="matrix(1,0,0,-1,0,540)" d="M0 540H960V0H0Z" />
</clipPath>
<clipPath id="clip_49">
<path transform="matrix(1,0,0,-1,0,540)" d="M0 540H960V0H0Z" />
</clipPath>
<clipPath id="clip_50">
<path transform="matrix(1,0,0,-1,0,540)" d="M0 540H960V0H0Z" />
</clipPath>
</defs>
<g>
<g ns1:groupmode="layer" ns1:label="Layer 1">
<g clip-path="url(#clip_1)">
<g clip-path="url(#clip_2)">
<g opacity=".300003">
<g clip-path="url(#clip_3)">
<g clip-path="url(#clip_4)">
</g>
<g clip-path="url(#clip_5)">
</g>
<g clip-path="url(#clip_6)">
</g>
<g clip-path="url(#clip_7)">
</g>
<g clip-path="url(#clip_8)">
</g>
</g>
</g>
</g>
<g clip-path="url(#clip_9)">
<g opacity=".300003">
<g clip-path="url(#clip_10)">
<g clip-path="url(#clip_11)">
</g>
<g clip-path="url(#clip_12)">
</g>
<g clip-path="url(#clip_13)">
</g>
<g clip-path="url(#clip_14)">
</g>
<g clip-path="url(#clip_15)">
</g>
</g>
</g>
</g>
</g>
<g clip-path="url(#clip_16)">
<g clip-path="url(#clip_17)">
<g clip-path="url(#clip_18)">
</g>
</g>
</g>
<g clip-path="url(#clip_19)">
<g clip-path="url(#clip_20)">
<g clip-path="url(#clip_21)">
</g>
</g>
</g>
<g clip-path="url(#clip_22)">
<g clip-path="url(#clip_23)">
<g clip-path="url(#clip_24)">
</g>
</g>
</g>
<g clip-path="url(#clip_25)">
<g clip-path="url(#clip_26)">
<g clip-path="url(#clip_27)">
</g>
</g>
</g>
<g clip-path="url(#clip_28)">
<g clip-path="url(#clip_29)">
<g clip-path="url(#clip_30)">
</g>
</g>
</g>
<g clip-path="url(#clip_31)">
<g clip-path="url(#clip_32)">
<g clip-path="url(#clip_33)">
</g>
</g>
</g>
<g clip-path="url(#clip_34)">
<g clip-path="url(#clip_35)">
<g clip-path="url(#clip_36)">
</g>
</g>
</g>
<g clip-path="url(#clip_37)">
<g clip-path="url(#clip_38)">
<g opacity=".300003" style="mix-blend-mode:color-burn">
<g clip-path="url(#clip_39)">
<g clip-path="url(#clip_40)">
</g>
<g clip-path="url(#clip_41)">
</g>
<g clip-path="url(#clip_42)">
</g>
<g clip-path="url(#clip_43)">
</g>
<g clip-path="url(#clip_44)">
</g>
<g clip-path="url(#clip_45)">
</g>
<g clip-path="url(#clip_46)">
</g>
</g>
</g>
</g>
<path transform="matrix(1,0,0,-1,718.65,30)" d="M0 0V0C0 4.74 3.84 8.58 8.58 8.58H104.14C108.88 8.58 112.72 4.74 112.72 0 112.72-4.74 108.88-8.58 104.14-8.58H8.58C3.84-8.58 0-4.74 0 0" fill="#ff5533" />
</g>
<g clip-path="url(#clip_47)">
<path transform="matrix(1,0,0,-1,320,211.48)" d="M0 0V-202C0-210.28-6.72-217-15-217H-255C-263.28-217-270-210.28-270-202V38C-270 46.29-263.28 53-255 53H-53C-44.72 53-38 46.28-38 38-38 25.3-27.7 15-15 15-6.72 15 0 8.28 0 0" fill="#3333ff" />
<path transform="matrix(1,0,0,-1,320,173.47)" d="M0 0C0-8.28-6.72-15-15-15-23.28-15-30-8.28-30 0-30 8.28-23.28 15-15 15-6.72 15 0 8.28 0 0" fill="#cbcbff" />
<path transform="matrix(1,0,0,-1,305,186.09)" d="M0 0C-6.96 0-12.61 5.65-12.61 12.61-12.61 19.58-6.96 25.23 0 25.23 6.96 25.23 12.61 19.58 12.61 12.61 12.61 5.65 6.96 0 0 0" fill="#9898ff" />
<path transform="matrix(1,0,0,-1,305,183.7)" d="M0 0C-5.64 0-10.23 4.58-10.23 10.23-10.23 15.87-5.64 20.46 0 20.46 5.64 20.46 10.23 15.87 10.23 10.23 10.23 4.58 5.64 0 0 0" fill="#6666ff" />
<path transform="matrix(1,0,0,-1,305,181.32)" d="M0 0C-4.32 0-7.84 3.52-7.84 7.84-7.84 12.17-4.32 15.68 0 15.68 4.32 15.68 7.84 12.17 7.84 7.84 7.84 3.52 4.32 0 0 0" fill="#3333ff" />
<path transform="matrix(1,0,0,-1,101,229.76)" d="M0 0C-3.39 0-6.14 2.75-6.14 6.14-6.14 9.53-3.39 12.28 0 12.28 3.39 12.28 6.15 9.53 6.15 6.14 6.15 2.75 3.39 0 0 0M2 36.28H0C0 36.28 5.25 20.28-1.88 20.28-5.19 20.28-6 24.28-6 28.28H-8C-8.41 27.77-16 18.61-16 11.08-16 2.37-9.42-3.72 0-3.72 9.42-3.72 16 2.37 16 11.08 16 25.09 2 36.28 2 36.28" fill="#ffffff" />
</g>
<g clip-path="url(#clip_48)">
<path transform="matrix(1,0,0,-1,910,211.48)" d="M0 0V-202C0-210.28-6.72-217-15-217H-255C-263.28-217-270-210.28-270-202V38C-270 46.29-263.28 53-255 53H-53C-44.72 53-38 46.28-38 38-38 25.3-27.7 15-15 15-6.72 15 0 8.28 0 0" fill="#bfff4d" />
<path transform="matrix(1,0,0,-1,910,173.47)" d="M0 0C0-8.28-6.72-15-15-15-23.28-15-30-8.28-30 0-30 8.28-23.28 15-15 15-6.72 15 0 8.28 0 0" fill="#f2ffdb" />
<path transform="matrix(1,0,0,-1,895,186.09)" d="M0 0C-6.96 0-12.61 5.65-12.61 12.61-12.61 19.58-6.96 25.23 0 25.23 6.96 25.23 12.61 19.58 12.61 12.61 12.61 5.65 6.96 0 0 0" fill="#e1ffac" />
<path transform="matrix(1,0,0,-1,895,183.7)" d="M0 0C-5.64 0-10.23 4.58-10.23 10.23-10.23 15.87-5.64 20.46 0 20.46 5.64 20.46 10.23 15.87 10.23 10.23 10.23 4.58 5.64 0 0 0" fill="#d0ff7c" />
<path transform="matrix(1,0,0,-1,895,181.32)" d="M0 0C-4.32 0-7.84 3.52-7.84 7.84-7.84 12.17-4.32 15.68 0 15.68 4.32 15.68 7.84 12.17 7.84 7.84 7.84 3.52 4.32 0 0 0" fill="#bfff4d" />
</g>
<g clip-path="url(#clip_49)">
<path transform="matrix(1,0,0,-1,711,226.65)" d="M0 0-7.37 7.37C-4.78 10.7-3.46 15.07-4.21 19.77-5.32 26.77-11.16 32.31-18.21 33.08-28.45 34.19-37.01 25.63-35.9 15.39-35.14 8.34-29.6 2.49-22.59 1.38-17.9 .636-13.53 1.96-10.2 4.55L-2.83-2.83C-2.04-3.61-.778-3.61 .002-2.83 .784-2.04 .784-.778 .002 .002ZM-20 5.17C-26.62 5.17-32 10.56-32 17.17-32 23.79-26.62 29.17-20 29.17-13.38 29.17-8 23.79-8 17.17-8 10.56-13.38 5.17-20 5.17" />
<path transform="matrix(1,0,0,-1,697,207.48)" d="M0 0H-4V4C-4 5.1-4.9 6-6 6-7.1 6-8 5.1-8 4V0H-12C-13.1 0-14-.896-14-2-14-3.1-13.1-4-12-4H-8V-8C-8-9.1-7.1-10-6-10-4.9-10-4-9.1-4-8V-4H0C1.1-4 2-3.1 2-2 2-.896 1.1 0 0 0" />
<path transform="matrix(1,0,0,-1,615,211.48)" d="M0 0V-202C0-210.28-6.72-217-15-217H-255C-263.28-217-270-210.28-270-202V38C-270 46.29-263.28 53-255 53H-53C-44.72 53-38 46.28-38 38-38 25.3-27.7 15-15 15-6.72 15 0 8.28 0 0" fill="#ff5533" />
<path transform="matrix(1,0,0,-1,615,173.47)" d="M0 0C0-8.28-6.72-15-15-15-23.28-15-30-8.28-30 0-30 8.28-23.28 15-15 15-6.72 15 0 8.28 0 0" fill="#ffd0c9" />
<path transform="matrix(1,0,0,-1,600,186.09)" d="M0 0C-6.96 0-12.61 5.65-12.61 12.61-12.61 19.58-6.96 25.23 0 25.23 6.96 25.23 12.61 19.58 12.61 12.61 12.61 5.65 6.96 0 0 0" fill="#ffa797" />
<path transform="matrix(1,0,0,-1,600,183.7)" d="M0 0C-5.64 0-10.23 4.58-10.23 10.23-10.23 15.87-5.64 20.46 0 20.46 5.64 20.46 10.23 15.87 10.23 10.23 10.23 4.58 5.64 0 0 0" fill="#ff7e65" />
<path transform="matrix(1,0,0,-1,600,181.32)" d="M0 0C-4.32 0-7.84 3.52-7.84 7.84-7.84 12.17-4.32 15.68 0 15.68 4.32 15.68 7.84 12.17 7.84 7.84 7.84 3.52 4.32 0 0 0" fill="#ff5533" />
</g>
<g clip-path="url(#clip_50)">
<path transform="matrix(1,0,0,-1,390,205.48)" d="M0 0C3.31 0 6 2.69 6 6 6 9.31 3.31 12 0 12-3.31 12-6 9.31-6 6-6 2.69-3.31 0 0 0M0 8C1.1 8 2 7.1 2 6 2 4.9 1.1 4 0 4-1.1 4-2 4.9-2 6-2 7.1-1.1 8 0 8" fill="#ffffff" />
<path transform="matrix(1,0,0,-1,396,207.48)" d="M0 0H-12C-14.21 0-16-1.79-16-4V-12C-16-14.61-14.33-16.83-12-17.66V-28C-12-29.11-11.11-30-10-30-8.89-30-8-29.11-8-28V-16C-8-14.89-8.89-14-10-14-11.11-14-12-13.1-12-12V-4H0V-12C0-13.1-.896-14-2-14-3.1-14-4-14.89-4-16V-28C-4-29.11-3.11-30-2-30-.894-30 0-29.11 0-28V-17.66C2.33-16.83 4-14.61 4-12V-4C4-1.79 2.21 0 0 0" fill="#ffffff" />
<path transform="matrix(1,0,0,-1,413.61,205.48)" d="M0 0C3.31 0 6 2.69 6 6 6 9.31 3.31 12 0 12-3.31 12-6 9.31-6 6-6 2.69-3.31 0 0 0M0 8C1.1 8 2 7.1 2 6 2 4.9 1.1 4 0 4-1.1 4-2 4.9-2 6-2 7.1-1.1 8 0 8" fill="#ffffff" />
<path transform="matrix(1,0,0,-1,419.61,207.48)" d="M0 0H-12C-14.21 0-16-1.79-16-4V-12C-16-14.61-14.33-16.83-12-17.66V-28C-12-29.11-11.11-30-10-30-8.89-30-8-29.11-8-28V-16C-8-14.89-8.89-14-10-14-11.11-14-12-13.1-12-12V-4H0V-12C0-13.1-.896-14-2-14-3.1-14-4-14.89-4-16V-28C-4-29.11-3.11-30-2-30-.894-30 0-29.11 0-28V-17.66C2.33-16.83 4-14.61 4-12V-4C4-1.79 2.21 0 0 0" fill="#ffffff" />
<path transform="matrix(1,0,0,-1,437.22,205.48)" d="M0 0C3.31 0 6 2.69 6 6 6 9.31 3.31 12 0 12-3.31 12-6 9.31-6 6-6 2.69-3.31 0 0 0M0 8C1.1 8 2 7.1 2 6 2 4.9 1.1 4 0 4-1.1 4-2 4.9-2 6-2 7.1-1.1 8 0 8" fill="#ffffff" />
<path transform="matrix(1,0,0,-1,443.22,207.48)" d="M0 0H-12C-14.21 0-16-1.79-16-4V-12C-16-14.61-14.33-16.83-12-17.66V-28C-12-29.11-11.11-30-10-30-8.89-30-8-29.11-8-28V-16C-8-14.89-8.89-14-10-14-11.11-14-12-13.1-12-12V-4H0V-12C0-13.1-.896-14-2-14-3.1-14-4-14.89-4-16V-28C-4-29.11-3.11-30-2-30-.894-30 0-29.11 0-28V-17.66C2.33-16.83 4-14.61 4-12V-4C4-1.79 2.21 0 0 0" fill="#ffffff" />
</g>
</g>
</g>
</svg>