<?xml version='1.0' encoding='utf-8'?>
<svg xmlns="http://www.w3.org/2000/svg" xmlns:ns1="http://www.inkscape.org/namespaces/inkscape" xmlns:xlink="http://www.w3.org/1999/xlink" version="1.1" width="960" height="540" viewBox="0 0 960 540">
<defs>
<clipPath id="clip_1">
<path transform="matrix(1,0,0,-1,0,540)" d="M0 540H960V0H0Z" />
</clipPath>
<clipPath id="clip_2">
<path transform="matrix(1,0,0,-1,0,540)" d="M1980-600H1020V-60H1980Z" />
</clipPath>
<clipPath id="clip_3">
<path transform="matrix(1,0,0,-1,0,540)" d="M-174.72-2004.72H2376.97V546.97H-174.72Z" />
</clipPath>
<clipPath id="clip_4">
<path transform="matrix(1,0,0,-1,0,540)" d="M1101.12-2004.72C1272.89-2004.72 1440.09-1970.84 1598.07-1904.03 1750.12-1839.71 1886.46-1747.86 2003.29-1631.03 2120.12-1514.2 2211.96-1377.87 2276.28-1225.81 2343.09-1067.84 2376.97-900.65 2376.97-728.88 2376.97-557.11 2343.09-389.91 2276.28-231.93 2211.96-79.87 2120.11 56.47 2003.27 173.3 1886.44 290.12 1750.11 381.96 1598.07 446.27 1440.09 513.09 1272.9 546.97 1101.12 546.97 929.36 546.97 762.16 513.09 604.18 446.27 452.13 381.96 315.8 290.12 198.97 173.29 82.14 56.46-9.71-79.88-74.03-231.94-140.84-389.9-174.72-557.1-174.72-728.88-174.72-900.64-140.84-1067.84-74.03-1225.82-9.71-1377.87 82.14-1514.21 198.96-1631.03 315.81-1747.87 452.14-1839.72 604.2-1904.03 762.15-1970.84 929.35-2004.72 1101.12-2004.72" />
</clipPath>
<clipPath id="clip_5">
<path transform="matrix(1,0,0,-1,0,540)" d="M1101.12 384.78C951.01 384.78 805.04 355.13 667.35 296.89 534.62 240.75 415.58 160.52 313.66 58.6 211.74-43.32 131.51-162.36 75.36-295.1 17.12-432.78-12.53-578.76-12.53-728.88-12.53-878.99 17.12-1024.96 75.36-1162.65 131.51-1295.39 211.74-1414.43 313.65-1516.34 415.58-1618.27 534.62-1698.5 667.36-1754.64 805.03-1812.88 951-1842.53 1101.12-1842.53 1251.23-1842.53 1397.2-1812.88 1534.89-1754.64 1667.64-1698.49 1786.68-1618.27 1888.6-1516.35 1990.51-1414.43 2070.74-1295.39 2126.89-1162.64 2185.13-1024.96 2214.78-878.99 2214.78-728.88 2214.78-578.76 2185.13-432.79 2126.89-295.1 2070.74-162.36 1990.51-43.31 1888.59 58.6 1786.67 160.52 1667.63 240.74 1534.9 296.89 1397.21 355.13 1251.24 384.78 1101.12 384.78" />
</clipPath>
<clipPath id="clip_6">
<path transform="matrix(1,0,0,-1,0,540)" d="M1101.12 222.58C972.67 222.58 847.92 197.17 730.52 147.51 617.1 99.53 515.36 30.92 428.35-56.08 341.34-143.09 272.73-244.84 224.74-358.27 175.08-475.66 149.67-600.41 149.67-728.88 149.67-857.33 175.08-982.08 224.74-1099.48 272.72-1212.9 341.33-1314.65 428.33-1401.65 515.35-1488.66 617.1-1557.28 730.53-1605.26 847.91-1654.92 972.66-1680.33 1101.12-1680.33 1229.58-1680.33 1354.32-1654.92 1471.72-1605.26 1585.15-1557.28 1686.9-1488.67 1773.9-1401.66 1860.91-1314.66 1929.53-1212.9 1977.51-1099.47 2027.17-982.08 2052.58-857.34 2052.58-728.88 2052.58-600.42 2027.17-475.67 1977.51-358.27 1929.53-244.84 1860.91-143.1 1773.91-56.09 1686.9 30.91 1585.15 99.53 1471.73 147.5 1354.33 197.17 1229.58 222.58 1101.12 222.58" />
</clipPath>
<clipPath id="clip_7">
<path transform="matrix(1,0,0,-1,0,540)" d="M1101.12 60.39C994.33 60.39 890.8 39.21 793.69-1.88 699.59-41.69 615.14-98.68 543.04-170.77 470.94-242.87 413.94-327.32 374.13-421.44 333.05-518.54 311.86-622.07 311.86-728.88 311.86-835.67 333.04-939.2 374.12-1036.31 413.94-1130.41 470.93-1214.87 543.02-1286.96 615.12-1359.06 699.58-1416.06 793.7-1455.88 890.8-1496.96 994.32-1518.14 1101.12-1518.14 1207.92-1518.14 1311.44-1496.96 1408.55-1455.88 1502.66-1416.06 1587.12-1359.07 1659.21-1286.98 1731.31-1214.88 1788.31-1130.42 1828.12-1036.31 1869.21-939.2 1890.39-835.68 1890.39-728.88 1890.39-622.08 1869.21-518.55 1828.12-421.44 1788.31-327.33 1731.32-242.88 1659.22-170.78 1587.13-98.69 1502.67-41.69 1408.56-1.88 1311.45 39.2 1207.93 60.39 1101.12 60.39" />
</clipPath>
<clipPath id="clip_8">
<path transform="matrix(1,0,0,-1,0,540)" d="M960-600H0V-60H960Z" />
</clipPath>
<clipPath id="clip_9">
<path transform="matrix(1,0,0,-1,0,540)" d="M-1194.72-2004.72H1356.97V546.97H-1194.72Z" />
</clipPath>
<clipPath id="clip_10">
<path transform="matrix(1,0,0,-1,0,540)" d="M81.13-2004.72C252.89-2004.72 420.08-1970.84 578.07-1904.03 730.12-1839.71 866.46-1747.86 983.29-1631.03 1100.12-1514.2 1191.96-1377.87 1256.28-1225.81 1323.09-1067.84 1356.97-900.65 1356.97-728.88 1356.97-557.11 1323.09-389.91 1256.28-231.93 1191.96-79.87 1100.11 56.47 983.27 173.3 866.45 290.12 730.11 381.96 578.07 446.27 420.09 513.09 252.9 546.97 81.13 546.97-90.64 546.97-257.84 513.09-415.82 446.27-567.87 381.96-704.2 290.12-821.03 173.29-937.87 56.46-1029.71-79.88-1094.03-231.94-1160.84-389.9-1194.72-557.1-1194.72-728.88-1194.72-900.64-1160.84-1067.84-1094.03-1225.82-1029.71-1377.87-937.86-1514.21-821.04-1631.03-704.2-1747.87-567.86-1839.72-415.8-1904.03-257.85-1970.84-90.65-2004.72 81.13-2004.72" />
</clipPath>
<clipPath id="clip_11">
<path transform="matrix(1,0,0,-1,0,540)" d="M81.12 384.78C-68.99 384.78-214.96 355.13-352.65 296.89-485.38 240.75-604.42 160.52-706.34 58.6-808.26-43.32-888.49-162.36-944.64-295.1-1002.88-432.78-1032.53-578.76-1032.53-728.88-1032.53-878.99-1002.88-1024.96-944.64-1162.65-888.49-1295.39-808.26-1414.43-706.35-1516.34-604.42-1618.27-485.38-1698.5-352.64-1754.64-214.97-1812.88-69-1842.53 81.12-1842.53 231.23-1842.53 377.2-1812.88 514.89-1754.64 647.64-1698.49 766.68-1618.27 868.6-1516.35 970.51-1414.43 1050.74-1295.39 1106.89-1162.64 1165.13-1024.96 1194.78-878.99 1194.78-728.88 1194.78-578.76 1165.13-432.79 1106.89-295.1 1050.74-162.36 970.51-43.31 868.59 58.6 766.67 160.52 647.63 240.74 514.9 296.89 377.21 355.13 231.24 384.78 81.12 384.78" />
</clipPath>
<clipPath id="clip_12">
<path transform="matrix(1,0,0,-1,0,540)" d="M81.12 222.58C-47.33 222.58-172.08 197.17-289.48 147.51-402.9 99.53-504.64 30.92-591.65-56.08-678.66-143.09-747.27-244.84-795.26-358.27-844.92-475.66-870.33-600.41-870.33-728.88-870.33-857.33-844.92-982.08-795.26-1099.48-747.28-1212.9-678.67-1314.65-591.67-1401.65-504.65-1488.66-402.9-1557.28-289.47-1605.26-172.09-1654.92-47.34-1680.33 81.12-1680.33 209.58-1680.33 334.32-1654.92 451.72-1605.26 565.15-1557.28 666.9-1488.67 753.9-1401.66 840.91-1314.66 909.53-1212.9 957.51-1099.47 1007.17-982.08 1032.58-857.34 1032.58-728.88 1032.58-600.42 1007.17-475.67 957.51-358.27 909.53-244.84 840.91-143.1 753.91-56.09 666.9 30.91 565.15 99.53 451.73 147.5 334.33 197.17 209.58 222.58 81.12 222.58" />
</clipPath>
<clipPath id="clip_13">
<path transform="matrix(1,0,0,-1,0,540)" d="M81.12 60.39C-25.68 60.39-129.2 39.21-226.31-1.88-320.41-41.69-404.86-98.68-476.96-170.77-549.06-242.87-606.06-327.32-645.87-421.44-686.96-518.54-708.14-622.07-708.14-728.88-708.14-835.67-686.96-939.2-645.88-1036.31-606.06-1130.41-549.07-1214.87-476.98-1286.96-404.88-1359.06-320.42-1416.06-226.3-1455.88-129.2-1496.96-25.68-1518.14 81.12-1518.14 187.92-1518.14 291.44-1496.96 388.55-1455.88 482.66-1416.06 567.12-1359.07 639.21-1286.98 711.31-1214.88 768.31-1130.42 808.12-1036.31 849.21-939.2 870.39-835.68 870.39-728.88 870.39-622.08 849.21-518.55 808.12-421.44 768.31-327.33 711.32-242.88 639.22-170.78 567.13-98.69 482.67-41.69 388.56-1.88 291.45 39.2 187.93 60.39 81.12 60.39" />
</clipPath>
<clipPath id="clip_14">
<path transform="matrix(1,0,0,-1,0,540)" d="M939.93 540V.001H946.27V0H959.99V266.08L952.62 268.19V540ZM918.62 540V.001H924.71V0H937.95V266.08L930.8 268.23V540ZM897.32 540V.001H903.14V0H915.89V266.08L908.97 268.27V540ZM876.01 540V.001H881.58V0H893.85V266.08L887.15 268.31V540ZM854.7 540V.001H860.01V0H871.8V266.08L865.33 268.34V540ZM833.4 540V.001H838.45V0H849.75V266.08L843.5 268.38V540ZM812.09 540V.001H816.88V0H827.7V266.08L821.68 268.42V540ZM790.78 540V.001H795.32V0H805.65V266.08L799.85 268.46V540ZM769.48 540V.001H773.75V0H783.6V266.08L778.03 268.5V540ZM748.17 540V.001H752.19V0H761.55V266.08L756.2 268.54V540ZM726.87 540V.001H730.62V0H739.5V266.08L734.38 268.57V540ZM705.56 540V.001H709.06V0H717.45V266.08L712.55 268.61V540ZM684.25 540V.001H687.49V0H695.4V266.08L690.73 268.65V540ZM662.95 540V.001H665.93V0H673.35V266.08L668.91 268.69V540ZM641.64 540V.001H644.36V0H651.3V266.08L647.08 268.73V540ZM620.34 540V.001H622.8V0H629.25V266.08L625.26 268.77V540ZM599.03 540V.001H601.23V0H607.2V266.08L603.43 268.81V540ZM577.72 540V.001H579.67V0H585.15V266.08L581.61 268.85V540ZM556.42 540V.001H558.1V0H563.1V266.08L559.79 268.88V540ZM535.11 540V.001H536.54V0H541.05V266.08L537.96 268.92V540ZM513.81 540V.001H514.97V0H519V266.08L516.14 268.96V540ZM492.5 540V.001H493.41V0H496.95V266.08L494.31 269V540Z" />
</clipPath>
<clipPath id="clip_15">
<path transform="matrix(1,0,0,-1,0,540)" d="M0 540H960V0H0Z" />
</clipPath>
</defs>
<g>
<g ns1:groupmode="layer" ns1:label="Layer 1">
<g clip-path="url(#clip_1)">
<g clip-path="url(#clip_2)">
<g opacity=".300003">
<g clip-path="url(#clip_3)">
<g clip-path="url(#clip_4)">
</g>
<g clip-path="url(#clip_5)">
</g>
<g clip-path="url(#clip_6)">
</g>
<g clip-path="url(#clip_7)">
</g>
</g>
</g>
</g>
<g clip-path="url(#clip_8)">
<g opacity=".300003">
<g clip-path="url(#clip_9)">
<g clip-path="url(#clip_10)">
</g>
<g clip-path="url(#clip_11)">
</g>
<g clip-path="url(#clip_12)">
</g>
<g clip-path="url(#clip_13)">
</g>
</g>
</g>
</g>
</g>
<path transform="matrix(1,0,0,-1,0,540)" d="M0 0H960V540H0Z" fill="#ff5533" />
<g clip-path="url(#clip_14)">
<image x="492" y="0" width="468" height="540" xlink:href="../assets/image-01-921be80c1f54.png" />
</g>
<text fill="#ffffff" xml:space="preserve" transform="matrix(1 0 -0 1 0 540)" font-size="60" font-family="AGLBRN+ArialMT"><tspan y="-302.4709" x="50 103.886 137.246 153.92601 196.29203 208.37602 220.35803 233.67804 250.35805 266.50407 298.58009 310.4661 340.4661">We will talk </tspan><tspan y="-242.47089" x="50 82.052 114.464008 146.684 178.61602 195.28403 211.96404 227.72005 259.71809 271.89808 301.89808 318.5781 335.6661 347.7081 367.1901 395.6841">about this first</tspan></text>
<text fill="#ffffff" xml:space="preserve" transform="matrix(1 0 -0 1 0 540)" font-size="20" font-family="AGLBRN+ArialMT"><tspan y="-194.7217" x="50 63.47 74.43 85.554 91.114009 102.074008 113.034008 119.51401 130.63802 136.19802 147.22803 158.27204 169.29404 179.29404 184.85404 194.45003 205.41004 216.30605 222.96405">And here goes your </tspan></text>
<text fill="#ffffff" xml:space="preserve" transform="matrix(1 0 -0 1 0 540)" font-size="20" font-family="VWYXZX+Arial-BoldMT" font-weight="bold"><tspan y="-194.7217" x="228.52405 239.39606 251.53606 264.08607 271.15806 277.92805 283.55003 290.53004 297.30003 302.896">sub-tittle</tspan></text>
<text fill="#ffffff" xml:space="preserve" transform="matrix(1 0 -0 1 0 540)" font-size="60" font-family="VWYXZX+Arial-BoldMT" font-weight="bold"><tspan y="-438.5253" x="50 80.96001">01</tspan></text>
<text fill="#ffffff" xml:space="preserve" transform="matrix(1 0 -0 1 0 540)" font-size="10" font-family="AGLBRN+ArialMT"><tspan y="-25" x="898.6411 904.4411">04</tspan><tspan y="-506.41999" x="849.23117 855.9511 861.5681 866.6541 871.6711 873.9581 879.5681 885.1301 887.91018 894.0791 896.3101 899.32516 902.1821 904.4401">Session Tittle</tspan></text>
<g clip-path="url(#clip_15)">
<path transform="matrix(1,0,0,-1,718.65,30)" d="M0 0V0C0 4.74 3.84 8.58 8.58 8.58H104.14C108.88 8.58 112.72 4.74 112.72 0 112.72-4.74 108.88-8.58 104.14-8.58H8.58C3.84-8.58 0-4.74 0 0" fill="#ffffff" />
</g>
<text fill="#ff5533" xml:space="preserve" transform="matrix(1 0 -0 1 0 540)" font-size="10" font-family="VWYXZX+Arial-BoldMT" font-weight="bold"><tspan y="-506.4182" x="725.7217 732.32669 736.2426 742.39266 745.2946 750.9456 756.6856 760.01559 762.79556 769.4005 773.3705 779.0375 784.6385 790.2655 796.44656 799.9415 805.58157 809.0735 811.9335 818.1235">Project Presentation</tspan></text>
<text fill="#ffffff" xml:space="preserve" transform="matrix(1 0 -0 1 0 540)" font-size="10" font-family="ProximaNova-Bold" font-weight="bold"><tspan y="-25.428223" x="50.00171 57.53571 63.571714 69.67171 75.68371 81.76371 84.323719 90.38371 97.78671 105.26071 108.06771 114.12771 119.9027 127.30571 134.59572 137.43672">©2025 SUN.STUDIO</tspan></text>
<text fill="#ffffff" xml:space="preserve" transform="matrix(1 0 -0 1 0 540)" font-size="10" font-family="ProximaNova-Regular"><tspan y="-25.428223" x="145.08171 147.66172 154.3977 156.7077 158.9577 161.5377 164.9167 167.2267 173.0367 178.6547 181.8727 186.5227 189.1027 192.3867 198.0767 202.7707 208.4707 212.19771 217.06072 222.77973"> All rights reserved</tspan></text>
</g>
</g>
</svg>