<svg xmlns="http://www.w3.org/2000/svg" viewBox="0 0 1625 286" width="1625" height="286"><defs>
<clipPath id="clip_1">
<path transform="matrix(1,0,0,-1,0,2623.16)" d="M0 2623.16H2938.83V0H0Z" />
</clipPath>
<clipPath id="clip_2">
<path transform="matrix(1,0,0,-1,0,2623.16)" d="M0 2623.16H2938.83V0H0Z" />
</clipPath>
<clipPath id="clip_3">
<path transform="matrix(1,0,0,-1,0,2623.16)" d="M0 2623.16H2938.83V0H0Z" />
</clipPath>
<clipPath id="clip_4">
<path transform="matrix(1,0,0,-1,0,2623.16)" d="M0 2623.16H2938.83V0H0Z" />
</clipPath>
<clipPath id="clip_5">
<path transform="matrix(1,0,0,-1,0,2623.16)" d="M0 2623.16H2938.83V0H0Z" />
</clipPath>
<clipPath id="clip_6">
<path transform="matrix(1,0,0,-1,0,2623.16)" d="M0 2623.16H2938.83V0H0Z" />
</clipPath>
<clipPath id="clip_7">
<path transform="matrix(1,0,0,-1,0,2623.16)" d="M0 2623.16H2938.83V0H0Z" />
</clipPath>
<clipPath id="clip_8">
<path transform="matrix(1,0,0,-1,0,2623.16)" d="M0 2623.16H2938.83V0H0Z" />
</clipPath>
<clipPath id="clip_9">
<path transform="matrix(1,0,0,-1,0,2623.16)" d="M0 2623.16H2938.83V0H0Z" />
</clipPath>
<clipPath id="clip_10">
<path transform="matrix(1,0,0,-1,0,2623.16)" d="M0 2623.16H2938.83V0H0Z" />
</clipPath>
<clipPath id="clip_11">
<path transform="matrix(1,0,0,-1,0,2623.16)" d="M0 2623.16H2938.83V0H0Z" />
</clipPath>
<clipPath id="clip_12">
<path transform="matrix(1,0,0,-1,0,2623.16)" d="M0 2623.16H2938.83V0H0Z" />
</clipPath>
<clipPath id="clip_13">
<path transform="matrix(1,0,0,-1,0,2623.16)" d="M0 2623.16H2938.83V0H0Z" />
</clipPath>
<clipPath id="clip_14">
<path transform="matrix(1,0,0,-1,0,2623.16)" d="M0 2623.16H2938.83V0H0Z" />
</clipPath>
<clipPath id="clip_15">
<path transform="matrix(1,0,0,-1,0,2623.16)" d="M0 2623.16H2938.83V0H0Z" />
</clipPath>
<clipPath id="clip_16">
<path transform="matrix(1,0,0,-1,0,2623.16)" d="M0 2623.16H2938.83V0H0Z" />
</clipPath>
<clipPath id="clip_17">
<path transform="matrix(1,0,0,-1,0,2623.16)" d="M0 2623.16H2938.83V0H0Z" />
</clipPath>
<clipPath id="clip_18">
<path transform="matrix(1,0,0,-1,0,2623.16)" d="M641.36-260.83H2197.89V1295.69H641.36Z" />
</clipPath>
<clipPath id="clip_19">
<path transform="matrix(1,0,0,-1,0,2623.16)" d="M858.48-43.71H1980.77V1078.57H858.48Z" />
</clipPath>
<clipPath id="clip_20">
<path transform="matrix(1,0,0,-1,0,2623.16)" d="M641.36-260.83H2197.89V1295.69H641.36Z" />
</clipPath>
</defs>
<g transform="translate(0 -120)"><g transform="translate(-620.52 -1730.09)"><g clip-path="url(#clip_15)"><path transform="matrix(1,0,0,-1,1717.58,1909.14)" d="M0 0H-488.44L-595.92-128.62H-107.09Z" fill="#3333ff" />
<path transform="matrix(1,0,0,-1,1659.11,2037.76)" d="M0 0H-26.97L23.78 60.73Z" fill="#3333ff" />
<path transform="matrix(1,0,0,-1,1183.1,1909.14)" d="M0 0H26.97L-23.78-60.73Z" fill="#3333ff" />
</g><g clip-path="url(#clip_17)"><path transform="matrix(1,0,0,-1,1457.35,2086.27)" d="M0 0H-28V28H-47.46V0H-75.46V-19.46H-47.46V-47.46H-28V-19.46H0Z" fill="#3333ff" />
<path transform="matrix(1,0,0,-1,0,2623.16)" d="M1429.35 517.43H1409.9V536.89H1429.35Z" fill="#9898ff" />
</g></g></g></svg>