<?xml version='1.0' encoding='utf-8'?>
<svg xmlns="http://www.w3.org/2000/svg" xmlns:ns2="http://www.inkscape.org/namespaces/inkscape" xmlns:xlink="http://www.w3.org/1999/xlink" version="1.1" width="2938.83" height="2623.16" viewBox="0 0 2938.83 2623.16">
<defs>
<clipPath id="clip_1">
<path transform="matrix(1,0,0,-1,0,2623.16)" d="M0 2623.157H2938.834V0H0Z" />
</clipPath>
<clipPath id="clip_2">
<path transform="matrix(1,0,0,-1,0,2623.16)" d="M727.91 448.708C727.91 299.066 849.217 177.759 998.859 177.759 1148.5 177.759 1269.808 299.066 1269.808 448.708 1269.808 598.349 1148.5 719.657 998.859 719.657 849.217 719.657 727.91 598.349 727.91 448.708" />
</clipPath>
<g id="mask_3_contents">
<rect x="0" y="0" width="100%" height="100%" fill="white" />
<g>
<clipPath id="clip_4">
<path transform="matrix(1,0,0,-1,0,2623.16)" d="M-32768-32768H32767V32767H-32768Z" />
</clipPath>
<g clip-path="url(#clip_4)">
<image x="727" y="1903" width="543" height="543" xlink:href="assets/image-01-c886fba65d0d.png" />
</g>
</g>
</g>
<mask id="mask_3" mask-type="luminance">
<use xlink:href="#mask_3_contents" />
</mask>
<clipPath id="clip_5">
<path transform="matrix(1,0,0,-1,0,2623.16)" d="M1215.086 448.708C1215.086 299.066 1336.394 177.759 1486.035 177.759 1635.676 177.759 1756.984 299.066 1756.984 448.708 1756.984 598.349 1635.676 719.657 1486.035 719.657 1336.394 719.657 1215.086 598.349 1215.086 448.708" />
</clipPath>
<g id="mask_6_contents">
<rect x="0" y="0" width="100%" height="100%" fill="white" />
<g>
<clipPath id="clip_7">
<path transform="matrix(1,0,0,-1,0,2623.16)" d="M-32768-32768H32767V32767H-32768Z" />
</clipPath>
<g clip-path="url(#clip_7)">
<image x="1215" y="1903" width="542" height="543" xlink:href="assets/image-02-e5d0446fd303.png" />
</g>
</g>
</g>
<mask id="mask_6" mask-type="luminance">
<use xlink:href="#mask_6_contents" />
</mask>
<clipPath id="clip_8">
<path transform="matrix(1,0,0,-1,0,2623.16)" d="M1702.262 448.708C1702.262 299.066 1823.57 177.759 1973.211 177.759 2122.853 177.759 2244.16 299.066 2244.16 448.708 2244.16 598.349 2122.853 719.657 1973.211 719.657 1823.57 719.657 1702.262 598.349 1702.262 448.708" />
</clipPath>
<g id="mask_9_contents">
<rect x="0" y="0" width="100%" height="100%" fill="white" />
<g>
<clipPath id="clip_10">
<path transform="matrix(1,0,0,-1,0,2623.16)" d="M-32768-32768H32767V32767H-32768Z" />
</clipPath>
<g clip-path="url(#clip_10)">
<image x="1702" y="1903" width="543" height="543" xlink:href="assets/image-03-3b476efd2568.png" />
</g>
</g>
</g>
<mask id="mask_9" mask-type="luminance">
<use xlink:href="#mask_9_contents" />
</mask>
<clipPath id="clip_11">
<path transform="matrix(1,0,0,-1,0,2623.16)" d="M795.968 1433.568 719.365 1389.474C693.706 1374.705 677.668 1347.653 677.67 1317.793L677.674 1229.525C677.675 1200.118 693.209 1172.947 718.563 1158.323L796.037 1113.636C821.309 1099.059 852.18 1098.962 878.005 1113.845L954.158 1157.733C980.392 1172.85 996.008 1200.569 995.982 1230.985L995.908 1317.771C995.881 1348.131 979.375 1375.082 953.344 1390.066L878.513 1433.142C865.537 1440.612 851.072 1444.415 836.62 1444.416 822.606 1444.416 808.605 1440.842 795.968 1433.568" />
</clipPath>
<clipPath id="clip_12">
<path transform="matrix(1,0,0,-1,0,2623.16)" d="M1466.657 1433.568 1390.054 1389.474C1364.396 1374.705 1348.358 1347.653 1348.359 1317.793L1348.363 1229.525C1348.365 1200.118 1363.898 1172.947 1389.252 1158.323L1466.726 1113.636C1491.998 1099.059 1522.869 1098.962 1548.694 1113.845L1624.848 1157.733C1651.081 1172.85 1666.697 1200.569 1666.671 1230.985L1666.598 1317.771C1666.571 1348.131 1650.064 1375.082 1624.033 1390.066L1549.203 1433.142C1536.227 1440.612 1521.762 1444.415 1507.31 1444.416 1493.296 1444.416 1479.294 1440.842 1466.657 1433.568" />
</clipPath>
<clipPath id="clip_13">
<path transform="matrix(1,0,0,-1,0,2623.16)" d="M2137.346 1433.568 2060.742 1389.474C2035.085 1374.705 2019.047 1347.653 2019.049 1317.793L2019.052 1229.525C2019.054 1200.118 2034.588 1172.947 2059.941 1158.323L2137.416 1113.636C2162.688 1099.059 2193.559 1098.962 2219.384 1113.845L2295.537 1157.733C2321.771 1172.85 2337.387 1200.569 2337.361 1230.985L2337.286 1317.771C2337.26 1348.131 2320.753 1375.082 2294.723 1390.066L2219.892 1433.142C2206.916 1440.612 2192.451 1444.415 2177.999 1444.416 2163.985 1444.416 2149.983 1440.842 2137.346 1433.568" />
</clipPath>
<clipPath id="clip_14">
<path transform="matrix(1,0,0,-1,0,2623.16)" d="M1146.653 1296.614V1279.671H1131.267V1270.055H1146.653V1252.38H1157.276V1270.055H1172.662V1279.671H1157.276V1296.614Z" />
</clipPath>
<clipPath id="clip_15">
<path transform="matrix(1,0,0,-1,0,2623.16)" d="M1875.444 1280.582 1842.368 1296.83V1285.545L1864.794 1274.625 1842.368 1263.881V1252.596L1875.444 1268.847 1908.519 1252.596V1263.881L1886.095 1274.625 1908.519 1285.545V1296.83Z" />
</clipPath>
</defs>
<g>
<g ns2:groupmode="layer" ns2:label="Layer 1">
<g clip-path="url(#clip_1)">
<path transform="matrix(1,0,0,-1,1149.3771,664.5984)" d="M0 0C0-161.903-131.249-293.152-293.152-293.152-455.055-293.152-586.304-161.903-586.304 0-586.304 161.903-455.055 293.152-293.152 293.152-131.249 293.152 0 161.903 0 0" fill="#cbcbff" />
<path transform="matrix(1,0,0,-1,856.2252,938.74929)" d="M0 0C-151.361 0-274.151 122.789-274.151 274.151-274.151 425.512-151.361 548.302 0 548.302 151.361 548.302 274.151 425.512 274.151 274.151 274.151 122.789 151.361 0 0 0" fill="#a5a5ff" />
<path transform="matrix(1,0,0,-1,856.2253,919.74807)" d="M0 0C-140.819 0-255.15 114.33-255.15 255.15-255.15 395.969-140.819 510.299 0 510.299 140.819 510.299 255.149 395.969 255.149 255.15 255.149 114.33 140.819 0 0 0" fill="#7f7fff" />
<path transform="matrix(1,0,0,-1,856.2255,900.74697)" d="M0 0C-130.277 0-236.149 105.871-236.149 236.149-236.149 366.426-130.277 472.297 0 472.297 130.277 472.297 236.148 366.426 236.148 236.149 236.148 105.871 130.277 0 0 0" fill="#5959ff" />
<path transform="matrix(1,0,0,-1,856.2256,881.7457)" d="M0 0C-119.735 0-217.148 97.412-217.148 217.148-217.148 336.883-119.735 434.295 0 434.295 119.735 434.295 217.146 336.883 217.146 217.148 217.146 97.412 119.735 0 0 0" fill="#3333ff" />
<path transform="matrix(1,0,0,-1,1789.9567,664.5984)" d="M0 0C0-161.903-131.249-293.152-293.152-293.152-455.055-293.152-586.304-161.903-586.304 0-586.304 161.903-455.055 293.152-293.152 293.152-131.249 293.152 0 161.903 0 0" fill="#ffd0c9" />
<path transform="matrix(1,0,0,-1,1496.8048,938.74929)" d="M0 0C-151.361 0-274.151 122.789-274.151 274.151-274.151 425.512-151.361 548.302 0 548.302 151.361 548.302 274.151 425.512 274.151 274.151 274.151 122.789 151.361 0 0 0" fill="#ffb1a4" />
<path transform="matrix(1,0,0,-1,1496.8049,919.74807)" d="M0 0C-140.819 0-255.15 114.33-255.15 255.15-255.15 395.969-140.819 510.299 0 510.299 140.819 510.299 255.149 395.969 255.149 255.15 255.149 114.33 140.819 0 0 0" fill="#ff937e" />
<path transform="matrix(1,0,0,-1,1496.805,900.74697)" d="M0 0C-130.277 0-236.149 105.871-236.149 236.149-236.149 366.426-130.277 472.297 0 472.297 130.277 472.297 236.148 366.426 236.148 236.149 236.148 105.871 130.277 0 0 0" fill="#ff7459" />
<path transform="matrix(1,0,0,-1,1496.8052,881.7457)" d="M0 0C-119.735 0-217.148 97.412-217.148 217.148-217.148 336.883-119.735 434.295 0 434.295 119.735 434.295 217.146 336.883 217.146 217.148 217.146 97.412 119.735 0 0 0" fill="#ff5533" />
<path transform="matrix(1,0,0,-1,2430.5438,664.5984)" d="M0 0C0-161.903-131.249-293.152-293.152-293.152-455.055-293.152-586.304-161.903-586.304 0-586.304 161.903-455.055 293.152-293.152 293.152-131.249 293.152 0 161.903 0 0" fill="#f2ffdb" />
<path transform="matrix(1,0,0,-1,2137.3919,938.74929)" d="M0 0C-151.361 0-274.151 122.789-274.151 274.151-274.151 425.512-151.361 548.302 0 548.302 151.361 548.302 274.151 425.512 274.151 274.151 274.151 122.789 151.361 0 0 0" fill="#e5ffb7" />
<path transform="matrix(1,0,0,-1,2137.3919,919.74807)" d="M0 0C-140.819 0-255.15 114.33-255.15 255.15-255.15 395.969-140.819 510.299 0 510.299 140.819 510.299 255.149 395.969 255.149 255.15 255.149 114.33 140.819 0 0 0" fill="#d9ff94" />
<path transform="matrix(1,0,0,-1,2137.392,900.74697)" d="M0 0C-130.277 0-236.149 105.871-236.149 236.149-236.149 366.426-130.277 472.297 0 472.297 130.277 472.297 236.148 366.426 236.148 236.149 236.148 105.871 130.277 0 0 0" fill="#ccff71" />
<path transform="matrix(1,0,0,-1,2137.392,881.7457)" d="M0 0C-119.735 0-217.147 97.412-217.147 217.148-217.147 336.883-119.735 434.295 0 434.295 119.735 434.295 217.146 336.883 217.146 217.148 217.146 97.412 119.735 0 0 0" fill="#bfff4d" />
</g>
<g clip-path="url(#clip_2)">
<g mask="url(#mask_3)">
<image x="727" y="1903" width="543" height="543" xlink:href="assets/image-04-b5d510ac5889.png" />
</g>
</g>
<g clip-path="url(#clip_5)">
<g mask="url(#mask_6)">
<image x="1215" y="1903" width="542" height="543" xlink:href="assets/image-05-6f20183e61ee.png" />
</g>
</g>
<g clip-path="url(#clip_8)">
<g mask="url(#mask_9)">
<image x="1702" y="1903" width="543" height="543" xlink:href="assets/image-04-b5d510ac5889.png" />
</g>
</g>
<g clip-path="url(#clip_11)">
<image x="677" y="1178" width="320" height="347" xlink:href="assets/image-06-743b10156b7e.png" />
</g>
<g clip-path="url(#clip_12)">
<image x="1348" y="1178" width="319" height="347" xlink:href="assets/image-07-645d112bda54.png" />
</g>
<g clip-path="url(#clip_13)">
<image x="2019" y="1178" width="319" height="347" xlink:href="assets/image-08-a386e0c48bba.png" />
</g>
<g clip-path="url(#clip_14)">
<image x="1131" y="1326" width="42" height="45" xlink:href="assets/image-09-53ea2c35032b.png" />
</g>
<g clip-path="url(#clip_15)">
<image x="1842" y="1326" width="67" height="45" xlink:href="assets/image-10-7af27f20d457.png" />
</g>
</g>
</g>
</svg>