<?xml version='1.0' encoding='utf-8'?>
<svg xmlns="http://www.w3.org/2000/svg" xmlns:ns1="http://www.inkscape.org/namespaces/inkscape" version="1.1" width="960" height="540" viewBox="0 0 960 540">
<defs>
<clipPath id="clip_1">
<path transform="matrix(1,0,0,-1,0,540)" d="M0 540H960V0H0Z" />
</clipPath>
<clipPath id="clip_2">
<path transform="matrix(1,0,0,-1,0,540)" d="M1980 1800H1020V2340H1980Z" />
</clipPath>
<clipPath id="clip_3">
<path transform="matrix(1,0,0,-1,0,540)" d="M-174.72 395.28H2376.97V2946.97H-174.72Z" />
</clipPath>
<clipPath id="clip_4">
<path transform="matrix(1,0,0,-1,0,540)" d="M1101.12 395.28C1272.89 395.28 1440.09 429.16 1598.07 495.97 1750.12 560.29 1886.46 652.14 2003.29 768.97 2120.12 885.79 2211.96 1022.13 2276.28 1174.19 2343.09 1332.16 2376.97 1499.35 2376.97 1671.12 2376.97 1842.89 2343.09 2010.09 2276.28 2168.07 2211.96 2320.13 2120.11 2456.47 2003.27 2573.3 1886.44 2690.12 1750.11 2781.96 1598.07 2846.27 1440.09 2913.09 1272.9 2946.97 1101.12 2946.97 929.36 2946.97 762.16 2913.09 604.18 2846.27 452.13 2781.96 315.8 2690.12 198.97 2573.29 82.14 2456.46-9.71 2320.12-74.03 2168.06-140.84 2010.1-174.72 1842.9-174.72 1671.12-174.72 1499.36-140.84 1332.16-74.03 1174.18-9.71 1022.13 82.14 885.79 198.96 768.97 315.81 652.13 452.14 560.28 604.2 495.97 762.15 429.16 929.35 395.28 1101.12 395.28" />
</clipPath>
<clipPath id="clip_5">
<path transform="matrix(1,0,0,-1,0,540)" d="M960 1800H0V2340H960Z" />
</clipPath>
<clipPath id="clip_6">
<path transform="matrix(1,0,0,-1,0,540)" d="M-1194.72 395.28H1356.97V2946.97H-1194.72Z" />
</clipPath>
<clipPath id="clip_7">
<path transform="matrix(1,0,0,-1,0,540)" d="M81.13 395.28C252.89 395.28 420.08 429.16 578.07 495.97 730.12 560.29 866.46 652.14 983.29 768.97 1100.12 885.79 1191.96 1022.13 1256.28 1174.19 1323.09 1332.16 1356.97 1499.35 1356.97 1671.12 1356.97 1842.89 1323.09 2010.09 1256.28 2168.07 1191.96 2320.13 1100.11 2456.47 983.27 2573.3 866.45 2690.12 730.11 2781.96 578.07 2846.27 420.09 2913.09 252.9 2946.97 81.13 2946.97-90.64 2946.97-257.84 2913.09-415.82 2846.27-567.87 2781.96-704.2 2690.12-821.03 2573.29-937.87 2456.46-1029.71 2320.12-1094.03 2168.06-1160.84 2010.1-1194.72 1842.9-1194.72 1671.12-1194.72 1499.36-1160.84 1332.16-1094.03 1174.18-1029.71 1022.13-937.86 885.79-821.04 768.97-704.2 652.13-567.86 560.28-415.8 495.97-257.85 429.16-90.65 395.28 81.13 395.28" />
</clipPath>
<clipPath id="clip_8">
<path transform="matrix(1,0,0,-1,0,540)" d="M0 540H960V0H0Z" />
</clipPath>
<clipPath id="clip_9">
<path transform="matrix(1,0,0,-1,0,540)" d="M960 1200H0V1740H960Z" />
</clipPath>
<clipPath id="clip_10">
<path transform="matrix(1,0,0,-1,0,540)" d="M81.13-204.72C252.89-204.72 420.08-170.84 578.07-104.03 730.12-39.71 866.46 52.14 983.29 168.97 1100.12 285.8 1191.96 422.13 1256.28 574.19 1323.09 732.16 1356.97 899.35 1356.97 1071.12 1356.97 1242.89 1323.09 1410.09 1256.28 1568.07 1191.96 1720.13 1100.11 1856.47 983.27 1973.3 866.45 2090.12 730.11 2181.96 578.07 2246.27 420.09 2313.09 252.9 2346.97 81.13 2346.97-90.64 2346.97-257.84 2313.09-415.82 2246.27-567.87 2181.96-704.2 2090.12-821.03 1973.29-937.87 1856.46-1029.71 1720.12-1094.03 1568.06-1160.84 1410.1-1194.72 1242.9-1194.72 1071.12-1194.72 899.36-1160.84 732.16-1094.03 574.18-1029.71 422.13-937.86 285.79-821.04 168.97-704.2 52.13-567.86-39.72-415.8-104.03-257.85-170.84-90.65-204.72 81.13-204.72" />
</clipPath>
<clipPath id="clip_11">
<path transform="matrix(1,0,0,-1,0,540)" d="M0 540H960V0H0Z" />
</clipPath>
<clipPath id="clip_12">
<path transform="matrix(1,0,0,-1,0,540)" d="M960 1200H0V1740H960Z" />
</clipPath>
<clipPath id="clip_13">
<path transform="matrix(1,0,0,-1,0,540)" d="M81.12 2184.78C-68.99 2184.78-214.96 2155.13-352.65 2096.89-485.38 2040.74-604.42 1960.52-706.34 1858.6-808.26 1756.68-888.49 1637.64-944.64 1504.9-1002.88 1367.22-1032.53 1221.24-1032.53 1071.12-1032.53 921.01-1002.88 775.04-944.64 637.35-888.49 504.61-808.26 385.57-706.35 283.66-604.42 181.73-485.38 101.5-352.64 45.36-214.97-12.88-69-42.53 81.12-42.53 231.23-42.53 377.2-12.88 514.89 45.36 647.64 101.5 766.68 181.74 868.6 283.65 970.51 385.57 1050.74 504.61 1106.89 637.36 1165.13 775.04 1194.78 921.01 1194.78 1071.12 1194.78 1221.24 1165.13 1367.21 1106.89 1504.9 1050.74 1637.64 970.51 1756.69 868.59 1858.6 766.67 1960.52 647.63 2040.74 514.9 2096.89 377.21 2155.13 231.24 2184.78 81.12 2184.78" />
</clipPath>
<clipPath id="clip_14">
<path transform="matrix(1,0,0,-1,0,540)" d="M0 540H960V0H0Z" />
</clipPath>
<clipPath id="clip_15">
<path transform="matrix(1,0,0,-1,0,540)" d="M960 1200H0V1740H960Z" />
</clipPath>
<clipPath id="clip_16">
<path transform="matrix(1,0,0,-1,0,540)" d="M81.12 2022.58C-47.33 2022.58-172.08 1997.17-289.48 1947.51-402.9 1899.53-504.64 1830.92-591.65 1743.92-678.66 1656.91-747.27 1555.16-795.26 1441.73-844.92 1324.34-870.33 1199.59-870.33 1071.12-870.33 942.67-844.92 817.92-795.26 700.52-747.28 587.1-678.67 485.35-591.67 398.35-504.65 311.34-402.9 242.72-289.47 194.74-172.09 145.08-47.34 119.67 81.12 119.67 209.58 119.67 334.32 145.08 451.72 194.74 565.15 242.72 666.9 311.33 753.9 398.34 840.91 485.34 909.53 587.1 957.51 700.53 1007.17 817.92 1032.58 942.66 1032.58 1071.12 1032.58 1199.58 1007.17 1324.33 957.51 1441.72 909.53 1555.15 840.91 1656.9 753.91 1743.91 666.9 1830.91 565.15 1899.53 451.73 1947.51 334.33 1997.17 209.58 2022.58 81.12 2022.58" />
</clipPath>
<clipPath id="clip_17">
<path transform="matrix(1,0,0,-1,0,540)" d="M0 540H960V0H0Z" />
</clipPath>
<clipPath id="clip_18">
<path transform="matrix(1,0,0,-1,0,540)" d="M960 1200H0V1740H960Z" />
</clipPath>
<clipPath id="clip_19">
<path transform="matrix(1,0,0,-1,0,540)" d="M81.12 1860.39C-25.68 1860.39-129.2 1839.21-226.31 1798.12-320.41 1758.31-404.86 1701.32-476.96 1629.23-549.06 1557.13-606.06 1472.68-645.87 1378.56-686.96 1281.45-708.14 1177.93-708.14 1071.12-708.14 964.33-686.96 860.8-645.88 763.7-606.06 669.59-549.07 585.13-476.98 513.04-404.88 440.94-320.42 383.94-226.3 344.12-129.2 303.04-25.68 281.86 81.12 281.86 187.92 281.86 291.44 303.04 388.55 344.12 482.66 383.94 567.12 440.93 639.21 513.02 711.31 585.12 768.31 669.58 808.12 763.69 849.21 860.8 870.39 964.32 870.39 1071.12 870.39 1177.92 849.21 1281.45 808.12 1378.56 768.31 1472.67 711.32 1557.12 639.22 1629.21 567.13 1701.31 482.67 1758.31 388.56 1798.12 291.45 1839.2 187.93 1860.39 81.12 1860.39" />
</clipPath>
<clipPath id="clip_20">
<path transform="matrix(1,0,0,-1,0,540)" d="M0 540H960V0H0Z" />
</clipPath>
<clipPath id="clip_21">
<path transform="matrix(1,0,0,-1,0,540)" d="M960 1200H0V1740H960Z" />
</clipPath>
<clipPath id="clip_22">
<path transform="matrix(1,0,0,-1,0,540)" d="M81.12 1698.19C-4.02 1698.19-86.32 1681.24-163.14 1648.74-237.93 1617.1-305.08 1571.72-362.26 1514.55-419.45 1457.36-464.84 1390.19-496.49 1315.39-528.99 1238.58-545.95 1156.27-545.95 1071.12-545.95 985.98-528.99 903.68-496.49 826.87-464.85 752.07-419.47 684.92-362.3 627.74-305.11 570.54-237.94 525.16-163.14 493.51-86.32 461.01-4.02 444.06 81.12 444.06 166.27 444.06 248.56 461 325.38 493.51 400.18 525.15 467.34 570.53 524.52 627.71 581.71 684.89 627.09 752.06 658.74 826.86 691.24 903.68 708.19 985.98 708.19 1071.12 708.19 1156.27 691.24 1238.57 658.74 1315.38 627.1 1390.18 581.72 1457.34 524.54 1514.52 467.35 1571.71 400.19 1617.09 325.39 1648.74 248.57 1681.24 166.27 1698.19 81.12 1698.19" />
</clipPath>
<clipPath id="clip_23">
<path transform="matrix(1,0,0,-1,0,540)" d="M0 540H960V0H0Z" />
</clipPath>
<clipPath id="clip_24">
<path transform="matrix(1,0,0,-1,0,540)" d="M960 1200H0V1740H960Z" />
</clipPath>
<clipPath id="clip_25">
<path transform="matrix(1,0,0,-1,0,540)" d="M-1194.72-204.72H1356.97V2346.97H-1194.72Z" />
</clipPath>
<clipPath id="clip_26">
<path transform="matrix(1,0,0,-1,0,540)" d="M81.13-204.72C252.89-204.72 420.08-170.84 578.07-104.03 730.12-39.71 866.46 52.14 983.29 168.97 1100.12 285.8 1191.96 422.13 1256.28 574.19 1323.09 732.16 1356.97 899.35 1356.97 1071.12 1356.97 1242.89 1323.09 1410.09 1256.28 1568.07 1191.96 1720.13 1100.11 1856.47 983.27 1973.3 866.45 2090.12 730.11 2181.96 578.07 2246.27 420.09 2313.09 252.9 2346.97 81.13 2346.97-90.64 2346.97-257.84 2313.09-415.82 2246.27-567.87 2181.96-704.2 2090.12-821.03 1973.29-937.87 1856.46-1029.71 1720.12-1094.03 1568.06-1160.84 1410.1-1194.72 1242.9-1194.72 1071.12-1194.72 899.36-1160.84 732.16-1094.03 574.18-1029.71 422.13-937.86 285.79-821.04 168.97-704.2 52.13-567.86-39.72-415.8-104.03-257.85-170.84-90.65-204.72 81.13-204.72" />
</clipPath>
<clipPath id="clip_27">
<path transform="matrix(1,0,0,-1,0,540)" d="M81.12 2184.78C-68.99 2184.78-214.96 2155.13-352.65 2096.89-485.38 2040.74-604.42 1960.52-706.34 1858.6-808.26 1756.68-888.49 1637.64-944.64 1504.9-1002.88 1367.22-1032.53 1221.24-1032.53 1071.12-1032.53 921.01-1002.88 775.04-944.64 637.35-888.49 504.61-808.26 385.57-706.35 283.66-604.42 181.73-485.38 101.5-352.64 45.36-214.97-12.88-69-42.53 81.12-42.53 231.23-42.53 377.2-12.88 514.89 45.36 647.64 101.5 766.68 181.74 868.6 283.65 970.51 385.57 1050.74 504.61 1106.89 637.36 1165.13 775.04 1194.78 921.01 1194.78 1071.12 1194.78 1221.24 1165.13 1367.21 1106.89 1504.9 1050.74 1637.64 970.51 1756.69 868.59 1858.6 766.67 1960.52 647.63 2040.74 514.9 2096.89 377.21 2155.13 231.24 2184.78 81.12 2184.78" />
</clipPath>
<clipPath id="clip_28">
<path transform="matrix(1,0,0,-1,0,540)" d="M81.12 2022.58C-47.33 2022.58-172.08 1997.17-289.48 1947.51-402.9 1899.53-504.64 1830.92-591.65 1743.92-678.66 1656.91-747.27 1555.16-795.26 1441.73-844.92 1324.34-870.33 1199.59-870.33 1071.12-870.33 942.67-844.92 817.92-795.26 700.52-747.28 587.1-678.67 485.35-591.67 398.35-504.65 311.34-402.9 242.72-289.47 194.74-172.09 145.08-47.34 119.67 81.12 119.67 209.58 119.67 334.32 145.08 451.72 194.74 565.15 242.72 666.9 311.33 753.9 398.34 840.91 485.34 909.53 587.1 957.51 700.53 1007.17 817.92 1032.58 942.66 1032.58 1071.12 1032.58 1199.58 1007.17 1324.33 957.51 1441.72 909.53 1555.15 840.91 1656.9 753.91 1743.91 666.9 1830.91 565.15 1899.53 451.73 1947.51 334.33 1997.17 209.58 2022.58 81.12 2022.58" />
</clipPath>
<clipPath id="clip_29">
<path transform="matrix(1,0,0,-1,0,540)" d="M81.12 1860.39C-25.68 1860.39-129.2 1839.21-226.31 1798.12-320.41 1758.31-404.86 1701.32-476.96 1629.23-549.06 1557.13-606.06 1472.68-645.87 1378.56-686.96 1281.45-708.14 1177.93-708.14 1071.12-708.14 964.33-686.96 860.8-645.88 763.7-606.06 669.59-549.07 585.13-476.98 513.04-404.88 440.94-320.42 383.94-226.3 344.12-129.2 303.04-25.68 281.86 81.12 281.86 187.92 281.86 291.44 303.04 388.55 344.12 482.66 383.94 567.12 440.93 639.21 513.02 711.31 585.12 768.31 669.58 808.12 763.69 849.21 860.8 870.39 964.32 870.39 1071.12 870.39 1177.92 849.21 1281.45 808.12 1378.56 768.31 1472.67 711.32 1557.12 639.22 1629.21 567.13 1701.31 482.67 1758.31 388.56 1798.12 291.45 1839.2 187.93 1860.39 81.12 1860.39" />
</clipPath>
<clipPath id="clip_30">
<path transform="matrix(1,0,0,-1,0,540)" d="M81.12 1698.19C-4.02 1698.19-86.32 1681.24-163.14 1648.74-237.93 1617.1-305.08 1571.72-362.26 1514.55-419.45 1457.36-464.84 1390.19-496.49 1315.39-528.99 1238.58-545.95 1156.27-545.95 1071.12-545.95 985.98-528.99 903.68-496.49 826.87-464.85 752.07-419.47 684.92-362.3 627.74-305.11 570.54-237.94 525.16-163.14 493.51-86.32 461.01-4.02 444.06 81.12 444.06 166.27 444.06 248.56 461 325.38 493.51 400.18 525.15 467.34 570.53 524.52 627.71 581.71 684.89 627.09 752.06 658.74 826.86 691.24 903.68 708.19 985.98 708.19 1071.12 708.19 1156.27 691.24 1238.57 658.74 1315.38 627.1 1390.18 581.72 1457.34 524.54 1514.52 467.35 1571.71 400.19 1617.09 325.39 1648.74 248.57 1681.24 166.27 1698.19 81.12 1698.19" />
</clipPath>
<clipPath id="clip_31">
<path transform="matrix(1,0,0,-1,0,540)" d="M0 540H960V0H0Z" />
</clipPath>
<clipPath id="clip_32">
<path transform="matrix(1,0,0,-1,0,540)" d="M0 540H960V0H0Z" />
</clipPath>
</defs>
<g>
<g ns1:groupmode="layer" ns1:label="Layer 1">
<g clip-path="url(#clip_1)">
<g clip-path="url(#clip_2)">
<g opacity=".300003">
<g clip-path="url(#clip_3)">
<g clip-path="url(#clip_4)">
</g>
</g>
</g>
</g>
<g clip-path="url(#clip_5)">
<g opacity=".300003">
<g clip-path="url(#clip_6)">
<g clip-path="url(#clip_7)">
</g>
</g>
</g>
</g>
</g>
<g clip-path="url(#clip_8)">
<g clip-path="url(#clip_9)">
<g clip-path="url(#clip_10)">
</g>
</g>
</g>
<g clip-path="url(#clip_11)">
<g clip-path="url(#clip_12)">
<g clip-path="url(#clip_13)">
</g>
</g>
</g>
<g clip-path="url(#clip_14)">
<g clip-path="url(#clip_15)">
<g clip-path="url(#clip_16)">
</g>
</g>
</g>
<g clip-path="url(#clip_17)">
<g clip-path="url(#clip_18)">
<g clip-path="url(#clip_19)">
</g>
</g>
</g>
<g clip-path="url(#clip_20)">
<g clip-path="url(#clip_21)">
<g clip-path="url(#clip_22)">
</g>
</g>
</g>
<g clip-path="url(#clip_23)">
<g clip-path="url(#clip_24)">
<g opacity=".300003" style="mix-blend-mode:color-burn">
<g clip-path="url(#clip_25)">
<g clip-path="url(#clip_26)">
</g>
<g clip-path="url(#clip_27)">
</g>
<g clip-path="url(#clip_28)">
</g>
<g clip-path="url(#clip_29)">
</g>
<g clip-path="url(#clip_30)">
</g>
</g>
</g>
</g>
<path transform="matrix(1,0,0,-1,718.65,30)" d="M0 0V0C0 4.74 3.84 8.58 8.58 8.58H104.14C108.88 8.58 112.72 4.74 112.72 0 112.72-4.74 108.88-8.58 104.14-8.58H8.58C3.84-8.58 0-4.74 0 0" fill="#ff5533" />
</g>
<g clip-path="url(#clip_31)">
<path transform="matrix(1,0,0,-1,246.58,212.46)" d="M0 0V-202C0-210.28-6.72-217-15-217H-181.14C-189.42-217-196.14-210.28-196.14-202V38C-196.14 46.29-189.42 53-181.14 53H-53C-44.72 53-38 46.28-38 38-38 25.3-27.7 15-15 15-6.72 15 0 8.28 0 0" fill="#3333ff" />
<path transform="matrix(1,0,0,-1,246.58,174.46)" d="M0 0C0-8.28-6.72-15-15-15-23.28-15-30-8.28-30 0-30 8.28-23.28 15-15 15-6.72 15 0 8.28 0 0" fill="#cbcbff" />
<path transform="matrix(1,0,0,-1,231.58,187.07)" d="M0 0C-6.96 0-12.61 5.65-12.61 12.61-12.61 19.58-6.96 25.23 0 25.23 6.96 25.23 12.61 19.58 12.61 12.61 12.61 5.65 6.96 0 0 0" fill="#9898ff" />
<path transform="matrix(1,0,0,-1,231.58,184.69)" d="M0 0C-5.64 0-10.23 4.58-10.23 10.23-10.23 15.87-5.64 20.46 0 20.46 5.64 20.46 10.23 15.87 10.23 10.23 10.23 4.58 5.64 0 0 0" fill="#6666ff" />
<path transform="matrix(1,0,0,-1,231.58,182.3)" d="M0 0C-4.32 0-7.84 3.52-7.84 7.84-7.84 12.17-4.32 15.68 0 15.68 4.32 15.68 7.84 12.17 7.84 7.84 7.84 3.52 4.32 0 0 0" fill="#3333ff" />
<path transform="matrix(1,0,0,-1,467.72,212.46)" d="M0 0V-202C0-210.28-6.72-217-15-217H-181.14C-189.42-217-196.14-210.28-196.14-202V38C-196.14 46.29-189.42 53-181.14 53H-53C-44.72 53-38 46.28-38 38-38 25.3-27.7 15-15 15-6.72 15 0 8.28 0 0" fill="#ff5533" />
<path transform="matrix(1,0,0,-1,467.72,174.46)" d="M0 0C0-8.28-6.72-15-15-15-23.28-15-30-8.28-30 0-30 8.28-23.28 15-15 15-6.72 15 0 8.28 0 0" fill="#ffd0c9" />
<path transform="matrix(1,0,0,-1,452.72,187.07)" d="M0 0C-6.96 0-12.61 5.65-12.61 12.61-12.61 19.58-6.96 25.23 0 25.23 6.96 25.23 12.61 19.58 12.61 12.61 12.61 5.65 6.96 0 0 0" fill="#ffa797" />
<path transform="matrix(1,0,0,-1,452.72,184.69)" d="M0 0C-5.64 0-10.23 4.58-10.23 10.23-10.23 15.87-5.64 20.46 0 20.46 5.64 20.46 10.23 15.87 10.23 10.23 10.23 4.58 5.64 0 0 0" fill="#ff7e65" />
<path transform="matrix(1,0,0,-1,452.72,182.3)" d="M0 0C-4.32 0-7.84 3.52-7.84 7.84-7.84 12.17-4.32 15.68 0 15.68 4.32 15.68 7.84 12.17 7.84 7.84 7.84 3.52 4.32 0 0 0" fill="#ff5533" />
<path transform="matrix(1,0,0,-1,688.86,212.46)" d="M0 0V-202C0-210.28-6.72-217-15-217H-181.14C-189.42-217-196.14-210.28-196.14-202V38C-196.14 46.29-189.42 53-181.14 53H-53C-44.72 53-38 46.28-38 38-38 25.3-27.7 15-15 15-6.72 15 0 8.28 0 0" fill="#bfff4d" />
<path transform="matrix(1,0,0,-1,688.86,174.46)" d="M0 0C0-8.28-6.72-15-15-15-23.28-15-30-8.28-30 0-30 8.28-23.28 15-15 15-6.72 15 0 8.28 0 0" fill="#f2ffdb" />
<path transform="matrix(1,0,0,-1,673.86,187.07)" d="M0 0C-6.96 0-12.61 5.65-12.61 12.61-12.61 19.58-6.96 25.23 0 25.23 6.96 25.23 12.61 19.58 12.61 12.61 12.61 5.65 6.96 0 0 0" fill="#e1ffac" />
<path transform="matrix(1,0,0,-1,673.86,184.69)" d="M0 0C-5.64 0-10.23 4.58-10.23 10.23-10.23 15.87-5.64 20.46 0 20.46 5.64 20.46 10.23 15.87 10.23 10.23 10.23 4.58 5.64 0 0 0" fill="#d0ff7c" />
<path transform="matrix(1,0,0,-1,673.86,182.3)" d="M0 0C-4.32 0-7.84 3.52-7.84 7.84-7.84 12.17-4.32 15.68 0 15.68 4.32 15.68 7.84 12.17 7.84 7.84 7.84 3.52 4.32 0 0 0" fill="#bfff4d" />
<path transform="matrix(1,0,0,-1,910,212.46)" d="M0 0V-202C0-210.28-6.72-217-15-217H-181.14C-189.42-217-196.14-210.28-196.14-202V38C-196.14 46.29-189.42 53-181.14 53H-53C-44.72 53-38 46.28-38 38-38 25.3-27.7 15-15 15-6.72 15 0 8.28 0 0" fill="#c39aff" />
<path transform="matrix(1,0,0,-1,910,174.46)" d="M0 0C0-8.28-6.72-15-15-15-23.28-15-30-8.28-30 0-30 8.28-23.28 15-15 15-6.72 15 0 8.28 0 0" fill="#f3ebff" />
<path transform="matrix(1,0,0,-1,895,187.07)" d="M0 0C-6.96 0-12.61 5.65-12.61 12.61-12.61 19.58-6.96 25.23 0 25.23 6.96 25.23 12.61 19.58 12.61 12.61 12.61 5.65 6.96 0 0 0" fill="#e3d0ff" />
<path transform="matrix(1,0,0,-1,895,184.69)" d="M0 0C-5.64 0-10.23 4.58-10.23 10.23-10.23 15.87-5.64 20.46 0 20.46 5.64 20.46 10.23 15.87 10.23 10.23 10.23 4.58 5.64 0 0 0" fill="#d3b5ff" />
<path transform="matrix(1,0,0,-1,895,182.3)" d="M0 0C-4.32 0-7.84 3.52-7.84 7.84-7.84 12.17-4.32 15.68 0 15.68 4.32 15.68 7.84 12.17 7.84 7.84 7.84 3.52 4.32 0 0 0" fill="#c39aff" />
<path transform="matrix(1,0,0,-1,96.44,205.46)" d="M0 0C-4.41 0-8 3.59-8 8-8 12.41-4.41 16 0 16 4.41 16 8 12.41 8 8 8 3.59 4.41 0 0 0M0 12C-2.21 12-4 10.21-4 8-4 5.79-2.21 4 0 4 2.21 4 4 5.79 4 8 4 10.21 2.21 12 0 12" fill="#ffffff" />
<path transform="matrix(1,0,0,-1,96.44,227.46)" d="M0 0C-7.73 0-16 2.73-16 6.8-16 14.08-8.82 20 0 20 8.82 20 16 14.08 16 6.8 16 2.73 7.73 0 0 0M-12 7.06C-11.17 6.12-6.74 4 0 4 6.74 4 11.17 6.12 12 7.06 11.81 12.02 6.5 16 0 16-6.5 16-11.81 12.02-12 7.06" fill="#ffffff" />
</g>
<g clip-path="url(#clip_32)">
<path transform="matrix(1,0,0,-1,317.64,189.46)" d="M0 0-1.4-5.6C-2.5-6.1-3.53-6.7-4.5-7.39L-10.05-5.8-16.05-16.2-11.91-20.2C-11.97-20.79-12-21.39-12-22-12-22.61-11.97-23.21-11.91-23.8L-16.05-27.8-10.05-38.2-4.5-36.61C-3.53-37.3-2.5-37.9-1.4-38.4L0-44H12L13.4-38.4C14.5-37.9 15.53-37.3 16.49-36.61L22.05-38.2 28.05-27.8 23.91-23.8C23.97-23.21 24-22.61 24-22 24-21.39 23.97-20.79 23.91-20.2L28.05-16.2 22.05-5.8 16.49-7.39C15.53-6.7 14.5-6.1 13.4-5.6L12 0ZM-3.73-11.77-2.15-10.64C-1.4-10.1-.591-9.63 .247-9.25L2.01-8.45 3.13-4H8.88L9.99-8.45 11.76-9.25C12.6-9.63 13.4-10.1 14.16-10.64L15.73-11.77 20.16-10.51 23.03-15.49 19.74-18.67 19.93-20.6C19.98-21.07 20-21.55 20-22 20-22.45 19.98-22.93 19.93-23.4L19.74-25.33 23.03-28.51 20.15-33.49 15.73-32.23 14.16-33.36C13.4-33.9 12.59-34.37 11.76-34.75L9.99-35.55 8.88-40H3.12L2.01-35.55 .245-34.75C-.593-34.37-1.4-33.9-2.16-33.36L-3.73-32.23-8.15-33.49-11.03-28.51-7.74-25.33-7.93-23.4C-7.98-22.93-8-22.46-8-22-8-21.54-7.98-21.07-7.93-20.6L-7.74-18.67-11.03-15.49-8.15-10.51-3.73-11.77Z" fill="#ffffff" />
<path transform="matrix(1,0,0,-1,323.64,207.46)" d="M0 0C2.21 0 4-1.79 4-4 4-6.21 2.21-8 0-8-2.21-8-4-6.21-4-4-4-1.79-2.21 0 0 0M0 4C-4.42 4-8 .418-8-4-8-8.42-4.42-12 0-12 4.42-12 8-8.42 8-4 8 .418 4.42 4 0 4" fill="#ffffff" />
<path transform="matrix(1,0,0,-1,561.9,216.44)" d="M0 0-.898 1.54C-1.46 2.5-2.69 2.82-3.64 2.25-4.59 1.69-4.91 .476-4.35-.474L-3.46-2.01C-2.93-2.92-3.28-3.72-3.45-4.02-3.62-4.32-4.14-5.02-5.18-5.02H-17.52L-15.27-2.77C-14.49-1.99-14.49-.724-15.27 .056-16.05 .838-17.32 .838-18.1 .056L-23.76-5.61C-24.54-6.39-24.54-7.65-23.76-8.43L-18.1-14.1C-17.32-14.88-16.05-14.88-15.27-14.1-14.49-13.31-14.49-12.05-15.27-11.27L-17.52-9.02H-5.18C-.554-9.02 2.33-4 0 0" />
<path transform="matrix(1,0,0,-1,557.38,198.61)" d="M0 0C-1.07 .282-2.16-.356-2.44-1.42L-3.25-4.5-9.47 6.17C-10.63 8.15-12.64 9.14-14.65 9.14-16.66 9.14-18.68 8.15-19.83 6.17L-20.84 4.44C-21.4 3.48-21.08 2.26-20.12 1.7-19.17 1.15-17.94 1.47-17.39 2.43L-16.38 4.15C-15.86 5.05-15 5.15-14.65 5.15-14.3 5.15-13.45 5.05-12.92 4.15L-6.71-6.51-9.78-5.7C-10.85-5.42-11.94-6.06-12.22-7.12-12.51-8.19-11.87-9.29-10.8-9.57L-3.06-11.61C-1.99-11.89-.894-11.25-.612-10.18L1.43-2.44C1.71-1.37 1.07-.278 .004 .004Z" />
<path transform="matrix(1,0,0,-1,526.58,206.78)" d="M0 0C-1.07-.282-2.16 .356-2.44 1.42-2.73 2.49-2.09 3.59-1.02 3.87L6.72 5.91C7.79 6.19 8.89 5.55 9.17 4.48L11.21-3.26C11.49-4.33 10.85-5.42 9.78-5.7 8.72-5.99 7.62-5.35 7.34-4.28L6.53-1.21 .424-11.68C-.102-12.58 .244-13.38 .418-13.68 .592-13.98 1.11-14.69 2.15-14.69H4.14C5.25-14.69 6.14-15.58 6.14-16.69 6.14-17.79 5.25-18.69 4.14-18.69H2.15C-2.48-18.69-5.36-13.67-3.03-9.67L3.08 .808 .004-.002Z" />
<path transform="matrix(1,0,0,-1,771.87,217.46)" d="M0 0H-24V2.76L-20 4.76V16C-20 20.41-16.41 24-12 24-7.59 24-4 20.41-4 16V4.76L0 2.76ZM0 7.24V16C0 22.62-5.38 28-12 28-18.62 28-24 22.62-24 16V7.24L-28 5.24V-4H-16C-16-6.21-14.21-8-12-8-9.79-8-8-6.21-8-4H4V5.24Z" fill-rule="evenodd" />
</g>
</g>
</g>
</svg>