<?xml version='1.0' encoding='utf-8'?>
<svg xmlns="http://www.w3.org/2000/svg" xmlns:ns1="http://www.inkscape.org/namespaces/inkscape" version="1.1" width="1920" height="1080" viewBox="0 0 1920 1080">
<defs>
<clipPath id="clip_1">
<path transform="matrix(1,0,0,-1,0,1080)" d="M0 1080H1920V0H0Z" />
</clipPath>
<clipPath id="clip_2">
<path transform="matrix(1,0,0,-1,0,1080)" d="M0 1080H1920V0H0Z" />
</clipPath>
<clipPath id="clip_3">
<path transform="matrix(1,0,0,-1,0,1080)" d="M0 1080H1920V0H0Z" />
</clipPath>
<clipPath id="clip_4">
<path transform="matrix(1,0,0,-1,0,1080)" d="M0 1080H1920V0H0Z" />
</clipPath>
<clipPath id="clip_5">
<path transform="matrix(1,0,0,-1,0,1080)" d="M0 1080H1920V0H0Z" />
</clipPath>
<clipPath id="clip_6">
<path transform="matrix(1,0,0,-1,0,1080)" d="M0 1080H1920V0H0Z" />
</clipPath>
<clipPath id="clip_7">
<path transform="matrix(1,0,0,-1,0,1080)" d="M0 1080H1920V0H0Z" />
</clipPath>
</defs>
<g>
<g ns1:groupmode="layer" ns1:label="Layer 1">
<g clip-path="url(#clip_1)">
<path transform="matrix(1,0,0,-1,1823.42,75)" d="M0 0H-173.985C-185.501 0-194.836-9.335-194.836-20.85V-20.851C-194.836-32.366-185.501-41.701-173.985-41.701H0C11.515-41.701 20.851-32.366 20.851-20.851V-20.85C20.851-9.335 11.515 0 0 0M0-1C10.946-1 19.851-9.905 19.851-20.851 19.851-31.796 10.946-40.701 0-40.701H-173.985C-184.931-40.701-193.836-31.796-193.836-20.85-193.836-9.905-184.931-1-173.985-1Z" fill="#444454" />
</g>
<g clip-path="url(#clip_2)">
<path transform="matrix(1,0,0,-1,788.2076,668.3728)" d="M0 0C-9.87 0-17.899 8.029-17.899 17.898V223.716C-17.899 233.585-9.87 241.614 0 241.614H1033.26C1043.129 241.614 1051.158 233.585 1051.158 223.716V17.898C1051.158 8.029 1043.129 0 1033.26 0Z" fill="#f3f9ff" />
<path transform="matrix(1,0,0,-1,1821.4674,424.75813)" d="M0 0H-1033.26C-1044.25 0-1053.159-8.909-1053.159-19.899V-225.716C-1053.159-236.706-1044.25-245.615-1033.26-245.615H0C10.99-245.615 19.899-236.706 19.899-225.716V-19.899C19.899-8.909 10.99 0 0 0M0-4C8.767-4 15.899-11.132 15.899-19.899V-225.716C15.899-234.483 8.767-241.615 0-241.615H-1033.26C-1042.027-241.615-1049.159-234.483-1049.159-225.716V-19.899C-1049.159-11.132-1042.027-4-1033.26-4Z" fill="#ffffff" />
<path transform="matrix(1,0,0,-1,1820.921,420.75819)" d="M0 0H-1033.26C-1044.25 0-1053.159 8.909-1053.159 19.899V50.497C-1053.159 61.486-1044.25 70.396-1033.26 70.396H0C10.99 70.396 19.899 61.486 19.899 50.497V19.899C19.899 8.909 10.99 0 0 0" fill="#ffd200" />
<path transform="matrix(1,0,0,-1,1820.921,420.75819)" stroke-width="2" stroke-linecap="butt" stroke-miterlimit="10" stroke-linejoin="miter" fill="none" stroke="#f3f9ff" d="M0 0H-1033.26C-1044.25 0-1053.159 8.909-1053.159 19.899V50.497C-1053.159 61.486-1044.25 70.396-1033.26 70.396H0C10.99 70.396 19.899 61.486 19.899 50.497V19.899C19.899 8.909 10.99 0 0 0Z" />
<path transform="matrix(1,0,0,-1,788.2076,798.00466)" d="M0 0C-9.87 0-17.899 8.029-17.899 17.899V106.244C-17.899 116.113-9.87 124.143 0 124.143H1033.26C1043.129 124.143 1051.158 116.113 1051.158 106.244V17.899C1051.158 8.029 1043.129 0 1033.26 0Z" fill="#f3f9ff" />
<path transform="matrix(1,0,0,-1,1821.4674,671.8618)" d="M0 0H-1033.26C-1044.25 0-1053.159-8.909-1053.159-19.899V-108.244C-1053.159-119.234-1044.25-128.143-1033.26-128.143H0C10.99-128.143 19.899-119.234 19.899-108.244V-19.899C19.899-8.909 10.99 0 0 0M0-4C8.767-4 15.899-11.132 15.899-19.899V-108.244C15.899-117.011 8.767-124.143 0-124.143H-1033.26C-1042.027-124.143-1049.159-117.011-1049.159-108.244V-19.899C-1049.159-11.132-1042.027-4-1033.26-4Z" fill="#ffffff" />
</g>
<g clip-path="url(#clip_3)">
<path transform="matrix(1,0,0,-1,98.2809,668.3728)" d="M0 0C-9.87 0-17.899 8.029-17.899 17.898V223.716C-17.899 233.585-9.87 241.614 0 241.614H650.129C659.998 241.614 668.027 233.585 668.027 223.716V17.898C668.027 8.029 659.998 0 650.129 0Z" fill="#f3f9ff" />
<path transform="matrix(1,0,0,-1,748.4094,424.75813)" d="M0 0H-650.129C-661.119 0-670.028-8.909-670.028-19.899V-225.716C-670.028-236.706-661.119-245.615-650.129-245.615H0C10.99-245.615 19.899-236.706 19.899-225.716V-19.899C19.899-8.909 10.99 0 0 0M0-4C8.767-4 15.899-11.132 15.899-19.899V-225.716C15.899-234.483 8.767-241.615 0-241.615H-650.129C-658.895-241.615-666.028-234.483-666.028-225.716V-19.899C-666.028-11.132-658.895-4-650.129-4Z" fill="#ffffff" />
<path transform="matrix(1,0,0,-1,98.2838,420.25849)" d="M0 0C-10.7 0-19.402 8.702-19.402 19.399V49.997C-19.402 60.693-10.7 69.396-.003 69.396H650.126C660.822 69.396 669.524 60.693 669.524 49.997V19.399C669.524 8.802 660.873-3.998 650.129-4Z" fill="#1a1a1a" />
<path transform="matrix(1,0,0,-1,748.4094,350.3625)" d="M0 0H-650.129C-661.119 0-670.028-8.909-670.028-19.899V-50.497C-670.028-61.487-661.119-70.396-650.129-70.396L0-74.396C10.99-74.396 19.899-61.487 19.899-50.497V-19.899C19.899-8.909 10.99 0 0 0M0-1C10.421-1 18.899-9.478 18.899-19.899V-50.497C18.899-60.868 10.469-73.396 .006-73.396L-650.129-69.396C-660.55-69.396-669.028-60.917-669.028-50.497V-19.899C-669.028-9.478-660.55-1-650.129-1Z" fill="#f3f9ff" />
</g>
<g clip-path="url(#clip_4)">
<path transform="matrix(1,0,0,-1,98.2809,798.00466)" d="M0 0C-9.87 0-17.899 8.029-17.899 17.899V106.244C-17.899 116.113-9.87 124.143 0 124.143H650.129C659.998 124.143 668.027 116.113 668.027 106.244V17.899C668.027 8.029 659.998 0 650.129 0Z" fill="#f3f9ff" />
<path transform="matrix(1,0,0,-1,748.4094,671.8618)" d="M0 0H-650.129C-661.119 0-670.028-8.909-670.028-19.899V-108.244C-670.028-119.234-661.119-128.143-650.129-128.143H0C10.99-128.143 19.899-119.234 19.899-108.244V-19.899C19.899-8.909 10.99 0 0 0M0-4C8.767-4 15.899-11.132 15.899-19.899V-108.244C15.899-117.011 8.767-124.143 0-124.143H-650.129C-658.895-124.143-666.028-117.011-666.028-108.244V-19.899C-666.028-11.132-658.895-4-650.129-4Z" fill="#ffffff" />
</g>
<g clip-path="url(#clip_5)">
<path transform="matrix(1,0,0,-1,0,1080)" d="M859.859 625.027H844.111V609.279H859.859ZM858.859 610.28H845.111V624.028H858.859Z" />
<path transform="matrix(1,0,0,-1,0,1080)" d="M859.859 588.439H844.111V572.69107H859.859ZM858.859 573.691H845.111V587.43899H858.859Z" />
<path transform="matrix(1,0,0,-1,0,1080)" d="M859.859 552.227H844.111V536.479H859.859ZM858.859 537.479H845.111V551.227H858.859Z" />
<path transform="matrix(1,0,0,-1,0,1080)" d="M859.859 516.729H844.111V500.98103H859.859ZM858.859 501.981H845.111V515.729H858.859Z" />
<path transform="matrix(1,0,0,-1,0,1080)" d="M859.859 454.55H844.111V438.802H859.859ZM858.859 439.802H845.111V453.55H858.859Z" />
</g>
<g clip-path="url(#clip_6)">
<path transform="matrix(1,0,0,-1,0,1080)" d="M859.859 368.681H844.111V352.933H859.859ZM858.859 353.933H845.111V367.681H858.859Z" />
<path transform="matrix(1,0,0,-1,0,1080)" d="M859.859 332.47H844.111V316.72203H859.859ZM858.859 317.722H845.111V331.46998H858.859Z" />
<path transform="matrix(1,0,0,-1,788.2076,932.05349)" d="M0 0C-9.87 0-17.899 8.029-17.899 17.898V112.15C-17.899 122.02-9.87 130.049 0 130.049H1033.26C1043.129 130.049 1051.158 122.02 1051.158 112.15V17.898C1051.158 8.029 1043.129 0 1033.26 0Z" fill="#f3f9ff" />
<path transform="matrix(1,0,0,-1,1821.4674,800.00466)" d="M0 0H-1033.26C-1044.25 0-1053.159-8.909-1053.159-19.899V-114.15C-1053.159-125.14-1044.25-134.049-1033.26-134.049H0C10.99-134.049 19.899-125.14 19.899-114.15V-19.899C19.899-8.909 10.99 0 0 0M0-4C8.767-4 15.899-11.132 15.899-19.899V-114.15C15.899-122.917 8.767-130.049 0-130.049H-1033.26C-1042.027-130.049-1049.159-122.917-1049.159-114.15V-19.899C-1049.159-11.132-1042.027-4-1033.26-4Z" fill="#ffffff" />
<path transform="matrix(1,0,0,-1,98.2809,932.05349)" d="M0 0C-9.87 0-17.899 8.029-17.899 17.898V112.15C-17.899 122.02-9.87 130.049 0 130.049H650.129C659.998 130.049 668.027 122.02 668.027 112.15V17.898C668.027 8.029 659.998 0 650.129 0Z" fill="#f3f9ff" />
<path transform="matrix(1,0,0,-1,748.4094,800.00466)" d="M0 0H-650.129C-661.119 0-670.028-8.909-670.028-19.899V-114.15C-670.028-125.14-661.119-134.049-650.129-134.049H0C10.99-134.049 19.899-125.14 19.899-114.15V-19.899C19.899-8.909 10.99 0 0 0M0-4C8.767-4 15.899-11.132 15.899-19.899V-114.15C15.899-122.917 8.767-130.049 0-130.049H-650.129C-658.895-130.049-666.028-122.917-666.028-114.15V-19.899C-666.028-11.132-658.895-4-650.129-4Z" fill="#ffffff" />
</g>
<g clip-path="url(#clip_7)">
<path transform="matrix(1,0,0,-1,0,1080)" d="M859.859 239.929H844.111V224.181H859.859ZM858.859 225.181H845.111V238.929H858.859Z" />
<path transform="matrix(1,0,0,-1,0,1080)" d="M859.859 203.717H844.111V187.969H859.859ZM858.859 188.969H845.111V202.717H858.859Z" />
</g>
</g>
<g ns1:groupmode="layer" ns1:label="Layer 2">
</g>
</g>
</svg>