<?xml version='1.0' encoding='utf-8'?>
<svg xmlns="http://www.w3.org/2000/svg" version="1.1" width="1920" height="1080" viewBox="0 0 1920 1080">
<defs>
<clipPath id="clip_1">
<path transform="matrix(1,0,0,-1,0,1080)" d="M0 1080H1920V0H0Z" />
</clipPath>
<clipPath id="clip_2">
<path transform="matrix(1,0,0,-1,0,1080)" d="M0 1080H1920V0H0Z" />
</clipPath>
</defs>
<g>
<g clip-path="url(#clip_1)">
<path transform="matrix(1,0,0,-1,1822.7671,931.8696)" d="M0 0H-1723.216C-1733.037 0-1740.999 7.962-1740.999 17.783V79.651C-1740.999 89.473-1733.037 97.435-1723.216 97.435H0C9.822 97.435 17.783 89.473 17.783 79.651V17.783C17.783 7.962 9.822 0 0 0" fill="#3333ff" />
<path transform="matrix(1,0,0,-1,1822.7671,931.8696)" stroke-width="7" stroke-linecap="round" stroke-linejoin="round" fill="none" stroke="#ffffff" d="M0 0H-1723.216C-1733.037 0-1740.999 7.962-1740.999 17.783V79.651C-1740.999 89.473-1733.037 97.435-1723.216 97.435H0C9.822 97.435 17.783 89.473 17.783 79.651V17.783C17.783 7.962 9.822 0 0 0Z" />
<path transform="matrix(1,0,0,-1,1823.3331,305.95039)" d="M0 0H-337.377C-347.966 0-356.551 8.584-356.551 19.174V43.994C-356.551 54.583-347.966 63.168-337.377 63.168H0C10.589 63.168 19.174 54.583 19.174 43.994V19.174C19.174 8.584 10.589 0 0 0" fill="#fff140" />
<path transform="matrix(1,0,0,-1,1823.3331,305.95039)" stroke-width="7" stroke-linecap="butt" stroke-miterlimit="10" stroke-linejoin="miter" fill="none" stroke="#ffffff" d="M0 0H-337.377C-347.966 0-356.551 8.584-356.551 19.174V43.994C-356.551 54.583-347.966 63.168-337.377 63.168H0C10.589 63.168 19.174 54.583 19.174 43.994V19.174C19.174 8.584 10.589 0 0 0Z" />
<path transform="matrix(1,0,0,-1,1447.6087,305.95039)" d="M0 0H-611.087C-621.676 0-630.261 8.584-630.261 19.174V43.994C-630.261 54.583-621.676 63.168-611.087 63.168H0C10.589 63.168 19.174 54.583 19.174 43.994V19.174C19.174 8.584 10.589 0 0 0" fill="#fff140" />
<path transform="matrix(1,0,0,-1,1447.6087,305.95039)" stroke-width="7" stroke-linecap="butt" stroke-miterlimit="10" stroke-linejoin="miter" fill="none" stroke="#ffffff" d="M0 0H-611.087C-621.676 0-630.261 8.584-630.261 19.174V43.994C-630.261 54.583-621.676 63.168-611.087 63.168H0C10.589 63.168 19.174 54.583 19.174 43.994V19.174C19.174 8.584 10.589 0 0 0Z" />
<path transform="matrix(1,0,0,-1,798.1739,305.95039)" d="M0 0H-452.015C-462.604 0-471.189 8.584-471.189 19.174V43.994C-471.189 54.583-462.604 63.168-452.015 63.168H0C10.589 63.168 19.174 54.583 19.174 43.994V19.174C19.174 8.584 10.589 0 0 0" fill="#fff140" />
<path transform="matrix(1,0,0,-1,798.1739,305.95039)" stroke-width="7" stroke-linecap="butt" stroke-miterlimit="10" stroke-linejoin="miter" fill="none" stroke="#ffffff" d="M0 0H-452.015C-462.604 0-471.189 8.584-471.189 19.174V43.994C-471.189 54.583-462.604 63.168-452.015 63.168H0C10.589 63.168 19.174 54.583 19.174 43.994V19.174C19.174 8.584 10.589 0 0 0Z" />
</g>
<g clip-path="url(#clip_2)">
<path transform="matrix(1,0,0,-1,1821.8692,827.7826)" d="M0 0H-1719.463C-1730.861 0-1740.101 9.24-1740.101 20.638V413.542C-1740.101 424.94-1730.861 434.18-1719.463 434.18H0C11.398 434.18 20.638 424.94 20.638 413.542V20.638C20.638 9.24 11.398 0 0 0" fill="#f9f9f9" />
<path transform="matrix(1,0,0,-1,1821.8692,827.7826)" stroke-width="7" stroke-linecap="round" stroke-linejoin="round" fill="none" stroke="#ffffff" d="M0 0H-1719.463C-1730.861 0-1740.101 9.24-1740.101 20.638V413.542C-1740.101 424.94-1730.861 434.18-1719.463 434.18H0C11.398 434.18 20.638 424.94 20.638 413.542V20.638C20.638 9.24 11.398 0 0 0Z" />
<path transform="matrix(1,0,0,-1,1830.111,689.90396)" d="M0 0H-1735.817C-1741.582 0-1746.256 4.674-1746.256 10.44V130.598C-1746.256 136.363-1741.582 141.037-1735.817 141.037H0C5.766 141.037 10.44 136.363 10.44 130.598V10.44C10.44 4.674 5.766 0 0 0" fill="#ffffff" />
<path transform="matrix(1,0,0,-1,1823.3331,395.95039)" d="M0 0H-337.377C-347.966 0-356.551 8.584-356.551 19.174V70.826C-356.551 81.416-347.966 90-337.377 90H0C10.589 90 19.174 81.416 19.174 70.826V19.174C19.174 8.584 10.589 0 0 0" fill="#3333ff" />
<path transform="matrix(1,0,0,-1,1823.3331,395.95039)" stroke-width="7" stroke-linecap="round" stroke-linejoin="round" fill="none" stroke="#ffffff" d="M0 0H-337.377C-347.966 0-356.551 8.584-356.551 19.174V70.826C-356.551 81.416-347.966 90-337.377 90H0C10.589 90 19.174 81.416 19.174 70.826V19.174C19.174 8.584 10.589 0 0 0Z" />
<path transform="matrix(1,0,0,-1,1447.6087,395.95039)" d="M0 0H-611.087C-621.676 0-630.261 8.584-630.261 19.174V70.826C-630.261 81.416-621.676 90-611.087 90H0C10.589 90 19.174 81.416 19.174 70.826V19.174C19.174 8.584 10.589 0 0 0" fill="#3333ff" />
<path transform="matrix(1,0,0,-1,1447.6087,395.95039)" stroke-width="7" stroke-linecap="round" stroke-linejoin="round" fill="none" stroke="#ffffff" d="M0 0H-611.087C-621.676 0-630.261 8.584-630.261 19.174V70.826C-630.261 81.416-621.676 90-611.087 90H0C10.589 90 19.174 81.416 19.174 70.826V19.174C19.174 8.584 10.589 0 0 0Z" />
<path transform="matrix(1,0,0,-1,798.1739,395.95039)" d="M0 0H-452.015C-462.604 0-471.189 8.584-471.189 19.174V70.826C-471.189 81.416-462.604 90-452.015 90H0C10.589 90 19.174 81.416 19.174 70.826V19.174C19.174 8.584 10.589 0 0 0" fill="#3333ff" />
<path transform="matrix(1,0,0,-1,798.1739,395.95039)" stroke-width="7" stroke-linecap="round" stroke-linejoin="round" fill="none" stroke="#ffffff" d="M0 0H-452.015C-462.604 0-471.189 8.584-471.189 19.174V70.826C-471.189 81.416-462.604 90-452.015 90H0C10.589 90 19.174 81.416 19.174 70.826V19.174C19.174 8.584 10.589 0 0 0Z" />
</g>
</g>
</svg>