<?xml version='1.0' encoding='utf-8'?>
<svg xmlns="http://www.w3.org/2000/svg" xmlns:ns2="http://www.inkscape.org/namespaces/inkscape" xmlns:xlink="http://www.w3.org/1999/xlink" version="1.1" width="960" height="540" viewBox="0 0 960 540">
<defs>
<clipPath id="clip_1">
<path transform="matrix(1,0,0,-1,0,540)" d="M0 540H960V0H0Z" />
</clipPath>
<clipPath id="clip_2">
<path transform="matrix(1,0,0,-1,0,540)" d="M960 1800H0V2340H960Z" />
</clipPath>
<clipPath id="clip_3">
<path transform="matrix(1,0,0,-1,0,540)" d="M-1194.72 395.28H1356.97V2946.97H-1194.72Z" />
</clipPath>
<clipPath id="clip_4">
<path transform="matrix(1,0,0,-1,0,540)" d="M81.13 395.28C252.89 395.28 420.08 429.16 578.07 495.97 730.12 560.29 866.46 652.14 983.29 768.97 1100.12 885.79 1191.96 1022.13 1256.28 1174.19 1323.09 1332.16 1356.97 1499.35 1356.97 1671.12 1356.97 1842.89 1323.09 2010.09 1256.28 2168.07 1191.96 2320.13 1100.11 2456.47 983.27 2573.3 866.45 2690.12 730.11 2781.96 578.07 2846.27 420.09 2913.09 252.9 2946.97 81.13 2946.97-90.64 2946.97-257.84 2913.09-415.82 2846.27-567.87 2781.96-704.2 2690.12-821.03 2573.29-937.87 2456.46-1029.71 2320.12-1094.03 2168.06-1160.84 2010.1-1194.72 1842.9-1194.72 1671.12-1194.72 1499.36-1160.84 1332.16-1094.03 1174.18-1029.71 1022.13-937.86 885.79-821.04 768.97-704.2 652.13-567.86 560.28-415.8 495.97-257.85 429.16-90.65 395.28 81.13 395.28" />
</clipPath>
<clipPath id="clip_5">
<path transform="matrix(1,0,0,-1,0,540)" d="M-60 1800H-1020V2340H-60Z" />
</clipPath>
<clipPath id="clip_6">
<path transform="matrix(1,0,0,-1,0,540)" d="M-2214.72 395.28H336.97V2946.97H-2214.72Z" />
</clipPath>
<clipPath id="clip_7">
<path transform="matrix(1,0,0,-1,0,540)" d="M-938.88 395.28C-767.11 395.28-599.91 429.16-441.94 495.97-289.88 560.29-153.54 652.14-36.71 768.97 80.12 885.79 171.96 1022.13 236.28 1174.19 303.09 1332.16 336.97 1499.35 336.97 1671.12 336.97 1842.89 303.09 2010.09 236.28 2168.07 171.96 2320.13 80.11 2456.47-36.73 2573.3-153.56 2690.12-289.89 2781.96-441.93 2846.27-599.91 2913.09-767.1 2946.97-938.88 2946.97-1110.64 2946.97-1277.84 2913.09-1435.82 2846.27-1587.87 2781.96-1724.2 2690.12-1841.03 2573.29-1957.87 2456.46-2049.71 2320.12-2114.03 2168.06-2180.84 2010.1-2214.72 1842.9-2214.72 1671.12-2214.72 1499.36-2180.84 1332.16-2114.03 1174.18-2049.71 1022.13-1957.86 885.79-1841.04 768.97-1724.19 652.13-1587.86 560.28-1435.8 495.97-1277.85 429.16-1110.65 395.28-938.88 395.28" />
</clipPath>
<clipPath id="clip_8">
<path transform="matrix(1,0,0,-1,0,540)" d="M0 540H960V0H0Z" />
</clipPath>
<clipPath id="clip_9">
<path transform="matrix(1,0,0,-1,0,540)" d="M-60 1200H-1020V1740H-60Z" />
</clipPath>
<clipPath id="clip_10">
<path transform="matrix(1,0,0,-1,0,540)" d="M-938.88-204.72C-767.11-204.72-599.91-170.84-441.94-104.03-289.88-39.71-153.54 52.14-36.71 168.97 80.12 285.8 171.96 422.13 236.28 574.19 303.09 732.16 336.97 899.35 336.97 1071.12 336.97 1242.89 303.09 1410.09 236.28 1568.07 171.96 1720.13 80.11 1856.47-36.73 1973.3-153.56 2090.12-289.89 2181.96-441.93 2246.27-599.91 2313.09-767.1 2346.97-938.88 2346.97-1110.64 2346.97-1277.84 2313.09-1435.82 2246.27-1587.87 2181.96-1724.2 2090.12-1841.03 1973.29-1957.87 1856.46-2049.71 1720.12-2114.03 1568.06-2180.84 1410.1-2214.72 1242.9-2214.72 1071.12-2214.72 899.36-2180.84 732.16-2114.03 574.18-2049.71 422.13-1957.86 285.79-1841.04 168.97-1724.19 52.13-1587.86-39.72-1435.8-104.03-1277.85-170.84-1110.65-204.72-938.88-204.72" />
</clipPath>
<clipPath id="clip_11">
<path transform="matrix(1,0,0,-1,0,540)" d="M0 540H960V0H0Z" />
</clipPath>
<clipPath id="clip_12">
<path transform="matrix(1,0,0,-1,0,540)" d="M-60 1200H-1020V1740H-60Z" />
</clipPath>
<clipPath id="clip_13">
<path transform="matrix(1,0,0,-1,0,540)" d="M-938.88 2184.78C-1088.99 2184.78-1234.96 2155.13-1372.65 2096.89-1505.38 2040.74-1624.42 1960.52-1726.34 1858.6-1828.26 1756.68-1908.49 1637.64-1964.64 1504.9-2022.88 1367.22-2052.53 1221.24-2052.53 1071.12-2052.53 921.01-2022.88 775.04-1964.64 637.35-1908.49 504.61-1828.26 385.57-1726.35 283.66-1624.42 181.73-1505.38 101.5-1372.64 45.36-1234.97-12.88-1089-42.53-938.88-42.53-788.77-42.53-642.8-12.88-505.11 45.36-372.36 101.5-253.32 181.74-151.4 283.65-49.49 385.57 30.75 504.61 86.89 637.36 145.13 775.04 174.78 921.01 174.78 1071.12 174.78 1221.24 145.13 1367.21 86.89 1504.9 30.74 1637.64-49.49 1756.69-151.41 1858.6-253.33 1960.52-372.37 2040.74-505.1 2096.89-642.79 2155.13-788.76 2184.78-938.88 2184.78" />
</clipPath>
<clipPath id="clip_14">
<path transform="matrix(1,0,0,-1,0,540)" d="M0 540H960V0H0Z" />
</clipPath>
<clipPath id="clip_15">
<path transform="matrix(1,0,0,-1,0,540)" d="M-60 1200H-1020V1740H-60Z" />
</clipPath>
<clipPath id="clip_16">
<path transform="matrix(1,0,0,-1,0,540)" d="M-938.88 2022.58C-1067.33 2022.58-1192.08 1997.17-1309.48 1947.51-1422.9 1899.53-1524.64 1830.92-1611.65 1743.92-1698.66 1656.91-1767.28 1555.16-1815.26 1441.73-1864.92 1324.34-1890.33 1199.59-1890.33 1071.12-1890.33 942.67-1864.92 817.92-1815.26 700.52-1767.28 587.1-1698.67 485.35-1611.67 398.35-1524.65 311.34-1422.9 242.72-1309.47 194.74-1192.09 145.08-1067.34 119.67-938.88 119.67-810.42 119.67-685.68 145.08-568.28 194.74-454.85 242.72-353.1 311.33-266.1 398.34-179.09 485.34-110.47 587.1-62.49 700.53-12.83 817.92 12.58 942.66 12.58 1071.12 12.58 1199.58-12.83 1324.33-62.49 1441.72-110.47 1555.15-179.09 1656.9-266.09 1743.91-353.1 1830.91-454.85 1899.53-568.27 1947.51-685.67 1997.17-810.42 2022.58-938.88 2022.58" />
</clipPath>
<clipPath id="clip_17">
<path transform="matrix(1,0,0,-1,0,540)" d="M0 540H960V0H0Z" />
</clipPath>
<clipPath id="clip_18">
<path transform="matrix(1,0,0,-1,0,540)" d="M-60 1200H-1020V1740H-60Z" />
</clipPath>
<clipPath id="clip_19">
<path transform="matrix(1,0,0,-1,0,540)" d="M-2214.72-204.72H336.97V2346.97H-2214.72Z" />
</clipPath>
<clipPath id="clip_20">
<path transform="matrix(1,0,0,-1,0,540)" d="M-938.88-204.72C-767.11-204.72-599.91-170.84-441.94-104.03-289.88-39.71-153.54 52.14-36.71 168.97 80.12 285.8 171.96 422.13 236.28 574.19 303.09 732.16 336.97 899.35 336.97 1071.12 336.97 1242.89 303.09 1410.09 236.28 1568.07 171.96 1720.13 80.11 1856.47-36.73 1973.3-153.56 2090.12-289.89 2181.96-441.93 2246.27-599.91 2313.09-767.1 2346.97-938.88 2346.97-1110.64 2346.97-1277.84 2313.09-1435.82 2246.27-1587.87 2181.96-1724.2 2090.12-1841.03 1973.29-1957.87 1856.46-2049.71 1720.12-2114.03 1568.06-2180.84 1410.1-2214.72 1242.9-2214.72 1071.12-2214.72 899.36-2180.84 732.16-2114.03 574.18-2049.71 422.13-1957.86 285.79-1841.04 168.97-1724.19 52.13-1587.86-39.72-1435.8-104.03-1277.85-170.84-1110.65-204.72-938.88-204.72" />
</clipPath>
<clipPath id="clip_21">
<path transform="matrix(1,0,0,-1,0,540)" d="M-938.88 2184.78C-1088.99 2184.78-1234.96 2155.13-1372.65 2096.89-1505.38 2040.74-1624.42 1960.52-1726.34 1858.6-1828.26 1756.68-1908.49 1637.64-1964.64 1504.9-2022.88 1367.22-2052.53 1221.24-2052.53 1071.12-2052.53 921.01-2022.88 775.04-1964.64 637.35-1908.49 504.61-1828.26 385.57-1726.35 283.66-1624.42 181.73-1505.38 101.5-1372.64 45.36-1234.97-12.88-1089-42.53-938.88-42.53-788.77-42.53-642.8-12.88-505.11 45.36-372.36 101.5-253.32 181.74-151.4 283.65-49.49 385.57 30.75 504.61 86.89 637.36 145.13 775.04 174.78 921.01 174.78 1071.12 174.78 1221.24 145.13 1367.21 86.89 1504.9 30.74 1637.64-49.49 1756.69-151.41 1858.6-253.33 1960.52-372.37 2040.74-505.1 2096.89-642.79 2155.13-788.76 2184.78-938.88 2184.78" />
</clipPath>
<clipPath id="clip_22">
<path transform="matrix(1,0,0,-1,0,540)" d="M-938.88 2022.58C-1067.33 2022.58-1192.08 1997.17-1309.48 1947.51-1422.9 1899.53-1524.64 1830.92-1611.65 1743.92-1698.66 1656.91-1767.28 1555.16-1815.26 1441.73-1864.92 1324.34-1890.33 1199.59-1890.33 1071.12-1890.33 942.67-1864.92 817.92-1815.26 700.52-1767.28 587.1-1698.67 485.35-1611.67 398.35-1524.65 311.34-1422.9 242.72-1309.47 194.74-1192.09 145.08-1067.34 119.67-938.88 119.67-810.42 119.67-685.68 145.08-568.28 194.74-454.85 242.72-353.1 311.33-266.1 398.34-179.09 485.34-110.47 587.1-62.49 700.53-12.83 817.92 12.58 942.66 12.58 1071.12 12.58 1199.58-12.83 1324.33-62.49 1441.72-110.47 1555.15-179.09 1656.9-266.09 1743.91-353.1 1830.91-454.85 1899.53-568.27 1947.51-685.67 1997.17-810.42 2022.58-938.88 2022.58" />
</clipPath>
<clipPath id="clip_23">
<path transform="matrix(1,0,0,-1,0,540)" d="M50 245.54C50 157.54 121.33 86.21 209.33 86.21 266.45 86.21 316.54 116.28 344.66 161.44 329.46 185.85 320.67 214.66 320.67 245.54 320.67 276.41 329.46 305.23 344.66 329.64 316.54 374.8 266.45 404.87 209.33 404.87 121.33 404.87 50 333.53 50 245.54" />
</clipPath>
<g id="mask_24_contents">
<rect x="0" y="0" width="100%" height="100%" fill="white" />
<g>
<clipPath id="clip_25">
<path transform="matrix(1,0,0,-1,0,540)" d="M-32768-32768H32767V32767H-32768Z" />
</clipPath>
<g clip-path="url(#clip_25)">
<image x="50" y="135" width="295" height="319" xlink:href="assets/image-01-a84840e54759.png" />
</g>
</g>
</g>
<mask id="mask_24" mask-type="luminance">
<use xlink:href="#mask_24_contents" />
</mask>
<clipPath id="clip_26">
<path transform="matrix(1,0,0,-1,0,540)" d="M344.66 329.64C359.87 305.23 368.65 276.41 368.65 245.54 368.65 214.66 359.87 185.85 344.66 161.44 372.79 116.28 422.88 86.21 480 86.21 537.12 86.21 587.21 116.28 615.34 161.44 600.13 185.85 591.34 214.66 591.34 245.54 591.34 276.41 600.13 305.23 615.34 329.64 587.21 374.8 537.12 404.87 480 404.87 422.88 404.87 372.79 374.8 344.66 329.64" />
</clipPath>
<g id="mask_27_contents">
<rect x="0" y="0" width="100%" height="100%" fill="white" />
<g>
<clipPath id="clip_28">
<path transform="matrix(1,0,0,-1,0,540)" d="M-32768-32768H32767V32767H-32768Z" />
</clipPath>
<g clip-path="url(#clip_28)">
<image x="344" y="135" width="272" height="319" xlink:href="assets/image-02-bbf594c1192f.png" />
</g>
</g>
</g>
<mask id="mask_27" mask-type="luminance">
<use xlink:href="#mask_27_contents" />
</mask>
<clipPath id="clip_29">
<path transform="matrix(1,0,0,-1,0,540)" d="M0 540H960V0H0Z" />
</clipPath>
<clipPath id="clip_30">
<path transform="matrix(1,0,0,-1,0,540)" d="M615.34 329.64C630.54 305.23 639.33 276.41 639.33 245.54 639.33 214.66 630.54 185.85 615.34 161.44 643.46 116.28 693.55 86.21 750.67 86.21 838.67 86.21 910 157.54 910 245.54 910 333.53 838.67 404.87 750.67 404.87 693.55 404.87 643.46 374.8 615.34 329.64" />
</clipPath>
<g id="mask_31_contents">
<rect x="0" y="0" width="100%" height="100%" fill="white" />
<g>
<clipPath id="clip_32">
<path transform="matrix(1,0,0,-1,0,540)" d="M-32768-32768H32767V32767H-32768Z" />
</clipPath>
<g clip-path="url(#clip_32)">
<image x="615" y="135" width="295" height="319" xlink:href="assets/image-03-5f871ca7bc1b.png" />
</g>
</g>
</g>
<mask id="mask_31" mask-type="luminance">
<use xlink:href="#mask_31_contents" />
</mask>
<clipPath id="clip_33">
<path transform="matrix(1,0,0,-1,0,540)" d="M0 540H960V0H0Z" />
</clipPath>
</defs>
<g>
<g ns2:groupmode="layer" ns2:label="Layer 1">
<g clip-path="url(#clip_1)">
<g clip-path="url(#clip_2)">
<g opacity=".300003">
<g clip-path="url(#clip_3)">
<g clip-path="url(#clip_4)">
</g>
</g>
</g>
</g>
<g clip-path="url(#clip_5)">
<g opacity=".300003">
<g clip-path="url(#clip_6)">
<g clip-path="url(#clip_7)">
</g>
</g>
</g>
</g>
</g>
<g clip-path="url(#clip_8)">
<g clip-path="url(#clip_9)">
<g clip-path="url(#clip_10)">
</g>
</g>
</g>
<g clip-path="url(#clip_11)">
<g clip-path="url(#clip_12)">
<g clip-path="url(#clip_13)">
</g>
</g>
</g>
<g clip-path="url(#clip_14)">
<g clip-path="url(#clip_15)">
<g clip-path="url(#clip_16)">
</g>
</g>
</g>
<g clip-path="url(#clip_17)">
<g clip-path="url(#clip_18)">
<g opacity=".300003" style="mix-blend-mode:color-burn">
<g clip-path="url(#clip_19)">
<g clip-path="url(#clip_20)">
</g>
<g clip-path="url(#clip_21)">
</g>
<g clip-path="url(#clip_22)">
</g>
</g>
</g>
</g>
<path transform="matrix(1,0,0,-1,718.65,30)" d="M0 0V0C0 4.74 3.84 8.58 8.58 8.58H104.14C108.88 8.58 112.72 4.74 112.72 0 112.72-4.74 108.88-8.58 104.14-8.58H8.58C3.84-8.58 0-4.74 0 0" fill="#ff5533" />
</g>
<g clip-path="url(#clip_23)">
<g mask="url(#mask_24)">
<image x="50" y="135" width="295" height="319" xlink:href="assets/image-04-0f9efcc2e32f.png" />
</g>
</g>
<g clip-path="url(#clip_26)">
<g mask="url(#mask_27)">
<image x="344" y="135" width="272" height="319" xlink:href="assets/image-05-c36c51e309a0.png" />
</g>
</g>
<g clip-path="url(#clip_29)">
<path transform="matrix(1,0,0,-1,344.66,210.36)" d="M0 0C-15.2-24.41-23.99-53.23-23.99-84.1-23.99-114.97-15.2-143.79 0-168.2 15.2-143.79 23.99-114.97 23.99-84.1 23.99-53.23 15.2-24.41 0 0" fill="#5959ff" />
</g>
<g clip-path="url(#clip_30)">
<g mask="url(#mask_31)">
<image x="615" y="135" width="295" height="319" xlink:href="assets/image-06-6d5e76a1f40f.png" />
</g>
</g>
<g clip-path="url(#clip_33)">
<path transform="matrix(1,0,0,-1,615.34,210.36)" d="M0 0C-15.2-24.41-23.99-53.23-23.99-84.1-23.99-114.97-15.2-143.79 0-168.2 15.2-143.79 23.99-114.97 23.99-84.1 23.99-53.23 15.2-24.41 0 0" fill="#a5a5ff" />
</g>
</g>
</g>
</svg>