<?xml version='1.0' encoding='utf-8'?>
<svg xmlns="http://www.w3.org/2000/svg" xmlns:ns1="http://www.inkscape.org/namespaces/inkscape" version="1.1" width="1920" height="1080" viewBox="0 0 1920 1080">
<defs>
<clipPath id="clip_1">
<path transform="matrix(1,0,0,-1,0,1080)" d="M0 1080H1920V0H0Z" />
</clipPath>
<clipPath id="clip_2">
<path transform="matrix(1,0,0,-1,0,1080)" d="M0 1080H1920V0H0Z" />
</clipPath>
<clipPath id="clip_3">
<path transform="matrix(1,0,0,-1,0,1080)" d="M0 1080H1920V0H0Z" />
</clipPath>
</defs>
<g>
<g ns1:groupmode="layer" ns1:label="Layer 1">
<text xml:space="preserve" transform="matrix(1 0 -0 1 0 1080)" font-size="55" font-family="ProximaNova-Extrabld"><tspan y="-900.1611" x="72.3472 101.8712 139.7662 188.0012 202.0812 242.3412 281.08869 314.80369 350.82868 364.9087 402.5012 442.8162 484.9462 499.0262 535.7497 575.7072 617.47976 633.53976">LÀM NGAY CHO BUỔI </tspan><tspan y="-840.15609" x="72.3472 106.7222 147.0372 188.7272 228.9872 268.7467 282.82673 317.76823 355.6632 396.36323 410.44325 441.38078 457.08326 489.67628 525.04129 539.1213 570.0588 610.5498 642.54336">PHỎNG VẤN TIẾP THEO</tspan></text>
<text xml:space="preserve" transform="matrix(1 0 -0 1 0 1080)" font-size="20" font-family="ProximaNova-Bold" font-weight="bold"><tspan y="-991.2163" x="72.3477 84.26771 98.881717 113.643718 118.91572 131.78173 137.28772 149.33972 161.20973 174.06974 179.18973 191.06974 203.05773 214.93773">SUN.RISER 2026</tspan></text>
<text xml:space="preserve" transform="matrix(1 0 -0 1 0 1080)" font-size="20" font-family="ProximaNova-Regular"><tspan y="-74.99628" x="72.3477 87.1877 98.4857 110.1017 121.399707 133.21971 138.37972 150.01372 164.11373 178.46973 183.27173 195.01773 206.26973 220.37174 234.39174 239.21173 254.51174 259.67173 272.92774 282.90977 293.10978 298.26979 310.4658 315.2458 329.6838 343.7878 355.0098 366.7298 371.8898 384.0498 395.4298 407.19383 418.57383 430.52583 443.78184 455.16184">©2026 SUN.STUDIO ALL RIGHTS RESERVED</tspan></text>
<text xml:space="preserve" transform="matrix(1 0 -0 1 0 1080)" font-size="20" font-family="ProximaNova-Semibold" font-weight="bold"><tspan y="-74.99628" x="1825.0277 1832.3677">12</tspan></text>
<g clip-path="url(#clip_1)">
<path transform="matrix(1,0,0,-1,1823.42,75)" d="M0 0H-173.985C-185.5 0-194.835-9.335-194.835-20.85V-20.851C-194.835-32.366-185.5-41.701-173.985-41.701H0C11.516-41.701 20.851-32.366 20.851-20.851V-20.85C20.851-9.335 11.516 0 0 0M0-1C10.946-1 19.851-9.905 19.851-20.851 19.851-31.796 10.946-40.701 0-40.701H-173.985C-184.931-40.701-193.835-31.796-193.835-20.85-193.835-9.905-184.931-1-173.985-1Z" fill="#444454" />
</g>
<text xml:space="preserve" transform="matrix(1 0 -0 1 0 1080)" font-size="20" font-family="ProximaNova-Regular"><tspan y="-976.8037" x="1650.9551 1665.331 1677.9011 1691.0612 1696.2212 1710.2212 1721.6012 1732.2952 1745.5512 1757.5252 1768.7792 1785.1052 1796.4852 1810.5093">HRA DEPARTMENT</tspan></text>
<g clip-path="url(#clip_2)">
<path transform="matrix(1,0,0,-1,481.9471,434.55488)" stroke-width="3" stroke-linecap="round" stroke-linejoin="round" fill="none" stroke="#3c3c4f" d="M0 0V-228.736C0-255.468-21.67-277.138-48.402-277.138-83.244-277.138-111.489-305.383-111.489-340.225-111.489-366.957-133.159-388.628-159.891-388.628H-359.834C-386.98-388.628-408.986-366.622-408.986-339.476V0C-408.986 27.146-386.98 49.151-359.834 49.151H-49.151C-22.006 49.151 0 27.146 0 0Z" />
<path transform="matrix(1,0,0,-1,384.5337,774.7831)" stroke-width="3" stroke-linecap="round" stroke-linejoin="round" fill="none" stroke="#3c3c4f" d="M0 0C0 26.73 21.669 48.399 48.399 48.399 75.13 48.399 96.799 26.73 96.799 0 96.799-26.73 75.13-48.399 48.399-48.399 21.669-48.399 0-26.73 0 0Z" />
<path transform="matrix(1,0,0,-1,412.4715,754.4088)" stroke-width="3" stroke-linecap="round" stroke-linejoin="round" fill="none" stroke="#3c3c4f" d="M0 0H40.764V-40.764" />
<path transform="matrix(1,0,0,-1,412.4715,795.17239)" stroke-width="3" stroke-linecap="round" stroke-linejoin="round" fill="none" stroke="#3c3c4f" d="M0 0 40.764 40.764" />
<path transform="matrix(1,0,0,-1,1748.7753,774.7831)" stroke-width="3" stroke-linecap="round" stroke-linejoin="round" fill="none" stroke="#3c3c4f" d="M0 0C0 26.73 21.669 48.399 48.399 48.399 75.13 48.399 96.799 26.73 96.799 0 96.799-26.73 75.13-48.399 48.399-48.399 21.669-48.399 0-26.73 0 0Z" />
<path transform="matrix(1,0,0,-1,1776.713,754.4088)" stroke-width="3" stroke-linecap="round" stroke-linejoin="round" fill="none" stroke="#3c3c4f" d="M0 0H40.764V-40.764" />
<path transform="matrix(1,0,0,-1,1776.713,795.17239)" stroke-width="3" stroke-linecap="round" stroke-linejoin="round" fill="none" stroke="#3c3c4f" d="M0 0 40.764 40.764" />
<path transform="matrix(1,0,0,-1,1390.8268,434.55488)" stroke-width="3" stroke-linecap="round" stroke-linejoin="round" fill="none" stroke="#3c3c4f" d="M0 0V-228.736C0-255.468-21.67-277.138-48.402-277.138-83.244-277.138-111.489-305.383-111.489-340.225-111.489-366.957-133.159-388.628-159.891-388.628H-359.834C-386.98-388.628-408.986-366.622-408.986-339.476V0C-408.986 27.146-386.98 49.151-359.834 49.151H-49.151C-22.006 49.151 0 27.146 0 0Z" />
<path transform="matrix(1,0,0,-1,1294.0281,774.7831)" stroke-width="3" stroke-linecap="round" stroke-linejoin="round" fill="none" stroke="#3c3c4f" d="M0 0C0 26.73 21.669 48.399 48.399 48.399 75.13 48.399 96.799 26.73 96.799 0 96.799-26.73 75.13-48.399 48.399-48.399 21.669-48.399 0-26.73 0 0Z" />
<path transform="matrix(1,0,0,-1,1321.9658,754.4088)" stroke-width="3" stroke-linecap="round" stroke-linejoin="round" fill="none" stroke="#3c3c4f" d="M0 0H40.764V-40.764" />
<path transform="matrix(1,0,0,-1,1321.9658,795.17239)" stroke-width="3" stroke-linecap="round" stroke-linejoin="round" fill="none" stroke="#3c3c4f" d="M0 0 40.764 40.764" />
<path transform="matrix(1,0,0,-1,839.2809,774.7831)" stroke-width="3" stroke-linecap="round" stroke-linejoin="round" fill="none" stroke="#3c3c4f" d="M0 0C0 26.73 21.669 48.399 48.399 48.399 75.13 48.399 96.799 26.73 96.799 0 96.799-26.73 75.13-48.399 48.399-48.399 21.669-48.399 0-26.73 0 0Z" />
<path transform="matrix(1,0,0,-1,867.2186,754.4088)" stroke-width="3" stroke-linecap="round" stroke-linejoin="round" fill="none" stroke="#3c3c4f" d="M0 0H40.764V-40.764" />
<path transform="matrix(1,0,0,-1,867.2186,795.17239)" stroke-width="3" stroke-linecap="round" stroke-linejoin="round" fill="none" stroke="#3c3c4f" d="M0 0 40.764 40.764" />
</g>
<text fill="#ffffff" xml:space="preserve" transform="matrix(1 0 -0 1 0 1080)" font-size="36" font-family="ProximaNova-ExtrabldIt" font-style="italic"><tspan y="-470.5693" x="102.6191 122.7935 146.64351 171.24951 197.84632 219.53272 238.74593 260.92195 281.43473 308.77314">TRANSLATOR</tspan><tspan y="-475.5013" x="560.3951 581.40469 601.56466 625.4147 647.59786 667.7578 688.8322 714.68026 725.09506 746.1046 1016.08309 1041.931 1065.4031 1075.3931 1100.0746 1121.4262 1468.8911 1493.7852 1520.2955 1544.2355 1569.1979">STRATEGISTDRIVERCOACH</tspan></text>
<g clip-path="url(#clip_3)">
<path transform="matrix(1,0,0,-1,481.9471,434.55488)" stroke-width="3" stroke-linecap="round" stroke-linejoin="round" fill="none" stroke="#3c3c4f" d="M0 0V-228.736C0-255.468-21.67-277.138-48.402-277.138-83.244-277.138-111.489-305.383-111.489-340.225-111.489-366.957-133.159-388.628-159.891-388.628H-359.834C-386.98-388.628-408.986-366.622-408.986-339.476V0C-408.986 27.146-386.98 49.151-359.834 49.151H-49.151C-22.006 49.151 0 27.146 0 0Z" />
<path transform="matrix(1,0,0,-1,384.5337,774.7831)" stroke-width="3" stroke-linecap="round" stroke-linejoin="round" fill="none" stroke="#3c3c4f" d="M0 0C0 26.73 21.669 48.399 48.399 48.399 75.13 48.399 96.799 26.73 96.799 0 96.799-26.73 75.13-48.399 48.399-48.399 21.669-48.399 0-26.73 0 0Z" />
<path transform="matrix(1,0,0,-1,412.4715,754.4088)" stroke-width="3" stroke-linecap="round" stroke-linejoin="round" fill="none" stroke="#3c3c4f" d="M0 0H40.764V-40.764" />
<path transform="matrix(1,0,0,-1,412.4715,795.17239)" stroke-width="3" stroke-linecap="round" stroke-linejoin="round" fill="none" stroke="#3c3c4f" d="M0 0 40.764 40.764" />
<path transform="matrix(1,0,0,-1,1845.574,434.55488)" stroke-width="3" stroke-linecap="round" stroke-linejoin="round" fill="none" stroke="#3c3c4f" d="M0 0V-228.736C0-255.468-21.67-277.138-48.402-277.138-83.244-277.138-111.489-305.383-111.489-340.225-111.489-366.957-133.159-388.628-159.891-388.628H-359.834C-386.98-388.628-408.986-366.622-408.986-339.476V0C-408.986 27.146-386.98 49.151-359.834 49.151H-49.151C-22.006 49.151 0 27.146 0 0Z" />
<path transform="matrix(1,0,0,-1,1748.7753,774.7831)" stroke-width="3" stroke-linecap="round" stroke-linejoin="round" fill="none" stroke="#3c3c4f" d="M0 0C0 26.73 21.669 48.399 48.399 48.399 75.13 48.399 96.799 26.73 96.799 0 96.799-26.73 75.13-48.399 48.399-48.399 21.669-48.399 0-26.73 0 0Z" />
<path transform="matrix(1,0,0,-1,1776.713,754.4088)" stroke-width="3" stroke-linecap="round" stroke-linejoin="round" fill="none" stroke="#3c3c4f" d="M0 0H40.764V-40.764" />
<path transform="matrix(1,0,0,-1,1776.713,795.17239)" stroke-width="3" stroke-linecap="round" stroke-linejoin="round" fill="none" stroke="#3c3c4f" d="M0 0 40.764 40.764" />
<path transform="matrix(1,0,0,-1,1390.8268,434.55488)" stroke-width="3" stroke-linecap="round" stroke-linejoin="round" fill="none" stroke="#3c3c4f" d="M0 0V-228.736C0-255.468-21.67-277.138-48.402-277.138-83.244-277.138-111.489-305.383-111.489-340.225-111.489-366.957-133.159-388.628-159.891-388.628H-359.834C-386.98-388.628-408.986-366.622-408.986-339.476V0C-408.986 27.146-386.98 49.151-359.834 49.151H-49.151C-22.006 49.151 0 27.146 0 0Z" />
<path transform="matrix(1,0,0,-1,1294.0281,774.7831)" stroke-width="3" stroke-linecap="round" stroke-linejoin="round" fill="none" stroke="#3c3c4f" d="M0 0C0 26.73 21.669 48.399 48.399 48.399 75.13 48.399 96.799 26.73 96.799 0 96.799-26.73 75.13-48.399 48.399-48.399 21.669-48.399 0-26.73 0 0Z" />
<path transform="matrix(1,0,0,-1,1321.9658,754.4088)" stroke-width="3" stroke-linecap="round" stroke-linejoin="round" fill="none" stroke="#3c3c4f" d="M0 0H40.764V-40.764" />
<path transform="matrix(1,0,0,-1,1321.9658,795.17239)" stroke-width="3" stroke-linecap="round" stroke-linejoin="round" fill="none" stroke="#3c3c4f" d="M0 0 40.764 40.764" />
<path transform="matrix(1,0,0,-1,936.0796,434.55488)" stroke-width="3" stroke-linecap="round" stroke-linejoin="round" fill="none" stroke="#3c3c4f" d="M0 0V-228.736C0-255.468-21.67-277.138-48.402-277.138-83.244-277.138-111.489-305.383-111.489-340.225-111.489-366.957-133.159-388.628-159.891-388.628H-359.834C-386.98-388.628-408.986-366.622-408.986-339.476V0C-408.986 27.146-386.98 49.151-359.834 49.151H-49.151C-22.006 49.151 0 27.146 0 0Z" />
<path transform="matrix(1,0,0,-1,839.2809,774.7831)" stroke-width="3" stroke-linecap="round" stroke-linejoin="round" fill="none" stroke="#3c3c4f" d="M0 0C0 26.73 21.669 48.399 48.399 48.399 75.13 48.399 96.799 26.73 96.799 0 96.799-26.73 75.13-48.399 48.399-48.399 21.669-48.399 0-26.73 0 0Z" />
<path transform="matrix(1,0,0,-1,867.2186,754.4088)" stroke-width="3" stroke-linecap="round" stroke-linejoin="round" fill="none" stroke="#3c3c4f" d="M0 0H40.764V-40.764" />
<path transform="matrix(1,0,0,-1,867.2186,795.17239)" stroke-width="3" stroke-linecap="round" stroke-linejoin="round" fill="none" stroke="#3c3c4f" d="M0 0 40.764 40.764" />
</g>
<text fill="#3333ff" xml:space="preserve" transform="matrix(1 0 -0 1 0 1080)" font-size="36" font-family="ProximaNova-BoldIt" font-weight="bold" font-style="italic"><tspan y="-565.3599" x="102.6191 125.3495 144.44391 162.72832 171.42232 190.78313 218.46714 227.68314 236.46714 257.22474 266.33274 275.54875 293.4587 314.55473">Review lại và </tspan><tspan y="-522.1599" x="102.6191 123.40191 143.89311 153.00112 162.21712 182.68672 203.07714 223.74114 232.95714 245.18274 253.88034 273.26274 294.10673 303.32273 320.91233 341.40354 350.51155">ghi nhớ tiêu chí </tspan><tspan y="-478.9599" x="102.6191 114.697109 135.3035 153.0947 172.5347 193.37871 202.59471 223.22272 243.72473 264.10075">tuyển dụng</tspan><tspan y="-565.3599" x="561.7991 588.205 608.6566 626.6206 635.8366 659.9098 684.5338 693.7498 717.0058 726.2218 752.26779 772.89938 790.48898 811.36898">Đọc CV &amp; Gạch </tspan><tspan y="-522.1599" x="561.7991 579.3887 599.8619 620.68069 641.52468 650.74069 659.44906 671.61709 680.83309 701.3063 721.71829 742.40029 754.5683 763.7843 785.3843">chân ít nhất 2 </tspan><tspan y="-478.9599" x="561.7991 576.7823 597.6443 606.2843 625.7243 656.3963 665.6123 677.6291 698.2931 707.5091 737.8103 756.4547">“điểm tò mò”</tspan><tspan y="-565.3599" x="1016.0831 1040.574 1060.8384 1081.3692 1102.1267 1122.9707 1132.1867 1152.9766 1162.0846 1171.3005 1180.0089 1192.1769 1201.3928 1221.866 1242.278 1262.96 1275.1279 1284.3439 1305.9439">Chuẩn bị ít nhất 2 </tspan><tspan y="-522.1599" x="1016.0831 1033.6116 1054.2467 1075.0907 1084.3067 1104.697 1125.0082 1134.1162 1143.3322 1159.9966 1192.7241 1213.1973 1234.0413 1246.2092 1255.4252 1264.2128 1276.2439 1292.768">câu hỏi “What if” </tspan><tspan y="-478.9599" x="1016.0831 1026.2351 1051.9103 1071.1594 1092.0034 1101.2194 1121.6925 1141.9174 1162.1674 1170.9009 1179.6344 1187.7704 1198.4624 1207.6784 1228.1264 1248.0343 1257.2503 1269.4758 1289.7007 1310.5447">(Nếu như...) để thử </tspan><tspan y="-435.7599" x="1016.0831 1028.3087 1048.7927 1069.4927 1087.0823 1107.9623 1117.1782 1137.9755 1158.3479 1179.408 1188.6239 1206.9083 1215.6204 1235.1072">thách ứng viên</tspan><tspan y="-565.35989" x="1468.8911 1495.2611 1516.015 1546.687 1555.903 1576.826 1597.4756 1618.1395 1627.3555 1648.1814 1665.897 1690.0639 1713.2118">Đảm bảo STAR </tspan><tspan y="-522.15988" x="1468.8911 1489.3391 1509.2471 1518.463 1538.9362 1559.4237 1568.251 1589.095 1598.3109 1618.784 1639.196 1659.9536 1680.7976">để nhìn nhận </tspan><tspan y="-478.95985" x="1468.8911 1489.2852 1510.0427 1530.4187 1551.4788 1560.6947 1569.2915 1589.8908 1607.8547 1617.0707 1629.2926 1649.7046 1670.4873 1682.6553 1691.8712 1702.6713">năng lực thật - </tspan><tspan y="-435.75984" x="1468.8911 1480.9259 1501.7699 1510.9859 1531.6714 1552.2778 1570.7459 1579.9618 1592.1874 1612.5958 1633.3786 1645.5465 1654.7625 1665.5625 1674.7785 1695.2444 1715.9083">tư duy thật - độ </tspan><tspan y="-392.5598" x="1468.8911 1489.6452 1509.9096 1530.7536 1539.9695 1560.3599 1580.9122 1601.9003 1611.1162 1623.3418 1643.7538 1664.5365">phù hợp thật</tspan></text>
</g>
<g ns1:groupmode="layer" ns1:label="Layer 2">
</g>
</g>
</svg>