<?xml version='1.0' encoding='utf-8'?>
<svg xmlns="http://www.w3.org/2000/svg" xmlns:ns1="http://www.inkscape.org/namespaces/inkscape" version="1.1" width="1920" height="1080" viewBox="0 0 1920 1080">
<defs>
<clipPath id="clip_1">
<path transform="matrix(1,0,0,-1,0,1080)" d="M0 1080H1920V0H0Z" />
</clipPath>
<clipPath id="clip_2">
<path transform="matrix(1,0,0,-1,0,1080)" d="M0 1080H1920V0H0Z" />
</clipPath>
</defs>
<g>
<g ns1:groupmode="layer" ns1:label="Layer 1">
<g clip-path="url(#clip_1)">
<path transform="matrix(1,0,0,-1,1823.42,75)" d="M0 0H-173.985C-185.5 0-194.835-9.335-194.835-20.85-194.835-32.366-185.5-41.701-173.985-41.701H0C11.516-41.701 20.851-32.366 20.851-20.85 20.851-9.335 11.516 0 0 0M0-1C10.946-1 19.851-9.905 19.851-20.85 19.851-31.796 10.946-40.701 0-40.701H-173.985C-184.931-40.701-193.835-31.796-193.835-20.85-193.835-9.905-184.931-1-173.985-1Z" fill="#444454" />
</g>
<g clip-path="url(#clip_2)">
<path transform="matrix(1,0,0,-1,1246.9113,450.40333)" d="M0 0V-323.959C0-351.271-22.14-373.411-49.452-373.411-85.05-373.411-113.907-402.269-113.907-437.866-113.907-465.178-136.047-487.318-163.359-487.318H-523.605C-551.339-487.318-573.823-464.835-573.823-437.101V0C-573.823 27.734-551.339 50.217-523.605 50.217H-50.218C-22.483 50.217 0 27.734 0 0" fill="#00de96" />
<path transform="matrix(1,0,0,-1,1246.9113,450.40333)" stroke-width="2" stroke-linecap="butt" stroke-miterlimit="10" stroke-linejoin="miter" fill="none" stroke="#000000" d="M0 0V-323.959C0-351.271-22.14-373.411-49.452-373.411-85.05-373.411-113.907-402.269-113.907-437.866-113.907-465.178-136.047-487.318-163.359-487.318H-523.605C-551.339-487.318-573.823-464.835-573.823-437.101V0C-573.823 27.734-551.339 50.217-523.605 50.217H-50.218C-22.483 50.217 0 27.734 0 0Z" />
<path transform="matrix(1,0,0,-1,1197.462,838.8236)" d="M0 0C-27.31 0-49.449-22.139-49.449-49.449-49.449-76.759-27.31-98.898 0-98.898 27.31-98.898 49.449-76.759 49.449-49.449 49.449-22.139 27.31 0 0 0M0-3C25.612-3 46.449-23.837 46.449-49.449 46.449-75.061 25.612-95.898 0-95.898-25.612-95.898-46.449-75.061-46.449-49.449-46.449-23.837-25.612-3 0-3" fill="#333333" />
<path transform="matrix(1,0,0,-1,1176.5568,867.4564)" stroke-width="3" stroke-linecap="round" stroke-linejoin="round" fill="none" stroke="#333333" d="M0 0H41.648V-41.648" />
<path transform="matrix(1,0,0,-1,1176.5568,909.1042)" stroke-width="3" stroke-linecap="round" stroke-linejoin="round" fill="none" stroke="#333333" d="M0 0 41.648 41.648" />
<path transform="matrix(1,0,0,-1,1846.7277,450.40333)" d="M0 0V-323.959C0-351.271-22.14-373.411-49.452-373.411-85.05-373.411-113.907-402.269-113.907-437.866-113.907-465.178-136.047-487.318-163.359-487.318H-523.605C-551.339-487.318-573.823-464.835-573.823-437.101V0C-573.823 27.734-551.339 50.217-523.605 50.217H-50.217C-22.483 50.217 0 27.734 0 0" fill="#ff81b7" />
<path transform="matrix(1,0,0,-1,1846.7277,450.40333)" stroke-width="2" stroke-linecap="butt" stroke-miterlimit="10" stroke-linejoin="miter" fill="none" stroke="#000000" d="M0 0V-323.959C0-351.271-22.14-373.411-49.452-373.411-85.05-373.411-113.907-402.269-113.907-437.866-113.907-465.178-136.047-487.318-163.359-487.318H-523.605C-551.339-487.318-573.823-464.835-573.823-437.101V0C-573.823 27.734-551.339 50.217-523.605 50.217H-50.217C-22.483 50.217 0 27.734 0 0Z" />
<path transform="matrix(1,0,0,-1,1797.2785,838.8236)" d="M0 0C-27.31 0-49.449-22.139-49.449-49.449-49.449-76.759-27.31-98.898 0-98.898 27.31-98.898 49.449-76.759 49.449-49.449 49.449-22.139 27.31 0 0 0M0-3C25.612-3 46.449-23.837 46.449-49.449 46.449-75.061 25.612-95.898 0-95.898-25.612-95.898-46.449-75.061-46.449-49.449-46.449-23.837-25.612-3 0-3" fill="#333333" />
<path transform="matrix(1,0,0,-1,1776.3732,867.4564)" stroke-width="3" stroke-linecap="round" stroke-linejoin="round" fill="none" stroke="#333333" d="M0 0H41.648V-41.648" />
<path transform="matrix(1,0,0,-1,1776.3732,909.1042)" stroke-width="3" stroke-linecap="round" stroke-linejoin="round" fill="none" stroke="#333333" d="M0 0 41.648 41.648" />
<path transform="matrix(1,0,0,-1,647.0949,450.40333)" d="M0 0V-323.959C0-351.271-22.14-373.411-49.452-373.411-85.05-373.411-113.907-402.269-113.907-437.866-113.907-465.178-136.048-487.318-163.359-487.318H-523.605C-551.339-487.318-573.823-464.835-573.823-437.101V0C-573.823 27.734-551.339 50.217-523.605 50.217H-50.218C-22.483 50.217 0 27.734 0 0" fill="#eec9ff" />
<path transform="matrix(1,0,0,-1,647.0949,450.40333)" stroke-width="2" stroke-linecap="butt" stroke-miterlimit="10" stroke-linejoin="miter" fill="none" stroke="#000000" d="M0 0V-323.959C0-351.271-22.14-373.411-49.452-373.411-85.05-373.411-113.907-402.269-113.907-437.866-113.907-465.178-136.048-487.318-163.359-487.318H-523.605C-551.339-487.318-573.823-464.835-573.823-437.101V0C-573.823 27.734-551.339 50.217-523.605 50.217H-50.218C-22.483 50.217 0 27.734 0 0Z" />
<path transform="matrix(1,0,0,-1,597.6459,838.8236)" d="M0 0C-27.31 0-49.449-22.139-49.449-49.449-49.449-76.759-27.31-98.898 0-98.898 27.31-98.898 49.449-76.759 49.449-49.449 49.449-22.139 27.31 0 0 0M0-3C25.612-3 46.449-23.837 46.449-49.449 46.449-75.061 25.612-95.898 0-95.898-25.612-95.898-46.449-75.061-46.449-49.449-46.449-23.837-25.612-3 0-3" fill="#333333" />
<path transform="matrix(1,0,0,-1,576.7404,867.4564)" stroke-width="3" stroke-linecap="round" stroke-linejoin="round" fill="none" stroke="#333333" d="M0 0H41.648V-41.648" />
<path transform="matrix(1,0,0,-1,576.7404,909.1042)" stroke-width="3" stroke-linecap="round" stroke-linejoin="round" fill="none" stroke="#333333" d="M0 0 41.648 41.648" />
</g>
</g>
<g ns1:groupmode="layer" ns1:label="Layer 2">
</g>
</g>
</svg>