<svg xmlns="http://www.w3.org/2000/svg" viewBox="0 0 1389 433" width="1389" height="433"><defs>
<clipPath id="clip_1">
<path transform="matrix(1,0,0,-1,0,2623.16)" d="M0 2623.16H2938.83V0H0Z" />
</clipPath>
<clipPath id="clip_2">
<path transform="matrix(1,0,0,-1,0,2623.16)" d="M0 2623.16H2938.83V0H0Z" />
</clipPath>
<clipPath id="clip_3">
<path transform="matrix(1,0,0,-1,0,2623.16)" d="M0 2623.16H2938.83V0H0Z" />
</clipPath>
<clipPath id="clip_4">
<path transform="matrix(1,0,0,-1,0,2623.16)" d="M0 2623.16H2938.83V0H0Z" />
</clipPath>
<clipPath id="clip_5">
<path transform="matrix(1,0,0,-1,0,2623.16)" d="M1455.8 690.23C1427.8 690.23 1405.11 667.53 1405.11 639.53V267.99C1405.11 240 1427.8 217.3 1455.8 217.3H2288.11C2316.11 217.3 2338.81 240 2338.81 267.99V639.53C2338.81 667.53 2316.11 690.23 2288.11 690.23Z" />
</clipPath>
<clipPath id="clip_6">
<path transform="matrix(1,0,0,-1,0,2623.16)" d="M1455.8 690.23C1427.8 690.23 1405.11 667.53 1405.11 639.53V267.99C1405.11 240 1427.8 217.3 1455.8 217.3H2288.11C2316.11 217.3 2338.81 240 2338.81 267.99V639.53C2338.81 667.53 2316.11 690.23 2288.11 690.23Z" />
</clipPath>
<clipPath id="clip_8">
<path transform="matrix(1,0,0,-1,0,2623.16)" d="M421.9 690.23C393.9 690.23 371.21 667.53 371.21 639.53V267.99C371.21 240 393.9 217.3 421.9 217.3H803.96C831.95 217.3 854.65 240 854.65 267.99V639.53C854.65 667.53 831.95 690.23 803.96 690.23Z" />
</clipPath>
<clipPath id="clip_9">
<path transform="matrix(1,0,0,-1,0,2623.16)" d="M939.95 690.23C911.95 690.23 889.25 667.53 889.25 639.53V267.99C889.25 240 911.95 217.3 939.95 217.3H1322.01C1350 217.3 1372.7 240 1372.7 267.99V639.53C1372.7 667.53 1350 690.23 1322.01 690.23Z" />
</clipPath>
<clipPath id="clip_10">
<path transform="matrix(1,0,0,-1,0,2623.16)" d="M0 2623.16H2938.83V0H0Z" />
</clipPath>
<clipPath id="clip_11">
<path transform="matrix(1,0,0,-1,0,2623.16)" d="M1045.42 950.73 1079.54 917.31 1049.17 903.66 1042.86 876.8 1178.32 810.3 1186.17 843.65 1156.23 873 1180.87 883.97 1187.21 910.94 1051.71 977.48Z" />
</clipPath>
<clipPath id="clip_12">
<path transform="matrix(1,0,0,-1,0,2623.16)" d="M0 2623.16H2938.83V0H0Z" />
</clipPath>
<clipPath id="clip_13">
<path transform="matrix(1,0,0,-1,0,2623.16)" d="M1174.06 937.3 1183.04 835.57 1319.97 902.8 1313.59 929.95 1282.89 943.74 1317.38 977.52 1311.02 1004.55Z" />
</clipPath>
<clipPath id="clip_14">
<path transform="matrix(1,0,0,-1,0,2623.16)" d="M0 2623.16H2938.83V0H0Z" />
</clipPath>
<clipPath id="clip_15">
<path transform="matrix(1,0,0,-1,0,2623.16)" d="M1213.44 897.74 1256.74 919.17 1210.25 919.91Z" />
</clipPath>
</defs>
<g transform="translate(-753 -741)"><g transform="translate(0 0)"><g clip-path="url(#clip_1)"><path transform="matrix(1,0,0,-1,1183.16,957.88)" d="M0 0C0-117.85-95.54-213.38-213.38-213.38-331.24-213.38-426.77-117.85-426.77 0-426.77 117.85-331.24 213.38-213.38 213.38-95.54 213.38 0 117.85 0 0" fill="#999999" />
</g><g clip-path="url(#clip_2)"><path transform="matrix(1,0,0,-1,1661.04,957.88)" d="M0 0C0-117.85-95.54-213.38-213.38-213.38-331.24-213.38-426.77-117.85-426.77 0-426.77 117.85-331.24 213.38-213.38 213.38-95.54 213.38 0 117.85 0 0" fill="#999999" />
</g><g clip-path="url(#clip_3)"><path transform="matrix(1,0,0,-1,2138.92,957.88)" d="M0 0C0-117.85-95.54-213.38-213.38-213.38-331.24-213.38-426.77-117.85-426.77 0-426.77 117.85-331.24 213.38-213.38 213.38-95.54 213.38 0 117.85 0 0" fill="#999999" />
</g></g></g></svg>