<?xml version='1.0' encoding='utf-8'?>
<svg xmlns="http://www.w3.org/2000/svg" xmlns:ns2="http://www.inkscape.org/namespaces/inkscape" xmlns:xlink="http://www.w3.org/1999/xlink" version="1.1" width="2938.83" height="2623.16" viewBox="0 0 2938.83 2623.16">
<defs>
<clipPath id="clip_1">
<path transform="matrix(1,0,0,-1,0,2623.16)" d="M0 2623.157H2938.834V0H0Z" />
</clipPath>
<clipPath id="clip_2">
<path transform="matrix(1,0,0,-1,0,2623.16)" d="M727.91 448.708C727.91 299.066 849.217 177.759 998.859 177.759 1148.5 177.759 1269.808 299.066 1269.808 448.708 1269.808 598.349 1148.5 719.657 998.859 719.657 849.217 719.657 727.91 598.349 727.91 448.708" />
</clipPath>
<g id="mask_3_contents">
<rect x="0" y="0" width="100%" height="100%" fill="white" />
<g>
<clipPath id="clip_4">
<path transform="matrix(1,0,0,-1,0,2623.16)" d="M-32768-32768H32767V32767H-32768Z" />
</clipPath>
<g clip-path="url(#clip_4)">
<image x="727" y="1903" width="543" height="543" xlink:href="../artifact/assets/image-01-c886fba65d0d.png" />
</g>
</g>
</g>
<mask id="mask_3" mask-type="luminance">
<use xlink:href="#mask_3_contents" />
</mask>
<clipPath id="clip_5">
<path transform="matrix(1,0,0,-1,0,2623.16)" d="M1215.086 448.708C1215.086 299.066 1336.394 177.759 1486.035 177.759 1635.676 177.759 1756.984 299.066 1756.984 448.708 1756.984 598.349 1635.676 719.657 1486.035 719.657 1336.394 719.657 1215.086 598.349 1215.086 448.708" />
</clipPath>
<g id="mask_6_contents">
<rect x="0" y="0" width="100%" height="100%" fill="white" />
<g>
<clipPath id="clip_7">
<path transform="matrix(1,0,0,-1,0,2623.16)" d="M-32768-32768H32767V32767H-32768Z" />
</clipPath>
<g clip-path="url(#clip_7)">
<image x="1215" y="1903" width="542" height="543" xlink:href="../artifact/assets/image-02-e5d0446fd303.png" />
</g>
</g>
</g>
<mask id="mask_6" mask-type="luminance">
<use xlink:href="#mask_6_contents" />
</mask>
<clipPath id="clip_8">
<path transform="matrix(1,0,0,-1,0,2623.16)" d="M1702.262 448.708C1702.262 299.066 1823.57 177.759 1973.211 177.759 2122.853 177.759 2244.16 299.066 2244.16 448.708 2244.16 598.349 2122.853 719.657 1973.211 719.657 1823.57 719.657 1702.262 598.349 1702.262 448.708" />
</clipPath>
<g id="mask_9_contents">
<rect x="0" y="0" width="100%" height="100%" fill="white" />
<g>
<clipPath id="clip_10">
<path transform="matrix(1,0,0,-1,0,2623.16)" d="M-32768-32768H32767V32767H-32768Z" />
</clipPath>
<g clip-path="url(#clip_10)">
<image x="1702" y="1903" width="543" height="543" xlink:href="../artifact/assets/image-03-3b476efd2568.png" />
</g>
</g>
</g>
<mask id="mask_9" mask-type="luminance">
<use xlink:href="#mask_9_contents" />
</mask>
<clipPath id="clip_11">
<path transform="matrix(1,0,0,-1,0,2623.16)" d="M795.968 1433.568 719.365 1389.474C693.706 1374.705 677.668 1347.653 677.67 1317.793L677.674 1229.525C677.675 1200.118 693.209 1172.947 718.563 1158.323L796.037 1113.636C821.309 1099.059 852.18 1098.962 878.005 1113.845L954.158 1157.733C980.392 1172.85 996.008 1200.569 995.982 1230.985L995.908 1317.771C995.881 1348.131 979.375 1375.082 953.344 1390.066L878.513 1433.142C865.537 1440.612 851.072 1444.415 836.62 1444.416 822.606 1444.416 808.605 1440.842 795.968 1433.568" />
</clipPath>
<clipPath id="clip_12">
<path transform="matrix(1,0,0,-1,0,2623.16)" d="M1466.657 1433.568 1390.054 1389.474C1364.396 1374.705 1348.358 1347.653 1348.359 1317.793L1348.363 1229.525C1348.365 1200.118 1363.898 1172.947 1389.252 1158.323L1466.726 1113.636C1491.998 1099.059 1522.869 1098.962 1548.694 1113.845L1624.848 1157.733C1651.081 1172.85 1666.697 1200.569 1666.671 1230.985L1666.598 1317.771C1666.571 1348.131 1650.064 1375.082 1624.033 1390.066L1549.203 1433.142C1536.227 1440.612 1521.762 1444.415 1507.31 1444.416 1493.296 1444.416 1479.294 1440.842 1466.657 1433.568" />
</clipPath>
<clipPath id="clip_13">
<path transform="matrix(1,0,0,-1,0,2623.16)" d="M2137.346 1433.568 2060.742 1389.474C2035.085 1374.705 2019.047 1347.653 2019.049 1317.793L2019.052 1229.525C2019.054 1200.118 2034.588 1172.947 2059.941 1158.323L2137.416 1113.636C2162.688 1099.059 2193.559 1098.962 2219.384 1113.845L2295.537 1157.733C2321.771 1172.85 2337.387 1200.569 2337.361 1230.985L2337.286 1317.771C2337.26 1348.131 2320.753 1375.082 2294.723 1390.066L2219.892 1433.142C2206.916 1440.612 2192.451 1444.415 2177.999 1444.416 2163.985 1444.416 2149.983 1440.842 2137.346 1433.568" />
</clipPath>
<clipPath id="clip_14">
<path transform="matrix(1,0,0,-1,0,2623.16)" d="M1146.653 1296.614V1279.671H1131.267V1270.055H1146.653V1252.38H1157.276V1270.055H1172.662V1279.671H1157.276V1296.614Z" />
</clipPath>
<clipPath id="clip_15">
<path transform="matrix(1,0,0,-1,0,2623.16)" d="M1875.444 1280.582 1842.368 1296.83V1285.545L1864.794 1274.625 1842.368 1263.881V1252.596L1875.444 1268.847 1908.519 1252.596V1263.881L1886.095 1274.625 1908.519 1285.545V1296.83Z" />
</clipPath>
</defs>
<g>
<g ns2:groupmode="layer" ns2:label="Layer 1">
<g clip-path="url(#clip_1)">
<path transform="matrix(1,0,0,-1,1149.3771,664.5984)" d="M0 0C0-161.903-131.249-293.152-293.152-293.152-455.055-293.152-586.304-161.903-586.304 0-586.304 161.903-455.055 293.152-293.152 293.152-131.249 293.152 0 161.903 0 0" fill="#cbcbff" />
<path transform="matrix(1,0,0,-1,856.2252,938.74929)" d="M0 0C-151.361 0-274.151 122.789-274.151 274.151-274.151 425.512-151.361 548.302 0 548.302 151.361 548.302 274.151 425.512 274.151 274.151 274.151 122.789 151.361 0 0 0" fill="#a5a5ff" />
<path transform="matrix(1,0,0,-1,856.2253,919.74807)" d="M0 0C-140.819 0-255.15 114.33-255.15 255.15-255.15 395.969-140.819 510.299 0 510.299 140.819 510.299 255.149 395.969 255.149 255.15 255.149 114.33 140.819 0 0 0" fill="#7f7fff" />
<path transform="matrix(1,0,0,-1,856.2255,900.74697)" d="M0 0C-130.277 0-236.149 105.871-236.149 236.149-236.149 366.426-130.277 472.297 0 472.297 130.277 472.297 236.148 366.426 236.148 236.149 236.148 105.871 130.277 0 0 0" fill="#5959ff" />
<path transform="matrix(1,0,0,-1,856.2256,881.7457)" d="M0 0C-119.735 0-217.148 97.412-217.148 217.148-217.148 336.883-119.735 434.295 0 434.295 119.735 434.295 217.146 336.883 217.146 217.148 217.146 97.412 119.735 0 0 0" fill="#3333ff" />
<path transform="matrix(1,0,0,-1,1789.9567,664.5984)" d="M0 0C0-161.903-131.249-293.152-293.152-293.152-455.055-293.152-586.304-161.903-586.304 0-586.304 161.903-455.055 293.152-293.152 293.152-131.249 293.152 0 161.903 0 0" fill="#ffd0c9" />
<path transform="matrix(1,0,0,-1,1496.8048,938.74929)" d="M0 0C-151.361 0-274.151 122.789-274.151 274.151-274.151 425.512-151.361 548.302 0 548.302 151.361 548.302 274.151 425.512 274.151 274.151 274.151 122.789 151.361 0 0 0" fill="#ffb1a4" />
<path transform="matrix(1,0,0,-1,1496.8049,919.74807)" d="M0 0C-140.819 0-255.15 114.33-255.15 255.15-255.15 395.969-140.819 510.299 0 510.299 140.819 510.299 255.149 395.969 255.149 255.15 255.149 114.33 140.819 0 0 0" fill="#ff937e" />
<path transform="matrix(1,0,0,-1,1496.805,900.74697)" d="M0 0C-130.277 0-236.149 105.871-236.149 236.149-236.149 366.426-130.277 472.297 0 472.297 130.277 472.297 236.148 366.426 236.148 236.149 236.148 105.871 130.277 0 0 0" fill="#ff7459" />
<path transform="matrix(1,0,0,-1,1496.8052,881.7457)" d="M0 0C-119.735 0-217.148 97.412-217.148 217.148-217.148 336.883-119.735 434.295 0 434.295 119.735 434.295 217.146 336.883 217.146 217.148 217.146 97.412 119.735 0 0 0" fill="#ff5533" />
<path transform="matrix(1,0,0,-1,2430.5438,664.5984)" d="M0 0C0-161.903-131.249-293.152-293.152-293.152-455.055-293.152-586.304-161.903-586.304 0-586.304 161.903-455.055 293.152-293.152 293.152-131.249 293.152 0 161.903 0 0" fill="#f2ffdb" />
<path transform="matrix(1,0,0,-1,2137.3919,938.74929)" d="M0 0C-151.361 0-274.151 122.789-274.151 274.151-274.151 425.512-151.361 548.302 0 548.302 151.361 548.302 274.151 425.512 274.151 274.151 274.151 122.789 151.361 0 0 0" fill="#e5ffb7" />
<path transform="matrix(1,0,0,-1,2137.3919,919.74807)" d="M0 0C-140.819 0-255.15 114.33-255.15 255.15-255.15 395.969-140.819 510.299 0 510.299 140.819 510.299 255.149 395.969 255.149 255.15 255.149 114.33 140.819 0 0 0" fill="#d9ff94" />
<path transform="matrix(1,0,0,-1,2137.392,900.74697)" d="M0 0C-130.277 0-236.149 105.871-236.149 236.149-236.149 366.426-130.277 472.297 0 472.297 130.277 472.297 236.148 366.426 236.148 236.149 236.148 105.871 130.277 0 0 0" fill="#ccff71" />
<path transform="matrix(1,0,0,-1,2137.392,881.7457)" d="M0 0C-119.735 0-217.147 97.412-217.147 217.148-217.147 336.883-119.735 434.295 0 434.295 119.735 434.295 217.146 336.883 217.146 217.148 217.146 97.412 119.735 0 0 0" fill="#bfff4d" />
</g>
<text fill="#ffffff" xml:space="preserve" transform="matrix(1 0 -0 1 0 2623.16)" font-size="43.4294" font-family="NVORLO+Arial-BoldMT" font-weight="bold"><tspan y="-1943.1856" x="705.4277 730.55599 764.04006 795.09207 823.686 859.8627 871.93606 883.86178 911.8433 939.9899 970.8682 1007.0449">LOREM IPSUM </tspan></text>
<text fill="#ffffff" xml:space="preserve" transform="matrix(1 0 -0 1 0 2623.16)" font-size="21.7147" font-family="KTAZVU+ArialMT"><tspan y="-1991.7442" x="844.5449 855.83657 1485.1287 1496.4203">0101</tspan></text>
<text xml:space="preserve" transform="matrix(1 0 -0 1 0 2623.16)" font-size="21.7147" font-family="KTAZVU+ArialMT"><tspan y="-1991.7442" x="2125.3868 2137.321">03</tspan></text>
<text fill="#ffffff" xml:space="preserve" transform="matrix(1 0 -0 1 0 2623.16)" font-size="43.4294" font-family="NVORLO+Arial-BoldMT" font-weight="bold"><tspan y="-1943.1856" x="1346.0059 1371.134 1404.6182 1435.6702 1464.2642 1500.4408 1512.5142 1524.44 1552.4215 1580.5681 1611.4464 1647.623">LOREM IPSUM </tspan></text>
<text xml:space="preserve" transform="matrix(1 0 -0 1 0 2623.16)" font-size="43.4294" font-family="NVORLO+Arial-BoldMT" font-weight="bold"><tspan y="-1943.1856" x="1986.5896 2011.7178 2045.2019 2076.254 2104.8477 2141.0245 2153.0977 2165.0233 2193.0047 2221.1512 2252.0294 2288.206">LOREM IPSUM </tspan></text>
<text xml:space="preserve" transform="matrix(1 0 -0 1 0 2623.16)" font-size="36" font-family="ProximaNova-Semibold" font-weight="bold"><tspan y="-2353.455" x="349.6792 371.4628 380.2828 389.53483 409.70924 435.73725 460.79325 488.53846 514.35409 540.1661 549.4181 574.69729 600.58126 626.39688 652.20889 661.4609 687.3557 708.1277 717.3797 740.7617 750.1073 770.7497 796.63369 805.8857 826.06008 852.1709 861.4949 870.7469 895.20169 921.19729 948.73727 957.98928 982.48367 1005.4985 1030.0505 1039.3025 1059.4768 1068.9196 1094.9224 1120.9503 1130.2023 1156.0431 1180.1775 1205.9932 1231.8052 1240.6251 1249.8771 1274.3751 1297.3899 1321.9419 1331.1939 1354.3274 1379.3834 1406.8298 1431.551 1440.371 1449.6229 1475.5753 1496.8225 1519.7545 1529.0065 1553.5045 1577.6389 1599.5269 1608.7788 1634.994 1662.534 1671.786 1693.9547 1719.9071 1742.9219 1767.4739 1776.7258 1802.7286 1828.6774 1851.7138">2. THƯỜNG DÙNG ĐỂ BIỂU THỊ CHO CÁC TÍNH NĂNG, CÁC BƯỚC, HAY CẤP ĐỘ KHÁC NHAU</tspan></text>
<g clip-path="url(#clip_2)">
<g mask="url(#mask_3)">
<image x="727" y="1903" width="543" height="543" xlink:href="../artifact/assets/image-04-b5d510ac5889.png" />
</g>
</g>
<g clip-path="url(#clip_5)">
<g mask="url(#mask_6)">
<image x="1215" y="1903" width="542" height="543" xlink:href="../artifact/assets/image-05-6f20183e61ee.png" />
</g>
</g>
<g clip-path="url(#clip_8)">
<g mask="url(#mask_9)">
<image x="1702" y="1903" width="543" height="543" xlink:href="../artifact/assets/image-04-b5d510ac5889.png" />
</g>
</g>
<text fill="#ffffff" xml:space="preserve" transform="matrix(1 0 -0 1 0 2623.16)" font-size="61.1081" font-family="ProximaNova-Bold" font-weight="bold"><tspan y="-430.416" x="805.7793 839.6026 885.47647 929.4865 973.67379 1015.03176 1051.1895 1085.1228 1101.2554 1147.392">FOUNDATION</tspan></text>
<text fill="#ffffff" xml:space="preserve" transform="matrix(1 0 -0 1 0 2623.16)" font-size="32.6304" font-family="ProximaNova-Regular"><tspan y="-546.0635" x="983.3447 1003.3145">01</tspan></text>
<text fill="#ffffff" xml:space="preserve" transform="matrix(1 0 -0 1 0 2623.16)" font-size="31.5835" font-family="ProximaNova-Regular"><tspan y="-497.6641" x="922.4922 944.9165 965.6984 991.24948 1009.22048 1017.369 1038.151 1056.6906">GAME APP</tspan><tspan y="-380.99464" x="958.6237 978.48977 1000.5982 1008.14669 1021.09597">BUILT</tspan></text>
<text fill="#ffffff" xml:space="preserve" transform="matrix(1 0 -0 1 0 2623.16)" font-size="134.0178" font-family="ProximaNova-Bold" font-weight="bold"><tspan y="-383.166" x="1328.0322 1402.8142 1505.3379 1588.965">TOP1</tspan></text>
<text fill="#ffffff" xml:space="preserve" transform="matrix(1 0 -0 1 0 2623.16)" font-size="32.6304" font-family="ProximaNova-Regular"><tspan y="-546.0635" x="1466.46 1486.4298">02</tspan></text>
<text fill="#ffffff" xml:space="preserve" transform="matrix(1 0 -0 1 0 2623.16)" font-size="31.5835" font-family="ProximaNova-Regular"><tspan y="-497.6641" x="1366.7168 1374.2653 1396.6264 1414.9448 1430.8313 1451.6133 1473.9744 1491.9769 1500.1255 1522.5498 1543.3318 1568.8828 1586.8539">INSTANT GAMES</tspan><tspan y="-334.78797" x="1344.0398 1361.4108 1381.2767 1389.4253 1396.9738 1419.3348 1437.6533 1453.5398 1474.3218 1496.6829 1514.6854 1522.834 1545.2615 1566.0435 1591.5945 1609.5656">FB INSTANT GAMES</tspan></text>
<text fill="#ffffff" xml:space="preserve" transform="matrix(1 0 -0 1 0 2623.16)" font-size="53.4423" font-family="ProximaNova-Bold" font-weight="bold"><tspan y="-434.6953" x="1822.1152 1867.6213 1881.837 1918.0336 1951.371 1991.3618 2022.6041 2063.06 2093.207">MICROSOFT</tspan><tspan y="-381.25303" x="1955.9348">&amp;</tspan><tspan y="-327.81074" x="1880.9553 1916.1738 1930.336 1964.785 2005.2515 2050.7576">XIAOMI</tspan></text>
<text fill="#ffffff" xml:space="preserve" transform="matrix(1 0 -0 1 0 2623.16)" font-size="32.6304" font-family="ProximaNova-Regular"><tspan y="-546.0635" x="1954.1406 1974.1105">03</tspan></text>
<text fill="#ffffff" xml:space="preserve" transform="matrix(1 0 -0 1 0 2623.16)" font-size="31.5835" font-family="ProximaNova-Regular"><tspan y="-497.6641" x="1848.2227 1876.1109 1894.0819 1913.9479 1922.0964 1940.636 1956.7435 1975.4094 1993.412 2010.783 2034.9443 2054.1473 2079.6983">WEB PLATFORMS</tspan></text>
<text xml:space="preserve" transform="matrix(1 0 -0 1 0 2623.16)" font-size="30.9643" font-family="ProximaNova-BoldIt" font-weight="bold" font-style="italic"><tspan y="-1050.2783" x="563.0732 581.37307 598.1557 608.62167 616.5485 634.2942 651.9903 670.13546 678.0623 704.0042 721.5919 739.1425 757.07089 764.99777 782.9261 800.84207 811.308 819.23489 836.9991 854.5868 872.16836">Kết quả muốn đạt được</tspan><tspan y="-1013.12118" x="563.0732 581.0634 596.4929 614.638 622.5649 640.54898 648.0578 663.2272 681.18649 689.11337 706.7413 723.60446 741.5328 749.45968 767.0907 784.2139 792.1408 810.19607 817.7297 835.3762 853.3355 861.2624 878.6953 896.1375 913.79647 931.35946 949.4736 957.40048 972.3934 989.9532 1007.88156 1015.8084 1033.3744 1051.0953 1068.6769 1086.3328 1094.1668">•Là đích đến để định hướng con người </tspan><tspan y="-975.964" x="581.0634 588.7116 606.6554 633.037 640.96389 656.13327 673.6033 691.1879 708.7261 716.56008 724.48696 740.2478 747.7133 764.59817 780.0493 787.9762 798.52578 816.14138 833.0943 850.8678 858.7947 869.34426 876.80978 893.6729 911.60128 919.52816 930.0777 940.7511 948.3838 966.03036 983.9896">làm chuỗi việc theo tiến trình </tspan><tspan y="-938.8068" x="563.0732 581.0634 599.36337 616.13668 626.6026 634.5295 652.27517 669.96817 688.1132 696.0401 711.9248 719.8517 737.4177 755.33059 772.93997 780.5045 798.4081 806.33499 814.26187 824.7587 842.5973 858.04849 865.97537 883.6188 901.126 918.692 936.80618 944.73306 962.36099 979.2241 997.15249 1005.07937 1020.06918 1037.6321 1055.1951 1073.3092 1081.2361 1092.1417">•Kết quả ý nghĩa, tác động đến công ty</tspan><tspan y="-1050.2783" x="1198.4606 1219.541 1237.3795 1252.549 1270.5083 1278.4352 1296.3944 1314.168 1322.0949 1329.5294 1347.111 1364.7669 1382.3329 1400.447 1408.3739 1430.5753 1448.29 1466.2338 1474.0678 1481.9946 1499.9694 1518.1145 1526.0414 1543.6725 1561.3872 1579.3309 1597.2593 1605.1862 1615.7357 1633.3823 1651.326 1668.9727 1686.932 1694.8589 1720.7637 1738.5155 1753.9667 1761.8936 1779.5247 1797.3817 1815.1553">Cách đo lường Goal đã hoàn thành mức nào </tspan><tspan y="-1013.12118" x="1198.4606 1216.4508 1237.5158 1255.2893 1263.2162 1273.7658 1291.3442 1309.0032 1316.8372 1324.764 1342.358 1360.2493 1378.1776 1386.1045 1403.7479 1421.3419 1439.1681 1449.634 1457.5609 1475.6162 1483.1499 1500.7965">•Có thời hạn nhất định</tspan><tspan y="-975.964" x="1198.4606 1216.4508 1239.2683 1257.0419 1264.9688 1282.7329 1300.3145 1317.896 1333.3472 1341.274 1349.9131 1367.9467 1385.8379 1403.4039 1421.5181 1429.445 1443.8372 1461.6107 1469.5376 1477.1054 1484.574 1501.3134 1519.0001 1526.927 1534.8539 1560.7587 1578.5137 1593.9649 1601.8917 1619.5321 1637.3057 1645.2326 1660.402 1677.996 1695.8253 1706.2913 1714.2182 1721.6527 1739.2343 1756.8932 1774.4592 1791.6569">•Đo được (bằng số liệu, mức độ chất lượng)</tspan><tspan y="-1050.2783" x="1925.8429 1946.9791 1954.4446 1971.3295 1986.7807 1994.7075 2005.0836 2022.6436 2030.4776 2038.4044 2052.781 2069.9044 2077.831 2085.476 2103.4229">Việc tôi sẽ làm</tspan><tspan y="-1013.12118" x="1925.8429 1943.8331 1966.1522 1984.0961 2001.7427 2019.702 2027.6289 2042.1821 2060.0206 2075.19 2093.1492 2101.076 2118.707 2136.369 2154.2847 2164.7506 2172.6773 2190.3177 2207.828 2225.3907 2243.5047 2251.4315 2261.6187 2269.5455 2287.192 2305.1358 2322.7823 2340.7415 2348.6683 2366.3118 2383.8189 2401.3848 2419.2635">•Danh sách hoạt động / hành động.</tspan><tspan y="-975.964" x="1925.8429 1943.8331 1959.2627 1977.4077 1985.3346 1999.2283 2006.8765 2024.8202 2051.2017 2059.1285 2077.0413 2084.8753 2092.802 2110.433 2127.993 2154.3746 2162.3013 2179.9322 2197.91 2212.7357 2222.5235 2232.949 2250.645 2268.5362 2286.4644 2294.391 2312.022 2329.9998 2345.9373">•Là “làm gì hôm nay/tuần này"</tspan><tspan y="-938.8068" x="1925.8429 1943.8331 1963.2229 1980.854 1998.414 2015.98 2034.0941 2042.021 2059.9774 2077.7508 2085.6776 2103.4449 2121.0233 2138.6048 2154.056 2161.9827 2180.016 2197.9105 2215.4732 2233.5872 2241.514 2256.6834 2274.2928 2282.1268 2290.0535 2304.4459 2321.8509 2329.7777 2337.7044 2353.9886 2371.6197 2389.1795 2406.7423 2424.8563">•Không đo được bằng chỉ số, không </tspan><tspan y="-901.64968" x="1943.8331 1961.7213 1979.3153 1997.2066 2005.0405 2012.9674 2020.6156 2038.7608 2046.6876 2062.4237 2079.197 2089.6629 2097.5897 2115.3353 2133.028">phải là kết quả</tspan></text>
<g clip-path="url(#clip_11)">
<image x="677" y="1178" width="320" height="347" xlink:href="../artifact/assets/image-06-743b10156b7e.png" />
</g>
<text fill="#ffffff" xml:space="preserve" transform="matrix(1 0 -0 1 0 2623.16)" font-size="53.0817" font-family="ProximaNova-Extrabld"><tspan y="-1261.6104" x="766.1553 804.17239 842.81588 879.3998">GOAL</tspan></text>
<g clip-path="url(#clip_12)">
<image x="1348" y="1178" width="319" height="347" xlink:href="../artifact/assets/image-07-645d112bda54.png" />
</g>
<text fill="#ffffff" xml:space="preserve" transform="matrix(1 0 -0 1 0 2623.16)" font-size="53.0817" font-family="ProximaNova-Extrabld"><tspan y="-1288.1514" x="1457.3281 1491.5658 1522.9583">KEY</tspan><tspan y="-1235.0697" x="1412.5802 1447.2055 1478.5025 1510.0701 1548.9313 1571.1725">RESULT</tspan></text>
<g clip-path="url(#clip_13)">
<image x="2019" y="1178" width="319" height="347" xlink:href="../artifact/assets/image-08-a386e0c48bba.png" />
</g>
<text fill="#ffffff" xml:space="preserve" transform="matrix(1 0 -0 1 0 2623.16)" font-size="53.0817" font-family="ProximaNova-Extrabld"><tspan y="-1261.6104" x="2112.9044 2139.6575 2176.7247 2208.77">TASK</tspan></text>
<g clip-path="url(#clip_14)">
<image x="1131" y="1326" width="42" height="45" xlink:href="../artifact/assets/image-09-53ea2c35032b.png" />
</g>
<g clip-path="url(#clip_15)">
<image x="1842" y="1326" width="67" height="45" xlink:href="../artifact/assets/image-10-7af27f20d457.png" />
</g>
</g>
</g>
</svg>